<?xml version="1.0" encoding="utf-8"?>
<!-- Generator: Adobe Illustrator 17.1.0, SVG Export Plug-In . SVG Version: 6.00 Build 0)  -->
<!DOCTYPE svg PUBLIC "-//W3C//DTD SVG 1.1//EN" "http://www.w3.org/Graphics/SVG/1.1/DTD/svg11.dtd">
<svg version="1.1" id="Layer_1" xmlns:sketch="http://www.bohemiancoding.com/sketch/ns"
	 xmlns="http://www.w3.org/2000/svg" xmlns:xlink="http://www.w3.org/1999/xlink" x="0px" y="0px" width="32px" height="128px"
	 viewBox="0 0 32 128" enable-background="new 0 0 32 128" xml:space="preserve">
<path fill="#8F98A9" d="M28.9,23.3h-4.2V9.9h4.2c0.6,0,1-0.4,1-1s-0.4-1-1-1h-4.2V3.6c0-0.6-0.4-1-1-1s-1,0.4-1,1v4.2H9.3V3.6
	c0-0.6-0.4-1-1-1s-1,0.4-1,1v4.2H3.1c-0.6,0-1,0.4-1,1s0.4,1,1,1h4.2v13.4H3.1c-0.6,0-1,0.4-1,1s0.4,1,1,1h4.2v4.2c0,0.6,0.4,1,1,1
	s1-0.4,1-1v-4.2h13.4v4.2c0,0.6,0.4,1,1,1s1-0.4,1-1v-4.2h4.2c0.6,0,1-0.4,1-1S29.5,23.3,28.9,23.3z M9.3,23.3V9.9h13.4v13.4H9.3z"
	/>
<path d="M28.9,55.2h-4.2V41.7h4.2c0.6,0,1-0.4,1-1s-0.4-1-1-1h-4.2v-4.2c0-0.6-0.4-1-1-1s-1,0.4-1,1v4.2H9.3v-4.2c0-0.6-0.4-1-1-1
	s-1,0.4-1,1v4.2H3.1c-0.6,0-1,0.4-1,1s0.4,1,1,1h4.2v13.4H3.1c-0.6,0-1,0.4-1,1s0.4,1,1,1h4.2v4.2c0,0.6,0.4,1,1,1s1-0.4,1-1v-4.2
	h13.4v4.2c0,0.6,0.4,1,1,1s1-0.4,1-1v-4.2h4.2c0.6,0,1-0.4,1-1S29.5,55.2,28.9,55.2z M9.3,55.2V41.7h13.4v13.4H9.3z"/>
<path fill="#009BE7" d="M28.9,87h-4.2V73.6h4.2c0.6,0,1-0.4,1-1s-0.4-1-1-1h-4.2v-4.2c0-0.6-0.4-1-1-1s-1,0.4-1,1v4.2H9.3v-4.2
	c0-0.6-0.4-1-1-1s-1,0.4-1,1v4.2H3.1c-0.6,0-1,0.4-1,1s0.4,1,1,1h4.2V87H3.1c-0.6,0-1,0.4-1,1s0.4,1,1,1h4.2v4.2c0,0.6,0.4,1,1,1
	s1-0.4,1-1V89h13.4v4.2c0,0.6,0.4,1,1,1s1-0.4,1-1V89h4.2c0.6,0,1-0.4,1-1S29.5,87,28.9,87z M9.3,87V73.6h13.4V87H9.3z"/>
<path fill="#FFFFFF" d="M28.9,118.9h-4.2v-13.4h4.2c0.6,0,1-0.4,1-1s-0.4-1-1-1h-4.2v-4.2c0-0.6-0.4-1-1-1s-1,0.4-1,1v4.2H9.3v-4.2
	c0-0.6-0.4-1-1-1s-1,0.4-1,1v4.2H3.1c-0.6,0-1,0.4-1,1s0.4,1,1,1h4.2v13.4H3.1c-0.6,0-1,0.4-1,1s0.4,1,1,1h4.2v4.2c0,0.6,0.4,1,1,1
	s1-0.4,1-1v-4.2h13.4v4.2c0,0.6,0.4,1,1,1s1-0.4,1-1v-4.2h4.2c0.6,0,1-0.4,1-1S29.5,118.9,28.9,118.9z M9.3,118.9v-13.4h13.4v13.4
	H9.3z"/>
</svg>
