<?xml version="1.0" encoding="utf-8"?>
<!-- Generator: Adobe Illustrator 17.1.0, SVG Export Plug-In . SVG Version: 6.00 Build 0)  -->
<!DOCTYPE svg PUBLIC "-//W3C//DTD SVG 1.1//EN" "http://www.w3.org/Graphics/SVG/1.1/DTD/svg11.dtd">
<svg version="1.1" id="Layer_1" xmlns:sketch="http://www.bohemiancoding.com/sketch/ns"
	 xmlns="http://www.w3.org/2000/svg" xmlns:xlink="http://www.w3.org/1999/xlink" x="0px" y="0px" width="32px" height="128px"
	 viewBox="0 0 32 128" enable-background="new 0 0 32 128" xml:space="preserve">
<path fill="#8F98A9" d="M16,4.6c-5.8,0-10.5,4.7-10.5,10.5c0,5.8,4.7,10.5,10.5,10.5s10.5-4.7,10.5-10.5C26.5,9.3,21.8,4.6,16,4.6z
	 M24.5,15.1c0,2-0.7,3.8-1.8,5.3L10.7,8.4C12.2,7.3,14,6.6,16,6.6C20.7,6.6,24.5,10.4,24.5,15.1z M7.5,15.1c0-2,0.7-3.8,1.8-5.3
	l11.9,11.9c-1.4,1.1-3.3,1.8-5.3,1.8C11.3,23.6,7.5,19.8,7.5,15.1z"/>
<path d="M16,36.6c-5.8,0-10.5,4.7-10.5,10.5c0,5.8,4.7,10.5,10.5,10.5s10.5-4.7,10.5-10.5C26.5,41.3,21.8,36.6,16,36.6z M24.5,47.1
	c0,2-0.7,3.8-1.8,5.3L10.7,40.4c1.4-1.1,3.3-1.8,5.3-1.8C20.7,38.6,24.5,42.4,24.5,47.1z M7.5,47.1c0-2,0.7-3.8,1.8-5.3l11.9,11.9
	c-1.4,1.1-3.3,1.8-5.3,1.8C11.3,55.6,7.5,51.8,7.5,47.1z"/>
<path fill="#009BE7" d="M16,68.6c-5.8,0-10.5,4.7-10.5,10.5c0,5.8,4.7,10.5,10.5,10.5s10.5-4.7,10.5-10.5
	C26.5,73.3,21.8,68.6,16,68.6z M24.5,79.1c0,2-0.7,3.8-1.8,5.3L10.7,72.4c1.4-1.1,3.3-1.8,5.3-1.8C20.7,70.6,24.5,74.4,24.5,79.1z
	 M7.5,79.1c0-2,0.7-3.8,1.8-5.3l11.9,11.9c-1.4,1.1-3.3,1.8-5.3,1.8C11.3,87.6,7.5,83.8,7.5,79.1z"/>
<path fill="#FFFFFF" d="M16,100.6c-5.8,0-10.5,4.7-10.5,10.5c0,5.8,4.7,10.5,10.5,10.5s10.5-4.7,10.5-10.5
	C26.5,105.3,21.8,100.6,16,100.6z M24.5,111.1c0,2-0.7,3.8-1.8,5.3l-11.9-11.9c1.4-1.1,3.3-1.8,5.3-1.8
	C20.7,102.6,24.5,106.4,24.5,111.1z M7.5,111.1c0-2,0.7-3.8,1.8-5.3l11.9,11.9c-1.4,1.1-3.3,1.8-5.3,1.8
	C11.3,119.6,7.5,115.8,7.5,111.1z"/>
</svg>
