<?xml version="1.0" encoding="utf-8"?>
<!-- Generator: Adobe Illustrator 17.1.0, SVG Export Plug-In . SVG Version: 6.00 Build 0)  -->
<!DOCTYPE svg PUBLIC "-//W3C//DTD SVG 1.1//EN" "http://www.w3.org/Graphics/SVG/1.1/DTD/svg11.dtd">
<svg version="1.1" id="Layer_1" xmlns:sketch="http://www.bohemiancoding.com/sketch/ns"
	 xmlns="http://www.w3.org/2000/svg" xmlns:xlink="http://www.w3.org/1999/xlink" x="0px" y="0px" width="32px" height="128px"
	 viewBox="0 0 32 128" enable-background="new 0 0 32 128" xml:space="preserve">
<path fill="#4E5D78" d="M28,21.8c0-1-0.9-3.3-1.6-4.3c0,0,0,0,0-0.1l0,0c-0.1-0.2-0.2-0.4-0.4-0.6l-9.3-12c-0.8-1-2.2-1.7-3.6-1.7
	c-0.6,0-1.2,0.1-1.7,0.3L6.6,5.6c-0.5,0.2-0.9,0.6-1.3,1c0,0,0,0,0,0C4.7,7.3,4.3,8.2,4.1,8.7C4,8.8,4,9.1,3.9,9.3c0,0.3,0,0.6,0,1
	l0,0.2c0.3,1.7,1.3,4,2.3,5.4L15,27.3c0.8,1,2.2,1.7,3.6,1.7c0,0,0,0,0,0c0.6,0,1.2-0.1,1.7-0.3l4.8-2.1c1.7-0.8,3-2.8,2.9-4.5
	c0,0,0,0,0-0.1C28,21.9,28,21.8,28,21.8z M12.1,5c0.3-0.1,0.6-0.2,1-0.2c0.9,0,1.8,0.4,2.3,1l9.3,12c0.1,0.2,0.2,0.4,0.3,0.6
	c0,0,0,0.1,0,0.1c0,0.1,0,0.1,0,0.2c0,0,0,0.1,0,0.1c0,0.1,0,0.1,0,0.2c0,0,0,0.1,0,0.1c0,0,0,0.1-0.1,0.1c0,0,0,0.1-0.1,0.1
	c0,0.1-0.1,0.1-0.1,0.1c0,0,0,0.1-0.1,0.1c-0.1,0.1-0.1,0.1-0.2,0.1c0,0,0,0-0.1,0c-0.1,0.1-0.2,0.1-0.3,0.2L19.3,22
	c-0.3,0.1-0.6,0.2-1,0.2c-0.2,0-0.4,0-0.7-0.1c-0.7-0.1-1.2-0.5-1.6-1l-9.2-12c0,0,0-0.1-0.1-0.1C6.6,9,6.6,8.8,6.5,8.7c0,0,0,0,0,0
	C6.4,8.3,6.4,7.9,6.7,7.6c0,0,0,0,0,0C6.8,7.4,7,7.2,7.3,7.1L12.1,5z M26.3,22.1c0,1.1-0.8,2.4-1.9,2.9l-4.8,2.1
	c-0.3,0.1-0.6,0.2-1,0.2c-0.9,0-1.8-0.4-2.3-1L7.6,14.9c-0.8-1.1-1.6-3-1.9-4.4l9,11.6c0.7,0.9,1.8,1.5,3.1,1.7c0.2,0,0.4,0,0.5,0
	c0.6,0,1.2-0.1,1.7-0.3l4.8-2.1c0.2-0.1,0.5-0.2,0.7-0.4c0.1-0.1,0.1-0.1,0.2-0.2c0.1-0.1,0.2-0.2,0.3-0.3c0,0,0,0,0.1-0.1
	c0.2,0.5,0.3,0.9,0.3,1.3c0,0,0,0.1,0,0.1C26.3,21.9,26.3,22,26.3,22.1C26.3,22.1,26.3,22.1,26.3,22.1z"/>
<path d="M28,53.8c0-1-0.9-3.3-1.6-4.3c0,0,0,0,0-0.1l0,0c-0.1-0.2-0.2-0.4-0.4-0.6l-9.3-12c-0.8-1-2.2-1.7-3.6-1.7
	c-0.6,0-1.2,0.1-1.7,0.3l-4.8,2.1c-0.5,0.2-0.9,0.6-1.3,1c0,0,0,0,0,0c-0.7,0.8-1.1,1.7-1.2,2.1C4,40.8,4,41.1,3.9,41.3
	c0,0.3,0,0.6,0,1l0,0.2c0.3,1.7,1.3,4,2.3,5.4L15,59.3c0.8,1,2.2,1.7,3.6,1.7c0,0,0,0,0,0c0.6,0,1.2-0.1,1.7-0.3l4.8-2.1
	c1.7-0.8,3-2.8,2.9-4.5c0,0,0,0,0-0.1C28,53.9,28,53.8,28,53.8z M12.1,37c0.3-0.1,0.6-0.2,1-0.2c0.9,0,1.8,0.4,2.3,1l9.3,12
	c0.1,0.2,0.2,0.4,0.3,0.6c0,0,0,0.1,0,0.1c0,0.1,0,0.1,0,0.2c0,0,0,0.1,0,0.1c0,0.1,0,0.1,0,0.2c0,0,0,0.1,0,0.1c0,0,0,0.1-0.1,0.1
	c0,0,0,0.1-0.1,0.1c0,0.1-0.1,0.1-0.1,0.1c0,0,0,0.1-0.1,0.1c-0.1,0.1-0.1,0.1-0.2,0.1c0,0,0,0-0.1,0c-0.1,0.1-0.2,0.1-0.3,0.2
	L19.3,54c-0.3,0.1-0.6,0.2-1,0.2c-0.2,0-0.4,0-0.7-0.1c-0.7-0.1-1.2-0.5-1.6-1l-9.2-12c0,0,0-0.1-0.1-0.1c-0.1-0.1-0.2-0.3-0.2-0.4
	c0,0,0,0,0,0c-0.1-0.4-0.1-0.8,0.1-1.1c0,0,0,0,0,0c0.1-0.2,0.4-0.4,0.6-0.5L12.1,37z M26.3,54.1c0,1.1-0.8,2.4-1.9,2.9l-4.8,2.1
	c-0.3,0.1-0.6,0.2-1,0.2c-0.9,0-1.8-0.4-2.3-1L7.6,46.9c-0.8-1.1-1.6-3-1.9-4.4l9,11.6c0.7,0.9,1.8,1.5,3.1,1.7c0.2,0,0.4,0,0.5,0
	c0.6,0,1.2-0.1,1.7-0.3l4.8-2.1c0.2-0.1,0.5-0.2,0.7-0.4c0.1-0.1,0.1-0.1,0.2-0.2c0.1-0.1,0.2-0.2,0.3-0.3c0,0,0,0,0.1-0.1
	c0.2,0.5,0.3,0.9,0.3,1.3c0,0,0,0.1,0,0.1C26.3,53.9,26.3,54,26.3,54.1C26.3,54.1,26.3,54.1,26.3,54.1z"/>
<path fill="#009BE7" d="M28,85.8c0-1-0.9-3.3-1.6-4.3c0,0,0,0,0-0.1l0,0c-0.1-0.2-0.2-0.4-0.4-0.6l-9.3-12c-0.8-1-2.2-1.7-3.6-1.7
	c-0.6,0-1.2,0.1-1.7,0.3l-4.8,2.1c-0.5,0.2-0.9,0.6-1.3,1c0,0,0,0,0,0c-0.7,0.8-1.1,1.7-1.2,2.1C4,72.8,4,73.1,3.9,73.3
	c0,0.3,0,0.6,0,1l0,0.2c0.3,1.7,1.3,4,2.3,5.4L15,91.3c0.8,1,2.2,1.7,3.6,1.7c0,0,0,0,0,0c0.6,0,1.2-0.1,1.7-0.3l4.8-2.1
	c1.7-0.8,3-2.8,2.9-4.5c0,0,0,0,0-0.1C28,85.9,28,85.8,28,85.8z M12.1,69c0.3-0.1,0.6-0.2,1-0.2c0.9,0,1.8,0.4,2.3,1l9.3,12
	c0.1,0.2,0.2,0.4,0.3,0.6c0,0,0,0.1,0,0.1c0,0.1,0,0.1,0,0.2c0,0,0,0.1,0,0.1c0,0.1,0,0.1,0,0.2c0,0,0,0.1,0,0.1c0,0,0,0.1-0.1,0.1
	c0,0,0,0.1-0.1,0.1c0,0.1-0.1,0.1-0.1,0.1c0,0,0,0.1-0.1,0.1c-0.1,0.1-0.1,0.1-0.2,0.1c0,0,0,0-0.1,0c-0.1,0.1-0.2,0.1-0.3,0.2
	L19.3,86c-0.3,0.1-0.6,0.2-1,0.2c-0.2,0-0.4,0-0.7-0.1c-0.7-0.1-1.2-0.5-1.6-1l-9.2-12c0,0,0-0.1-0.1-0.1c-0.1-0.1-0.2-0.3-0.2-0.4
	c0,0,0,0,0,0c-0.1-0.4-0.1-0.8,0.1-1.1c0,0,0,0,0,0c0.1-0.2,0.4-0.4,0.6-0.5L12.1,69z M26.3,86.1c0,1.1-0.8,2.4-1.9,2.9l-4.8,2.1
	c-0.3,0.1-0.6,0.2-1,0.2c-0.9,0-1.8-0.4-2.3-1L7.6,78.9c-0.8-1.1-1.6-3-1.9-4.4l9,11.6c0.7,0.9,1.8,1.5,3.1,1.7c0.2,0,0.4,0,0.5,0
	c0.6,0,1.2-0.1,1.7-0.3l4.8-2.1c0.2-0.1,0.5-0.2,0.7-0.4c0.1-0.1,0.1-0.1,0.2-0.2c0.1-0.1,0.2-0.2,0.3-0.3c0,0,0,0,0.1-0.1
	c0.2,0.5,0.3,0.9,0.3,1.3c0,0,0,0.1,0,0.1C26.3,85.9,26.3,86,26.3,86.1C26.3,86.1,26.3,86.1,26.3,86.1z"/>
<path fill="#FFFFFF" d="M28,117.8c0-1-0.9-3.3-1.6-4.3c0,0,0,0,0-0.1l0,0c-0.1-0.2-0.2-0.4-0.4-0.6l-9.3-12c-0.8-1-2.2-1.7-3.6-1.7
	c-0.6,0-1.2,0.1-1.7,0.3l-4.8,2.1c-0.5,0.2-0.9,0.6-1.3,1c0,0,0,0,0,0c-0.7,0.8-1.1,1.7-1.2,2.1c-0.1,0.2-0.2,0.4-0.2,0.6
	c0,0.3,0,0.6,0,1l0,0.2c0.3,1.7,1.3,4,2.3,5.4l8.7,11.4c0.8,1,2.2,1.7,3.6,1.7c0,0,0,0,0,0c0.6,0,1.2-0.1,1.7-0.3l4.8-2.1
	c1.7-0.8,3-2.8,2.9-4.5c0,0,0,0,0-0.1C28,117.9,28,117.8,28,117.8z M12.1,101c0.3-0.1,0.6-0.2,1-0.2c0.9,0,1.8,0.4,2.3,1l9.3,12
	c0.1,0.2,0.2,0.4,0.3,0.6c0,0,0,0.1,0,0.1c0,0.1,0,0.1,0,0.2c0,0,0,0.1,0,0.1c0,0.1,0,0.1,0,0.2c0,0,0,0.1,0,0.1c0,0,0,0.1-0.1,0.1
	c0,0,0,0.1-0.1,0.1c0,0.1-0.1,0.1-0.1,0.1c0,0,0,0.1-0.1,0.1c-0.1,0.1-0.1,0.1-0.2,0.1c0,0,0,0-0.1,0c-0.1,0.1-0.2,0.1-0.3,0.2
	l-4.8,2.1c-0.3,0.1-0.6,0.2-1,0.2c-0.2,0-0.4,0-0.7-0.1c-0.7-0.1-1.2-0.5-1.6-1l-9.2-12c0,0,0-0.1-0.1-0.1c-0.1-0.1-0.2-0.3-0.2-0.4
	c0,0,0,0,0,0c-0.1-0.4-0.1-0.8,0.1-1.1c0,0,0,0,0,0c0.1-0.2,0.4-0.4,0.6-0.5L12.1,101z M26.3,118.1c0,1.1-0.8,2.4-1.9,2.9l-4.8,2.1
	c-0.3,0.1-0.6,0.2-1,0.2c-0.9,0-1.8-0.4-2.3-1l-8.7-11.4c-0.8-1.1-1.6-3-1.9-4.4l9,11.6c0.7,0.9,1.8,1.5,3.1,1.7c0.2,0,0.4,0,0.5,0
	c0.6,0,1.2-0.1,1.7-0.3l4.8-2.1c0.2-0.1,0.5-0.2,0.7-0.4c0.1-0.1,0.1-0.1,0.2-0.2c0.1-0.1,0.2-0.2,0.3-0.3c0,0,0,0,0.1-0.1
	c0.2,0.5,0.3,0.9,0.3,1.3c0,0,0,0.1,0,0.1C26.3,117.9,26.3,118,26.3,118.1C26.3,118.1,26.3,118.1,26.3,118.1z"/>
</svg>
