<?xml version="1.0" encoding="utf-8"?>
<!-- Generator: Adobe Illustrator 17.1.0, SVG Export Plug-In . SVG Version: 6.00 Build 0)  -->
<!DOCTYPE svg PUBLIC "-//W3C//DTD SVG 1.1//EN" "http://www.w3.org/Graphics/SVG/1.1/DTD/svg11.dtd">
<svg version="1.1" id="Layer_1" xmlns:sketch="http://www.bohemiancoding.com/sketch/ns"
	 xmlns="http://www.w3.org/2000/svg" xmlns:xlink="http://www.w3.org/1999/xlink" x="0px" y="0px" width="32px" height="128px"
	 viewBox="0 0 32 128" enable-background="new 0 0 32 128" xml:space="preserve">
<path fill="#4E5D78" d="M28,11.2l-9.3-9.1l0,0l0,0c-0.2-0.2-0.6-0.2-0.9-0.2l0,0H6.5C6,1.9,5.7,2.3,5.7,2.7v5L2.1,9.2
	c-0.3,0.1-1.4,1-1.4,1.2c-0.2,0.3-0.6,1.1-0.6,1.1L0,12.1c0,0,0,0.6,0,0.9v0.1c0.2,1.3,1,3.1,1.8,4.1l3.9,5.1v7
	c0,0.4,0.3,0.9,0.9,0.9h21c0.4,0,0.9-0.3,0.9-0.9V11.9C28.4,11.7,28.3,11.5,28,11.2z M25.5,11.2H19V4.7L25.5,11.2z M2.8,10.8
	l3.5-1.5c0.7-0.3,1.8,0,2.2,0.6l7.6,9.9c-0.9,0.6-3.6,2.4-4.5,2.4l0,0c-0.3,0-1.2-0.9-1.8-1.8L2.8,10.8C3.1,11.2,2.8,10.8,2.8,10.8z
	 M1.7,12.3v-0.1l0,0l6.7,9.1c0.4,0.7,1.8,2.4,3.1,2.4c0.2,0,0.3,0,0.6-0.1c1-0.3,3.7-1.9,4.4-2.3c0,0.1,0.1,0.3,0.1,0.4
	c0.2,0.7-0.7,1.8-1.4,2.1l-3.5,1.5c-0.7,0.3-1.8,0-2.2-0.6l-6.5-8.5C1,13,1.7,12.5,1.7,12.3z M7.3,28.5v-4l0.9,1.2
	c0.7,0.8,1.8,1.3,2.9,1.3c0.4,0,0.9-0.1,1.3-0.2l3.5-1.5c1.3-0.6,2.3-2.1,2.3-3.5c0-0.1,0-0.1,0-0.2c0-0.6-0.6-2.4-1.3-3.3l0,0
	C16.9,18,9.8,8.9,9.8,8.9C9.2,8.1,8.2,7.7,7.2,7.6v-4h10v8.5c0,0.4,0.3,0.9,0.9,0.9h8.6v15.6H7.3V28.5z"/>
<path d="M28,43.2l-9.3-9.1l0,0l0,0c-0.2-0.2-0.6-0.2-0.9-0.2l0,0H6.5c-0.4,0-0.8,0.3-0.8,0.8v5l-3.5,1.5c-0.3,0.1-1.4,1-1.4,1.2
	c-0.2,0.3-0.6,1.1-0.6,1.1L0,44.1c0,0,0,0.6,0,0.9v0.1c0.2,1.3,1,3.1,1.8,4.1l3.9,5.1v7c0,0.4,0.3,0.9,0.9,0.9h21
	c0.4,0,0.9-0.3,0.9-0.9V43.9C28.4,43.7,28.3,43.5,28,43.2z M25.5,43.2H19v-6.5L25.5,43.2z M2.8,42.8l3.5-1.5c0.7-0.3,1.8,0,2.2,0.6
	l7.6,9.9c-0.9,0.6-3.6,2.4-4.5,2.4l0,0c-0.3,0-1.2-0.9-1.8-1.8L2.8,42.8C3.1,43.2,2.8,42.8,2.8,42.8z M1.7,44.3v-0.1l0,0l6.7,9.1
	c0.4,0.7,1.8,2.4,3.1,2.4c0.2,0,0.3,0,0.6-0.1c1-0.3,3.7-1.9,4.4-2.3c0,0.1,0.1,0.3,0.1,0.4c0.2,0.7-0.7,1.8-1.4,2.1l-3.5,1.5
	c-0.7,0.3-1.8,0-2.2-0.6l-6.5-8.5C1,45,1.7,44.5,1.7,44.3z M7.3,60.5v-4l0.9,1.2c0.7,0.8,1.8,1.3,2.9,1.3c0.4,0,0.9-0.1,1.3-0.2
	l3.5-1.5c1.3-0.6,2.3-2.1,2.3-3.5c0-0.1,0-0.1,0-0.2c0-0.6-0.6-2.4-1.3-3.3l0,0c-0.1-0.2-7.2-9.3-7.2-9.3c-0.6-0.8-1.5-1.2-2.5-1.3
	v-4h10v8.5c0,0.4,0.3,0.9,0.9,0.9h8.6v15.6H7.3V60.5z"/>
<path fill="#009BE7" d="M28,75.2l-9.3-9.1l0,0l0,0c-0.2-0.2-0.6-0.2-0.9-0.2l0,0H6.5c-0.4,0-0.8,0.3-0.8,0.8v5l-3.5,1.5
	c-0.3,0.1-1.4,1-1.4,1.2c-0.2,0.3-0.6,1.1-0.6,1.1L0,76.1c0,0,0,0.6,0,0.9v0.1c0.2,1.3,1,3.1,1.8,4.1l3.9,5.1v7
	c0,0.4,0.3,0.9,0.9,0.9h21c0.4,0,0.9-0.3,0.9-0.9V75.9C28.4,75.7,28.3,75.5,28,75.2z M25.5,75.2H19v-6.5L25.5,75.2z M2.8,74.8
	l3.5-1.5c0.7-0.3,1.8,0,2.2,0.6l7.6,9.9c-0.9,0.6-3.6,2.4-4.5,2.4l0,0c-0.3,0-1.2-0.9-1.8-1.8L2.8,74.8C3.1,75.2,2.8,74.8,2.8,74.8z
	 M1.7,76.3v-0.1l0,0l6.7,9.1c0.4,0.7,1.8,2.4,3.1,2.4c0.2,0,0.3,0,0.6-0.1c1-0.3,3.7-1.9,4.4-2.3c0,0.1,0.1,0.3,0.1,0.4
	c0.2,0.7-0.7,1.8-1.4,2.1l-3.5,1.5c-0.7,0.3-1.8,0-2.2-0.6l-6.5-8.5C1,77,1.7,76.5,1.7,76.3z M7.3,92.5v-4l0.9,1.2
	c0.7,0.8,1.8,1.3,2.9,1.3c0.4,0,0.9-0.1,1.3-0.2l3.5-1.5c1.3-0.6,2.3-2.1,2.3-3.5c0-0.1,0-0.1,0-0.2c0-0.6-0.6-2.4-1.3-3.3l0,0
	c-0.1-0.2-7.2-9.3-7.2-9.3c-0.6-0.8-1.5-1.2-2.5-1.3v-4h10v8.5c0,0.4,0.3,0.9,0.9,0.9h8.6v15.6H7.3V92.5z"/>
<path fill="#FFFFFF" d="M28,107.2l-9.3-9.1l0,0l0,0c-0.2-0.2-0.6-0.2-0.9-0.2l0,0H6.5c-0.4,0-0.8,0.3-0.8,0.8v5l-3.5,1.5
	c-0.3,0.1-1.4,1-1.4,1.2c-0.2,0.3-0.6,1.1-0.6,1.1L0,108.1c0,0,0,0.6,0,0.9v0.1c0.2,1.3,1,3.1,1.8,4.1l3.9,5.1v7
	c0,0.4,0.3,0.9,0.9,0.9h21c0.4,0,0.9-0.3,0.9-0.9v-17.4C28.4,107.7,28.3,107.5,28,107.2z M25.5,107.2H19v-6.5L25.5,107.2z
	 M2.8,106.8l3.5-1.5c0.7-0.3,1.8,0,2.2,0.6l7.6,9.9c-0.9,0.6-3.6,2.4-4.5,2.4l0,0c-0.3,0-1.2-0.9-1.8-1.8L2.8,106.8
	C3.1,107.2,2.8,106.8,2.8,106.8z M1.7,108.3v-0.1l0,0l6.7,9.1c0.4,0.7,1.8,2.4,3.1,2.4c0.2,0,0.3,0,0.6-0.1c1-0.3,3.7-1.9,4.4-2.3
	c0,0.1,0.1,0.3,0.1,0.4c0.2,0.7-0.7,1.8-1.4,2.1l-3.5,1.5c-0.7,0.3-1.8,0-2.2-0.6l-6.5-8.5C1,109,1.7,108.5,1.7,108.3z M7.3,124.5
	v-4l0.9,1.2c0.7,0.8,1.8,1.3,2.9,1.3c0.4,0,0.9-0.1,1.3-0.2l3.5-1.5c1.3-0.6,2.3-2.1,2.3-3.5c0-0.1,0-0.1,0-0.2
	c0-0.6-0.6-2.4-1.3-3.3l0,0c-0.1-0.2-7.2-9.3-7.2-9.3c-0.6-0.8-1.5-1.2-2.5-1.3v-4h10v8.5c0,0.4,0.3,0.9,0.9,0.9h8.6v15.6H7.3V124.5
	z"/>
</svg>
