<?xml version="1.0" encoding="utf-8"?>
<!-- Generator: Adobe Illustrator 17.1.0, SVG Export Plug-In . SVG Version: 6.00 Build 0)  -->
<!DOCTYPE svg PUBLIC "-//W3C//DTD SVG 1.1//EN" "http://www.w3.org/Graphics/SVG/1.1/DTD/svg11.dtd">
<svg version="1.1" id="Layer_1" xmlns:sketch="http://www.bohemiancoding.com/sketch/ns"
	 xmlns="http://www.w3.org/2000/svg" xmlns:xlink="http://www.w3.org/1999/xlink" x="0px" y="0px" width="32px" height="128px"
	 viewBox="0 0 32 128" enable-background="new 0 0 32 128" xml:space="preserve">
<path fill="#BFC4CE" d="M24.4,12.6v-1.3h-3.7V7.7h-1.3v3.7h-6.9V7.7h-1.3v3.7H7.6v1.3h3.7v6.9H7.6v1.3h3.7v3.7h1.3v-3.7h6.9v3.7h1.3
	v-3.7h3.7v-1.3h-3.7v-6.9H24.4z M19.5,19.5h-6.9v-6.9h6.9V19.5z"/>
<g>
	<path fill="#4E5D78" d="M24,26.8H8c-1.5,0-2.8-1.2-2.8-2.8V8c0-1.5,1.2-2.8,2.8-2.8h16c1.5,0,2.8,1.2,2.8,2.8v16
		C26.8,25.5,25.5,26.8,24,26.8z M8,6.8C7.3,6.8,6.8,7.3,6.8,8v16c0,0.7,0.6,1.2,1.2,1.2h16c0.7,0,1.2-0.6,1.2-1.2V8
		c0-0.7-0.6-1.2-1.2-1.2H8z"/>
</g>
<path fill="#BFC4CE" d="M24.4,44.6v-1.3h-3.7v-3.7h-1.3v3.7h-6.9v-3.7h-1.3v3.7H7.6v1.3h3.7v6.9H7.6v1.3h3.7v3.7h1.3v-3.7h6.9v3.7
	h1.3v-3.7h3.7v-1.3h-3.7v-6.9H24.4z M19.5,51.5h-6.9v-6.9h6.9V51.5z"/>
<g>
	<path d="M24,58.8H8c-1.5,0-2.8-1.2-2.8-2.8V40c0-1.5,1.2-2.8,2.8-2.8h16c1.5,0,2.8,1.2,2.8,2.8v16C26.8,57.5,25.5,58.8,24,58.8z
		 M8,38.8c-0.7,0-1.2,0.6-1.2,1.2v16c0,0.7,0.6,1.2,1.2,1.2h16c0.7,0,1.2-0.6,1.2-1.2V40c0-0.7-0.6-1.2-1.2-1.2H8z"/>
</g>
<path fill="#BFC4CE" d="M24.4,76.6v-1.3h-3.7v-3.7h-1.3v3.7h-6.9v-3.7h-1.3v3.7H7.6v1.3h3.7v6.9H7.6v1.3h3.7v3.7h1.3v-3.7h6.9v3.7
	h1.3v-3.7h3.7v-1.3h-3.7v-6.9H24.4z M19.5,83.5h-6.9v-6.9h6.9V83.5z"/>
<g>
	<path fill="#009BE7" d="M24,90.8H8c-1.5,0-2.8-1.2-2.8-2.8V72c0-1.5,1.2-2.8,2.8-2.8h16c1.5,0,2.8,1.2,2.8,2.8v16
		C26.8,89.5,25.5,90.8,24,90.8z M8,70.8c-0.7,0-1.2,0.6-1.2,1.2v16c0,0.7,0.6,1.2,1.2,1.2h16c0.7,0,1.2-0.6,1.2-1.2V72
		c0-0.7-0.6-1.2-1.2-1.2H8z"/>
</g>
<path fill="#BFC4CE" d="M24.4,108.6v-1.3h-3.7v-3.7h-1.3v3.7h-6.9v-3.7h-1.3v3.7H7.6v1.3h3.7v6.9H7.6v1.3h3.7v3.7h1.3v-3.7h6.9v3.7
	h1.3v-3.7h3.7v-1.3h-3.7v-6.9H24.4z M19.5,115.5h-6.9v-6.9h6.9V115.5z"/>
<g>
	<path fill="#FFFFFF" d="M24,122.8H8c-1.5,0-2.8-1.2-2.8-2.8v-16c0-1.5,1.2-2.8,2.8-2.8h16c1.5,0,2.8,1.2,2.8,2.8v16
		C26.8,121.5,25.5,122.8,24,122.8z M8,102.8c-0.7,0-1.2,0.6-1.2,1.2v16c0,0.7,0.6,1.2,1.2,1.2h16c0.7,0,1.2-0.6,1.2-1.2v-16
		c0-0.7-0.6-1.2-1.2-1.2H8z"/>
</g>
</svg>
