<?xml version="1.0" encoding="utf-8"?>
<!-- Generator: Adobe Illustrator 17.1.0, SVG Export Plug-In . SVG Version: 6.00 Build 0)  -->
<!DOCTYPE svg PUBLIC "-//W3C//DTD SVG 1.1//EN" "http://www.w3.org/Graphics/SVG/1.1/DTD/svg11.dtd">
<svg version="1.1" id="Layer_1" xmlns:sketch="http://www.bohemiancoding.com/sketch/ns"
	 xmlns="http://www.w3.org/2000/svg" xmlns:xlink="http://www.w3.org/1999/xlink" x="0px" y="0px" width="32px" height="128px"
	 viewBox="0 0 32 128" enable-background="new 0 0 32 128" xml:space="preserve">
<g>
	<path fill="#4E5D78" d="M4.2,14.4h9.1c0.4,0,0.9-0.3,0.9-0.9V4.5c0-0.4-0.3-0.9-0.9-0.9H4.2c-0.4,0-0.9,0.3-0.9,0.9v9.1
		C3.4,14,3.8,14.4,4.2,14.4z M5.1,5.3h7.5v7.5H5.1V5.3z"/>
	<path fill="#4E5D78" d="M23.6,14.4c3.1,0,5.6-2.5,5.6-5.6s-2.5-5.6-5.6-5.6s-5.6,2.5-5.6,5.6S20.4,14.4,23.6,14.4z M23.6,4.9
		c2.2,0,4,1.7,4,4c0,2.2-1.7,4-4,4c-2.2,0-4-1.7-4-4S21.4,4.9,23.6,4.9z"/>
	<path fill="#4E5D78" d="M9.6,18.2c-0.2-0.3-0.4-0.4-0.7-0.4c-0.3,0-0.6,0.2-0.7,0.4l-5.3,9.1c-0.2,0.3-0.2,0.6,0,0.9
		c0.2,0.3,0.4,0.4,0.7,0.4h10.5l0,0c0.4,0,0.9-0.3,0.9-0.9c0-0.2-0.1-0.4-0.2-0.5L9.6,18.2z M5.1,26.8l3.8-6.6l3.8,6.6H5.1z"/>
</g>
<path fill="#4E5D78" d="M20.1,18.3c-0.3-0.3-0.9-0.3-1.2,0s-0.3,0.9,0,1.2l8.8,8.5c0.2,0.2,0.3,0.3,0.6,0.3c0.2,0,0.4-0.1,0.6-0.3
	c0.3-0.3,0.3-0.9,0-1.2L20.1,18.3z"/>
<g>
	<path d="M4.2,46.4h9.1c0.4,0,0.9-0.3,0.9-0.9v-9.1c0-0.4-0.3-0.9-0.9-0.9H4.2c-0.4,0-0.9,0.3-0.9,0.9v9.1C3.4,46,3.8,46.4,4.2,46.4
		z M5.1,37.3h7.5v7.5H5.1V37.3z"/>
	<path d="M23.6,46.4c3.1,0,5.6-2.5,5.6-5.6c0-3.1-2.5-5.6-5.6-5.6s-5.6,2.5-5.6,5.6C17.9,43.9,20.4,46.4,23.6,46.4z M23.6,36.9
		c2.2,0,4,1.7,4,4c0,2.2-1.7,4-4,4c-2.2,0-4-1.7-4-4S21.4,36.9,23.6,36.9z"/>
	<path d="M9.6,50.2c-0.2-0.3-0.4-0.4-0.7-0.4c-0.3,0-0.6,0.2-0.7,0.4l-5.3,9.1c-0.2,0.3-0.2,0.6,0,0.9c0.2,0.3,0.4,0.4,0.7,0.4h10.5
		l0,0c0.4,0,0.9-0.3,0.9-0.9c0-0.2-0.1-0.4-0.2-0.5L9.6,50.2z M5.1,58.8l3.8-6.6l3.8,6.6H5.1z"/>
</g>
<path d="M20.1,50.3c-0.3-0.3-0.9-0.3-1.2,0s-0.3,0.9,0,1.2l8.8,8.5c0.2,0.2,0.3,0.3,0.6,0.3c0.2,0,0.4-0.1,0.6-0.3
	c0.3-0.3,0.3-0.9,0-1.2L20.1,50.3z"/>
<g>
	<path fill="#009BE7" d="M4.2,78.4h9.1c0.4,0,0.9-0.3,0.9-0.9v-9.1c0-0.4-0.3-0.9-0.9-0.9H4.2c-0.4,0-0.9,0.3-0.9,0.9v9.1
		C3.4,78,3.8,78.4,4.2,78.4z M5.1,69.3h7.5v7.5H5.1V69.3z"/>
	<path fill="#009BE7" d="M23.6,78.4c3.1,0,5.6-2.5,5.6-5.6c0-3.1-2.5-5.6-5.6-5.6s-5.6,2.5-5.6,5.6C17.9,75.9,20.4,78.4,23.6,78.4z
		 M23.6,68.9c2.2,0,4,1.7,4,4c0,2.2-1.7,4-4,4c-2.2,0-4-1.7-4-4C19.6,70.6,21.4,68.9,23.6,68.9z"/>
	<path fill="#009BE7" d="M9.6,82.2c-0.2-0.3-0.4-0.4-0.7-0.4c-0.3,0-0.6,0.2-0.7,0.4l-5.3,9.1c-0.2,0.3-0.2,0.6,0,0.9
		c0.2,0.3,0.4,0.4,0.7,0.4h10.5l0,0c0.4,0,0.9-0.3,0.9-0.9c0-0.2-0.1-0.4-0.2-0.5L9.6,82.2z M5.1,90.8l3.8-6.6l3.8,6.6H5.1z"/>
</g>
<path fill="#009BE7" d="M20.1,82.3c-0.3-0.3-0.9-0.3-1.2,0c-0.3,0.3-0.3,0.9,0,1.2l8.8,8.5c0.2,0.2,0.3,0.3,0.6,0.3
	c0.2,0,0.4-0.1,0.6-0.3c0.3-0.3,0.3-0.9,0-1.2L20.1,82.3z"/>
<g>
	<path fill="#FFFFFF" d="M4.2,110.4h9.1c0.4,0,0.9-0.3,0.9-0.9v-9.1c0-0.4-0.3-0.9-0.9-0.9H4.2c-0.4,0-0.9,0.3-0.9,0.9v9.1
		C3.4,110,3.8,110.4,4.2,110.4z M5.1,101.3h7.5v7.5H5.1V101.3z"/>
	<path fill="#FFFFFF" d="M23.6,110.4c3.1,0,5.6-2.5,5.6-5.6c0-3.1-2.5-5.6-5.6-5.6s-5.6,2.5-5.6,5.6
		C17.9,107.9,20.4,110.4,23.6,110.4z M23.6,100.9c2.2,0,4,1.7,4,4c0,2.2-1.7,4-4,4c-2.2,0-4-1.7-4-4
		C19.6,102.6,21.4,100.9,23.6,100.9z"/>
	<path fill="#FFFFFF" d="M9.6,114.2c-0.2-0.3-0.4-0.4-0.7-0.4c-0.3,0-0.6,0.2-0.7,0.4l-5.3,9.1c-0.2,0.3-0.2,0.6,0,0.9
		c0.2,0.3,0.4,0.4,0.7,0.4h10.5l0,0c0.4,0,0.9-0.3,0.9-0.9c0-0.2-0.1-0.4-0.2-0.5L9.6,114.2z M5.1,122.8l3.8-6.6l3.8,6.6H5.1z"/>
</g>
<path fill="#FFFFFF" d="M20.1,114.3c-0.3-0.3-0.9-0.3-1.2,0c-0.3,0.3-0.3,0.9,0,1.2l8.8,8.5c0.2,0.2,0.3,0.3,0.6,0.3
	c0.2,0,0.4-0.1,0.6-0.3c0.3-0.3,0.3-0.9,0-1.2L20.1,114.3z"/>
</svg>
