<?xml version="1.0" encoding="utf-8"?>
<!-- Generator: Adobe Illustrator 17.1.0, SVG Export Plug-In . SVG Version: 6.00 Build 0)  -->
<!DOCTYPE svg PUBLIC "-//W3C//DTD SVG 1.1//EN" "http://www.w3.org/Graphics/SVG/1.1/DTD/svg11.dtd">
<svg version="1.1" id="Layer_1" xmlns:sketch="http://www.bohemiancoding.com/sketch/ns"
	 xmlns="http://www.w3.org/2000/svg" xmlns:xlink="http://www.w3.org/1999/xlink" x="0px" y="0px" width="32px" height="128px"
	 viewBox="0 0 32 128" enable-background="new 0 0 32 128" xml:space="preserve">
<path fill="#4E5D78" d="M31.1,29.1l-0.7-1.3c0-0.2,0-0.4,0-0.6L28,20.7c0,0,0,0,0-0.1s-0.1-0.2-0.1-0.2l0,0L8.3,0.8
	C8.1,0.7,7.9,0.6,7.7,0.6c0,0-0.1,0-0.2,0c-0.7,0-2.9,0.1-4.8,2c-2.2,2.2-2,4.9-2,5C0.7,7.8,0.8,8,1,8.2l19.3,19.3c0,0,0,0,0.1,0
	c0.2,0.2,0.5,0.4,0.7,0.4l0,0l6.2,2.4c0.1,0,0.2,0.1,0.3,0.1c0.1,0,0.2,0,0.2,0l1.4,0.7c0.2,0.1,0.4,0.2,0.7,0.2l0,0
	c0.4,0,0.7-0.1,0.9-0.4C31.3,30.2,31.4,29.6,31.1,29.1z M20.3,24.9L2.5,7.1c0-0.6,0.2-2,1.5-3.2c1.2-1.2,2.6-1.5,3.3-1.5l17.8,17.8
	c-0.8,0.3-1.8,0.8-2.9,1.9C21.1,23.2,20.6,24.1,20.3,24.9z M28.4,27.3c-0.2,0.1-0.3,0.2-0.5,0.4c-0.1,0.1-0.3,0.3-0.4,0.4l-0.2,0.1
	l-5.6-2.1c0-0.5,0.3-1.4,1.7-2.8c1.5-1.5,2.5-1.6,3-1.6L28.4,27.3L28.4,27.3z"/>
<path d="M31.1,61.1l-0.7-1.3c0-0.2,0-0.4,0-0.6L28,52.7c0,0,0,0,0-0.1s-0.1-0.2-0.1-0.2l0,0L8.3,32.8c-0.2-0.2-0.4-0.2-0.6-0.3
	c0,0-0.1,0-0.2,0c-0.7,0-2.9,0.1-4.8,2c-2.2,2.2-2,4.9-2,5c0,0.2,0.1,0.4,0.3,0.6l19.3,19.3c0,0,0,0,0.1,0c0.2,0.2,0.5,0.4,0.7,0.4
	l0,0l6.2,2.4c0.1,0,0.2,0.1,0.3,0.1c0.1,0,0.2,0,0.2,0l1.4,0.7c0.2,0.1,0.4,0.2,0.7,0.2l0,0c0.4,0,0.7-0.1,0.9-0.4
	C31.3,62.2,31.4,61.6,31.1,61.1z M20.3,56.9L2.5,39.1c0-0.6,0.2-2,1.5-3.2c1.2-1.2,2.6-1.5,3.3-1.5l17.8,17.8
	c-0.8,0.3-1.8,0.8-2.9,1.9C21.1,55.2,20.6,56.1,20.3,56.9z M28.4,59.3c-0.2,0.1-0.3,0.2-0.5,0.4c-0.1,0.1-0.3,0.3-0.4,0.4l-0.2,0.1
	l-5.6-2.1c0-0.5,0.3-1.4,1.7-2.8c1.5-1.5,2.5-1.6,3-1.6L28.4,59.3L28.4,59.3z"/>
<path fill="#009BE7" d="M31.1,93.1l-0.7-1.3c0-0.2,0-0.4,0-0.6L28,84.7c0,0,0,0,0-0.1s-0.1-0.2-0.1-0.2l0,0L8.3,64.8
	c-0.2-0.2-0.4-0.2-0.6-0.3c0,0-0.1,0-0.2,0c-0.7,0-2.9,0.1-4.8,2c-2.2,2.2-2,4.9-2,5c0,0.2,0.1,0.4,0.3,0.6l19.3,19.3c0,0,0,0,0.1,0
	c0.2,0.2,0.5,0.4,0.7,0.4l0,0l6.2,2.4c0.1,0,0.2,0.1,0.3,0.1c0.1,0,0.2,0,0.2,0l1.4,0.7c0.2,0.1,0.4,0.2,0.7,0.2l0,0
	c0.4,0,0.7-0.1,0.9-0.4C31.3,94.2,31.4,93.6,31.1,93.1z M20.3,88.9L2.5,71.1c0-0.6,0.2-2,1.5-3.2c1.2-1.2,2.6-1.5,3.3-1.5l17.8,17.8
	c-0.8,0.3-1.8,0.8-2.9,1.9C21.1,87.2,20.6,88.1,20.3,88.9z M28.4,91.3c-0.2,0.1-0.3,0.2-0.5,0.4c-0.1,0.1-0.3,0.3-0.4,0.4l-0.2,0.1
	l-5.6-2.1c0-0.5,0.3-1.4,1.7-2.8c1.5-1.5,2.5-1.6,3-1.6L28.4,91.3L28.4,91.3z"/>
<path fill="#FFFFFF" d="M31.1,125.1l-0.7-1.3c0-0.2,0-0.4,0-0.6l-2.4-6.5c0,0,0,0,0-0.1s-0.1-0.2-0.1-0.2l0,0L8.3,96.8
	c-0.2-0.2-0.4-0.2-0.6-0.3c0,0-0.1,0-0.2,0c-0.7,0-2.9,0.1-4.8,2c-2.2,2.2-2,4.9-2,5c0,0.2,0.1,0.4,0.3,0.6l19.3,19.3c0,0,0,0,0.1,0
	c0.2,0.2,0.5,0.4,0.7,0.4l0,0l6.2,2.4c0.1,0,0.2,0.1,0.3,0.1c0.1,0,0.2,0,0.2,0l1.4,0.7c0.2,0.1,0.4,0.2,0.7,0.2l0,0
	c0.4,0,0.7-0.1,0.9-0.4C31.3,126.2,31.4,125.6,31.1,125.1z M20.3,120.9L2.5,103.1c0-0.6,0.2-2,1.5-3.2c1.2-1.2,2.6-1.5,3.3-1.5
	l17.8,17.8c-0.8,0.3-1.8,0.8-2.9,1.9C21.1,119.2,20.6,120.1,20.3,120.9z M28.4,123.3c-0.2,0.1-0.3,0.2-0.5,0.4
	c-0.1,0.1-0.3,0.3-0.4,0.4l-0.2,0.1l-5.6-2.1c0-0.5,0.3-1.4,1.7-2.8c1.5-1.5,2.5-1.6,3-1.6L28.4,123.3L28.4,123.3z"/>
</svg>
