<?xml version="1.0" encoding="utf-8"?>
<!-- Generator: Adobe Illustrator 17.1.0, SVG Export Plug-In . SVG Version: 6.00 Build 0)  -->
<!DOCTYPE svg PUBLIC "-//W3C//DTD SVG 1.1//EN" "http://www.w3.org/Graphics/SVG/1.1/DTD/svg11.dtd">
<svg version="1.1" id="Layer_1" xmlns:sketch="http://www.bohemiancoding.com/sketch/ns"
	 xmlns="http://www.w3.org/2000/svg" xmlns:xlink="http://www.w3.org/1999/xlink" x="0px" y="0px" width="32px" height="128px"
	 viewBox="0 0 32 128" enable-background="new 0 0 32 128" xml:space="preserve">
<g>
	<path fill="#8F98A9" d="M28.4,29.9L28.4,29.9H3.1c-0.8,0-1.3-0.6-1.3-1.4V2.6c0-0.7,0.1-1.3,0.8-1.5C3.2,0.8,3.9,1,4.4,1.5
		l25.2,25.6c0.4,0.3,0.7,0.7,0.7,1.3C30.1,29.4,29.4,29.9,28.4,29.9z M4.9,26.9h19.7L4.9,6.6V26.9z"/>
</g>
<g>
	<path d="M28.4,61.9L28.4,61.9H3.1c-0.8,0-1.3-0.6-1.3-1.4V34.6c0-0.7,0.1-1.3,0.8-1.5c0.6-0.3,1.3-0.1,1.7,0.4l25.2,25.6
		c0.4,0.3,0.7,0.7,0.7,1.3C30.1,61.4,29.4,61.9,28.4,61.9z M4.9,58.9h19.7L4.9,38.6V58.9z"/>
</g>
<g>
	<path fill="#009BE7" d="M28.4,93.9L28.4,93.9H3.1c-0.8,0-1.3-0.6-1.3-1.4V66.6c0-0.7,0.1-1.3,0.8-1.5c0.6-0.3,1.3-0.1,1.7,0.4
		l25.2,25.6c0.4,0.3,0.7,0.7,0.7,1.3C30.1,93.4,29.4,93.9,28.4,93.9z M4.9,90.9h19.7L4.9,70.6V90.9z"/>
</g>
<g>
	<path fill="#FFFFFF" d="M28.5,125.9L28.5,125.9L3,125.8c-0.8,0-1.3-0.6-1.3-1.4V98.6c0-0.7,0.1-1.3,0.8-1.5
		c0.6-0.3,1.3-0.1,1.7,0.4l25.2,25.6c0.4,0.3,0.7,0.7,0.7,1.3C30.2,125.4,29.5,125.9,28.5,125.9z M5,122.9h19.7L5,102.6V122.9z"/>
</g>
</svg>
