<svg width="32px" height="128px" viewBox="0 0 32 128" version="1.1" xmlns="http://www.w3.org/2000/svg" xmlns:xlink="http://www.w3.org/1999/xlink" xmlns:sketch="http://www.bohemiancoding.com/sketch/ns">
<path fill="#4E5D78" d="M20.6,7.1l-7.2-3.5c-0.9-0.4-1.2-1.5-0.8-2.3C13.1,0.4,14.1,0,15,0.5l12.3,5.9l-6.4,13.2
	c-0.3,0.6-0.9,1-1.6,1c-0.3,0-0.5-0.1-0.8-0.2c-0.9-0.4-1.2-1.5-0.8-2.3l3.7-7.6c-8.8,1.8-15,10.1-13.9,19.2c0.1,1-0.6,1.8-1.5,1.9
	c-0.1,0-0.1,0-0.2,0c-0.9,0-1.6-0.7-1.7-1.6C2.8,19.2,10.1,9.3,20.6,7.1z"/>
<path fill="#1E3053" d="M20.6,39.1l-7.2-3.5c-0.9-0.4-1.2-1.5-0.8-2.3c0.4-0.9,1.5-1.2,2.3-0.8l12.3,5.9l-6.4,13.2
	c-0.3,0.6-0.9,1-1.6,1c-0.3,0-0.5-0.1-0.8-0.2c-0.9-0.4-1.2-1.5-0.8-2.3l3.7-7.6c-8.8,1.8-15,10.1-13.9,19.2c0.1,1-0.6,1.8-1.5,1.9
	c-0.1,0-0.1,0-0.2,0c-0.9,0-1.6-0.7-1.7-1.6C2.8,51.2,10.1,41.3,20.6,39.1z"/>
<path fill="#009BE7" d="M20.6,71.1l-7.2-3.5c-0.9-0.4-1.2-1.5-0.8-2.3c0.4-0.9,1.5-1.2,2.3-0.8l12.3,5.9l-6.4,13.2
	c-0.3,0.6-0.9,1-1.6,1c-0.3,0-0.5-0.1-0.8-0.2c-0.9-0.4-1.2-1.5-0.8-2.3l3.7-7.6c-8.8,1.8-15,10.1-13.9,19.2c0.1,1-0.6,1.8-1.5,1.9
	c-0.1,0-0.1,0-0.2,0c-0.9,0-1.6-0.7-1.7-1.6C2.8,83.2,10.1,73.3,20.6,71.1z"/>
<path fill="#FFFFFF" d="M20.6,103.1l-7.2-3.5c-0.9-0.4-1.2-1.5-0.8-2.3c0.4-0.9,1.5-1.2,2.3-0.8l12.3,5.9l-6.4,13.2
	c-0.3,0.6-0.9,1-1.6,1c-0.3,0-0.5-0.1-0.8-0.2c-0.9-0.4-1.2-1.5-0.8-2.3l3.7-7.6c-8.8,1.8-15,10.1-13.9,19.2c0.1,1-0.6,1.8-1.5,1.9
	c-0.1,0-0.1,0-0.2,0c-0.9,0-1.6-0.7-1.7-1.6C2.8,115.2,10.1,105.3,20.6,103.1z"/>
</svg>
