<?xml version="1.0" encoding="utf-8"?>
<!-- Generator: Adobe Illustrator 17.1.0, SVG Export Plug-In . SVG Version: 6.00 Build 0)  -->
<!DOCTYPE svg PUBLIC "-//W3C//DTD SVG 1.1//EN" "http://www.w3.org/Graphics/SVG/1.1/DTD/svg11.dtd">
<svg version="1.1" id="Layer_1" xmlns:sketch="http://www.bohemiancoding.com/sketch/ns"
	 xmlns="http://www.w3.org/2000/svg" xmlns:xlink="http://www.w3.org/1999/xlink" x="0px" y="0px" width="32px" height="128px"
	 viewBox="0 0 32 128" enable-background="new 0 0 32 128" xml:space="preserve">
<g>
	<path fill="#8F98A9" d="M31.5,30.5C31.5,30.5,31.5,30.3,31.5,30.5L0.5,30.3c-0.6,0-1.1-0.3-1.4-0.7c-0.3-0.6-0.3-1.1,0-1.5
		L14.6,1.3c0.6-1,2.2-1,2.8,0l15.4,26.6c0.3,0.3,0.4,0.6,0.4,1C33.1,29.8,32.4,30.5,31.5,30.5z M3.3,27.2h25.3L16,5.4L3.3,27.2z"/>
</g>
<g>
	<path d="M31.5,62.5C31.5,62.5,31.5,62.3,31.5,62.5L0.5,62.3c-0.6,0-1.1-0.3-1.4-0.7c-0.3-0.4-0.3-1.1,0-1.5l15.5-26.7
		c0.6-1,2.2-1,2.8,0l15.4,26.6c0.3,0.3,0.4,0.6,0.4,1C33.1,61.8,32.4,62.5,31.5,62.5z M3.3,59.2h25.3L16,37.4L3.3,59.2z"/>
</g>
<g>
	<path fill="#009BE7" d="M31.5,94.5C31.5,94.5,31.5,94.3,31.5,94.5L0.5,94.3c-0.6,0-1.1-0.3-1.4-0.7c-0.3-0.4-0.3-1.1,0-1.5
		l15.5-26.7c0.6-1,2.2-1,2.8,0l15.4,26.6c0.3,0.3,0.4,0.6,0.4,1C33.1,93.8,32.4,94.5,31.5,94.5z M3.3,91.2h25.3L16,69.4L3.3,91.2z"
		/>
</g>
<g>
	<path fill="#FFFFFF" d="M31.5,126.5C31.5,126.5,31.5,126.3,31.5,126.5l-30.9-0.1c-0.6,0-1.1-0.3-1.4-0.7c-0.3-0.4-0.3-1.1,0-1.5
		l15.4-26.7c0.6-1,2.2-1,2.8,0l15.4,26.6c0.3,0.3,0.4,0.6,0.4,1C33.1,125.8,32.4,126.5,31.5,126.5z M3.2,123.2h25.3L16,101.4
		L3.2,123.2z"/>
</g>
</svg>
