<svg xmlns="http://www.w3.org/2000/svg" xmlns:xlink="http://www.w3.org/1999/xlink" width="40.94" height="42.541" viewBox="0 0 40.94 42.541"><defs><style>.a,.c{fill:none;}.b{clip-path:url(#a);}.c,.d{stroke:#707070;stroke-width:2px;}.d{fill:#fff;}</style><clipPath id="a"><rect class="a" width="40.94" height="42.541"/></clipPath></defs><g class="b" transform="translate(0 0)"><path class="c" d="M537.146,501.167v39.541h25.52V515.641l-11.693-14.474H537.146Z" transform="translate(-523.225 -499.667)"/><path class="c" d="M548.607,501.167v13.146h11.131" transform="translate(-521.201 -499.667)"/><path class="d" d="M433.6,493.472c.789-.587,3.166-2.139,6.81,2.356s8.678,11.784,8.678,11.784,3.819,4.23-1.261,6.767-5.208,2.5-5.208,2.5-2.325.777-5.024-3.518-8.781-11.739-8.781-11.739a4.54,4.54,0,0,1,1.669-5.869A37.208,37.208,0,0,0,433.6,493.472Z" transform="translate(-426.841 -481.52)"/><path class="d" d="M429.779,500.478l7.634,10.2,3.091,4.246s2.242,3.69,6.065.615c1.085-.872,3.025-2.2,3.82-2.892.02-.078.1.021.24-.24" transform="translate(-427.537 -485.266)"/></g></svg>