<svg xmlns="http://www.w3.org/2000/svg" xmlns:xlink="http://www.w3.org/1999/xlink" width="45.854" height="42.597" viewBox="0 0 45.854 42.597"><defs><style>.a,.c,.f{fill:none;}.b{clip-path:url(#a);}.d,.e{fill:#fff;}.d,.f{stroke:#707070;stroke-width:3px;}.g,.h{stroke:none;}.h{fill:#707070;}</style><clipPath id="a"><rect class="a" width="45.854" height="42.597"/></clipPath></defs><g transform="translate(-1.833 -4.403)"><g class="b" transform="translate(1.833 4.403)"><g class="c"><path class="g" d="M0,0H19.546V19.546H0Z"/><path class="h" d="M 2.999998092651367 3.000003814697266 L 2.999998092651367 16.54634475708008 L 16.54637718200684 16.54634475708008 L 16.54637718200684 3.000003814697266 L 2.999998092651367 3.000003814697266 M -1.9073486328125e-06 3.814697265625e-06 L 19.54637718200684 3.814697265625e-06 L 19.54637718200684 19.54634475708008 L -1.9073486328125e-06 19.54634475708008 L -1.9073486328125e-06 3.814697265625e-06 Z"/></g><g class="d" transform="translate(25.551)"><ellipse class="g" cx="9.773" cy="9.773" rx="9.773" ry="9.773"/><ellipse class="a" cx="9.773" cy="9.773" rx="8.273" ry="8.273"/></g><g class="e" transform="translate(0 24.433)"><path class="g" d="M 18.54656791687012 16.41748428344727 L 2.628673553466797 16.41748428344727 L 10.58762073516846 2.948519468307495 L 18.54656791687012 16.41748428344727 Z"/><path class="h" d="M 10.58762073516846 5.897045135498047 L 5.257351875305176 14.91748428344727 L 15.91788864135742 14.91748428344727 L 10.58762073516846 5.897045135498047 M 10.58762073516846 3.814697265625e-06 L 21.17524147033691 17.91748428344727 L 0 17.91748428344727 L 10.58762073516846 3.814697265625e-06 Z"/></g><line class="f" x2="16.289" y2="16.289" transform="translate(28.505 25.247)"/></g></g></svg>