<svg id="about-to-expire-icon" xmlns="http://www.w3.org/2000/svg" width="452.229" height="410.25" viewBox="0 0 452.229 410.25">
  <path id="Path_297" data-name="Path 297" d="M365.218,113.86a141.49,141.49,0,0,0-277.5-.087A99.043,99.043,0,0,0,99.121,311.208h70.743a14.149,14.149,0,1,0,0-28.3H99.121a70.746,70.746,0,1,1,.835-141.49,14.146,14.146,0,0,0,14.063-12.59,113.19,113.19,0,0,1,224.881,0,15,15,0,0,0,14.9,12.59,70.745,70.745,0,1,1,0,141.49H283.054a14.149,14.149,0,0,0,0,28.3H353.8A99.042,99.042,0,0,0,365.218,113.86Zm0,0" transform="translate(0.001 0)" fill="#fff"/>
  <path id="Path_298" data-name="Path 298" d="M296.582,276.338a14.149,14.149,0,1,0,20.356-19.656c-.114-.121-.231-.235-.349-.348l-60.006-60.02a14.151,14.151,0,0,0-20.011-.028c-.007.01-.017.017-.024.028l-60.006,60.02A14.149,14.149,0,0,0,196.2,276.687c.117-.114.235-.231.348-.349l35.868-35.882V418.535a14.147,14.147,0,1,0,28.295,0V240.456Zm0,0" transform="translate(-20.105 -22.434)" fill="#fff"/>
</svg>
