<svg xmlns="http://www.w3.org/2000/svg" width="5173.842" height="3215.107" viewBox="0 0 5173.842 3215.107">
  <g id="Camera" transform="translate(0 10)">
    <g id="Camera-icon" transform="translate(0 -10)">
      <g id="Group_97" data-name="Group 97">
        <g id="Group_54" data-name="Group 54">
          <path id="Path_144" data-name="Path 144" d="M926.659,1216.992H605.78c-238.315,0-432.193-193.89-432.193-432.2V452.325H293.342V784.788c0,172.281,140.168,312.438,312.438,312.438H926.659Z" transform="translate(-173.587 1998.115)" fill="#fff"/>
          <path id="Path_145" data-name="Path 145" d="M712.751,1227.556H399.177V1107.788H712.751c172.27,0,312.438-140.155,312.438-312.437V451.34h119.755V795.352C1144.944,1033.665,951.066,1227.556,712.751,1227.556Z" transform="translate(4028.897 1987.552)" fill="#fff"/>
          <path id="Path_146" data-name="Path 146" d="M1134.381,973.3H1014.625V675.529c0-172.281-140.168-312.438-312.438-312.438H400.162V243.325H702.188c238.314,0,432.193,193.889,432.193,432.2Z" transform="translate(4039.461 -243.325)" fill="#fff"/>
          <path id="Path_147" data-name="Path 147" d="M293.342,1031.031H173.587v-355.5c0-238.315,193.878-432.2,432.193-432.2H915.11V363.092H605.78c-172.27,0-312.438,140.156-312.438,312.438Z" transform="translate(-173.587 -243.325)" fill="#fff"/>
        </g>
      </g>
      <path id="photo-camera" d="M1611.178,716.078H1461.995V566.9h149.183Zm298.366,783.21V492.3c0-123.389-100.385-223.774-223.775-223.774h-274.4a23.08,23.08,0,0,1-20.542-12.408L1314.908,96.6c-.209-.436-.418-.869-.638-1.3A171.444,171.444,0,0,0,1160.082,0h-405.3A171.441,171.441,0,0,0,600.589,95.3c-.22.433-.429.865-.638,1.3L524.032,256.132a23.086,23.086,0,0,1-20.539,12.4H223.775C100.385,268.529,0,368.914,0,492.3V1499.288c0,123.389,100.385,223.775,223.775,223.775H1685.769C1809.159,1723.063,1909.544,1622.678,1909.544,1499.288ZM503.493,417.712a171.448,171.448,0,0,0,154.188-95.291c.22-.433.429-.869.641-1.305l75.919-159.533a23.072,23.072,0,0,1,20.535-12.4h405.3a23.076,23.076,0,0,1,20.535,12.4l75.919,159.532c.213.436.421.873.641,1.305a171.449,171.449,0,0,0,154.188,95.291h274.4a74.676,74.676,0,0,1,74.591,74.591V1499.285a74.676,74.676,0,0,1-74.591,74.591H223.775a74.676,74.676,0,0,1-74.592-74.591V492.3a74.676,74.676,0,0,1,74.592-74.591ZM1420.969,958.5c0-257.061-209.136-466.2-466.2-466.2s-466.2,209.136-466.2,466.2,209.136,466.2,466.2,466.2S1420.969,1215.561,1420.969,958.5Zm-149.183,0c0,174.8-142.212,317.014-317.014,317.014S637.758,1133.3,637.758,958.5,779.97,641.487,954.772,641.487,1271.786,783.7,1271.786,958.5Z" transform="translate(1622.808 317.604)" fill="#fff"/>
      <text id="Choose_Upload_Image" data-name="Choose / Upload Image" transform="translate(997.206 2614.272)" fill="#fff" font-size="263" font-family="SFUIText-Medium, SF UI Text" font-weight="500"><tspan x="0" y="0">Choose / Upload Image</tspan></text>
    </g>
  </g>
</svg>
