<svg id="dashboard-icon" xmlns="http://www.w3.org/2000/svg" width="368.218" height="409.94" viewBox="0 0 368.218 409.94">
  <path id="Path_244" data-name="Path 244" d="M225.271,330.364H44.778A43.215,43.215,0,0,1,1.607,287.193V43.921A43.215,43.215,0,0,1,44.778.75h180.51a43.215,43.215,0,0,1,43.171,43.171V287.21a43.226,43.226,0,0,1-43.188,43.154Z" transform="translate(8.653 11.928)" fill="#fff"/>
  <path id="Path_245" data-name="Path 245" d="M223.634,309.259H48.686A41.877,41.877,0,0,1,6.85,267.423V46.836A41.877,41.877,0,0,1,48.686,5H223.634A41.877,41.877,0,0,1,265.47,46.836V267.423A41.877,41.877,0,0,1,223.634,309.259Z" transform="translate(92.034 79.517)" fill="#fff"/>
  <g id="Group_96" data-name="Group 96" transform="translate(152.737 143.75)">
    <path id="Path_246" data-name="Path 246" d="M149.452,40.855H22.677a12.677,12.677,0,0,1,0-25.355H149.452a12.677,12.677,0,1,1,0,25.355Z" transform="translate(-9.996 95.579)"/>
    <path id="Path_247" data-name="Path 247" d="M149.452,44.855H22.677a12.677,12.677,0,1,1,0-25.355H149.452a12.677,12.677,0,1,1,0,25.355Z" transform="translate(-9.996 147.118)"/>
    <path id="Path_248" data-name="Path 248" d="M149.452,37.355H22.677a12.677,12.677,0,0,1,0-25.355H149.452a12.677,12.677,0,1,1,0,25.355Z" transform="translate(-10 43.539)"/>
    <path id="Path_249" data-name="Path 249" d="M149.452,33.355H22.677A12.677,12.677,0,0,1,22.677,8H149.452a12.677,12.677,0,1,1,0,25.355Z" transform="translate(-10 -8)"/>
  </g>
  <path id="Path_250" data-name="Path 250" d="M47.484,354.969A46.523,46.523,0,0,1,1,308.485v-262A46.523,46.523,0,0,1,47.484,0H241.872a46.171,46.171,0,0,1,40.111,23.327,12.672,12.672,0,1,1-22.042,12.508,20.486,20.486,0,0,0-18.053-10.48H47.484A21.159,21.159,0,0,0,26.355,46.484v262a21.159,21.159,0,0,0,21.129,21.129,12.677,12.677,0,0,1,0,25.355Z" transform="translate(-1)" fill="#2195f1"/>
  <path id="Path_251" data-name="Path 251" d="M246.872,342.065H52.484A46.523,46.523,0,0,1,6,295.581V50.484A46.523,46.523,0,0,1,52.484,4H246.872a46.523,46.523,0,0,1,46.484,46.484v245.1A46.523,46.523,0,0,1,246.872,342.065ZM52.484,29.355A21.158,21.158,0,0,0,31.355,50.484v245.1a21.159,21.159,0,0,0,21.129,21.129H246.872A21.159,21.159,0,0,0,268,295.581V50.484a21.159,21.159,0,0,0-21.129-21.129Z" transform="translate(74.862 67.875)" fill="#2195f1"/>
</svg>
