<svg id="document-icon" xmlns="http://www.w3.org/2000/svg" width="448.119" height="409.94" viewBox="0 0 448.119 409.94">
  <path id="Path_294" data-name="Path 294" d="M351.772,133.6a139.957,139.957,0,0,0-277.04,27.58c0,3.153.13,6.382.41,9.8a83.975,83.975,0,0,0,8.92,167.483h9.8c-.224-3.1-.466-6.177-.466-9.331a121.3,121.3,0,1,1,242.592,0c0,3.153-.242,6.232-.466,9.331h9.8a102.523,102.523,0,0,0,6.456-204.86Z" transform="translate(0 -21.822)" fill="#fff"/>
  <circle id="Ellipse_20" data-name="Ellipse 20" cx="102.635" cy="102.635" r="102.635" transform="translate(112.054 204.67)" fill="#f5f5f5"/>
  <g id="Group_141" data-name="Group 141" transform="translate(168.159 241.991)">
    <path id="Path_295" data-name="Path 295" d="M244.1,429.1a9.331,9.331,0,0,1-9.331-9.331V307.8a9.331,9.331,0,0,1,18.662,0V419.766A9.332,9.332,0,0,1,244.1,429.1Z" transform="translate(-197.568 -298.469)" fill="#25ae88"/>
    <path id="Path_296" data-name="Path 296" d="M276.092,354.454a9.327,9.327,0,0,1-6.606-2.725L238.77,320.995,208.053,351.73a9.331,9.331,0,0,1-13.194-13.194l37.322-37.322a9.331,9.331,0,0,1,13.194,0L282.7,338.536a9.331,9.331,0,0,1-6.606,15.918Z" transform="translate(-192.24 -298.471)" fill="#25ae88"/>
  </g>
</svg>
