<svg xmlns="http://www.w3.org/2000/svg" width="312.259" height="409.94" viewBox="0 0 312.259 409.94">
  <g id="expenses-icon" transform="translate(-61)">
    <path id="Path_323" data-name="Path 323" d="M317.863,177.29a12.01,12.01,0,0,0-16.985,16.984l16.985,16.984a12.008,12.008,0,0,0,16.984,0l33.969-33.969a12.01,12.01,0,1,0-16.984-16.984l-25.476,25.476Z" transform="translate(-47.115 -31.253)" fill="#fff"/>
    <path id="Path_324" data-name="Path 324" d="M351.833,236.305l-25.477,25.476-8.493-8.492a12.01,12.01,0,1,0-16.985,16.984l16.985,16.984a12.007,12.007,0,0,0,16.984,0l33.969-33.969a12.009,12.009,0,0,0-16.983-16.984Z" transform="translate(-47.115 -46.403)" fill="#fff"/>
    <path id="Path_325" data-name="Path 325" d="M229.09,178H133.01a12.01,12.01,0,1,0,0,24.02h96.08a12.01,12.01,0,0,0,0-24.02Z" transform="translate(-11.96 -35.482)" fill="#fff"/>
    <path id="Path_326" data-name="Path 326" d="M229.09,254H133.01a12.01,12.01,0,0,0,0,24.02h96.08a12.01,12.01,0,0,0,0-24.02Z" transform="translate(-11.96 -50.631)" fill="#fff"/>
    <path id="Path_327" data-name="Path 327" d="M229.09,330H133.01a12.01,12.01,0,1,0,0,24.02h96.08a12.01,12.01,0,1,0,0-24.02Z" transform="translate(-11.96 -65.781)" fill="#fff"/>
    <path id="Path_328" data-name="Path 328" d="M229.09,406H133.01a12.01,12.01,0,0,0,0,24.02h96.08a12.01,12.01,0,0,0,0-24.02Z" transform="translate(-11.96 -80.93)" fill="#fff"/>
    <path id="Path_329" data-name="Path 329" d="M361.249,48.04h-68.3a27.923,27.923,0,0,0-25.331-16.013H256.532l4.276-17.1A12.01,12.01,0,0,0,249.156,0H185.1a12.01,12.01,0,0,0-11.651,14.923l4.276,17.1H166.642A27.924,27.924,0,0,0,141.312,48.04H73.01A12.01,12.01,0,0,0,61,60.05V397.931a12.01,12.01,0,0,0,12.01,12.01H361.249a12.01,12.01,0,0,0,12.01-12.01V60.05A12.01,12.01,0,0,0,361.249,48.04ZM166.641,56.047H193.11a12.01,12.01,0,0,0,11.651-14.923l-4.276-17.1h33.289l-4.276,17.1A12.01,12.01,0,0,0,241.15,56.047h26.468a3.991,3.991,0,0,1,3.949,3.345l3.445,20.675H159.247l3.446-20.675A3.99,3.99,0,0,1,166.641,56.047Zm182.6,329.874H85.02V72.06H136.23L133.223,90.1a12.011,12.011,0,0,0,11.847,13.984H289.19A12.011,12.011,0,0,0,301.036,90.1L298.029,72.06h51.21Z" transform="translate(0)" fill="#fff"/>
  </g>
</svg>
