<svg id="home-icon" xmlns="http://www.w3.org/2000/svg" width="410" height="409.94" viewBox="0 0 410 409.94">
  <path id="Path_236" data-name="Path 236" d="M92.251,397.985C51.767,394.432,20,360.044,20,318.14V183.261a80.5,80.5,0,0,1,31.161-63.733L158.843,36.384a78.413,78.413,0,0,1,96.036,0l7.284,5.624a78.4,78.4,0,0,0-55.812,16.017L78.285,156.909a27.843,27.843,0,0,0-10.778,22.043V339.781A80.393,80.393,0,0,0,92.251,397.985Z" transform="translate(-4.164 -4.186)" fill="#eceff1"/>
  <path id="Path_237" data-name="Path 237" d="M313.906,409.978H96.094A96.2,96.2,0,0,1,0,313.884V179.136a96.648,96.648,0,0,1,37.818-76.407L146.724,19.665a96.326,96.326,0,0,1,116.552,0l34.615,26.378V25.6a16.016,16.016,0,0,1,32.031,0v52.78A16.016,16.016,0,0,1,304.2,91.122L243.856,45.139a64.221,64.221,0,0,0-77.707,0L57.242,128.2a64.429,64.429,0,0,0-25.211,50.937V313.884a64.135,64.135,0,0,0,64.063,64.062H313.906a64.135,64.135,0,0,0,64.062-64.062V179.136a64.475,64.475,0,0,0-24.927-51.111,16.015,16.015,0,1,1,19.425-25.468A96.683,96.683,0,0,1,410,179.136V313.884A96.2,96.2,0,0,1,313.906,409.978Z" transform="translate(0 -0.037)" fill="#2195f1"/>
  <path id="Path_238" data-name="Path 238" d="M253.89,262.407a31.445,31.445,0,1,1-31.445-31.445A31.445,31.445,0,0,1,253.89,262.407Zm69.179-31.444a31.445,31.445,0,1,0,31.445,31.445A31.445,31.445,0,0,0,323.069,230.963ZM222.445,331.587a31.445,31.445,0,1,0,31.445,31.445A31.445,31.445,0,0,0,222.445,331.587Zm100.624,0a31.445,31.445,0,1,0,31.445,31.445A31.445,31.445,0,0,0,323.069,331.587Z" transform="translate(-67.757 -75.505)"/>
</svg>
