<svg id="not-verified-icon" xmlns="http://www.w3.org/2000/svg" width="379.88" height="413.362" viewBox="0 0 379.88 413.362">
  <path id="Path_309" data-name="Path 309" d="M-2568.059,579.562s129.477-34.063,169.47-70.129c-.412-.8,113.393,66.122,172.77,70.129.458.776-21.447,207.183-174.012,282.121C-2554.862,793.959-2568.059,579.562-2568.059,579.562Z" transform="translate(2588.865 -476.663)" fill="#dc4e41" stroke="#dc4e41" stroke-width="1"/>
  <path id="Path_302" data-name="Path 302" d="M416.649,91.756l-.55-12.946-12.89-1.324C353.7,72.4,311.129,53.924,284.139,39.319c-29.562-16-47.481-31-47.645-31.142L226.816,0l-9.684,8.165c-.178.15-18.1,15.157-47.658,31.153C142.484,53.923,99.918,72.4,50.4,77.485L37.514,78.809l-.55,12.946c-.1,2.318-2.169,57.534,19.1,124.4,12.55,39.455,30.674,74.807,53.869,105.077,29.126,38.009,66.275,67.97,110.417,89.05l6.458,3.085,6.458-3.085c44.142-21.08,81.292-51.04,110.417-89.05,23.2-30.27,41.319-65.622,53.869-105.077C418.818,149.29,416.748,94.074,416.649,91.756Zm-189.843,288.3a270.5,270.5,0,0,1-92.725-76.582c-21.067-27.371-37.6-59.486-49.156-95.452A386.758,386.758,0,0,1,67,105.6a333.3,333.3,0,0,0,59.865-14.8A383.171,383.171,0,0,0,184.5,65.267,373.3,373.3,0,0,0,226.806,38.56a373.383,373.383,0,0,0,42.31,26.707A383.117,383.117,0,0,0,326.745,90.8a333.285,333.285,0,0,0,59.882,14.8,385.183,385.183,0,0,1-17.638,101.466c-11.5,36.144-28.015,68.42-49.1,95.932A270.491,270.491,0,0,1,226.806,380.051Z" transform="translate(-36.867)" fill="#dc4e41"/>
  <path id="Path_303" data-name="Path 303" d="M436.792,305.016l-20.908,20.909L337.96,403.85l-39.493-39.493-5.37-5.371-10.6,10.6h0l-10.6,10.6,66.056,66.056L457.985,326.209Z" transform="translate(-165.173 -166.509)" fill="#fff"/>
</svg>
