<svg id="share-icon" xmlns="http://www.w3.org/2000/svg" width="318.217" height="401.987" viewBox="0 0 318.217 401.987">
  <g id="Layer_1" data-name="Layer 1">
    <path id="Path_321" data-name="Path 321" d="M251.2,267.971a67.448,67.448,0,0,0-47.728,19.908L125.6,233.305a66.82,66.82,0,0,0,0-64.684l77.873-54.574A67.354,67.354,0,1,0,186.706,85.1l-84.4,59.346a65.375,65.375,0,0,0-35.294-10.236,67.008,67.008,0,1,0,0,134.016A65.375,65.375,0,0,0,102.3,257.483l84.4,59.1a67.008,67.008,0,1,0,64.5-48.608Zm0-234.5a33.535,33.535,0,0,1,0,67.008,32.911,32.911,0,0,1-20.1-6.848,33.41,33.41,0,0,1,20.1-60.16ZM97.78,213.837a33.1,33.1,0,0,1-28.7,20.473,8.289,8.289,0,0,1-1.821,0,33.473,33.473,0,1,1,0-66.945,8.289,8.289,0,0,1,1.821,0A33.1,33.1,0,0,1,97.78,188.4a32.028,32.028,0,0,1,0,25.748ZM251.2,368.452a33.41,33.41,0,0,1-20.1-60.163,32.908,32.908,0,0,1,20.1-6.845,33.535,33.535,0,0,1,0,67.008Z" transform="translate(0 0)" fill="#fff"/>
  </g>
</svg>
