<svg id="upload-icon" xmlns="http://www.w3.org/2000/svg" width="454.306" height="409.94" viewBox="0 0 454.306 409.94">
  <g id="Group_93" data-name="Group 93">
    <g id="Group_92" data-name="Group 92">
      <path id="Path_253" data-name="Path 253" d="M436.56,292.97a17.746,17.746,0,0,0,17.746-17.746V159.872a71.066,71.066,0,0,0-70.985-70.985h-26.94a17.742,17.742,0,0,1-16.8-12.028l-5.369-15.774A53.227,53.227,0,0,0,283.812,25H170.438a53.381,53.381,0,0,0-50.073,35.156l-6.143,17.012A17.8,17.8,0,0,1,97.531,88.887H70.985A71.066,71.066,0,0,0,0,159.872V363.955A71.066,71.066,0,0,0,70.985,434.94H383.321a71.066,71.066,0,0,0,70.985-70.985,17.746,17.746,0,0,0-35.493,0,35.533,35.533,0,0,1-35.493,35.493H70.985a35.533,35.533,0,0,1-35.493-35.493V159.872a35.533,35.533,0,0,1,35.493-35.493H97.531A53.381,53.381,0,0,0,147.6,89.223l6.143-17.012a17.8,17.8,0,0,1,16.691-11.719H283.812a17.744,17.744,0,0,1,16.8,12.028l5.369,15.774a53.225,53.225,0,0,0,50.4,36.084h26.94a35.533,35.533,0,0,1,35.493,35.493V275.223A17.746,17.746,0,0,0,436.56,292.97Z" transform="translate(0 -25)" fill="#2195f1"/>
    </g>
  </g>
  <g id="Group_95" data-name="Group 95" transform="translate(117.126 117.126)">
    <g id="Group_94" data-name="Group 94">
      <path id="Path_254" data-name="Path 254" d="M242.915,157A110.915,110.915,0,1,0,353.829,267.915,111.041,111.041,0,0,0,242.915,157Zm0,186.337a75.422,75.422,0,1,1,75.422-75.422A75.508,75.508,0,0,1,242.915,343.337Z" transform="translate(-132 -157)"/>
    </g>
  </g>
</svg>
