<svg xmlns="http://www.w3.org/2000/svg" width="63" height="33" viewBox="0 0 63 33"><g transform="translate(61)" fill="#fff"><path d="M 1.5 32.5 L 0.5 32.5 L 0.5 0.5 L 1.5 0.5 L 1.5 32.5 Z" stroke="none"/><path d="M 1 1 L 1 32 L 1 1 M 0 0 L 2 0 L 2 33 L 0 33 L 0 0 Z" stroke="none" fill="#fff"/></g><g transform="translate(0 -79)"><path d="M20.2,80H1.375A1.381,1.381,0,0,0,0,81.387V96.207a.432.432,0,0,0,.43.433H20.2a.432.432,0,0,0,.43-.433V80.433A.432.432,0,0,0,20.2,80Zm-7.82,2.773A1.387,1.387,0,1,1,11,84.16,1.381,1.381,0,0,1,12.375,82.773Zm-4.125,0A1.387,1.387,0,1,1,6.875,84.16,1.381,1.381,0,0,1,8.25,82.773Zm-4.125,0A1.387,1.387,0,1,1,2.75,84.16,1.381,1.381,0,0,1,4.125,82.773Zm0,11.094A1.387,1.387,0,1,1,5.5,92.48,1.381,1.381,0,0,1,4.125,93.867Zm.688-5.547a1.375,1.375,0,1,1,1.375,1.387A1.381,1.381,0,0,1,4.813,88.32ZM8.25,93.867A1.387,1.387,0,1,1,9.625,92.48,1.381,1.381,0,0,1,8.25,93.867Zm.688-5.547a1.375,1.375,0,1,1,1.375,1.387A1.381,1.381,0,0,1,8.938,88.32Zm3.438,5.547A1.387,1.387,0,1,1,13.75,92.48,1.381,1.381,0,0,1,12.375,93.867Zm.688-5.547a1.375,1.375,0,1,1,1.375,1.387A1.381,1.381,0,0,1,13.063,88.32ZM16.5,93.867a1.387,1.387,0,1,1,1.375-1.387A1.381,1.381,0,0,1,16.5,93.867Zm0-8.32a1.387,1.387,0,1,1,1.375-1.387A1.381,1.381,0,0,1,16.5,85.547Z" transform="translate(0 0)" fill="#fff"/><path d="M291.25,80H272.43a.432.432,0,0,0-.43.433v3.293a.432.432,0,0,0,.43.433H292.2a.432.432,0,0,0,.43-.433v-2.34A1.381,1.381,0,0,0,291.25,80Z" transform="translate(-248.625 0)" fill="#fff"/><path d="M272,161.387v1.647a.432.432,0,0,0,.43.433H292.2a.432.432,0,0,0,.43-.433v-2.6a.432.432,0,0,0-.43-.433H272.43a.432.432,0,0,0-.43.433Z" transform="translate(-248.625 -73.066)" fill="#fff"/><path d="M272,235.033a.432.432,0,0,0,.43.433H292.2a.432.432,0,0,0,.43-.433v-2.6a.432.432,0,0,0-.43-.433H272.43a.432.432,0,0,0-.43.433Z" transform="translate(-248.625 -138.826)" fill="#fff"/><path d="M0,304.433v3.293a.432.432,0,0,0,.43.433H43.57a.432.432,0,0,0,.43-.433v-3.293a.432.432,0,0,0-.43-.433H.43A.432.432,0,0,0,0,304.433Z" transform="translate(0 -204.586)" fill="#fff"/><path d="M0,384.433v2.34a1.381,1.381,0,0,0,1.375,1.387h41.25A1.381,1.381,0,0,0,44,386.773v-2.34a.432.432,0,0,0-.43-.433H.43A.432.432,0,0,0,0,384.433Z" transform="translate(0 -277.652)" fill="#fff"/></g></svg>