<svg id="verified-icon" xmlns="http://www.w3.org/2000/svg" width="406.993" height="409.94" viewBox="0 0 406.993 409.94">
  <path id="Path_217" data-name="Path 217" d="M420,228.97l12.661-24.7L414.5,183.281l6.368-27.015-22.685-15.993-.315-27.753-25.855-10.1-6.924-26.878L337.573,71.9,324.439,47.443l-27.588,3.043L278.225,29.911l-26.044,9.6L229.164,24,206.148,39.509l-26.045-9.6L161.476,50.486l-27.587-3.042L120.756,71.9,93.241,75.547l-6.923,26.878-25.854,10.1-.315,27.753L37.464,156.268l6.368,27.014L25.668,204.267l12.662,24.7-12.661,24.7,18.164,20.986-6.368,27.014L60.15,317.667l.314,27.753,25.854,10.1,6.924,26.878,27.514,3.651L133.89,410.5l27.588-3.043L180.1,428.03l26.044-9.6,23.017,15.509,23.017-15.509,26.045,9.6,18.627-20.576L324.44,410.5l13.133-24.452,27.514-3.651,6.923-26.878,25.855-10.1.315-27.753,22.685-15.992L414.5,274.658l18.165-20.985Z" transform="translate(-25.668 -24)" fill="#009245"/>
  <circle id="Ellipse_13" data-name="Ellipse 13" cx="162.563" cy="162.563" r="162.563" transform="translate(40.934 42.408)" fill="#b0e1b7"/>
  <path id="Path_218" data-name="Path 218" d="M237.125,378.718a143.6,143.6,0,0,1-14.762-.786l1.484-14.058a129.156,129.156,0,0,0,13.3.707Zm14.763-.737-1.436-14.063a127.772,127.772,0,0,0,13.154-2.043l2.9,13.836a142,142,0,0,1-14.615,2.27Zm-44.134-2.369a141.393,141.393,0,0,1-14.291-3.843l4.386-13.439a126.776,126.776,0,0,0,12.852,3.457Zm73.058-3.7-4.34-13.453a126.457,126.457,0,0,0,12.434-4.751l5.734,12.921a140.676,140.676,0,0,1-13.828,5.285Zm-101.155-5.475a141.566,141.566,0,0,1-13.164-6.745l7.1-12.226a127.144,127.144,0,0,0,11.845,6.069Zm128.176-6.517-7.058-12.249a127.8,127.8,0,0,0,11.176-7.245l8.3,11.444a142.067,142.067,0,0,1-12.414,8.053ZM154.1,351.608a142.294,142.294,0,0,1-11.477-9.329l9.477-10.489a128.37,128.37,0,0,0,10.333,8.407Zm177.648-9.026-9.443-10.514a128.268,128.268,0,0,0,9.436-9.4l10.483,9.477A142.554,142.554,0,0,1,331.753,342.583ZM132.186,331.812a142.087,142.087,0,0,1-9.3-11.5l11.44-8.3a128.413,128.413,0,0,0,8.374,10.356Zm219.382-11.14-11.415-8.34a127.971,127.971,0,0,0,7.284-11.145l12.22,7.1A142.207,142.207,0,0,1,351.568,320.672ZM114.833,307.9a141.77,141.77,0,0,1-6.714-13.188l12.917-5.743a127.567,127.567,0,0,0,6.04,11.868ZM366.408,295.13l-12.9-5.782a127.008,127.008,0,0,0,4.8-12.409l13.435,4.394a140.763,140.763,0,0,1-5.336,13.8ZM102.83,280.886a141.192,141.192,0,0,1-3.8-14.3l13.834-2.909a126.5,126.5,0,0,0,3.422,12.865Zm272.764-13.842-13.824-2.956a127.42,127.42,0,0,0,2.095-13.144l14.057,1.491A141.66,141.66,0,0,1,375.594,267.044ZM96.747,251.967A143.256,143.256,0,0,1,96,237.359v-.148h14.136v.148a129.22,129.22,0,0,0,.672,13.166Zm281.971-14.312H364.582v-.3a129.61,129.61,0,0,0-.684-13.29l14.058-1.473a143.49,143.49,0,0,1,.762,14.763Zm-267.88-13.739-14.058-1.476a141.627,141.627,0,0,1,2.313-14.611l13.827,2.938A127.317,127.317,0,0,0,110.837,223.916ZM361.83,210.907a126.64,126.64,0,0,0-3.432-12.864l13.446-4.362a141.094,141.094,0,0,1,3.82,14.3ZM116.367,197.915l-13.44-4.378a141.157,141.157,0,0,1,5.318-13.809L121.15,185.5A127.009,127.009,0,0,0,116.367,197.915Zm237.259-12.3a127.247,127.247,0,0,0-6.053-11.859l12.237-7.081a141.2,141.2,0,0,1,6.727,13.183ZM127.211,173.649l-12.229-7.091a142.371,142.371,0,0,1,8.077-12.389l11.424,8.328a127.77,127.77,0,0,0-7.271,11.152Zm213.1-11.052a128.492,128.492,0,0,0-8.387-10.349l10.505-9.453a143.062,143.062,0,0,1,9.312,11.485ZM142.877,152.158l-10.5-9.469a142.99,142.99,0,0,1,10.465-10.45l9.453,10.508A128.935,128.935,0,0,0,142.877,152.158Zm179.63-9.333a127.951,127.951,0,0,0-10.337-8.388l8.319-11.429a142.308,142.308,0,0,1,11.485,9.318Zm-159.853-8.461-8.31-11.436a142.425,142.425,0,0,1,12.408-8.061l7.068,12.242a127.608,127.608,0,0,0-11.166,7.259Zm138.355-7.19a127.65,127.65,0,0,0-11.852-6.056l5.763-12.908a141.685,141.685,0,0,1,13.171,6.729Zm-115.326-6.108-5.752-12.914a140.852,140.852,0,0,1,13.821-5.3l4.356,13.447A127.01,127.01,0,0,0,185.683,121.067Zm91.052-4.722a127.253,127.253,0,0,0-12.856-3.446l2.935-13.828a141.606,141.606,0,0,1,14.293,3.828Zm-65.759-3.472L208.06,99.04a142.005,142.005,0,0,1,14.615-2.286l1.451,14.062a126.926,126.926,0,0,0-13.15,2.06Zm39.757-2.044a129.349,129.349,0,0,0-13.3-.693L237.437,96a143.512,143.512,0,0,1,14.762.77Z" transform="translate(-33.862 -32.389)" fill="#298235"/>
  <circle id="Ellipse_14" data-name="Ellipse 14" cx="106.019" cy="106.019" r="106.019" transform="translate(97.477 98.951)" fill="#ffe9b3"/>
  <path id="Path_219" data-name="Path 219" d="M158.464,311.554A106.031,106.031,0,0,0,339.632,202.679,258.281,258.281,0,0,1,158.464,311.554Z" transform="translate(-41.14 -44.817)" fill="#efd59a"/>
  <path id="Path_220" data-name="Path 220" d="M218.408,314.019a14.09,14.09,0,0,1-10-4.141l-28.272-28.272a14.136,14.136,0,0,1,19.991-19.99l18.276,18.276,67.752-67.751a14.136,14.136,0,1,1,19.991,19.99L228.4,309.878A14.088,14.088,0,0,1,218.408,314.019Z" transform="translate(-43.183 -45.437)" fill="#39b54a"/>
</svg>
