<svg xmlns="http://www.w3.org/2000/svg" width="34.3" height="34.277" viewBox="0 0 34.3 34.277">
  <g id="zoom-icon" transform="translate(-0.565 -1028.775)">
    <path id="Path_333" data-name="Path 333" d="M0,0H6.115V15.287H0Z" transform="translate(19.732 1052.242) rotate(-45)" fill="#2196f3"/>
    <path id="Path_332" data-name="Path 332" d="M0,0H6.115V4.586H0Z" transform="translate(19.732 1052.242) rotate(-45)" fill="#243762"/>
    <path id="Path_317" data-name="Path 317" d="M4.595,1032.788a13.743,13.743,0,1,0,19.458,0A13.707,13.707,0,0,0,4.595,1032.788ZM7.838,1036a9.3,9.3,0,0,1,12.972,0,9.2,9.2,0,0,1,0,12.994,9.3,9.3,0,0,1-12.972,0A9.2,9.2,0,0,1,7.838,1036Z" transform="translate(0 0)" fill="#2196f3"/>
    <path id="Path_318" data-name="Path 318" d="M22.873,12.937A9.937,9.937,0,1,1,12.937,3,9.936,9.936,0,0,1,22.873,12.937Z" transform="translate(1.287 1029.788)" fill="#ecf0f1"/>
    <path id="Path_319" data-name="Path 319" d="M10.586,6v4.586H6v1.529h4.586V16.7h1.529V12.115H16.7V10.586H12.115V6Z" transform="translate(2.874 1031.374)" fill="#2196f3"/>
  </g>
</svg>
