<svg width="1920" height="362" viewBox="0 0 1920 362" fill="none" xmlns="http://www.w3.org/2000/svg">
<path d="M0 0H1920V362H0V0Z" fill="url(#paint0_linear)"/>
<path d="M1798.56 141.87L1797.32 135L1763 141.206L1764.24 148.077L1798.56 141.87Z" fill="white" fill-opacity="0.3"/>
<path d="M1800.68 154.042L1799.44 147.171L1765.12 153.378L1766.37 160.248L1800.68 154.042Z" fill="white" fill-opacity="0.3"/>
<path d="M273.555 295.812L272.027 289L238 296.645L239.528 303.457L273.555 295.812Z" fill="white" fill-opacity="0.3"/>
<path d="M276.19 307.883L274.662 301.071L240.635 308.716L242.163 315.528L276.19 307.883Z" fill="white" fill-opacity="0.3"/>
<path d="M174.521 35.6917L167.675 32L149.208 66.2647L156.053 69.9565L174.521 35.6917Z" fill="white" fill-opacity="0.3"/>
<path d="M177.228 63.8024L180.921 56.9495L146.693 38.4909L143 45.3438L177.228 63.8024Z" fill="white" fill-opacity="0.3"/>
<path d="M881.624 329.071L881.496 324.423L858.232 325.069L858.36 329.717L881.624 329.071Z" fill="white" fill-opacity="0.3"/>
<path d="M867.863 338.856L872.516 338.727L871.876 315.485L867.223 315.614L867.863 338.856Z" fill="white" fill-opacity="0.3"/>
<path d="M452.645 10.021L450.934 7.0354L435.994 15.6043L437.705 18.5899L452.645 10.021Z" fill="white" fill-opacity="0.3"/>
<path d="M447.101 21.2194L450.089 19.5056L441.532 4.57762L438.544 6.29139L447.101 21.2194Z" fill="white" fill-opacity="0.3"/>
<path d="M126.386 257.568L127.955 251.883L99.5023 244.039L97.9335 249.724L126.386 257.568Z" fill="white" fill-opacity="0.3"/>
<path d="M106.069 264.331L111.759 265.899L119.603 237.476L113.913 235.907L106.069 264.331Z" fill="white" fill-opacity="0.3"/>
<path d="M1464.39 304.568L1465.95 298.883L1437.5 291.039L1435.93 296.724L1464.39 304.568Z" fill="white" fill-opacity="0.3"/>
<path d="M1444.07 311.331L1449.76 312.9L1457.6 284.476L1451.91 282.907L1444.07 311.331Z" fill="white" fill-opacity="0.3"/>
<path d="M1892.89 211.409L1889.14 203.343L1848.78 222.133L1852.53 230.199L1892.89 211.409Z" fill="white" fill-opacity="0.3"/>
<path d="M1876.15 239.036L1884.23 235.278L1865.46 194.947L1857.39 198.705L1876.15 239.036Z" fill="white" fill-opacity="0.3"/>
<path d="M1070.81 326.146L1070.67 320.998L1044.9 321.714L1045.04 326.862L1070.81 326.146Z" fill="white" fill-opacity="0.3"/>
<path d="M1055.57 336.984L1060.72 336.841L1060.01 311.099L1054.86 311.242L1055.57 336.984Z" fill="white" fill-opacity="0.3"/>
<g opacity="0.3">
<path d="M475.115 283.207L456.589 261.29L452.506 264.887L448.989 260.634L459.173 251.579L471.128 266.664C471.726 267.534 472.294 268.39 472.834 269.234C473.417 270.062 473.985 270.919 474.541 271.804L474.791 271.714C474.57 270.708 474.377 269.716 474.213 268.737C474.048 267.758 473.897 266.75 473.759 265.714L468.691 222.235L475.707 219.704L482.381 280.585L475.115 283.207Z" fill="white"/>
<path d="M505.761 267.761C504.299 268.288 502.894 268.512 501.544 268.433C500.178 268.312 498.92 267.964 497.768 267.388C496.659 266.798 495.684 265.993 494.844 264.974C494.005 263.956 493.352 262.799 492.885 261.504C491.709 258.247 492.127 255.218 494.136 252.416C496.131 249.572 500.022 246.753 505.81 243.957C504.776 241.876 502.922 241.317 500.25 242.281C499.122 242.688 498.015 243.347 496.928 244.259C495.826 245.128 494.618 246.295 493.306 247.76L487.017 242.1C488.748 239.965 490.613 238.136 492.612 236.613C494.611 235.089 496.842 233.883 499.306 232.994C503.357 231.533 506.952 231.557 510.093 233.067C513.26 234.52 515.77 237.815 517.623 242.951L523.906 260.365L515.136 263.529L513.3 260.793L513.049 260.884C512.203 262.463 511.199 263.864 510.035 265.086C508.898 266.252 507.473 267.143 505.761 267.761ZM506.536 258.137C507.413 257.82 508.055 257.376 508.463 256.804C508.897 256.176 509.293 255.443 509.652 254.606L508.115 250.346C505.661 251.656 504.09 252.86 503.401 253.958C502.711 255.057 502.525 256.044 502.841 256.921C503.384 258.424 504.615 258.83 506.536 258.137Z" fill="white"/>
</g>
<g opacity="0.3">
<path d="M1539.11 228.207L1520.59 206.29L1516.51 209.887L1512.99 205.634L1523.17 196.579L1535.13 211.664C1535.73 212.534 1536.29 213.39 1536.83 214.234C1537.42 215.062 1537.99 215.919 1538.54 216.804L1538.79 216.714C1538.57 215.708 1538.38 214.716 1538.21 213.737C1538.05 212.758 1537.9 211.75 1537.76 210.714L1532.69 167.235L1539.71 164.704L1546.38 225.585L1539.11 228.207Z" fill="white"/>
<path d="M1569.76 212.761C1568.3 213.288 1566.89 213.512 1565.54 213.433C1564.18 213.312 1562.92 212.964 1561.77 212.388C1560.66 211.798 1559.68 210.993 1558.84 209.974C1558 208.956 1557.35 207.799 1556.88 206.504C1555.71 203.247 1556.13 200.218 1558.14 197.416C1560.13 194.572 1564.02 191.753 1569.81 188.957C1568.78 186.876 1566.92 186.317 1564.25 187.281C1563.12 187.688 1562.01 188.347 1560.93 189.259C1559.83 190.128 1558.62 191.295 1557.31 192.76L1551.02 187.1C1552.75 184.965 1554.61 183.136 1556.61 181.613C1558.61 180.089 1560.84 178.883 1563.31 177.994C1567.36 176.533 1570.95 176.557 1574.09 178.067C1577.26 179.52 1579.77 182.815 1581.62 187.951L1587.91 205.365L1579.14 208.529L1577.3 205.793L1577.05 205.884C1576.2 207.463 1575.2 208.864 1574.03 210.086C1572.9 211.252 1571.47 212.143 1569.76 212.761ZM1570.54 203.137C1571.41 202.82 1572.06 202.376 1572.46 201.804C1572.9 201.176 1573.29 200.443 1573.65 199.606L1572.11 195.346C1569.66 196.656 1568.09 197.86 1567.4 198.958C1566.71 200.057 1566.52 201.044 1566.84 201.921C1567.38 203.424 1568.62 203.83 1570.54 203.137Z" fill="white"/>
</g>
<path d="M359.374 137.801L356.951 127L303 139.122L305.423 149.923L359.374 137.801Z" fill="white" fill-opacity="0.3"/>
<path d="M363.552 156.94L361.129 146.139L307.178 158.26L309.601 169.061L363.552 156.94Z" fill="white" fill-opacity="0.3"/>
<path d="M1306.6 256.383L1309.46 246.96L1262.39 232.668L1259.52 242.091L1306.6 256.383Z" fill="white" fill-opacity="0.3"/>
<path d="M1301.43 273.029L1304.3 263.606L1257.22 249.315L1254.36 258.737L1301.43 273.029Z" fill="white" fill-opacity="0.3"/>
<path d="M863.329 51.0546L868.067 48.3374L854.499 24.6685L849.762 27.3858L863.329 51.0546Z" fill="white" fill-opacity="0.3"/>
<path d="M696.953 285.896L702.844 287.675C702.011 291.415 701.02 294.223 699.871 296.097C697.808 299.476 695.522 301.987 693.012 303.628C690.533 305.25 688.209 306.318 686.04 306.83C683.852 307.312 681.707 307.399 679.605 307.091C675.021 306.42 671.463 304.15 668.931 300.28C666.32 296.289 665.635 292.075 666.876 287.636C668.096 283.167 670.899 279.499 675.282 276.631C682.266 272.061 690.846 271.779 701.023 275.785C709.342 279.063 715.547 279.968 719.638 278.5C720.965 278.02 722.278 277.355 723.578 276.505C724.908 275.634 725.934 274.596 726.656 273.39C727.408 272.164 727.88 270.905 728.071 269.614C728.495 266.962 728.153 264.79 727.045 263.097C725.937 261.404 724.811 260.176 723.665 259.415C722.549 258.634 721.351 258.123 720.071 257.881C717.34 257.337 714.659 257.925 712.029 259.646C709.217 261.485 707.191 264.625 705.95 269.063C705.639 270.303 705.354 271.483 705.093 272.603L699.201 270.824C700.095 267.174 701.03 264.446 702.007 262.641C703.872 259.09 706.089 256.473 708.658 254.792C711.228 253.11 713.592 252.038 715.751 251.576C717.92 251.064 720.015 250.966 722.036 251.284C726.299 251.992 729.706 254.296 732.258 258.196C735.008 262.399 735.742 266.754 734.46 271.262C733.251 275.551 730.621 279.02 726.57 281.671C723.456 283.708 720.52 284.831 717.763 285.037C712.87 285.346 707.161 284.505 700.634 282.515C694.717 280.731 690.697 279.734 688.575 279.526C684.5 279.17 681.011 279.942 678.108 281.841C675.357 283.641 673.739 285.952 673.254 288.773C672.821 291.345 673.425 293.885 675.067 296.395C676.571 298.692 678.733 300.084 681.555 300.569C684.327 301.044 687.224 300.292 690.247 298.314C693.27 296.336 695.506 292.196 696.953 285.896Z" fill="white" fill-opacity="0.41"/>
<path d="M606.967 45.901L609.193 50.2635C606.586 51.8467 604.428 52.8251 602.72 53.1988C599.643 53.8771 596.942 53.9485 594.616 53.4132C592.319 52.8843 590.425 52.1386 588.936 51.1761C587.453 50.1857 586.22 49.0022 585.239 47.6257C583.098 44.625 582.44 41.3315 583.265 37.7452C584.117 34.0469 586.158 31.3306 589.39 29.5963C592.628 27.834 596.278 27.4204 600.34 28.3557C606.813 29.8456 611.704 34.6151 615.014 42.6643C617.717 49.2462 620.618 53.3067 623.715 54.8459C624.722 55.3431 625.828 55.7304 627.032 56.0078C628.265 56.2916 629.427 56.3082 630.517 56.0577C631.635 55.8136 632.618 55.3907 633.464 54.789C635.22 53.5705 636.278 52.1768 636.639 50.6078C637.001 49.0388 637.084 47.7156 636.889 46.6382C636.723 45.5673 636.356 44.5978 635.789 43.7296C634.596 41.8619 632.781 40.6475 630.344 40.0864C627.738 39.4865 624.819 40.0537 621.588 41.788C620.705 42.2928 619.87 42.7791 619.083 43.2472L616.857 38.8846C619.445 37.3855 621.526 36.419 623.101 35.985C626.167 35.0977 628.891 34.9282 631.272 35.4764C633.654 36.0247 635.572 36.7908 637.027 37.7749C638.517 38.7373 639.727 39.8864 640.659 41.2219C642.602 44.059 643.157 47.2846 642.325 50.8989C641.429 54.7934 639.334 57.6153 636.04 59.3647C632.911 61.0343 629.47 61.437 625.716 60.5727C622.83 59.9083 620.568 58.8417 618.929 57.3729C616.055 54.7346 613.391 50.994 610.936 46.151C608.699 41.7712 607.055 38.9146 606.005 37.5812C603.963 35.0459 601.597 33.4687 598.908 32.8495C596.358 32.2625 594.14 32.6074 592.253 33.8842C590.538 35.0531 589.413 36.8002 588.878 39.1257C588.387 41.2551 588.781 43.2633 590.057 45.1503C591.313 47.0029 593.341 48.2517 596.143 48.8967C598.945 49.5417 602.552 48.5431 606.967 45.901Z" fill="white" fill-opacity="0.41"/>
<path d="M1521 88.3865L1522.44 91.2016C1520.76 92.2232 1519.37 92.8545 1518.26 93.0957C1516.28 93.5334 1514.54 93.5795 1513.03 93.234C1511.55 92.8927 1510.33 92.4116 1509.37 91.7905C1508.41 91.1514 1507.62 90.3877 1506.98 89.4994C1505.6 87.5631 1505.18 85.4379 1505.71 83.1238C1506.26 80.7373 1507.58 78.9845 1509.66 77.8654C1511.75 76.7282 1514.11 76.4614 1516.73 77.0649C1520.9 78.0263 1524.06 81.104 1526.2 86.2979C1527.94 90.5451 1529.81 93.1653 1531.81 94.1585C1532.46 94.4794 1533.17 94.7293 1533.95 94.9083C1534.75 95.0914 1535.5 95.1021 1536.2 94.9405C1536.92 94.7829 1537.56 94.5101 1538.1 94.1218C1539.24 93.3355 1539.92 92.4362 1540.15 91.4237C1540.38 90.4113 1540.44 89.5575 1540.31 88.8623C1540.21 88.1712 1539.97 87.5456 1539.6 86.9854C1538.83 85.7802 1537.66 84.9966 1536.09 84.6345C1534.41 84.2474 1532.52 84.6134 1530.44 85.7325C1529.87 86.0582 1529.33 86.3721 1528.82 86.6741L1527.39 83.859C1529.06 82.8917 1530.4 82.268 1531.42 81.9879C1533.39 81.4154 1535.15 81.306 1536.69 81.6598C1538.22 82.0135 1539.46 82.5079 1540.4 83.1429C1541.36 83.764 1542.14 84.5054 1542.75 85.3672C1544 87.1979 1544.36 89.2794 1543.82 91.6116C1543.24 94.1246 1541.89 95.9456 1539.76 97.0744C1537.75 98.1518 1535.53 98.4116 1533.1 97.8539C1531.24 97.4252 1529.78 96.737 1528.72 95.7892C1526.87 94.0867 1525.15 91.673 1523.57 88.5479C1522.12 85.7216 1521.06 83.8783 1520.38 83.0179C1519.07 81.382 1517.54 80.3642 1515.8 79.9646C1514.16 79.5859 1512.73 79.8084 1511.51 80.6323C1510.4 81.3866 1509.68 82.514 1509.33 84.0146C1509.02 85.3886 1509.27 86.6845 1510.09 87.9021C1510.9 89.0976 1512.21 89.9034 1514.02 90.3196C1515.83 90.7358 1518.16 90.0915 1521 88.3865Z" fill="white" fill-opacity="0.41"/>
<path d="M1735.66 313.367C1737.3 313.673 1738.57 311.411 1739.47 306.581C1739.59 305.951 1739.7 305.268 1739.79 304.529L1743.22 278.519C1743.54 276.227 1743.8 274.543 1744 273.467C1746.61 259.483 1751.52 253.164 1758.75 254.51C1760.49 254.835 1761.66 255.619 1762.25 256.863C1762.44 257.277 1762.49 257.728 1762.4 258.215C1762.32 258.682 1762.15 259.071 1761.9 259.382C1761.66 259.693 1761.36 259.932 1761.01 260.098C1760.32 260.431 1759.6 260.528 1758.85 260.388C1758.12 260.252 1757.63 260.014 1757.38 259.673C1757.15 259.315 1756.97 258.945 1756.83 258.562C1756.69 258.18 1756.54 257.827 1756.39 257.505C1756.27 257.167 1756.01 256.962 1755.63 256.89C1753.92 256.572 1752.63 258.768 1751.75 263.476C1751.61 264.248 1751.48 265.126 1751.36 266.112L1748.26 289.664C1747.91 292.119 1747.54 294.381 1747.16 296.451C1746.77 298.501 1746.23 300.636 1745.52 302.856C1744.84 305.06 1744.1 306.949 1743.3 308.522C1742.5 310.116 1741.65 311.417 1740.75 312.425C1739.84 313.433 1738.92 314.206 1737.98 314.745C1736.22 315.761 1734.28 316.072 1732.17 315.679C1730.99 315.459 1730.14 315.08 1729.61 314.54C1728.76 313.604 1728.39 312.821 1728.5 312.192C1728.62 311.563 1728.82 311.074 1729.09 310.727C1729.36 310.399 1729.69 310.146 1730.08 309.966C1730.92 309.555 1731.7 309.417 1732.43 309.553C1733.18 309.693 1733.67 309.951 1733.89 310.329C1734.14 310.711 1734.32 311.113 1734.45 311.536C1734.61 311.964 1734.75 312.358 1734.9 312.721C1735.04 313.084 1735.29 313.299 1735.66 313.367Z" fill="white" fill-opacity="0.3"/>
<path d="M1283.26 76.6929C1285.1 77.035 1286.52 74.5072 1287.53 69.1094C1287.66 68.4063 1287.78 67.6423 1287.88 66.8174L1291.71 37.7513C1292.07 35.19 1292.36 33.3084 1292.59 32.1063C1295.5 16.4798 1300.99 9.41851 1309.06 10.9224C1311.02 11.2857 1312.32 12.1621 1312.98 13.5516C1313.19 14.0148 1313.25 14.5185 1313.15 15.0628C1313.05 15.5845 1312.87 16.019 1312.59 16.3666C1312.32 16.7141 1311.98 16.9809 1311.6 17.1671C1310.82 17.5393 1310.02 17.6472 1309.18 17.4909C1308.36 17.3389 1307.81 17.0724 1307.53 16.6915C1307.28 16.2921 1307.07 15.8786 1306.92 15.4508C1306.76 15.023 1306.6 14.6292 1306.44 14.2694C1306.29 13.8912 1306.01 13.6619 1305.58 13.5817C1303.67 13.2268 1302.23 15.6803 1301.25 20.942C1301.09 21.8039 1300.94 22.7855 1300.81 23.8868L1297.35 50.2059C1296.95 52.9486 1296.54 55.4766 1296.11 57.79C1295.68 60.0807 1295.08 62.4665 1294.29 64.9475C1293.52 67.4101 1292.69 69.5206 1291.8 71.2789C1290.91 73.06 1289.96 74.5137 1288.95 75.6402C1287.94 76.7666 1286.91 77.6309 1285.86 78.2331C1283.89 79.3677 1281.73 79.7154 1279.37 79.2761C1278.05 79.031 1277.1 78.607 1276.51 78.004C1275.55 76.9579 1275.14 76.0832 1275.27 75.3802C1275.4 74.6771 1275.62 74.1312 1275.93 73.7425C1276.23 73.3765 1276.6 73.0934 1277.04 72.893C1277.97 72.4327 1278.84 72.2786 1279.66 72.4307C1280.5 72.587 1281.04 72.8762 1281.29 73.2982C1281.56 73.7245 1281.77 74.1742 1281.92 74.6473C1282.09 75.1247 1282.25 75.566 1282.41 75.9711C1282.57 76.3762 1282.85 76.6168 1283.26 76.6929Z" fill="white" fill-opacity="0.3"/>
<path d="M1377.77 90.1193L1375.03 88.1284L1365.08 101.868L1367.83 103.859L1377.77 90.1193Z" fill="white" fill-opacity="0.3"/>
<path d="M1377.32 102.333L1379.31 99.5854L1365.59 89.631L1363.6 92.3789L1377.32 102.333Z" fill="white" fill-opacity="0.3"/>
<path d="M1648.93 41.0524L1645.57 40.6062L1643.34 57.4255L1646.71 57.8717L1648.93 41.0524Z" fill="white" fill-opacity="0.3"/>
<path d="M1654.38 52.0902L1654.83 48.7263L1638.03 46.4952L1637.58 49.859L1654.38 52.0902Z" fill="white" fill-opacity="0.3"/>
<defs>
<linearGradient id="paint0_linear" x1="960" y1="0" x2="960" y2="362" gradientUnits="userSpaceOnUse">
<stop stop-color="#4990D1"/>
<stop offset="1" stop-color="#90C2EF"/>
</linearGradient>
</defs>
</svg>
