<svg width="1366" height="606" viewBox="0 0 1366 606" fill="none" xmlns="http://www.w3.org/2000/svg">
<path d="M-21.5649 10.4998C-21.785 13.9169 0.0729332 25.2244 2.93353 27.0262C25.3782 41.1916 48.9965 54.1145 73.2749 65.8569C149.337 102.637 233.542 128.359 320.753 136.933C428.942 147.557 535.885 150.477 644.881 140.474C889.058 118.045 1131.04 71.0757 1364.8 8.3253C1376.61 5.15672 1379.17 0 1379.17 0V111.211L1378.44 206.89V255.351V267.043C1378.44 274.312 1401.3 304.84 1344.63 333.914C1285.69 364.157 1274.88 365.896 1216.03 378.118C1185.87 384.383 1160.08 385.387 1138.66 384.89C1122.31 384.517 1105.95 382.529 1090.4 378.118C1065.02 370.973 1044.56 353.08 1024.61 338.728C976.636 304.06 907.982 316.858 852.457 329.16C538.965 398.931 -30 385.263 -30 276.102C-30 166.941 -21.5649 10.5619 -21.5649 10.4998Z" fill="white"/>

</svg>
