<svg width="124" height="13" viewBox="0 0 124 13" fill="none" xmlns="http://www.w3.org/2000/svg">
<path d="M0 12.024V0.288001H2.898L4.788 5.508C4.908 5.856 5.022 6.216 5.13 6.588C5.238 6.948 5.352 7.308 5.472 7.668H5.544C5.664 7.308 5.772 6.948 5.868 6.588C5.976 6.216 6.09 5.856 6.21 5.508L8.064 0.288001H10.944V12.024H8.532V7.722C8.532 7.434 8.544 7.116 8.568 6.768C8.592 6.42 8.622 6.072 8.658 5.724C8.694 5.364 8.73 5.016 8.766 4.68C8.802 4.332 8.838 4.014 8.874 3.726H8.802L7.848 6.516L6.174 10.998H4.716L3.042 6.516L2.106 3.726H2.034C2.07 4.014 2.106 4.332 2.142 4.68C2.178 5.016 2.214 5.364 2.25 5.724C2.286 6.072 2.316 6.42 2.34 6.768C2.364 7.116 2.376 7.434 2.376 7.722V12.024H0Z" fill="#546CA0"/>
<path d="M16.9649 6.084L16.6769 7.164H19.1789L18.9089 6.084C18.7409 5.496 18.5789 4.872 18.4229 4.212C18.2669 3.552 18.1109 2.916 17.9549 2.304H17.8829C17.7389 2.928 17.5889 3.57 17.4329 4.23C17.2889 4.878 17.1329 5.496 16.9649 6.084ZM12.7169 12.024L16.3889 0.288001H19.5749L23.2469 12.024H20.4389L19.7189 9.234H16.1369L15.4169 12.024H12.7169Z" fill="#546CA0"/>
<path d="M25.9969 12.024V2.52H22.7749V0.288001H31.8829V2.52H28.6609V12.024H25.9969Z" fill="#546CA0"/>
<path d="M34.2129 12.024V0.288001H36.8589V4.806H40.9089V0.288001H43.5729V12.024H40.9089V7.128H36.8589V12.024H34.2129Z" fill="#546CA0"/>
<path d="M47.0758 12.024V0.216H48.5698V12.024H47.0758Z" fill="#546CA0"/>
<path d="M52.3043 12.024V0.216H53.8523L58.1183 7.632L59.3963 10.08H59.4683C59.4323 9.48 59.3903 8.862 59.3423 8.226C59.3063 7.578 59.2883 6.942 59.2883 6.318V0.216H60.7103V12.024H59.1623L54.8783 4.59L53.6003 2.16H53.5283C53.5763 2.76 53.6183 3.372 53.6543 3.996C53.7023 4.608 53.7263 5.226 53.7263 5.85V12.024H52.3043Z" fill="#546CA0"/>
<path d="M67.7346 12.24C66.9066 12.24 66.1386 12.084 65.4306 11.772C64.7226 11.46 64.1106 11.034 63.5946 10.494L64.4946 9.45C64.9146 9.894 65.4066 10.254 65.9706 10.53C66.5466 10.794 67.1406 10.926 67.7526 10.926C68.5326 10.926 69.1386 10.752 69.5706 10.404C70.0026 10.044 70.2186 9.576 70.2186 9C70.2186 8.7 70.1646 8.448 70.0566 8.244C69.9606 8.028 69.8226 7.848 69.6426 7.704C69.4746 7.548 69.2706 7.41 69.0306 7.29C68.7906 7.17 68.5326 7.044 68.2566 6.912L66.5646 6.174C66.2886 6.054 66.0066 5.91 65.7186 5.742C65.4306 5.574 65.1726 5.37 64.9446 5.13C64.7166 4.89 64.5306 4.608 64.3866 4.284C64.2426 3.948 64.1706 3.564 64.1706 3.132C64.1706 2.688 64.2606 2.274 64.4406 1.89C64.6326 1.506 64.8906 1.176 65.2146 0.9C65.5506 0.612 65.9406 0.39 66.3846 0.234C66.8406 0.0780001 67.3386 0 67.8786 0C68.5866 0 69.2406 0.138 69.8406 0.414C70.4406 0.678 70.9506 1.026 71.3706 1.458L70.5606 2.43C70.2006 2.082 69.7986 1.812 69.3546 1.62C68.9226 1.416 68.4306 1.314 67.8786 1.314C67.2186 1.314 66.6846 1.47 66.2766 1.782C65.8806 2.082 65.6826 2.502 65.6826 3.042C65.6826 3.33 65.7366 3.576 65.8446 3.78C65.9646 3.972 66.1206 4.146 66.3126 4.302C66.5046 4.446 66.7146 4.578 66.9426 4.698C67.1706 4.806 67.4046 4.908 67.6446 5.004L69.3186 5.724C69.6546 5.868 69.9726 6.036 70.2726 6.228C70.5726 6.408 70.8306 6.624 71.0466 6.876C71.2626 7.116 71.4306 7.404 71.5506 7.74C71.6826 8.064 71.7486 8.442 71.7486 8.874C71.7486 9.342 71.6526 9.78 71.4606 10.188C71.2806 10.596 71.0166 10.956 70.6686 11.268C70.3206 11.568 69.9006 11.808 69.4086 11.988C68.9166 12.156 68.3586 12.24 67.7346 12.24Z" fill="#546CA0"/>
<path d="M76.6703 12.024V1.476H73.1063V0.216H81.7463V1.476H78.1823V12.024H76.6703Z" fill="#546CA0"/>
<path d="M85.686 5.418L85.128 7.218H88.674L88.116 5.418C87.9 4.758 87.696 4.104 87.504 3.456C87.312 2.796 87.12 2.124 86.928 1.44H86.856C86.676 2.124 86.49 2.796 86.298 3.456C86.106 4.104 85.902 4.758 85.686 5.418ZM82.086 12.024L86.082 0.216H87.774L91.77 12.024H90.168L89.052 8.424H84.75L83.616 12.024H82.086Z" fill="#546CA0"/>
<path d="M93.943 12.024V0.216H95.491L99.757 7.632L101.035 10.08H101.107C101.071 9.48 101.029 8.862 100.981 8.226C100.945 7.578 100.927 6.942 100.927 6.318V0.216H102.349V12.024H100.801L96.517 4.59L95.239 2.16H95.167C95.215 2.76 95.257 3.372 95.293 3.996C95.341 4.608 95.365 5.226 95.365 5.85V12.024H93.943Z" fill="#546CA0"/>
<path d="M110.561 12.24C109.817 12.24 109.133 12.102 108.509 11.826C107.885 11.55 107.339 11.154 106.871 10.638C106.415 10.11 106.055 9.468 105.791 8.712C105.539 7.944 105.413 7.08 105.413 6.12C105.413 5.172 105.545 4.32 105.809 3.564C106.073 2.808 106.439 2.166 106.907 1.638C107.375 1.11 107.927 0.708 108.563 0.432C109.199 0.144 109.895 0 110.651 0C111.371 0 112.001 0.15 112.541 0.45C113.093 0.738 113.543 1.074 113.891 1.458L113.081 2.43C112.769 2.094 112.415 1.824 112.019 1.62C111.623 1.416 111.173 1.314 110.669 1.314C110.105 1.314 109.595 1.428 109.139 1.656C108.683 1.872 108.293 2.19 107.969 2.61C107.645 3.018 107.393 3.516 107.213 4.104C107.045 4.692 106.961 5.352 106.961 6.084C106.961 6.828 107.045 7.5 107.213 8.1C107.393 8.688 107.639 9.192 107.951 9.612C108.263 10.032 108.641 10.356 109.085 10.584C109.541 10.812 110.051 10.926 110.615 10.926C111.191 10.926 111.695 10.812 112.127 10.584C112.559 10.344 112.967 10.014 113.351 9.594L114.179 10.53C113.711 11.07 113.183 11.49 112.595 11.79C112.007 12.09 111.329 12.24 110.561 12.24Z" fill="#546CA0"/>
<path d="M116.88 12.024V0.216H123.684V1.476H118.374V5.184H122.856V6.462H118.374V10.746H123.864V12.024H116.88Z" fill="#546CA0"/>
</svg>
