<?xml version="1.0" encoding="UTF-8" standalone="no"?>
<!DOCTYPE svg PUBLIC "-//W3C//DTD SVG 1.1//EN" "http://www.w3.org/Graphics/SVG/1.1/DTD/svg11.dtd">
<svg version="1.1" xmlns="http://www.w3.org/2000/svg" xmlns:xlink="http://www.w3.org/1999/xlink" preserveAspectRatio="xMidYMid meet" viewBox="-31 -1 1416.9979922615387 389.00016714131266" width="1413" height="385"><defs><path d="M2.93 27.03C25.38 41.19 49 54.11 73.27 65.86C149.34 102.64 233.54 128.36 320.75 136.93C428.94 147.56 535.89 150.48 644.88 140.47C889.06 118.05 1131.04 71.08 1364.8 8.33C1376.61 5.16 1379.17 0 1379.17 0C1379.17 7.41 1379.17 44.48 1379.17 111.21L1378.44 206.89L1378.44 255.35C1378.44 262.37 1378.44 266.26 1378.44 267.04C1378.44 274.31 1401.3 304.84 1344.63 333.91C1285.69 364.16 1274.88 365.9 1216.03 378.12C1185.87 384.38 1160.08 385.39 1138.66 384.89C1122.31 384.52 1105.95 382.53 1090.4 378.12C1065.02 370.97 1044.56 353.08 1024.61 338.73C976.64 304.06 907.98 316.86 852.46 329.16C538.97 398.93 -30 385.26 -30 276.1C-30 166.94 -21.56 10.56 -21.56 10.5C-21.78 13.92 0.07 25.22 2.93 27.03Z" id="a2w4l1kOjB"></path></defs><g><g><use xlink:href="#a2w4l1kOjB" opacity="1" fill="#ffffff" fill-opacity="1"></use><g><use xlink:href="#a2w4l1kOjB" opacity="1" fill-opacity="0" stroke="#000000" stroke-width="1" stroke-opacity="0"></use></g></g></g></svg>