<svg xmlns="http://www.w3.org/2000/svg" xmlns:xlink="http://www.w3.org/1999/xlink" width="1001" height="1016.378" viewBox="0 0 1001 1016.378"><defs><clipPath id="a"><rect width="1001" height="1016.378" fill="none"/></clipPath></defs><g clip-path="url(#a)"><path d="M525.841,650.12l-97.284-85.742V242.844s44.52-14.84,97.284,49.467,120.369,145.1,120.369,145.1L736.9,326.938s98.119-149.233,274.914-67.384c-.708-.33-7.277,3.032-7.277,3.032-51.23,22.625-40.68,82.427-40.68,82.427s-73.72-29.755-118.88,10.59-42.153,71.768-42.153,71.768L802.7,455s21.43,127.925,159.445,87.464c4.548.747-5.843,28.459,5.7,49.82.191.236.384.471,1.5,1.782,16.573,19.91,48.855,29.712,46.42,31.125,3.464,6.351-224.688,101.726-303.429-125.178-.04-.11-.818-2.409-.818-2.409L646.21,582.515l-120.369-145.1Z" transform="translate(-242.269 -235.026)" fill="#fff"/><circle cx="49.449" cy="49.449" r="49.449" transform="translate(744.084 263.602)" fill="#fff"/><text transform="translate(0 703.849)" fill="#fff748" font-size="261" font-family="PTSans-Narrow, PT Sans" letter-spacing="0.184em"><tspan x="0" y="0">MARVEL</tspan></text><text transform="translate(0 950.378)" fill="#fff748" font-size="263" font-family="JosefinSans-SemiBold, Josefin Sans" font-weight="600" letter-spacing="0.063em"><tspan x="0" y="0">CODES</tspan></text></g></svg>