<svg xmlns="http://www.w3.org/2000/svg" xmlns:xlink="http://www.w3.org/1999/xlink" width="25.324" height="17.968" viewBox="0 0 25.324 17.968">
  <defs>
    <clipPath id="clip-path">
      <rect width="25.324" height="17.968" fill="none"/>
    </clipPath>
  </defs>
  <g id="upwork-logo" clip-path="url(#clip-path)">
    <path id="Path_2" data-name="Path 2" d="M19.524,6.227c-2.688,0-4.739,1.768-5.588,4.6A22.5,22.5,0,0,1,11.106,4.6h-2.9v7.5a2.688,2.688,0,0,1-5.376,0V4.671H0v7.5a5.588,5.588,0,1,0,11.177,0V10.9a20.636,20.636,0,0,0,2.051,3.4L11.46,22.568h2.971L15.7,16.555a6.839,6.839,0,0,0,3.891,1.2,5.706,5.706,0,0,0,5.73-5.73,5.873,5.873,0,0,0-5.8-5.8Zm0,8.63a5.485,5.485,0,0,1-3.254-1.273l.212-1.132v-.071c.212-1.2.92-3.254,2.971-3.254a2.83,2.83,0,1,1,.141,5.659Z" transform="translate(0 -4.6)" fill="#fff"/>
  </g>
</svg>
