<?xml version="1.0" standalone="no"?>
<!DOCTYPE svg PUBLIC "-//W3C//DTD SVG 1.1//EN" "http://www.w3.org/Graphics/SVG/1.1/DTD/svg11.dtd" >
<svg xmlns="http://www.w3.org/2000/svg">
<metadata></metadata>
<defs>
<font id="open_sansregular" horiz-adv-x="1147" >
<font-face units-per-em="2048" ascent="1638" descent="-410" />
<missing-glyph horiz-adv-x="521" />
<glyph unicode="&#xfb01;" horiz-adv-x="1187" d="M28 948v73l192 59v60q0 396 346 396q86 0 200 -35l-42 -130q-94 30 -160 30q-93 0 -137 -61t-44 -196v-70h274v-126h-274v-948h-163v948h-192zM839 1365q0 56 27.5 82t68.5 26q39 0 67.5 -26.5t28.5 -81.5t-28.5 -82t-67.5 -27q-41 0 -68.5 27t-27.5 82zM852 0v1074h163 v-1074h-163z" />
<glyph unicode="&#xfb02;" horiz-adv-x="1187" d="M28 948v73l192 59v60q0 396 346 396q86 0 200 -35l-42 -130q-94 30 -160 30q-93 0 -137 -61t-44 -196v-70h274v-126h-274v-948h-163v948h-192zM852 0v1525h163v-1525h-163z" />
<glyph unicode="&#xfb03;" horiz-adv-x="1870" d="M28 948v73l192 59v60q0 396 346 396q86 0 200 -35l-42 -130q-94 30 -160 30q-93 0 -137 -61t-44 -196v-70h274v-126h-274v-948h-163v948h-192zM702 948v73l192 59v60q0 396 346 396q86 0 200 -35l-42 -130q-94 30 -160 30q-93 0 -137 -61t-44 -196v-70h274v-126h-274 v-948h-163v948h-192zM1520 1365q0 56 27.5 82t68.5 26q39 0 67.5 -26.5t28.5 -81.5t-28.5 -82t-67.5 -27q-41 0 -68.5 27t-27.5 82zM1533 0v1074h163v-1074h-163z" />
<glyph unicode="&#xfb04;" horiz-adv-x="1870" d="M28 948v73l192 59v60q0 396 346 396q86 0 200 -35l-42 -130q-94 30 -160 30q-93 0 -137 -61t-44 -196v-70h274v-126h-274v-948h-163v948h-192zM702 948v73l192 59v60q0 396 346 396q86 0 200 -35l-42 -130q-94 30 -160 30q-93 0 -137 -61t-44 -196v-70h274v-126h-274 v-948h-163v948h-192zM1533 0v1525h163v-1525h-163z" />
<glyph horiz-adv-x="0" />
<glyph unicode="&#xd;" horiz-adv-x="1023" />
<glyph unicode=" "  horiz-adv-x="521" />
<glyph unicode="&#x09;" horiz-adv-x="521" />
<glyph unicode="&#xa0;" horiz-adv-x="521" />
<glyph unicode="!" horiz-adv-x="536" d="M149 104q0 133 118 133q56 0 87 -34t31 -99q0 -63 -31.5 -97.5t-86.5 -34.5q-51 0 -84.5 30.5t-33.5 101.5zM167 1433h202l-50 -1038h-102z" />
<glyph unicode="&#x22;" horiz-adv-x="804" d="M130 1433h183l-40 -518h-102zM492 1433h182l-40 -518h-102z" />
<glyph unicode="#" horiz-adv-x="1296" d="M50 421v127h281l67 333h-272v124h293l81 428h136l-80 -428h299l82 428h131l-82 -428h259v-124h-284l-64 -333h277v-127h-301l-82 -421h-134l82 421h-297l-80 -421h-134l79 421h-257zM466 548h296l65 333h-297z" />
<glyph unicode="$" d="M128 167v152q82 -36 188 -59t194 -23v431q-201 64 -282 148.5t-81 217.5q0 128 99.5 210.5t263.5 100.5v178h126v-176q180 -5 348 -73l-51 -128q-146 57 -297 68v-425q154 -49 230.5 -95.5t112.5 -107t36 -146.5q0 -133 -100 -220t-279 -109v-228h-126v219 q-110 0 -213 17t-169 48zM313 1036q0 -75 44 -120t153 -85v379q-97 -15 -147 -61t-50 -113zM636 247q213 29 213 180q0 71 -44 114.5t-169 86.5v-381z" />
<glyph unicode="%" horiz-adv-x="1652" d="M102 1005q0 223 73 335.5t216 112.5q142 0 218.5 -116.5t76.5 -331.5q0 -223 -75 -337t-220 -114q-137 0 -213 116.5t-76 334.5zM237 1005q0 -166 36.5 -249.5t117.5 -83.5q161 0 161 333q0 332 -161 332q-81 0 -117.5 -82.5t-36.5 -249.5zM358 0l794 1433h145 l-795 -1433h-144zM965 431q0 223 73 335.5t216 112.5q140 0 217.5 -115t77.5 -333q0 -222 -75 -336.5t-220 -114.5q-139 0 -214 117t-75 334zM1100 431q0 -167 36 -250t118 -83q83 0 122 82t39 251q0 168 -39 248.5t-122 80.5q-82 0 -118 -80.5t-36 -248.5z" />
<glyph unicode="&#x26;" horiz-adv-x="1465" d="M111 371q0 128 68 226t244 198q-83 93 -113 141t-47.5 100t-17.5 108q0 147 96 229t268 82q158 0 249.5 -81.5t91.5 -227.5q0 -105 -67 -194t-221 -180l399 -383q55 61 88 142.5t55 178.5h165q-67 -280 -201 -425l293 -285h-224l-182 174q-115 -103 -234.5 -148.5 t-266.5 -45.5q-211 0 -327 104t-116 287zM279 375q0 -114 76 -181.5t203 -67.5q236 0 392 151l-429 416q-108 -67 -153.5 -110.5t-67 -93.5t-21.5 -114zM406 1148q0 -68 35 -129.5t121 -147.5q126 74 175.5 136t49.5 144q0 75 -50.5 122.5t-134.5 47.5q-88 0 -142 -47 t-54 -126z" />
<glyph unicode="'" horiz-adv-x="443" d="M130 1433h183l-40 -518h-102z" />
<glyph unicode="(" horiz-adv-x="593" d="M80 550q0 259 76 485.5t219 397.5h159q-141 -189 -212 -415.5t-71 -465.5q0 -235 72.5 -459.5t208.5 -410.5h-157q-144 167 -219.5 389.5t-75.5 478.5z" />
<glyph unicode=")" horiz-adv-x="593" d="M60 1433h159q144 -172 219.5 -398.5t75.5 -484.5t-76 -480.5t-219 -387.5h-157q136 185 208.5 410t72.5 460q0 239 -71 465.5t-212 415.5z" />
<glyph unicode="*" horiz-adv-x="1107" d="M84 1068l29 179l383 -109l-42 387h190l-42 -387l390 109l25 -179l-373 -30l243 -320l-169 -92l-172 355l-157 -355l-172 92l237 320z" />
<glyph unicode="+" d="M102 640v135h402v420h136v-420h404v-135h-404v-418h-136v418h-402z" />
<glyph unicode="," horiz-adv-x="491" d="M62 -259q26 102 58 252t45 240h178l15 -22q-26 -98 -74 -228t-100 -242h-122z" />
<glyph unicode="-" horiz-adv-x="645" d="M82 464v148h482v-148h-482z" />
<glyph unicode="." horiz-adv-x="534" d="M149 104q0 66 30 99.5t86 33.5t88 -33.5t32 -99.5q0 -64 -32.5 -98t-87.5 -34q-50 0 -83 30.5t-33 101.5z" />
<glyph unicode="/" horiz-adv-x="736" d="M20 0l534 1433h162l-534 -1433h-162z" />
<glyph unicode="0" d="M100 718q0 375 116.5 556t355.5 181q234 0 355 -189t121 -548q0 -371 -117.5 -554.5t-358.5 -183.5q-231 0 -351.5 188t-120.5 550zM265 718q0 -312 73.5 -454.5t233.5 -142.5q163 0 236 144.5t73 452.5q0 309 -73 452.5t-236 143.5q-160 0 -233.5 -141.5t-73.5 -454.5z " />
<glyph unicode="1" d="M184 1140l380 293h137v-1433h-159v1021q0 128 8 241q-21 -20 -46.5 -42.5t-233.5 -191.5z" />
<glyph unicode="2" d="M98 0v140l377 379q173 175 228 249.5t82 145t27 151.5q0 115 -69.5 182t-192.5 67q-89 0 -169 -29.5t-178 -106.5l-86 111q198 164 431 164q202 0 316.5 -103t114.5 -278q0 -136 -76.5 -269.5t-286.5 -336.5l-313 -307v-8h737v-151h-942z" />
<glyph unicode="3" d="M92 58v155q93 -46 198.5 -70t199.5 -24q371 0 371 291q0 260 -409 260h-141v140h143q167 0 265 74t98 206q0 105 -72 164.5t-195 59.5q-94 0 -177.5 -25.5t-190.5 -93.5l-82 109q88 70 203 109.5t243 39.5q209 0 324.5 -95.5t115.5 -261.5q0 -138 -77 -225t-218 -116v-8 q172 -22 255.5 -110t83.5 -231q0 -205 -142 -315.5t-404 -110.5q-114 0 -208.5 17.5t-183.5 60.5z" />
<glyph unicode="4" d="M42 329v142l680 970h173v-964h212v-148h-212v-329h-156v329h-697zM205 477h534v477q0 140 10 316h-8q-47 -94 -88 -156z" />
<glyph unicode="5" d="M130 58v157q69 -44 171 -69t201 -25q172 0 267.5 81t95.5 235q0 300 -367 300q-93 0 -249 -28l-84 53l54 671h712v-150h-573l-37 -430q113 22 225 22q226 0 356 -112t130 -307q0 -223 -141.5 -349.5t-390.5 -126.5q-242 0 -370 78z" />
<glyph unicode="6" d="M115 612q0 423 164 632t485 209q111 0 175 -18v-140q-76 24 -173 24q-230 0 -351.5 -143.5t-133.5 -451.5h12q108 169 341 169q193 0 304.5 -116.5t111.5 -316.5q0 -224 -122 -352t-330 -128q-223 0 -353 167.5t-130 464.5zM281 496q0 -101 39.5 -188.5t111.5 -138 t164 -50.5q139 0 216 87.5t77 253.5q0 142 -71.5 223t-213.5 81q-89 0 -162.5 -36t-117 -100t-43.5 -132z" />
<glyph unicode="7" d="M92 1283v150h954v-131l-586 -1302h-181l594 1283h-781z" />
<glyph unicode="8" d="M102 366q0 246 300 383q-135 76 -194 165t-59 198q0 156 115 248.5t308 92.5q196 0 311 -91t115 -252q0 -106 -66 -193t-210 -158q175 -84 248.5 -175.5t73.5 -212.5q0 -178 -124.5 -284.5t-341.5 -106.5q-229 0 -352.5 100.5t-123.5 285.5zM263 362q0 -118 81.5 -183.5 t229.5 -65.5q146 0 227.5 68.5t81.5 187.5q0 96 -76.5 169.5t-266.5 143.5q-146 -63 -211.5 -139t-65.5 -181zM309 1105q0 -90 57.5 -154.5t213.5 -129.5q140 59 198.5 126.5t58.5 157.5q0 99 -71 157.5t-196 58.5q-122 0 -191.5 -59t-69.5 -157z" />
<glyph unicode="9" d="M104 971q0 224 125 353t329 129q146 0 255 -75t168 -218.5t59 -338.5q0 -841 -651 -841q-114 0 -180 20v140q78 -25 178 -25q235 0 355 145.5t131 446.5h-12q-53 -82 -142.5 -124.5t-201.5 -42.5q-190 0 -301.5 113.5t-111.5 317.5zM265 973q0 -141 70.5 -222t214.5 -81 q89 0 164 36.5t118 99t43 131.5q0 103 -40 190t-112 137t-165 50q-141 0 -217 -90t-76 -251z" />
<glyph unicode=":" horiz-adv-x="534" d="M149 104q0 66 30 99.5t86 33.5t88 -33.5t32 -99.5q0 -64 -32.5 -98t-87.5 -34q-50 0 -83 30.5t-33 101.5zM149 969q0 133 116 133q120 0 120 -133q0 -63 -32.5 -97.5t-87.5 -34.5q-50 0 -83 31t-33 101z" />
<glyph unicode=";" horiz-adv-x="534" d="M62 -259q26 102 58 252t45 240h178l15 -22q-26 -98 -74 -228t-100 -242h-122zM144 969q0 133 117 133q120 0 120 -133q0 -63 -32 -97.5t-88 -34.5q-57 0 -87 34.5t-30 97.5z" />
<glyph unicode="&#x3c;" d="M102 651v96l942 469v-146l-767 -363l767 -322v-148z" />
<glyph unicode="=" d="M117 440v134h911v-134h-911zM117 841v134h911v-134h-911z" />
<glyph unicode="&#x3e;" d="M102 237v148l767 320l-767 365v146l942 -469v-96z" />
<glyph unicode="?" horiz-adv-x="861" d="M26 1356q186 97 388 97q187 0 290.5 -92t103.5 -259q0 -72 -19 -126.5t-56 -103t-161 -156.5q-99 -84 -130.5 -140t-31.5 -149v-32h-127v53q0 115 35.5 188.5t131.5 156.5q133 113 168 169.5t35 137.5q0 100 -64.5 154t-184.5 54q-78 0 -151.5 -18t-168.5 -66zM235 104 q0 133 118 133q57 0 87.5 -34t30.5 -99q0 -63 -31 -97.5t-87 -34.5q-51 0 -84.5 30.5t-33.5 101.5z" />
<glyph unicode="@" horiz-adv-x="1804" d="M119 560q0 254 104.5 453t298.5 308.5t445 109.5q211 0 375 -89t254 -252t90 -376q0 -139 -43.5 -254.5t-121.5 -179t-180 -63.5q-85 0 -142.5 50.5t-68.5 130.5h-8q-39 -85 -112 -133t-173 -48q-147 0 -230 100t-83 273q0 200 116 325t304 125q66 0 150.5 -12.5 t152.5 -33.5l-25 -461v-21q0 -175 130 -175q90 0 145.5 105.5t55.5 273.5q0 178 -72.5 311t-206 205t-307.5 72q-218 0 -380 -90.5t-247 -258.5t-85 -389q0 -298 157.5 -459t454.5 -161q206 0 428 84v-130q-189 -82 -428 -82q-355 0 -551.5 195.5t-196.5 546.5zM672 586 q0 -249 191 -249q203 0 221 307l14 256q-71 19 -154 19q-128 0 -200 -88t-72 -245z" />
<glyph unicode="A" horiz-adv-x="1270" d="M0 0l566 1439h141l563 -1439h-172l-179 456h-574l-176 -456h-169zM404 606h463l-166 444q-33 84 -67 206q-22 -94 -62 -206z" />
<glyph unicode="B" horiz-adv-x="1300" d="M197 0v1433h405q285 0 412.5 -85.5t127.5 -269.5q0 -127 -71 -210t-208 -108v-9q327 -56 327 -343q0 -192 -130 -300t-363 -108h-500zM364 142h298q174 0 261.5 67t87.5 210q0 134 -89.5 196.5t-272.5 62.5h-285v-536zM364 819h274q176 0 253.5 55.5t77.5 186.5 q0 121 -86 174.5t-274 53.5h-245v-470z" />
<glyph unicode="C" horiz-adv-x="1266" d="M122 718q0 222 83 388.5t239.5 256.5t367.5 90q226 0 394 -82l-70 -143q-163 76 -326 76q-236 0 -372.5 -157t-136.5 -431q0 -281 131.5 -434.5t375.5 -153.5q150 0 343 54v-146q-149 -56 -368 -56q-317 0 -489 192.5t-172 545.5z" />
<glyph unicode="D" horiz-adv-x="1463" d="M197 0v1433h439q334 0 519.5 -185.5t185.5 -517.5q0 -355 -192.5 -542.5t-554.5 -187.5h-397zM364 144h202q298 0 448 146.5t150 433.5q0 280 -140.5 422.5t-417.5 142.5h-242v-1145z" />
<glyph unicode="E" horiz-adv-x="1116" d="M197 0v1433h799v-148h-632v-462h593v-147h-593v-527h632v-149h-799z" />
<glyph unicode="F" horiz-adv-x="1035" d="M197 0v1433h799v-148h-632v-525h593v-148h-593v-612h-167z" />
<glyph unicode="G" horiz-adv-x="1461" d="M122 716q0 224 90 392t258.5 256.5t394.5 88.5q230 0 428 -84l-65 -147q-194 82 -373 82q-262 0 -409 -155.5t-147 -432.5q0 -290 141.5 -440t416.5 -150q148 0 291 35v441h-321v149h487v-697q-114 -36 -231.5 -55t-272.5 -19q-325 0 -506.5 194t-181.5 542z" />
<glyph unicode="H" horiz-adv-x="1480" d="M197 0v1433h167v-610h754v610h167v-1433h-167v674h-754v-674h-167z" />
<glyph unicode="I" horiz-adv-x="559" d="M197 0v1433h167v-1433h-167z" />
<glyph unicode="J" horiz-adv-x="536" d="M-157 -209q70 -19 145 -19q97 0 147.5 58.5t50.5 169.5v1433h167v-1419q0 -186 -94 -288.5t-271 -102.5q-92 0 -145 26v142z" />
<glyph unicode="K" horiz-adv-x="1231" d="M197 0v1433h167v-711l649 711h197l-576 -623l598 -810h-196l-522 695l-150 -133v-562h-167z" />
<glyph unicode="L" horiz-adv-x="1041" d="M197 0v1433h167v-1282h632v-151h-799z" />
<glyph unicode="M" horiz-adv-x="1812" d="M197 0v1433h251l454 -1182h7l458 1182h249v-1433h-167v923q0 159 14 345h-8l-490 -1268h-134l-486 1270h-8q14 -151 14 -359v-911h-154z" />
<glyph unicode="N" horiz-adv-x="1513" d="M197 0v1433h188l781 -1198h8q-2 27 -9 171q-5 112 -5 173v32v822h156v-1433h-190l-783 1202h-8q16 -211 16 -388v-814h-154z" />
<glyph unicode="O" horiz-adv-x="1563" d="M122 720q0 350 172.5 542.5t490.5 192.5q309 0 482.5 -196t173.5 -541q0 -344 -174 -541t-484 -197q-317 0 -489 194t-172 546zM299 718q0 -291 124 -441.5t360 -150.5q238 0 359.5 150t121.5 442q0 289 -121 438.5t-358 149.5q-238 0 -362 -150.5t-124 -437.5z" />
<glyph unicode="P" horiz-adv-x="1208" d="M197 0v1433h371q537 0 537 -418q0 -217 -148.5 -334t-424.5 -117h-168v-564h-167zM364 707h150q221 0 320 71.5t99 228.5q0 143 -93 212.5t-290 69.5h-186v-582z" />
<glyph unicode="Q" horiz-adv-x="1563" d="M122 720q0 350 172.5 542.5t490.5 192.5q309 0 482.5 -196t173.5 -541q0 -275 -111 -457.5t-313 -246.5l341 -355h-242l-279 323l-54 -2q-317 0 -489 194t-172 546zM299 718q0 -291 124 -441.5t360 -150.5q238 0 359.5 150t121.5 442q0 289 -121 438.5t-358 149.5 q-238 0 -362 -150.5t-124 -437.5z" />
<glyph unicode="R" horiz-adv-x="1240" d="M197 0v1433h393q264 0 389.5 -101t125.5 -304q0 -284 -288 -384l389 -644h-197l-347 596h-298v-596h-167zM364 739h228q176 0 258.5 70t82.5 210q0 142 -84 205t-269 63h-216v-548z" />
<glyph unicode="S" horiz-adv-x="1101" d="M104 46v161q88 -37 192 -59t206 -22q166 0 250.5 63.5t84.5 176.5q0 74 -30 121.5t-100 87.5t-213 91q-200 72 -286 170t-86 256q0 165 124.5 263t329.5 98q214 0 393 -78l-52 -145q-177 74 -345 74q-132 0 -206.5 -56.5t-74.5 -157.5q0 -75 27.5 -122.5t92.5 -87 t200 -87.5q225 -81 309.5 -173t84.5 -239q0 -189 -137 -295t-372 -106q-255 0 -392 66z" />
<glyph unicode="T" horiz-adv-x="1110" d="M18 1285v148h1074v-148h-454v-1285h-167v1285h-453z" />
<glyph unicode="U" horiz-adv-x="1461" d="M182 510v923h167v-935q0 -180 98 -276t288 -96q181 0 279 96.5t98 277.5v933h167v-927q0 -245 -148 -385.5t-407 -140.5q-258 0 -400 141.5t-142 388.5z" />
<glyph unicode="V" horiz-adv-x="1194" d="M0 1433h176l330 -927q57 -160 90 -311q35 159 92 317l327 921h180l-517 -1433h-164z" />
<glyph unicode="W" horiz-adv-x="1858" d="M26 1433h177l226 -885q47 -186 69 -337q26 179 78 351l257 871h176l270 -879q47 -152 79 -343q19 139 71 339l225 883h177l-384 -1433h-164l-289 959q-21 64 -46.5 161t-26.5 117q-21 -130 -68 -283l-281 -954h-164z" />
<glyph unicode="X" horiz-adv-x="1158" d="M8 0l476 749l-444 684h184l356 -568l359 568h177l-444 -678l479 -755h-190l-385 630l-392 -630h-176z" />
<glyph unicode="Y" horiz-adv-x="1124" d="M0 1433h182l380 -717l382 717h180l-478 -877v-556h-169v548z" />
<glyph unicode="Z" horiz-adv-x="1145" d="M80 0v130l761 1153h-737v150h940v-131l-761 -1151h782v-151h-985z" />
<glyph unicode="[" horiz-adv-x="660" d="M163 -318v1751h448v-138h-284v-1473h284v-140h-448z" />
<glyph unicode="\" horiz-adv-x="736" d="M23 1433h159l536 -1433h-162z" />
<glyph unicode="]" horiz-adv-x="660" d="M50 -178h283v1473h-283v138h448v-1751h-448v140z" />
<glyph unicode="^" horiz-adv-x="1087" d="M48 540l425 904h97l468 -904h-149l-365 730l-327 -730h-149z" />
<glyph unicode="_" horiz-adv-x="899" d="M-4 -180h908v-129h-908v129z" />
<glyph unicode="`" horiz-adv-x="1158" d="M385 1517v21h199q31 -68 87 -156.5t99 -140.5v-25h-108q-63 51 -150.5 145t-126.5 156z" />
<glyph unicode="a" horiz-adv-x="1116" d="M92 297q0 325 520 341l183 6v66q0 127 -54.5 187t-174.5 60q-134 0 -303 -82l-50 125q79 43 173.5 67.5t189.5 24.5q192 0 285 -85.5t93 -273.5v-733h-121l-32 153h-8q-81 -101 -160.5 -137t-199.5 -36q-160 0 -250.5 82.5t-90.5 234.5zM263 295q0 -88 53 -134t150 -46 q151 0 238 83t87 233v97l-163 -7q-194 -7 -279.5 -60t-85.5 -166z" />
<glyph unicode="b" horiz-adv-x="1229" d="M172 0v1525h163v-371q0 -124 -8 -223h8q114 161 337 161q212 0 329 -144.5t117 -409.5t-118 -411.5t-328 -146.5q-105 0 -191.5 39t-145.5 119h-12l-34 -138h-117zM335 538q0 -226 75.5 -323.5t242.5 -97.5q150 0 223.5 109t73.5 314q0 210 -73.5 313t-227.5 103 q-167 0 -240.5 -96t-73.5 -322z" />
<glyph unicode="c" horiz-adv-x="955" d="M113 530q0 270 129.5 417t369.5 147q78 0 155.5 -17t121.5 -39l-50 -138q-54 21 -117.5 35.5t-112.5 14.5q-328 0 -328 -418q0 -198 80 -304t237 -106q134 0 275 58v-144q-108 -56 -271 -56q-234 0 -361.5 144t-127.5 406z" />
<glyph unicode="d" horiz-adv-x="1229" d="M113 534q0 266 117.5 413t327.5 147q218 0 335 -159h13l-7 77l-4 76v437h162v-1525h-132l-21 144h-9q-113 -164 -337 -164q-211 0 -328 144.5t-117 409.5zM281 532q0 -206 75.5 -310.5t221.5 -104.5q167 0 242 90.5t75 292.5v34q0 228 -76 325.5t-243 97.5 q-143 0 -219 -111t-76 -314z" />
<glyph unicode="e" horiz-adv-x="1126" d="M113 528q0 260 127.5 413t343.5 153q202 0 319.5 -133t117.5 -350v-103h-740q5 -190 95.5 -288t255.5 -98q174 0 343 73v-145q-86 -37 -163 -53.5t-186 -16.5q-238 0 -375.5 145t-137.5 403zM285 640h562q0 154 -68.5 235.5t-196.5 81.5q-129 0 -206 -84t-91 -233z" />
<glyph unicode="f" horiz-adv-x="680" d="M28 948v73l192 59v60q0 396 346 396q86 0 200 -35l-42 -130q-94 30 -160 30q-93 0 -137 -61t-44 -196v-70h274v-126h-274v-948h-163v948h-192z" />
<glyph unicode="g" horiz-adv-x="1099" d="M38 -182q0 98 63 169.5t176 96.5q-41 19 -69 58t-28 91q0 59 31.5 103t99.5 85q-84 35 -136.5 117t-52.5 188q0 177 106 272.5t300 95.5q84 0 152 -20h372v-103l-199 -23q27 -35 48.5 -90t21.5 -125q0 -158 -107.5 -252t-296.5 -94q-48 0 -90 8q-104 -55 -104 -138 q0 -44 36.5 -65t124.5 -21h190q175 0 268.5 -73.5t93.5 -214.5q0 -178 -143 -271.5t-418 -93.5q-210 0 -324.5 78.5t-114.5 221.5zM195 -180q0 -88 73.5 -133t210.5 -45q205 0 303.5 61.5t98.5 166.5q0 87 -54 120.5t-203 33.5h-195q-111 0 -172.5 -52.5t-61.5 -151.5z M283 730q0 -113 64 -170.5t177 -57.5q238 0 238 231q0 242 -241 242q-114 0 -176 -61.5t-62 -183.5z" />
<glyph unicode="h" horiz-adv-x="1231" d="M172 0v1525h163v-462q0 -83 -8 -138h10q48 78 137 122.5t202 44.5q197 0 295.5 -93.5t98.5 -297.5v-701h-163v695q0 131 -59.5 196t-186.5 65q-170 0 -248 -92.5t-78 -301.5v-562h-163z" />
<glyph unicode="i" horiz-adv-x="507" d="M159 1365q0 56 27.5 82t68.5 26q39 0 67.5 -26.5t28.5 -81.5t-28.5 -82t-67.5 -27q-41 0 -68.5 27t-27.5 82zM172 0v1074h163v-1074h-163z" />
<glyph unicode="j" horiz-adv-x="507" d="M-109 -325q68 -20 133 -20q77 0 112.5 41.5t35.5 127.5v1250h163v-1239q0 -317 -293 -317q-93 0 -151 24v133zM159 1365q0 56 27.5 82t68.5 26q39 0 67.5 -26.5t28.5 -81.5t-28.5 -82t-67.5 -27q-41 0 -68.5 27t-27.5 82z" />
<glyph unicode="k" horiz-adv-x="1053" d="M172 0v1525h161v-809q0 -54 -8 -166h8q42 60 129 157l346 367h194l-436 -458l466 -616h-197l-379 508l-123 -106v-402h-161z" />
<glyph unicode="l" horiz-adv-x="507" d="M172 0v1525h163v-1525h-163z" />
<glyph unicode="m" horiz-adv-x="1866" d="M172 0v1074h133l26 -147h8q46 78 130 122.5t188 44.5q251 0 329 -183h8q48 85 139 134t208 49q182 0 272.5 -94t90.5 -299v-701h-162v699q0 128 -55 192.5t-171 64.5q-152 0 -224.5 -87.5t-72.5 -268.5v-600h-162v699q0 128 -55 192.5t-172 64.5q-153 0 -224 -92 t-71 -300v-564h-163z" />
<glyph unicode="n" horiz-adv-x="1231" d="M172 0v1074h133l26 -147h8q50 79 140 123t201 44q194 0 292 -94t98 -299v-701h-163v695q0 131 -59.5 196t-186.5 65q-169 0 -247.5 -91.5t-78.5 -300.5v-564h-163z" />
<glyph unicode="o" horiz-adv-x="1212" d="M113 538q0 263 131 409.5t365 146.5q225 0 358 -150t133 -406q0 -263 -132.5 -410.5t-365.5 -147.5q-144 0 -256 68t-172.5 194t-60.5 296zM281 538q0 -206 82.5 -313.5t242.5 -107.5q159 0 242 107t83 314q0 205 -83 311.5t-244 106.5q-160 0 -241.5 -105t-81.5 -313z " />
<glyph unicode="p" horiz-adv-x="1229" d="M172 -482v1556h133l22 -147h8q63 88 146 127.5t191 39.5q214 0 330 -146t116 -410q0 -265 -118 -411.5t-328 -146.5q-105 0 -191.5 39t-145.5 119h-12q12 -94 12 -178v-442h-163zM335 538q0 -226 75.5 -323.5t242.5 -97.5q139 0 218 112.5t79 310.5q0 201 -79 308.5 t-222 107.5q-165 0 -238.5 -91.5t-75.5 -290.5v-36z" />
<glyph unicode="q" horiz-adv-x="1229" d="M113 534q0 264 117.5 412t327.5 148q220 0 339 -167h9l23 147h128v-1556h-162v459q0 98 11 167h-13q-113 -164 -339 -164q-208 0 -324.5 146t-116.5 408zM281 532q0 -203 75 -309t222 -106q163 0 237.5 87t79.5 294v36q0 226 -76.5 324.5t-242.5 98.5q-143 0 -219 -111 t-76 -314z" />
<glyph unicode="r" horiz-adv-x="819" d="M172 0v1074h135l18 -199h8q60 105 144.5 162t184.5 57q72 0 129 -12l-23 -151q-66 15 -117 15q-131 0 -223.5 -106t-92.5 -264v-576h-163z" />
<glyph unicode="s" horiz-adv-x="957" d="M104 810q0 132 107 208t293 76q173 0 339 -71l-58 -132q-162 66 -293 66q-116 0 -174.5 -36t-58.5 -100q0 -43 22 -73.5t71 -58t188 -78.5q191 -70 258 -140.5t67 -177.5q0 -150 -111.5 -231.5t-313.5 -81.5q-214 0 -333 68v151q77 -39 166 -61.5t171 -22.5 q127 0 196 40.5t69 123.5q0 63 -54.5 107.5t-212.5 105.5q-150 56 -213 97.5t-94 94.5t-31 126z" />
<glyph unicode="t" horiz-adv-x="708" d="M30 948v78l154 68l69 229h94v-249h312v-126h-312v-632q0 -97 46 -149t126 -52q44 0 84 6t63 13v-124q-26 -13 -77.5 -21.5t-92.5 -8.5q-312 0 -312 329v639h-154z" />
<glyph unicode="u" horiz-adv-x="1231" d="M161 371v703h164v-697q0 -131 60 -195.5t187 -64.5q169 0 247 92t78 301v564h162v-1074h-134l-23 144h-9q-50 -79 -139 -121.5t-202 -42.5q-196 0 -293.5 93.5t-97.5 297.5z" />
<glyph unicode="v" horiz-adv-x="1005" d="M0 1074h174l232 -637q78 -223 92 -290h8q10 52 67.5 215t257.5 712h174l-407 -1074h-190z" />
<glyph unicode="w" horiz-adv-x="1561" d="M23 1074h170q104 -405 158.5 -616.5t62.5 -285.5h7q11 56 35 145t42 141l197 616h176l192 -616q55 -169 75 -284h8q4 36 21 109.5t204 790.5h169l-297 -1074h-193l-197 630q-19 58 -70 263h-8q-39 -172 -68 -265l-203 -628h-188z" />
<glyph unicode="x" horiz-adv-x="1051" d="M38 0l393 550l-373 524h185l283 -412l282 412h184l-374 -524l393 -550h-184l-301 435l-304 -435h-184z" />
<glyph unicode="y" horiz-adv-x="1011" d="M2 1074h174l236 -612q77 -210 96 -303h7q13 50 54 171t266 744h174l-461 -1223q-69 -181 -160.5 -257t-224.5 -76q-75 0 -147 16v131q54 -12 120 -12q168 0 239 188l60 153z" />
<glyph unicode="z" horiz-adv-x="938" d="M80 0v111l586 837h-549v126h728v-126l-578 -822h592v-126h-779z" />
<glyph unicode="{" horiz-adv-x="760" d="M60 488v138q127 2 184 47t57 139v300q0 152 106 236.5t284 84.5v-136q-225 -6 -225 -195v-290q0 -210 -219 -248v-12q219 -38 219 -249v-291q0 -100 57 -145t168 -47v-138q-186 2 -288 85.5t-102 234.5v297q0 102 -62 145.5t-179 43.5z" />
<glyph unicode="|" horiz-adv-x="1105" d="M484 -486v2011h138v-2011h-138z" />
<glyph unicode="}" horiz-adv-x="760" d="M71 -180q108 2 165 47t57 145v291q0 112 54 170.5t165 78.5v12q-219 38 -219 248v290q0 189 -222 195v136q180 0 283.5 -85.5t103.5 -235.5v-300q0 -95 57.5 -139.5t185.5 -46.5v-138q-120 0 -181.5 -43.5t-61.5 -145.5v-297q0 -150 -100.5 -234t-286.5 -86v138z" />
<glyph unicode="~" d="M102 580v148q98 107 239 107q67 0 122 -13.5t143 -51.5q64 -27 112 -40.5t94 -13.5q53 0 116 31.5t116 87.5v-147q-100 -108 -239 -108q-71 0 -132.5 16t-132.5 48q-74 31 -118 43t-91 12q-52 0 -114 -33t-115 -86z" />
<glyph unicode="&#xa1;" horiz-adv-x="536" d="M149 963q0 62 31 97.5t87 35.5q50 0 84 -31.5t34 -101.5q0 -132 -118 -132q-59 0 -88.5 35t-29.5 97zM165 -366l50 1036h103l50 -1036h-203z" />
<glyph unicode="&#xa2;" d="M186 726q0 498 388 559v168h133v-160q73 -3 142.5 -19.5t117.5 -38.5l-48 -137q-130 50 -237 50q-168 0 -247.5 -103.5t-79.5 -316.5q0 -208 78 -307.5t241 -99.5q138 0 278 58v-144q-103 -53 -247 -59v-196h-131v202q-199 32 -293.5 165.5t-94.5 378.5z" />
<glyph unicode="&#xa3;" d="M62 0v138q201 46 201 285v219h-194v124h194v310q0 174 109.5 274.5t295.5 100.5q187 0 353 -82l-60 -130q-151 75 -291 75q-120 0 -181.5 -60.5t-61.5 -198.5v-289h414v-124h-414v-217q0 -98 -31.5 -164.5t-104.5 -109.5h779v-151h-1008z" />
<glyph unicode="&#xa4;" d="M121 1070l92 90l132 -130q102 72 229 72q125 0 225 -72l134 130l93 -90l-131 -135q72 -111 72 -226q0 -129 -72 -230l128 -132l-90 -90l-134 130q-100 -69 -225 -69q-131 0 -229 71l-132 -130l-91 90l131 133q-73 105 -73 227q0 119 73 224zM307 709q0 -110 77 -188.5 t190 -78.5q114 0 191.5 78t77.5 189t-78.5 190.5t-190.5 79.5q-113 0 -190 -80.5t-77 -189.5z" />
<glyph unicode="&#xa5;" d="M30 1433h175l367 -713l372 713h170l-407 -755h256v-124h-310v-167h310v-124h-310v-263h-161v263h-310v124h310v167h-310v124h251z" />
<glyph unicode="&#xa6;" horiz-adv-x="1105" d="M484 275h138v-761h-138v761zM484 764v761h138v-761h-138z" />
<glyph unicode="&#xa7;" horiz-adv-x="1035" d="M121 56v145q76 -36 171 -58t175 -22q132 0 201 37t69 107q0 45 -23.5 73.5t-76.5 56.5t-166 71q-139 50 -204.5 94.5t-98 100t-32.5 132.5q0 84 42 151t119 104q-73 39 -114 93.5t-41 137.5q0 118 101.5 186.5t294.5 68.5q92 0 170 -14.5t173 -52.5l-52 -128 q-96 38 -162 51t-141 13q-113 0 -170 -28.5t-57 -91.5q0 -59 60 -100t211 -95q183 -67 256.5 -141t73.5 -179q0 -88 -40.5 -157t-112.5 -109q150 -80 150 -223q0 -137 -115 -212t-322 -75q-214 0 -339 64zM279 812q0 -75 65 -126.5t228 -111.5l48 -18q135 78 135 187 q0 81 -72 136t-254 111q-66 -19 -108 -68t-42 -110z" />
<glyph unicode="&#xa8;" horiz-adv-x="1158" d="M303 1365q0 51 26 73.5t62 22.5q37 0 64 -22.5t27 -73.5q0 -49 -27 -73t-64 -24q-36 0 -62 24t-26 73zM676 1365q0 51 26 73.5t62 22.5q37 0 64 -22.5t27 -73.5q0 -49 -27 -73t-64 -24q-36 0 -62 24t-26 73z" />
<glyph unicode="&#xa9;" horiz-adv-x="1669" d="M98 716q0 196 98 367.5t269.5 270.5t369.5 99q196 0 367.5 -98t270.5 -269.5t99 -369.5q0 -193 -95 -362.5t-266.5 -271.5t-375.5 -102q-203 0 -374.5 101.5t-267 271t-95.5 363.5zM201 716q0 -169 85 -316.5t232.5 -232.5t316.5 -85q170 0 316.5 85.5t232 231 t85.5 317.5q0 171 -85.5 317t-231 231.5t-317.5 85.5q-171 0 -317 -85t-231.5 -230.5t-85.5 -318.5zM471 716q0 205 108.5 325.5t295.5 120.5q126 0 241 -59l-57 -115q-105 50 -184 50q-122 0 -188.5 -85.5t-66.5 -236.5q0 -164 62.5 -243.5t190.5 -79.5q84 0 207 44v-121 q-47 -20 -96.5 -33.5t-118.5 -13.5q-190 0 -292 118t-102 329z" />
<glyph unicode="&#xaa;" horiz-adv-x="710" d="M69 969q0 100 75.5 151.5t236.5 57.5l115 4v38q0 130 -145 130q-98 0 -200 -50l-42 95q111 54 242 54q127 0 194 -51t67 -170v-443h-91l-23 82q-90 -95 -228 -95q-93 0 -147 48.5t-54 148.5zM189 969q0 -98 110 -98q197 0 197 177v48l-96 -4q-110 -4 -160.5 -32 t-50.5 -91z" />
<glyph unicode="&#xab;" horiz-adv-x="997" d="M80 514v26l336 399l116 -68l-283 -343l283 -344l-116 -69zM467 514v26l338 399l114 -68l-281 -343l281 -344l-114 -69z" />
<glyph unicode="&#xac;" d="M102 640v135h942v-516h-135v381h-807z" />
<glyph unicode="&#xad;" horiz-adv-x="645" d="M82 464v148h482v-148h-482z" />
<glyph unicode="&#xae;" horiz-adv-x="1669" d="M98 716q0 196 98 367.5t269.5 270.5t369.5 99q196 0 367.5 -98t270.5 -269.5t99 -369.5q0 -193 -95 -362.5t-266.5 -271.5t-375.5 -102q-203 0 -374.5 101.5t-267 271t-95.5 363.5zM201 716q0 -169 85 -316.5t232.5 -232.5t316.5 -85q170 0 316.5 85.5t232 231 t85.5 317.5q0 171 -85.5 317t-231 231.5t-317.5 85.5q-171 0 -317 -85t-231.5 -230.5t-85.5 -318.5zM564 279v873h255q163 0 239 -63.5t76 -193.5q0 -79 -41.5 -139t-117.5 -90l233 -387h-164l-203 347h-132v-347h-145zM709 747h105q79 0 126.5 40.5t47.5 103.5 q0 73 -42 105t-134 32h-103v-281z" />
<glyph unicode="&#xaf;" horiz-adv-x="1003" d="M-6 1525v124h1015v-124h-1015z" />
<glyph unicode="&#xb0;" horiz-adv-x="859" d="M124 1148q0 127 89 216t216 89q128 0 217 -88.5t89 -216.5q0 -83 -40 -153t-111.5 -111t-154.5 -41q-127 0 -216 88t-89 217zM237 1148q0 -81 57.5 -136.5t136.5 -55.5t135 55t56 137t-55 137.5t-136 55.5t-137.5 -56t-56.5 -137z" />
<glyph unicode="&#xb1;" d="M102 1v135h942v-135h-942zM102 640v135h402v420h136v-420h404v-135h-404v-418h-136v418h-402z" />
<glyph unicode="&#xb2;" horiz-adv-x="696" d="M48 574v102l231 226q88 84 128 131.5t56 84.5t16 90q0 67 -39 101t-101 34q-51 0 -99 -19t-116 -68l-64 87q128 108 277 108q129 0 201.5 -63.5t72.5 -173.5q0 -78 -44 -152t-188 -209l-170 -162h431v-117h-592z" />
<glyph unicode="&#xb3;" horiz-adv-x="696" d="M32 612v121q144 -67 265 -67q207 0 207 159q0 142 -227 142h-114v105h116q101 0 149.5 39t48.5 105q0 60 -39 93.5t-105 33.5q-64 0 -119 -21.5t-110 -55.5l-68 88q62 44 130.5 70.5t160.5 26.5q134 0 210.5 -58t76.5 -163q0 -78 -40 -128.5t-107 -73.5q173 -46 173 -205 q0 -125 -90 -195t-255 -70q-149 0 -263 54z" />
<glyph unicode="&#xb4;" horiz-adv-x="1158" d="M385 1216v25q47 60 101.5 146.5t85.5 150.5h198v-21q-43 -64 -128 -157t-148 -144h-109z" />
<glyph unicode="&#xb5;" horiz-adv-x="1242" d="M172 -482v1556h163v-701q0 -256 249 -256q168 0 245.5 92.5t77.5 300.5v564h163v-1074h-133l-26 144h-9q-109 -164 -334 -164q-147 0 -233 91h-10q10 -83 10 -240v-313h-163z" />
<glyph unicode="&#xb6;" horiz-adv-x="1314" d="M111 1021q0 255 106.5 379.5t334.5 124.5h546v-1780h-112v1678h-209v-1678h-113v803q-60 -18 -143 -18q-211 0 -310.5 122.5t-99.5 368.5z" />
<glyph unicode="&#xb7;" horiz-adv-x="534" d="M149 709q0 64 30.5 98t85.5 34q56 0 88 -34t32 -98t-32.5 -98.5t-87.5 -34.5q-50 0 -83 31t-33 102z" />
<glyph unicode="&#xb8;" horiz-adv-x="455" d="M36 -369q44 -8 102 -8q78 0 117.5 19.5t39.5 72.5q0 42 -38.5 68t-145.5 43l86 174h108l-54 -113q176 -38 176 -170q0 -95 -75 -147t-222 -52q-50 0 -94 9v104z" />
<glyph unicode="&#xb9;" horiz-adv-x="696" d="M74 1254l257 179h140v-859h-130v568q0 89 6 177q-22 -21 -48.5 -43.5t-158.5 -115.5z" />
<glyph unicode="&#xba;" horiz-adv-x="752" d="M65 1112q0 160 82 248.5t230 88.5q149 0 230 -89t81 -248q0 -160 -84 -250t-231 -90q-143 0 -225.5 91.5t-82.5 248.5zM184 1112q0 -119 44.5 -179t146.5 -60q103 0 148 60t45 179q0 121 -45 178.5t-148 57.5q-101 0 -146 -57.5t-45 -178.5z" />
<glyph unicode="&#xbb;" horiz-adv-x="997" d="M78 184l282 344l-282 343l115 68l337 -399v-26l-337 -399zM466 184l281 344l-281 343l114 68l337 -399v-26l-337 -399z" />
<glyph unicode="&#xbc;" horiz-adv-x="1565" d="M73 1254l257 179h140v-859h-130v568q0 89 6 177q-22 -21 -48.5 -43.5t-158.5 -115.5zM247 0l885 1433h140l-885 -1433h-140zM801 199v99l399 568h137v-552h122v-115h-122v-198h-142v198h-394zM938 314h257v191q0 131 5 205q-4 -12 -16 -31t-26.5 -41t-29.5 -44t-26 -39z " />
<glyph unicode="&#xbd;" horiz-adv-x="1565" d="M45 1254l257 179h140v-859h-130v568q0 89 6 177q-22 -21 -48.5 -43.5t-158.5 -115.5zM181 0l885 1433h140l-885 -1433h-140zM877 1v102l231 226q88 84 128 131.5t56 84.5t16 90q0 67 -39 101t-101 34q-51 0 -99 -19t-116 -68l-64 87q128 108 277 108q129 0 201.5 -63.5 t72.5 -173.5q0 -78 -44 -152t-188 -209l-170 -162h431v-117h-592z" />
<glyph unicode="&#xbe;" horiz-adv-x="1565" d="M25 612v121q144 -67 265 -67q207 0 207 159q0 142 -227 142h-114v105h116q101 0 149.5 39t48.5 105q0 60 -39 93.5t-105 33.5q-64 0 -119 -21.5t-110 -55.5l-68 88q62 44 130.5 70.5t160.5 26.5q134 0 210.5 -58t76.5 -163q0 -78 -40 -128.5t-107 -73.5q173 -46 173 -205 q0 -125 -90 -195t-255 -70q-149 0 -263 54zM337 0l885 1433h140l-885 -1433h-140zM879 199v99l399 568h137v-552h122v-115h-122v-198h-142v198h-394zM1016 314h257v191q0 131 5 205q-4 -12 -16 -31t-26.5 -41t-29.5 -44t-26 -39z" />
<glyph unicode="&#xbf;" horiz-adv-x="861" d="M50 -36q0 68 17 119.5t48.5 95t75 84t96.5 86.5q99 86 131 143t32 148v30h128v-50q0 -119 -36.5 -191.5t-131.5 -155.5q-119 -103 -149 -140t-42 -74.5t-12 -92.5q0 -98 64.5 -153.5t184.5 -55.5q78 0 151.5 18.5t169.5 65.5l58 -132q-193 -94 -387 -94q-186 0 -292 91 t-106 258zM389 963q0 63 32.5 98t86.5 35q50 0 84 -31.5t34 -101.5q0 -132 -118 -132q-58 0 -88.5 34t-30.5 98z" />
<glyph unicode="&#xc0;" horiz-adv-x="1270" d="M0 0l566 1439h141l563 -1439h-172l-179 456h-574l-176 -456h-169zM324 1848v21h199q31 -68 87 -156.5t99 -140.5v-25h-108q-63 51 -150.5 145t-126.5 156zM404 606h463l-166 444q-33 84 -67 206q-22 -94 -62 -206z" />
<glyph unicode="&#xc1;" horiz-adv-x="1270" d="M0 0l566 1439h141l563 -1439h-172l-179 456h-574l-176 -456h-169zM404 606h463l-166 444q-33 84 -67 206q-22 -94 -62 -206zM515 1547v25q47 60 101.5 146.5t85.5 150.5h198v-21q-43 -64 -128 -157t-148 -144h-109z" />
<glyph unicode="&#xc2;" horiz-adv-x="1270" d="M0 0l566 1439h141l563 -1439h-172l-179 456h-574l-176 -456h-169zM297 1547v23q124 133 174 195.5t73 103.5h162q22 -42 75.5 -107t175.5 -192v-23h-116q-87 54 -217 182q-133 -131 -215 -182h-112zM404 606h463l-166 444q-33 84 -67 206q-22 -94 -62 -206z" />
<glyph unicode="&#xc3;" horiz-adv-x="1270" d="M0 0l566 1439h141l563 -1439h-172l-179 456h-574l-176 -456h-169zM263 1547q12 119 68.5 186t145.5 67q45 0 87.5 -18t80.5 -40t73.5 -40.5t66.5 -18.5q48 0 71.5 29t38.5 90h97q-13 -119 -68.5 -186t-147.5 -67q-42 0 -82 18t-79 40t-74.5 40.5t-69.5 18.5 q-49 0 -74 -29.5t-38 -89.5h-96zM404 606h463l-166 444q-33 84 -67 206q-22 -94 -62 -206z" />
<glyph unicode="&#xc4;" horiz-adv-x="1270" d="M0 0l566 1439h141l563 -1439h-172l-179 456h-574l-176 -456h-169zM357 1696q0 51 26 73.5t62 22.5q37 0 64 -22.5t27 -73.5q0 -49 -27 -73t-64 -24q-36 0 -62 24t-26 73zM404 606h463l-166 444q-33 84 -67 206q-22 -94 -62 -206zM730 1696q0 51 26 73.5t62 22.5 q37 0 64 -22.5t27 -73.5q0 -49 -27 -73t-64 -24q-36 0 -62 24t-26 73z" />
<glyph unicode="&#xc5;" horiz-adv-x="1270" d="M0 0l566 1439h141l563 -1439h-172l-179 456h-574l-176 -456h-169zM404 606h463l-166 444q-33 84 -67 206q-22 -94 -62 -206zM416 1553q0 96 59 152.5t157 56.5q99 0 160 -58.5t61 -148.5q0 -96 -60.5 -154.5t-160.5 -58.5q-99 0 -157.5 57.5t-58.5 153.5zM518 1553 q0 -55 29 -85t85 -30q51 0 83 30t32 85t-32.5 85t-82.5 30t-82 -30t-32 -85z" />
<glyph unicode="&#xc6;" horiz-adv-x="1752" d="M-2 0l684 1433h950v-148h-569v-462h530v-147h-530v-527h569v-149h-735v456h-504l-222 -456h-173zM460 606h437v679h-116z" />
<glyph unicode="&#xc7;" horiz-adv-x="1266" d="M122 718q0 222 83 388.5t239.5 256.5t367.5 90q226 0 394 -82l-70 -143q-163 76 -326 76q-236 0 -372.5 -157t-136.5 -431q0 -281 131.5 -434.5t375.5 -153.5q150 0 343 54v-146q-149 -56 -368 -56q-317 0 -489 192.5t-172 545.5zM540 -369q44 -8 102 -8q78 0 117.5 19.5 t39.5 72.5q0 42 -38.5 68t-145.5 43l86 174h108l-54 -113q176 -38 176 -170q0 -95 -75 -147t-222 -52q-50 0 -94 9v104z" />
<glyph unicode="&#xc8;" horiz-adv-x="1116" d="M197 0v1433h799v-148h-632v-462h593v-147h-593v-527h632v-149h-799zM313 1848v21h199q31 -68 87 -156.5t99 -140.5v-25h-108q-63 51 -150.5 145t-126.5 156z" />
<glyph unicode="&#xc9;" horiz-adv-x="1116" d="M197 0v1433h799v-148h-632v-462h593v-147h-593v-527h632v-149h-799zM447 1547v25q47 60 101.5 146.5t85.5 150.5h198v-21q-43 -64 -128 -157t-148 -144h-109z" />
<glyph unicode="&#xca;" horiz-adv-x="1116" d="M197 0v1433h799v-148h-632v-462h593v-147h-593v-527h632v-149h-799zM258 1547v23q124 133 174 195.5t73 103.5h162q22 -42 75.5 -107t175.5 -192v-23h-116q-87 54 -217 182q-133 -131 -215 -182h-112z" />
<glyph unicode="&#xcb;" horiz-adv-x="1116" d="M197 0v1433h799v-148h-632v-462h593v-147h-593v-527h632v-149h-799zM321 1696q0 51 26 73.5t62 22.5q37 0 64 -22.5t27 -73.5q0 -49 -27 -73t-64 -24q-36 0 -62 24t-26 73zM694 1696q0 51 26 73.5t62 22.5q37 0 64 -22.5t27 -73.5q0 -49 -27 -73t-64 -24q-36 0 -62 24 t-26 73z" />
<glyph unicode="&#xcc;" horiz-adv-x="559" d="M5 1848v21h199q31 -68 87 -156.5t99 -140.5v-25h-108q-63 51 -150.5 145t-126.5 156zM197 0v1433h167v-1433h-167z" />
<glyph unicode="&#xcd;" horiz-adv-x="559" d="M175 1547v25q47 60 101.5 146.5t85.5 150.5h198v-21q-43 -64 -128 -157t-148 -144h-109zM197 0v1433h167v-1433h-167z" />
<glyph unicode="&#xce;" horiz-adv-x="559" d="M-55 1547v23q124 133 174 195.5t73 103.5h162q22 -42 75.5 -107t175.5 -192v-23h-116q-87 54 -217 182q-133 -131 -215 -182h-112zM197 0v1433h167v-1433h-167z" />
<glyph unicode="&#xcf;" horiz-adv-x="559" d="M5 1696q0 51 26 73.5t62 22.5q37 0 64 -22.5t27 -73.5q0 -49 -27 -73t-64 -24q-36 0 -62 24t-26 73zM197 0v1433h167v-1433h-167zM378 1696q0 51 26 73.5t62 22.5q37 0 64 -22.5t27 -73.5q0 -49 -27 -73t-64 -24q-36 0 -62 24t-26 73z" />
<glyph unicode="&#xd0;" horiz-adv-x="1449" d="M46 636v147h151v650h425q331 0 517 -184t186 -519q0 -355 -192.5 -542.5t-554.5 -187.5h-381v636h-151zM364 144h186q598 0 598 580q0 565 -558 565h-226v-506h371v-147h-371v-492z" />
<glyph unicode="&#xd1;" horiz-adv-x="1513" d="M197 0v1433h188l781 -1198h8q-2 27 -9 170.5t-5 205.5v822h156v-1433h-190l-783 1202h-8q16 -211 16 -388v-814h-154zM403 1547q12 119 68.5 186t145.5 67q45 0 87.5 -18t80.5 -40t73.5 -40.5t66.5 -18.5q48 0 71.5 29t38.5 90h97q-13 -119 -68.5 -186t-147.5 -67 q-42 0 -82 18t-79 40t-74.5 40.5t-69.5 18.5q-49 0 -74 -29.5t-38 -89.5h-96z" />
<glyph unicode="&#xd2;" horiz-adv-x="1563" d="M122 720q0 350 172.5 542.5t490.5 192.5q309 0 482.5 -196t173.5 -541q0 -344 -174 -541t-484 -197q-317 0 -489 194t-172 546zM299 718q0 -291 124 -441.5t360 -150.5q238 0 359.5 150t121.5 442q0 289 -121 438.5t-358 149.5q-238 0 -362 -150.5t-124 -437.5zM504 1848 v21h199q31 -68 87 -156.5t99 -140.5v-25h-108q-63 51 -150.5 145t-126.5 156z" />
<glyph unicode="&#xd3;" horiz-adv-x="1563" d="M122 720q0 350 172.5 542.5t490.5 192.5q309 0 482.5 -196t173.5 -541q0 -344 -174 -541t-484 -197q-317 0 -489 194t-172 546zM299 718q0 -291 124 -441.5t360 -150.5q238 0 359.5 150t121.5 442q0 289 -121 438.5t-358 149.5q-238 0 -362 -150.5t-124 -437.5zM646 1547 v25q47 60 101.5 146.5t85.5 150.5h198v-21q-43 -64 -128 -157t-148 -144h-109z" />
<glyph unicode="&#xd4;" horiz-adv-x="1563" d="M122 720q0 350 172.5 542.5t490.5 192.5q309 0 482.5 -196t173.5 -541q0 -344 -174 -541t-484 -197q-317 0 -489 194t-172 546zM299 718q0 -291 124 -441.5t360 -150.5q238 0 359.5 150t121.5 442q0 289 -121 438.5t-358 149.5q-238 0 -362 -150.5t-124 -437.5zM439 1547 v23q124 133 174 195.5t73 103.5h162q22 -42 75.5 -107t175.5 -192v-23h-116q-87 54 -217 182q-133 -131 -215 -182h-112z" />
<glyph unicode="&#xd5;" horiz-adv-x="1563" d="M122 720q0 350 172.5 542.5t490.5 192.5q309 0 482.5 -196t173.5 -541q0 -344 -174 -541t-484 -197q-317 0 -489 194t-172 546zM299 718q0 -291 124 -441.5t360 -150.5q238 0 359.5 150t121.5 442q0 289 -121 438.5t-358 149.5q-238 0 -362 -150.5t-124 -437.5zM410 1547 q12 119 68.5 186t145.5 67q45 0 87.5 -18t80.5 -40t73.5 -40.5t66.5 -18.5q48 0 71.5 29t38.5 90h97q-13 -119 -68.5 -186t-147.5 -67q-42 0 -82 18t-79 40t-74.5 40.5t-69.5 18.5q-49 0 -74 -29.5t-38 -89.5h-96z" />
<glyph unicode="&#xd6;" horiz-adv-x="1563" d="M122 720q0 350 172.5 542.5t490.5 192.5q309 0 482.5 -196t173.5 -541q0 -344 -174 -541t-484 -197q-317 0 -489 194t-172 546zM299 718q0 -291 124 -441.5t360 -150.5q238 0 359.5 150t121.5 442q0 289 -121 438.5t-358 149.5q-238 0 -362 -150.5t-124 -437.5zM512 1696 q0 51 26 73.5t62 22.5q37 0 64 -22.5t27 -73.5q0 -49 -27 -73t-64 -24q-36 0 -62 24t-26 73zM885 1696q0 51 26 73.5t62 22.5q37 0 64 -22.5t27 -73.5q0 -49 -27 -73t-64 -24q-36 0 -62 24t-26 73z" />
<glyph unicode="&#xd7;" d="M130 1054l98 98l346 -347l347 347l94 -97l-345 -346l343 -345l-94 -97l-347 344l-341 -344l-99 97l343 345z" />
<glyph unicode="&#xd8;" horiz-adv-x="1563" d="M122 720q0 350 172.5 542.5t490.5 192.5q205 0 359 -92l95 132l117 -78l-104 -145q189 -198 189 -554q0 -344 -174 -541t-484 -197q-230 0 -375 98l-99 -138l-118 78l106 151q-175 194 -175 551zM299 718q0 -256 99 -407l656 924q-104 71 -269 71q-238 0 -362 -150.5 t-124 -437.5zM498 207q113 -81 285 -81q238 0 359.5 150t121.5 442q0 267 -108 418z" />
<glyph unicode="&#xd9;" horiz-adv-x="1461" d="M182 510v923h167v-935q0 -180 98 -276t288 -96q181 0 279 96.5t98 277.5v933h167v-927q0 -245 -148 -385.5t-407 -140.5q-258 0 -400 141.5t-142 388.5zM454 1848v21h199q31 -68 87 -156.5t99 -140.5v-25h-108q-63 51 -150.5 145t-126.5 156z" />
<glyph unicode="&#xda;" horiz-adv-x="1461" d="M182 510v923h167v-935q0 -180 98 -276t288 -96q181 0 279 96.5t98 277.5v933h167v-927q0 -245 -148 -385.5t-407 -140.5q-258 0 -400 141.5t-142 388.5zM588 1547v25q47 60 101.5 146.5t85.5 150.5h198v-21q-43 -64 -128 -157t-148 -144h-109z" />
<glyph unicode="&#xdb;" horiz-adv-x="1461" d="M182 510v923h167v-935q0 -180 98 -276t288 -96q181 0 279 96.5t98 277.5v933h167v-927q0 -245 -148 -385.5t-407 -140.5q-258 0 -400 141.5t-142 388.5zM385 1547v23q124 133 174 195.5t73 103.5h162q22 -42 75.5 -107t175.5 -192v-23h-116q-87 54 -217 182 q-133 -131 -215 -182h-112z" />
<glyph unicode="&#xdc;" horiz-adv-x="1461" d="M182 510v923h167v-935q0 -180 98 -276t288 -96q181 0 279 96.5t98 277.5v933h167v-927q0 -245 -148 -385.5t-407 -140.5q-258 0 -400 141.5t-142 388.5zM452 1696q0 51 26 73.5t62 22.5q37 0 64 -22.5t27 -73.5q0 -49 -27 -73t-64 -24q-36 0 -62 24t-26 73zM825 1696 q0 51 26 73.5t62 22.5q37 0 64 -22.5t27 -73.5q0 -49 -27 -73t-64 -24q-36 0 -62 24t-26 73z" />
<glyph unicode="&#xdd;" horiz-adv-x="1124" d="M0 1433h182l380 -717l382 717h180l-478 -877v-556h-169v548zM433 1547v25q47 60 101.5 146.5t85.5 150.5h198v-21q-43 -64 -128 -157t-148 -144h-109z" />
<glyph unicode="&#xde;" horiz-adv-x="1225" d="M197 0v1433h167v-251h210q276 0 412 -101.5t136 -312.5q0 -222 -148.5 -338.5t-429.5 -116.5h-180v-313h-167zM364 456h164q222 0 321 70t99 231q0 146 -93.5 213.5t-290.5 67.5h-200v-582z" />
<glyph unicode="&#xdf;" horiz-adv-x="1248" d="M172 0v1178q0 174 108 266t326 92q202 0 312 -77t110 -218q0 -133 -140 -245q-86 -69 -113.5 -102t-27.5 -65q0 -31 13 -51.5t48 -48.5t111 -78q137 -93 187 -170t50 -176q0 -157 -95 -241t-270 -84q-184 0 -289 68v151q62 -38 138 -61t147 -23q211 0 211 178 q0 74 -41 126t-149 121q-124 80 -171 140.5t-47 142.5q0 62 34 114t103 104q74 56 105 100t31 96q0 78 -66.5 119.5t-190.5 41.5q-271 0 -271 -218v-1180h-163z" />
<glyph unicode="&#xe0;" horiz-adv-x="1116" d="M92 297q0 325 520 341l183 6v66q0 127 -54.5 187t-174.5 60q-134 0 -303 -82l-50 125q79 43 173.5 67.5t189.5 24.5q192 0 285 -85.5t93 -273.5v-733h-121l-32 153h-8q-81 -101 -160.5 -137t-199.5 -36q-160 0 -250.5 82.5t-90.5 234.5zM263 295q0 -88 53 -134t150 -46 q151 0 238 83t87 233v97l-163 -7q-194 -7 -279.5 -60t-85.5 -166zM273 1517v21h199q31 -68 87 -156.5t99 -140.5v-25h-108q-63 51 -150.5 145t-126.5 156z" />
<glyph unicode="&#xe1;" horiz-adv-x="1116" d="M92 297q0 325 520 341l183 6v66q0 127 -54.5 187t-174.5 60q-134 0 -303 -82l-50 125q79 43 173.5 67.5t189.5 24.5q192 0 285 -85.5t93 -273.5v-733h-121l-32 153h-8q-81 -101 -160.5 -137t-199.5 -36q-160 0 -250.5 82.5t-90.5 234.5zM263 295q0 -88 53 -134t150 -46 q151 0 238 83t87 233v97l-163 -7q-194 -7 -279.5 -60t-85.5 -166zM427 1216v25q47 60 101.5 146.5t85.5 150.5h198v-21q-43 -64 -128 -157t-148 -144h-109z" />
<glyph unicode="&#xe2;" horiz-adv-x="1116" d="M92 297q0 325 520 341l183 6v66q0 127 -54.5 187t-174.5 60q-134 0 -303 -82l-50 125q79 43 173.5 67.5t189.5 24.5q192 0 285 -85.5t93 -273.5v-733h-121l-32 153h-8q-81 -101 -160.5 -137t-199.5 -36q-160 0 -250.5 82.5t-90.5 234.5zM224 1216v23q124 133 174 195.5 t73 103.5h162q22 -42 75.5 -107t175.5 -192v-23h-116q-87 54 -217 182q-133 -131 -215 -182h-112zM263 295q0 -88 53 -134t150 -46q151 0 238 83t87 233v97l-163 -7q-194 -7 -279.5 -60t-85.5 -166z" />
<glyph unicode="&#xe3;" horiz-adv-x="1116" d="M92 297q0 325 520 341l183 6v66q0 127 -54.5 187t-174.5 60q-134 0 -303 -82l-50 125q79 43 173.5 67.5t189.5 24.5q192 0 285 -85.5t93 -273.5v-733h-121l-32 153h-8q-81 -101 -160.5 -137t-199.5 -36q-160 0 -250.5 82.5t-90.5 234.5zM193 1216q12 119 68.5 186 t145.5 67q45 0 87.5 -18t80.5 -40t73.5 -40.5t66.5 -18.5q48 0 71.5 29t38.5 90h97q-13 -119 -68.5 -186t-147.5 -67q-42 0 -82 18t-79 40t-74.5 40.5t-69.5 18.5q-49 0 -74 -29.5t-38 -89.5h-96zM263 295q0 -88 53 -134t150 -46q151 0 238 83t87 233v97l-163 -7 q-194 -7 -279.5 -60t-85.5 -166z" />
<glyph unicode="&#xe4;" horiz-adv-x="1116" d="M92 297q0 325 520 341l183 6v66q0 127 -54.5 187t-174.5 60q-134 0 -303 -82l-50 125q79 43 173.5 67.5t189.5 24.5q192 0 285 -85.5t93 -273.5v-733h-121l-32 153h-8q-81 -101 -160.5 -137t-199.5 -36q-160 0 -250.5 82.5t-90.5 234.5zM263 295q0 -88 53 -134t150 -46 q151 0 238 83t87 233v97l-163 -7q-194 -7 -279.5 -60t-85.5 -166zM274 1365q0 51 26 73.5t62 22.5q37 0 64 -22.5t27 -73.5q0 -49 -27 -73t-64 -24q-36 0 -62 24t-26 73zM647 1365q0 51 26 73.5t62 22.5q37 0 64 -22.5t27 -73.5q0 -49 -27 -73t-64 -24q-36 0 -62 24t-26 73z " />
<glyph unicode="&#xe5;" horiz-adv-x="1116" d="M92 297q0 325 520 341l183 6v66q0 127 -54.5 187t-174.5 60q-134 0 -303 -82l-50 125q79 43 173.5 67.5t189.5 24.5q192 0 285 -85.5t93 -273.5v-733h-121l-32 153h-8q-81 -101 -160.5 -137t-199.5 -36q-160 0 -250.5 82.5t-90.5 234.5zM263 295q0 -88 53 -134t150 -46 q151 0 238 83t87 233v97l-163 -7q-194 -7 -279.5 -60t-85.5 -166zM351 1427q0 96 59 152.5t157 56.5q99 0 160 -58.5t61 -148.5q0 -96 -60.5 -154.5t-160.5 -58.5q-99 0 -157.5 57.5t-58.5 153.5zM453 1427q0 -55 29 -85t85 -30q51 0 83 30t32 85t-32.5 85t-82.5 30t-82 -30 t-32 -85z" />
<glyph unicode="&#xe6;" horiz-adv-x="1721" d="M92 297q0 158 121.5 245.5t370.5 95.5l180 6v66q0 127 -56.5 187t-173.5 60q-141 0 -301 -82l-51 125q73 40 170.5 66t193.5 26q127 0 208 -43t121 -136q52 87 136 134t191 47q189 0 302.5 -131t113.5 -349v-104h-687q8 -388 316 -388q89 0 166 17.5t159 55.5v-145 q-84 -37 -157 -53.5t-172 -16.5q-284 0 -406 229q-79 -125 -176 -177t-228 -52q-160 0 -250.5 83.5t-90.5 233.5zM263 295q0 -93 52.5 -136.5t138.5 -43.5q142 0 224 82.5t82 233.5v97l-154 -7q-183 -7 -263 -60.5t-80 -165.5zM935 640h509q0 153 -63 235t-181 82t-186 -81 t-79 -236z" />
<glyph unicode="&#xe7;" horiz-adv-x="955" d="M113 530q0 270 129.5 417t369.5 147q78 0 155.5 -17t121.5 -39l-50 -138q-54 21 -117.5 35.5t-112.5 14.5q-328 0 -328 -418q0 -198 80 -304t237 -106q134 0 275 58v-144q-108 -56 -271 -56q-234 0 -361.5 144t-127.5 406zM355 -369q44 -8 102 -8q78 0 117.5 19.5 t39.5 72.5q0 42 -38.5 68t-145.5 43l86 174h108l-54 -113q176 -38 176 -170q0 -95 -75 -147t-222 -52q-50 0 -94 9v104z" />
<glyph unicode="&#xe8;" horiz-adv-x="1126" d="M113 528q0 260 127.5 413t343.5 153q202 0 319.5 -133t117.5 -350v-103h-740q5 -190 95.5 -288t255.5 -98q174 0 343 73v-145q-86 -37 -163 -53.5t-186 -16.5q-238 0 -375.5 145t-137.5 403zM285 640h562q0 154 -68.5 235.5t-196.5 81.5q-129 0 -206 -84t-91 -233z M311 1517v21h199q31 -68 87 -156.5t99 -140.5v-25h-108q-63 51 -150.5 145t-126.5 156z" />
<glyph unicode="&#xe9;" horiz-adv-x="1126" d="M113 528q0 260 127.5 413t343.5 153q202 0 319.5 -133t117.5 -350v-103h-740q5 -190 95.5 -288t255.5 -98q174 0 343 73v-145q-86 -37 -163 -53.5t-186 -16.5q-238 0 -375.5 145t-137.5 403zM285 640h562q0 154 -68.5 235.5t-196.5 81.5q-129 0 -206 -84t-91 -233z M461 1216v25q47 60 101.5 146.5t85.5 150.5h198v-21q-43 -64 -128 -157t-148 -144h-109z" />
<glyph unicode="&#xea;" horiz-adv-x="1126" d="M113 528q0 260 127.5 413t343.5 153q202 0 319.5 -133t117.5 -350v-103h-740q5 -190 95.5 -288t255.5 -98q174 0 343 73v-145q-86 -37 -163 -53.5t-186 -16.5q-238 0 -375.5 145t-137.5 403zM254 1216v23q124 133 174 195.5t73 103.5h162q22 -42 75.5 -107t175.5 -192 v-23h-116q-87 54 -217 182q-133 -131 -215 -182h-112zM285 640h562q0 154 -68.5 235.5t-196.5 81.5q-129 0 -206 -84t-91 -233z" />
<glyph unicode="&#xeb;" horiz-adv-x="1126" d="M113 528q0 260 127.5 413t343.5 153q202 0 319.5 -133t117.5 -350v-103h-740q5 -190 95.5 -288t255.5 -98q174 0 343 73v-145q-86 -37 -163 -53.5t-186 -16.5q-238 0 -375.5 145t-137.5 403zM285 640h562q0 154 -68.5 235.5t-196.5 81.5q-129 0 -206 -84t-91 -233z M313 1365q0 51 26 73.5t62 22.5q37 0 64 -22.5t27 -73.5q0 -49 -27 -73t-64 -24q-36 0 -62 24t-26 73zM686 1365q0 51 26 73.5t62 22.5q37 0 64 -22.5t27 -73.5q0 -49 -27 -73t-64 -24q-36 0 -62 24t-26 73z" />
<glyph unicode="&#xec;" horiz-adv-x="507" d="M-37 1517v21h199q31 -68 87 -156.5t99 -140.5v-25h-108q-63 51 -150.5 145t-126.5 156zM172 0v1074h163v-1074h-163z" />
<glyph unicode="&#xed;" horiz-adv-x="507" d="M165 1216v25q47 60 101.5 146.5t85.5 150.5h198v-21q-43 -64 -128 -157t-148 -144h-109zM172 0v1074h163v-1074h-163z" />
<glyph unicode="&#xee;" horiz-adv-x="507" d="M-75 1216v23q124 133 174 195.5t73 103.5h162q22 -42 75.5 -107t175.5 -192v-23h-116q-87 54 -217 182q-133 -131 -215 -182h-112zM172 0v1074h163v-1074h-163z" />
<glyph unicode="&#xef;" horiz-adv-x="507" d="M-19 1365q0 51 26 73.5t62 22.5q37 0 64 -22.5t27 -73.5q0 -49 -27 -73t-64 -24q-36 0 -62 24t-26 73zM172 0v1074h163v-1074h-163zM354 1365q0 51 26 73.5t62 22.5q37 0 64 -22.5t27 -73.5q0 -49 -27 -73t-64 -24q-36 0 -62 24t-26 73z" />
<glyph unicode="&#xf0;" horiz-adv-x="1196" d="M111 466q0 225 128.5 353.5t344.5 128.5q222 0 320 -119l7 4q-55 210 -256 397l-266 -152l-71 106l228 130q-90 61 -182 109l67 115q153 -72 253 -145l233 135l75 -105l-203 -117q149 -140 230 -335t81 -419q0 -276 -128 -424t-370 -148q-218 0 -354.5 132t-136.5 354z M275 460q0 -164 86 -253.5t245 -89.5q171 0 250 98.5t79 286.5q0 144 -88 227t-241 83q-331 0 -331 -352z" />
<glyph unicode="&#xf1;" horiz-adv-x="1231" d="M172 0v1074h133l26 -147h8q50 79 140 123t201 44q194 0 292 -94t98 -299v-701h-163v695q0 131 -59.5 196t-186.5 65q-169 0 -247.5 -91.5t-78.5 -300.5v-564h-163zM273 1216q12 119 68.5 186t145.5 67q45 0 87.5 -18t80.5 -40t73.5 -40.5t66.5 -18.5q48 0 71.5 29 t38.5 90h97q-13 -119 -68.5 -186t-147.5 -67q-42 0 -82 18t-79 40t-74.5 40.5t-69.5 18.5q-49 0 -74 -29.5t-38 -89.5h-96z" />
<glyph unicode="&#xf2;" horiz-adv-x="1212" d="M113 538q0 263 131 409.5t365 146.5q225 0 358 -150t133 -406q0 -263 -132.5 -410.5t-365.5 -147.5q-144 0 -256 68t-172.5 194t-60.5 296zM281 538q0 -206 82.5 -313.5t242.5 -107.5q159 0 242 107t83 314q0 205 -83 311.5t-244 106.5q-160 0 -241.5 -105t-81.5 -313z M342 1517v21h199q31 -68 87 -156.5t99 -140.5v-25h-108q-63 51 -150.5 145t-126.5 156z" />
<glyph unicode="&#xf3;" horiz-adv-x="1212" d="M113 538q0 263 131 409.5t365 146.5q225 0 358 -150t133 -406q0 -263 -132.5 -410.5t-365.5 -147.5q-144 0 -256 68t-172.5 194t-60.5 296zM281 538q0 -206 82.5 -313.5t242.5 -107.5q159 0 242 107t83 314q0 205 -83 311.5t-244 106.5q-160 0 -241.5 -105t-81.5 -313z M469 1216v25q47 60 101.5 146.5t85.5 150.5h198v-21q-43 -64 -128 -157t-148 -144h-109z" />
<glyph unicode="&#xf4;" horiz-adv-x="1212" d="M113 538q0 263 131 409.5t365 146.5q225 0 358 -150t133 -406q0 -263 -132.5 -410.5t-365.5 -147.5q-144 0 -256 68t-172.5 194t-60.5 296zM277 1216v23q124 133 174 195.5t73 103.5h162q22 -42 75.5 -107t175.5 -192v-23h-116q-87 54 -217 182q-133 -131 -215 -182h-112 zM281 538q0 -206 82.5 -313.5t242.5 -107.5q159 0 242 107t83 314q0 205 -83 311.5t-244 106.5q-160 0 -241.5 -105t-81.5 -313z" />
<glyph unicode="&#xf5;" horiz-adv-x="1212" d="M113 538q0 263 131 409.5t365 146.5q225 0 358 -150t133 -406q0 -263 -132.5 -410.5t-365.5 -147.5q-144 0 -256 68t-172.5 194t-60.5 296zM244 1216q12 119 68.5 186t145.5 67q45 0 87.5 -18t80.5 -40t73.5 -40.5t66.5 -18.5q48 0 71.5 29t38.5 90h97 q-13 -119 -68.5 -186t-147.5 -67q-42 0 -82 18t-79 40t-74.5 40.5t-69.5 18.5q-49 0 -74 -29.5t-38 -89.5h-96zM281 538q0 -206 82.5 -313.5t242.5 -107.5q159 0 242 107t83 314q0 205 -83 311.5t-244 106.5q-160 0 -241.5 -105t-81.5 -313z" />
<glyph unicode="&#xf6;" horiz-adv-x="1212" d="M113 538q0 263 131 409.5t365 146.5q225 0 358 -150t133 -406q0 -263 -132.5 -410.5t-365.5 -147.5q-144 0 -256 68t-172.5 194t-60.5 296zM281 538q0 -206 82.5 -313.5t242.5 -107.5q159 0 242 107t83 314q0 205 -83 311.5t-244 106.5q-160 0 -241.5 -105t-81.5 -313z M329 1365q0 51 26 73.5t62 22.5q37 0 64 -22.5t27 -73.5q0 -49 -27 -73t-64 -24q-36 0 -62 24t-26 73zM702 1365q0 51 26 73.5t62 22.5q37 0 64 -22.5t27 -73.5q0 -49 -27 -73t-64 -24q-36 0 -62 24t-26 73z" />
<glyph unicode="&#xf7;" d="M102 640v135h942v-135h-942zM462 366q0 58 28.5 88t81.5 30q51 0 79.5 -31t28.5 -87t-29 -87.5t-79 -31.5q-51 0 -80.5 31t-29.5 88zM462 1050q0 58 28.5 88t81.5 30q51 0 79.5 -31t28.5 -87t-29 -87.5t-79 -31.5q-51 0 -80.5 31t-29.5 88z" />
<glyph unicode="&#xf8;" horiz-adv-x="1212" d="M113 538q0 263 131 409.5t365 146.5q151 0 264 -75l83 117l114 -75l-95 -130q125 -149 125 -393q0 -263 -132.5 -410.5t-365.5 -147.5q-151 0 -261 68l-82 -115l-112 77l92 128q-126 149 -126 400zM281 538q0 -168 52 -268l456 634q-74 52 -185 52q-160 0 -241.5 -105 t-81.5 -313zM425 167q70 -50 181 -50q159 0 242 107t83 314q0 161 -50 259z" />
<glyph unicode="&#xf9;" horiz-adv-x="1231" d="M161 371v703h164v-697q0 -131 60 -195.5t187 -64.5q169 0 247 92t78 301v564h162v-1074h-134l-23 144h-9q-50 -79 -139 -121.5t-202 -42.5q-196 0 -293.5 93.5t-97.5 297.5zM326 1517v21h199q31 -68 87 -156.5t99 -140.5v-25h-108q-63 51 -150.5 145t-126.5 156z" />
<glyph unicode="&#xfa;" horiz-adv-x="1231" d="M161 371v703h164v-697q0 -131 60 -195.5t187 -64.5q169 0 247 92t78 301v564h162v-1074h-134l-23 144h-9q-50 -79 -139 -121.5t-202 -42.5q-196 0 -293.5 93.5t-97.5 297.5zM496 1216v25q47 60 101.5 146.5t85.5 150.5h198v-21q-43 -64 -128 -157t-148 -144h-109z" />
<glyph unicode="&#xfb;" horiz-adv-x="1231" d="M161 371v703h164v-697q0 -131 60 -195.5t187 -64.5q169 0 247 92t78 301v564h162v-1074h-134l-23 144h-9q-50 -79 -139 -121.5t-202 -42.5q-196 0 -293.5 93.5t-97.5 297.5zM281 1216v23q124 133 174 195.5t73 103.5h162q22 -42 75.5 -107t175.5 -192v-23h-116 q-87 54 -217 182q-133 -131 -215 -182h-112z" />
<glyph unicode="&#xfc;" horiz-adv-x="1231" d="M161 371v703h164v-697q0 -131 60 -195.5t187 -64.5q169 0 247 92t78 301v564h162v-1074h-134l-23 144h-9q-50 -79 -139 -121.5t-202 -42.5q-196 0 -293.5 93.5t-97.5 297.5zM335 1365q0 51 26 73.5t62 22.5q37 0 64 -22.5t27 -73.5q0 -49 -27 -73t-64 -24q-36 0 -62 24 t-26 73zM708 1365q0 51 26 73.5t62 22.5q37 0 64 -22.5t27 -73.5q0 -49 -27 -73t-64 -24q-36 0 -62 24t-26 73z" />
<glyph unicode="&#xfd;" horiz-adv-x="1011" d="M2 1074h174l236 -612q77 -210 96 -303h7q13 50 54 171t266 744h174l-461 -1223q-69 -181 -160.5 -257t-224.5 -76q-75 0 -147 16v131q54 -12 120 -12q168 0 239 188l60 153zM403 1216v25q47 60 101.5 146.5t85.5 150.5h198v-21q-43 -64 -128 -157t-148 -144h-109z" />
<glyph unicode="&#xfe;" horiz-adv-x="1229" d="M172 -482v2007h163v-457q0 -51 -6 -139h8q65 87 148 126t187 39q211 0 328.5 -147t117.5 -409q0 -263 -118 -410.5t-328 -147.5q-217 0 -337 158h-12l4 -33q8 -76 8 -137v-450h-163zM335 538q0 -226 75.5 -323.5t242.5 -97.5q297 0 297 423q0 211 -72.5 313.5 t-226.5 102.5q-165 0 -239.5 -90.5t-76.5 -287.5v-40z" />
<glyph unicode="&#xff;" horiz-adv-x="1011" d="M2 1074h174l236 -612q77 -210 96 -303h7q13 50 54 171t266 744h174l-461 -1223q-69 -181 -160.5 -257t-224.5 -76q-75 0 -147 16v131q54 -12 120 -12q168 0 239 188l60 153zM229 1365q0 51 26 73.5t62 22.5q37 0 64 -22.5t27 -73.5q0 -49 -27 -73t-64 -24q-36 0 -62 24 t-26 73zM602 1365q0 51 26 73.5t62 22.5q37 0 64 -22.5t27 -73.5q0 -49 -27 -73t-64 -24q-36 0 -62 24t-26 73z" />
<glyph unicode="&#x152;" horiz-adv-x="1852" d="M122 720q0 353 171 544t484 191q100 0 188 -22h767v-148h-578v-462h540v-147h-540v-527h578v-149h-753q-100 -20 -190 -20q-321 0 -494 193t-173 547zM299 718q0 -291 126 -441.5t368 -150.5q110 0 195 33v1118q-85 29 -193 29q-244 0 -370 -149.5t-126 -438.5z" />
<glyph unicode="&#x153;" horiz-adv-x="1890" d="M111 538q0 260 128.5 407t358.5 147q128 0 228.5 -58.5t161.5 -170.5q57 110 151 169.5t217 59.5q197 0 314 -130t117 -351v-103h-715q8 -386 331 -386q92 0 171 17.5t165 55.5v-145q-87 -38 -161.5 -54t-176.5 -16q-287 0 -409 231q-61 -114 -163.5 -172.5t-236.5 -58.5 q-219 0 -350 149.5t-131 408.5zM281 538q0 -207 74.5 -314t238.5 -107q160 0 235 104t75 309q0 217 -76 321.5t-238 104.5q-163 0 -236 -106t-73 -312zM1076 640h533q0 155 -64.5 235.5t-190.5 80.5q-124 0 -195 -80.5t-83 -235.5z" />
<glyph unicode="&#x178;" horiz-adv-x="1124" d="M0 1433h182l380 -717l382 717h180l-478 -877v-556h-169v548zM288 1696q0 51 26 73.5t62 22.5q37 0 64 -22.5t27 -73.5q0 -49 -27 -73t-64 -24q-36 0 -62 24t-26 73zM661 1696q0 51 26 73.5t62 22.5q37 0 64 -22.5t27 -73.5q0 -49 -27 -73t-64 -24q-36 0 -62 24t-26 73z " />
<glyph unicode="&#x2c6;" horiz-adv-x="1187" d="M263 1216v23q124 133 174 195.5t73 103.5h162q22 -42 75.5 -107t175.5 -192v-23h-116q-87 54 -217 182q-133 -131 -215 -182h-112z" />
<glyph unicode="&#x2dc;" horiz-adv-x="1187" d="M259 1216q12 119 68.5 186t145.5 67q45 0 87.5 -18t80.5 -40t73.5 -40.5t66.5 -18.5q48 0 71.5 29t38.5 90h97q-13 -119 -68.5 -186t-147.5 -67q-42 0 -82 18t-79 40t-74.5 40.5t-69.5 18.5q-49 0 -74 -29.5t-38 -89.5h-96z" />
<glyph unicode="&#x2000;" horiz-adv-x="934" />
<glyph unicode="&#x2001;" horiz-adv-x="1869" />
<glyph unicode="&#x2002;" horiz-adv-x="934" />
<glyph unicode="&#x2003;" horiz-adv-x="1869" />
<glyph unicode="&#x2004;" horiz-adv-x="623" />
<glyph unicode="&#x2005;" horiz-adv-x="467" />
<glyph unicode="&#x2006;" horiz-adv-x="311" />
<glyph unicode="&#x2007;" horiz-adv-x="311" />
<glyph unicode="&#x2008;" horiz-adv-x="233" />
<glyph unicode="&#x2009;" horiz-adv-x="373" />
<glyph unicode="&#x200a;" horiz-adv-x="103" />
<glyph unicode="&#x2010;" horiz-adv-x="645" d="M82 464v148h482v-148h-482z" />
<glyph unicode="&#x2011;" horiz-adv-x="645" d="M82 464v148h482v-148h-482z" />
<glyph unicode="&#x2012;" horiz-adv-x="645" d="M82 464v148h482v-148h-482z" />
<glyph unicode="&#x2013;" horiz-adv-x="1003" d="M80 464v148h843v-148h-843z" />
<glyph unicode="&#x2014;" horiz-adv-x="2007" d="M80 464v148h1847v-148h-1847z" />
<glyph unicode="&#x2018;" horiz-adv-x="341" d="M24 963q22 89 70 220t103 250h121q-65 -249 -101 -491h-181z" />
<glyph unicode="&#x2019;" horiz-adv-x="341" d="M24 942q69 279 100 491h179l15 -22q-26 -98 -74 -227.5t-100 -241.5h-120z" />
<glyph unicode="&#x201a;" horiz-adv-x="491" d="M62 -259q26 102 58 252t45 240h178l15 -22q-26 -98 -74 -228t-100 -242h-122z" />
<glyph unicode="&#x201c;" horiz-adv-x="702" d="M24 963q22 89 70 220t103 250h121q-65 -249 -101 -491h-181zM383 963q55 211 175 470h120q-29 -113 -58 -254.5t-42 -236.5h-180z" />
<glyph unicode="&#x201d;" horiz-adv-x="702" d="M24 942q69 279 100 491h179l15 -22q-26 -98 -74 -227.5t-100 -241.5h-120zM383 942q26 98 58 249t45 242h178l14 -22q-23 -89 -70 -219.5t-102 -249.5h-123z" />
<glyph unicode="&#x201e;" horiz-adv-x="812" d="M24 -258q69 279 100 491h179l15 -22q-26 -98 -74 -227.5t-100 -241.5h-120zM383 -258q26 98 58 249t45 242h178l14 -22q-23 -89 -70 -219.5t-102 -249.5h-123z" />
<glyph unicode="&#x2022;" horiz-adv-x="754" d="M161 733q0 119 55 180.5t161 61.5q103 0 160 -60.5t57 -181.5q0 -117 -56.5 -180t-160.5 -63q-105 0 -160.5 64t-55.5 179z" />
<glyph unicode="&#x2026;" horiz-adv-x="1573" d="M149 104q0 66 30 99.5t86 33.5t88 -33.5t32 -99.5q0 -64 -32.5 -98t-87.5 -34q-50 0 -83 30.5t-33 101.5zM668 104q0 66 30 99.5t86 33.5t88 -33.5t32 -99.5q0 -64 -32.5 -98t-87.5 -34q-50 0 -83 30.5t-33 101.5zM1189 104q0 66 30 99.5t86 33.5t88 -33.5t32 -99.5 q0 -64 -32.5 -98t-87.5 -34q-50 0 -83 30.5t-33 101.5z" />
<glyph unicode="&#x202f;" horiz-adv-x="373" />
<glyph unicode="&#x2039;" horiz-adv-x="610" d="M80 514v26l336 399l116 -68l-283 -343l283 -344l-116 -69z" />
<glyph unicode="&#x203a;" horiz-adv-x="610" d="M78 184l282 344l-282 343l115 68l337 -399v-26l-337 -399z" />
<glyph unicode="&#x205f;" horiz-adv-x="467" />
<glyph unicode="&#x20ac;" horiz-adv-x="1183" d="M62 496v126h149l-2 41v44l2 78h-149v126h160q39 256 182 399t375 143q197 0 359 -95l-70 -136q-162 84 -289 84q-313 0 -390 -395h500v-126h-514l-2 -56v-63l2 -44h454v-126h-438q36 -177 135.5 -273.5t266.5 -96.5q153 0 303 65v-147q-143 -64 -311 -64 q-232 0 -373.5 132t-187.5 384h-162z" />
<glyph unicode="&#x2122;" horiz-adv-x="1557" d="M36 1329v104h532v-104h-206v-603h-121v603h-205zM634 726v707h183l192 -548l199 548h177v-707h-125v412l6 134h-8l-206 -546h-102l-197 548h-8l6 -126v-422h-117z" />
<glyph unicode="&#x25fc;" horiz-adv-x="1073" d="M0 0v1073h1073v-1073h-1073z" />
</font>
</defs>
</svg>
