<svg xmlns="http://www.w3.org/2000/svg" xmlns:xlink="http://www.w3.org/1999/xlink" width="39.204" height="42.772" viewBox="0 0 39.204 42.772"><defs><clipPath id="a"><rect width="39.205" height="42.772" fill="none"/></clipPath></defs><g transform="translate(0)" clip-path="url(#a)"><path d="M437.179,493.976c1.326-.987,5.322-3.6,11.448,3.961s14.587,19.811,14.587,19.811,6.419,7.112-2.119,11.375-8.755,4.209-8.755,4.209-3.908,1.306-8.444-5.914-14.76-19.734-14.76-19.734a7.633,7.633,0,0,1,2.806-9.867A62.5,62.5,0,0,0,437.179,493.976Z" transform="translate(-427.341 -491.678)" fill="none" stroke="#707070" stroke-width="2"/><path d="M429.779,500.478l12.808,16.887,5.185,7.03s3.761,6.109,10.176,1.018c1.82-1.444,5.075-3.634,6.408-4.787.034-.129.163.035.4-.4" transform="translate(-427.492 -492.49)" fill="none" stroke="#707070" stroke-width="2"/></g></svg>