<?xml version="1.0" encoding="utf-8"?>
<!-- Generator: Adobe Illustrator 17.1.0, SVG Export Plug-In . SVG Version: 6.00 Build 0)  -->
<!DOCTYPE svg PUBLIC "-//W3C//DTD SVG 1.1//EN" "http://www.w3.org/Graphics/SVG/1.1/DTD/svg11.dtd">
<svg version="1.1" id="Layer_1" xmlns:sketch="http://www.bohemiancoding.com/sketch/ns"
	 xmlns="http://www.w3.org/2000/svg" xmlns:xlink="http://www.w3.org/1999/xlink" x="0px" y="0px" width="32px" height="128px"
	 viewBox="0 0 32 128" enable-background="new 0 0 32 128" xml:space="preserve">
<path fill="#8F98A9" d="M28.8,20.7h-6.6v-8.5h6.6c0.6,0,1-0.4,1-1s-0.4-1-1-1h-6.6V3.6c0-0.6-0.4-1-1-1s-1,0.4-1,1v6.6h-8.5V3.6
	c0-0.6-0.4-1-1-1s-1,0.4-1,1v6.6H3.2c-0.6,0-1,0.4-1,1s0.4,1,1,1h6.6v8.5H3.2c-0.6,0-1,0.4-1,1s0.4,1,1,1h6.6v6.6c0,0.6,0.4,1,1,1
	s1-0.4,1-1v-6.6h8.5v6.6c0,0.6,0.4,1,1,1s1-0.4,1-1v-6.6h6.6c0.6,0,1-0.4,1-1S29.4,20.7,28.8,20.7z M11.8,20.7v-8.5h8.5v8.5H11.8z"
	/>
<path d="M28.8,52.7h-6.6v-8.5h6.6c0.6,0,1-0.4,1-1s-0.4-1-1-1h-6.6v-6.6c0-0.6-0.4-1-1-1s-1,0.4-1,1v6.6h-8.5v-6.6c0-0.6-0.4-1-1-1
	s-1,0.4-1,1v6.6H3.2c-0.6,0-1,0.4-1,1s0.4,1,1,1h6.6v8.5H3.2c-0.6,0-1,0.4-1,1s0.4,1,1,1h6.6v6.6c0,0.6,0.4,1,1,1s1-0.4,1-1v-6.6
	h8.5v6.6c0,0.6,0.4,1,1,1s1-0.4,1-1v-6.6h6.6c0.6,0,1-0.4,1-1S29.4,52.7,28.8,52.7z M11.8,52.7v-8.5h8.5v8.5H11.8z"/>
<path fill="#009BE7" d="M28.8,84.7h-6.6v-8.5h6.6c0.6,0,1-0.4,1-1s-0.4-1-1-1h-6.6v-6.6c0-0.6-0.4-1-1-1s-1,0.4-1,1v6.6h-8.5v-6.6
	c0-0.6-0.4-1-1-1s-1,0.4-1,1v6.6H3.2c-0.6,0-1,0.4-1,1s0.4,1,1,1h6.6v8.5H3.2c-0.6,0-1,0.4-1,1s0.4,1,1,1h6.6v6.6c0,0.6,0.4,1,1,1
	s1-0.4,1-1v-6.6h8.5v6.6c0,0.6,0.4,1,1,1s1-0.4,1-1v-6.6h6.6c0.6,0,1-0.4,1-1S29.4,84.7,28.8,84.7z M11.8,84.7v-8.5h8.5v8.5H11.8z"
	/>
<path fill="#FFFFFF" d="M28.8,116.7h-6.6v-8.5h6.6c0.6,0,1-0.4,1-1s-0.4-1-1-1h-6.6v-6.6c0-0.6-0.4-1-1-1s-1,0.4-1,1v6.6h-8.5v-6.6
	c0-0.6-0.4-1-1-1s-1,0.4-1,1v6.6H3.2c-0.6,0-1,0.4-1,1s0.4,1,1,1h6.6v8.5H3.2c-0.6,0-1,0.4-1,1s0.4,1,1,1h6.6v6.6c0,0.6,0.4,1,1,1
	s1-0.4,1-1v-6.6h8.5v6.6c0,0.6,0.4,1,1,1s1-0.4,1-1v-6.6h6.6c0.6,0,1-0.4,1-1S29.4,116.7,28.8,116.7z M11.8,116.7v-8.5h8.5v8.5H11.8
	z"/>
</svg>
