<?xml version="1.0" encoding="utf-8"?>
<!-- Generator: Adobe Illustrator 17.1.0, SVG Export Plug-In . SVG Version: 6.00 Build 0)  -->
<!DOCTYPE svg PUBLIC "-//W3C//DTD SVG 1.1//EN" "http://www.w3.org/Graphics/SVG/1.1/DTD/svg11.dtd">
<svg version="1.1" id="Layer_1" xmlns:sketch="http://www.bohemiancoding.com/sketch/ns"
	 xmlns="http://www.w3.org/2000/svg" xmlns:xlink="http://www.w3.org/1999/xlink" x="0px" y="0px" width="32px" height="128px"
	 viewBox="0 0 32 128" enable-background="new 0 0 32 128" xml:space="preserve">
<path fill="#8F98A9" d="M30.6,2.9c0-0.1,0-0.3-0.1-0.4V2.3c0-0.1-0.1-0.3-0.3-0.4l0,0l0,0l0,0c-0.1-0.1-0.3-0.3-0.4-0.3h-0.1
	c-0.1,0-0.3-0.1-0.4-0.1H29c-0.1,0-0.3,0-0.4,0.1c0,0,0,0-0.1,0l0,0l-9.8,3.9c-0.8,0.3-1.3,1.3-0.8,2.1c0.3,0.8,1.3,1.3,2.1,0.8
	L22,7.6L1.9,26.9c-0.7,0.6-0.7,1.7,0,2.2c0.3,0.3,0.7,0.6,1.1,0.6s0.8-0.1,1.1-0.4L25,9.2l-0.8,2.4c-0.3,0.8,0.1,1.8,1,2.1
	c0.1,0,0.4,0.1,0.6,0.1c0.7,0,1.3-0.4,1.5-1.1l3.4-9C30.6,3.3,30.6,3.1,30.6,2.9L30.6,2.9z"/>
<path d="M30.6,34.9c0-0.1,0-0.3-0.1-0.4v-0.1c0-0.1-0.1-0.3-0.3-0.4l0,0l0,0l0,0c-0.1-0.1-0.3-0.3-0.4-0.3h-0.1
	c-0.1,0-0.3-0.1-0.4-0.1H29c-0.1,0-0.3,0-0.4,0.1c0,0,0,0-0.1,0l0,0l-9.8,3.9c-0.8,0.3-1.3,1.3-0.8,2.1c0.3,0.8,1.3,1.3,2.1,0.8
	l2.1-0.8L1.9,58.9c-0.7,0.6-0.7,1.7,0,2.2c0.3,0.3,0.7,0.6,1.1,0.6s0.8-0.1,1.1-0.4L25,41.2l-0.8,2.4c-0.3,0.8,0.1,1.8,1,2.1
	c0.1,0,0.4,0.1,0.6,0.1c0.7,0,1.3-0.4,1.5-1.1l3.4-9C30.6,35.3,30.6,35.1,30.6,34.9L30.6,34.9z"/>
<path fill="#009BE7" d="M30.6,66.9c0-0.1,0-0.3-0.1-0.4v-0.1c0-0.1-0.1-0.3-0.3-0.4l0,0l0,0l0,0c-0.1-0.1-0.3-0.3-0.4-0.3h-0.1
	c-0.1,0-0.3-0.1-0.4-0.1H29c-0.1,0-0.3,0-0.4,0.1c0,0,0,0-0.1,0l0,0l-9.8,3.9c-0.8,0.3-1.3,1.3-0.8,2.1c0.3,0.8,1.3,1.3,2.1,0.8
	l2.1-0.8L1.9,90.9c-0.7,0.6-0.7,1.7,0,2.2c0.3,0.3,0.7,0.6,1.1,0.6s0.8-0.1,1.1-0.4L25,73.2l-0.8,2.4c-0.3,0.8,0.1,1.8,1,2.1
	c0.1,0,0.4,0.1,0.6,0.1c0.7,0,1.3-0.4,1.5-1.1l3.4-9C30.6,67.3,30.6,67.1,30.6,66.9L30.6,66.9z"/>
<path fill="#FFFFFF" d="M30.6,98.9c0-0.1,0-0.3-0.1-0.4v-0.1c0-0.1-0.1-0.3-0.3-0.4l0,0l0,0l0,0c-0.1-0.1-0.3-0.3-0.4-0.3h-0.1
	c-0.1,0-0.3-0.1-0.4-0.1H29c-0.1,0-0.3,0-0.4,0.1c0,0,0,0-0.1,0l0,0l-9.8,3.9c-0.8,0.3-1.3,1.3-0.8,2.1c0.3,0.8,1.3,1.3,2.1,0.8
	l2.1-0.8L1.9,122.9c-0.7,0.6-0.7,1.7,0,2.2c0.3,0.3,0.7,0.6,1.1,0.6s0.8-0.1,1.1-0.4L25,105.2l-0.8,2.4c-0.3,0.8,0.1,1.8,1,2.1
	c0.1,0,0.4,0.1,0.6,0.1c0.7,0,1.3-0.4,1.5-1.1l3.4-9C30.6,99.3,30.6,99.1,30.6,98.9L30.6,98.9z"/>
</svg>
