<?xml version="1.0" encoding="utf-8"?>
<!-- Generator: Adobe Illustrator 17.1.0, SVG Export Plug-In . SVG Version: 6.00 Build 0)  -->
<!DOCTYPE svg PUBLIC "-//W3C//DTD SVG 1.1//EN" "http://www.w3.org/Graphics/SVG/1.1/DTD/svg11.dtd">
<svg version="1.1" id="Layer_1" xmlns:sketch="http://www.bohemiancoding.com/sketch/ns"
	 xmlns="http://www.w3.org/2000/svg" xmlns:xlink="http://www.w3.org/1999/xlink" x="0px" y="0px" width="32px" height="128px"
	 viewBox="0 0 32 128" enable-background="new 0 0 32 128" xml:space="preserve">
<g>
	<path fill="#8F98A9" d="M16,30.6c-8.4,0-15.1-6.9-15.1-15.1S7.6,0.4,16,0.4s15.1,6.7,15.1,15.1S24.4,30.6,16,30.6z M16,3.6
		C9.4,3.6,4.1,8.9,4.1,15.5S9.4,27.4,16,27.4s11.9-5.3,11.9-11.9S22.6,3.6,16,3.6z"/>
</g>
<g>
	<path d="M16,62.6c-8.4,0-15.1-6.9-15.1-15.1S7.6,32.4,16,32.4s15.1,6.7,15.1,15.1S24.4,62.6,16,62.6z M16,35.6
		c-6.6,0-11.9,5.3-11.9,11.9S9.4,59.4,16,59.4s11.9-5.3,11.9-11.9S22.6,35.6,16,35.6z"/>
</g>
<g>
	<path fill="#009BE7" d="M16,94.6c-8.4,0-15.1-6.9-15.1-15.1c0-8.4,6.7-15.1,15.1-15.1s15.1,6.7,15.1,15.1S24.4,94.6,16,94.6z
		 M16,67.6c-6.6,0-11.9,5.3-11.9,11.9S9.4,91.4,16,91.4s11.9-5.3,11.9-11.9S22.6,67.6,16,67.6z"/>
</g>
<g>
	<path fill="#FFFFFF" d="M16,126.6c-8.4,0-15.1-6.9-15.1-15.1c0-8.4,6.7-15.1,15.1-15.1s15.1,6.7,15.1,15.1S24.4,126.6,16,126.6z
		 M16,99.6c-6.6,0-11.9,5.3-11.9,11.9s5.3,11.9,11.9,11.9s11.9-5.3,11.9-11.9S22.6,99.6,16,99.6z"/>
</g>
</svg>
