<?xml version="1.0" encoding="utf-8"?>
<!-- Generator: Adobe Illustrator 17.1.0, SVG Export Plug-In . SVG Version: 6.00 Build 0)  -->
<!DOCTYPE svg PUBLIC "-//W3C//DTD SVG 1.1//EN" "http://www.w3.org/Graphics/SVG/1.1/DTD/svg11.dtd">
<svg version="1.1" id="Layer_1" xmlns:sketch="http://www.bohemiancoding.com/sketch/ns"
	 xmlns="http://www.w3.org/2000/svg" xmlns:xlink="http://www.w3.org/1999/xlink" x="0px" y="0px" width="32px" height="128px"
	 viewBox="0 0 32 128" enable-background="new 0 0 32 128" xml:space="preserve">
<path fill="#8F98A9" d="M30.6,2.8c0-0.1,0-0.3-0.1-0.4c0-0.1,0-0.1-0.1-0.2c-0.1-0.1-0.2-0.3-0.3-0.4c0,0,0,0,0-0.1c0,0,0,0,0,0
	c0,0,0,0,0,0c-0.1-0.1-0.3-0.2-0.5-0.3c0,0-0.1,0-0.1-0.1c-0.1,0-0.3-0.1-0.4-0.1c-0.1,0-0.1,0-0.2,0c-0.2,0-0.3,0-0.5,0.1
	c0,0-0.1,0-0.1,0c0,0,0,0,0,0l-9.8,4c-0.8,0.3-1.2,1.3-0.9,2.1c0.3,0.8,1.3,1.2,2.1,0.9l2.1-0.9L7,21.9l0.9-2.3
	c0.3-0.8-0.1-1.8-0.9-2.1c-0.8-0.3-1.8,0.1-2.1,0.9l-3.4,9c-0.1,0.2-0.1,0.3-0.1,0.5c0,0,0,0.1,0,0.1c0,0.2,0,0.3,0.1,0.5
	c0,0,0,0.1,0,0.1c0.1,0.2,0.2,0.4,0.3,0.5c0.3,0.3,0.7,0.5,1.1,0.5c0.2,0,0.4,0,0.6-0.1l9.8-4c0.8-0.3,1.2-1.3,0.9-2.1
	c-0.3-0.8-1.3-1.2-2.1-0.9l-2.1,0.9L25,9.1l-0.9,2.3c-0.3,0.8,0.1,1.8,0.9,2.1c0.2,0.1,0.4,0.1,0.6,0.1c0.7,0,1.3-0.4,1.5-1.1l3.4-9
	c0.1-0.2,0.1-0.3,0.1-0.5C30.6,2.9,30.6,2.9,30.6,2.8z"/>
<path d="M30.6,34.8c0-0.1,0-0.3-0.1-0.4c0-0.1,0-0.1-0.1-0.2c-0.1-0.1-0.2-0.3-0.3-0.4c0,0,0,0,0-0.1c0,0,0,0,0,0c0,0,0,0,0,0
	c-0.1-0.1-0.3-0.2-0.5-0.3c0,0-0.1,0-0.1-0.1c-0.1,0-0.3-0.1-0.4-0.1c-0.1,0-0.1,0-0.2,0c-0.2,0-0.3,0-0.5,0.1c0,0-0.1,0-0.1,0
	c0,0,0,0,0,0l-9.8,4c-0.8,0.3-1.2,1.3-0.9,2.1c0.3,0.8,1.3,1.2,2.1,0.9l2.1-0.9L7,53.9l0.9-2.3c0.3-0.8-0.1-1.8-0.9-2.1
	c-0.8-0.3-1.8,0.1-2.1,0.9l-3.4,9c-0.1,0.2-0.1,0.3-0.1,0.5c0,0,0,0.1,0,0.1c0,0.2,0,0.3,0.1,0.5c0,0,0,0.1,0,0.1
	c0.1,0.2,0.2,0.4,0.3,0.5c0.3,0.3,0.7,0.5,1.1,0.5c0.2,0,0.4,0,0.6-0.1l9.8-4c0.8-0.3,1.2-1.3,0.9-2.1c-0.3-0.8-1.3-1.2-2.1-0.9
	l-2.1,0.9L25,41.1l-0.9,2.3c-0.3,0.8,0.1,1.8,0.9,2.1c0.2,0.1,0.4,0.1,0.6,0.1c0.7,0,1.3-0.4,1.5-1.1l3.4-9c0.1-0.2,0.1-0.3,0.1-0.5
	C30.6,34.9,30.6,34.9,30.6,34.8z"/>
<path fill="#009BE7" d="M30.6,66.8c0-0.1,0-0.3-0.1-0.4c0-0.1,0-0.1-0.1-0.2c-0.1-0.1-0.2-0.3-0.3-0.4c0,0,0,0,0-0.1c0,0,0,0,0,0
	c0,0,0,0,0,0c-0.1-0.1-0.3-0.2-0.5-0.3c0,0-0.1,0-0.1-0.1c-0.1,0-0.3-0.1-0.4-0.1c-0.1,0-0.1,0-0.2,0c-0.2,0-0.3,0-0.5,0.1
	c0,0-0.1,0-0.1,0c0,0,0,0,0,0l-9.8,4c-0.8,0.3-1.2,1.3-0.9,2.1c0.3,0.8,1.3,1.2,2.1,0.9l2.1-0.9L7,85.9l0.9-2.3
	c0.3-0.8-0.1-1.8-0.9-2.1c-0.8-0.3-1.8,0.1-2.1,0.9l-3.4,9c-0.1,0.2-0.1,0.3-0.1,0.5c0,0,0,0.1,0,0.1c0,0.2,0,0.3,0.1,0.5
	c0,0,0,0.1,0,0.1c0.1,0.2,0.2,0.4,0.3,0.5c0.3,0.3,0.7,0.5,1.1,0.5c0.2,0,0.4,0,0.6-0.1l9.8-4c0.8-0.3,1.2-1.3,0.9-2.1
	c-0.3-0.8-1.3-1.2-2.1-0.9l-2.1,0.9L25,73.1l-0.9,2.3c-0.3,0.8,0.1,1.8,0.9,2.1c0.2,0.1,0.4,0.1,0.6,0.1c0.7,0,1.3-0.4,1.5-1.1
	l3.4-9c0.1-0.2,0.1-0.3,0.1-0.5C30.6,66.9,30.6,66.9,30.6,66.8z"/>
<path fill="#FFFFFF" d="M30.6,98.8c0-0.1,0-0.3-0.1-0.4c0-0.1,0-0.1-0.1-0.2c-0.1-0.1-0.2-0.3-0.3-0.4c0,0,0,0,0-0.1c0,0,0,0,0,0
	c0,0,0,0,0,0c-0.1-0.1-0.3-0.2-0.5-0.3c0,0-0.1,0-0.1-0.1c-0.1,0-0.3-0.1-0.4-0.1c-0.1,0-0.1,0-0.2,0c-0.2,0-0.3,0-0.5,0.1
	c0,0-0.1,0-0.1,0c0,0,0,0,0,0l-9.8,4c-0.8,0.3-1.2,1.3-0.9,2.1c0.3,0.8,1.3,1.2,2.1,0.9l2.1-0.9L7,117.9l0.9-2.3
	c0.3-0.8-0.1-1.8-0.9-2.1c-0.8-0.3-1.8,0.1-2.1,0.9l-3.4,9c-0.1,0.2-0.1,0.3-0.1,0.5c0,0,0,0.1,0,0.1c0,0.2,0,0.3,0.1,0.5
	c0,0,0,0.1,0,0.1c0.1,0.2,0.2,0.4,0.3,0.5c0.3,0.3,0.7,0.5,1.1,0.5c0.2,0,0.4,0,0.6-0.1l9.8-4c0.8-0.3,1.2-1.3,0.9-2.1
	c-0.3-0.8-1.3-1.2-2.1-0.9l-2.1,0.9L25,105.1l-0.9,2.3c-0.3,0.8,0.1,1.8,0.9,2.1c0.2,0.1,0.4,0.1,0.6,0.1c0.7,0,1.3-0.4,1.5-1.1
	l3.4-9c0.1-0.2,0.1-0.3,0.1-0.5C30.6,98.9,30.6,98.9,30.6,98.8z"/>
</svg>
