<?xml version="1.0" encoding="utf-8"?>
<!-- Generator: Adobe Illustrator 18.0.0, SVG Export Plug-In . SVG Version: 6.00 Build 0)  -->
<!DOCTYPE svg PUBLIC "-//W3C//DTD SVG 1.1//EN" "http://www.w3.org/Graphics/SVG/1.1/DTD/svg11.dtd">
<svg version="1.1" id="Layer_1" xmlns:sketch="http://www.bohemiancoding.com/sketch/ns"
	 xmlns="http://www.w3.org/2000/svg" xmlns:xlink="http://www.w3.org/1999/xlink" x="0px" y="0px" width="32px" height="128px"
	 viewBox="0 0 32 128" enable-background="new 0 0 32 128" xml:space="preserve">
<g>
	<path fill="#8F98A9" d="M29.8,8.4v14.2c0,0.6-0.3,1.1-0.7,1.3l-12.4,7.1c-0.6,0.3-1.1,0.3-1.4,0L2.9,23.9c-0.5-0.3-0.8-0.8-0.8-1.3
		V8.4c0-0.6,0.3-1.1,0.8-1.3l12.4-7.1c0.6-0.3,1.1-0.3,1.4,0l12.4,7.1C29.7,7.3,29.8,7.8,29.8,8.4z M27,21.6V9.3L16,3.1L5,9.4v12.3
		l11,6.2L27,21.6z"/>
</g>
<g>
	<path d="M29.8,40.4v14.2c0,0.6-0.3,1.1-0.7,1.3l-12.4,7.1c-0.6,0.3-1.1,0.3-1.4,0L2.9,55.9c-0.6-0.3-0.8-0.8-0.8-1.3V40.4
		c0-0.6,0.3-1.1,0.8-1.3l12.4-7.1c0.6-0.3,1.1-0.3,1.4,0l12.4,7.1C29.7,39.3,29.8,39.8,29.8,40.4z M27,53.6V41.3l-11-6.1L5,41.4
		v12.3l11,6.2L27,53.6z"/>
</g>
<g>
	<path fill="#009BE7" d="M29.8,72.4v14.2c0,0.6-0.3,1.1-0.7,1.3l-12.4,7.1c-0.6,0.3-1.1,0.3-1.4,0L2.9,87.9
		c-0.6-0.3-0.8-0.8-0.8-1.3V72.4c0-0.6,0.3-1.1,0.8-1.3l12.4-7.1c0.6-0.3,1.1-0.3,1.4,0l12.4,7.1C29.7,71.3,29.8,71.8,29.8,72.4z
		 M27,85.6V73.3l-11-6.1L5,73.4v12.3l11,6.2L27,85.6z"/>
</g>
<g>
	<path fill="#FFFFFF" d="M29.8,104.4v14.2c0,0.6-0.3,1.1-0.7,1.3l-12.4,7.1c-0.6,0.3-1.1,0.3-1.4,0l-12.4-7.1
		c-0.6-0.3-0.8-0.8-0.8-1.3v-14.2c0-0.6,0.3-1.1,0.8-1.3l12.4-7.1c0.6-0.3,1.1-0.3,1.4,0l12.4,7.1C29.7,103.3,29.8,103.8,29.8,104.4
		z M27,117.6v-12.4l-11-6.1l-11,6.2v12.3l11,6.1L27,117.6z"/>
</g>
</svg>
