<?xml version="1.0" encoding="utf-8"?>
<!-- Generator: Adobe Illustrator 17.1.0, SVG Export Plug-In . SVG Version: 6.00 Build 0)  -->
<!DOCTYPE svg PUBLIC "-//W3C//DTD SVG 1.1//EN" "http://www.w3.org/Graphics/SVG/1.1/DTD/svg11.dtd">
<svg version="1.1" id="Layer_1" xmlns:sketch="http://www.bohemiancoding.com/sketch/ns"
	 xmlns="http://www.w3.org/2000/svg" xmlns:xlink="http://www.w3.org/1999/xlink" x="0px" y="0px" width="32px" height="128px"
	 viewBox="0 0 32 128" enable-background="new 0 0 32 128" xml:space="preserve">
<g>
	<path fill="#8F98A9" d="M3,29.7c-0.4,0-0.8-0.1-1.1-0.6c-0.6-0.7-0.6-1.7,0-2.2L27.8,1.7c0.7-0.6,1.7-0.6,2.2,0
		c0.6,0.7,0.6,1.7,0,2.2L4.1,29.1C3.8,29.5,3.4,29.7,3,29.7z"/>
</g>
<g>
	<path d="M3,61.7c-0.4,0-0.8-0.1-1.1-0.6c-0.6-0.7-0.6-1.7,0-2.2l25.9-25.2c0.7-0.6,1.7-0.6,2.2,0c0.6,0.7,0.6,1.7,0,2.2L4.1,61.1
		C3.8,61.5,3.4,61.7,3,61.7z"/>
</g>
<g>
	<path fill="#009BE7" d="M3,93.7c-0.4,0-0.8-0.1-1.1-0.6c-0.6-0.7-0.6-1.7,0-2.2l25.9-25.2c0.7-0.6,1.7-0.6,2.2,0
		c0.6,0.7,0.6,1.7,0,2.2L4.1,93.1C3.8,93.5,3.4,93.7,3,93.7z"/>
</g>
<g>
	<path fill="#FFFFFF" d="M3,125.7c-0.4,0-0.8-0.1-1.1-0.6c-0.6-0.7-0.6-1.7,0-2.2l25.9-25.2c0.7-0.6,1.7-0.6,2.2,0
		c0.6,0.7,0.6,1.7,0,2.2L4.1,125.1C3.8,125.5,3.4,125.7,3,125.7z"/>
</g>
</svg>
