<?xml version="1.0" encoding="utf-8"?>
<!-- Generator: Adobe Illustrator 17.1.0, SVG Export Plug-In . SVG Version: 6.00 Build 0)  -->
<!DOCTYPE svg PUBLIC "-//W3C//DTD SVG 1.1//EN" "http://www.w3.org/Graphics/SVG/1.1/DTD/svg11.dtd">
<svg version="1.1" id="Layer_1" xmlns:sketch="http://www.bohemiancoding.com/sketch/ns"
	 xmlns="http://www.w3.org/2000/svg" xmlns:xlink="http://www.w3.org/1999/xlink" x="0px" y="0px" width="32px" height="128px"
	 viewBox="0 0 32 128" enable-background="new 0 0 32 128" xml:space="preserve">
<path fill="#8F98A9" d="M26.2,10.2l-4.9-5.3c-0.4-0.4-1.1-0.4-1.5,0l-4.9,5.3c-0.4,0.4-0.4,1,0.1,1.4c0.4,0.4,1,0.4,1.4-0.1l3.2-3.4
	v19.5c0,0.6,0.4,1,1,1s1-0.4,1-1V8.1l3.2,3.4c0.2,0.2,0.5,0.3,0.7,0.3c0.2,0,0.5-0.1,0.7-0.3C26.5,11.2,26.6,10.6,26.2,10.2z"/>
<path fill="#8F98A9" d="M27.5,20.6H7.1l3.4-3.2c0.4-0.4,0.4-1,0.1-1.4c-0.4-0.4-1-0.4-1.4-0.1l-5.3,4.9c-0.2,0.2-0.3,0.5-0.3,0.7
	s0.1,0.5,0.3,0.7l5.3,4.9c0.2,0.2,0.4,0.3,0.7,0.3c0.3,0,0.5-0.1,0.7-0.3c0.4-0.4,0.4-1-0.1-1.4l-3.4-3.2h20.4c0.6,0,1-0.4,1-1
	S28,20.6,27.5,20.6z"/>
<path d="M26.2,42.2l-4.9-5.3c-0.4-0.4-1.1-0.4-1.5,0l-4.9,5.3c-0.4,0.4-0.4,1,0.1,1.4c0.4,0.4,1,0.4,1.4-0.1l3.2-3.4v19.5
	c0,0.6,0.4,1,1,1s1-0.4,1-1V40.1l3.2,3.4c0.2,0.2,0.5,0.3,0.7,0.3c0.2,0,0.5-0.1,0.7-0.3C26.5,43.2,26.6,42.6,26.2,42.2z"/>
<path d="M27.5,52.6H7.1l3.4-3.2c0.4-0.4,0.4-1,0.1-1.4c-0.4-0.4-1-0.4-1.4-0.1l-5.3,4.9c-0.2,0.2-0.3,0.5-0.3,0.7s0.1,0.5,0.3,0.7
	l5.3,4.9c0.2,0.2,0.4,0.3,0.7,0.3c0.3,0,0.5-0.1,0.7-0.3c0.4-0.4,0.4-1-0.1-1.4l-3.4-3.2h20.4c0.6,0,1-0.4,1-1S28,52.6,27.5,52.6z"
	/>
<path fill="#009BE7" d="M26.2,74.2l-4.9-5.3c-0.4-0.4-1.1-0.4-1.5,0l-4.9,5.3c-0.4,0.4-0.4,1,0.1,1.4c0.4,0.4,1,0.4,1.4-0.1l3.2-3.4
	v19.5c0,0.6,0.4,1,1,1s1-0.4,1-1V72.1l3.2,3.4c0.2,0.2,0.5,0.3,0.7,0.3c0.2,0,0.5-0.1,0.7-0.3C26.5,75.2,26.6,74.6,26.2,74.2z"/>
<path fill="#009BE7" d="M27.5,84.6H7.1l3.4-3.2c0.4-0.4,0.4-1,0.1-1.4c-0.4-0.4-1-0.4-1.4-0.1l-5.3,4.9c-0.2,0.2-0.3,0.5-0.3,0.7
	s0.1,0.5,0.3,0.7l5.3,4.9c0.2,0.2,0.4,0.3,0.7,0.3c0.3,0,0.5-0.1,0.7-0.3c0.4-0.4,0.4-1-0.1-1.4l-3.4-3.2h20.4c0.6,0,1-0.4,1-1
	S28,84.6,27.5,84.6z"/>
<path fill="#FFFFFF" d="M26.2,106.2l-4.9-5.3c-0.4-0.4-1.1-0.4-1.5,0l-4.9,5.3c-0.4,0.4-0.4,1,0.1,1.4c0.4,0.4,1,0.4,1.4-0.1
	l3.2-3.4v19.5c0,0.6,0.4,1,1,1s1-0.4,1-1v-19.5l3.2,3.4c0.2,0.2,0.5,0.3,0.7,0.3c0.2,0,0.5-0.1,0.7-0.3
	C26.5,107.2,26.6,106.6,26.2,106.2z"/>
<path fill="#FFFFFF" d="M27.5,116.6H7.1l3.4-3.2c0.4-0.4,0.4-1,0.1-1.4c-0.4-0.4-1-0.4-1.4-0.1l-5.3,4.9c-0.2,0.2-0.3,0.5-0.3,0.7
	s0.1,0.5,0.3,0.7l5.3,4.9c0.2,0.2,0.4,0.3,0.7,0.3c0.3,0,0.5-0.1,0.7-0.3c0.4-0.4,0.4-1-0.1-1.4l-3.4-3.2h20.4c0.6,0,1-0.4,1-1
	S28,116.6,27.5,116.6z"/>
</svg>
