<?xml version="1.0" encoding="utf-8"?>
<!-- Generator: Adobe Illustrator 17.1.0, SVG Export Plug-In . SVG Version: 6.00 Build 0)  -->
<!DOCTYPE svg PUBLIC "-//W3C//DTD SVG 1.1//EN" "http://www.w3.org/Graphics/SVG/1.1/DTD/svg11.dtd">
<svg version="1.1" id="Layer_1" xmlns:sketch="http://www.bohemiancoding.com/sketch/ns"
	 xmlns="http://www.w3.org/2000/svg" xmlns:xlink="http://www.w3.org/1999/xlink" x="0px" y="0px" width="32px" height="128px"
	 viewBox="0 0 32 128" enable-background="new 0 0 32 128" xml:space="preserve">
<g>
	<path fill="#8F98A9" d="M24.6,29.8H7.5c-0.7,0-1.3-0.4-1.5-1L0.6,13.1c-0.3-0.7,0-1.4,0.6-1.8L15,1.5c0.6-0.4,1.3-0.4,1.8,0
		l13.9,9.7c0.6,0.4,0.8,1.1,0.6,1.8l-5.2,15.8C25.8,29.4,25.3,29.8,24.6,29.8z M8.6,26.7h14.7l4.5-13.6L16,4.9L4.1,13.3L8.6,26.7z"
		/>
</g>
<g>
	<path d="M24.6,61.8H7.5c-0.7,0-1.3-0.4-1.5-1L0.6,45.1c-0.3-0.7,0-1.4,0.6-1.8L15,33.5c0.6-0.4,1.3-0.4,1.8,0l13.9,9.7
		c0.6,0.4,0.8,1.1,0.6,1.8l-5.2,15.8C25.8,61.4,25.3,61.8,24.6,61.8z M8.6,58.7h14.7l4.5-13.6L16,36.9L4.1,45.3L8.6,58.7z"/>
</g>
<g>
	<path fill="#009BE7" d="M24.6,93.8H7.5c-0.7,0-1.3-0.4-1.5-1L0.6,77.1c-0.3-0.7,0-1.4,0.6-1.8L15,65.5c0.6-0.4,1.3-0.4,1.8,0
		l13.9,9.7c0.6,0.4,0.8,1.1,0.6,1.8l-5.2,15.8C25.8,93.4,25.3,93.8,24.6,93.8z M8.6,90.7h14.7l4.5-13.6L16,68.9L4.1,77.3L8.6,90.7z"
		/>
</g>
<g>
	<path fill="#FFFFFF" d="M24.6,125.8H7.5c-0.7,0-1.3-0.4-1.5-1l-5.3-15.7c-0.3-0.7,0-1.4,0.6-1.8L15,97.5c0.6-0.4,1.3-0.4,1.8,0
		l13.9,9.7c0.6,0.4,0.8,1.1,0.6,1.8l-5.2,15.8C25.8,125.4,25.3,125.8,24.6,125.8z M8.6,122.7h14.7l4.5-13.6l-11.9-8.3L4,109.3
		L8.6,122.7z"/>
</g>
</svg>
