<?xml version="1.0" encoding="utf-8"?>
<!-- Generator: Adobe Illustrator 18.0.0, SVG Export Plug-In . SVG Version: 6.00 Build 0)  -->
<!DOCTYPE svg PUBLIC "-//W3C//DTD SVG 1.1//EN" "http://www.w3.org/Graphics/SVG/1.1/DTD/svg11.dtd">
<svg version="1.1" id="Layer_1" xmlns:sketch="http://www.bohemiancoding.com/sketch/ns"
	 xmlns="http://www.w3.org/2000/svg" xmlns:xlink="http://www.w3.org/1999/xlink" x="0px" y="0px" width="32px" height="128px"
	 viewBox="0 0 32 128" enable-background="new 0 0 32 128" xml:space="preserve">
<path fill="#4E5D78" d="M18.6,29.6C18.6,29.6,18.6,29.6,18.6,29.6c-1,0-1.8-0.6-2.2-1.6l-2.5-7l-3.4,2.9c-0.5,0.4-0.9,0.5-1.2,0.5
	c-0.7,0-1.5-0.5-1.5-1.7L7.7,3.9c0-0.6,0.1-1,0.4-1.3c0.5-0.5,1.4-0.5,2.1,0.2l12.7,12.6c0.7,0.8,0.6,1.4,0.5,1.8
	c-0.1,0.3-0.4,0.9-1.4,1.1L18.3,19l3.2,6.8c0.5,1.3-0.1,2.7-1.2,3.2l-0.7,0.3C19.2,29.5,18.9,29.6,18.6,29.6z M14.3,18.5
	c0.4,0,0.7,0.2,0.8,0.6l3,8.3c0.1,0.3,0.3,0.4,0.5,0.4l0,0c0.1,0,0.1,0,0.2,0c0,0,0.1,0,0.1,0l0.7-0.3c0.3-0.1,0.4-0.6,0.3-0.8
	l-3.7-7.8c-0.1-0.3-0.1-0.5,0-0.8c0.1-0.2,0.4-0.4,0.6-0.5l4.7-0.8l-12-12l0.2,17.7l3.9-3.3c0,0,0,0,0.1-0.1
	c0.1-0.2,0.3-0.3,0.6-0.3C14.2,18.5,14.2,18.5,14.3,18.5z"/>
<path d="M18.6,61.6C18.6,61.6,18.6,61.6,18.6,61.6c-1,0-1.8-0.6-2.2-1.6l-2.5-7l-3.4,2.9c-0.5,0.4-0.9,0.5-1.2,0.5
	c-0.7,0-1.5-0.5-1.5-1.7L7.7,35.9c0-0.6,0.1-1,0.4-1.3c0.5-0.5,1.4-0.5,2.1,0.2l12.7,12.6c0.7,0.8,0.6,1.4,0.5,1.8
	c-0.1,0.3-0.4,0.9-1.4,1.1L18.3,51l3.2,6.8c0.5,1.3-0.1,2.7-1.2,3.2l-0.7,0.3C19.2,61.5,18.9,61.6,18.6,61.6z M14.3,50.5
	c0.4,0,0.7,0.2,0.8,0.6l3,8.3c0.1,0.3,0.3,0.4,0.5,0.4l0,0c0.1,0,0.1,0,0.2,0c0,0,0.1,0,0.1,0l0.7-0.3c0.3-0.1,0.4-0.6,0.3-0.8
	l-3.7-7.8c-0.1-0.3-0.1-0.5,0-0.8s0.4-0.4,0.6-0.5l4.7-0.8l-12-12l0.2,17.7l3.9-3.3c0,0,0,0,0.1-0.1c0.1-0.2,0.3-0.3,0.6-0.3
	C14.2,50.5,14.2,50.5,14.3,50.5z"/>
<path fill="#009BE7" d="M18.6,93.6L18.6,93.6c-1,0-1.8-0.6-2.2-1.6l-2.5-7l-3.4,2.9c-0.5,0.4-0.9,0.5-1.2,0.5
	c-0.7,0-1.5-0.5-1.5-1.7L7.7,67.9c0-0.6,0.1-1,0.4-1.3c0.5-0.5,1.4-0.5,2.1,0.2l12.7,12.6c0.7,0.8,0.6,1.4,0.5,1.8
	c-0.1,0.3-0.4,0.9-1.4,1.1L18.3,83l3.2,6.8c0.5,1.3-0.1,2.7-1.2,3.2l-0.7,0.3C19.2,93.5,18.9,93.6,18.6,93.6z M14.3,82.5
	c0.4,0,0.7,0.2,0.8,0.6l3,8.3c0.1,0.4,0.5,0.4,0.7,0.3c0,0,0.1,0,0.1,0l0.7-0.3c0.3-0.1,0.4-0.6,0.3-0.8l-3.7-7.8
	c-0.1-0.3-0.1-0.5,0-0.8c0.1-0.2,0.4-0.4,0.6-0.5l4.7-0.8l-12-12l0.2,17.7l3.9-3.3c0,0,0,0,0.1,0c0.1-0.2,0.3-0.3,0.6-0.3
	C14.2,82.5,14.2,82.5,14.3,82.5z"/>
<path fill="#FFFFFF" d="M18.6,125.6L18.6,125.6c-1,0-1.8-0.6-2.2-1.6l-2.5-7l-3.4,2.9c-0.5,0.4-0.9,0.5-1.2,0.5
	c-0.7,0-1.5-0.5-1.5-1.7L7.7,99.9c0-0.6,0.1-1,0.4-1.3c0.5-0.5,1.4-0.5,2.1,0.2l12.7,12.6c0.7,0.8,0.6,1.4,0.5,1.8
	c-0.1,0.3-0.4,0.9-1.4,1.1l-3.7,0.7l3.2,6.8c0.5,1.3-0.1,2.7-1.2,3.2l-0.7,0.3C19.2,125.5,18.9,125.6,18.6,125.6z M14.3,114.5
	c0.4,0,0.7,0.2,0.8,0.6l3,8.3c0.1,0.4,0.5,0.4,0.7,0.3c0,0,0.1,0,0.1,0l0.7-0.3c0.3-0.1,0.4-0.6,0.3-0.8l-3.7-7.8
	c-0.1-0.3-0.1-0.5,0-0.8c0.1-0.2,0.4-0.4,0.6-0.5l4.7-0.8l-12-12l0.2,17.7l3.9-3.3c0,0,0,0,0.1,0c0.1-0.2,0.3-0.3,0.6-0.3
	C14.2,114.5,14.2,114.5,14.3,114.5z"/>
</svg>
