<?xml version="1.0" encoding="utf-8"?>
<!-- Generator: Adobe Illustrator 17.1.0, SVG Export Plug-In . SVG Version: 6.00 Build 0)  -->
<!DOCTYPE svg PUBLIC "-//W3C//DTD SVG 1.1//EN" "http://www.w3.org/Graphics/SVG/1.1/DTD/svg11.dtd">
<svg version="1.1" id="Layer_1" xmlns:sketch="http://www.bohemiancoding.com/sketch/ns"
	 xmlns="http://www.w3.org/2000/svg" xmlns:xlink="http://www.w3.org/1999/xlink" x="0px" y="0px" width="32px" height="128px"
	 viewBox="0 0 32 128" enable-background="new 0 0 32 128" xml:space="preserve">
<path fill="#8F98A9" d="M28.8,16.3c0.6,0,1-0.4,1-1s-0.4-1-1-1h-3.1V7.7h3.1c0.6,0,1-0.4,1-1s-0.4-1-1-1h-3.1V2.6c0-0.6-0.4-1-1-1
	s-1,0.4-1,1v3.1h-6.9V2.6c0-0.6-0.4-1-1-1c-0.6,0-1,0.4-1,1v3.1H8.3V2.6c0-0.6-0.4-1-1-1s-1,0.4-1,1v3.1H3.2c-0.6,0-1,0.4-1,1
	s0.4,1,1,1h3.1v6.6H3.2c-0.6,0-1,0.4-1,1s0.4,1,1,1h3.1v6.9H3.2c-0.6,0-1,0.4-1,1s0.4,1,1,1h3.1v3.1c0,0.6,0.4,1,1,1s1-0.4,1-1v-3.1
	h6.6v3.1c0,0.6,0.4,1,1,1c0.6,0,1-0.4,1-1v-3.1h6.9v3.1c0,0.6,0.4,1,1,1s1-0.4,1-1v-3.1h3.1c0.6,0,1-0.4,1-1s-0.4-1-1-1h-3.1v-6.9
	H28.8z M23.7,7.7v6.6h-6.9V7.7H23.7z M8.3,7.7h6.6v6.6H8.3V7.7z M8.3,23.2v-6.9h6.6v6.9H8.3z M23.7,23.2h-6.9v-6.9h6.9V23.2z"/>
<path d="M28.8,48.3c0.6,0,1-0.4,1-1s-0.4-1-1-1h-3.1v-6.6h3.1c0.6,0,1-0.4,1-1s-0.4-1-1-1h-3.1v-3.1c0-0.6-0.4-1-1-1s-1,0.4-1,1v3.1
	h-6.9v-3.1c0-0.6-0.4-1-1-1c-0.6,0-1,0.4-1,1v3.1H8.3v-3.1c0-0.6-0.4-1-1-1s-1,0.4-1,1v3.1H3.2c-0.6,0-1,0.4-1,1s0.4,1,1,1h3.1v6.6
	H3.2c-0.6,0-1,0.4-1,1s0.4,1,1,1h3.1v6.9H3.2c-0.6,0-1,0.4-1,1s0.4,1,1,1h3.1v3.1c0,0.6,0.4,1,1,1s1-0.4,1-1v-3.1h6.6v3.1
	c0,0.6,0.4,1,1,1c0.6,0,1-0.4,1-1v-3.1h6.9v3.1c0,0.6,0.4,1,1,1s1-0.4,1-1v-3.1h3.1c0.6,0,1-0.4,1-1s-0.4-1-1-1h-3.1v-6.9H28.8z
	 M23.7,39.7v6.6h-6.9v-6.6H23.7z M8.3,39.7h6.6v6.6H8.3V39.7z M8.3,55.2v-6.9h6.6v6.9H8.3z M23.7,55.2h-6.9v-6.9h6.9V55.2z"/>
<path fill="#009BE7" d="M28.8,80.3c0.6,0,1-0.4,1-1s-0.4-1-1-1h-3.1v-6.6h3.1c0.6,0,1-0.4,1-1s-0.4-1-1-1h-3.1v-3.1c0-0.6-0.4-1-1-1
	s-1,0.4-1,1v3.1h-6.9v-3.1c0-0.6-0.4-1-1-1c-0.6,0-1,0.4-1,1v3.1H8.3v-3.1c0-0.6-0.4-1-1-1s-1,0.4-1,1v3.1H3.2c-0.6,0-1,0.4-1,1
	s0.4,1,1,1h3.1v6.6H3.2c-0.6,0-1,0.4-1,1s0.4,1,1,1h3.1v6.9H3.2c-0.6,0-1,0.4-1,1s0.4,1,1,1h3.1v3.1c0,0.6,0.4,1,1,1s1-0.4,1-1v-3.1
	h6.6v3.1c0,0.6,0.4,1,1,1c0.6,0,1-0.4,1-1v-3.1h6.9v3.1c0,0.6,0.4,1,1,1s1-0.4,1-1v-3.1h3.1c0.6,0,1-0.4,1-1s-0.4-1-1-1h-3.1v-6.9
	H28.8z M23.7,71.7v6.6h-6.9v-6.6H23.7z M8.3,71.7h6.6v6.6H8.3V71.7z M8.3,87.2v-6.9h6.6v6.9H8.3z M23.7,87.2h-6.9v-6.9h6.9V87.2z"/>
<path fill="#FFFFFF" d="M28.8,112.3c0.6,0,1-0.4,1-1s-0.4-1-1-1h-3.1v-6.6h3.1c0.6,0,1-0.4,1-1s-0.4-1-1-1h-3.1v-3.1
	c0-0.6-0.4-1-1-1s-1,0.4-1,1v3.1h-6.9v-3.1c0-0.6-0.4-1-1-1c-0.6,0-1,0.4-1,1v3.1H8.3v-3.1c0-0.6-0.4-1-1-1s-1,0.4-1,1v3.1H3.2
	c-0.6,0-1,0.4-1,1s0.4,1,1,1h3.1v6.6H3.2c-0.6,0-1,0.4-1,1s0.4,1,1,1h3.1v6.9H3.2c-0.6,0-1,0.4-1,1s0.4,1,1,1h3.1v3.1
	c0,0.6,0.4,1,1,1s1-0.4,1-1v-3.1h6.6v3.1c0,0.6,0.4,1,1,1c0.6,0,1-0.4,1-1v-3.1h6.9v3.1c0,0.6,0.4,1,1,1s1-0.4,1-1v-3.1h3.1
	c0.6,0,1-0.4,1-1s-0.4-1-1-1h-3.1v-6.9H28.8z M23.7,103.7v6.6h-6.9v-6.6H23.7z M8.3,103.7h6.6v6.6H8.3V103.7z M8.3,119.2v-6.9h6.6
	v6.9H8.3z M23.7,119.2h-6.9v-6.9h6.9V119.2z"/>
</svg>
