<?xml version="1.0" encoding="utf-8"?>
<!-- Generator: Adobe Illustrator 17.1.0, SVG Export Plug-In . SVG Version: 6.00 Build 0)  -->
<!DOCTYPE svg PUBLIC "-//W3C//DTD SVG 1.1//EN" "http://www.w3.org/Graphics/SVG/1.1/DTD/svg11.dtd">
<svg version="1.1" id="Layer_1" xmlns:sketch="http://www.bohemiancoding.com/sketch/ns"
	 xmlns="http://www.w3.org/2000/svg" xmlns:xlink="http://www.w3.org/1999/xlink" x="0px" y="0px" width="32px" height="128px"
	 viewBox="0 0 32 128" enable-background="new 0 0 32 128" xml:space="preserve">
<g>
	<path fill="#8F98A9" d="M30.4,28.4c0,0.8-0.7,1.7-1.7,1.7H3.1c-0.8,0-1.7-0.7-1.7-1.7V2.6c0-0.8,0.7-1.7,1.7-1.7h25.8
		c0.8,0,1.7,0.7,1.7,1.7v25.8H30.4z M4.5,27h22.8V4H4.5V27z"/>
</g>
<g>
	<path d="M30.4,60.4c0,0.8-0.7,1.7-1.7,1.7H3.1c-0.8,0-1.7-0.7-1.7-1.7V34.6c0-0.8,0.7-1.7,1.7-1.7h25.8c0.8,0,1.7,0.7,1.7,1.7v25.8
		H30.4z M4.5,59h22.8V36H4.5V59z"/>
</g>
<g>
	<path fill="#009BE7" d="M30.4,92.4c0,0.8-0.7,1.7-1.7,1.7H3.1c-0.8,0-1.7-0.7-1.7-1.7V66.6c0-0.8,0.7-1.7,1.7-1.7h25.8
		c0.8,0,1.7,0.7,1.7,1.7v25.8H30.4z M4.5,91h22.8V68H4.5V91z"/>
</g>
<g>
	<path fill="#FFFFFF" d="M30.4,124.4c0,0.8-0.7,1.7-1.7,1.7H3.1c-0.8,0-1.7-0.7-1.7-1.7V98.6c0-0.8,0.7-1.7,1.7-1.7h25.8
		c0.8,0,1.7,0.7,1.7,1.7v25.8H30.4z M4.5,123h22.8v-22.8H4.5V123z"/>
</g>
</svg>
