<?xml version="1.0" encoding="utf-8"?>
<!-- Generator: Adobe Illustrator 17.1.0, SVG Export Plug-In . SVG Version: 6.00 Build 0)  -->
<!DOCTYPE svg PUBLIC "-//W3C//DTD SVG 1.1//EN" "http://www.w3.org/Graphics/SVG/1.1/DTD/svg11.dtd">
<svg version="1.1" id="Layer_1" xmlns:sketch="http://www.bohemiancoding.com/sketch/ns"
	 xmlns="http://www.w3.org/2000/svg" xmlns:xlink="http://www.w3.org/1999/xlink" x="0px" y="0px" width="32px" height="128px"
	 viewBox="0 0 32 128" enable-background="new 0 0 32 128" xml:space="preserve">
<g>
	<g>
		<path fill="#4E5D78" d="M4.5,24.7H1.9L9,7.5h2.1l7,17.2h-2.6l-1.7-4.2H6.1L4.5,24.7z M6.9,18.3H13l-3-8.1L6.9,18.3z"/>
		<path fill="#4E5D78" d="M26.8,17.2c0-0.9-0.2-1.5-0.7-1.9c-0.5-0.4-1.1-0.6-2-0.6c-0.6,0-1.2,0.1-1.7,0.4c-0.5,0.3-1,0.6-1.4,1
			l-1.2-1.5c0.5-0.5,1.2-1,2-1.3c0.8-0.3,1.6-0.5,2.5-0.5c0.8,0,1.5,0.1,2,0.4c0.6,0.2,1.1,0.6,1.4,1c0.4,0.4,0.6,0.9,0.8,1.4
			c0.2,0.6,0.3,1.1,0.3,1.8v5c0,0.4,0,0.8,0,1.2c0,0.4,0.1,0.8,0.1,1.1h-2c-0.1-0.6-0.2-1.1-0.2-1.7h-0.1c-0.4,0.6-0.9,1.1-1.5,1.4
			C24.7,24.8,24,25,23.1,25c-0.4,0-0.9-0.1-1.4-0.2c-0.5-0.1-0.9-0.3-1.3-0.6c-0.4-0.3-0.7-0.6-1-1.1c-0.3-0.5-0.4-1-0.4-1.7
			c0-0.9,0.2-1.6,0.7-2.1c0.4-0.5,1-0.9,1.8-1.2c0.7-0.3,1.5-0.4,2.4-0.5c0.9-0.1,1.8-0.1,2.7-0.1V17.2z M26.2,19.2
			c-0.5,0-1.1,0-1.7,0.1c-0.6,0-1.1,0.1-1.6,0.3c-0.5,0.1-0.9,0.4-1.2,0.7c-0.3,0.3-0.5,0.7-0.5,1.2c0,0.3,0.1,0.6,0.2,0.9
			c0.1,0.2,0.3,0.4,0.5,0.6c0.2,0.1,0.5,0.2,0.7,0.3c0.3,0.1,0.5,0.1,0.8,0.1c1,0,1.8-0.3,2.3-1c0.5-0.6,0.8-1.4,0.8-2.4v-0.6H26.2z
			"/>
	</g>
</g>
<g>
	<path d="M4.5,56.7H1.9L9,39.5h2.1l7,17.2h-2.6l-1.7-4.2H6.1L4.5,56.7z M6.9,50.3H13l-3-8.1L6.9,50.3z"/>
	<path d="M26.8,49.2c0-0.9-0.2-1.5-0.7-1.9c-0.5-0.4-1.1-0.6-2-0.6c-0.6,0-1.2,0.1-1.7,0.4c-0.5,0.3-1,0.6-1.4,1l-1.2-1.5
		c0.5-0.5,1.2-1,2-1.3c0.8-0.3,1.6-0.5,2.5-0.5c0.8,0,1.5,0.1,2,0.4c0.6,0.2,1.1,0.6,1.4,1c0.4,0.4,0.6,0.9,0.8,1.4
		c0.2,0.6,0.3,1.1,0.3,1.8v5c0,0.4,0,0.8,0,1.2c0,0.4,0.1,0.8,0.1,1.1h-2c-0.1-0.6-0.2-1.1-0.2-1.7h-0.1c-0.4,0.6-0.9,1.1-1.5,1.4
		C24.7,56.8,24,57,23.1,57c-0.4,0-0.9-0.1-1.4-0.2c-0.5-0.1-0.9-0.3-1.3-0.6c-0.4-0.3-0.7-0.6-1-1.1c-0.3-0.5-0.4-1-0.4-1.7
		c0-0.9,0.2-1.6,0.7-2.1c0.4-0.5,1-0.9,1.8-1.2c0.7-0.3,1.5-0.4,2.4-0.5c0.9-0.1,1.8-0.1,2.7-0.1V49.2z M26.2,51.2
		c-0.5,0-1.1,0-1.7,0.1c-0.6,0-1.1,0.1-1.6,0.3c-0.5,0.1-0.9,0.4-1.2,0.7c-0.3,0.3-0.5,0.7-0.5,1.2c0,0.3,0.1,0.6,0.2,0.9
		c0.1,0.2,0.3,0.4,0.5,0.6c0.2,0.1,0.5,0.2,0.7,0.3c0.3,0.1,0.5,0.1,0.8,0.1c1,0,1.8-0.3,2.3-1c0.5-0.6,0.8-1.4,0.8-2.4v-0.6H26.2z"
		/>
</g>
<g>
	<path fill="#009BE7" d="M4.5,88.7H1.9L9,71.5h2.1l7,17.2h-2.6l-1.7-4.2H6.1L4.5,88.7z M6.9,82.3H13l-3-8.1L6.9,82.3z"/>
	<path fill="#009BE7" d="M26.8,81.2c0-0.9-0.2-1.5-0.7-1.9c-0.5-0.4-1.1-0.6-2-0.6c-0.6,0-1.2,0.1-1.7,0.4c-0.5,0.3-1,0.6-1.4,1
		l-1.2-1.5c0.5-0.5,1.2-1,2-1.3c0.8-0.3,1.6-0.5,2.5-0.5c0.8,0,1.5,0.1,2,0.4c0.6,0.2,1.1,0.6,1.4,1c0.4,0.4,0.6,0.9,0.8,1.4
		c0.2,0.6,0.3,1.1,0.3,1.8v5c0,0.4,0,0.8,0,1.2c0,0.4,0.1,0.8,0.1,1.1h-2c-0.1-0.6-0.2-1.1-0.2-1.7h-0.1c-0.4,0.6-0.9,1.1-1.5,1.4
		C24.7,88.8,24,89,23.1,89c-0.4,0-0.9-0.1-1.4-0.2c-0.5-0.1-0.9-0.3-1.3-0.6c-0.4-0.3-0.7-0.6-1-1.1c-0.3-0.5-0.4-1-0.4-1.7
		c0-0.9,0.2-1.6,0.7-2.1c0.4-0.5,1-0.9,1.8-1.2c0.7-0.3,1.5-0.4,2.4-0.5c0.9-0.1,1.8-0.1,2.7-0.1V81.2z M26.2,83.2
		c-0.5,0-1.1,0-1.7,0.1c-0.6,0-1.1,0.1-1.6,0.3c-0.5,0.1-0.9,0.4-1.2,0.7c-0.3,0.3-0.5,0.7-0.5,1.2c0,0.3,0.1,0.6,0.2,0.9
		c0.1,0.2,0.3,0.4,0.5,0.6c0.2,0.1,0.5,0.2,0.7,0.3c0.3,0.1,0.5,0.1,0.8,0.1c1,0,1.8-0.3,2.3-1c0.5-0.6,0.8-1.4,0.8-2.4v-0.6H26.2z"
		/>
</g>
<g>
	<path fill="#FFFFFF" d="M4.5,120.7H1.9L9,103.5h2.1l7,17.2h-2.6l-1.7-4.2H6.1L4.5,120.7z M6.9,114.3H13l-3-8.1L6.9,114.3z"/>
	<path fill="#FFFFFF" d="M26.8,113.2c0-0.9-0.2-1.5-0.7-1.9c-0.5-0.4-1.1-0.6-2-0.6c-0.6,0-1.2,0.1-1.7,0.4c-0.5,0.3-1,0.6-1.4,1
		l-1.2-1.5c0.5-0.5,1.2-1,2-1.3c0.8-0.3,1.6-0.5,2.5-0.5c0.8,0,1.5,0.1,2,0.4c0.6,0.2,1.1,0.6,1.4,1c0.4,0.4,0.6,0.9,0.8,1.4
		c0.2,0.6,0.3,1.1,0.3,1.8v5c0,0.4,0,0.8,0,1.2c0,0.4,0.1,0.8,0.1,1.1h-2c-0.1-0.6-0.2-1.1-0.2-1.7h-0.1c-0.4,0.6-0.9,1.1-1.5,1.4
		c-0.6,0.3-1.3,0.5-2.2,0.5c-0.4,0-0.9-0.1-1.4-0.2c-0.5-0.1-0.9-0.3-1.3-0.6c-0.4-0.3-0.7-0.6-1-1.1c-0.3-0.5-0.4-1-0.4-1.7
		c0-0.9,0.2-1.6,0.7-2.1c0.4-0.5,1-0.9,1.8-1.2c0.7-0.3,1.5-0.4,2.4-0.5c0.9-0.1,1.8-0.1,2.7-0.1V113.2z M26.2,115.2
		c-0.5,0-1.1,0-1.7,0.1c-0.6,0-1.1,0.1-1.6,0.3c-0.5,0.1-0.9,0.4-1.2,0.7c-0.3,0.3-0.5,0.7-0.5,1.2c0,0.3,0.1,0.6,0.2,0.9
		c0.1,0.2,0.3,0.4,0.5,0.6c0.2,0.1,0.5,0.2,0.7,0.3c0.3,0.1,0.5,0.1,0.8,0.1c1,0,1.8-0.3,2.3-1c0.5-0.6,0.8-1.4,0.8-2.4v-0.6H26.2z"
		/>
</g>
</svg>
