<svg width="32px" height="128px" viewBox="0 0 32 128" version="1.1" xmlns="http://www.w3.org/2000/svg" xmlns:xlink="http://www.w3.org/1999/xlink" xmlns:sketch="http://www.bohemiancoding.com/sketch/ns">
<path fill="#4E5D78" d="M11,7.1l7.2-3.5c0.9-0.4,1.2-1.5,0.8-2.3c-0.4-0.9-1.5-1.2-2.3-0.8L4.4,6.4l6.4,13.2c0.3,0.6,0.9,1,1.6,1
	c0.3,0,0.5-0.1,0.8-0.2c0.9-0.4,1.2-1.5,0.8-2.3l-3.7-7.6c8.8,1.8,15,10.1,13.9,19.2c-0.1,1,0.6,1.8,1.5,1.9c0.1,0,0.1,0,0.2,0
	c0.9,0,1.6-0.7,1.7-1.6C28.9,19.2,21.6,9.3,11,7.1z"/>
<path fill="#1E3053" d="M11,39.1l7.2-3.5c0.9-0.4,1.2-1.5,0.8-2.3c-0.4-0.9-1.5-1.2-2.3-0.8L4.4,38.4l6.4,13.2c0.3,0.6,0.9,1,1.6,1
	c0.3,0,0.5-0.1,0.8-0.2c0.9-0.4,1.2-1.5,0.8-2.3l-3.7-7.6c8.8,1.8,15,10.1,13.9,19.2c-0.1,1,0.6,1.8,1.5,1.9c0.1,0,0.1,0,0.2,0
	c0.9,0,1.6-0.7,1.7-1.6C28.9,51.2,21.6,41.3,11,39.1z"/>
<path fill="#009BE7" d="M11,71.1l7.2-3.5c0.9-0.4,1.2-1.5,0.8-2.3c-0.4-0.9-1.5-1.2-2.3-0.8L4.4,70.4l6.4,13.2c0.3,0.6,0.9,1,1.6,1
	c0.3,0,0.5-0.1,0.8-0.2c0.9-0.4,1.2-1.5,0.8-2.3l-3.7-7.6c8.8,1.8,15,10.1,13.9,19.2c-0.1,1,0.6,1.8,1.5,1.9c0.1,0,0.1,0,0.2,0
	c0.9,0,1.6-0.7,1.7-1.6C28.9,83.2,21.6,73.3,11,71.1z"/>
<path fill="#FFFFFF" d="M11,103.1l7.2-3.5c0.9-0.4,1.2-1.5,0.8-2.3c-0.4-0.9-1.5-1.2-2.3-0.8l-12.3,5.9l6.4,13.2
	c0.3,0.6,0.9,1,1.6,1c0.3,0,0.5-0.1,0.8-0.2c0.9-0.4,1.2-1.5,0.8-2.3l-3.7-7.6c8.8,1.8,15,10.1,13.9,19.2c-0.1,1,0.6,1.8,1.5,1.9
	c0.1,0,0.1,0,0.2,0c0.9,0,1.6-0.7,1.7-1.6C28.9,115.2,21.6,105.3,11,103.1z"/>
</svg>
