<?xml version="1.0" standalone="no"?>
<!DOCTYPE svg PUBLIC "-//W3C//DTD SVG 1.1//EN" "http://www.w3.org/Graphics/SVG/1.1/DTD/svg11.dtd" >
<svg xmlns="http://www.w3.org/2000/svg">
<metadata></metadata>
<defs>
<font id="signikasemibold" horiz-adv-x="1128" >
<font-face units-per-em="2048" ascent="1638" descent="-410" />
<missing-glyph horiz-adv-x="467" />
<glyph horiz-adv-x="0" />
<glyph horiz-adv-x="682" />
<glyph unicode="&#xd;" horiz-adv-x="708" />
<glyph unicode=" "  horiz-adv-x="467" />
<glyph unicode="&#x09;" horiz-adv-x="467" />
<glyph unicode="&#xa0;" horiz-adv-x="467" />
<glyph unicode="!" horiz-adv-x="634" d="M151 122q1 76 20 112q30 17 65.5 24.5t74.5 7.5q38 0 74.5 -7t65.5 -25q21 -36 22 -112q0 -51 -10 -85.5t-31 -39.5t-52 -11.5t-69 -6.5q-39 0 -82.5 9.5t-52 15.5t-17 35.5t-8.5 82.5zM168 1393q104 79 296 79l18 -21l-65 -1020q-45 -13 -108 -14q-30 0 -57.5 3.5 t-46.5 10.5z" />
<glyph unicode="&#x22;" horiz-adv-x="896" d="M94 1537.5q0 39.5 12 92.5q53 32 130 31.5t128 -31.5q15 -64 15.5 -98t-13.5 -101q-40 -209 -59 -366q-24 -15 -71 -15t-70 15q-16 151 -44 292t-28 180.5zM520 1537.5q0 39.5 12 92.5q54 32 130.5 31.5t127.5 -31.5q15 -64 15 -98t-13 -101q-40 -209 -59 -366 q-24 -15 -70.5 -15t-70.5 15q-17 151 -44.5 292t-27.5 180.5z" />
<glyph unicode="#" horiz-adv-x="1453" d="M43 415.5q0 63.5 16 112.5h258l79 346h-228q-40 110 0 223h277l64 277q46 19 125 19t122 -19l-63 -277h259l64 277q47 19 127 19t120 -19l-64 -277h205q17 -49 17 -113t-17 -110h-254l-79 -346h224q40 -113 0 -223h-273l-61 -277q-47 -21 -127 -21.5t-121 21.5l62 277 h-259l-63 -277q-44 -21 -123.5 -21.5t-122.5 21.5l61 277h-209q-16 47 -16 110.5zM565 528h260l78 346h-260z" />
<glyph unicode="$" horiz-adv-x="1075" d="M57 205q0 28 10 59.5t24.5 60.5t34 52t38.5 36q220 -118 381 -117q75 0 121.5 30t46.5 83q0 49 -30.5 80t-92.5 54l-206 75q-275 104 -276 327q0 135 87.5 230t235.5 120v172q32 9 101 9q75 0 107 -9v-170q168 -17 334 -92q0 -59 -27.5 -120t-69.5 -97q-192 85 -333 85 q-69 0 -108 -28.5t-39 -75.5q0 -44 28.5 -66.5t93.5 -46.5l200 -74q290 -108 290 -356q0 -140 -103.5 -235t-274.5 -116v-160q-30 -7 -106 -7q-77 0 -102 7v164q-222 28 -365 126z" />
<glyph unicode="%" horiz-adv-x="2022" d="M98 1031q0 128 27.5 214t76 138t111.5 75.5t136 23.5q150 0 244 -94q108 -106 108 -357q0 -232 -91.5 -341t-258.5 -109q-75 0 -139 22.5t-112.5 76t-75 138.5t-26.5 213zM328 1010q0 -51 5.5 -97t18 -80t36 -54.5t61.5 -20.5q39 0 62.5 20.5t36.5 55.5t18 81t5 95 q0 65 -4 120t-17 94t-38.5 60t-66.5 21q-43 1 -75 -39q-12 -19 -20.5 -42t-14 -52.5t-6.5 -69t-1 -92.5zM475 0l803 1455q57 12 145 12q87 0 126 -12l-805 -1455q-56 -12 -146 -12q-88 0 -123 12zM1223 422q0 128 27.5 214t75.5 138.5t112 76t136 23.5q149 0 243 -94 q108 -108 108 -358q0 -230 -91.5 -340t-259.5 -110q-165 0 -258 106.5t-93 343.5zM1453 400q0 -51 5 -96.5t18 -80t36.5 -54.5t61.5 -20t61.5 20t36.5 55.5t18 81.5t5 94q0 66 -4 120.5t-17 94t-38.5 61t-66.5 21.5t-73 -41q-13 -18 -22 -41t-14 -53t-6 -69.5t-1 -92.5z" />
<glyph unicode="&#x26;" horiz-adv-x="1362" d="M96 364q0 81 21 148t58.5 120t87.5 89.5t107 56.5q-95 34 -153.5 120t-58.5 201q0 86 32 157t92.5 122t147 78.5t192.5 27.5q215 0 413 -68q0 -63 -16.5 -115.5t-55.5 -97.5q-89 30 -162 43.5t-130 13.5q-116 0 -168 -49.5t-52 -133.5q0 -191 237 -191h403q126 0 214 36 q37 -42 37 -130q0 -144 -181 -144h-58l3 -316q0 -62 3 -145t11 -187q-30 -10 -62 -13.5t-68 -3.5q-34 0 -67 3.5t-61 11.5l-19 89q-142 -117 -339 -117q-95 0 -171.5 32t-129 86t-80 125.5t-27.5 150.5zM388 407q0 -109 52 -163.5t141 -54.5q145 0 250 92v235v75t2 57h-168 q-137 0 -207 -66t-70 -175z" />
<glyph unicode="'" horiz-adv-x="482" d="M89 1537.5q0 39.5 13 92.5q55 32 131 31.5t127 -31.5q14 -64 14 -98t-12 -101q-41 -209 -59 -366q-24 -15 -71 -15t-70 15q-16 151 -44.5 292t-28.5 180.5z" />
<glyph unicode="(" horiz-adv-x="752" d="M128 688q0 147 28.5 300.5t84 297t134 271.5t178.5 223q116 -38 163 -146q-147 -201 -220.5 -448t-73.5 -498q0 -249 73.5 -496t220.5 -448q-47 -108 -163 -146q-100 97 -179.5 224t-134 270.5t-83 296t-28.5 299.5z" />
<glyph unicode=")" horiz-adv-x="752" d="M38 -256q147 201 220.5 448t73.5 496q0 252 -73.5 498.5t-220.5 447.5q47 108 163 146q100 -95 179.5 -223t134 -272.5t83 -297t28.5 -299.5q0 -144 -29.5 -298t-83 -297.5t-134.5 -271.5t-178 -223q-116 38 -163 146z" />
<glyph unicode="*" horiz-adv-x="1092" d="M85 1138q-4 44 19.5 115.5t53.5 103.5l119 -42q79 -31 205 -120q-45 162 -47 232l-4 128q40 16 114.5 16t114.5 -16l-4 -128q-4 -61 -47 -230q116 81 204 113l122 45q28 -32 51.5 -102.5t21.5 -114.5l-126 -37q-71 -20 -232 -26q126 -104 170 -159l79 -101 q-21 -36 -81 -80t-105 -56l-70 107q-39 57 -98 210q-49 -136 -98 -208l-71 -107q-42 9 -102.5 53t-84.5 81l79 101q45 60 173 159q-153 5 -232 28z" />
<glyph unicode="+" d="M104.5 631q-0.5 70 10.5 115h204l126 -2l-2 128v219q51 10 121 10t121 -10v-219l-2 -128l126 2h205q10 -69 10 -120t-10 -108h-205l-126 2l2 -124v-221q-51 -11 -121 -11t-121 11v221l2 124l-126 -2h-204q-10 43 -10.5 113z" />
<glyph unicode="," horiz-adv-x="602" d="M57 -232q77 30 129 86.5t62 128.5q-77 11 -95.5 42.5t-18.5 106.5q0 53 8.5 78.5t23.5 39.5t59.5 22.5t83.5 8.5q93 1 140 -33q26 -62 26 -156q0 -75 -23.5 -145.5t-67 -131t-108.5 -107.5t-148 -72q-34 17 -53.5 49t-17.5 83z" />
<glyph unicode="-" horiz-adv-x="774" d="M92 570.5q0 68.5 12 114.5h565q12 -46 12 -114.5t-12 -114.5h-565q-12 46 -12 114.5z" />
<glyph unicode="." horiz-adv-x="585" d="M122 130q0 34 5 65t15 55q69 34 150 33q83 0 151 -33q21 -49 21 -120q0 -69 -21 -118q-53 -34 -149 -33q-96 -1 -152 33q-10 24 -15 55t-5 63z" />
<glyph unicode="/" horiz-adv-x="929" d="M8 -156l671 1786q141 -15 239 -92l-670 -1783q-140 10 -240 89z" />
<glyph unicode="0" d="M81 691q0 106 6.5 192t24.5 157.5t47.5 129t74.5 108.5q128 132 331 132q130 0 221.5 -47.5t153.5 -141t85 -227.5t23 -303q0 -173 -23 -306t-84 -226t-153.5 -141t-222.5 -48q-132 0 -223.5 48t-152.5 141t-84.5 226t-23.5 306zM368 691q1 -333 60 -427q41 -79 137 -79 q51 0 88.5 22.5t60.5 79t34.5 154.5t11.5 250q0 150 -11.5 248t-34.5 154.5t-60.5 79t-88.5 22.5t-88.5 -22.5t-61 -79t-35.5 -154.5t-12 -248z" />
<glyph unicode="1" d="M92 961q300 187 408 419q60 10 130.5 10t131.5 -10v-1000l-2 -152l136 2h130q13 -51 13 -113t-13 -117h-847q-13 55 -13 117t13 113h185l128 -2l-2 152v376q0 61 12 254q-119 -138 -293 -213q-96 49 -117 164z" />
<glyph unicode="2" d="M96 171q0 164 256 392l219 195q134 118 134 244q0 81 -48 130.5t-127 49.5t-135 -55.5t-84 -140.5q-57 2 -116 25.5t-85 61.5q21 73 63 135t102 106.5t135.5 70t164.5 25.5q90 0 165 -30t131 -84t87.5 -130.5t31.5 -171.5q0 -65 -16.5 -121t-49 -106.5t-81 -100.5 t-113.5 -105l-157 -135q-158 -134 -191 -207q166 19 303 19h341q0 -119 -37 -179.5t-143 -60.5h-648q-102 102 -102 173z" />
<glyph unicode="3" d="M89 118q24 108 120 183q136 -104 266 -105q137 0 203 67t66 180q0 57 -19.5 97.5t-50.5 66t-70 37.5t-80 12q-71 0 -124 -30q-36 15 -65.5 57.5t-40.5 91.5l230 245q96 96 145 134l-9 13q-81 -24 -225 -23h-279q-17 51 -18 110q0 32 5.5 64t18.5 62h756q58 -106 58 -168 q0 -35 -14 -62t-42 -57l-192 -201q-34 -34 -70 -59q84 -6 152 -36.5t117 -82.5t75.5 -127t26.5 -174q0 -98 -39.5 -180t-107 -140.5t-158 -90.5t-194.5 -32q-272 0 -441 148z" />
<glyph unicode="4" d="M61.5 421.5q-0.5 57.5 40.5 151.5l351 822q60 12 142 -4.5t114 -50.5l-191 -450q-108 -272 -192 -396l6 -8q124 12 264 12h2v171q0 102 50.5 160.5t139.5 58.5h68l13 -12v-244l-2 -134l111 2h83q8 -44 8 -106t-19 -126h-183l2 -134v-134q-61 -10 -137 -10t-134 10v134 l3 134l-137 -4h-340q-62 100 -62.5 157.5z" />
<glyph unicode="5" d="M98 113q8 43 42.5 98t72.5 85q75 -53 144 -78t129 -25q119 0 183 77t64 203q0 114 -67.5 173t-163.5 59q-53 0 -108 -19t-107 -60q-36 8 -76 36.5t-62 59.5l34 644l18 14h746q19 -51 20 -114q0 -120 -119 -120h-405l-17 -250q77 24 149 24q102 0 185 -32t141 -89 t88.5 -140.5t30.5 -185.5q0 -121 -38.5 -215t-110.5 -158t-164.5 -97t-194.5 -33q-256 0 -414 143z" />
<glyph unicode="6" d="M87 688q0 169 38.5 302.5t111 226.5t177 143t238.5 50q196 0 330 -70q-9 -130 -94 -194q-106 45 -215 45q-277 0 -297 -368q128 102 297 102q168 0 271.5 -115t103.5 -346q0 -114 -35 -205t-99 -154.5t-152.5 -99t-194.5 -35.5q-213 1 -337 150q-19 28 -32 40l-34 64 q-42 93 -59.5 210t-17.5 254zM376 579q0 -400 205 -400q96 0 142 71t46 193q0 256 -181 256q-111 0 -212 -92v-28z" />
<glyph unicode="7" d="M110.5 1253q-0.5 68 25.5 127h858q51 -110 51.5 -165.5t-39.5 -113.5l-77 -111q-149 -213 -230 -425.5t-107 -477.5l-6 -87q-45 -10 -138.5 -10t-146.5 10l8 96q45 492 321 875l26 35q64 91 128 150l-9 11q-92 -24 -308 -23h-343q-13 41 -13.5 109z" />
<glyph unicode="8" d="M75 349q0 116 67 209.5t171 152.5q-205 124 -205 328q0 79 35.5 147t97.5 117t145 78t181 29t181 -26.5t142.5 -75t92.5 -115.5t33 -147q0 -189 -203 -302q241 -135 242 -380q0 -92 -39.5 -165t-108 -124t-161 -78t-197.5 -27q-108 0 -195.5 25.5t-149.5 75t-95.5 119.5 t-33.5 159zM356 368q0 -91 57.5 -146.5t149.5 -55.5q91 0 148.5 55.5t57.5 144.5q0 166 -220 243l-47 17h-2q-144 -102 -144 -258zM384 1041q0 -138 210 -204l28 -10q124 79 124 208q0 79 -51.5 127t-129.5 48q-79 0 -130 -48t-51 -121z" />
<glyph unicode="9" d="M81 914q0 116 35 207t99 156t152.5 99t195.5 34q212 -1 336 -150q55 -76 74 -122.5t35 -118.5t24.5 -156.5t8.5 -169.5q0 -165 -37 -299t-109 -227.5t-176.5 -145t-241.5 -51.5q-195 0 -330 71q8 130 93 193q104 -45 216 -45q142 0 215 98.5t79 270.5 q-126 -101 -294 -102q-169 0 -272 113.5t-103 344.5zM360 937q0 -256 181 -256q110 0 211 90v30q0 215 -55.5 307.5t-157.5 92.5q-86 0 -132.5 -71t-46.5 -193z" />
<glyph unicode=":" horiz-adv-x="600" d="M128 130q0 34 5 65t16 55q68 34 149 33q84 0 151 -33q21 -49 22 -120q0 -69 -22 -118q-53 -34 -148 -33q-97 -1 -152 33q-11 24 -16 55t-5 63zM128 809q0 34 5 65t16 55q68 34 149 34q84 0 151 -34q21 -49 22 -120q0 -69 -22 -116q-53 -35 -148 -35q-97 0 -152 35 q-11 24 -16 54.5t-5 61.5z" />
<glyph unicode=";" horiz-adv-x="608" d="M55 -232q77 30 129 86.5t61 128.5q-77 11 -95 42.5t-18 106.5q0 53 8.5 85.5t33 41.5t59.5 15.5t74 6.5q93 1 140 -33q26 -62 26 -156q0 -75 -23.5 -145.5t-67 -131t-108.5 -107.5t-148 -72q-34 17 -53.5 49t-17.5 83zM132 809q0 34 5 65t16 55q69 34 150 34 q83 0 150 -34q21 -49 22 -120q0 -69 -22 -116q-53 -35 -148 -35q-97 0 -152 35q-11 24 -16 54.5t-5 61.5z" />
<glyph unicode="&#x3c;" d="M110 522q-28 122 0 215l772 424q51 -31 88.5 -90t39.5 -126l-445 -232q-64 -36 -171 -74v-17q98 -36 171 -73l445 -232q-6 -65 -42.5 -128t-85.5 -91z" />
<glyph unicode="=" d="M104.5 409q-0.5 68 10.5 115h899q10 -49 10 -116t-10 -114h-899q-10 47 -10.5 115zM104.5 857.5q-0.5 67.5 10.5 115.5h899q10 -48 10 -114.5t-10 -114.5h-899q-10 46 -10.5 113.5z" />
<glyph unicode="&#x3e;" d="M120 317l445 232q89 45 170 75v15q-81 30 -170 74l-445 232q4 66 41 128.5t87 91.5l770 -426q28 -117 0 -215l-773 -424q-51 32 -87 92t-38 125z" />
<glyph unicode="?" horiz-adv-x="870" d="M12 1370q205 115 412 114q211 0 320.5 -101t109.5 -273q0 -273 -277 -419l-132 -71l-19 -187q-24 -9 -50.5 -12.5t-54.5 -3.5q-30 0 -56.5 3.5t-49.5 12.5l-14 317l21 28l110 53q228 108 229 249q0 68 -45 116t-136 48q-51 0 -119 -18.5t-148 -58.5q-18 14 -37 38 t-32.5 51.5t-22.5 57.5t-9 56zM162 118q0 75 21 112q51 32 138 32q39 0 74.5 -7t54.5 -17t26.5 -40t7.5 -80q0 -54 -8.5 -85t-31 -38t-53.5 -14t-70 -7q-38 0 -79 9t-52 16t-19.5 37t-8.5 82z" />
<glyph unicode="@" horiz-adv-x="2055" d="M94 469q0 217 73 397t202 310.5t304 203.5t379 73q205 0 375 -58t291.5 -165.5t190 -261t68.5 -344.5q0 -147 -37.5 -261.5t-99.5 -192.5t-144 -119t-173 -41q-183 0 -277 126q-138 -134 -299 -134q-162 0 -250 131t-88 361q0 115 30 214t87.5 170.5t140.5 112t190 40.5 q115 0 220.5 -45t171.5 -108l-2 -535q0 -128 76 -128q79 0 130 99t51 318q0 141 -46 254t-129.5 193t-205.5 123.5t-271 43.5q-148 0 -273 -58t-215.5 -159.5t-141 -243.5t-50.5 -308t43 -294t122 -214.5t192.5 -130t256.5 -43.5q221 0 426 81q71 -77 70 -191 q-248 -102 -515 -102q-195 0 -356.5 57t-276.5 169t-177.5 277.5t-62.5 382.5zM876 494q0 -281 138 -281q85 0 173 96v475q-55 49 -130 49q-181 0 -181 -339z" />
<glyph unicode="A" horiz-adv-x="1331" d="M30 21l474 1434q79 10 170.5 10t160.5 -12l466 -1434q-60 -37 -145 -37h-2q-86 0 -124 32.5t-63 121.5l-60 194l-104 -2h-299l-104 2l-99 -332q-45 -10 -127 -10t-133 18zM471 556l96 2h183l89 -2l-64 217q-73 242 -115 414h-12q-19 -92 -95 -360z" />
<glyph unicode="B" horiz-adv-x="1298" d="M177 10v1435l14 12q167 4 283 6t184 2q232 0 358 -98.5t126 -286.5q0 -98 -53.5 -179t-143.5 -117q53 -16 102.5 -51.5t85.5 -86t56.5 -110t20.5 -123.5q0 -205 -134.5 -314t-384.5 -109q-79 0 -203 2t-297 6zM460 193q27 2 58 2q16 -1 34 -1q19 -1 38 0q32 0 64 2 q51 2 99 9.5t85.5 35t59.5 72.5t22 115q0 45 -15 86.5t-44.5 73.5t-78 51t-113.5 19h-209v-465zM460 869h186q212 0 212 194q0 83 -30 123t-87 56q-52 14 -120 13h-9h-29q-59 0 -123 3v-389z" />
<glyph unicode="C" horiz-adv-x="1290" d="M89 722q0 191 47 335t127 238.5t187.5 143t228.5 48.5q126 0 227.5 -34t171.5 -93t108.5 -136.5t38.5 -166.5q0 -161 -162 -161q-24 0 -51.5 4t-61.5 12v21q0 71 -15 129t-47 101.5t-82 68t-121 24.5q-156 0 -225.5 -139t-69.5 -422q0 -226 86.5 -351t234.5 -125 q79 0 172 37.5t199 117.5q44 -30 84.5 -83t51.5 -102q-47 -47 -109.5 -86.5t-135 -69t-151 -46.5t-157.5 -17q-159 0 -267 61t-177.5 164t-100.5 239.5t-31 287.5z" />
<glyph unicode="D" horiz-adv-x="1400" d="M177 10v1435l14 12q124 4 249 6t255 2q179 0 297 -57.5t188 -158.5t98.5 -235t28.5 -288q0 -213 -47.5 -367.5t-184.5 -262.5q-63 -55 -173 -80.5t-225 -25.5q-57 0 -177 2t-309 6zM462 213q40 2 92.5 2t105.5 2t99 8.5t76 22.5q55 30 90.5 79t54.5 114t26.5 141t7.5 157 q0 92 -11.5 170.5t-43.5 159.5q-64 171 -264 171h-133t-100 2v-1029z" />
<glyph unicode="E" horiz-adv-x="1213" d="M175 166v1273l14 16h888q11 -54 12 -116q0 -60 -24 -125h-609l2 -147v-219l138 2h361q16 -49 16 -117t-16 -117h-499v-252l-2 -132l149 4h521q0 -69 -6 -104q-24 -136 -183 -136h-598q-77 0 -120.5 45.5t-43.5 124.5z" />
<glyph unicode="F" horiz-adv-x="1126" d="M177 0v1441l14 14h878q13 -49 13 -115t-37 -97t-118 -31h-467l2 -206v-160h485q16 -49 16 -121q0 -67 -16 -116h-485v-609q-57 -10 -141.5 -10t-143.5 10z" />
<glyph unicode="G" horiz-adv-x="1382" d="M89 718q0 195 56 340t147.5 240t211.5 140.5t252 45.5q273 0 500 -153q-6 -61 -45.5 -120t-86.5 -89q-170 122 -358 122q-382 0 -382 -519q0 -524 379 -524h1q118 0 226 25v189q0 47 1 82t3 59h-144q-75 0 -106 30t-31 95q1 56 22 116l330 2q195 0 195 -181v-559 q-253 -89 -555 -89q-153 0 -269.5 53.5t-193 151t-115 236t-38.5 307.5z" />
<glyph unicode="H" horiz-adv-x="1449" d="M177 0v1455q55 10 142.5 10t142.5 -10v-429l-2 -157l115 3h301l112 -3l-2 157v429q55 10 141.5 10t146.5 -10v-1455q-61 -10 -145.5 -10t-142.5 10v475l2 157l-112 -2h-301l-115 2l2 -157v-475q-55 -10 -142.5 -10t-142.5 10z" />
<glyph unicode="I" horiz-adv-x="651" d="M183 0v1455q53 10 139.5 10t146.5 -10v-1455q-59 -10 -146 -10t-140 10z" />
<glyph unicode="J" horiz-adv-x="979" d="M21 71q22 118 103 212q111 -68 216 -68h3q108 0 153 71.5t45 227.5v941q59 10 142 10t144 -10v-910q0 -128 -20.5 -232t-74 -180t-143 -115t-229.5 -39q-189 0 -339 92z" />
<glyph unicode="K" horiz-adv-x="1296" d="M177 0v1455q55 10 142.5 10t142.5 -10v-586l85 3q34 0 51.5 13.5t37.5 51.5l238 422q32 57 63.5 81.5t89 24.5t172.5 -8l17 -22l-289 -517q-49 -87 -104 -132q99 -21 152.5 -82t93.5 -169l100 -285q15 -39 18.5 -46.5t13.5 -32.5q30 -60 47.5 -75t25.5 -23 q-59 -90 -192 -90q-75 0 -112 38t-67 130l-98 280q-39 110 -88.5 155.5t-135.5 45.5q-20 0 -119 -4v-628q-55 -10 -142.5 -10t-142.5 10z" />
<glyph unicode="L" horiz-adv-x="1100" d="M175 166v1287l14 14h107q86 0 126 -43.5t40 -139.5v-1050q92 8 194 8h396q0 -63 -8 -108q-24 -138 -186 -138h-517q-77 0 -121.5 45.5t-44.5 124.5z" />
<glyph unicode="M" horiz-adv-x="1748" d="M136 4l114 1449q87 14 188 14t184 -14l164 -591q66 -264 81 -364h15q14 100 81 364l161 591q90 14 188 14t188 -14l112 -1449q-57 -14 -137 -14t-133 8l-41 683q-17 264 -17 463h-14l-250 -927q-70 -10 -145.5 -10t-146.5 10l-249 927h-15q-4 -262 -17 -463l-40 -683 q-53 -8 -133.5 -8t-137.5 14z" />
<glyph unicode="N" horiz-adv-x="1465" d="M177 0v1451q61 14 161.5 14t175.5 -10l387 -825l138 -315l7 2q-21 309 -22 584v390q0 95 36.5 135.5t121.5 40.5h92l15 -14v-1449q-66 -14 -166.5 -14t-175.5 10l-391 825q-85 187 -128 297l-9 -2q24 -300 24 -579v-541q-59 -10 -135 -10t-131 10z" />
<glyph unicode="O" horiz-adv-x="1409" d="M89 726q0 181 42 322t121.5 237.5t194 147.5t260.5 51q145 0 259 -51t193 -147.5t120.5 -238.5t41.5 -321t-41.5 -319.5t-120.5 -237t-193 -148t-259 -51.5q-232 0 -390 130q-228 195 -228 626zM390 726q0 -533 315 -533t315 533q0 534 -315 534t-315 -534z" />
<glyph unicode="P" horiz-adv-x="1232" d="M177 0v1445l14 12q173 4 289 6t178 2q230 0 367.5 -125.5t137.5 -363.5q0 -120 -36 -211.5t-102 -153.5t-158.5 -94.5t-208.5 -32.5h-196v-484q-60 -10 -143 -10t-142 10zM462 701q83 2 141.5 2t100.5 7.5t70.5 27.5t52.5 61q21 36 31.5 82t10.5 92q0 49 -10.5 97 t-36 86.5t-68.5 62t-106 23.5h-107.5t-78.5 2v-543z" />
<glyph unicode="Q" horiz-adv-x="1409" d="M89 728q0 179 41 319t118.5 237.5t191 148.5t261.5 51q149 0 264 -51t194 -147.5t118.5 -237.5t39.5 -322q0 -256 -82.5 -430t-226.5 -237l51 -35q152 -109 266 -109h2q0 -96 -55.5 -151.5t-143.5 -55.5q-42 0 -90 17t-93 56l-234 189q-156 0 -270.5 52.5t-192 149 t-118.5 237t-41 319.5zM386 728q0 -532 317 -532t317 532t-317 532t-317 -532z" />
<glyph unicode="R" horiz-adv-x="1294" d="M177 0v1445l14 12q173 4 293.5 6t192.5 2q230 0 365.5 -114.5t135.5 -334.5q0 -71 -20 -133.5t-56.5 -112.5t-84.5 -87t-105 -57q55 -19 92 -65.5t65 -121.5l79 -215q19 -53 42.5 -91.5t57.5 -63.5q-28 -39 -80 -62.5t-118 -23.5q-63 0 -102 38t-70 130l-90 254 q-28 74 -70.5 113.5t-127.5 39.5h-130v-558q-30 -4 -66 -7t-79 -3q-79 0 -138 10zM460 780q110 6 196 6q228 0 228 230t-228 230h-113.5t-82.5 2v-468z" />
<glyph unicode="S" horiz-adv-x="1183" d="M47 128q6 59 39.5 120t75.5 97q220 -140 430 -140q102 0 161.5 48t59.5 119q-4 124 -163 195l-252 106q-148 61 -223 158.5t-75 223.5q0 95 37.5 173.5t106.5 135.5t163.5 88.5t210.5 31.5q234 0 459 -116q-6 -130 -99 -218q-216 102 -375 102q-102 0 -156.5 -46.5 t-54.5 -114.5q0 -98 151 -162l252 -106q152 -64 235.5 -169t83.5 -241q0 -96 -34 -178t-103.5 -140.5t-172.5 -91.5t-243 -33q-274 0 -514 158z" />
<glyph unicode="T" horiz-adv-x="1067" d="M18 1336q0 3 -1 5q0 63 11 114h1018q15 -53 15 -116t-36.5 -93t-117.5 -30h-100l-130 2l2 -157v-1061q-61 -10 -143.5 -10t-143.5 10v1061l2 157l-130 -2h-236q-10 54 -10 120z" />
<glyph unicode="U" horiz-adv-x="1428" d="M158 524v929l13 14h106q85 0 125.5 -43.5t40.5 -139.5v-762q0 -323 270 -324q273 0 273 324v933q59 10 142 10q85 0 144 -10v-931q0 -266 -146 -410t-413 -144q-264 0 -409.5 144t-145.5 410z" />
<glyph unicode="V" horiz-adv-x="1258" d="M30 1429q96 43 166 43t106.5 -33t55.5 -108l191 -685q45 -164 87 -378q6 -23 20 -23l309 1210q41 10 119.5 10t136.5 -18l12 -18l-410 -1429q-86 -10 -195.5 -10t-156.5 26.5t-69 105.5z" />
<glyph unicode="W" horiz-adv-x="1869" d="M47 1437q75 35 151.5 35t110.5 -33t49 -122l111 -636q47 -268 55 -352t11.5 -87.5t15.5 -3.5l203 1187q81 14 187.5 14t180.5 -14l185 -1161q4 -26 22 -26q21 181 71 447l140 770q53 10 129.5 10t134.5 -18l15 -18l-294 -1427q-98 -12 -211 -12t-156.5 25.5t-54.5 106.5 l-87 512q-49 297 -73 510h-16q-28 -209 -81 -510l-113 -632q-102 -12 -211 -12t-154 25.5t-61 106.5z" />
<glyph unicode="X" horiz-adv-x="1281" d="M28 30l447 726l-404 654q91 64 192 64t174 -113l223 -362l275 456q47 10 125 10t143 -24l7 -16l-405 -661l449 -719q-91 -64 -193 -64t-177 115l-264 424l-311 -520q-49 -10 -126 -10t-147 22z" />
<glyph unicode="Y" horiz-adv-x="1113" d="M6 1421q90 51 162 51t106.5 -28t60.5 -92l134 -328q55 -144 92 -285h12q34 123 100 294l168 422q49 10 123.5 10t134.5 -18l11 -18l-409 -976v-453q-55 -10 -142.5 -10t-143.5 10v462z" />
<glyph unicode="Z" horiz-adv-x="1215" d="M89 187q0 45 37 100l504 727q77 108 171 215l-6 7q-137 -17 -331 -18h-324q-10 42 -10 102t19 135h912q40 -138 40 -186t-34 -98l-502 -724q-83 -115 -169 -213l6 -6q184 12 291 12h167q149 0 246 45q20 -59 20 -132.5t-51 -113t-140 -39.5h-811q-35 142 -35 187z" />
<glyph unicode="[" horiz-adv-x="787" d="M211 -319v2055l17 14l483 -16q9 -28 9 -87.5t-21 -106.5l-215 -6v-1652l215 -6q21 -47 21 -106t-9 -87l-483 -18z" />
<glyph unicode="\" horiz-adv-x="929" d="M12 1538q98 77 240 92l670 -1786q-96 -75 -239 -89z" />
<glyph unicode="]" horiz-adv-x="787" d="M69 -236q0 53 20 112l216 6v1652l-216 6q-20 57 -20 112.5t10 81.5l482 16l16 -14v-2055l-16 -16l-482 18q-10 28 -10 81z" />
<glyph unicode="^" d="M77 652l338 728q49 13 149.5 13t148.5 -13l339 -728q-48 -12 -131.5 -14t-136.5 14l-136 311q-2 2 -75 204h-17q-72 -198 -74 -204l-137 -311q-53 -14 -136 -13.5t-132 13.5z" />
<glyph unicode="_" horiz-adv-x="1166" d="M-12 -249q0 62 10 107h1171q10 -45 10 -107t-10 -105h-1171q-10 43 -10 105z" />
<glyph unicode="`" horiz-adv-x="847" d="M124 1437q16 53 70 102.5t109 68.5l317 -350q-15 -38 -48 -68.5t-70 -41.5z" />
<glyph unicode="a" horiz-adv-x="1085" d="M77 290q0 90 30.5 157t87.5 111.5t132 68t165 23.5q115 0 179 -7v58q0 161 -155 161h-2q-106 0 -325 -74q-59 66 -71 198q225 96 465 96q161 0 262.5 -89.5t101.5 -270.5v-437q1 -112 61 -157q-11 -39 -39 -81.5t-55 -63.5q-138 17 -203 121q-138 -134 -302 -134 q-83 0 -145.5 27t-104 71.5t-62 102t-20.5 119.5zM352 315q0 -63 32 -98.5t87 -35.5q106 0 200 94v185q-35 2 -66.5 4.5t-61.5 2.5q-94 0 -142.5 -35.5t-48.5 -116.5z" />
<glyph unicode="b" horiz-adv-x="1130" d="M147 53v1500l13 14h104q83 0 118 -38t35 -134v-407q118 89 264 89q183 0 278.5 -148.5t95.5 -408.5q0 -122 -37.5 -220.5t-103.5 -169.5t-159 -109t-204 -38h-6q-220 0 -398 70zM417 203q73 -17 134 -18q104 1 161 91t57 267q0 307 -164 307q-55 0 -100 -22.5t-88 -71.5 v-553z" />
<glyph unicode="c" horiz-adv-x="1006" d="M79 541q0 136 37 238.5t101 170.5t146 102t172 34q93 0 169 -26.5t128 -72.5t80.5 -108t28.5 -129q0 -69 -34.5 -106t-105.5 -37q-64 0 -110 11q0 128 -31.5 194t-124.5 66q-171 0 -171 -354q0 -175 49 -254t158 -79q55 0 119 23.5t133 75.5q34 -21 66.5 -69t41.5 -91 q-73 -73 -178 -116.5t-221 -43.5q-223 0 -338 152.5t-115 418.5z" />
<glyph unicode="d" horiz-adv-x="1136" d="M81 524q0 130 33 232t89.5 174t132 109.5t162.5 37.5q102 0 218 -57v533l14 14h107q83 0 117 -38t34 -134v-1090q0 -130 60 -177q-8 -39 -35 -81.5t-56 -63.5q-139 13 -201 125q-126 -138 -305 -138q-91 0 -160 39.5t-116 110.5t-70.5 173.5t-23.5 230.5zM364 520 q0 -166 44.5 -244t115.5 -78q110 0 192 107v498q-47 30 -90 45.5t-79 15.5q-83 0 -133 -86.5t-50 -257.5z" />
<glyph unicode="e" horiz-adv-x="1059" d="M79 524q0 128 29.5 231t87.5 177t140.5 114t189.5 40q108 0 191.5 -33t141 -93.5t86 -143.5t28.5 -182q0 -53 -6.5 -100.5t-16.5 -94.5h-588q6 -118 54 -185t167 -67q124 0 284 73q62 -63 78 -168q-170 -122 -408 -122q-226 0 -342 140t-116 414zM360 634h353v26 q0 102 -42.5 164t-131.5 62q-167 0 -179 -252z" />
<glyph unicode="f" horiz-adv-x="736" d="M6 959q0 24 2 48t9 52l170 -2q-12 110 -12 166q0 77 25.5 141.5t72 111.5t109.5 74t138 27q151 0 307 -57q0 -117 -63 -185q-119 31 -174 31q-149 0 -149 -163q0 -73 12 -148l291 4q4 -28 7 -52.5t3 -47.5q0 -24 -3 -49.5t-7 -51.5l-271 4v-862q-36 -6 -69.5 -8t-66.5 -2 q-34 0 -67 2t-69 8v860l-184 -2q-7 26 -9 51.5t-2 49.5z" />
<glyph unicode="g" horiz-adv-x="1132" d="M81 532q0 130 33 232.5t89.5 174t131 109.5t159.5 38q175 0 288 -104q59 79 177 91q30 -21 57.5 -63.5t33.5 -78.5q-59 -51 -60 -177v-594q0 -185 -29.5 -306.5t-89.5 -194t-150.5 -101.5t-211.5 -29q-214 0 -385 73q0 51 20 110.5t49 94.5q135 -66 289 -67 q238 0 238 254v83q-122 -96 -262 -96q-188 0 -282.5 147t-94.5 404zM364 528q0 -166 43.5 -243.5t114.5 -77.5q112 0 198 98v483q-92 86 -177 86t-132 -89.5t-47 -256.5z" />
<glyph unicode="h" horiz-adv-x="1156" d="M147 0v1553l13 14h108q84 0 116.5 -38t32.5 -134v-450q149 130 301 130t226 -98.5t74 -265.5v-463q0 -137 45 -203q-69 -60 -164 -60q-92 0 -126 42t-34 131v496q0 96 -23 134.5t-88 38.5q-113 0 -211 -103v-724q-32 -6 -65 -8t-69 -2q-34 0 -68 2t-68 8z" />
<glyph unicode="i" horiz-adv-x="606" d="M49 957q0 47 12 98q49 4 90.5 7t72.5 3h36q96 0 150 -60t54 -164v-841q-32 -6 -67 -8t-71 -2q-37 0 -72 2t-69 8v742q0 116 -94 116h-2h-28q-12 47 -12 99zM122 1357q0 62 20 110q49 29 141 29q53 0 86 -9t48.5 -20.5t19.5 -44t4 -65.5q-6 -108 -26.5 -119t-133.5 -22 q-120 4 -139.5 32t-19.5 109z" />
<glyph unicode="j" horiz-adv-x="621" d="M41 -298q46 20 77 43t50 53.5t28 70t9 95.5v778q0 116 -97 116h-2h-47q-12 47 -12 99q0 47 12 98q55 4 100.5 7t80.5 3h39q91 0 144.5 -60t53.5 -164v-790q0 -118 -14 -203.5t-53.5 -147.5t-109.5 -102.5t-182 -66.5q-71 59 -77 171zM132 1357q0 62 21 110q49 29 141 29 q53 0 85 -9t47 -21.5t20 -44t5 -64.5q-10 -113 -35.5 -123.5t-123.5 -17.5q-115 4 -137.5 31t-22.5 110z" />
<glyph unicode="k" horiz-adv-x="1092" d="M147 0v1553l13 14h108q84 0 116.5 -39t32.5 -133v-726l54 2q37 0 55 34l147 254q57 106 166 106q51 0 153 -4l14 -17l-199 -341q-34 -65 -89 -105q130 -43 185 -187l62 -166q47 -134 102 -174q-75 -86 -187 -86q-64 0 -96 31t-60 106l-72 195q-28 73 -61 98.5t-77.5 25.5 t-96.5 -4v-437q-63 -10 -134.5 -10t-135.5 10z" />
<glyph unicode="l" horiz-adv-x="646" d="M142 250v1303l16 14h106q83 0 117 -39t34 -133v-1092q0 -98 89 -98h67q24 -58 24 -113q0 -56 -7 -84q-130 -18 -206 -18q-124 0 -182 62.5t-58 197.5z" />
<glyph unicode="m" horiz-adv-x="1709" d="M147 0v1055l13 14h104q126 0 153 -132q149 138 296 138q175 0 248 -153q164 153 332 153q136 0 207 -92.5t71 -240.5v-494q0 -137 45 -203q-75 -60 -165 -60t-124 43t-34 130v498q0 171 -113 171q-85 0 -184 -103v-724q-63 -10 -137.5 -10t-138.5 10v654q0 173 -111 173 q-91 -4 -185 -101v-726q-63 -10 -138 -10t-139 10z" />
<glyph unicode="n" horiz-adv-x="1162" d="M147 0v1055l13 14h106q120 0 149 -128q156 134 309 134t226.5 -98.5t73.5 -265.5v-463q0 -137 45 -203q-69 -60 -164 -60q-92 0 -125.5 42t-33.5 131v496q0 96 -23.5 134.5t-88.5 38.5q-113 0 -210 -103v-724q-32 -6 -67.5 -8t-71.5 -2t-71 2t-67 8z" />
<glyph unicode="o" horiz-adv-x="1109" d="M79 528q0 258 123.5 408t350.5 150h3q199 0 324 -119q151 -151 151 -439q0 -128 -32 -231.5t-92.5 -175.5t-150 -111.5t-203.5 -39.5q-113 0 -201 39.5t-149 111.5t-92.5 175.5t-31.5 231.5zM364 528q0 -347 189 -347q192 0 193 347q-1 350 -193 350q-189 0 -189 -350z " />
<glyph unicode="p" horiz-adv-x="1136" d="M147 -445v1500l13 14h78q114 0 158 -104q121 121 292 121h3q174 0 270 -148t96 -406q0 -127 -33.5 -229t-89.5 -174t-132 -110t-163 -38q-111 0 -220 57v-325q0 -96 -33.5 -134.5t-117.5 -38.5h-108zM419 256q94 -62 171 -63q89 0 136 90.5t47 255.5q0 166 -44.5 243.5 t-114.5 77.5q-116 0 -195 -110v-494z" />
<glyph unicode="q" horiz-adv-x="1136" d="M81 532q0 130 33 232.5t89.5 174t131 109.5t159.5 38q168 0 288 -102q61 77 175 89q28 -21 55 -63.5t38 -78.5q-59 -47 -60 -177v-1199l-14 -15h-107q-83 0 -117 38.5t-34 134.5v362q-120 -94 -260 -94q-188 0 -282.5 147t-94.5 404zM364 530q0 -166 44.5 -244.5 t113.5 -78.5q108 0 196 96v487q-90 84 -173 84q-85 0 -133 -88.5t-48 -255.5z" />
<glyph unicode="r" horiz-adv-x="815" d="M85 929q9 38 35.5 80.5t54.5 63.5q172 -21 236 -191q81 189 270 189q71 0 128 -14q0 -149 -67 -260q-33 10 -99 14q-124 0 -200 -132v-679q-63 -10 -137 -10t-142 10v709q0 151 -79 220z" />
<glyph unicode="s" horiz-adv-x="937" d="M53 75q2 47 26.5 103t56.5 88q169 -91 297 -91q70 0 113.5 27.5t43.5 74.5q0 75 -115 119l-119 45q-269 98 -269 313q0 77 29 137.5t81.5 104t124.5 67t162 23.5q40 0 90 -6.5t101 -18t98 -26.5t81 -31q0 -53 -21.5 -111t-57.5 -86q-169 75 -291 75q-56 0 -88 -26.5 t-32 -69.5q0 -65 107 -105l130 -47q141 -48 209 -133.5t68 -197.5q0 -151 -113 -242t-324 -91q-207 1 -388 105z" />
<glyph unicode="t" horiz-adv-x="772" d="M15 963q0 54 11 96l161 -2v153q0 93 34.5 131.5t117.5 38.5h106l15 -12v-313l258 4q12 -51 12 -100.5t-12 -100.5l-258 4v-559q0 -98 91 -98h132q21 -63 21 -121q0 -4 1 -9q0 -50 -6 -67q-130 -18 -256 -18q-256 0 -256 260v610l-161 -2q-11 45 -11 105z" />
<glyph unicode="u" horiz-adv-x="1166" d="M94 1014q70 59 162.5 59t126.5 -43.5t34 -130.5v-497q0 -91 23.5 -130.5t87.5 -39.5q114 0 211 98v727q47 10 137.5 10t141.5 -10v-756q0 -126 59 -177q-10 -39 -36.5 -79.5t-56.5 -61.5q-156 15 -215 151q-165 -153 -338 -153q-143 0 -218 100t-75 264v466 q0 132 -44 203z" />
<glyph unicode="v" horiz-adv-x="996" d="M0 1035q85 40 158 40q126 0 155 -125l120 -432q24 -77 63 -284q5 -17 22 -17l217 840q43 10 113 10t132 -21l8 -13q-209 -726 -311 -1033q-94 -12 -192.5 -12t-141 28.5t-68.5 113.5z" />
<glyph unicode="w" horiz-adv-x="1575" d="M28 1041q83 34 150 34t98 -28.5t41 -87.5l81 -392q43 -209 62 -343q4 -17 17 -17l147 843q66 13 166 13t162 -13l147 -826q2 -17 17 -17q38 221 66 360l107 490q44 12 126.5 12t128.5 -23l9 -17l-256 -1029q-71 -10 -182 -10t-152 25.5t-54 108.5l-47 262 q-42 245 -67 421h-13q-14 -110 -71 -419l-72 -388q-75 -10 -185.5 -10t-152.5 27.5t-61 110.5z" />
<glyph unicode="x" horiz-adv-x="1002" d="M17 28l330 513l-304 473q89 63 189 63q51 0 81 -20t59 -67l148 -224l177 291q45 12 111 12t137 -19l7 -21l-300 -466l340 -518q-93 -62 -187 -62t-149 83l-174 266l-199 -332q-41 -12 -121.5 -12t-135.5 22z" />
<glyph unicode="y" horiz-adv-x="1028" d="M6 -426q-1 9 -1 18q0 39 14 88q17 60 44 92q94 -30 177 -30q165 0 231 217l8 29q-81 2 -127.5 29.5t-66.5 92.5l-264 925q87 40 155.5 40t101.5 -26.5t52 -93.5l121 -451q13 -48 63 -295q2 -15 18 -16l210 864q48 12 122.5 12t137.5 -21l10 -17l-273 -1001 q-70 -254 -178 -375.5t-323 -121.5q-119 0 -232 41z" />
<glyph unicode="z" horiz-adv-x="953" d="M63 143q0 49 41 105l298 402q33 43 171 204l-6 8q-124 -14 -275 -14h-192q-11 46 -11 96t17 113h729q37 -109 37 -157t-31 -87l-300 -406q-94 -122 -165 -198l8 -11q83 10 183 11h87q143 0 213 33q28 -68 27 -116q0 -126 -159 -126h-637q-35 94 -35 143z" />
<glyph unicode="{" horiz-adv-x="793" d="M79 696q0 56 15 90q77 17 126.5 85t49.5 155v352q0 153 88.5 247t235.5 117l126 20q28 -30 45 -89t6 -94l-117 -39q-102 -32 -103 -164v-345q0 -106 -50 -197.5t-133 -128.5v-17q83 -38 133 -129.5t50 -198.5v-345q0 -133 103 -164l117 -38q10 -37 -6.5 -95.5 t-44.5 -89.5l-126 20q-147 24 -235.5 117t-88.5 247v352q0 87 -49.5 155.5t-126.5 85.5q-15 35 -15 91z" />
<glyph unicode="|" horiz-adv-x="559" d="M149 -301v1949q51 11 130 11t130 -11v-1949q-49 -12 -130 -12t-130 12z" />
<glyph unicode="}" horiz-adv-x="793" d="M24 -187l116 38q104 35 105 164v345q0 106 50 198t133 130v17q-83 37 -133 128.5t-50 197.5v345q0 130 -105 164l-116 39q-8 36 7.5 94.5t43.5 88.5l126 -20q146 -24 235.5 -117t89.5 -247v-352q0 -89 50 -156t127 -84q13 -34 13 -90.5t-13 -90.5q-77 -16 -127 -85 t-50 -156v-352q0 -156 -89.5 -248t-235.5 -116l-126 -20q-28 32 -44 90t-7 95z" />
<glyph unicode="~" horiz-adv-x="1298" d="M75 569l35 61q120 203 321 203q83 0 185 -43l172 -79q58 -26 102 -26q35 -2 63.5 16.5t58.5 48.5l47 51q47 -4 96.5 -33t69.5 -73l-36 -63q-120 -202 -320 -201q-42 2 -89 10t-97 32l-171 78q-53 24 -103 24q-62 2 -122 -61l-47 -52q-47 4 -96.5 33t-68.5 74z" />
<glyph unicode="&#xa1;" horiz-adv-x="634" d="M153 -396l64 1022q21 6 50 9.5t59 3.5q62 0 105 -13l36 -965q-106 -77 -296 -76zM164 933q0 53 8.5 84t32 41.5t52 14.5t66.5 4q39 0 69 -5t55.5 -16.5t31 -41.5t7.5 -81q-1 -76 -22 -110q-51 -33 -141 -33q-36 0 -65.5 4.5t-53 16.5t-32 40.5t-8.5 81.5z" />
<glyph unicode="&#xa2;" horiz-adv-x="990" d="M71 705q0 226 97.5 362t253.5 173v211q37 10 102 10q66 0 104 -10v-207q69 -13 124 -44t93.5 -73.5t60 -93.5t21.5 -106q0 -156 -149 -156q-45 2 -62 4.5t-41 14.5q0 252 -157 251q-160 0 -160 -342q0 -341 211 -341q110 0 240 98q34 -24 67 -68.5t42 -84.5 q-104 -124 -296 -163v-209q-30 -6 -104 -6q-77 0 -103 6v211q-92 19 -158 67.5t-107.5 122t-60 168t-18.5 205.5z" />
<glyph unicode="&#xa3;" horiz-adv-x="1136" d="M96 656.5q0 59.5 14 101.5q19 0 59 -1t61 -1q-47 108 -55 130q-24 71 -24 136q0 151 117.5 269.5t329.5 118.5q134 0 250.5 -49t188.5 -117q-8 -53 -50 -104t-95 -69q-138 108 -274 109q-86 0 -139 -48t-53 -130q0 -73 66 -246l375 2q15 -40 15 -101t-15 -101 q-229 0 -345 2q-8 -180 -124 -334l7 -7q191 13 341 13h323q0 -59 -4 -94q-26 -138 -187 -138h-738q-32 144 -32 190t34 91l33 47q87 127 95 230h-160q-14 41 -14 100.5z" />
<glyph unicode="&#xa4;" horiz-adv-x="1240" d="M57 294l150 164q-69 106 -69 251q0 147 69 254l-150 163q45 84 146 146l167 -154q55 30 118 43.5t130 13.5q134 0 246 -57l175 158q89 -55 146 -146l-152 -169q65 -106 66 -252q0 -140 -70 -251l151 -166q-51 -87 -145 -145l-173 156q-106 -55 -244 -55q-136 0 -244 55 l-171 -154q-90 51 -146 145zM415 711q0 -110 51.5 -184t153.5 -74t153.5 71.5t51.5 186.5q0 116 -51.5 187t-153.5 71t-153.5 -71t-51.5 -187z" />
<glyph unicode="&#xa5;" horiz-adv-x="1134" d="M43 1352q97 49 163 49.5t95 -22t51 -76.5l125 -304q35 -85 92 -269h10q49 164 100 274l162 378q47 13 116 13t132 -17l10 -15l-235 -511h152q13 -57 13 -92.5t-13 -86.5h-234l-71 -153h305q13 -57 13 -92.5t-13 -86.5h-315v-341q-57 -10 -138 -10t-137 10v341h-313 q-12 41 -12.5 86.5t12.5 92.5h300l-68 153h-232q-12 40 -12.5 86t12.5 93h153z" />
<glyph unicode="&#xa6;" horiz-adv-x="547" d="M145 -301v825q51 11 127.5 11t129.5 -11v-825q-50 -12 -129.5 -12t-127.5 12zM145 825v823q51 11 127.5 11t129.5 -11v-823q-50 -13 -129.5 -13t-127.5 13z" />
<glyph unicode="&#xa7;" horiz-adv-x="1049" d="M61 590q0 183 216 315q-141 98 -141 245q0 73 30 134.5t84.5 106t127.5 69t163 24.5q177 0 341 -76q0 -63 -24.5 -115.5t-54.5 -78.5q-151 63 -232 64q-158 0 -158 -98q0 -70 109 -111l121 -49q166 -68 256.5 -150t90.5 -214q0 -185 -217 -315q144 -100 145 -247 q0 -75 -30 -136.5t-86 -105t-136 -68t-178 -24.5q-203 0 -352 89q0 62 24.5 115t56.5 77q167 -75 285 -75q62 0 100.5 26.5t38.5 70.5q0 37 -27.5 63.5t-81.5 50.5l-123 51q-167 68 -257.5 150t-90.5 212zM330 639q0 -64 52.5 -105.5t160.5 -84.5l49 -18q130 65 130 176 q0 62 -54 105.5t-156 84.5l-50 18q-132 -68 -132 -176z" />
<glyph unicode="&#xa8;" horiz-adv-x="847" d="M79 1317q0 55 17 95q49 30 121 29q69 0 122 -29q17 -46 17 -97q0 -41 -7.5 -69t-26.5 -37.5t-45.5 -13.5t-59.5 -4q-34 0 -65.5 6t-55.5 24q-11 21 -14 45.5t-3 50.5zM492 1317q0 55 17 95q48 30 121 29q69 0 122 -29q17 -46 17 -97q0 -41 -7.5 -69t-26.5 -37.5 t-46 -13.5t-59 -4q-34 0 -66 6t-55 24q-11 21 -14 45.5t-3 50.5z" />
<glyph unicode="&#xa9;" horiz-adv-x="1693" d="M77 726q0 162 59.5 302.5t162.5 245t243.5 165.5t303.5 61q162 0 303.5 -60t246 -164.5t163.5 -246t59 -303.5t-59 -302.5t-163.5 -244.5t-246 -164t-303.5 -60q-326 0 -548 222q-221 225 -221 549zM294 726q0 -122 41 -228t115 -184t175 -123.5t221 -45.5 q119 0 221 45.5t177 123.5t116.5 184.5t41.5 227.5q0 122 -41.5 227.5t-116.5 185t-177 125.5t-221 46q-239 0 -397 -170q-156 -169 -155 -414zM479 742q0 97 31 172.5t82 127t117 78t137 26.5q72 0 132.5 -20t102 -54.5t65 -80.5t23.5 -97q0 -115 -119 -114q-51 0 -83 12 v21q0 71 -30 120t-94 49q-140 0 -140 -249t181 -249q81 0 189 77q28 -17 52.5 -54.5t30.5 -71.5q-50 -53 -137.5 -88.5t-170.5 -35.5q-96 0 -165 30.5t-115 88.5t-67.5 137t-21.5 175z" />
<glyph unicode="&#xaa;" horiz-adv-x="939" d="M83 854q0 142 92.5 214t241.5 72l139 -6v55q0 57 -33 85.5t-82 28.5q-104 0 -258 -53q-57 64 -59 156q185 79 374 78q130 0 214.5 -71t84.5 -218v-333q0 -96 55 -132q-4 -34 -30.5 -70t-59.5 -51q-108 7 -166 94q-120 -104 -247 -105q-61 0 -110.5 20.5t-84 55.5t-53 82 t-18.5 98zM311 878q0 -41 24.5 -73t73.5 -32q75 0 147 66v143q-34 2 -60.5 3t-48.5 1q-61 0 -98.5 -28.5t-37.5 -79.5z" />
<glyph unicode="&#xab;" horiz-adv-x="1254" d="M57.5 543q-0.5 49 15.5 83l421 398q45 -12 91 -55.5t61 -88.5l-280 -333l288 -338q-14 -45 -61.5 -87.5t-94.5 -55.5l-425 394q-15 34 -15.5 83zM586.5 543q-0.5 49 14.5 83l421 398q45 -12 91 -55.5t60 -88.5l-279 -333l288 -338q-14 -45 -61.5 -87.5t-94.5 -55.5 l-425 394q-14 34 -14.5 83z" />
<glyph unicode="&#xac;" d="M94 641q0 68 10 117h895l15 -14v-488q-45 -11 -116 -11t-129 11v157l2 117l-123 -2h-544q-10 45 -10 113z" />
<glyph unicode="&#xad;" horiz-adv-x="774" d="M92 570.5q0 68.5 12 114.5h565q12 -46 12 -114.5t-12 -114.5h-565q-12 46 -12 114.5z" />
<glyph unicode="&#xae;" horiz-adv-x="1270" d="M66 1012q0 120 45 224t121.5 182t180 122.5t221.5 44.5q120 0 224.5 -44.5t182 -122.5t122 -183t44.5 -223q0 -120 -44.5 -224.5t-122 -181t-182 -121t-224.5 -44.5q-236 0 -404 164q-164 169 -164 407zM234 1012q0 -87 31 -163t84 -131.5t126.5 -88.5t158.5 -33 q86 0 160.5 33t128 89.5t84 132.5t30.5 161t-30.5 160.5t-85 133t-128 90.5t-159.5 33q-169 0 -285 -122q-115 -121 -115 -295zM419 756v526l7 4l224 7q108 0 159 -44t51 -109q0 -64 -30.5 -100t-75.5 -48q38 -19 71 -80l25 -52q20 -45 49 -61q-41 -53 -96 -53 q-28 0 -53.5 14.5t-42.5 48.5l-49 96q-18 38 -60 38h-29v-187q-15 -6 -33 -8t-40 -2q-21 0 -41 2t-36 8zM569 1057q32 4 56.5 4t42 4t27.5 16t10 37q0 61 -69 62h-67v-123z" />
<glyph unicode="&#xaf;" horiz-adv-x="847" d="M98 1323q0 59 12 106h629q11 -49 11 -106t-11 -102h-629q-12 43 -12 102z" />
<glyph unicode="&#xb0;" horiz-adv-x="721" d="M34 1106q0 70 24.5 130.5t68.5 104t103.5 68t129.5 24.5q71 0 130 -24.5t104 -69t69.5 -104.5t24.5 -129q0 -71 -24.5 -131.5t-68.5 -104t-104 -68t-131 -24.5q-143 0 -234 91q-92 92 -92 237zM234 1106q0 -66 33.5 -107.5t92.5 -41.5q57 0 91.5 41t34.5 108 q0 65 -34.5 106.5t-91.5 41.5q-26 0 -50.5 -11t-41.5 -29q-16 -21 -25 -49.5t-9 -58.5z" />
<glyph unicode="&#xb1;" d="M128 108.5q0 57.5 10 108.5h852q10 -51 10 -108.5t-10 -108.5h-852q-10 51 -10 108.5zM128 757q0 54 10 105h188l121 -2l-2 130v171q51 10 120 10t118 -10v-171l-2 -130l122 2h187q10 -51 11 -105t-11 -105h-187l-122 2l2 -128v-172q-49 -11 -118 -11t-120 11v172l2 128 l-121 -2h-188q-10 51 -10 105z" />
<glyph unicode="&#xb2;" horiz-adv-x="894" d="M98 839q-2 106 152 234l174 145q75 61 74 130q0 40 -26.5 66.5t-66.5 26.5q-86 0 -120 -108q-24 0 -49 7.5t-50.5 18.5t-45.5 24.5t-30 28.5q26 102 111.5 170t215.5 68q63 0 120 -22t98.5 -59t66 -87.5t24.5 -105.5t-11 -99t-33.5 -80t-55 -69t-75.5 -67l-120 -92 q-104 -79 -108 -85q104 21 208 21h220q0 -100 -25.5 -154t-115.5 -54h-455q-77 98 -77 142z" />
<glyph unicode="&#xb3;" horiz-adv-x="894" d="M94 788q14 88 93 155q55 -36 102.5 -51.5t84.5 -15.5q71 0 107.5 38t36.5 88q0 65 -39.5 94.5t-88.5 29.5q-41 0 -71 -14q-28 10 -56.5 48.5t-36.5 75.5l154 142q18 17 40.5 34t50.5 35l-7 8q-57 -13 -168 -14h-156q-12 39 -12 93q0 59 19 102h532q24 -43 35.5 -76 t11.5 -62q0 -56 -49 -94l-110 -99q-13 -12 -58 -39q108 -7 179.5 -82.5t71.5 -203.5q0 -64 -28.5 -117.5t-76.5 -91.5t-112 -59t-134 -21q-192 0 -315 97z" />
<glyph unicode="&#xb4;" horiz-adv-x="847" d="M240 1258l321 350q55 -17 107 -66t71 -105l-381 -289q-86 27 -118 110z" />
<glyph unicode="&#xb6;" horiz-adv-x="1516" d="M73 999q0 234 137 350t369 116q37 0 107 -2t178 -6l16 -16v-1256q6 -274 -102.5 -395.5t-349.5 -126.5q-20 0 -69.5 3.5t-99.5 11t-88.5 18t-38.5 27.5q0 43 17 102.5t44 95.5q64 -21 119.5 -33t102.5 -12q89 0 136 57t47 199v386h-31q-108 0 -200 30.5t-157 91.5 t-101 151.5t-36 207.5zM1014 -279v1718l12 16h441q15 -39 15 -122q0 -81 -15 -119h-70h-100v-1493q-55 -12 -145 -13q-87 0 -138 13z" />
<glyph unicode="&#xb7;" horiz-adv-x="677" d="M177 607q0 77 19 119q61 34 141 34q79 0 142 -34q19 -51 19 -119q0 -72 -19 -117q-53 -34 -142 -34q-88 0 -141 34q-19 40 -19 117z" />
<glyph unicode="&#xb8;" horiz-adv-x="847" d="M228 -439q2 77 51 128q40 -28 103 -28q85 0 85 71q0 38 -26 54t-55 16q-26 0 -45 -7q-32 17 -43 43q11 42 25 81.5t31 80.5h155q-11 -21 -20.5 -38t-13.5 -35q96 -6 151 -57t55 -140q0 -45 -21 -83.5t-58 -68t-86 -47t-105 -17.5q-116 0 -183 47z" />
<glyph unicode="&#xb9;" horiz-adv-x="894" d="M98 1329q115 71 180 139t110 166q51 10 107 10t112 -10v-731h175q10 -41 10 -101t-10 -101h-618q-8 45 -8 102t8 100h216v256q0 36 8 160q-55 -73 -185 -132q-84 40 -105 142z" />
<glyph unicode="&#xba;" horiz-adv-x="925" d="M81 1039q0 98 25.5 180t73.5 141t119 91.5t163 32.5q158 0 258 -94q126 -125 126 -351q0 -96 -23.5 -175.5t-71.5 -139t-120.5 -93t-168.5 -33.5t-168 33.5t-119 93t-70.5 139t-23.5 175.5zM315 1041q0 -264 147 -263q148 0 150 263q-2 264 -150 264q-147 0 -147 -264z " />
<glyph unicode="&#xbb;" horiz-adv-x="1254" d="M71 882q14 45 61 87.5t94 54.5l428 -396q13 -32 13 -81t-13 -83l-422 -398q-47 12 -91.5 56t-59.5 89l277 332zM598 882q15 45 62 87.5t94 54.5l428 -396q13 -32 13 -81t-13 -83l-422 -398q-47 12 -91.5 56t-59.5 89l277 332z" />
<glyph unicode="&#xbc;" horiz-adv-x="2134" d="M66 1152q115 71 180 139t110 166q51 10 107 10t112 -10v-731h175q10 -41 10 -101t-10 -101h-618q-8 45 -8 102t8 100h216v256q0 36 8 160q-55 -73 -185 -132q-84 40 -105 142zM603 0l805 1455q55 12 143.5 12t124.5 -12l-803 -1455q-57 -12 -144.5 -12t-125.5 12z M1317 293.5q0 44.5 31 115.5l245 543q53 6 120.5 -8t101.5 -41l-134 -294q-75 -175 -136 -251l4 -5q85 8 157 9v90q0 79 42.5 123t117.5 44h57l9 -8v-114l-3 -135h120q8 -34 8 -85t-16 -109h-45l-67 2v-157q-42 -10 -107.5 -10t-115.5 10v61l2 96l-104 -4h-236 q-51 83 -51 127.5z" />
<glyph unicode="&#xbd;" horiz-adv-x="2134" d="M66 1152q115 71 180 139t110 166q51 10 107 10t112 -10v-731h175q10 -41 10 -101t-10 -101h-618q-8 45 -8 102t8 100h216v256q0 36 8 160q-55 -73 -185 -132q-84 40 -105 142zM575 0l805 1455q55 12 143.5 12t124.5 -12l-803 -1455q-57 -12 -144.5 -12t-125.5 12z M1370 151q-2 106 152 234l174 145q75 61 74 130q0 40 -26.5 66.5t-66.5 26.5q-86 0 -120 -108q-24 0 -49 7.5t-50.5 18.5t-45.5 24.5t-30 28.5q26 102 111.5 170t215.5 68q63 0 120 -22t98.5 -59t66 -87.5t24.5 -105.5t-11 -99t-33.5 -80t-55 -69t-75.5 -67l-120 -92 q-104 -79 -108 -85q104 21 208 21h220q0 -100 -25.5 -154t-115.5 -54h-455q-77 98 -77 142z" />
<glyph unicode="&#xbe;" horiz-adv-x="2134" d="M98 611q14 88 93 155q55 -36 102.5 -51.5t84.5 -15.5q71 0 107.5 38t36.5 88q0 65 -39.5 94.5t-88.5 29.5q-41 0 -71 -14q-28 10 -56.5 48.5t-36.5 75.5l154 142q18 17 40.5 34t50.5 35l-7 8q-57 -13 -168 -14h-156q-12 39 -12 93q0 59 19 102h532q24 -43 35.5 -76 t11.5 -62q0 -56 -49 -94l-110 -99q-13 -12 -58 -39q108 -7 179.5 -82.5t71.5 -203.5q0 -64 -28.5 -117.5t-76.5 -91.5t-112 -59t-134 -21q-192 0 -315 97zM553 0l805 1455q55 12 143.5 12t124.5 -12l-803 -1455q-57 -12 -144.5 -12t-125.5 12zM1289 293.5q0 44.5 31 115.5 l245 543q53 6 120.5 -8t101.5 -41l-134 -294q-75 -175 -136 -251l4 -5q85 8 157 9v90q0 79 42.5 123t117.5 44h57l9 -8v-114l-3 -135h120q8 -34 8 -85t-16 -109h-45l-67 2v-157q-42 -10 -107.5 -10t-115.5 10v61l2 96l-104 -4h-236q-51 83 -51 127.5z" />
<glyph unicode="&#xbf;" horiz-adv-x="870" d="M28 -57q0 264 277 417l132 73l19 187q23 6 48.5 10t56.5 4q28 0 55 -4t51 -10l14 -317l-23 -28l-111 -53q-110 -54 -169 -114.5t-59 -133.5q0 -69 48 -118t142 -49q51 0 116.5 17.5t140.5 60.5q19 -15 38 -38.5t32.5 -51t23 -57t9.5 -55.5q-204 -116 -413 -116 q-207 0 -317.5 101.5t-110.5 274.5zM396 933q0 51 7.5 79.5t30 41.5t52.5 18t70 5q39 0 68.5 -4t53 -14.5t32 -41.5t8.5 -84q0 -78 -19 -110q-55 -33 -146 -33q-38 0 -67.5 5.5t-51 18.5t-30 41.5t-8.5 77.5z" />
<glyph unicode="&#xc0;" horiz-adv-x="1331" d="M30 21l474 1434q79 10 170.5 10t160.5 -12l466 -1434q-61 -37 -147.5 -36.5t-124 32.5t-62.5 121l-60 194l-104 -2h-299l-104 2l-99 -332q-45 -10 -127 -10t-133 18zM370 1746q4 59 40 122t74 93l454 -274q-16 -98 -81 -136zM471 556l96 2h183l89 -2l-64 217 q-73 242 -115 414h-12q-19 -92 -95 -360z" />
<glyph unicode="&#xc1;" horiz-adv-x="1331" d="M30 21l474 1434q79 10 170.5 10t160.5 -12l466 -1434q-61 -37 -147.5 -36.5t-124 32.5t-62.5 121l-60 194l-104 -2h-299l-104 2l-99 -332q-45 -10 -127 -10t-133 18zM431 1687l453 274q39 -30 75.5 -92.5t40.5 -122.5l-488 -195q-30 16 -53.5 56.5t-27.5 79.5zM471 556 l96 2h183l89 -2l-64 217q-73 242 -115 414h-12q-19 -92 -95 -360z" />
<glyph unicode="&#xc2;" horiz-adv-x="1331" d="M30 21l474 1434q79 10 170.5 10t160.5 -12l466 -1434q-61 -37 -147.5 -36.5t-124 32.5t-62.5 121l-60 194l-104 -2h-299l-104 2l-99 -332q-45 -10 -127 -10t-133 18zM301 1666l250 249q121 26 236 0l241 -230q-12 -41 -45.5 -73t-67.5 -45l-245 158l-251 -179 q-35 13 -71.5 47.5t-46.5 72.5zM471 556l96 2h183l89 -2l-64 217q-73 242 -115 414h-12q-19 -92 -95 -360z" />
<glyph unicode="&#xc3;" horiz-adv-x="1331" d="M30 21l474 1434q79 10 170.5 10t160.5 -12l466 -1434q-61 -37 -147.5 -36.5t-124 32.5t-62.5 121l-60 194l-104 -2h-299l-104 2l-99 -332q-45 -10 -127 -10t-133 18zM265 1689l19 41q79 172 243 172q32 2 63.5 -9t68.5 -27l109 -51q17 -9 33 -14.5t33 -5.5q44 -2 83 52 l22 27q42 0 83 -23.5t57 -59.5l-20 -41q-81 -172 -242 -171q-67 -1 -132 35l-109 52q-15 8 -32 13.5t-34 5.5q-45 2 -83 -51l-21 -30q-43 2 -84.5 25.5t-56.5 59.5zM471 556l96 2h183l89 -2l-64 217q-73 242 -115 414h-12q-19 -92 -95 -360z" />
<glyph unicode="&#xc4;" horiz-adv-x="1331" d="M30 21l474 1434q79 10 170.5 10t160.5 -12l466 -1434q-61 -37 -147.5 -36.5t-124 32.5t-62.5 121l-60 194l-104 -2h-299l-104 2l-99 -332q-45 -10 -127 -10t-133 18zM295 1693q0 64 24 100q47 30 112 30q26 0 51.5 -5t50 -12.5t34 -35.5t9.5 -75t-8.5 -73.5t-34 -35.5 t-51 -14t-51.5 -5q-59 2 -97.5 20.5t-38.5 105.5zM471 556l96 2h183l89 -2l-64 217q-73 242 -115 414h-12q-19 -92 -95 -360zM764 1695q0 43 10.5 71.5t33.5 37.5t49.5 14t52.5 5q63 0 116 -30q24 -36 23 -100q0 -43 -9.5 -70.5t-31 -35.5t-45.5 -14t-53 -6q-26 0 -52.5 6 t-49.5 15t-33.5 35.5t-10.5 71.5z" />
<glyph unicode="&#xc5;" horiz-adv-x="1331" d="M30 21l474 1434h8q-122 73 -122 215q0 53 21.5 101t58 82.5t88 54t113.5 19.5q61 0 112.5 -19.5t88.5 -54t57.5 -82.5t20.5 -101q0 -142 -123 -215h8l466 -1436q-61 -37 -149 -36q-42 0 -72 7.5t-50 24.5t-35 47t-28 74l-60 194l-149 -2h-254l-104 2l-99 -332 q-49 -10 -128 -10q-81 0 -132 18zM471 556l94 2h185l89 -2l-64 217q-37 121 -66.5 224.5t-48.5 189.5h-12q-10 -47 -34 -136.5t-61 -223.5zM565 1670q0 -51 31.5 -81t80.5 -30t72.5 35.5t23.5 77.5q0 43 -25.5 77t-76.5 34q-47 0 -76.5 -32t-29.5 -81z" />
<glyph unicode="&#xc6;" horiz-adv-x="1878" d="M21 21l662 1408q57 26 173 26h886q10 -53 10.5 -114t-22.5 -127h-614l2 -147v-219q53 2 138 2h365q17 -49 17 -117t-17 -117h-503v-250l-2 -134q89 4 150 4h525q0 -69 -6 -104q-24 -136 -183 -136h-598q-77 0 -120 44.5t-43 125.5v164q-32 -2 -93 -2h-190q-65 0 -100 2 l-149 -330q-41 -10 -136.5 -10t-142.5 18zM561 553l75 3h110l95 -3v634h-10q-85 -226 -148 -360z" />
<glyph unicode="&#xc7;" horiz-adv-x="1290" d="M89 722q0 191 47 335t127 238.5t187.5 143t228.5 48.5q126 0 227.5 -34t171.5 -93t108.5 -136.5t38.5 -166.5q0 -161 -162 -161q-24 0 -51.5 3.5t-61.5 12.5v21q0 71 -15 129t-47 101.5t-82 68t-121 24.5q-156 0 -225.5 -139t-69.5 -422q0 -226 86.5 -351t234.5 -125 q79 0 172 37.5t199 117.5q44 -30 84.5 -83t51.5 -102q-81 -81 -206.5 -140t-263.5 -75q-15 -26 -22 -47q96 -6 151.5 -57t55.5 -140q0 -45 -21.5 -83.5t-59 -68t-86 -47t-104.5 -17.5q-115 0 -180 47q2 79 48 128q41 -28 102 -28q86 0 86 71q0 38 -23.5 54t-58.5 16 q-26 0 -44 -7q-32 17 -43 43q8 36 19 70.5t24 65.5q-139 12 -233.5 80t-155.5 170t-87.5 230.5t-26.5 267.5z" />
<glyph unicode="&#xc8;" horiz-adv-x="1213" d="M175 166v1273l14 16h888q11 -53 11.5 -114t-23.5 -127h-609l2 -147v-219l138 2h361q16 -49 16 -117t-16 -117h-499v-252l-2 -132l149 4h521q0 -69 -6 -104q-24 -136 -183 -136h-598q-77 0 -120.5 45.5t-43.5 124.5zM333 1746q4 59 40 122t74 93l454 -274 q-16 -98 -81 -136z" />
<glyph unicode="&#xc9;" horiz-adv-x="1213" d="M175 166v1273l14 16h888q11 -53 11.5 -114t-23.5 -127h-609l2 -147v-219l138 2h361q16 -49 16 -117t-16 -117h-499v-252l-2 -132l149 4h521q0 -69 -6 -104q-24 -136 -183 -136h-598q-77 0 -120.5 45.5t-43.5 124.5zM396 1687l453 274q39 -30 75.5 -92.5t40.5 -122.5 l-488 -195q-30 16 -53.5 56.5t-27.5 79.5z" />
<glyph unicode="&#xca;" horiz-adv-x="1213" d="M175 166v1273l14 16h888q11 -53 11.5 -114t-23.5 -127h-609l2 -147v-219l138 2h361q16 -49 16 -117t-16 -117h-499v-252l-2 -132l149 4h521q0 -69 -6 -104q-24 -136 -183 -136h-598q-77 0 -120.5 45.5t-43.5 124.5zM266 1666l250 249q121 26 236 0l241 -230 q-12 -41 -45.5 -73t-67.5 -45l-245 158l-251 -179q-35 13 -71.5 47.5t-46.5 72.5z" />
<glyph unicode="&#xcb;" horiz-adv-x="1213" d="M175 166v1273l14 16h888q11 -53 11.5 -114t-23.5 -127h-609l2 -147v-219l138 2h361q16 -49 16 -117t-16 -117h-499v-252l-2 -132l149 4h521q0 -69 -6 -104q-24 -136 -183 -136h-598q-77 0 -120.5 45.5t-43.5 124.5zM260 1693q0 64 24 100q47 30 112 30q26 0 51.5 -5 t50 -12.5t34 -35.5t9.5 -75t-8.5 -73.5t-34 -35.5t-51 -14t-51.5 -5q-59 2 -97.5 20.5t-38.5 105.5zM729 1695q0 43 10.5 71.5t33.5 37.5t49.5 14t52.5 5q63 0 116 -30q24 -36 23 -100q0 -43 -9.5 -70.5t-31 -35.5t-45.5 -14t-53 -6q-26 0 -52.5 6t-49.5 15t-33.5 35.5 t-10.5 71.5z" />
<glyph unicode="&#xcc;" horiz-adv-x="651" d="M24 1746q4 59 40 122t74 93l454 -274q-16 -98 -81 -136zM183 0v1455q53 10 139.5 10t146.5 -10v-1455q-59 -10 -146 -10t-140 10z" />
<glyph unicode="&#xcd;" horiz-adv-x="651" d="M87 1687l453 274q39 -30 75.5 -92.5t40.5 -122.5l-488 -195q-30 16 -53.5 56.5t-27.5 79.5zM183 0v1455q53 10 139.5 10t146.5 -10v-1455q-59 -10 -146 -10t-140 10z" />
<glyph unicode="&#xce;" horiz-adv-x="651" d="M-41 1666l250 249q121 26 236 0l241 -230q-12 -41 -45.5 -73t-67.5 -45l-245 158l-251 -179q-35 13 -71.5 47.5t-46.5 72.5zM183 0v1455q53 10 139.5 10t146.5 -10v-1455q-59 -10 -146 -10t-140 10z" />
<glyph unicode="&#xcf;" horiz-adv-x="651" d="M-49 1693q0 64 24 100q47 30 112 30q26 0 51.5 -5t50 -12.5t34 -35.5t9.5 -75t-8.5 -73.5t-34 -35.5t-51 -14t-51.5 -5q-59 2 -97.5 20.5t-38.5 105.5zM183 0v1455q53 10 139.5 10t146.5 -10v-1455q-59 -10 -146 -10t-140 10zM420 1695q0 43 10.5 71.5t33.5 37.5t49.5 14 t52.5 5q63 0 116 -30q24 -36 23 -100q0 -43 -9.5 -70.5t-31 -35.5t-45.5 -14t-53 -6q-26 0 -52.5 6t-49.5 15t-33.5 35.5t-10.5 71.5z" />
<glyph unicode="&#xd0;" horiz-adv-x="1433" d="M45 735q0 33 2 63.5t8 55.5h154v591l15 12q123 4 248.5 6t255.5 2q179 0 297.5 -57.5t188.5 -158.5t99 -235t29 -288q0 -213 -48 -367.5t-184 -262.5q-69 -55 -177 -80.5t-224 -25.5q-57 0 -177.5 2t-307.5 6l-15 12v612h-154q-6 21 -8 51t-2 62zM490 213q42 2 95.5 2 h115.5q117 0 186.5 44t103 119t44.5 166.5t11 183.5q0 98 -13 191t-48 165t-96.5 114t-160.5 42h-136.5t-101.5 2v-388h298q4 -26 7.5 -57t3.5 -62q0 -66 -11 -113h-298v-409z" />
<glyph unicode="&#xd1;" horiz-adv-x="1465" d="M177 0v1451q61 14 161.5 14t175.5 -10l387 -825l138 -315l7 2q-21 309 -22 584v390q0 95 36.5 135.5t121.5 40.5h92l15 -14v-1449q-66 -14 -166.5 -14t-175.5 10l-391 825q-85 187 -128 297l-9 -2q24 -300 24 -579v-541q-59 -10 -135 -10t-131 10zM332 1689l19 41 q79 172 243 172q32 2 63.5 -9t68.5 -27l109 -51q17 -9 33 -14.5t33 -5.5q44 -2 83 52l22 27q42 0 83 -23.5t57 -59.5l-20 -41q-81 -172 -242 -171q-67 -1 -132 35l-109 52q-15 8 -32 13.5t-34 5.5q-45 2 -83 -51l-21 -30q-43 2 -84.5 25.5t-56.5 59.5z" />
<glyph unicode="&#xd2;" horiz-adv-x="1409" d="M89 726q0 181 42 322t121.5 237.5t194 147.5t260.5 51q145 0 259 -51t193 -147.5t120.5 -238.5t41.5 -321t-41.5 -319.5t-120.5 -237t-193 -148t-259 -51.5q-232 0 -390 130q-228 195 -228 626zM390 726q0 -533 315 -533t315 533q0 534 -315 534t-315 -534zM401 1746 q4 59 40 122t74 93l454 -274q-16 -98 -81 -136z" />
<glyph unicode="&#xd3;" horiz-adv-x="1409" d="M89 726q0 181 42 322t121.5 237.5t194 147.5t260.5 51q145 0 259 -51t193 -147.5t120.5 -238.5t41.5 -321t-41.5 -319.5t-120.5 -237t-193 -148t-259 -51.5q-232 0 -390 130q-228 195 -228 626zM390 726q0 -533 315 -533t315 533q0 534 -315 534t-315 -534zM464 1687 l453 274q39 -30 75.5 -92.5t40.5 -122.5l-488 -195q-30 16 -53.5 56.5t-27.5 79.5z" />
<glyph unicode="&#xd4;" horiz-adv-x="1409" d="M89 726q0 181 42 322t121.5 237.5t194 147.5t260.5 51q145 0 259 -51t193 -147.5t120.5 -238.5t41.5 -321t-41.5 -319.5t-120.5 -237t-193 -148t-259 -51.5q-232 0 -390 130q-228 195 -228 626zM334 1666l250 249q121 26 236 0l241 -230q-12 -41 -45.5 -73t-67.5 -45 l-245 158l-251 -179q-35 13 -71.5 47.5t-46.5 72.5zM390 726q0 -533 315 -533t315 533q0 534 -315 534t-315 -534z" />
<glyph unicode="&#xd5;" horiz-adv-x="1409" d="M89 726q0 181 42 322t121.5 237.5t194 147.5t260.5 51q145 0 259 -51t193 -147.5t120.5 -238.5t41.5 -321t-41.5 -319.5t-120.5 -237t-193 -148t-259 -51.5q-232 0 -390 130q-228 195 -228 626zM285 1689l19 41q79 172 243 172q32 2 63.5 -9t68.5 -27l109 -51 q17 -9 33 -14.5t33 -5.5q44 -2 83 52l22 27q42 0 83 -23.5t57 -59.5l-20 -41q-81 -172 -242 -171q-67 -1 -132 35l-109 52q-15 8 -32 13.5t-34 5.5q-45 2 -83 -51l-21 -30q-43 2 -84.5 25.5t-56.5 59.5zM390 726q0 -533 315 -533t315 533q0 534 -315 534t-315 -534z" />
<glyph unicode="&#xd6;" horiz-adv-x="1409" d="M89 726q0 181 42 322t121.5 237.5t194 147.5t260.5 51q145 0 259 -51t193 -147.5t120.5 -238.5t41.5 -321t-41.5 -319.5t-120.5 -237t-193 -148t-259 -51.5q-232 0 -390 130q-228 195 -228 626zM328 1693q0 64 24 100q47 30 112 30q26 0 51.5 -5t50 -12.5t34 -35.5 t9.5 -75t-8.5 -73.5t-34 -35.5t-51 -14t-51.5 -5q-59 2 -97.5 20.5t-38.5 105.5zM390 726q0 -533 315 -533t315 533q0 534 -315 534t-315 -534zM797 1695q0 43 10.5 71.5t33.5 37.5t49.5 14t52.5 5q63 0 116 -30q24 -36 23 -100q0 -43 -9.5 -70.5t-31 -35.5t-45.5 -14 t-53 -6q-26 0 -52.5 6t-49.5 15t-33.5 35.5t-10.5 71.5z" />
<glyph unicode="&#xd7;" d="M136 370l183 183l81 77q-14 15 -43 43t-38 36l-183 183q55 120 167 167l183 -183q51 -55 79 -81q61 63 76 79l184 185q113 -57 165 -167l-264 -262l81 -77l183 -183q-26 -55 -67 -98.5t-98 -66.5l-184 185q-17 16 -76 79l-54.5 -54.5t-207.5 -209.5q-55 26 -99 71t-68 94 z" />
<glyph unicode="&#xd8;" horiz-adv-x="1415" d="M89 728q0 175 41 316t119.5 238.5t193.5 149.5t264 52t258 -47l90 156q115 -16 181 -97l-100 -179q191 -209 191 -589q0 -175 -40.5 -314t-119 -238t-195 -152.5t-265.5 -53.5q-142 0 -258 47l-87 -151q-49 6 -100 33.5t-79 64.5l98 172q-192 206 -192 592zM380 681 q0 -149 44 -276l430 826q-69 39 -155 39q-94 0 -155.5 -47.5t-98 -127t-51 -186t-14.5 -228.5zM561 222q61 -37 152 -37q100 0 164 50t99.5 133t48 188.5t12.5 216.5q0 149 -47 275z" />
<glyph unicode="&#xd9;" horiz-adv-x="1428" d="M158 524v929l13 14h106q85 0 125.5 -43.5t40.5 -139.5v-762q0 -323 270 -324q273 0 273 324v933q59 10 142 10q85 0 144 -10v-931q0 -266 -146 -410t-413 -144q-264 0 -409.5 144t-145.5 410zM407 1746q4 59 40 122t74 93l454 -274q-16 -98 -81 -136z" />
<glyph unicode="&#xda;" horiz-adv-x="1428" d="M158 524v929l13 14h106q85 0 125.5 -43.5t40.5 -139.5v-762q0 -323 270 -324q273 0 273 324v933q59 10 142 10q85 0 144 -10v-931q0 -266 -146 -410t-413 -144q-264 0 -409.5 144t-145.5 410zM470 1687l453 274q39 -30 75.5 -92.5t40.5 -122.5l-488 -195 q-30 16 -53.5 56.5t-27.5 79.5z" />
<glyph unicode="&#xdb;" horiz-adv-x="1428" d="M158 524v929l13 14h106q85 0 125.5 -43.5t40.5 -139.5v-762q0 -323 270 -324q273 0 273 324v933q59 10 142 10q85 0 144 -10v-931q0 -266 -146 -410t-413 -144q-264 0 -409.5 144t-145.5 410zM340 1666l250 249q121 26 236 0l241 -230q-12 -41 -45.5 -73t-67.5 -45 l-245 158l-251 -179q-35 13 -71.5 47.5t-46.5 72.5z" />
<glyph unicode="&#xdc;" horiz-adv-x="1428" d="M158 524v929l13 14h106q85 0 125.5 -43.5t40.5 -139.5v-762q0 -323 270 -324q273 0 273 324v933q59 10 142 10q85 0 144 -10v-931q0 -266 -146 -410t-413 -144q-264 0 -409.5 144t-145.5 410zM337 1693q0 64 24 100q47 30 112 30q26 0 51.5 -5t50 -12.5t34 -35.5t9.5 -75 t-8.5 -73.5t-34 -35.5t-51 -14t-51.5 -5q-59 2 -97.5 20.5t-38.5 105.5zM806 1695q0 43 10.5 71.5t33.5 37.5t49.5 14t52.5 5q63 0 116 -30q24 -36 23 -100q0 -43 -9.5 -70.5t-31 -35.5t-45.5 -14t-53 -6q-26 0 -52.5 6t-49.5 15t-33.5 35.5t-10.5 71.5z" />
<glyph unicode="&#xdd;" horiz-adv-x="1113" d="M6 1421q90 51 162 51t106.5 -28t60.5 -92l134 -328q55 -144 92 -285h12q34 123 100 294l168 422q49 10 123.5 10t134.5 -18l11 -18l-409 -976v-453q-55 -10 -142.5 -10t-143.5 10v462zM325 1687l453 274q39 -30 75.5 -92.5t40.5 -122.5l-488 -195q-30 16 -53.5 56.5 t-27.5 79.5z" />
<glyph unicode="&#xde;" horiz-adv-x="1236" d="M177 0v1455q59 10 142 10t143 -10v-209l192 2q116 0 210.5 -28.5t160.5 -88.5t102 -148.5t36 -204.5q0 -120 -36 -209.5t-103 -149t-161 -90.5t-209 -31h-192v-298q-60 -10 -143 -10t-142 10zM462 520q57 2 127.5 0t132.5 13.5t104.5 74.5t42.5 165q0 53 -13 100 t-39.5 81t-71.5 53t-109 19h-174v-506z" />
<glyph unicode="&#xdf;" horiz-adv-x="1366" d="M19 905q0 28 2.5 54.5t8.5 54.5l183 -2v59q0 203 133 310.5t357 107.5q110 0 203 -31t157.5 -88.5t101 -137.5t36.5 -177q0 -77 -34 -165q-71 -21 -112 -57t-41 -79q-2 -49 59 -104l81 -77q153 -147 153 -290q0 -71 -30.5 -128t-83.5 -98.5t-126 -64t-158 -22.5 q-166 0 -289 62q0 24 7 51t18 54t24.5 50.5t31.5 38.5q47 -24 89.5 -34.5t78.5 -10.5q62 0 103.5 28.5t41.5 75.5q0 28 -17 61.5t-58 68.5l-87 79q-134 122 -134 236q0 75 52.5 145t141.5 107q6 32 6 66q0 98 -55.5 163t-159.5 65q-207 0 -207 -235v-1041q-36 -6 -71 -8 t-71 -2q-37 0 -70.5 2t-70.5 8v799l-183 -2q-6 26 -8.5 53.5t-2.5 54.5z" />
<glyph unicode="&#xe0;" horiz-adv-x="1085" d="M77 290q0 90 30.5 157t87.5 111.5t132 68t165 23.5q115 0 179 -7v58q0 162 -157 161q-106 0 -325 -74q-59 66 -71 198q225 96 465 96q161 0 262.5 -89.5t101.5 -270.5v-437q1 -112 61 -157q-11 -39 -39 -81.5t-55 -63.5q-138 17 -203 121q-138 -134 -302 -134 q-83 0 -145.5 27t-104 71.5t-62 102t-20.5 119.5zM230 1437q16 53 70 102.5t109 68.5l317 -350q-15 -38 -48 -68.5t-70 -41.5zM352 315q0 -63 32 -98.5t87 -35.5q106 0 200 94v185q-35 2 -66.5 4.5t-61.5 2.5q-94 0 -142.5 -35.5t-48.5 -116.5z" />
<glyph unicode="&#xe1;" horiz-adv-x="1085" d="M77 290q0 90 30.5 157t87.5 111.5t132 68t165 23.5q115 0 179 -7v58q0 162 -157 161q-106 0 -325 -74q-59 66 -71 198q225 96 465 96q161 0 262.5 -89.5t101.5 -270.5v-437q1 -112 61 -157q-11 -39 -39 -81.5t-55 -63.5q-138 17 -203 121q-138 -134 -302 -134 q-83 0 -145.5 27t-104 71.5t-62 102t-20.5 119.5zM346 1258l321 350q55 -17 107 -66t71 -105l-381 -289q-86 27 -118 110zM352 315q0 -63 32 -98.5t87 -35.5q106 0 200 94v185q-35 2 -66.5 4.5t-61.5 2.5q-94 0 -142.5 -35.5t-48.5 -116.5z" />
<glyph unicode="&#xe2;" horiz-adv-x="1085" d="M77 290q0 90 30.5 157t87.5 111.5t132 68t165 23.5q115 0 179 -7v58q0 162 -157 161q-106 0 -325 -74q-59 66 -71 198q225 96 465 96q161 0 262.5 -89.5t101.5 -270.5v-437q1 -112 61 -157q-11 -39 -39 -81.5t-55 -63.5q-138 17 -203 121q-138 -134 -302 -134 q-83 0 -145.5 27t-104 71.5t-62 102t-20.5 119.5zM198 1266l223 287q102 34 232 0l201 -267q-17 -40 -53.5 -73.5t-70.5 -43.5l-197 190l-209 -203q-82 31 -126 110zM352 315q0 -63 32 -98.5t87 -35.5q106 0 200 94v185q-35 2 -66.5 4.5t-61.5 2.5q-94 0 -142.5 -35.5 t-48.5 -116.5z" />
<glyph unicode="&#xe3;" horiz-adv-x="1085" d="M77 290q0 90 30.5 157t87.5 111.5t132 68t165 23.5q115 0 179 -7v58q0 162 -157 161q-106 0 -325 -74q-59 66 -71 198q225 96 465 96q161 0 262.5 -89.5t101.5 -270.5v-437q1 -112 61 -157q-11 -39 -39 -81.5t-55 -63.5q-138 17 -203 121q-138 -134 -302 -134 q-83 0 -145.5 27t-104 71.5t-62 102t-20.5 119.5zM136 1293l19 42q30 86 97 128.5t140 42.5q69 0 121 -34l105 -53q16 -9 31.5 -14t31.5 -5q37 -2 81 53l21 27q39 0 78.5 -24.5t53.5 -60.5l-18 -40q-84 -170 -230 -170q-69 -1 -128 33l-105 52q-15 8 -30 13.5t-32 5.5 q-18 0 -39.5 -10.5t-43.5 -40.5l-21 -31q-40 3 -78.5 26t-53.5 60zM352 315q0 -63 32 -98.5t87 -35.5q106 0 200 94v185q-35 2 -66.5 4.5t-61.5 2.5q-94 0 -142.5 -35.5t-48.5 -116.5z" />
<glyph unicode="&#xe4;" horiz-adv-x="1085" d="M77 290q0 90 30.5 157t87.5 111.5t132 68t165 23.5q115 0 179 -7v58q0 162 -157 161q-106 0 -325 -74q-59 66 -71 198q225 96 465 96q161 0 262.5 -89.5t101.5 -270.5v-437q1 -112 61 -157q-11 -39 -39 -81.5t-55 -63.5q-138 17 -203 121q-138 -134 -302 -134 q-83 0 -145.5 27t-104 71.5t-62 102t-20.5 119.5zM181 1317q0 55 17 95q49 30 121 29q69 0 122 -29q17 -46 17 -97q0 -41 -7.5 -69t-26.5 -37.5t-45.5 -13.5t-59.5 -4q-34 0 -65.5 6t-55.5 24q-11 21 -14 45.5t-3 50.5zM352 315q0 -63 32 -98.5t87 -35.5q106 0 200 94v185 q-35 2 -66.5 4.5t-61.5 2.5q-94 0 -142.5 -35.5t-48.5 -116.5zM594 1317q0 55 17 95q48 30 121 29q69 0 122 -29q17 -46 17 -97q0 -41 -7.5 -69t-26.5 -37.5t-46 -13.5t-59 -4q-34 0 -66 6t-55 24q-11 21 -14 45.5t-3 50.5z" />
<glyph unicode="&#xe5;" horiz-adv-x="1085" d="M77 290q0 90 30.5 157t87.5 111.5t132 68t165 23.5q115 0 179 -7v58q0 162 -157 161q-106 0 -325 -74q-59 66 -71 198q225 96 465 96q161 0 262.5 -89.5t101.5 -270.5v-437q1 -112 61 -157q-11 -39 -39 -81.5t-55 -63.5q-138 17 -203 121q-138 -134 -302 -134 q-83 0 -145.5 27t-104 71.5t-62 102t-20.5 119.5zM247 1410q0 55 21 102t57.5 82.5t87.5 54.5t113 19t113 -20t88 -55.5t57.5 -82.5t20.5 -100t-20.5 -100t-57.5 -82t-88 -55.5t-113 -20.5q-121 0 -202 75q-77 73 -77 183zM352 315q0 -63 32 -98.5t87 -35.5q106 0 200 94 v185q-35 2 -66.5 4.5t-61.5 2.5q-94 0 -142.5 -35.5t-48.5 -116.5zM419 1410q0 -47 28.5 -79t78.5 -32q47 0 76.5 32t29.5 79t-29.5 80t-76.5 33q-20 0 -41 -7.5t-36 -24.5q-16 -16 -23 -37t-7 -44z" />
<glyph unicode="&#xe6;" horiz-adv-x="1634" d="M77 290q0 90 30.5 157t87.5 111.5t132 68t165 23.5q49 0 92.5 -2t86.5 -7v62q0 160 -155 159q-120 0 -327 -74q-59 66 -71 198q225 96 447 96q177 0 270 -113q120 118 305 117q91 0 167.5 -33t131 -93.5t85.5 -143.5t31 -182q0 -53 -6.5 -100.5t-16.5 -94.5h-585 q7 -120 54 -186t166 -66q59 0 130 18.5t150 56.5q63 -61 80 -170q-171 -122 -405 -122q-236 0 -353 162q-156 -162 -373 -162q-77 0 -136 27t-99.5 71.5t-62 102t-21.5 119.5zM352 315q0 -63 32 -98.5t87 -35.5q124 0 226 115q-21 86 -26 164q-35 2 -66.5 4.5t-61.5 2.5 q-90 0 -140.5 -35.5t-50.5 -116.5zM947 634h346v24q0 102 -40.5 165t-130.5 63q-162 0 -175 -252z" />
<glyph unicode="&#xe7;" horiz-adv-x="1006" d="M79 524q0 145 37 251.5t101 175.5t146 102t172 33q93 0 169 -26.5t128 -72.5t80.5 -108t28.5 -129q0 -69 -34.5 -106t-105.5 -37q-37 0 -110 11q0 134 -33.5 197t-122.5 63q-171 0 -171 -354q0 -175 49 -254t158 -79q55 0 119 23.5t133 75.5q34 -21 66.5 -69t41.5 -91 q-130 -130 -328 -156q-14 -26 -22 -47q96 -6 151.5 -57t55.5 -140q0 -45 -21 -83.5t-58.5 -68t-86.5 -47t-104 -17.5q-116 0 -181 47q2 73 49 128q47 -28 102 -28q85 0 85 71q0 40 -24.5 55t-54.5 15q-26 0 -47 -7q-28 15 -42 43q23 89 44 138q-183 28 -276.5 176.5 t-93.5 371.5z" />
<glyph unicode="&#xe8;" horiz-adv-x="1059" d="M79 524q0 128 29.5 231t87.5 177t140.5 114t189.5 40q108 0 191.5 -33t141 -93.5t86 -143.5t28.5 -182q0 -53 -6.5 -100.5t-16.5 -94.5h-588q6 -118 54 -185t167 -67q124 0 284 73q62 -63 78 -168q-170 -122 -408 -122q-226 0 -342 140t-116 414zM246 1437 q16 53 70 102.5t109 68.5l317 -350q-15 -38 -48 -68.5t-70 -41.5zM360 634h353v26q0 102 -42.5 164t-131.5 62q-167 0 -179 -252z" />
<glyph unicode="&#xe9;" horiz-adv-x="1059" d="M79 524q0 128 29.5 231t87.5 177t140.5 114t189.5 40q108 0 191.5 -33t141 -93.5t86 -143.5t28.5 -182q0 -53 -6.5 -100.5t-16.5 -94.5h-588q6 -118 54 -185t167 -67q124 0 284 73q62 -63 78 -168q-170 -122 -408 -122q-226 0 -342 140t-116 414zM360 634h353v26 q0 102 -42.5 164t-131.5 62q-167 0 -179 -252zM362 1258l321 350q55 -17 107 -66t71 -105l-381 -289q-86 27 -118 110z" />
<glyph unicode="&#xea;" horiz-adv-x="1059" d="M79 524q0 128 29.5 231t87.5 177t140.5 114t189.5 40q108 0 191.5 -33t141 -93.5t86 -143.5t28.5 -182q0 -53 -6.5 -100.5t-16.5 -94.5h-588q6 -118 54 -185t167 -67q124 0 284 73q62 -63 78 -168q-170 -122 -408 -122q-226 0 -342 140t-116 414zM216 1266l223 287 q102 34 232 0l201 -267q-17 -40 -53.5 -73.5t-70.5 -43.5l-197 190l-209 -203q-82 31 -126 110zM360 634h353v26q0 102 -42.5 164t-131.5 62q-167 0 -179 -252z" />
<glyph unicode="&#xeb;" horiz-adv-x="1059" d="M79 524q0 128 29.5 231t87.5 177t140.5 114t189.5 40q108 0 191.5 -33t141 -93.5t86 -143.5t28.5 -182q0 -53 -6.5 -100.5t-16.5 -94.5h-588q6 -118 54 -185t167 -67q124 0 284 73q62 -63 78 -168q-170 -122 -408 -122q-226 0 -342 140t-116 414zM199 1317q0 55 17 95 q49 30 121 29q69 0 122 -29q17 -46 17 -97q0 -41 -7.5 -69t-26.5 -37.5t-45.5 -13.5t-59.5 -4q-34 0 -65.5 6t-55.5 24q-11 21 -14 45.5t-3 50.5zM360 634h353v26q0 102 -42.5 164t-131.5 62q-167 0 -179 -252zM612 1317q0 55 17 95q48 30 121 29q69 0 122 -29 q17 -46 17 -97q0 -41 -7.5 -69t-26.5 -37.5t-46 -13.5t-59 -4q-34 0 -66 6t-55 24q-11 21 -14 45.5t-3 50.5z" />
<glyph unicode="&#xec;" horiz-adv-x="606" d="M-14 1437q16 53 70 102.5t109 68.5l317 -350q-15 -38 -48 -68.5t-70 -41.5zM49 956.5q0 49.5 12 98.5q100 10 163 10h36q94 0 149 -60t55 -164v-841q-64 -10 -137 -10t-142 10v742q0 117 -96 116h-28q-12 49 -12 98.5z" />
<glyph unicode="&#xed;" horiz-adv-x="606" d="M49 956.5q0 49.5 12 98.5q100 10 163 10h36q94 0 149 -60t55 -164v-841q-64 -10 -137 -10t-142 10v742q0 117 -96 116h-28q-12 49 -12 98.5zM104 1258l321 350q55 -17 107 -66t71 -105l-381 -289q-86 27 -118 110z" />
<glyph unicode="&#xee;" horiz-adv-x="606" d="M-44 1266l223 287q102 34 232 0l201 -267q-17 -40 -53.5 -73.5t-70.5 -43.5l-197 190l-209 -203q-82 31 -126 110zM49 956.5q0 49.5 12 98.5q100 10 163 10h36q94 0 149 -60t55 -164v-841q-64 -10 -137 -10t-142 10v742q0 117 -96 116h-28q-12 49 -12 98.5z" />
<glyph unicode="&#xef;" horiz-adv-x="606" d="M-63 1317q0 55 17 95q49 30 121 29q69 0 122 -29q17 -46 17 -97q0 -41 -7.5 -69t-26.5 -37.5t-45.5 -13.5t-59.5 -4q-34 0 -65.5 6t-55.5 24q-11 21 -14 45.5t-3 50.5zM49 956.5q0 49.5 12 98.5q100 10 163 10h36q94 0 149 -60t55 -164v-841q-64 -10 -137 -10t-142 10 v742q0 117 -96 116h-28q-12 49 -12 98.5zM350 1317q0 55 17 95q48 30 121 29q69 0 122 -29q17 -46 17 -97q0 -41 -7.5 -69t-26.5 -37.5t-46 -13.5t-59 -4q-34 0 -66 6t-55 24q-11 21 -14 45.5t-3 50.5z" />
<glyph unicode="&#xf0;" horiz-adv-x="1104" d="M75 509q0 121 32.5 218.5t92.5 166.5t144 106t186 37q56 0 118 -25q-39 102 -146 209l-201 -139q-79 57 -94 134l167 115q-65 49 -150 96q6 49 38 100.5t70 69.5q126 -51 239 -132l181 126q77 -51 96 -134l-145 -100q323 -313 323 -831q0 -128 -31.5 -231.5t-92.5 -174.5 t-150.5 -110.5t-202.5 -39.5t-201 39.5t-149 110.5t-92.5 170.5t-31.5 218.5zM360 506q0 -329 189 -329q193 0 193 349q0 156 -26 262q-82 49 -163 49q-193 0 -193 -331z" />
<glyph unicode="&#xf1;" horiz-adv-x="1162" d="M147 0v1055l13 14h106q120 0 149 -128q156 134 309 134t226.5 -98.5t73.5 -265.5v-463q0 -137 45 -203q-69 -60 -164 -60q-92 0 -125.5 42t-33.5 131v496q0 96 -23.5 134.5t-88.5 38.5q-113 0 -210 -103v-724q-32 -6 -67.5 -8t-71.5 -2t-71 2t-67 8zM207 1293l19 42 q30 86 97 128.5t140 42.5q69 0 121 -34l105 -53q16 -9 31.5 -14t31.5 -5q37 -2 81 53l21 27q39 0 78.5 -24.5t53.5 -60.5l-18 -40q-84 -170 -230 -170q-69 -1 -128 33l-105 52q-15 8 -30 13.5t-32 5.5q-18 0 -39.5 -10.5t-43.5 -40.5l-21 -31q-40 3 -78.5 26t-53.5 60z" />
<glyph unicode="&#xf2;" horiz-adv-x="1109" d="M79 528q0 258 123.5 408t350.5 150q201 1 327 -119q151 -151 151 -439q0 -128 -32 -231.5t-92.5 -175.5t-150 -111.5t-203.5 -39.5q-113 0 -201 39.5t-149 111.5t-92.5 175.5t-31.5 231.5zM258 1437q16 53 70 102.5t109 68.5l317 -350q-15 -38 -48 -68.5t-70 -41.5z M364 528q0 -347 189 -347q192 0 193 347q-1 350 -193 350q-189 0 -189 -350z" />
<glyph unicode="&#xf3;" horiz-adv-x="1109" d="M79 528q0 258 123.5 408t350.5 150q201 1 327 -119q151 -151 151 -439q0 -128 -32 -231.5t-92.5 -175.5t-150 -111.5t-203.5 -39.5q-113 0 -201 39.5t-149 111.5t-92.5 175.5t-31.5 231.5zM364 528q0 -347 189 -347q192 0 193 347q-1 350 -193 350q-189 0 -189 -350z M374 1258l321 350q55 -17 107 -66t71 -105l-381 -289q-86 27 -118 110z" />
<glyph unicode="&#xf4;" horiz-adv-x="1109" d="M79 528q0 258 123.5 408t350.5 150q201 1 327 -119q151 -151 151 -439q0 -128 -32 -231.5t-92.5 -175.5t-150 -111.5t-203.5 -39.5q-113 0 -201 39.5t-149 111.5t-92.5 175.5t-31.5 231.5zM226 1266l223 287q102 34 232 0l201 -267q-17 -40 -53.5 -73.5t-70.5 -43.5 l-197 190l-209 -203q-82 31 -126 110zM364 528q0 -347 189 -347q192 0 193 347q-1 350 -193 350q-189 0 -189 -350z" />
<glyph unicode="&#xf5;" horiz-adv-x="1109" d="M79 528q0 258 123.5 408t350.5 150q201 1 327 -119q151 -151 151 -439q0 -128 -32 -231.5t-92.5 -175.5t-150 -111.5t-203.5 -39.5q-113 0 -201 39.5t-149 111.5t-92.5 175.5t-31.5 231.5zM164 1293l19 42q30 86 97 128.5t140 42.5q69 0 121 -34l105 -53q16 -9 31.5 -14 t31.5 -5q37 -2 81 53l21 27q39 0 78.5 -24.5t53.5 -60.5l-18 -40q-84 -170 -230 -170q-69 -1 -128 33l-105 52q-15 8 -30 13.5t-32 5.5q-18 0 -39.5 -10.5t-43.5 -40.5l-21 -31q-40 3 -78.5 26t-53.5 60zM364 528q0 -347 189 -347q192 0 193 347q-1 350 -193 350 q-189 0 -189 -350z" />
<glyph unicode="&#xf6;" horiz-adv-x="1109" d="M79 528q0 258 123.5 408t350.5 150q201 1 327 -119q151 -151 151 -439q0 -128 -32 -231.5t-92.5 -175.5t-150 -111.5t-203.5 -39.5q-113 0 -201 39.5t-149 111.5t-92.5 175.5t-31.5 231.5zM209 1317q0 55 17 95q49 30 121 29q69 0 122 -29q17 -46 17 -97q0 -41 -7.5 -69 t-26.5 -37.5t-45.5 -13.5t-59.5 -4q-34 0 -65.5 6t-55.5 24q-11 21 -14 45.5t-3 50.5zM364 528q0 -347 189 -347q192 0 193 347q-1 350 -193 350q-189 0 -189 -350zM622 1317q0 55 17 95q48 30 121 29q69 0 122 -29q17 -46 17 -97q0 -41 -7.5 -69t-26.5 -37.5t-46 -13.5 t-59 -4q-34 0 -66 6t-55 24q-11 21 -14 45.5t-3 50.5z" />
<glyph unicode="&#xf7;" d="M104 630q0 30 2 61t9 57h899q4 -26 7 -57t3 -61q0 -63 -10 -112h-899q-6 24 -8.5 52t-2.5 60zM415 250q0 93 35.5 108.5t116.5 21.5q77 -5 110.5 -22t33.5 -108q0 -92 -32.5 -109t-115.5 -19q-86 -1 -126 27q-21 40 -22 101zM415 1012q6 96 31 109t121 21 q77 -2 110.5 -22.5t33.5 -107.5t-29.5 -107.5t-118.5 -22.5q-86 -1 -126 27q-21 43 -22 103z" />
<glyph unicode="&#xf8;" horiz-adv-x="1115" d="M81 530q0 128 30.5 230t91.5 175t150.5 112t204.5 39q100 0 184 -31l73 130q96 -24 148 -82l-79 -138q149 -149 149 -437q0 -260 -123.5 -409t-351.5 -149q-104 0 -188 32l-74 -126q-91 19 -147 81l79 139q-147 146 -147 434zM341 530q0 -119 21 -189l279 531 q-41 16 -83 16q-217 0 -217 -358zM473 187q41 -16 85 -16q215 0 215 359q0 111 -21 190z" />
<glyph unicode="&#xf9;" horiz-adv-x="1166" d="M94 1014q70 59 162.5 59t126.5 -43.5t34 -130.5v-497q0 -91 23.5 -130.5t87.5 -39.5q114 0 211 98v727q47 10 137.5 10t141.5 -10v-756q0 -126 59 -177q-10 -39 -36.5 -79.5t-56.5 -61.5q-156 15 -215 151q-165 -153 -338 -153q-143 0 -218 100t-75 264v466 q0 132 -44 203zM271 1437q16 53 70 102.5t109 68.5l317 -350q-15 -38 -48 -68.5t-70 -41.5z" />
<glyph unicode="&#xfa;" horiz-adv-x="1166" d="M94 1014q70 59 162.5 59t126.5 -43.5t34 -130.5v-497q0 -91 23.5 -130.5t87.5 -39.5q114 0 211 98v727q47 10 137.5 10t141.5 -10v-756q0 -126 59 -177q-10 -39 -36.5 -79.5t-56.5 -61.5q-156 15 -215 151q-165 -153 -338 -153q-143 0 -218 100t-75 264v466 q0 132 -44 203zM391 1258l321 350q55 -17 107 -66t71 -105l-381 -289q-86 27 -118 110z" />
<glyph unicode="&#xfb;" horiz-adv-x="1166" d="M94 1014q70 59 162.5 59t126.5 -43.5t34 -130.5v-497q0 -91 23.5 -130.5t87.5 -39.5q114 0 211 98v727q47 10 137.5 10t141.5 -10v-756q0 -126 59 -177q-10 -39 -36.5 -79.5t-56.5 -61.5q-156 15 -215 151q-165 -153 -338 -153q-143 0 -218 100t-75 264v466 q0 132 -44 203zM238 1266l223 287q102 34 232 0l201 -267q-17 -40 -53.5 -73.5t-70.5 -43.5l-197 190l-209 -203q-82 31 -126 110z" />
<glyph unicode="&#xfc;" horiz-adv-x="1166" d="M94 1014q70 59 162.5 59t126.5 -43.5t34 -130.5v-497q0 -91 23.5 -130.5t87.5 -39.5q114 0 211 98v727q47 10 137.5 10t141.5 -10v-756q0 -126 59 -177q-10 -39 -36.5 -79.5t-56.5 -61.5q-156 15 -215 151q-165 -153 -338 -153q-143 0 -218 100t-75 264v466 q0 132 -44 203zM221 1317q0 55 17 95q49 30 121 29q69 0 122 -29q17 -46 17 -97q0 -41 -7.5 -69t-26.5 -37.5t-45.5 -13.5t-59.5 -4q-34 0 -65.5 6t-55.5 24q-11 21 -14 45.5t-3 50.5zM634 1317q0 55 17 95q48 30 121 29q69 0 122 -29q17 -46 17 -97q0 -41 -7.5 -69 t-26.5 -37.5t-46 -13.5t-59 -4q-34 0 -66 6t-55 24q-11 21 -14 45.5t-3 50.5z" />
<glyph unicode="&#xfd;" horiz-adv-x="1028" d="M6 -426q-4 46 13 106t44 92q94 -30 177 -30q165 0 231 217l8 29q-81 2 -127.5 29.5t-66.5 92.5l-264 925q87 40 155.5 40t101.5 -26.5t52 -93.5l121 -451q13 -48 63 -295q2 -15 18 -16l210 864q48 12 122.5 12t137.5 -21l10 -17l-273 -1001q-70 -254 -178 -375.5 t-323 -121.5q-119 0 -232 41zM332 1258l321 350q55 -17 107 -66t71 -105l-381 -289q-86 27 -118 110z" />
<glyph unicode="&#xfe;" horiz-adv-x="1130" d="M147 -445v1998l13 14h104q83 0 117 -38t34 -134v-415q117 97 260 97q175 0 275 -145.5t100 -401.5q0 -128 -33 -230t-89 -172.5t-130 -108.5t-157 -38q-111 0 -226 55v-323q0 -96 -34 -134.5t-117 -38.5h-104zM415 254q94 -62 168 -63q84 0 133.5 88.5t49.5 255.5 q0 166 -44 241.5t-115 75.5q-113 0 -192 -108v-490z" />
<glyph unicode="&#xff;" horiz-adv-x="1028" d="M6 -426q-4 46 13 106t44 92q94 -30 177 -30q165 0 231 217l8 29q-81 2 -127.5 29.5t-66.5 92.5l-264 925q87 40 155.5 40t101.5 -26.5t52 -93.5l121 -451q13 -48 63 -295q2 -15 18 -16l210 864q48 12 122.5 12t137.5 -21l10 -17l-273 -1001q-70 -254 -178 -375.5 t-323 -121.5q-119 0 -232 41zM166 1317q0 55 17 95q49 30 121 29q69 0 122 -29q17 -46 17 -97q0 -41 -7.5 -69t-26.5 -37.5t-45.5 -13.5t-59.5 -4q-34 0 -65.5 6t-55.5 24q-11 21 -14 45.5t-3 50.5zM579 1317q0 55 17 95q48 30 121 29q69 0 122 -29q17 -46 17 -97 q0 -41 -7.5 -69t-26.5 -37.5t-46 -13.5t-59 -4q-34 0 -66 6t-55 24q-11 21 -14 45.5t-3 50.5z" />
<glyph unicode="&#x152;" horiz-adv-x="1931" d="M89 726q0 179 42 321t121.5 238.5t195 147.5t261.5 51q43 0 116.5 -7t178.5 -22h809q4 -19 6 -45t2 -55q0 -36 -5 -72.5t-18 -68.5h-609l2 -115v-251q28 2 61.5 2h76.5h362q6 -26 10.5 -57t4.5 -60q0 -32 -4.5 -62t-10.5 -55h-500v-250l-2 -132q44 2 81 3t67 1h523 q0 -126 -38.5 -183t-149.5 -57h-670q-96 -15 -169 -21.5t-124 -6.5q-146 0 -261.5 51.5t-195 148t-121.5 237t-42 319.5zM386 726q0 -533 321 -533q88 0 207 31v1005q-113 33 -205 31q-323 0 -323 -534z" />
<glyph unicode="&#x153;" horiz-adv-x="1733" d="M79 528q0 258 123.5 408t362.5 150q209 0 327 -151q114 151 320 151q104 0 187 -33t138.5 -93.5t85.5 -143.5t30 -182q0 -53 -6.5 -100.5t-16.5 -94.5h-584q6 -120 53 -186t167 -66q57 0 128 18.5t150 54.5q62 -63 79 -168q-166 -122 -400 -122q-230 0 -337 145 q-113 -144 -323 -145q-118 0 -208.5 39.5t-151.5 111.5t-92.5 175.5t-31.5 231.5zM364 528q0 -347 189 -347q192 0 193 347q0 173 -48.5 262.5t-144.5 87.5q-189 0 -189 -350zM1044 634h346v24q2 228 -169 228q-164 0 -177 -252z" />
<glyph unicode="&#x178;" horiz-adv-x="1113" d="M6 1421q90 51 162 51t106.5 -28t60.5 -92l134 -328q55 -144 92 -285h12q34 123 100 294l168 422q49 10 123.5 10t134.5 -18l11 -18l-409 -976v-453q-55 -10 -142.5 -10t-143.5 10v462zM185 1693q0 64 24 100q47 30 112 30q26 0 51.5 -5t50 -12.5t34 -35.5t9.5 -75 t-8.5 -73.5t-34 -35.5t-51 -14t-51.5 -5q-59 2 -97.5 20.5t-38.5 105.5zM654 1695q0 43 10.5 71.5t33.5 37.5t49.5 14t52.5 5q63 0 116 -30q24 -36 23 -100q0 -43 -9.5 -70.5t-31 -35.5t-45.5 -14t-53 -6q-26 0 -52.5 6t-49.5 15t-33.5 35.5t-10.5 71.5z" />
<glyph unicode="&#x2c6;" horiz-adv-x="847" d="M96 1266l223 287q102 34 232 0l201 -267q-17 -40 -53.5 -73.5t-70.5 -43.5l-197 190l-209 -203q-82 31 -126 110z" />
<glyph unicode="&#x2dc;" horiz-adv-x="847" d="M34 1293l19 42q30 86 97 128.5t140 42.5q69 0 121 -34l105 -53q16 -9 31.5 -14t31.5 -5q37 -2 81 53l21 27q39 0 78.5 -24.5t53.5 -60.5l-18 -40q-84 -170 -230 -170q-69 -1 -128 33l-105 52q-15 8 -30 13.5t-32 5.5q-18 0 -39.5 -10.5t-43.5 -40.5l-21 -31 q-40 3 -78.5 26t-53.5 60z" />
<glyph unicode="&#x2000;" horiz-adv-x="980" />
<glyph unicode="&#x2001;" horiz-adv-x="1961" />
<glyph unicode="&#x2002;" horiz-adv-x="980" />
<glyph unicode="&#x2003;" horiz-adv-x="1961" />
<glyph unicode="&#x2004;" horiz-adv-x="653" />
<glyph unicode="&#x2005;" horiz-adv-x="490" />
<glyph unicode="&#x2006;" horiz-adv-x="326" />
<glyph unicode="&#x2007;" horiz-adv-x="326" />
<glyph unicode="&#x2008;" horiz-adv-x="245" />
<glyph unicode="&#x2009;" horiz-adv-x="392" />
<glyph unicode="&#x200a;" horiz-adv-x="108" />
<glyph unicode="&#x2010;" horiz-adv-x="774" d="M92 570.5q0 68.5 12 114.5h565q12 -46 12 -114.5t-12 -114.5h-565q-12 46 -12 114.5z" />
<glyph unicode="&#x2011;" horiz-adv-x="774" d="M92 570.5q0 68.5 12 114.5h565q12 -46 12 -114.5t-12 -114.5h-565q-12 46 -12 114.5z" />
<glyph unicode="&#x2012;" horiz-adv-x="774" d="M92 570.5q0 68.5 12 114.5h565q12 -46 12 -114.5t-12 -114.5h-565q-12 46 -12 114.5z" />
<glyph unicode="&#x2013;" horiz-adv-x="1158" d="M124 566q0 64 12 107h886q13 -43 13 -107t-13 -110h-886q-12 46 -12 110z" />
<glyph unicode="&#x2014;" horiz-adv-x="1718" d="M151.5 565q-0.5 63 10.5 108h1395q12 -43 12 -107t-12 -110h-1395q-10 46 -10.5 109z" />
<glyph unicode="&#x2018;" horiz-adv-x="529" d="M85 1244q0 146 83.5 257t242.5 160q32 -17 49 -47.5t17 -64.5v-17q-160 -69 -166 -182q47 -10 71.5 -19.5t32 -27t10.5 -40.5t3 -58q0 -53 -11.5 -86t-34 -43.5t-55.5 -15.5t-73 -5q-95 0 -144 34q-26 71 -25 155z" />
<glyph unicode="&#x2019;" horiz-adv-x="529" d="M51 1185q63 23 114.5 70.5t53.5 110.5q-44 6 -68.5 15t-33.5 28.5t-12 44t-3 58.5q0 79 24 116q61 34 151 33q87 1 140 -33q26 -69 26 -156q0 -147 -83 -259t-242 -161q-31 17 -50 49.5t-17 83.5z" />
<glyph unicode="&#x201a;" horiz-adv-x="529" d="M53 -201q63 24 113.5 72t52.5 110q-44 7 -67.5 17t-30 26.5t-12 43t-5.5 60.5q0 79 24 114q61 35 151 35q87 0 140 -35q26 -61 26 -155q0 -146 -83 -257t-242 -162q-31 17 -50 48.5t-17 82.5z" />
<glyph unicode="&#x201c;" horiz-adv-x="987" d="M81 1244q0 146 83.5 257t242.5 160q32 -17 49 -47.5t17 -81.5q-160 -69 -166 -182q47 -10 71 -19.5t30.5 -27t11 -40.5t4.5 -58q0 -53 -9.5 -84.5t-34 -43.5t-57.5 -17t-73 -5q-95 0 -144 34q-26 71 -25 155zM539 1244q0 146 83 257t242 160q32 -17 49.5 -47.5 t17.5 -81.5q-160 -69 -167 -182q47 -10 71.5 -19.5t32.5 -27t11 -40.5t3 -58q0 -53 -10 -84.5t-34.5 -43.5t-57 -17t-73.5 -5q-93 0 -142 34q-26 71 -26 155z" />
<glyph unicode="&#x201d;" horiz-adv-x="987" d="M57 1185q64 23 115.5 70.5t53.5 110.5q-45 6 -69.5 15t-33 28.5t-12 44t-3.5 58.5q0 79 24 116q61 34 151 33q88 1 141 -33q26 -69 25 -156q0 -147 -83 -259t-242 -161q-30 17 -49.5 49.5t-17.5 83.5zM518 1185q63 23 114 70.5t53 110.5q-44 6 -68.5 15t-33 28.5 t-11.5 44t-3 58.5q0 79 23 116q61 34 152 33q87 1 140 -33q26 -69 25 -156q0 -147 -82.5 -259t-243.5 -161q-30 17 -48.5 49.5t-16.5 83.5z" />
<glyph unicode="&#x201e;" horiz-adv-x="990" d="M53 -201q63 24 113.5 72t52.5 110q-44 7 -68.5 17t-31 28.5t-11 43t-4.5 58.5q0 79 24 114q61 35 151 35q87 0 140 -35q26 -61 26 -155q0 -146 -83 -257t-242 -162q-31 17 -50 48.5t-17 82.5zM512 -201q63 24 113 72t52 110q-45 7 -68 16t-30.5 28.5t-11.5 44t-4 58.5 q0 79 23 114q61 35 151 35q88 0 141 -35q26 -61 25 -155q0 -146 -83 -257t-243 -162q-30 17 -49 48.5t-16 82.5z" />
<glyph unicode="&#x2022;" horiz-adv-x="968" d="M217 575q0 124 35 198q51 30 112.5 44t123.5 14q130 0 236 -58q32 -75 32 -198q0 -126 -32 -199q-88 -57 -234 -57q-147 0 -238 57q-35 75 -35 199z" />
<glyph unicode="&#x202f;" horiz-adv-x="392" />
<glyph unicode="&#x2039;" horiz-adv-x="725" d="M57.5 543q-0.5 49 15.5 83l421 398q45 -12 91 -55.5t61 -88.5l-280 -333l288 -338q-14 -45 -61.5 -87.5t-94.5 -55.5l-425 394q-15 34 -15.5 83z" />
<glyph unicode="&#x203a;" horiz-adv-x="725" d="M71 882q14 45 61 87.5t94 54.5l428 -396q13 -32 13 -81t-13 -83l-422 -398q-47 12 -91.5 56t-59.5 89l277 332z" />
<glyph unicode="&#x205f;" horiz-adv-x="490" />
<glyph unicode="&#x20ac;" horiz-adv-x="1199" d="M28 521q0 46 10 91h153q-2 26 -2 76.5t2 75.5h-153q-10 43 -10 89t10 90h173q83 467 488 467q258 0 470 -181q-8 -47 -41 -94.5t-78 -73.5q-158 121 -313 121q-193 0 -247 -239h390q10 -44 10 -90t-10 -89h-411v-152h411q10 -45 10 -91t-10 -88h-388q51 -234 245 -235 q153 0 313 119q100 -57 119 -168q-211 -179 -470 -179q-405 0 -488 463h-173q-10 42 -10 88z" />
<glyph unicode="&#x25fc;" horiz-adv-x="1075" d="M0 0v1075h1075v-1075h-1075z" />
</font>
</defs>
</svg>
