<?xml version="1.0" standalone="no"?>
<!DOCTYPE svg PUBLIC "-//W3C//DTD SVG 1.1//EN" "http://www.w3.org/Graphics/SVG/1.1/DTD/svg11.dtd" >
<svg xmlns="http://www.w3.org/2000/svg">
<metadata></metadata>
<defs>
<font id="articulatebold" horiz-adv-x="1138" >
<font-face units-per-em="2048" ascent="1638" descent="-410" />
<missing-glyph horiz-adv-x="569" />
<glyph horiz-adv-x="2048" />
<glyph horiz-adv-x="2048" />
<glyph horiz-adv-x="682" />
<glyph horiz-adv-x="569" d="M-49 1495h127q14 -70 64.5 -117t142.5 -47t142 49.5t65 114.5h126q-4 -68 -30.5 -124t-70.5 -98t-104.5 -65.5t-127.5 -23.5q-68 0 -128.5 22.5t-104.5 63.5t-71.5 98t-29.5 127z" />
<glyph horiz-adv-x="569" d="M166 1247v238h237v-238h-237z" />
<glyph horiz-adv-x="569" d="M68 1403q0 37 15 76t43 70.5t69 52t94 20.5q49 0 89 -19.5t67.5 -50t43 -70.5t15.5 -79t-14.5 -78t-42 -69.5t-68.5 -50t-92 -19.5t-91 19.5t-69 50t-44 69.5t-15 78zM178 1403q0 -45 32 -76t77 -31q41 0 73.5 30t32.5 77t-31.5 77.5t-72.5 30.5q-47 0 -79 -30.5 t-32 -77.5z" />
<glyph unicode="&#xa;" horiz-adv-x="569" d="M-143 1198l170 299h280l-280 -299h-170zM260 1198l170 299h281l-281 -299h-170z" />
<glyph horiz-adv-x="569" d="M125 -268q0 47 23.5 87t60.5 73.5t80 60.5t82 47h100q-74 -55 -122 -116.5t-48 -133.5q0 -53 22.5 -73.5t59.5 -20.5q25 0 55.5 15.5t61.5 52.5l82 -17q-43 -96 -106.5 -129t-151.5 -33q-37 0 -73 9.5t-63.5 32t-45 57t-17.5 88.5z" />
<glyph horiz-adv-x="569" d="M-39 1497h182l144 -176l139 176h182l-215 -299h-207z" />
<glyph unicode="&#xd;" horiz-adv-x="1024" />
<glyph horiz-adv-x="342" d="M-340 -45l854 1520h168l-854 -1520h-168z" />
<glyph horiz-adv-x="1366" d="M39 854v201h203v143q0 92 25.5 160.5t71.5 113t107.5 67t135.5 22.5q49 0 102 -6.5t94 -16.5l-22 -227q-31 18 -57.5 27.5t-59.5 9.5q-55 0 -89 -39t-34 -125v-129h240v-201h-240v-854h-274v854h-203zM944 0v1055h275v-1055h-275zM944 1247v262h275v-262h-275z" />
<glyph horiz-adv-x="1366" d="M39 854v201h203v143q0 92 25.5 160.5t71.5 113t107.5 67t135.5 22.5q49 0 102 -6.5t94 -16.5l-22 -227q-31 18 -57.5 27.5t-59.5 9.5q-55 0 -89 -39t-34 -125v-129h240v-201h-240v-854h-274v854h-203zM944 0v1536h275v-1536h-275z" />
<glyph horiz-adv-x="1024" d="M16 408v188l150 90v744h287v-574l344 205v-189l-344 -204v-443h555v-225h-842v498z" />
<glyph horiz-adv-x="569" d="M0 512v188l147 88v748h275v-584l147 88v-188l-147 -88v-764h-275v600z" />
<glyph d="M74 0v233l671 971h-645v226h951v-234l-678 -971h692v-225h-991zM246 1821h182l143 -176l140 176h182l-215 -299h-207z" />
<glyph horiz-adv-x="1024" d="M74 0v223l534 619h-512v213h836v-226l-524 -616h542v-213h-876zM188 1497h183l143 -176l139 176h183l-215 -299h-207z" />
<glyph unicode=" "  horiz-adv-x="569" />
<glyph unicode="&#x09;" horiz-adv-x="569" />
<glyph unicode="&#xa0;" horiz-adv-x="569" />
<glyph unicode="!" horiz-adv-x="796" d="M242 1430h315l-43 -1010h-233zM256 0v287h287v-287h-287z" />
<glyph unicode="&#x22;" horiz-adv-x="985" d="M180 918v512h250v-512h-250zM555 918v512h250v-512h-250z" />
<glyph unicode="#" d="M68 420v164h206l35 262h-180v164h205l57 420h182l-57 -420h209l57 420h181l-58 -420h166v-164h-190l-35 -262h166v-164h-189l-59 -420h-180l59 420h-209l-61 -420h-180l59 420h-184zM457 584h209l34 262h-208z" />
<glyph unicode="$" d="M119 1020q0 188 112.5 297.5t298.5 132.5v152h97v-148q104 0 177 -12t157 -39l-27 -236q-51 25 -130 43.5t-155 18.5q-14 0 -22 -2v-379q90 -33 166.5 -70t132 -87t87 -117.5t31.5 -163.5q0 -115 -38.5 -192t-99 -126t-134.5 -74.5t-145 -33.5v-168h-97v161 q-10 -2 -16 -2h-12q-92 0 -172 13.5t-189 42.5l27 258q164 -88 328 -88h16t18 4v383q-74 29 -147.5 59.5t-131.5 78.5t-95 117.5t-37 176.5zM418 1030q0 -49 30.5 -82t81.5 -59v319q-43 -20 -77.5 -60t-34.5 -118zM627 229q43 20 80.5 55t37.5 101q0 61 -37.5 99t-80.5 59 v-314z" />
<glyph unicode="%" horiz-adv-x="2048" d="M217 1079q0 74 18.5 141.5t59.5 120t106.5 83t159.5 30.5t158.5 -30.5t104.5 -83t58.5 -120t18.5 -141.5q0 -72 -16.5 -139.5t-55 -120.5t-104.5 -86t-162 -33q-98 0 -164.5 33t-106.5 87t-57.5 122t-17.5 137zM430 1077q0 -43 7 -81t22.5 -67.5t41 -47t62.5 -17.5 t60.5 18.5t38 47t20.5 66.5t6 79q0 92 -27.5 153.5t-97.5 61.5t-101.5 -59.5t-31.5 -153.5zM502 -45l884 1520h168l-884 -1520h-168zM1149 354q0 74 18.5 141.5t59.5 120t106.5 83t159.5 30.5t158.5 -30.5t104.5 -83t58.5 -120t18.5 -141.5q0 -72 -16.5 -139.5t-55.5 -120.5 t-104.5 -86t-161.5 -33q-98 0 -164.5 33t-106.5 87.5t-57.5 122t-17.5 136.5zM1362 352q0 -43 7 -81t22.5 -67.5t41 -47t62.5 -17.5t60.5 18.5t38 47t20.5 66.5t6 79q0 92 -27.5 153.5t-97.5 61.5t-101.5 -59.5t-31.5 -153.5z" />
<glyph unicode="&#x26;" horiz-adv-x="1478" d="M123 393q0 92 27.5 155.5t71.5 107.5t97.5 74t104.5 54q-37 37 -73 71t-63.5 74t-45 87t-17.5 110q0 82 39 143.5t101.5 102.5t139.5 61.5t154 20.5q76 0 150 -18.5t132 -57.5t94 -100t36 -148q0 -72 -20.5 -127t-57.5 -99t-87 -81t-111 -71l262 -287q55 68 70.5 146.5 t19.5 164.5h250q-2 -31 -8.5 -84t-24.5 -118.5t-53 -139.5t-97 -147l256 -287h-352l-96 127q-78 -78 -180.5 -115t-206.5 -37q-109 0 -203 28t-162.5 81t-107.5 131t-39 178zM397 401q0 -94 69 -153.5t177 -59.5q70 0 134.5 19.5t111.5 66.5l-318 355q-92 -49 -133 -103.5 t-41 -124.5zM500 1104q0 -51 34.5 -97t100.5 -108q90 51 138 103.5t48 107.5q0 63 -43 103t-114 40q-72 0 -118 -39.5t-46 -109.5z" />
<glyph unicode="'" horiz-adv-x="569" d="M160 918v512h250v-512h-250z" />
<glyph unicode="(" horiz-adv-x="681" d="M80 635q0 154 26.5 280.5t71.5 237.5t104.5 207t125.5 188h260q-84 -129 -140.5 -245.5t-91.5 -227t-50 -219t-15 -221.5q0 -225 69.5 -449.5t227.5 -472.5h-260q-70 94 -129.5 196.5t-103.5 216.5t-69.5 241t-25.5 268z" />
<glyph unicode=")" horiz-adv-x="681" d="M14 -287q80 127 136.5 245t92.5 230.5t52 223t16 223.5q0 106 -14 210.5t-48 215t-91.5 231.5t-143.5 256h258q70 -98 130.5 -197.5t104.5 -209t69.5 -233t25.5 -273.5q0 -141 -25.5 -267t-70.5 -240t-104.5 -217.5t-129.5 -197.5h-258z" />
<glyph unicode="*" d="M147 1036l68 213l272 -116l-32 297h233l-35 -295l273 114l65 -213l-284 -63l196 -219l-188 -136l-146 254l-155 -254l-187 136l201 219z" />
<glyph unicode="+" horiz-adv-x="1228" d="M94 412v213h414v411h213v-411h414v-213h-414v-412h-213v412h-414z" />
<glyph unicode="," horiz-adv-x="569" d="M47 -225l131 512h297l-186 -512h-242z" />
<glyph unicode="-" horiz-adv-x="681" d="M72 438v226h538v-226h-538z" />
<glyph unicode="." horiz-adv-x="569" d="M141 0v287h287v-287h-287z" />
<glyph unicode="/" horiz-adv-x="796" d="M43 -25l500 1479h213l-500 -1479h-213z" />
<glyph unicode="0" d="M72 709q0 137 23.5 270t79.5 238.5t151.5 171t240.5 65.5q156 0 253.5 -68.5t152.5 -176t74.5 -238.5t19.5 -258t-20.5 -257t-76 -237.5t-152.5 -175.5t-251 -68q-111 0 -189.5 34t-134 91.5t-89 131t-52 155.5t-24.5 165t-6 157zM358 739q0 -78 3.5 -173t21.5 -179 t61 -141.5t123 -57.5t124 57.5t63.5 138.5t22.5 172t3 159q0 45 -1 101t-7 114.5t-18.5 115t-36 99.5t-60 69.5t-90.5 26.5q-76 0 -117.5 -53t-62 -131t-25 -164t-4.5 -154z" />
<glyph unicode="1" d="M162 1094l418 336h254v-1430h-287v1104l-242 -197z" />
<glyph unicode="2" d="M84 0v240q29 29 86 80t126 117.5t140.5 143t131 156.5t97 157t37.5 142q0 90 -66.5 141.5t-164.5 51.5t-185 -38t-147 -77l-22 238q92 47 203.5 74.5t222.5 27.5q119 0 203.5 -32.5t139 -89t79 -132.5t24.5 -164q0 -113 -51 -221t-130 -210.5t-174 -198t-183 -181.5h583 v-225h-950z" />
<glyph unicode="3" d="M92 23l17 243q78 -31 156.5 -48t162.5 -17q49 0 101.5 12t96.5 36.5t72.5 63.5t28.5 93q0 115 -81 168t-232 53h-142v225h131q158 0 238 51t80 139q0 53 -21.5 89t-55.5 57.5t-79 31t-90 9.5q-82 0 -165 -19.5t-156 -56.5l-17 229q78 31 179.5 51.5t218.5 20.5 q70 0 152.5 -15.5t154 -55.5t119 -112.5t47.5 -185.5q0 -72 -21.5 -126t-57.5 -95t-84 -69.5t-104 -49.5v-4q51 -6 99.5 -28.5t87.5 -64.5t62.5 -103.5t23.5 -147.5q0 -121 -49.5 -201.5t-127 -130t-175 -70t-195.5 -20.5q-45 0 -95 3.5t-100.5 9.5t-96.5 14t-83 21z" />
<glyph unicode="4" d="M33 297v231l534 902h357v-920h182v-213h-182v-297h-275v297h-616zM291 510h358v620h-4z" />
<glyph unicode="5" d="M147 16l7 256q66 -29 137 -50t153 -21q57 0 112.5 14t98.5 44t70 78t27 116q0 125 -91.5 186t-238.5 61q-88 0 -148.5 -12t-105.5 -26l14 768h822v-213h-551l-7 -306q31 6 63 10.5t71 4.5q72 0 152.5 -19.5t148 -72t112.5 -142.5t45 -229q0 -102 -35.5 -191.5 t-106.5 -155t-176.5 -103.5t-244.5 -38q-88 0 -177 13.5t-151 27.5z" />
<glyph unicode="6" d="M90 639q0 158 30 304.5t98.5 260t181 182t278.5 68.5q86 0 163 -14.5t138 -36.5l-37 -232q-70 29 -126 43.5t-124 14.5q-92 0 -155.5 -39t-103.5 -101.5t-59.5 -142.5t-21.5 -160l4 -4q41 59 106.5 101.5t170.5 42.5q115 0 194.5 -37t129 -98.5t72 -140.5t22.5 -161 q0 -139 -37 -236t-101.5 -158.5t-149.5 -90.5t-183 -29q-102 0 -191.5 31t-156 106.5t-104.5 203.5t-38 323zM377 444q0 -127 54 -191.5t147 -64.5q86 0 136 71.5t50 182.5q0 72 -16.5 123t-43 84t-62.5 48.5t-73 15.5q-96 0 -144 -75t-48 -194z" />
<glyph unicode="7" d="M102 1204v226h922v-238l-508 -1192h-311l530 1204h-633z" />
<glyph unicode="8" d="M72 389q0 70 21.5 124t58 96t84 75t98.5 57v4q-106 47 -172 133.5t-66 196.5q0 184 122 281.5t333 97.5q90 0 176 -19.5t153.5 -60.5t108.5 -107.5t41 -160.5q0 -49 -16.5 -100.5t-47 -97.5t-74.5 -83t-99 -57v-2q49 -25 98 -55.5t88 -75.5t63.5 -104.5t24.5 -139.5 q0 -111 -39 -189.5t-105.5 -128.5t-154.5 -74t-188 -24q-111 0 -204 25t-161 75t-105.5 128t-37.5 186zM358 393q0 -47 17.5 -84t47.5 -64.5t69.5 -42t82.5 -14.5q90 0 147.5 51.5t57.5 141.5q0 59 -26.5 101t-64.5 71t-79 46t-69 28q-35 -16 -67 -38t-58.5 -49.5t-42 -63.5 t-15.5 -83zM371 1069q0 -82 63.5 -130t161.5 -85q31 10 59.5 31.5t51 50.5t36 61.5t13.5 65.5q0 84 -49.5 131t-126.5 47q-88 0 -148.5 -47t-60.5 -125z" />
<glyph unicode="9" d="M90 942q0 242 121 377t356 135q152 0 247 -59.5t147.5 -154.5t71 -216t18.5 -242q0 -147 -28 -291.5t-95.5 -259t-181 -185.5t-283.5 -71q-86 0 -163 14.5t-138 37.5l37 231q68 -29 127 -43t120 -14q88 0 152 34.5t104.5 96t61 142.5t24.5 173h-4q-45 -66 -108.5 -104.5 t-169.5 -38.5q-113 0 -191.5 35.5t-129 96t-73 140.5t-22.5 166zM377 983q0 -51 11 -99t34.5 -85t60.5 -59.5t88 -22.5q96 0 144.5 73.5t48.5 196.5q0 117 -51 185.5t-146 68.5q-49 0 -86 -21.5t-59.5 -57.5t-33.5 -82t-11 -97z" />
<glyph unicode=":" horiz-adv-x="569" d="M141 0v287h287v-287h-287zM141 768v287h287v-287h-287z" />
<glyph unicode=";" horiz-adv-x="569" d="M47 -225l131 512h297l-186 -512h-242zM141 768v287h287v-287h-287z" />
<glyph unicode="&#x3c;" horiz-adv-x="1228" d="M94 430v176l1041 447v-209l-764 -326l764 -325v-209z" />
<glyph unicode="=" horiz-adv-x="1228" d="M94 188v213h1041v-213h-1041zM94 635v213h1041v-213h-1041z" />
<glyph unicode="&#x3e;" horiz-adv-x="1228" d="M94 -16v209l764 325l-764 326v209l1041 -447v-176z" />
<glyph unicode="?" horiz-adv-x="1024" d="M102 1386q78 23 183.5 45.5t222.5 22.5q100 0 185 -23.5t147.5 -69.5t98.5 -115t36 -159q0 -61 -21.5 -114t-54.5 -99.5t-73 -89.5t-76 -86q-49 -55 -86 -115.5t-37 -125.5v-39h-252q0 117 39 216t135 195q68 68 97.5 119t29.5 105q0 53 -21.5 90t-55.5 58.5t-75 30.5 t-82 9q-86 0 -167.5 -24.5t-149.5 -57.5zM358 0v287h287v-287h-287z" />
<glyph unicode="@" horiz-adv-x="1638" d="M76 715q0 154 59.5 289t166 234t250.5 157.5t316 58.5q133 0 258 -38t222.5 -112.5t156 -188t58.5 -263.5q0 -156 -60.5 -264.5t-143.5 -176t-170 -98t-140 -30.5q-59 0 -85 32.5t-28 73.5h-4q-41 -45 -91 -75.5t-116 -30.5q-59 0 -116.5 23.5t-102.5 66.5t-71.5 106.5 t-26.5 143.5q0 94 30.5 182t87 156.5t134 110.5t169.5 42t149.5 -42t88.5 -89l25 98h172l-123 -540q-2 -8 -3 -12.5t-1 -12.5q0 -20 9 -26.5t25 -6.5q35 0 75 20.5t74 64.5t56.5 113t22.5 165q0 119 -46 199.5t-120 130t-169 70t-194 20.5q-127 0 -234.5 -45t-184 -120 t-119.5 -174.5t-43 -209.5q0 -125 41 -227.5t113.5 -174t169 -111.5t206.5 -40q178 0 290 34.5t183 94.5h174q-115 -170 -282.5 -244t-366.5 -74q-135 0 -267 47.5t-237.5 139.5t-171 230t-65.5 323zM621 655q0 -78 42 -125t113 -47q47 0 88 23.5t72 61.5t48 85.5t17 94.5 q0 80 -44 122.5t-103 42.5t-102 -26.5t-73 -65.5t-44 -84t-14 -82z" />
<glyph unicode="A" horiz-adv-x="1478" d="M18 0l557 1430h324l561 -1430h-317l-123 328h-580l-125 -328h-297zM522 553h418l-207 590h-4z" />
<glyph unicode="B" horiz-adv-x="1251" d="M166 0v1430h487q94 0 179.5 -17.5t151 -59.5t104 -114t38.5 -180q0 -125 -77.5 -208t-206.5 -108v-4q68 -6 128 -31.5t104 -67.5t69.5 -98t25.5 -126q0 -111 -37.5 -190t-106.5 -129t-163 -73.5t-207 -23.5h-489zM453 225h120q150 0 230 46t80 157q0 94 -64.5 152.5 t-222.5 58.5h-143v-414zM453 852h114q55 0 104.5 8t87.5 28.5t59.5 54.5t21.5 85q0 96 -64.5 136t-187.5 40h-135v-352z" />
<glyph unicode="C" horiz-adv-x="1251" d="M96 694q0 178 53.5 319.5t153.5 239t245.5 149.5t332.5 52q90 0 177 -17.5t146 -41.5l-20 -242q-57 35 -132 55.5t-169 20.5q-129 0 -222.5 -47t-151.5 -121t-86 -166t-28 -182q0 -115 35 -209t98.5 -162t152.5 -104.5t198 -36.5q31 0 70.5 3t82.5 10t85 18.5t77 27.5 l12 -240q-84 -23 -171 -34t-156 -11q-160 0 -302.5 40t-249 126t-169 222.5t-62.5 330.5z" />
<glyph unicode="D" horiz-adv-x="1478" d="M166 0v1430h401q168 0 316.5 -35t259 -117t175 -219t64.5 -342q0 -195 -58 -331t-165.5 -222t-261.5 -125t-344 -39h-387zM453 225h159q86 0 171 32t151.5 94.5t107.5 154.5t41 213q0 113 -38.5 202t-104.5 152.5t-150.5 97t-179.5 33.5h-157v-979z" />
<glyph unicode="E" d="M166 0v1430h844v-226h-557v-352h510v-225h-510v-402h561v-225h-848z" />
<glyph unicode="F" horiz-adv-x="1024" d="M166 0v1430h795v-226h-508v-352h483v-225h-483v-627h-287z" />
<glyph unicode="G" horiz-adv-x="1478" d="M96 690q0 180 53.5 321.5t153.5 240t245.5 150.5t332.5 52q125 0 227 -15.5t192 -43.5l-18 -242q-31 14 -73 27.5t-91 25t-102 17.5t-105 6q-133 0 -230 -43t-160.5 -116t-94.5 -166t-31 -191q0 -111 33 -205t96.5 -161.5t152.5 -106.5t204 -39q45 0 91 4t97 16v373h-303 v225h577v-770q-147 -41 -256.5 -57.5t-205.5 -16.5q-160 0 -302.5 39t-250 125t-170 222.5t-62.5 328.5z" />
<glyph unicode="H" horiz-adv-x="1478" d="M166 0v1430h287v-578h573v578h287v-1430h-287v627h-573v-627h-287z" />
<glyph unicode="I" horiz-adv-x="569" d="M141 0v1430h287v-1430h-287z" />
<glyph unicode="J" horiz-adv-x="796" d="M45 2v250q33 -16 72 -21.5t65 -5.5q111 0 149 61.5t38 174.5v969h286v-1084q0 -76 -25.5 -143.5t-74.5 -117.5t-123 -80t-170 -30q-72 0 -125 8.5t-92 18.5z" />
<glyph unicode="K" horiz-adv-x="1366" d="M166 0v1430h287v-615l516 615h352l-588 -674l613 -756h-375l-514 664h-4v-664h-287z" />
<glyph unicode="L" horiz-adv-x="1024" d="M166 0v1430h287v-1205h555v-225h-842z" />
<glyph unicode="M" horiz-adv-x="1933" d="M166 0v1430h459l340 -1084h4l340 1084h458v-1430h-274v1180h-4l-385 -1180h-275l-385 1180h-4v-1180h-274z" />
<glyph unicode="N" horiz-adv-x="1478" d="M152 0v1430h352l545 -1070h4v1070h274v-1430h-350l-547 1069h-4v-1069h-274z" />
<glyph unicode="O" horiz-adv-x="1593" d="M96 721q0 162 45 297t134.5 231.5t219.5 150.5t302 54q164 0 294 -52t220 -149.5t138 -232.5t48 -301q0 -160 -45 -296t-133 -235.5t-219 -156t-305 -56.5t-305.5 55.5t-218.5 155t-131 236.5t-44 299zM395 721q0 -109 24.5 -204t74 -165.5t125 -110.5t178.5 -40 q104 0 180 42t125 112.5t72.5 166t23.5 199.5q0 100 -24.5 192.5t-74.5 162t-126 111.5t-176 42q-102 0 -178 -42t-125.5 -112.5t-74 -163t-24.5 -190.5z" />
<glyph unicode="P" d="M141 0v1430h369q106 0 212.5 -18.5t189.5 -67t135.5 -132.5t52.5 -217q0 -102 -33 -185t-99.5 -142.5t-169 -92t-241.5 -32.5h-129v-543h-287zM428 768h96q80 0 133.5 16.5t85 45t45 67.5t13.5 84q0 100 -65.5 161.5t-207.5 61.5h-100v-436z" />
<glyph unicode="Q" horiz-adv-x="1593" d="M96 721q0 162 45 297t134.5 231.5t219.5 150.5t302 54q164 0 294 -52t220 -149.5t138 -232.5t48 -301q0 -229 -90 -405.5t-270 -262.5l323 -321h-346l-250 250q-18 -4 -35 -5h-34q-174 0 -305.5 55.5t-218.5 155t-131 236.5t-44 299zM395 721q0 -109 24.5 -204t74 -165.5 t125 -110.5t178.5 -40q104 0 180 42t125 112.5t72.5 166t23.5 199.5q0 100 -24.5 192.5t-74.5 162t-126 111.5t-176 42q-102 0 -178 -42t-125.5 -112.5t-74 -163t-24.5 -190.5z" />
<glyph unicode="R" horiz-adv-x="1251" d="M141 0v1430h404q129 0 236.5 -15.5t183 -57.5t117.5 -119t42 -200q0 -53 -17 -106t-53 -98.5t-91.5 -78t-133.5 -44.5v-4q59 -8 94 -51.5t60 -102.5l227 -553h-319l-176 457q-14 37 -29.5 62.5t-37 42t-52.5 24.5t-76 8h-92v-594h-287zM428 819h100q68 0 123.5 9.5t94 33 t59 61.5t20.5 95q0 109 -77.5 147.5t-215.5 38.5h-104v-385z" />
<glyph unicode="S" d="M119 1020q0 113 39 194.5t106.5 135t158.5 79t195 25.5q90 0 176.5 -12t166.5 -39l-27 -236q-57 27 -134 44.5t-153 17.5q-61 0 -105 -16.5t-72 -44t-40 -63.5t-12 -73q0 -63 46 -101t115.5 -66.5t151.5 -58.5t151.5 -79t115.5 -124.5t46 -196.5q0 -106 -37.5 -187.5 t-108.5 -134.5t-170 -81t-222 -28q-104 0 -186 14.5t-179 41.5l27 258q90 -47 170 -67.5t154 -20.5q45 0 90 11t81.5 34.5t59 57.5t22.5 79q0 70 -46 111t-115.5 71.5t-151.5 60t-151.5 78t-115.5 122t-46 194.5z" />
<glyph unicode="T" d="M16 1204v226h1106v-226h-409v-1204h-287v1204h-410z" />
<glyph unicode="U" horiz-adv-x="1478" d="M156 522v908h286v-832q0 -111 21.5 -186.5t60.5 -122.5t93.5 -67.5t121.5 -20.5q86 0 142.5 30.5t91.5 84t49 127t14 159.5v828h287v-908q0 -285 -147.5 -416t-436.5 -131q-162 0 -273.5 39t-180 111t-99 172t-30.5 225z" />
<glyph unicode="V" horiz-adv-x="1366" d="M20 1430h308l366 -1123h4l363 1123h285l-482 -1430h-352z" />
<glyph unicode="W" horiz-adv-x="2048" d="M20 1430h302l266 -1143h4l244 1143h389l252 -1143h4l268 1143h279l-373 -1430h-369l-258 1143h-4l-254 -1143h-371z" />
<glyph unicode="X" horiz-adv-x="1366" d="M20 0l469 743l-426 687h332l299 -510l305 510h308l-430 -687l469 -743h-338l-330 557l-334 -557h-324z" />
<glyph unicode="Y" horiz-adv-x="1366" d="M23 1430h335l338 -601l344 601h303l-512 -865v-565h-286v565z" />
<glyph unicode="Z" d="M74 0v233l671 971h-645v226h951v-234l-678 -971h692v-225h-991z" />
<glyph unicode="[" horiz-adv-x="681" d="M147 -287v1835h459v-200h-196v-1434h196v-201h-459z" />
<glyph unicode="\" horiz-adv-x="796" d="M41 1454h213l500 -1479h-213z" />
<glyph unicode="]" horiz-adv-x="681" d="M76 -86h196v1434h-196v200h459v-1835h-459v201z" />
<glyph unicode="^" horiz-adv-x="1228" d="M135 641l383 789h193l383 -789h-213l-267 573l-266 -573h-213z" />
<glyph unicode="_" horiz-adv-x="1024" d="M0 -154h1024v-102h-1024v102z" />
<glyph unicode="`" horiz-adv-x="569" d="M59 1497h281l170 -299h-170z" />
<glyph unicode="a" d="M74 289q0 115 47 185.5t122.5 110.5t172 53t192.5 13h152q0 127 -59.5 177.5t-174.5 50.5q-72 0 -154.5 -24t-174.5 -91l-9 235q74 33 168.5 56.5t204.5 23.5q238 0 343.5 -105.5t105.5 -332.5v-141q0 -55 1 -98.5t2 -78t1 -73.5q2 -57 4 -109.5t8 -140.5h-242 q-4 33 -7 68.5t-5 89.5h-4q-14 -31 -44 -63t-73 -58.5t-95 -44t-110 -17.5q-74 0 -141 21.5t-118.5 61.5t-82 98.5t-30.5 132.5zM336 309q0 -57 40 -95t132 -38q47 0 91 15.5t79 50.5q41 41 61.5 97t20.5 148h-125q-129 0 -214 -40.5t-85 -137.5z" />
<glyph unicode="b" horiz-adv-x="1251" d="M141 0v1536h275v-616h4q23 31 51.5 59.5t66 51t87 35.5t110.5 13q115 0 198 -41t137 -114.5t81 -174t27 -217.5q0 -272 -120 -414.5t-317 -142.5q-102 0 -185 35t-144 119h-4v-129h-267zM416 535q0 -74 16.5 -137.5t47 -109.5t76.5 -73t106 -27q57 0 100 28t71.5 74 t43 108t14.5 132q0 49 -10.5 107.5t-35 110t-68.5 85t-111 33.5q-72 0 -119 -34.5t-77 -86t-42 -108.5t-12 -102z" />
<glyph unicode="c" horiz-adv-x="909" d="M74 535q0 117 34.5 216t99 171.5t159 114.5t215.5 42q98 0 164.5 -11t103.5 -24l-25 -217q-35 16 -79 27.5t-105 11.5q-72 0 -124 -26.5t-87 -72.5t-52.5 -107.5t-17.5 -129.5t16.5 -130t51.5 -109t88 -75t129 -28q47 0 105.5 13.5t105.5 36.5l12 -228 q-63 -20 -132.5 -27.5t-141.5 -7.5q-123 0 -219 39t-164 112t-102.5 176.5t-34.5 232.5z" />
<glyph unicode="d" horiz-adv-x="1251" d="M74 532q0 109 23.5 208.5t76.5 174t137 119.5t205 45q117 0 190.5 -42t127.5 -109h2v608h274v-1536h-266v119h-4q-59 -76 -142.5 -110t-183.5 -34q-115 0 -199 43t-137 119t-78.5 177.5t-25.5 217.5zM360 528q0 -61 12.5 -121.5t40 -108.5t71.5 -79t108 -31q61 0 106 28 t76 75t46.5 109.5t15.5 134.5q0 45 -12.5 102t-41 108.5t-77 86t-119.5 34.5q-68 0 -111 -33.5t-68.5 -84t-36 -109.5t-10.5 -111z" />
<glyph unicode="e" d="M74 524q0 111 29.5 211.5t90 177t152.5 121.5t217 45q137 0 232.5 -43t156 -124t87 -199.5t26.5 -270.5h-729q6 -72 32.5 -122t67.5 -81.5t92.5 -47t106.5 -15.5q98 0 186 31t166 76v-224q-86 -49 -180 -66.5t-186 -17.5q-98 0 -195.5 27t-176.5 90.5t-127 169t-48 262.5 zM336 631h467q-8 113 -62.5 180.5t-158.5 67.5q-117 0 -176.5 -69t-69.5 -179z" />
<glyph unicode="f" horiz-adv-x="796" d="M39 854v201h203v143q0 92 25.5 160.5t71.5 113t107.5 67t135.5 22.5q49 0 102 -6.5t94 -16.5l-22 -227q-31 18 -57.5 27.5t-59.5 9.5q-55 0 -89 -39t-34 -125v-129h240v-201h-240v-854h-274v854h-203z" />
<glyph unicode="g" horiz-adv-x="1251" d="M74 535q0 94 25.5 191t79.5 176t139 128t204 49q68 0 119 -14t89 -37.5t65.5 -54.5t48.5 -62h4v144h262v-955q0 -115 -27.5 -216t-92 -177t-171 -119t-266.5 -43q-104 0 -192.5 18.5t-172.5 53.5l23 233q29 -16 67.5 -31.5t80.5 -29.5t84 -22.5t77 -8.5q53 0 115.5 14.5 t109.5 61.5q49 49 70 124t21 210h-5q-47 -80 -137 -124t-190 -44q-117 0 -198 43t-133 115.5t-75.5 170t-23.5 206.5zM360 537q0 -61 15.5 -119t45.5 -104t73 -73.5t100 -27.5q113 0 177.5 85t64.5 245q0 68 -14.5 127t-42 102t-71.5 68.5t-102 25.5q-123 0 -184.5 -93 t-61.5 -236z" />
<glyph unicode="h" horiz-adv-x="1251" d="M141 0v1536h275v-625h4q43 66 128 117t202 51q94 0 162.5 -31.5t112.5 -87t64.5 -132t20.5 -164.5v-664h-274v569q0 49 -4.5 101.5t-20.5 96.5t-53 71.5t-101 27.5q-72 0 -117.5 -33.5t-73.5 -85t-39 -112t-11 -113.5v-522h-275z" />
<glyph unicode="i" horiz-adv-x="569" d="M147 0v1055h275v-1055h-275zM147 1247v262h275v-262h-275z" />
<glyph unicode="j" horiz-adv-x="569" d="M-31 -438l11 196q57 2 90.5 12.5t50 33t21.5 61.5t5 100v1090h275v-1127q0 -104 -23.5 -178t-66.5 -119t-102.5 -65.5t-129.5 -20.5q-31 0 -66.5 4.5t-64.5 12.5zM147 1247v262h275v-262h-275z" />
<glyph unicode="k" d="M147 0v1536h275v-903h4l328 422h323l-393 -471l442 -584h-348l-352 512h-4v-512h-275z" />
<glyph unicode="l" horiz-adv-x="569" d="M147 0v1536h275v-1536h-275z" />
<glyph unicode="m" horiz-adv-x="1820" d="M137 0v1055h256v-148h4q18 31 48 61.5t70 55.5t89 40t111 15q68 0 118 -15t86.5 -42t61.5 -59.5t41 -69.5q39 78 124 132t204 54q61 0 121.5 -15t108.5 -60.5t77 -124t29 -205.5v-674h-275v649q0 39 -5 78t-20.5 69.5t-47 50t-83.5 19.5q-59 0 -99 -27.5t-63.5 -75.5 t-33.5 -111.5t-10 -135.5v-516h-275v647q0 43 -5 82t-21.5 69.5t-48 49t-83.5 18.5q-63 0 -103 -31.5t-62.5 -80.5t-30.5 -110.5t-8 -121.5v-522h-275z" />
<glyph unicode="n" horiz-adv-x="1251" d="M141 0v1055h260v-144h5q23 33 53 63t71 53.5t94.5 37.5t123.5 14q186 0 274 -114.5t88 -307.5v-657h-274v573q0 63 -6.5 117.5t-27 93.5t-56 60.5t-93.5 21.5q-74 0 -120 -35.5t-71.5 -89t-35.5 -114t-10 -107.5v-520h-275z" />
<glyph unicode="o" horiz-adv-x="1251" d="M74 520q0 131 42 234.5t116.5 175t175 110.5t217.5 39q115 0 216 -37.5t176 -108.5t118 -175.5t43 -235.5q0 -129 -43 -231.5t-118 -172t-175.5 -106.5t-214.5 -37q-123 0 -225.5 39t-175 111t-112.5 172t-40 223zM360 553q0 -166 64.5 -265.5t200.5 -99.5q70 0 121 28 t82.5 76t47 113.5t15.5 143.5q0 59 -15.5 116.5t-48 101.5t-83 71.5t-119.5 27.5q-66 0 -116 -26.5t-83 -70.5t-49.5 -100.5t-16.5 -115.5z" />
<glyph unicode="p" horiz-adv-x="1251" d="M141 -430v1485h262v-150h5q59 96 143 135t184 39q113 0 196 -40t138 -112.5t82 -173t27 -221.5q0 -268 -118 -412.5t-327 -144.5q-61 0 -107 10.5t-82 30t-65.5 46t-58.5 59.5h-4v-551h-275zM416 530q0 -53 12 -113.5t40 -111.5t75 -84t119 -33q68 0 111.5 33t69 84 t37 111.5t11.5 113.5q0 68 -13.5 129.5t-42 107.5t-71.5 72.5t-100 26.5q-59 0 -105.5 -27.5t-78 -74.5t-48 -107.5t-16.5 -126.5z" />
<glyph unicode="q" horiz-adv-x="1251" d="M74 532q0 119 26.5 219.5t82 173t139.5 113.5t200 41q217 0 322 -174h4v150h262v-1485h-274v551h-5q-53 -66 -122.5 -106t-182.5 -40q-121 0 -205.5 43t-140 118t-81 177.5t-25.5 218.5zM360 530q0 -55 11.5 -115.5t38 -110.5t70.5 -83t112 -33q70 0 117 34t75.5 86 t40 111.5t11.5 112.5q0 61 -15.5 121t-47.5 108t-78 76.5t-107 28.5t-105.5 -29.5t-71 -76.5t-39 -107.5t-12.5 -122.5z" />
<glyph unicode="r" horiz-adv-x="796" d="M147 0v1055h244v-240h4q6 45 32 92t63.5 85t88 62.5t105.5 24.5q57 0 84 -8v-274q-35 12 -62.5 16t-62.5 4q-117 0 -169 -99.5t-52 -279.5v-438h-275z" />
<glyph unicode="s" horiz-adv-x="909" d="M74 752q0 86 34.5 148.5t93 102t133.5 58t152 18.5q78 0 154 -11t145 -28l-18 -206q-68 25 -123 35t-121 10q-86 0 -125 -34t-39 -83q0 -41 36 -64.5t88.5 -41t115 -37t114.5 -54.5t88 -92t36 -151q0 -86 -34 -151t-93.5 -109t-142.5 -65.5t-181 -21.5q-82 0 -165 14.5 t-138 30.5l16 226q68 -33 131.5 -51.5t139.5 -18.5q72 0 126 32t54 97q0 51 -36 78t-88 45t-114.5 34.5t-115 49.5t-88 88t-35.5 152z" />
<glyph unicode="t" horiz-adv-x="796" d="M29 854v201h202v211l275 88v-299h244v-201h-244v-494q0 -90 33.5 -131t99.5 -41q27 0 59.5 6.5t61.5 20.5l8 -215q-41 -12 -94 -18.5t-107 -6.5q-162 0 -249 90.5t-87 256.5v532h-202z" />
<glyph unicode="u" horiz-adv-x="1251" d="M141 393v662h275v-561q0 -59 4 -114.5t22.5 -97.5t54 -68t97.5 -26q66 0 112 29t74.5 78t42 114.5t13.5 137.5v508h274v-1055h-260v143h-4q-57 -70 -143.5 -119t-204.5 -49q-92 0 -160 31t-111 86t-64.5 132t-21.5 169z" />
<glyph unicode="v" d="M25 1055h294l263 -768h4l254 768h274l-389 -1055h-309z" />
<glyph unicode="w" horiz-adv-x="1820" d="M23 1055h290l234 -781h4l213 781h319l230 -781h4l219 781h262l-323 -1055h-324l-229 805h-4l-226 -805h-313z" />
<glyph unicode="x" d="M18 0l363 553l-326 502h324l207 -344l202 344h291l-315 -502l356 -553h-327l-236 393l-238 -393h-301z" />
<glyph unicode="y" d="M23 1055h303l254 -770h4l254 770h278l-424 -1125q-29 -78 -60.5 -147.5t-77.5 -122.5t-112.5 -84t-165.5 -31q-47 0 -98 8.5t-90 20.5l18 203q49 -18 144 -19q49 0 83 17.5t54.5 45t29.5 61.5t9 65z" />
<glyph unicode="z" horiz-adv-x="1024" d="M74 0v223l534 619h-512v213h836v-226l-524 -616h542v-213h-876z" />
<glyph unicode="{" horiz-adv-x="681" d="M37 543v176q80 0 124 52t44 138v371q0 45 17.5 93t54 87t95 63.5t140.5 24.5h150v-164h-93q-47 0 -74.5 -26.5t-27.5 -110.5v-364q0 -66 -19.5 -112t-52.5 -74.5t-73.5 -44t-83.5 -19.5v-4q45 -4 87 -18.5t73.5 -45t50 -79t18.5 -117.5v-349q0 -86 24.5 -114.5 t79.5 -28.5h91v-164h-152q-137 0 -221 76t-84 197v360q0 80 -41 138.5t-127 58.5z" />
<glyph unicode="|" horiz-adv-x="454" d="M121 -25v1561h213v-1561h-213z" />
<glyph unicode="}" horiz-adv-x="681" d="M20 -123h91q57 0 80.5 28.5t23.5 112.5v357q0 119 59.5 181t169.5 73v4q-100 10 -164.5 68.5t-64.5 179.5v364q0 78 -23.5 108.5t-76.5 30.5h-95v164h158q55 0 109.5 -16t96.5 -50t67.5 -86.5t25.5 -125.5v-361q0 -86 44 -138t124 -52v-176q-76 0 -122 -52.5t-46 -144.5 v-350q0 -127 -79 -205t-236 -78h-142v164z" />
<glyph unicode="~" horiz-adv-x="1228" d="M141 516q41 80 101.5 130t148.5 50q74 0 132.5 -22.5t110.5 -49t102 -49t108 -22.5q53 0 93 45t77 102l73 -180q-18 -31 -42.5 -63.5t-53 -58t-64.5 -42t-79 -16.5q-70 0 -125 22.5t-107.5 49t-106.5 49t-118 22.5q-70 0 -108.5 -44t-67.5 -103z" />
<glyph d="M-33 502l33 151h96v41q0 23 1 43.5t3 42.5h-133l33 152h123q63 250 257.5 386t500.5 136q102 0 202 -22l-49 -220q-72 16 -151 17q-90 0 -163 -23.5t-128 -63.5t-94 -94.5t-64 -115.5h539l-33 -152h-541q-2 -16 -3 -33.5t-1 -33.5v-31q0 -14 2 -29h516l-32 -151h-451 q53 -141 169 -221t280 -80q35 0 85 4t103 14v-227q-51 -8 -99 -12.5t-89 -4.5q-139 0 -264.5 30t-226.5 92.5t-172 162.5t-101 242h-148z" />
<glyph unicode="&#xa1;" horiz-adv-x="796" d="M240 -375l43 1010h227l45 -1010h-315zM252 768v287h287v-287h-287z" />
<glyph unicode="&#xa2;" d="M176 539q0 90 26.5 186t87 175t161 129t247.5 50h35q14 0 35 -4l53 170h119l-57 -186q16 -2 34.5 -6t34.5 -9l-24 -217q-29 14 -53.5 21.5t-53.5 11.5l-198 -645q55 -27 125 -27q41 0 102 13.5t108 36.5l13 -228q-61 -20 -134 -27.5t-139 -7.5q-35 0 -73.5 3.5 t-71.5 13.5l-55 -176h-119l65 213q-37 18 -83 53t-88 94.5t-69.5 147.5t-27.5 215zM463 535q0 -82 17.5 -138.5t47.5 -99.5l174 569q-59 -8 -104 -37.5t-74.5 -74.5t-45 -101.5t-15.5 -117.5z" />
<glyph unicode="&#xa3;" d="M111 0v213h180v449h-156v163h156v172q0 100 37 184.5t103.5 144.5t158.5 94t201 34q80 0 139 -9t119 -26l-15 -225q-53 16 -100 25.5t-103 9.5q-113 0 -183 -69.5t-70 -205.5v-129h301v-163h-301v-449h456v-213h-923z" />
<glyph unicode="&#xa4;" d="M37 307l119 119q-45 61 -70 135t-25 158q0 82 26 156.5t69 136.5l-119 118l121 121l118 -118q63 45 137 69.5t158 24.5q82 0 156 -25.5t135 -68.5l119 118l121 -121l-119 -118q43 -63 68.5 -136t25.5 -157q0 -82 -25.5 -156t-68.5 -137l119 -119l-121 -121l-119 119 q-61 -45 -135 -69.5t-158 -24.5q-82 0 -156.5 24.5t-136.5 69.5l-118 -119zM287 719q0 -61 22.5 -114.5t60.5 -93.5t89 -63.5t110 -23.5q61 0 112.5 24.5t89.5 64.5t59.5 93.5t21.5 112.5q0 61 -22.5 114.5t-60.5 93.5t-89 63.5t-109 23.5q-61 0 -112 -23.5t-90 -64.5 t-60.5 -94.5t-21.5 -112.5z" />
<glyph unicode="&#xa5;" d="M-20 1430h288l310 -631l315 631h268l-354 -674h201v-164h-287l-14 -27v-100h301v-164h-301v-301h-275v301h-301v164h301v100l-16 27h-285v164h205z" />
<glyph unicode="&#xa6;" horiz-adv-x="454" d="M121 -25v564h213v-564h-213zM121 973v563h213v-563h-213z" />
<glyph unicode="&#xa7;" d="M135 588q0 59 15.5 103t39 77t51 55.5t52.5 36.5q-66 43 -104.5 99.5t-38.5 144.5q0 80 33.5 144.5t93 110.5t142.5 70.5t181 24.5q37 0 71 -2t70.5 -7t80.5 -13.5t102 -18.5l-23 -223q-74 27 -144.5 39t-148.5 12q-113 0 -154.5 -41t-41.5 -100q0 -53 44 -86 t109.5 -58.5t143 -51t143.5 -64.5t110 -99.5t44 -154.5q0 -92 -44 -158t-108 -102q68 -41 103.5 -102.5t35.5 -133.5q0 -86 -36.5 -153.5t-100 -115.5t-145.5 -74t-174 -26q-88 0 -179.5 16.5t-195.5 43.5l18 233q33 -14 76 -28.5t89 -25.5t92 -18.5t87 -7.5q117 0 162 42 t45 98q0 53 -44 87t-110.5 60.5t-143.5 52t-143.5 64.5t-110.5 98.5t-44 151.5zM348 635q0 -49 39 -83t96.5 -60.5t122 -50t113.5 -50.5q29 27 51.5 65t22.5 85q0 55 -33 89t-86 57.5t-120 45t-132 51.5q-35 -27 -54.5 -67.5t-19.5 -81.5z" />
<glyph unicode="&#xa8;" horiz-adv-x="569" d="M-45 1247v238h238v-238h-238zM377 1247v238h237v-238h-237z" />
<glyph unicode="&#xa9;" horiz-adv-x="1638" d="M80 715q0 152 57.5 287t157.5 235t235.5 158.5t288.5 58.5q154 0 289 -58.5t234.5 -158.5t158 -235t58.5 -287q0 -154 -58.5 -289t-159 -235.5t-235.5 -158t-287 -57.5t-287 58.5t-235 158t-158.5 234.5t-58.5 289zM293 717q0 -127 39 -232.5t109.5 -182.5t167 -120 t210.5 -43q115 0 211 44t167 121t110 182.5t39 230.5q0 117 -38 220t-106.5 182t-166 125t-216.5 46t-216 -45t-165.5 -124t-106.5 -183t-38 -221zM430 721q0 92 28.5 172t82 138.5t130.5 92t175 33.5q147 0 241.5 -84t112.5 -223h-164q-10 59 -57 101t-137 42 q-92 0 -151.5 -69.5t-59.5 -198.5q0 -57 15.5 -107.5t43 -88t67.5 -59t89 -21.5q70 0 125 33.5t65 113.5h170q-10 -70 -40.5 -127t-78 -98t-107.5 -63.5t-130 -22.5q-98 0 -177 34.5t-132.5 94t-82 138.5t-28.5 169z" />
<glyph unicode="&#xaa;" horiz-adv-x="739" d="M57 965q0 111 80 171t273 60h86q0 72 -34 103.5t-112 31.5q-72 0 -127 -20.5t-92 -42.5v135q45 23 108.5 37t137.5 14q84 0 140 -17.5t90 -52t49.5 -87t15.5 -123.5l2 -170q0 -29 2 -79.5t6 -121.5h-172l-6 86h-4q-27 -59 -80 -81t-117 -22q-41 0 -85 10.5t-80 32 t-58.5 55.5t-22.5 81zM233 979q0 -37 33 -53.5t74 -16.5q78 0 118 52.5t40 123.5h-84q-180 0 -181 -106z" />
<glyph unicode="&#xab;" d="M100 551l242 420h258l-225 -420l225 -420h-258zM557 551l242 420h258l-226 -420l226 -420h-258z" />
<glyph unicode="&#xac;" horiz-adv-x="1228" d="M94 635v213h1041v-627h-213v414h-828z" />
<glyph unicode="&#xad;" horiz-adv-x="1228" d="M94 412v213h1041v-213h-1041z" />
<glyph unicode="&#xae;" horiz-adv-x="1638" d="M80 715q0 152 57.5 287t157.5 235t235.5 158.5t288.5 58.5q154 0 289 -58.5t234.5 -158.5t158 -235t58.5 -287q0 -154 -58.5 -289t-159 -235.5t-235.5 -158t-287 -57.5t-287 58.5t-235 158t-158.5 234.5t-58.5 289zM293 717q0 -127 39 -232.5t109.5 -182.5t167 -120 t210.5 -43q115 0 211 44t167 121t110 182.5t39 230.5q0 117 -38 220t-106.5 182t-166 125t-216.5 46t-216 -45t-165.5 -124t-106.5 -183t-38 -221zM522 307v821h303q74 0 134.5 -10t105.5 -37.5t69.5 -75t24.5 -120.5q0 -59 -17.5 -99.5t-46 -67t-68.5 -39.5t-85 -15 l217 -357h-180l-197 348h-84v-348h-176zM698 791h150q45 0 71.5 9t41 24.5t18.5 35t4 39.5q0 16 -6 32.5t-22.5 31t-47 22.5t-80.5 8h-129v-202z" />
<glyph unicode="&#xaf;" horiz-adv-x="569" d="M-10 1266v164h590v-164h-590z" />
<glyph unicode="&#xb0;" horiz-adv-x="819" d="M80 1126q0 68 25.5 127.5t70.5 104.5t105.5 70.5t128.5 25.5t128 -25.5t105 -70.5t70.5 -104.5t25.5 -127.5q0 -72 -25.5 -132t-70.5 -105t-104.5 -69.5t-128.5 -24.5q-70 0 -130.5 24.5t-104.5 67.5t-69.5 104.5t-25.5 134.5zM229 1124q0 -84 52.5 -132t128.5 -48 t128 48t52 134q0 80 -51.5 129.5t-128.5 49.5q-78 0 -129.5 -49.5t-51.5 -131.5z" />
<glyph unicode="&#xb1;" horiz-adv-x="1228" d="M94 0v213h1041v-213h-1041zM94 553v213h414v270h213v-270h414v-213h-414v-272h-213v272h-414z" />
<glyph unicode="&#xb2;" horiz-adv-x="739" d="M61 578v165q57 31 124 87.5t123.5 119t93 123t36.5 98.5q0 59 -36.5 83t-88.5 24q-72 0 -123 -20.5t-92 -49.5l-14 178q43 23 111.5 45.5t166.5 22.5q154 0 234 -68.5t80 -191.5q0 -68 -38 -136.5t-91 -128t-112.5 -105.5t-104.5 -66v-4h350v-176h-619z" />
<glyph unicode="&#xb3;" horiz-adv-x="739" d="M53 600l10 170q70 -20 118 -30.5t108 -10.5q27 0 54.5 6t51 19.5t39 33t15.5 46.5q0 53 -41 76.5t-115 23.5q-16 0 -45 -1t-64 -5v172q41 0 72 -1t41 -1q72 0 112 28.5t40 69.5q0 43 -30 68.5t-108 25.5q-63 0 -119.5 -15t-97.5 -38l-10 168q59 23 128 36t134 13 q57 0 115.5 -11t105.5 -37t77 -66t30 -97q0 -92 -46 -142t-124 -73v-4q76 -4 129 -54.5t53 -140.5q0 -78 -39 -129t-95 -80.5t-121.5 -42t-119.5 -12.5q-59 0 -123.5 8.5t-134.5 26.5z" />
<glyph unicode="&#xb4;" horiz-adv-x="569" d="M59 1198l170 299h281l-281 -299h-170z" />
<glyph unicode="&#xb5;" horiz-adv-x="1251" d="M141 -430v1485h275v-592q0 -133 39 -204t137 -71q121 0 182.5 97.5t61.5 263.5v506h274v-1055h-260v143h-4q-12 -29 -33.5 -58.5t-51.5 -54t-68 -40t-81 -15.5q-78 0 -119.5 18.5t-76.5 55.5v-479h-275z" />
<glyph unicode="&#xb6;" horiz-adv-x="1269" d="M4 1053q0 199 123 288t365 89h604v-1684h-213v1520h-217v-1520h-213v952q-102 0 -185.5 25t-141.5 70t-90 110.5t-32 149.5z" />
<glyph unicode="&#xb7;" horiz-adv-x="569" d="M127 582q0 70 43 113.5t115 43.5t114.5 -43.5t42.5 -113.5t-43 -114t-114 -44q-72 0 -115 44t-43 114z" />
<glyph unicode="&#xb8;" horiz-adv-x="569" d="M154 -412l41 111q37 -14 74.5 -22.5t68.5 -8.5q47 0 77.5 18.5t30.5 55.5q0 35 -25.5 53.5t-62.5 18.5q-25 0 -45 -5.5t-43 -13.5l-30 53l120 152h129l-94 -109l4 -4q29 6 47.5 9.5t36.5 3.5q86 0 125 -46.5t39 -95.5q0 -92 -63.5 -152.5t-198.5 -60.5q-55 0 -115.5 8.5 t-115.5 34.5z" />
<glyph unicode="&#xb9;" horiz-adv-x="739" d="M25 1237l284 205h193v-864h-213v655l-158 -121z" />
<glyph unicode="&#xba;" horiz-adv-x="813" d="M43 1122q0 76 29.5 137.5t81 104.5t117 66.5t139.5 23.5t139 -23.5t114.5 -67.5t78 -105.5t28.5 -137.5t-27.5 -137t-77 -105t-116 -68t-141.5 -24q-76 0 -142.5 24t-116 67t-78 105t-28.5 140zM244 1118q0 -88 34.5 -148.5t133.5 -60.5q49 0 79.5 18.5t48 48.5 t23.5 67.5t6 76.5q0 37 -7 75t-25.5 68.5t-48 49t-74.5 18.5q-47 0 -80 -17.5t-52.5 -46t-28.5 -67.5t-9 -82z" />
<glyph unicode="&#xbb;" d="M82 131l225 420l-225 420h258l242 -420l-242 -420h-258zM539 131l225 420l-225 420h258l241 -420l-241 -420h-258z" />
<glyph unicode="&#xbc;" horiz-adv-x="1708" d="M41 1237l285 205h192v-864h-213v655l-158 -121zM334 -45l856 1520h168l-854 -1520h-170zM932 162v174l368 528h256v-538h99v-164h-99v-162h-213v162h-411zM1106 326h237v350h-4z" />
<glyph unicode="&#xbd;" horiz-adv-x="1708" d="M20 1235l285 207h193v-864h-213v655l-158 -123zM274 -45l854 1520h168l-854 -1520h-168zM1022 0v166q57 31 123.5 87t123 118.5t93.5 123t37 99.5q0 59 -37 82.5t-88 23.5q-72 0 -123 -20.5t-92 -48.5l-15 178q43 23 112 45.5t167 22.5q154 0 233.5 -69t79.5 -192 q0 -68 -37.5 -136t-91 -127.5t-113 -105.5t-104.5 -67v-4h350v-176h-618z" />
<glyph unicode="&#xbe;" horiz-adv-x="1708" d="M29 600l10 170q41 -12 71.5 -20.5t57.5 -12.5t52.5 -6t53.5 -2q27 0 56.5 6t52.5 19.5t38 33t15 46.5q0 53 -47 76.5t-121 23.5q-16 0 -44.5 -1t-63.5 -5v172q41 0 71.5 -1t40.5 -1q72 0 118 25.5t46 72.5q0 43 -35.5 68.5t-113.5 25.5q-63 0 -119.5 -15t-97.5 -38 l-11 168q59 23 128 36t135 13q57 0 115.5 -11t105.5 -37t76.5 -66t29.5 -97q0 -92 -46 -142t-124 -73v-4q76 -4 129.5 -54.5t53.5 -140.5q0 -78 -39 -129t-95.5 -80.5t-122 -42t-118.5 -12.5q-59 0 -124 8.5t-134 26.5zM360 -45l854 1520h168l-854 -1520h-168zM956 162v174 l369 528h256v-538h98v-164h-98v-162h-213v162h-412zM1135 326h233v350h-4z" />
<glyph unicode="&#xbf;" horiz-adv-x="1024" d="M49 -33q0 61 21.5 114.5t54.5 99.5t73 89t76 86q49 55 86 115.5t37 126.5v39h252q0 -117 -38 -214t-134 -194q-68 -68 -98.5 -121t-30.5 -106t21.5 -90t55.5 -58.5t75 -30.5t82 -9q96 0 172.5 23.5t144.5 58.5l23 -228q-86 -37 -187.5 -52t-218.5 -15q-100 0 -185 22.5 t-147.5 68.5t-98.5 114.5t-36 160.5zM377 768v287h287v-287h-287z" />
<glyph unicode="&#xc0;" horiz-adv-x="1478" d="M18 0l557 1430h324l561 -1430h-317l-123 328h-580l-125 -328h-297zM457 1821h280l170 -299h-170zM522 553h418l-207 590h-4z" />
<glyph unicode="&#xc1;" horiz-adv-x="1478" d="M18 0l557 1430h324l561 -1430h-317l-123 328h-580l-125 -328h-297zM522 553h418l-207 590h-4zM571 1522l170 299h281l-281 -299h-170z" />
<glyph unicode="&#xc2;" horiz-adv-x="1478" d="M18 0l557 1430h324l561 -1430h-317l-123 328h-580l-125 -328h-297zM416 1522l225 299h207l215 -299h-182l-140 176l-143 -176h-182zM522 553h418l-207 590h-4z" />
<glyph unicode="&#xc3;" horiz-adv-x="1478" d="M18 0l557 1430h324l561 -1430h-317l-123 328h-580l-125 -328h-297zM377 1559q0 45 15.5 89t43 78.5t66.5 57t86 22.5q43 0 86 -13t82 -29.5t75.5 -30t67.5 -13.5q88 0 92 101h111q0 -104 -52.5 -176t-148.5 -72q-55 0 -98 12t-80 25.5t-69.5 26t-65.5 12.5q-53 0 -77 -30 t-24 -60h-110zM522 553h418l-207 590h-4z" />
<glyph unicode="&#xc4;" horiz-adv-x="1478" d="M18 0l557 1430h324l561 -1430h-317l-123 328h-580l-125 -328h-297zM410 1571v237h237v-237h-237zM522 553h418l-207 590h-4zM831 1571v237h238v-237h-238z" />
<glyph unicode="&#xc5;" horiz-adv-x="1478" d="M18 0l557 1430h324l561 -1430h-317l-123 328h-580l-125 -328h-297zM522 553h418l-207 590h-4zM522 1696q0 37 15.5 75.5t43 70.5t68.5 52.5t94 20.5q49 0 89 -19.5t68 -50t43 -70.5t15 -79t-14 -78t-42 -69.5t-68.5 -50t-92.5 -19.5q-51 0 -91 19.5t-68.5 50t-44 69.5 t-15.5 78zM633 1696q0 -45 31.5 -76t76.5 -31q41 0 74 30t33 77t-32 77.5t-73 30.5q-47 0 -78.5 -30.5t-31.5 -77.5z" />
<glyph unicode="&#xc6;" horiz-adv-x="1933" d="M18 0l783 1430h1022v-226h-555l28 -352h482v-225h-457l33 -402h477v-225h-756l-24 328h-549l-176 -328h-308zM625 553h405l-47 664h-4z" />
<glyph unicode="&#xc7;" horiz-adv-x="1251" d="M96 694q0 178 53.5 319.5t153.5 239t245.5 149.5t332.5 52q90 0 177 -17.5t146 -41.5l-20 -242q-57 35 -132 55.5t-169 20.5q-129 0 -222.5 -47t-151.5 -121t-86 -166t-28 -182q0 -115 35 -209t98.5 -162t152.5 -104.5t198 -36.5q31 0 70.5 3t82.5 10t85 18.5t77 27.5 l12 -240q-84 -23 -171 -34t-156 -11q-160 0 -302.5 40t-249 126t-169 222.5t-62.5 330.5zM537 -412l41 111q37 -14 74.5 -22.5t68.5 -8.5q47 0 77.5 18.5t30.5 55.5q0 35 -25.5 53.5t-62.5 18.5q-25 0 -45 -5.5t-43 -13.5l-30 53l120 152h129l-94 -109l4 -4q29 6 47.5 9.5 t36.5 3.5q86 0 125 -46.5t39 -95.5q0 -92 -63.5 -152.5t-198.5 -60.5q-55 0 -115.5 8.5t-115.5 34.5z" />
<glyph unicode="&#xc8;" d="M166 0v1430h844v-226h-557v-352h510v-225h-510v-402h561v-225h-848zM287 1821h280l170 -299h-170z" />
<glyph unicode="&#xc9;" d="M166 0v1430h844v-226h-557v-352h510v-225h-510v-402h561v-225h-848zM401 1522l170 299h281l-281 -299h-170z" />
<glyph unicode="&#xca;" d="M166 0v1430h844v-226h-557v-352h510v-225h-510v-402h561v-225h-848zM246 1522l225 299h207l215 -299h-182l-140 176l-143 -176h-182z" />
<glyph unicode="&#xcb;" d="M166 0v1430h844v-226h-557v-352h510v-225h-510v-402h561v-225h-848zM240 1571v237h237v-237h-237zM662 1571v237h237v-237h-237z" />
<glyph unicode="&#xcc;" horiz-adv-x="569" d="M2 1821h281l170 -299h-170zM141 0v1430h287v-1430h-287z" />
<glyph unicode="&#xcd;" horiz-adv-x="569" d="M117 1522l170 299h280l-280 -299h-170zM141 0v1430h287v-1430h-287z" />
<glyph unicode="&#xce;" horiz-adv-x="569" d="M-39 1522l225 299h207l215 -299h-182l-139 176l-144 -176h-182zM141 0v1430h287v-1430h-287z" />
<glyph unicode="&#xcf;" horiz-adv-x="569" d="M-45 1571v237h238v-237h-238zM141 0v1430h287v-1430h-287zM377 1571v237h237v-237h-237z" />
<glyph unicode="&#xd0;" horiz-adv-x="1478" d="M35 688v176h131v566h401q193 0 344.5 -42t256 -129.5t159.5 -221.5t55 -320q0 -193 -56 -329t-163.5 -222t-261 -126t-348.5 -40h-387v688h-131zM453 225h159q80 0 164 29t151.5 89t111.5 153.5t44 222.5q0 100 -34.5 188t-97 154.5t-150.5 104.5t-195 38h-153v-340h299 v-176h-299v-463z" />
<glyph unicode="&#xd1;" horiz-adv-x="1478" d="M152 0v1430h352l545 -1070h4v1070h274v-1430h-350l-547 1069h-4v-1069h-274zM377 1559q0 45 15.5 89t43 78.5t66.5 57t86 22.5q43 0 86 -13t82 -29.5t75.5 -30t67.5 -13.5q88 0 92 101h111q0 -104 -52.5 -176t-148.5 -72q-55 0 -98 12t-80 25.5t-69.5 26t-65.5 12.5 q-53 0 -77 -30t-24 -60h-110z" />
<glyph unicode="&#xd2;" horiz-adv-x="1593" d="M96 721q0 162 45 297t134.5 231.5t219.5 150.5t302 54q164 0 294 -52t220 -149.5t138 -232.5t48 -301q0 -160 -45 -296t-133 -235.5t-219 -156t-305 -56.5t-305.5 55.5t-218.5 155t-131 236.5t-44 299zM395 721q0 -109 24.5 -204t74 -165.5t125 -110.5t178.5 -40 q104 0 180 42t125 112.5t72.5 166t23.5 199.5q0 100 -24.5 192.5t-74.5 162t-126 111.5t-176 42q-102 0 -178 -42t-125.5 -112.5t-74 -163t-24.5 -190.5zM514 1821h281l170 -299h-170z" />
<glyph unicode="&#xd3;" horiz-adv-x="1593" d="M96 721q0 162 45 297t134.5 231.5t219.5 150.5t302 54q164 0 294 -52t220 -149.5t138 -232.5t48 -301q0 -160 -45 -296t-133 -235.5t-219 -156t-305 -56.5t-305.5 55.5t-218.5 155t-131 236.5t-44 299zM395 721q0 -109 24.5 -204t74 -165.5t125 -110.5t178.5 -40 q104 0 180 42t125 112.5t72.5 166t23.5 199.5q0 100 -24.5 192.5t-74.5 162t-126 111.5t-176 42q-102 0 -178 -42t-125.5 -112.5t-74 -163t-24.5 -190.5zM629 1522l170 299h280l-280 -299h-170z" />
<glyph unicode="&#xd4;" horiz-adv-x="1593" d="M96 721q0 162 45 297t134.5 231.5t219.5 150.5t302 54q164 0 294 -52t220 -149.5t138 -232.5t48 -301q0 -160 -45 -296t-133 -235.5t-219 -156t-305 -56.5t-305.5 55.5t-218.5 155t-131 236.5t-44 299zM395 721q0 -109 24.5 -204t74 -165.5t125 -110.5t178.5 -40 q104 0 180 42t125 112.5t72.5 166t23.5 199.5q0 100 -24.5 192.5t-74.5 162t-126 111.5t-176 42q-102 0 -178 -42t-125.5 -112.5t-74 -163t-24.5 -190.5zM473 1522l225 299h207l215 -299h-182l-139 176l-144 -176h-182z" />
<glyph unicode="&#xd5;" horiz-adv-x="1593" d="M96 721q0 162 45 297t134.5 231.5t219.5 150.5t302 54q164 0 294 -52t220 -149.5t138 -232.5t48 -301q0 -160 -45 -296t-133 -235.5t-219 -156t-305 -56.5t-305.5 55.5t-218.5 155t-131 236.5t-44 299zM395 721q0 -109 24.5 -204t74 -165.5t125 -110.5t178.5 -40 q104 0 180 42t125 112.5t72.5 166t23.5 199.5q0 100 -24.5 192.5t-74.5 162t-126 111.5t-176 42q-102 0 -178 -42t-125.5 -112.5t-74 -163t-24.5 -190.5zM434 1559q0 45 15.5 89t43 78.5t66.5 57t86 22.5q43 0 86 -13t82 -29.5t76 -30t67 -13.5q88 0 93 101h110 q0 -104 -52 -176t-149 -72q-55 0 -98 12t-80 25.5t-69.5 26t-65.5 12.5q-53 0 -76.5 -30t-23.5 -60h-111z" />
<glyph unicode="&#xd6;" horiz-adv-x="1593" d="M96 721q0 162 45 297t134.5 231.5t219.5 150.5t302 54q164 0 294 -52t220 -149.5t138 -232.5t48 -301q0 -160 -45 -296t-133 -235.5t-219 -156t-305 -56.5t-305.5 55.5t-218.5 155t-131 236.5t-44 299zM395 721q0 -109 24.5 -204t74 -165.5t125 -110.5t178.5 -40 q104 0 180 42t125 112.5t72.5 166t23.5 199.5q0 100 -24.5 192.5t-74.5 162t-126 111.5t-176 42q-102 0 -178 -42t-125.5 -112.5t-74 -163t-24.5 -190.5zM467 1571v237h238v-237h-238zM889 1571v237h237v-237h-237z" />
<glyph unicode="&#xd7;" horiz-adv-x="1228" d="M135 186l332 332l-332 332l148 147l331 -331l332 331l148 -147l-334 -332l334 -332l-148 -147l-332 334l-331 -334z" />
<glyph unicode="&#xd8;" horiz-adv-x="1593" d="M96 721q0 162 45 297t134.5 231.5t219.5 150.5t302 54q242 0 405 -108l111 143l92 -76l-111 -143q100 -98 151.5 -237.5t51.5 -313.5q0 -160 -45 -296t-133 -235.5t-219 -156t-305 -56.5q-129 0 -231.5 30t-184.5 87l-117 -151l-92 73l121 156q-100 100 -147.5 239.5 t-47.5 311.5zM395 721q0 -92 17.5 -175t54.5 -149l575 742q-47 43 -108.5 66.5t-136.5 23.5q-102 0 -178 -42t-125.5 -112.5t-74 -163t-24.5 -190.5zM541 299q47 -47 110.5 -72.5t145.5 -25.5q104 0 180 42t125 112.5t72.5 166t23.5 199.5q0 90 -19.5 172t-60.5 149z" />
<glyph unicode="&#xd9;" horiz-adv-x="1478" d="M156 522v908h286v-832q0 -111 21.5 -186.5t60.5 -122.5t93.5 -67.5t121.5 -20.5q86 0 142.5 30.5t91.5 84t49 127t14 159.5v828h287v-908q0 -285 -147.5 -416t-436.5 -131q-162 0 -273.5 39t-180 111t-99 172t-30.5 225zM457 1821h280l170 -299h-170z" />
<glyph unicode="&#xda;" horiz-adv-x="1478" d="M156 522v908h286v-832q0 -111 21.5 -186.5t60.5 -122.5t93.5 -67.5t121.5 -20.5q86 0 142.5 30.5t91.5 84t49 127t14 159.5v828h287v-908q0 -285 -147.5 -416t-436.5 -131q-162 0 -273.5 39t-180 111t-99 172t-30.5 225zM571 1522l170 299h281l-281 -299h-170z" />
<glyph unicode="&#xdb;" horiz-adv-x="1478" d="M156 522v908h286v-832q0 -111 21.5 -186.5t60.5 -122.5t93.5 -67.5t121.5 -20.5q86 0 142.5 30.5t91.5 84t49 127t14 159.5v828h287v-908q0 -285 -147.5 -416t-436.5 -131q-162 0 -273.5 39t-180 111t-99 172t-30.5 225zM416 1522l225 299h207l215 -299h-182l-140 176 l-143 -176h-182z" />
<glyph unicode="&#xdc;" horiz-adv-x="1478" d="M156 522v908h286v-832q0 -111 21.5 -186.5t60.5 -122.5t93.5 -67.5t121.5 -20.5q86 0 142.5 30.5t91.5 84t49 127t14 159.5v828h287v-908q0 -285 -147.5 -416t-436.5 -131q-162 0 -273.5 39t-180 111t-99 172t-30.5 225zM410 1571v237h237v-237h-237zM831 1571v237h238 v-237h-238z" />
<glyph unicode="&#xdd;" horiz-adv-x="1366" d="M23 1430h335l338 -601l344 601h303l-512 -865v-565h-286v565zM516 1522l170 299h281l-281 -299h-170z" />
<glyph unicode="&#xde;" d="M141 0v1430h287v-238h80q137 0 246.5 -25.5t186.5 -78t118 -134t41 -194.5q0 -119 -39 -205t-111.5 -141.5t-173 -82t-223.5 -26.5h-125v-305h-287zM428 530h94q279 0 279 213q0 104 -66.5 164t-212.5 60h-94v-437z" />
<glyph unicode="&#xdf;" horiz-adv-x="1251" d="M147 0v1036q0 106 29 201.5t90.5 167.5t156.5 114t228 42q82 0 166 -22.5t149.5 -70t107.5 -119t42 -169.5q0 -127 -65.5 -225.5t-206.5 -133.5v-4q74 -10 137 -42t109.5 -82t73 -113.5t26.5 -137.5q0 -104 -36 -189t-99.5 -143.5t-150.5 -90t-187 -31.5q-57 0 -100.5 7 t-84.5 15l9 213q29 -10 67.5 -16t73.5 -6q109 0 165 69.5t56 196.5q0 72 -26.5 117t-71.5 71.5t-102.5 35.5t-120.5 9v213q129 0 188 58.5t59 163.5q0 98 -48 155.5t-130 57.5q-106 0 -167.5 -80t-61.5 -221v-1047h-275z" />
<glyph unicode="&#xe0;" d="M74 289q0 115 47 185.5t122.5 110.5t172 53t192.5 13h152q0 127 -59.5 177.5t-174.5 50.5q-72 0 -154.5 -24t-174.5 -91l-9 235q74 33 168.5 56.5t204.5 23.5q238 0 343.5 -105.5t105.5 -332.5v-141q0 -55 1 -98.5t2 -78t1 -73.5q2 -57 4 -109.5t8 -140.5h-242 q-4 33 -7 68.5t-5 89.5h-4q-14 -31 -44 -63t-73 -58.5t-95 -44t-110 -17.5q-74 0 -141 21.5t-118.5 61.5t-82 98.5t-30.5 132.5zM252 1497h280l170 -299h-170zM336 309q0 -57 40 -95t132 -38q47 0 91 15.5t79 50.5q41 41 61.5 97t20.5 148h-125q-129 0 -214 -40.5 t-85 -137.5z" />
<glyph unicode="&#xe1;" d="M74 289q0 115 47 185.5t122.5 110.5t172 53t192.5 13h152q0 127 -59.5 177.5t-174.5 50.5q-72 0 -154.5 -24t-174.5 -91l-9 235q74 33 168.5 56.5t204.5 23.5q238 0 343.5 -105.5t105.5 -332.5v-141q0 -55 1 -98.5t2 -78t1 -73.5q2 -57 4 -109.5t8 -140.5h-242 q-4 33 -7 68.5t-5 89.5h-4q-14 -31 -44 -63t-73 -58.5t-95 -44t-110 -17.5q-74 0 -141 21.5t-118.5 61.5t-82 98.5t-30.5 132.5zM336 309q0 -57 40 -95t132 -38q47 0 91 15.5t79 50.5q41 41 61.5 97t20.5 148h-125q-129 0 -214 -40.5t-85 -137.5zM418 1198l170 299h280 l-280 -299h-170z" />
<glyph unicode="&#xe2;" d="M74 289q0 115 47 185.5t122.5 110.5t172 53t192.5 13h152q0 127 -59.5 177.5t-174.5 50.5q-72 0 -154.5 -24t-174.5 -91l-9 235q74 33 168.5 56.5t204.5 23.5q238 0 343.5 -105.5t105.5 -332.5v-141q0 -55 1 -98.5t2 -78t1 -73.5q2 -57 4 -109.5t8 -140.5h-242 q-4 33 -7 68.5t-5 89.5h-4q-14 -31 -44 -63t-73 -58.5t-95 -44t-110 -17.5q-74 0 -141 21.5t-118.5 61.5t-82 98.5t-30.5 132.5zM246 1198l225 299h207l215 -299h-182l-140 176l-143 -176h-182zM336 309q0 -57 40 -95t132 -38q47 0 91 15.5t79 50.5q41 41 61.5 97t20.5 148 h-125q-129 0 -214 -40.5t-85 -137.5z" />
<glyph unicode="&#xe3;" d="M74 289q0 115 47 185.5t122.5 110.5t172 53t192.5 13h152q0 127 -59.5 177.5t-174.5 50.5q-72 0 -154.5 -24t-174.5 -91l-9 235q74 33 168.5 56.5t204.5 23.5q238 0 343.5 -105.5t105.5 -332.5v-141q0 -55 1 -98.5t2 -78t1 -73.5q2 -57 4 -109.5t8 -140.5h-242 q-4 33 -7 68.5t-5 89.5h-4q-14 -31 -44 -63t-73 -58.5t-95 -44t-110 -17.5q-74 0 -141 21.5t-118.5 61.5t-82 98.5t-30.5 132.5zM207 1235q0 45 15.5 89t43 79t66.5 57.5t86 22.5q43 0 86 -13.5t82 -30t75.5 -29.5t67.5 -13q88 0 92 100h111q0 -104 -52.5 -176t-148.5 -72 q-55 0 -98 12.5t-80 25.5t-69.5 25.5t-65.5 12.5q-53 0 -77 -29.5t-24 -60.5h-110zM336 309q0 -57 40 -95t132 -38q47 0 91 15.5t79 50.5q41 41 61.5 97t20.5 148h-125q-129 0 -214 -40.5t-85 -137.5z" />
<glyph unicode="&#xe4;" d="M74 289q0 115 47 185.5t122.5 110.5t172 53t192.5 13h152q0 127 -59.5 177.5t-174.5 50.5q-72 0 -154.5 -24t-174.5 -91l-9 235q74 33 168.5 56.5t204.5 23.5q238 0 343.5 -105.5t105.5 -332.5v-141q0 -55 1 -98.5t2 -78t1 -73.5q2 -57 4 -109.5t8 -140.5h-242 q-4 33 -7 68.5t-5 89.5h-4q-14 -31 -44 -63t-73 -58.5t-95 -44t-110 -17.5q-74 0 -141 21.5t-118.5 61.5t-82 98.5t-30.5 132.5zM240 1247v238h237v-238h-237zM336 309q0 -57 40 -95t132 -38q47 0 91 15.5t79 50.5q41 41 61.5 97t20.5 148h-125q-129 0 -214 -40.5 t-85 -137.5zM662 1247v238h237v-238h-237z" />
<glyph unicode="&#xe5;" d="M74 289q0 115 47 185.5t122.5 110.5t172 53t192.5 13h152q0 127 -59.5 177.5t-174.5 50.5q-72 0 -154.5 -24t-174.5 -91l-9 235q74 33 168.5 56.5t204.5 23.5q238 0 343.5 -105.5t105.5 -332.5v-141q0 -55 1 -98.5t2 -78t1 -73.5q2 -57 4 -109.5t8 -140.5h-242 q-4 33 -7 68.5t-5 89.5h-4q-14 -31 -44 -63t-73 -58.5t-95 -44t-110 -17.5q-74 0 -141 21.5t-118.5 61.5t-82 98.5t-30.5 132.5zM336 309q0 -57 40 -95t132 -38q47 0 91 15.5t79 50.5q41 41 61.5 97t20.5 148h-125q-129 0 -214 -40.5t-85 -137.5zM352 1403q0 37 15.5 76 t43 70.5t68.5 52t94 20.5q49 0 89 -19.5t68 -50t43 -70.5t15 -79t-14 -78t-41.5 -69.5t-68.5 -50t-93 -19.5q-51 0 -91 19.5t-68.5 50t-44 69.5t-15.5 78zM463 1403q0 -45 31.5 -76t76.5 -31q41 0 74 30t33 77t-32 77.5t-73 30.5q-47 0 -78.5 -30.5t-31.5 -77.5z" />
<glyph unicode="&#xe6;" horiz-adv-x="1820" d="M74 289q0 104 45 173.5t118.5 111.5t169 59.5t195.5 17.5h158q0 111 -52.5 170.5t-193.5 59.5q-90 0 -171 -32t-153 -85l-8 235q78 35 172.5 57.5t216.5 22.5q96 0 181.5 -23.5t162.5 -109.5q66 66 151 99.5t212 33.5q141 0 231 -54t143.5 -143t74 -204t20.5 -236h-725 q0 -66 23.5 -114.5t64.5 -82.5t96.5 -51.5t118.5 -17.5q94 0 175 27.5t175 79.5v-224q-76 -41 -162 -62.5t-200 -21.5q-129 0 -246 40t-197 151q-66 -104 -170 -147.5t-219 -43.5q-78 0 -151.5 16.5t-130 53.5t-91 97.5t-34.5 146.5zM336 291q0 -49 41 -82t115 -33 q147 0 207.5 77t60.5 234h-121q-49 0 -102.5 -8t-97.5 -30.5t-73.5 -60.5t-29.5 -97zM1022 631h463q0 49 -12.5 93t-39 79t-66.5 55.5t-97 20.5q-61 0 -107.5 -19.5t-77 -53.5t-47 -79t-16.5 -96z" />
<glyph unicode="&#xe7;" horiz-adv-x="909" d="M74 535q0 117 34.5 216t99 171.5t159 114.5t215.5 42q98 0 164.5 -11t103.5 -24l-25 -217q-35 16 -79 27.5t-105 11.5q-72 0 -124 -26.5t-87 -72.5t-52.5 -107.5t-17.5 -129.5t16.5 -130t51.5 -109t88 -75t129 -28q47 0 105.5 13.5t105.5 36.5l12 -228 q-63 -20 -132.5 -27.5t-141.5 -7.5q-123 0 -219 39t-164 112t-102.5 176.5t-34.5 232.5zM324 -412l41 111q37 -14 74.5 -22.5t68.5 -8.5q47 0 77.5 18.5t30.5 55.5q0 35 -25.5 53.5t-62.5 18.5q-25 0 -45 -5.5t-43 -13.5l-30 53l120 152h129l-94 -109l4 -4q29 6 47.5 9.5 t36.5 3.5q86 0 125 -46.5t39 -95.5q0 -92 -63.5 -152.5t-198.5 -60.5q-55 0 -115.5 8.5t-115.5 34.5z" />
<glyph unicode="&#xe8;" d="M74 524q0 111 29.5 211.5t90 177t152.5 121.5t217 45q137 0 232.5 -43t156 -124t87 -199.5t26.5 -270.5h-729q6 -72 32.5 -122t67.5 -81.5t92.5 -47t106.5 -15.5q98 0 186 31t166 76v-224q-86 -49 -180 -66.5t-186 -17.5q-98 0 -195.5 27t-176.5 90.5t-127 169t-48 262.5 zM252 1497h280l170 -299h-170zM336 631h467q-8 113 -62.5 180.5t-158.5 67.5q-117 0 -176.5 -69t-69.5 -179z" />
<glyph unicode="&#xe9;" d="M74 524q0 111 29.5 211.5t90 177t152.5 121.5t217 45q137 0 232.5 -43t156 -124t87 -199.5t26.5 -270.5h-729q6 -72 32.5 -122t67.5 -81.5t92.5 -47t106.5 -15.5q98 0 186 31t166 76v-224q-86 -49 -180 -66.5t-186 -17.5q-98 0 -195.5 27t-176.5 90.5t-127 169t-48 262.5 zM336 631h467q-8 113 -62.5 180.5t-158.5 67.5q-117 0 -176.5 -69t-69.5 -179zM418 1198l170 299h280l-280 -299h-170z" />
<glyph unicode="&#xea;" d="M74 524q0 111 29.5 211.5t90 177t152.5 121.5t217 45q137 0 232.5 -43t156 -124t87 -199.5t26.5 -270.5h-729q6 -72 32.5 -122t67.5 -81.5t92.5 -47t106.5 -15.5q98 0 186 31t166 76v-224q-86 -49 -180 -66.5t-186 -17.5q-98 0 -195.5 27t-176.5 90.5t-127 169t-48 262.5 zM246 1198l225 299h207l215 -299h-182l-140 176l-143 -176h-182zM336 631h467q-8 113 -62.5 180.5t-158.5 67.5q-117 0 -176.5 -69t-69.5 -179z" />
<glyph unicode="&#xeb;" d="M74 524q0 111 29.5 211.5t90 177t152.5 121.5t217 45q137 0 232.5 -43t156 -124t87 -199.5t26.5 -270.5h-729q6 -72 32.5 -122t67.5 -81.5t92.5 -47t106.5 -15.5q98 0 186 31t166 76v-224q-86 -49 -180 -66.5t-186 -17.5q-98 0 -195.5 27t-176.5 90.5t-127 169t-48 262.5 zM240 1247v238h237v-238h-237zM336 631h467q-8 113 -62.5 180.5t-158.5 67.5q-117 0 -176.5 -69t-69.5 -179zM662 1247v238h237v-238h-237z" />
<glyph unicode="&#xec;" horiz-adv-x="569" d="M-33 1497h281l170 -299h-170zM147 0v1055h275v-1055h-275z" />
<glyph unicode="&#xed;" horiz-adv-x="569" d="M133 1198l170 299h281l-281 -299h-170zM147 0v1055h275v-1055h-275z" />
<glyph unicode="&#xee;" horiz-adv-x="569" d="M-39 1198l225 299h207l215 -299h-182l-139 176l-144 -176h-182zM147 0v1055h275v-1055h-275z" />
<glyph unicode="&#xef;" horiz-adv-x="569" d="M-45 1247v238h238v-238h-238zM147 0v1055h275v-1055h-275zM377 1247v238h237v-238h-237z" />
<glyph unicode="&#xf0;" horiz-adv-x="1251" d="M74 528q0 106 32.5 202.5t94 168.5t150.5 114t204 42q76 0 133 -15.5t115 -50.5h4q-35 70 -85 130.5t-132 123.5l-189 -123l-104 97l170 110q-47 31 -100.5 56.5t-102.5 41.5l125 140q66 -23 132.5 -54.5t127.5 -66.5l189 121l104 -97l-170 -108q61 -47 131 -118 t129.5 -167t99 -218.5t39.5 -276.5q0 -178 -48 -294t-125.5 -185.5t-175 -97.5t-195.5 -28q-125 0 -226.5 39t-174 112t-112.5 174t-40 228zM360 514q0 -66 16.5 -125t50.5 -104t83 -71t117 -26q121 0 189.5 87t68.5 239q0 59 -15.5 117.5t-48.5 105.5t-81 76t-111 29 q-66 0 -116 -30t-84 -76t-51.5 -105.5t-17.5 -116.5z" />
<glyph unicode="&#xf1;" horiz-adv-x="1251" d="M141 0v1055h260v-144h5q23 33 53 63t71 53.5t94.5 37.5t123.5 14q186 0 274 -114.5t88 -307.5v-657h-274v573q0 63 -6.5 117.5t-27 93.5t-56 60.5t-93.5 21.5q-74 0 -120 -35.5t-71.5 -89t-35.5 -114t-10 -107.5v-520h-275zM264 1235q0 45 15.5 89t43 79t66.5 57.5 t86 22.5q43 0 86 -13.5t82 -30t76 -29.5t67 -13q88 0 93 100h110q0 -104 -52 -176t-149 -72q-55 0 -98 12.5t-80 25.5t-69.5 25.5t-65.5 12.5q-53 0 -76.5 -29.5t-23.5 -60.5h-111z" />
<glyph unicode="&#xf2;" horiz-adv-x="1251" d="M74 520q0 131 42 234.5t116.5 175t175 110.5t217.5 39q115 0 216 -37.5t176 -108.5t118 -175.5t43 -235.5q0 -129 -43 -231.5t-118 -172t-175.5 -106.5t-214.5 -37q-123 0 -225.5 39t-175 111t-112.5 172t-40 223zM309 1497h281l170 -299h-170zM360 553 q0 -166 64.5 -265.5t200.5 -99.5q70 0 121 28t82.5 76t47 113.5t15.5 143.5q0 59 -15.5 116.5t-48 101.5t-83 71.5t-119.5 27.5q-66 0 -116 -26.5t-83 -70.5t-49.5 -100.5t-16.5 -115.5z" />
<glyph unicode="&#xf3;" horiz-adv-x="1251" d="M74 520q0 131 42 234.5t116.5 175t175 110.5t217.5 39q115 0 216 -37.5t176 -108.5t118 -175.5t43 -235.5q0 -129 -43 -231.5t-118 -172t-175.5 -106.5t-214.5 -37q-123 0 -225.5 39t-175 111t-112.5 172t-40 223zM360 553q0 -166 64.5 -265.5t200.5 -99.5q70 0 121 28 t82.5 76t47 113.5t15.5 143.5q0 59 -15.5 116.5t-48 101.5t-83 71.5t-119.5 27.5q-66 0 -116 -26.5t-83 -70.5t-49.5 -100.5t-16.5 -115.5zM475 1198l170 299h281l-281 -299h-170z" />
<glyph unicode="&#xf4;" horiz-adv-x="1251" d="M74 520q0 131 42 234.5t116.5 175t175 110.5t217.5 39q115 0 216 -37.5t176 -108.5t118 -175.5t43 -235.5q0 -129 -43 -231.5t-118 -172t-175.5 -106.5t-214.5 -37q-123 0 -225.5 39t-175 111t-112.5 172t-40 223zM303 1198l225 299h207l215 -299h-182l-139 176 l-144 -176h-182zM360 553q0 -166 64.5 -265.5t200.5 -99.5q70 0 121 28t82.5 76t47 113.5t15.5 143.5q0 59 -15.5 116.5t-48 101.5t-83 71.5t-119.5 27.5q-66 0 -116 -26.5t-83 -70.5t-49.5 -100.5t-16.5 -115.5z" />
<glyph unicode="&#xf5;" horiz-adv-x="1251" d="M74 520q0 131 42 234.5t116.5 175t175 110.5t217.5 39q115 0 216 -37.5t176 -108.5t118 -175.5t43 -235.5q0 -129 -43 -231.5t-118 -172t-175.5 -106.5t-214.5 -37q-123 0 -225.5 39t-175 111t-112.5 172t-40 223zM264 1235q0 45 15.5 89t43 79t66.5 57.5t86 22.5 q43 0 86 -13.5t82 -30t76 -29.5t67 -13q88 0 93 100h110q0 -104 -52 -176t-149 -72q-55 0 -98 12.5t-80 25.5t-69.5 25.5t-65.5 12.5q-53 0 -76.5 -29.5t-23.5 -60.5h-111zM360 553q0 -166 64.5 -265.5t200.5 -99.5q70 0 121 28t82.5 76t47 113.5t15.5 143.5 q0 59 -15.5 116.5t-48 101.5t-83 71.5t-119.5 27.5q-66 0 -116 -26.5t-83 -70.5t-49.5 -100.5t-16.5 -115.5z" />
<glyph unicode="&#xf6;" horiz-adv-x="1251" d="M74 520q0 131 42 234.5t116.5 175t175 110.5t217.5 39q115 0 216 -37.5t176 -108.5t118 -175.5t43 -235.5q0 -129 -43 -231.5t-118 -172t-175.5 -106.5t-214.5 -37q-123 0 -225.5 39t-175 111t-112.5 172t-40 223zM297 1247v238h238v-238h-238zM360 553 q0 -166 64.5 -265.5t200.5 -99.5q70 0 121 28t82.5 76t47 113.5t15.5 143.5q0 59 -15.5 116.5t-48 101.5t-83 71.5t-119.5 27.5q-66 0 -116 -26.5t-83 -70.5t-49.5 -100.5t-16.5 -115.5zM719 1247v238h237v-238h-237z" />
<glyph unicode="&#xf7;" horiz-adv-x="1228" d="M94 412v213h1041v-213h-1041zM457 111q0 74 46 115.5t111 41.5q66 0 112 -41.5t46 -115.5t-46 -116t-112 -42t-111.5 42t-45.5 116zM457 926q0 74 46 115.5t111 41.5q66 0 112 -41.5t46 -115.5t-46 -116t-112 -42t-111.5 42t-45.5 116z" />
<glyph unicode="&#xf8;" horiz-adv-x="1251" d="M74 520q0 131 42 234.5t116.5 175t175 110.5t217.5 39q88 0 168.5 -22.5t146.5 -63.5l111 133l82 -67l-111 -133q72 -72 114 -173.5t42 -230.5t-43 -231.5t-118 -172t-175.5 -106.5t-214.5 -37q-188 0 -324 88l-113 -135l-84 68l115 137q-72 72 -109.5 169t-37.5 218z M360 553q0 -61 9.5 -111.5t27.5 -97.5l389 467q-66 55 -161 55q-66 0 -116 -26.5t-83 -70.5t-49.5 -100.5t-16.5 -115.5zM459 250q66 -61 166 -62q70 0 121 28t82.5 76t47 113.5t15.5 143.5q0 47 -9.5 92t-27.5 84z" />
<glyph unicode="&#xf9;" horiz-adv-x="1251" d="M141 393v662h275v-561q0 -59 4 -114.5t22.5 -97.5t54 -68t97.5 -26q66 0 112 29t74.5 78t42 114.5t13.5 137.5v508h274v-1055h-260v143h-4q-57 -70 -143.5 -119t-204.5 -49q-92 0 -160 31t-111 86t-64.5 132t-21.5 169zM309 1497h281l170 -299h-170z" />
<glyph unicode="&#xfa;" horiz-adv-x="1251" d="M141 393v662h275v-561q0 -59 4 -114.5t22.5 -97.5t54 -68t97.5 -26q66 0 112 29t74.5 78t42 114.5t13.5 137.5v508h274v-1055h-260v143h-4q-57 -70 -143.5 -119t-204.5 -49q-92 0 -160 31t-111 86t-64.5 132t-21.5 169zM475 1198l170 299h281l-281 -299h-170z" />
<glyph unicode="&#xfb;" horiz-adv-x="1251" d="M141 393v662h275v-561q0 -59 4 -114.5t22.5 -97.5t54 -68t97.5 -26q66 0 112 29t74.5 78t42 114.5t13.5 137.5v508h274v-1055h-260v143h-4q-57 -70 -143.5 -119t-204.5 -49q-92 0 -160 31t-111 86t-64.5 132t-21.5 169zM303 1198l225 299h207l215 -299h-182l-139 176 l-144 -176h-182z" />
<glyph unicode="&#xfc;" horiz-adv-x="1251" d="M141 393v662h275v-561q0 -59 4 -114.5t22.5 -97.5t54 -68t97.5 -26q66 0 112 29t74.5 78t42 114.5t13.5 137.5v508h274v-1055h-260v143h-4q-57 -70 -143.5 -119t-204.5 -49q-92 0 -160 31t-111 86t-64.5 132t-21.5 169zM297 1247v238h238v-238h-238zM719 1247v238h237 v-238h-237z" />
<glyph unicode="&#xfd;" d="M23 1055h303l254 -770h4l254 770h278l-424 -1125q-29 -78 -60.5 -147.5t-77.5 -122.5t-112.5 -84t-165.5 -31q-47 0 -98 8.5t-90 20.5l18 203q49 -18 144 -19q49 0 83 17.5t54.5 45t29.5 61.5t9 65zM418 1198l170 299h280l-280 -299h-170z" />
<glyph unicode="&#xfe;" horiz-adv-x="1251" d="M141 -430v1966h275v-618h4q43 72 120.5 116.5t190.5 44.5q119 0 204 -43t139 -117.5t79 -174t25 -212.5q0 -137 -32 -241.5t-89.5 -174t-139 -105.5t-180.5 -36q-102 0 -177 32t-140 112h-4v-549h-275zM418 530q0 -63 14 -124.5t43 -109.5t75 -78t109 -30t108.5 31t72 80 t39 109.5t12.5 121.5q0 39 -8.5 96.5t-32 111t-67.5 91t-117 37.5q-70 0 -117 -32.5t-77 -83t-42 -109.5t-12 -111z" />
<glyph unicode="&#xff;" d="M23 1055h303l254 -770h4l254 770h278l-424 -1125q-29 -78 -60.5 -147.5t-77.5 -122.5t-112.5 -84t-165.5 -31q-47 0 -98 8.5t-90 20.5l18 203q49 -18 144 -19q49 0 83 17.5t54.5 45t29.5 61.5t9 65zM240 1247v238h237v-238h-237zM662 1247v238h237v-238h-237z" />
<glyph unicode="&#x152;" horiz-adv-x="1933" d="M96 707q0 180 52.5 317t152.5 230.5t243.5 140.5t325.5 47q45 0 100.5 -2l111 -4t105.5 -4t87 -2h549v-226h-533v-352h488v-225h-488v-402h541v-225h-561q-31 0 -87.5 -2t-121 -4l-129 -4t-111.5 -2q-131 0 -260 28.5t-232.5 107.5t-168 219t-64.5 364zM395 709 q0 -104 30 -194.5t88 -158t146.5 -105.5t204.5 -38q37 0 68 3t72 9v979q-43 6 -78 9.5t-76 3.5q-109 0 -193 -37t-142 -103.5t-89 -161t-31 -206.5z" />
<glyph unicode="&#x153;" horiz-adv-x="1933" d="M74 516q0 131 41 235.5t114.5 177t175 111.5t220.5 39q125 0 225 -44t168 -136q59 84 152.5 132t220.5 48q141 0 232 -52t143.5 -140t73 -204t20.5 -241h-689q4 -135 84 -200.5t207 -65.5q94 0 166 25.5t150 79.5l8 -224q-80 -49 -168 -65.5t-160 -16.5q-63 0 -125.5 7.5 t-118 26t-103.5 52t-83 89.5q-74 -102 -180.5 -138.5t-218.5 -36.5q-133 0 -236.5 43t-174.5 117t-107.5 172.5t-36.5 208.5zM360 528q0 -63 12.5 -125.5t43 -112.5t82 -82t129.5 -32q74 0 126 30t83.5 78t46 110t14.5 128q0 68 -13.5 131.5t-46 113.5t-85 81t-127.5 31 q-72 0 -121 -33t-82 -84t-47.5 -113.5t-14.5 -120.5zM1171 631h426q-2 47 -13 91t-34.5 79t-62.5 56.5t-96 21.5q-59 0 -100.5 -24t-68 -59.5t-39 -79.5t-12.5 -85z" />
<glyph unicode="&#x178;" horiz-adv-x="1366" d="M23 1430h335l338 -601l344 601h303l-512 -865v-565h-286v565zM354 1571v237h238v-237h-238zM776 1571v237h238v-237h-238z" />
<glyph unicode="&#x2c6;" horiz-adv-x="569" d="M-39 1198l225 299h207l215 -299h-182l-139 176l-144 -176h-182z" />
<glyph unicode="&#x2dc;" horiz-adv-x="569" d="M-78 1235q0 45 15.5 89t43 79t66.5 57.5t86 22.5q43 0 86 -13.5t82 -30t76 -29.5t67 -13q88 0 93 100h110q0 -104 -52 -176t-149 -72q-55 0 -98 12.5t-80 25.5t-69.5 25.5t-65.5 12.5q-53 0 -76.5 -29.5t-23.5 -60.5h-111z" />
<glyph unicode="&#x2000;" horiz-adv-x="957" />
<glyph unicode="&#x2001;" horiz-adv-x="1915" />
<glyph unicode="&#x2002;" horiz-adv-x="957" />
<glyph unicode="&#x2003;" horiz-adv-x="1915" />
<glyph unicode="&#x2004;" horiz-adv-x="638" />
<glyph unicode="&#x2005;" horiz-adv-x="478" />
<glyph unicode="&#x2006;" horiz-adv-x="319" />
<glyph unicode="&#x2007;" horiz-adv-x="319" />
<glyph unicode="&#x2008;" horiz-adv-x="239" />
<glyph unicode="&#x2009;" horiz-adv-x="383" />
<glyph unicode="&#x200a;" horiz-adv-x="106" />
<glyph unicode="&#x2010;" horiz-adv-x="681" d="M72 438v226h538v-226h-538z" />
<glyph unicode="&#x2011;" horiz-adv-x="681" d="M72 438v226h538v-226h-538z" />
<glyph unicode="&#x2012;" horiz-adv-x="681" d="M72 438v226h538v-226h-538z" />
<glyph unicode="&#x2013;" horiz-adv-x="1024" d="M0 457v188h1024v-188h-1024z" />
<glyph unicode="&#x2014;" horiz-adv-x="2048" d="M0 457v188h2048v-188h-2048z" />
<glyph unicode="&#x2018;" horiz-adv-x="569" d="M70 918l186 512h244l-129 -512h-301z" />
<glyph unicode="&#x2019;" horiz-adv-x="569" d="M70 918l131 512h299l-189 -512h-241z" />
<glyph unicode="&#x201a;" horiz-adv-x="569" d="M70 -225l131 512h299l-189 -512h-241z" />
<glyph unicode="&#x201c;" horiz-adv-x="985" d="M70 918l186 512h244l-129 -512h-301zM485 918l187 512h243l-129 -512h-301z" />
<glyph unicode="&#x201d;" horiz-adv-x="985" d="M70 918l131 512h299l-189 -512h-241zM485 918l131 512h299l-188 -512h-242z" />
<glyph unicode="&#x201e;" horiz-adv-x="985" d="M70 -225l131 512h299l-189 -512h-241zM485 -225l131 512h299l-188 -512h-242z" />
<glyph unicode="&#x2022;" horiz-adv-x="1024" d="M156 715q0 74 27.5 138.5t76.5 113.5t113.5 76.5t138.5 27.5t139.5 -27.5t113.5 -76.5t76.5 -113.5t28.5 -138.5t-28.5 -139.5t-76.5 -113.5t-113.5 -77t-139.5 -29t-138.5 29t-113.5 77t-76.5 113.5t-27.5 139.5z" />
<glyph unicode="&#x2026;" horiz-adv-x="2048" d="M199 0v287h286v-287h-286zM881 0v287h286v-287h-286zM1563 0v287h286v-287h-286z" />
<glyph unicode="&#x202f;" horiz-adv-x="383" />
<glyph unicode="&#x2039;" horiz-adv-x="681" d="M100 551l242 420h258l-225 -420l225 -420h-258z" />
<glyph unicode="&#x203a;" horiz-adv-x="681" d="M82 131l225 420l-225 420h258l242 -420l-242 -420h-258z" />
<glyph unicode="&#x205f;" horiz-adv-x="478" />
<glyph unicode="&#x2122;" horiz-adv-x="2048" d="M98 1266v164h693v-164h-240v-688h-213v688h-240zM952 578v852h297l203 -533l201 533h297v-852h-201v602h-4l-217 -602h-154l-217 602h-4v-602h-201z" />
<glyph unicode="&#xe000;" horiz-adv-x="1054" d="M0 0v1055h1055v-1055h-1055z" />
</font>
</defs>
</svg>
