<?xml version="1.0" standalone="no"?>
<!DOCTYPE svg PUBLIC "-//W3C//DTD SVG 1.1//EN" "http://www.w3.org/Graphics/SVG/1.1/DTD/svg11.dtd" >
<svg xmlns="http://www.w3.org/2000/svg">
<metadata></metadata>
<defs>
<font id="articulate_extraboldregular" horiz-adv-x="1251" >
<font-face units-per-em="2048" ascent="1638" descent="-410" />
<missing-glyph horiz-adv-x="626" />
<glyph horiz-adv-x="2048" />
<glyph horiz-adv-x="2048" />
<glyph horiz-adv-x="682" />
<glyph horiz-adv-x="681" d="M-45 1493q8 -68 32.5 -127t71.5 -102t117 -68t166 -25q158 0 263.5 76t123.5 246h-156q-18 -78 -78.5 -114t-148.5 -36t-151.5 33t-83.5 117h-156z" />
<glyph horiz-adv-x="681" d="M195 1198h294v295h-294v-295z" />
<glyph horiz-adv-x="681" d="M113 1389q0 -47 18.5 -88t49 -73t72.5 -50.5t89 -18.5t89 18.5t73 49t49 73t18 89.5t-18 89t-49 72.5t-73 49t-89 18.5t-89 -18.5t-72.5 -50t-49 -73.5t-18.5 -87zM244 1389q0 41 28.5 69.5t69.5 28.5t69.5 -28.5t28.5 -69.5t-28.5 -70t-69.5 -29t-69.5 29t-28.5 70z" />
<glyph unicode="&#xa;" horiz-adv-x="681" d="M-51 1198h258l264 295h-383zM457 1198h258l264 295h-383z" />
<glyph horiz-adv-x="681" d="M98 -281q0 -74 48.5 -124t152.5 -50q90 0 165 31t136 127l-78 35q-61 -57 -127 -57q-37 0 -62.5 24.5t-25.5 58.5q0 53 42 108.5t134 127.5h-141q-123 -66 -183.5 -130.5t-60.5 -150.5z" />
<glyph horiz-adv-x="681" d="M-51 1493l223 -295h332l231 295h-227l-170 -160l-162 160h-227z" />
<glyph unicode="&#xd;" horiz-adv-x="1024" />
<glyph horiz-adv-x="342" d="M-336 -45h223l793 1520h-223z" />
<glyph horiz-adv-x="1593" d="M27 809h217v-809h368v809h262v258h-262v63q0 74 28 123.5t103 49.5q70 0 117 -17l23 254q-49 10 -96.5 15.5t-94.5 5.5q-102 0 -184 -20.5t-139.5 -70t-88 -131.5t-30.5 -204v-68h-223v-258zM1067 0h369v1067h-369v-1067zM1067 1241h369v270h-369v-270z" />
<glyph horiz-adv-x="1593" d="M27 809h217v-809h368v809h262v258h-262v63q0 74 28 123.5t103 49.5q70 0 117 -17l23 254q-49 10 -96.5 15.5t-94.5 5.5q-102 0 -184 -20.5t-139.5 -70t-88 -131.5t-30.5 -204v-68h-223v-258zM1067 0h369v1536h-369v-1536z" />
<glyph horiz-adv-x="1138" d="M0 348l133 78v-426h971v283h-590v368l375 221v224l-375 -222v556h-381v-781l-133 -78v-223z" />
<glyph horiz-adv-x="684" d="M0 471l158 94v-565h368v782l158 92v205l-158 -92v549h-368v-766l-158 -94v-205z" />
<glyph d="M53 0h1118v283h-704l700 843v304h-1095v-283h661l-680 -844v-303zM233 1800l224 -295h331l232 295h-227l-170 -160l-162 160h-228z" />
<glyph horiz-adv-x="1024" d="M53 0h918v270h-496l488 502v295h-900v-270h478l-488 -502v-295zM121 1493l223 -295h332l231 295h-227l-170 -160l-162 160h-227z" />
<glyph unicode=" "  horiz-adv-x="626" />
<glyph unicode="&#x09;" horiz-adv-x="626" />
<glyph unicode="&#xa0;" horiz-adv-x="626" />
<glyph unicode="!" horiz-adv-x="909" d="M264 1430l53 -945h275l53 945h-381zM283 0h344v332h-344v-332z" />
<glyph unicode="&#x22;" d="M291 874h270v556h-270v-556zM690 874h271v556h-271v-556z" />
<glyph unicode="#" horiz-adv-x="1253" d="M119 383h172l-53 -383h217l53 383h178l-53 -383h215l53 383h172v221h-141l31 225h172v222h-142l51 379h-215l-51 -379h-178l53 379h-217l-53 -379h-203v-222h172l-30 -225h-203v-221zM539 604l30 225h179l-31 -225h-178z" />
<glyph unicode="$" horiz-adv-x="1253" d="M78 1026q0 -92 37 -166t99 -128t147 -90t184 -50v-346q-59 0 -109.5 5t-95.5 14t-89 22.5t-93 31.5l-27 -290q86 -29 183.5 -39t230.5 -15v-176h123v176q102 2 195 32t163 86.5t111 137.5t41 187q0 125 -40 206t-106.5 132t-155 79.5t-182.5 51.5v309q78 -2 167 -19.5 t188 -62.5l24 277q-70 33 -173 48t-206 15v174h-123v-174q-90 -4 -179 -27.5t-158.5 -73.5t-112.5 -130t-43 -197zM410 1055q0 59 44 98t117 43v-285q-86 10 -123.5 53.5t-37.5 90.5zM668 246v327q94 -16 136 -55t42 -96q0 -72 -40 -119t-138 -57z" />
<glyph unicode="%" horiz-adv-x="2048" d="M98 1028q0 -219 92.5 -320.5t266.5 -101.5t266 101.5t92 320.5q0 92 -19.5 170t-61.5 135.5t-110.5 89t-166.5 31.5t-167 -31.5t-111 -89t-61.5 -135.5t-19.5 -170zM356 1020q0 45 2 89t11.5 80t30 58.5t57.5 22.5t57.5 -22.5t29.5 -58.5t11 -80t2 -89 q0 -100 -17.5 -164.5t-82.5 -64.5q-66 0 -83.5 64.5t-17.5 164.5zM518 -45h225l781 1520h-224zM1233 397q0 -219 92 -320.5t266 -101.5t266.5 101.5t92.5 320.5q0 92 -19.5 170t-61.5 135.5t-110.5 89t-167.5 31.5q-98 0 -166.5 -31.5t-110.5 -89t-61.5 -135.5t-19.5 -170z M1491 389q0 45 2 89t11 80t29.5 58.5t57.5 22.5t57.5 -22.5t30 -58.5t11.5 -80t2 -89q0 -100 -17.5 -164.5t-83.5 -64.5t-83 64.5t-17 164.5z" />
<glyph unicode="&#x26;" horiz-adv-x="1593" d="M90 410q0 -111 46 -192t121 -135t172 -81t202 -27q117 0 234.5 28t209.5 106q20 -23 45 -54.5t41 -54.5h408l-254 283q86 86 148.5 207.5t70.5 281.5h-332q-4 -82 -23.5 -139.5t-70.5 -118.5q-35 33 -62.5 59.5t-54 52t-57.5 52.5t-72 63q78 43 135.5 84t96.5 84t57 90.5 t18 104.5q0 92 -38.5 158.5t-105.5 108.5t-156 62.5t-191 20.5q-100 0 -188.5 -21.5t-153 -63.5t-101 -106.5t-36.5 -150.5t38.5 -163t133.5 -150q-141 -66 -211 -157t-70 -232zM438 414q0 68 29 114.5t100 85.5q86 -80 162 -153.5t156 -161.5q-53 -39 -100.5 -58.5 t-118.5 -19.5q-45 0 -86 14.5t-73 40t-50.5 60.5t-18.5 78zM526 1096q0 49 42 87t108 38q74 0 118 -34t44 -91q0 -51 -38 -96.5t-136 -98.5q-78 59 -108 105.5t-30 89.5z" />
<glyph unicode="'" horiz-adv-x="681" d="M207 874h270v556h-270v-556z" />
<glyph unicode="(" horiz-adv-x="796" d="M141 635q0 -256 84 -485.5t238 -436.5h291q-86 147 -140.5 276.5t-86 243t-43 213t-11.5 185.5q0 454 295 917h-301q-162 -231 -244 -461.5t-82 -451.5z" />
<glyph unicode=")" horiz-adv-x="796" d="M29 -287h301q72 104 132 214t103 224.5t66.5 235.5t23.5 248q0 215 -74.5 448.5t-250.5 464.5h-301q147 -229 221 -458.5t74 -458.5q0 -84 -12.5 -184.5t-45.5 -215t-90 -244.5t-147 -274z" />
<glyph unicode="*" d="M197 1028l290 -55l-211 -211l201 -146l148 263l137 -265l207 150l-209 211l295 51l-76 240l-266 -131l41 295h-250l43 -300l-273 136z" />
<glyph unicode="+" horiz-adv-x="1228" d="M96 389h389v-389h258v389h390v258h-390v389h-258v-389h-389v-258z" />
<glyph unicode="," horiz-adv-x="626" d="M4 -223h281l200 555h-344z" />
<glyph unicode="-" horiz-adv-x="681" d="M63 416h555v270h-555v-270z" />
<glyph unicode="." horiz-adv-x="626" d="M141 0h344v332h-344v-332z" />
<glyph unicode="/" horiz-adv-x="569" d="M-43 -25h258l397 1479h-258z" />
<glyph unicode="0" horiz-adv-x="1253" d="M72 717q0 -168 26.5 -305.5t91 -233.5t171 -149.5t266.5 -53.5t266 53.5t170.5 149.5t91.5 233.5t27 305.5q0 141 -21.5 274t-81 235.5t-169 165t-283.5 62.5q-176 0 -285 -62.5t-168 -165t-80.5 -235.5t-21.5 -274zM440 715q0 84 5.5 170t23.5 154.5t55 112.5t103 44 q63 0 101 -44t56.5 -112.5t23.5 -154.5t5 -170t-5 -170t-23.5 -154.5t-55.5 -113t-102 -44.5q-66 0 -103 44.5t-55 113t-23.5 154.5t-5.5 170z" />
<glyph unicode="1" horiz-adv-x="1253" d="M133 1114l170 -258l270 193v-1049h381v1430h-336z" />
<glyph unicode="2" horiz-adv-x="1253" d="M86 0h1034v270h-565q63 53 131 113.5t111 105.5q152 154 224.5 289t72.5 258q0 104 -41 182t-113 130.5t-173 79t-220 26.5q-106 0 -210 -21.5t-216 -62.5l14 -297q100 53 199.5 75.5t177.5 22.5q100 0 150.5 -49t50.5 -127q0 -37 -13.5 -74.5t-36 -74.5t-51 -73 t-57.5 -68q-35 -39 -77 -81t-97 -93.5t-128 -115t-167 -143.5v-272z" />
<glyph unicode="3" horiz-adv-x="1253" d="M86 25q82 -29 186.5 -39.5t227.5 -10.5q127 0 241.5 25t200.5 78t136 137t50 205q0 137 -78.5 218t-205.5 107v5q51 14 99 39.5t84 63.5t57.5 90t21.5 120q0 117 -50 191.5t-130 119.5t-179.5 62.5t-199.5 17.5q-104 0 -207.5 -13.5t-210.5 -45.5l18 -281q37 16 81 27.5 t88 17.5t85 9t76 3q45 0 90 -6t80 -24.5t56.5 -50t21.5 -82.5q0 -39 -21.5 -69t-55.5 -49.5t-76 -29.5t-85 -10h-63h-39t-28.5 1t-28.5 3v-254q35 2 79 3t78 1q125 0 194 -40t69 -124t-76 -133t-217 -49q-96 0 -188.5 13.5t-162.5 54.5z" />
<glyph unicode="4" horiz-adv-x="1253" d="M16 272h639v-272h357v272h202v258h-202v900h-422l-574 -855v-303zM287 530l389 605h4v-605h-393z" />
<glyph unicode="5" horiz-adv-x="1253" d="M139 27q121 -29 210 -40.5t181 -11.5q59 0 129 8.5t138.5 30t133 58.5t113 95t78 141t29.5 194q0 115 -44 197.5t-118 137t-171 80t-206 25.5q-29 0 -60.5 -2t-59.5 -6v237h604v259h-932l-10 -768q76 20 155.5 27t159.5 7q57 0 113.5 -11t100.5 -35.5t71.5 -64.5 t27.5 -98q0 -115 -75.5 -172t-212.5 -57q-61 0 -153.5 14.5t-195.5 63.5z" />
<glyph unicode="6" horiz-adv-x="1253" d="M84 653q0 -135 28.5 -257t93 -216t169 -149.5t258.5 -55.5q119 0 218 39t170 104.5t109.5 154t38.5 186.5q0 94 -29.5 176t-85 143.5t-134 96t-179.5 34.5q-94 0 -170.5 -29.5t-138.5 -115.5h-4q0 125 27.5 209t70.5 127q41 41 98.5 62.5t141.5 21.5q78 0 155.5 -17.5 t141.5 -58.5l22 281q-92 37 -184 51t-192 14q-104 0 -188.5 -24.5t-149 -65.5t-110.5 -95.5t-77 -113.5q-43 -86 -71.5 -208t-28.5 -294zM444 440q0 92 49.5 151.5t133.5 59.5q88 0 137 -57t49 -168q0 -88 -47 -146.5t-135 -58.5q-84 0 -135.5 60.5t-51.5 158.5z" />
<glyph unicode="7" horiz-adv-x="1253" d="M102 1159h639l-532 -1159h409l512 1120v310h-1028v-271z" />
<glyph unicode="8" horiz-adv-x="1253" d="M68 383q0 -111 44 -188.5t119.5 -126t177 -71t216.5 -22.5q117 0 219 25t178 77t120 132.5t44 193.5q0 49 -11.5 100.5t-42 97.5t-87 86t-148.5 69v4q119 47 177.5 132t58.5 193q0 92 -36 162t-100.5 116t-154.5 68.5t-199 22.5q-111 0 -208 -22.5t-171 -71.5t-117 -127 t-43 -189q0 -92 61.5 -177t184.5 -130v-2q-283 -80 -282 -352zM436 412q0 74 44 126t122 87q100 -29 157.5 -78t57.5 -129q0 -84 -54 -134.5t-140 -50.5q-80 0 -133.5 51.5t-53.5 127.5zM449 1040q0 68 46 118t123 50q78 0 124 -43.5t46 -109.5q0 -59 -35.5 -105.5 t-125.5 -97.5q-88 35 -133 77t-45 111z" />
<glyph unicode="9" horiz-adv-x="1253" d="M84 971q0 -98 30.5 -180t87 -142.5t135.5 -94.5t175 -34q94 0 173 32t136 114h4q0 -96 -20.5 -187.5t-85.5 -156.5q-33 -33 -91.5 -54.5t-135.5 -21.5q-180 0 -302 76l-22 -281q94 -37 183 -51.5t181 -14.5q152 0 256.5 42t176.5 114q104 104 154 268t50 377 q0 131 -27.5 254t-92 217t-169 150.5t-257.5 56.5q-119 0 -218.5 -38t-170 -103.5t-110.5 -153.5t-40 -188zM440 1008q0 86 48.5 143t134.5 57q88 0 137 -62.5t49 -154.5q0 -98 -50 -155.5t-136 -57.5q-76 0 -129.5 54.5t-53.5 175.5z" />
<glyph unicode=":" horiz-adv-x="626" d="M141 0h344v332h-344v-332zM141 735h344v332h-344v-332z" />
<glyph unicode=";" horiz-adv-x="626" d="M4 -223h281l200 555h-344zM141 735h344v332h-344v-332z" />
<glyph unicode="&#x3c;" horiz-adv-x="1228" d="M96 410l1037 -426v249l-699 285l699 285v250l-1037 -426v-217z" />
<glyph unicode="=" horiz-adv-x="1228" d="M96 154h1037v258h-1037v-258zM96 625h1037v258h-1037v-258z" />
<glyph unicode="&#x3e;" horiz-adv-x="1228" d="M96 -16l1037 426v217l-1037 426v-250l699 -285l-699 -285v-249z" />
<glyph unicode="?" horiz-adv-x="1138" d="M133 1395l8 -287q59 33 143.5 54.5t174.5 21.5q100 0 164.5 -41t64.5 -107q0 -57 -30.5 -108t-79.5 -111q-70 -84 -112 -158.5t-42 -173.5h299q8 96 59.5 170t114.5 140q72 76 116 148.5t44 166.5q0 96 -46 162.5t-118 106.5t-159 57.5t-169 17.5q-113 0 -226.5 -14.5 t-205.5 -44.5zM401 0h344v332h-344v-332z" />
<glyph unicode="@" horiz-adv-x="1638" d="M78 715q0 -156 58.5 -291t164 -234.5t250.5 -157t317 -57.5q188 0 338 78t260 228h-206q-74 -47 -169.5 -78t-220.5 -31q-129 0 -233.5 37t-176 105.5t-110.5 169t-39 227.5q0 123 39 223t109.5 173t169 111.5t215.5 38.5q137 0 235.5 -31.5t163 -91t95 -144.5t30.5 -191 q0 -80 -16.5 -138.5t-41 -95.5t-55 -55t-59.5 -18t-29 36q0 16 8.5 52t12.5 63l69 428h-192l-18 -96q-43 59 -105.5 88t-140.5 29q-82 0 -154 -32t-124 -88.5t-81.5 -132t-29.5 -163.5q0 -84 24.5 -154.5t67.5 -124t100.5 -83t120.5 -29.5q55 0 105.5 23.5t103.5 76.5h2 q12 -100 111 -100q25 0 71.5 10t105 34.5t119 66.5t109.5 105.5t81 151.5t32 203q0 139 -57.5 250t-155 188.5t-225.5 118.5t-269 41q-170 0 -312.5 -56.5t-246.5 -154.5t-162.5 -233.5t-58.5 -294.5zM633 676q0 43 13 83t38 69.5t60.5 48t80.5 18.5q82 0 126 -55.5 t44 -139.5q0 -96 -52 -157.5t-138 -61.5q-78 0 -125 52.5t-47 142.5z" />
<glyph unicode="A" horiz-adv-x="1593" d="M16 0h387l113 305h537l106 -305h418l-551 1430h-467zM604 575l184 560h5l170 -560h-359z" />
<glyph unicode="B" horiz-adv-x="1366" d="M123 0h600q96 0 195.5 16.5t180.5 62.5t132 127t51 210q0 49 -13.5 98t-46 91t-88 75t-141.5 49v4q113 37 182.5 115t69.5 217q0 92 -34.5 159.5t-96 113.5t-146.5 69t-188 23h-657v-1430zM504 270v336h127q125 0 197.5 -36t72.5 -132q0 -51 -21.5 -83.5t-58.5 -51 t-87 -26t-107 -7.5h-123zM504 864v295h131q47 0 89 -6t72.5 -21.5t49 -44t18.5 -71.5q0 -49 -25.5 -79t-63.5 -46.5t-82 -21.5t-81 -5h-108z" />
<glyph unicode="C" horiz-adv-x="1366" d="M80 707q0 -201 73.5 -340.5t192.5 -226.5t265.5 -126t293.5 -39q109 0 204 13.5t216 44.5l-18 299q-106 -41 -191.5 -57.5t-165.5 -16.5q-104 0 -191 30.5t-150.5 88t-99.5 141.5t-36 191q0 100 32 185t90 146.5t141 96t186 34.5q84 0 174 -20.5t196 -79.5l31 309 q-145 43 -242.5 58.5t-185.5 15.5q-176 0 -324.5 -46t-258 -140t-171 -234.5t-61.5 -326.5z" />
<glyph unicode="D" horiz-adv-x="1593" d="M133 0h520q197 0 354.5 42t266 130t167 224.5t58.5 324.5q0 201 -59.5 337t-169 219t-265 118t-348.5 35h-524v-1430zM514 283v864h152q55 0 130.5 -13.5t144.5 -59.5t117 -132t48 -229q0 -133 -42 -217t-106.5 -131.5t-142.5 -64.5t-147 -17h-154z" />
<glyph unicode="E" d="M123 0h1030v270h-649v324h592v270h-592v295h626v271h-1007v-1430z" />
<glyph unicode="F" horiz-adv-x="1138" d="M123 0h381v575h551v271h-551v313h575v271h-956v-1430z" />
<glyph unicode="G" horiz-adv-x="1593" d="M80 707q0 -190 68.5 -327.5t183 -228t264 -133.5t311.5 -43q156 0 282 15.5t265 50.5v795h-592v-271h223v-282q-23 -10 -54.5 -17.5t-84.5 -7.5q-102 0 -189 30.5t-150.5 89t-98.5 142.5t-35 189q0 131 48 219t126 142t179.5 77.5t209.5 23.5q70 0 166 -20.5t182 -71.5 l31 312q-43 16 -95 28.5t-109.5 19.5t-115 11t-112.5 4q-213 0 -380 -45t-283.5 -137t-178 -233.5t-61.5 -331.5z" />
<glyph unicode="H" horiz-adv-x="1478" d="M133 0h381v612h451v-612h381v1430h-381v-547h-451v547h-381v-1430z" />
<glyph unicode="I" horiz-adv-x="684" d="M152 0h380v1430h-380v-1430z" />
<glyph unicode="J" horiz-adv-x="909" d="M29 14q72 -20 134 -29.5t105 -9.5q268 0 388 133.5t120 383.5v938h-381v-820q0 -315 -190 -315q-47 0 -90 7t-86 28v-316z" />
<glyph unicode="K" horiz-adv-x="1478" d="M133 0h381v649h4l445 -649h485l-569 764l528 666h-459l-430 -584h-4v584h-381v-1430z" />
<glyph unicode="L" horiz-adv-x="1138" d="M133 0h971v283h-590v1147h-381v-1430z" />
<glyph unicode="M" horiz-adv-x="2048" d="M123 0h373l-9 1098h5l348 -1098h350l364 1098h5l-7 -1098h373v1430h-577l-318 -951h-4l-303 951h-600v-1430z" />
<glyph unicode="N" horiz-adv-x="1593" d="M139 0h350l-12 977h4l500 -977h473v1430h-348l6 -971h-4l-483 971h-486v-1430z" />
<glyph unicode="O" horiz-adv-x="1593" d="M80 715q0 -170 46 -307.5t137 -233.5t224.5 -147.5t309.5 -51.5q174 0 308 51.5t225 147.5t137 233.5t46 307.5q0 166 -44 303t-133 233.5t-223 149.5t-316 53t-316.5 -53t-223.5 -149.5t-133 -233.5t-44 -303zM473 715q0 98 19.5 182t59.5 144.5t100.5 95t144.5 34.5 t144 -34.5t100 -95t59.5 -144.5t19.5 -182q0 -86 -17.5 -168t-56 -146.5t-100 -103.5t-149.5 -39t-149.5 39t-100.5 103.5t-56.5 146.5t-17.5 168z" />
<glyph unicode="P" d="M113 0h381v500h149q131 0 235.5 30.5t178 90t112.5 145.5t39 195q0 242 -154.5 355.5t-488.5 113.5h-452v-1430zM494 770v389h92q49 0 93 -9t76.5 -30.5t52 -58.5t19.5 -94q0 -104 -62.5 -150.5t-176.5 -46.5h-94z" />
<glyph unicode="Q" horiz-adv-x="1593" d="M80 715q0 -170 46 -307.5t137 -233.5t224.5 -147.5t309.5 -51.5h20l240 -245h430l-338 317q180 84 272 255t92 413q0 166 -44 303t-133 233.5t-223 149.5t-316 53t-316.5 -53t-223.5 -149.5t-133 -233.5t-44 -303zM473 715q0 98 19.5 182t59.5 144.5t100.5 95t144.5 34.5 t144 -34.5t100 -95t59.5 -144.5t19.5 -182q0 -86 -17.5 -168t-56 -146.5t-100 -103.5t-149.5 -39t-149.5 39t-100.5 103.5t-56.5 146.5t-17.5 168z" />
<glyph unicode="R" horiz-adv-x="1366" d="M123 0h381v565h86q53 0 91 -16.5t67.5 -54t54 -99t53.5 -149.5l78 -246h397l-139 389q-23 57 -42.5 113.5t-41.5 101.5q-20 43 -52 66.5t-67 34.5v4q143 35 209 127t66 233q0 94 -37 161.5t-100.5 111.5t-147.5 66t-176 22h-680v-1430zM504 836v323h110q55 0 104.5 -7 t85.5 -24.5t57.5 -48.5t21.5 -80t-18.5 -80.5t-52.5 -50t-79 -25.5t-98 -7h-131z" />
<glyph unicode="S" d="M90 1016q0 -131 50 -209t125 -124t163 -71.5t163 -51t125 -60.5t50 -103q0 -66 -53.5 -102.5t-177.5 -36.5q-115 0 -209.5 23.5t-188.5 70.5l-33 -315q88 -29 203 -45.5t223 -16.5q305 0 467 119t162 350q0 129 -50 208t-125 126t-163 71.5t-162.5 47.5t-125 53.5 t-50.5 87.5q0 47 26 74t64.5 40t82.5 16t79 3q96 0 170 -15t152 -50l24 295q-80 29 -179 41t-189 12q-109 0 -220.5 -20.5t-200.5 -70.5t-145.5 -134t-56.5 -213z" />
<glyph unicode="T" horiz-adv-x="1138" d="M27 1147h352v-1147h381v1147h352v283h-1085v-283z" />
<glyph unicode="U" horiz-adv-x="1478" d="M113 543q0 -147 46 -255t129 -177.5t198.5 -102.5t252.5 -33q139 0 254 34t198 103.5t129 176.5t46 252v889h-381v-828q0 -76 -12 -139.5t-42 -108.5t-77 -70.5t-115 -25.5q-133 0 -189 93t-56 251v828h-381v-887z" />
<glyph unicode="V" horiz-adv-x="1478" d="M20 1430l480 -1430h471l487 1430h-391l-319 -1123h-5l-317 1123h-406z" />
<glyph unicode="W" horiz-adv-x="2048" d="M16 1430l318 -1430h493l189 1098h4l203 -1098h489l320 1430h-371l-186 -1098h-5l-200 1098h-484l-192 -1098h-4l-184 1098h-390z" />
<glyph unicode="X" horiz-adv-x="1478" d="M20 0h433l274 526l277 -526h454l-459 752l418 678h-418l-245 -472l-240 472h-444l413 -678z" />
<glyph unicode="Y" horiz-adv-x="1478" d="M23 1430l528 -891v-539h381v539l524 891h-438l-277 -574l-280 574h-438z" />
<glyph unicode="Z" d="M53 0h1118v283h-704l700 843v304h-1095v-283h661l-680 -844v-303z" />
<glyph unicode="[" horiz-adv-x="796" d="M180 -287h541v234h-234v1368h234v233h-541v-1835z" />
<glyph unicode="\" horiz-adv-x="569" d="M-43 1454l397 -1479h258l-397 1479h-258z" />
<glyph unicode="]" horiz-adv-x="796" d="M76 -53v-234h540v1835h-540v-233h233v-1368h-233z" />
<glyph unicode="^" horiz-adv-x="1228" d="M143 682h250l221 465l222 -465h249l-356 748h-229z" />
<glyph unicode="_" horiz-adv-x="1024" d="M0 -154v-102h1024v102h-1024z" />
<glyph unicode="`" horiz-adv-x="681" d="M-18 1493l264 -295h258l-139 295h-383z" />
<glyph unicode="a" d="M63 311q0 -90 34 -153.5t90.5 -103.5t128 -59.5t147.5 -19.5q111 0 190.5 44t147.5 149h4q0 -43 3 -82t5 -86h338q-6 27 -9 59.5t-6 64.5t-4.5 61.5t-1.5 47.5v418q0 119 -40.5 203t-109.5 137t-161 77t-194 24q-104 0 -208 -14.5t-220 -61.5l6 -250q80 43 164 61.5 t174 18.5q129 0 186 -46t59 -138q-41 6 -82.5 10t-89.5 4q-72 0 -167 -11.5t-180 -48t-144.5 -109.5t-59.5 -196zM408 340q0 66 55 102.5t172 36.5q29 0 72.5 -2t78.5 -4q0 -45 -15 -90t-45 -81t-72 -58.5t-93 -22.5q-68 0 -110.5 31t-42.5 88z" />
<glyph unicode="b" horiz-adv-x="1368" d="M106 0h340v190h5q23 -53 61.5 -93t87.5 -66.5t104.5 -41t110.5 -14.5q123 0 214 47.5t152.5 127t92.5 184t31 219.5q0 98 -30 194.5t-88.5 173t-143.5 124t-195 47.5q-129 0 -215 -41t-152 -121h-6v606h-369v-1536zM475 530q0 123 62.5 201t162.5 78q104 0 164 -76.5 t60 -189.5q0 -123 -58.5 -204t-165.5 -81q-47 0 -88 20.5t-71.5 57.5t-48 86t-17.5 108z" />
<glyph unicode="c" horiz-adv-x="1024" d="M63 532q0 -133 47.5 -236t131.5 -174t196.5 -109t245.5 -38q74 0 152.5 12.5t148.5 35.5l-8 274q-96 -51 -232 -51q-57 0 -111 19.5t-96 55t-68 89t-26 120.5q0 129 78 210t205 81q59 0 112.5 -12t110.5 -47l27 270q-59 29 -131 44.5t-164 15.5q-127 0 -239.5 -36 t-196.5 -106.5t-133.5 -175t-49.5 -242.5z" />
<glyph unicode="d" horiz-adv-x="1368" d="M63 555q0 -117 31 -222.5t92.5 -185t152.5 -126t212 -46.5q59 0 116.5 15.5t106.5 44t86 67.5t58 88h4v-190h340v1536h-369v-606h-6q-70 88 -159 125t-206 37q-113 0 -197.5 -47.5t-143 -124t-88.5 -172t-30 -193.5zM444 543q0 121 62.5 193.5t161.5 72.5q96 0 160.5 -75 t64.5 -206q0 -55 -17.5 -104t-48 -86t-71.5 -58.5t-88 -21.5q-102 0 -163 78t-61 207z" />
<glyph unicode="e" d="M63 532q0 -131 47.5 -234t130.5 -175t196.5 -110t246.5 -38q102 0 202.5 16.5t188.5 51.5v260q-82 -45 -168 -63.5t-155 -18.5q-143 0 -221 48t-95 157h738v68q0 119 -29 226t-92.5 190t-166 132.5t-249.5 49.5q-135 0 -241.5 -41t-180.5 -115t-113 -176.5t-39 -227.5z M432 635q8 98 57.5 160.5t147.5 62.5q106 0 155.5 -62.5t49.5 -160.5h-410z" />
<glyph unicode="f" horiz-adv-x="909" d="M27 809h217v-809h368v809h262v258h-262v63q0 74 28 123.5t103 49.5q70 0 117 -17l23 254q-49 10 -96.5 15.5t-94.5 5.5q-102 0 -185 -20.5t-141.5 -70t-90 -131.5t-31.5 -204v-68h-217v-258z" />
<glyph unicode="g" horiz-adv-x="1368" d="M63 541q0 -127 36 -227.5t98.5 -170t149.5 -106.5t192 -37q104 0 197 42t161 140h4v-57q0 -88 -25.5 -147.5t-69.5 -95.5t-105.5 -51t-131.5 -15q-96 0 -178 20.5t-178 67.5l-18 -291q90 -33 196.5 -50.5t206.5 -17.5q160 0 280.5 28t202.5 94.5t123 178t41 279.5v942 h-334v-193h-4q-61 104 -154.5 161t-209.5 57q-117 0 -206 -39t-149.5 -111t-92.5 -174t-32 -227zM444 543q0 123 57.5 194.5t153.5 71.5q104 0 169 -69.5t65 -182.5q0 -59 -17.5 -109.5t-48 -87t-73.5 -57t-93 -20.5q-96 0 -154.5 71.5t-58.5 188.5z" />
<glyph unicode="h" horiz-adv-x="1366" d="M115 0h368v446q0 188 62.5 263t169.5 75q35 0 65.5 -13t53 -44t36 -82t13.5 -127v-518h368v664q0 84 -22.5 160.5t-71.5 136t-127 95.5t-188 36q-102 0 -195.5 -44t-159.5 -139h-4v627h-368v-1536z" />
<glyph unicode="i" horiz-adv-x="684" d="M158 0h368v1067h-368v-1067zM158 1241h368v270h-368v-270z" />
<glyph unicode="j" horiz-adv-x="684" d="M-51 -436q49 -10 100 -14.5t107 -4.5q106 0 178 33t115 91.5t60 140.5t17 180v1077h-368v-1069q0 -113 -28 -160t-101 -47q-16 0 -34 1t-38 5zM158 1241h368v270h-368v-270z" />
<glyph unicode="k" d="M115 0h368v528h4l295 -528h447l-402 578l371 489h-403l-308 -449h-4v918h-368v-1536z" />
<glyph unicode="l" horiz-adv-x="684" d="M158 0h368v1536h-368v-1536z" />
<glyph unicode="m" horiz-adv-x="2048" d="M115 0h368v459q0 160 54.5 242.5t152.5 82.5q43 0 72 -17t46 -47t24.5 -68t7.5 -81v-571h368v459q0 143 49.5 234t159.5 91q68 0 108 -52t40 -157v-575h368v627q0 109 -15 194.5t-57 146t-116 92.5t-191 32q-115 0 -213 -48.5t-163 -156.5q-41 94 -122 149.5t-212 55.5 q-59 0 -116.5 -12.5t-108 -38t-93.5 -67.5t-71 -104h-4v197h-336v-1067z" />
<glyph unicode="n" horiz-adv-x="1366" d="M115 0h368v453q0 178 60.5 254.5t169.5 76.5q90 0 130 -68.5t40 -203.5v-512h368v670q0 82 -22.5 157.5t-71.5 134t-127 94.5t-186 36q-131 0 -232.5 -54.5t-156.5 -167.5h-4v197h-336v-1067z" />
<glyph unicode="o" horiz-adv-x="1368" d="M63 532q0 -129 46.5 -232t129.5 -176t196.5 -111t248.5 -38t249 38t196.5 111t129 176t46.5 232q0 131 -46.5 234.5t-129 176.5t-196.5 111t-249 38t-248.5 -38t-196.5 -111t-129.5 -176t-46.5 -235zM444 535q0 135 61.5 217t178.5 82t178.5 -82t61.5 -217 q0 -143 -64.5 -222.5t-175.5 -79.5t-175.5 79t-64.5 223z" />
<glyph unicode="p" horiz-adv-x="1368" d="M106 -430h369v580h4q27 -47 65 -81t82 -54.5t94 -30t99 -9.5q117 0 208 46.5t152.5 125t93.5 183t32 223.5q0 100 -31 196.5t-89.5 172t-143.5 123t-191 47.5q-129 0 -236.5 -52.5t-162.5 -165.5h-5v193h-340v-1497zM475 530q0 129 65.5 204t159.5 75q98 0 161 -72.5 t63 -195.5q0 -129 -60.5 -206t-163.5 -77q-43 0 -84 19.5t-72.5 55.5t-50 86t-18.5 111z" />
<glyph unicode="q" horiz-adv-x="1368" d="M63 557q0 -123 32 -229.5t94.5 -184t154.5 -123t211 -45.5q109 0 199 44t135 131h4v-580h369v1497h-340v-193h-4q-57 117 -165 167.5t-231 50.5q-113 0 -198.5 -48.5t-143 -125t-87.5 -172t-30 -189.5zM444 543q0 51 14.5 99t42 85t69.5 59.5t98 22.5q100 0 162.5 -78 t62.5 -201q0 -55 -17.5 -105t-48 -87t-71.5 -58.5t-90 -21.5q-96 0 -159 75t-63 210z" />
<glyph unicode="r" horiz-adv-x="909" d="M115 0h368v459q0 66 15.5 125t48.5 103t83 70.5t118 26.5q39 0 72.5 -2t56.5 -10l18 307q-33 6 -67.5 9.5t-57.5 3.5q-115 0 -189.5 -55.5t-125.5 -166.5h-4v197h-336v-1067z" />
<glyph unicode="s" horiz-adv-x="1024" d="M66 743q0 -96 38.5 -152t97 -90t126 -51.5t126 -34t97.5 -40t39 -68.5q0 -35 -27.5 -60.5t-124.5 -25.5q-74 0 -159.5 16.5t-184.5 57.5l-20 -268q74 -25 167 -38.5t222 -13.5q86 0 174 14.5t159.5 54.5t116.5 109.5t45 178.5q0 100 -40.5 161.5t-101 96.5t-132.5 52 t-132 32.5t-101 36t-41 61.5q0 39 48 56.5t120 17.5q57 0 137 -15.5t151 -56.5l29 256q-78 33 -176 47.5t-191 14.5q-96 0 -180 -22.5t-146.5 -65.5t-99 -109t-36.5 -152z" />
<glyph unicode="t" horiz-adv-x="909" d="M20 809h211v-451q0 -205 96.5 -294t313.5 -89q59 0 111 5.5t120 15.5l-12 240q-33 -6 -62.5 -10.5t-47.5 -4.5q-86 0 -118 45t-32 144v399h258v258h-258v352l-369 -112v-240h-211v-258z" />
<glyph unicode="u" horiz-adv-x="1366" d="M115 391q0 -57 16 -130t62.5 -136.5t125 -106.5t205.5 -43q119 0 224.5 51.5t162.5 170.5h4v-197h336v1067h-368v-449q0 -335 -231 -335h-1q-92 0 -130 72.5t-38 197.5v514h-368v-676z" />
<glyph unicode="v" d="M20 1067l396 -1067h420l395 1067h-367l-223 -760h-4l-221 760h-396z" />
<glyph unicode="w" horiz-adv-x="1933" d="M18 1067l328 -1067h428l203 772h4l180 -772h428l326 1067h-356l-168 -768h-5l-180 768h-442l-184 -768h-5l-172 768h-385z" />
<glyph unicode="x" d="M18 0h416l176 332l178 -332h445l-356 547l333 520h-403l-166 -319l-158 319h-436l334 -524z" />
<glyph unicode="y" d="M16 1067l433 -1092q-18 -63 -64.5 -105t-120.5 -42q-35 0 -70.5 4t-76.5 18l-25 -280q55 -12 113.5 -18.5t111.5 -6.5q113 0 185.5 32t115.5 75q37 37 64 73.5t49.5 80.5t47 102.5t55.5 138.5l401 1020h-369l-219 -696h-4l-229 696h-398z" />
<glyph unicode="z" horiz-adv-x="1024" d="M53 0h918v270h-496l488 502v295h-900v-270h478l-488 -502v-295z" />
<glyph unicode="{" horiz-adv-x="796" d="M61 539q90 0 133.5 -43t43.5 -99v-405q0 -70 23.5 -122t63.5 -87t93 -52.5t110 -17.5h207v185h-96q-53 0 -86 26.5t-33 102.5v354q0 123 -55 182.5t-180 65.5v4q127 10 181 71.5t54 161.5v367q0 25 4 48.5t16.5 41.5t36 29.5t62.5 11.5h96v184h-205q-59 0 -112 -17.5 t-93 -53t-63.5 -89t-23.5 -122.5v-410q0 -37 -15.5 -62.5t-40 -41t-56.5 -22.5t-65 -7v-184z" />
<glyph unicode="|" horiz-adv-x="454" d="M98 -25h258v1561h-258v-1561z" />
<glyph unicode="}" horiz-adv-x="796" d="M61 -102v-185h207q131 0 211 77t80 198v418q0 23 8 46t27.5 41.5t53.5 32t87 13.5v184q-90 0 -133 43t-43 100v408q0 57 -19.5 107.5t-57.5 87t-93 58t-125 21.5h-203v-184h97q66 0 92 -33t26 -98v-354q0 -123 57.5 -182.5t180.5 -63.5v-4q-68 -6 -113 -25.5t-72.5 -50.5 t-40 -70t-12.5 -84v-379q0 -74 -35.5 -98t-76.5 -24h-103z" />
<glyph unicode="~" horiz-adv-x="1228" d="M141 537l74 -224q47 76 91 109t91 33q45 0 96.5 -20.5t106.5 -45t112.5 -45t116.5 -20.5q80 0 145.5 42t112.5 134l-73 223q-55 -86 -97.5 -113.5t-87.5 -27.5t-95 20.5t-104.5 45t-111.5 45t-117 20.5q-78 0 -141 -37t-119 -139z" />
<glyph horiz-adv-x="1253" d="M-35 494h141q37 -141 120 -239.5t191.5 -160t235.5 -90.5t252 -29q74 0 139.5 6.5t137.5 18.5v291q-123 -33 -232 -33q-147 0 -261 60.5t-169 175.5h473l35 159h-553q-2 14 -2 27v29q0 18 1 36.5t3 34.5h578l35 160h-566q53 106 155.5 168.5t242.5 62.5q49 0 101 -7 t107 -23l64 274q-92 23 -161.5 31t-137.5 8q-145 0 -273 -31.5t-230.5 -96t-175.5 -161t-107 -225.5h-107l-35 -160h115q-2 -18 -2 -37v-36v-27q0 -12 2 -27h-82z" />
<glyph unicode="&#xa1;" horiz-adv-x="909" d="M264 -362h381l-53 944h-275zM283 735h344v332h-344v-332z" />
<glyph unicode="&#xa2;" horiz-adv-x="1253" d="M150 532q0 -90 24.5 -173t74.5 -151.5t125 -120.5t177 -81l-88 -293h123l82 269q41 -4 61.5 -5.5t46.5 -1.5q53 0 134 10.5t161 37.5l-8 274q-45 -25 -108.5 -38t-110.5 -13q-29 0 -50.5 3t-43.5 9l165 555q33 -10 57.5 -19.5t63.5 -31.5l27 270q-20 10 -34.5 15.5 t-37.5 13.5l80 264h-121l-73 -240q-31 4 -55.5 5.5t-53.5 1.5q-127 0 -239.5 -36t-196.5 -106.5t-133 -175t-49 -242.5zM530 526q0 57 16.5 109.5t50.5 92.5t84 64.5t116 28.5l-154 -514q-55 39 -84 96.5t-29 122.5z" />
<glyph unicode="&#xa3;" horiz-adv-x="1253" d="M109 0h1030v270h-461v389h311v185h-311v69q0 125 62.5 191.5t228.5 66.5q55 0 89 -5t81 -19l16 270q-72 18 -144.5 27.5t-131.5 9.5q-281 0 -429.5 -124t-148.5 -378v-108h-176v-185h172v-389h-188v-270z" />
<glyph unicode="&#xa4;" horiz-adv-x="1253" d="M94 309l129 -127l117 111q23 -18 56.5 -34.5t73.5 -28t81 -17.5t78 -6q70 0 149.5 21.5t134.5 64.5l117 -111l129 127l-119 117q53 55 74 134t21 157q0 82 -24 160.5t-71 126.5l119 116l-129 127l-117 -110q-23 18 -56.5 34.5t-72.5 27.5t-78.5 17.5t-76.5 6.5 q-78 0 -159 -22.5t-130 -63.5l-117 110l-129 -127l119 -116q-47 -47 -70.5 -125t-23.5 -164q0 -84 23.5 -162t70.5 -127zM389 717q0 51 17.5 97t49 79t75.5 52.5t96 19.5q51 0 95 -19.5t75.5 -53.5t49 -79t17.5 -96q0 -57 -18.5 -104.5t-51 -80t-75.5 -50t-92 -17.5 q-51 0 -94.5 18.5t-75 52t-50 80t-18.5 101.5z" />
<glyph unicode="&#xa5;" horiz-adv-x="1253" d="M0 1430l338 -680h-199v-172h285l18 -39v-88h-303v-172h303v-279h369v279h303v172h-303v88l20 39h283v172h-199l338 680h-385l-241 -578l-246 578h-381z" />
<glyph unicode="&#xa6;" horiz-adv-x="454" d="M98 -25h258v582h-258v-582zM98 954h258v582h-258v-582z" />
<glyph unicode="&#xa7;" d="M123 590q0 -90 45 -151.5t113.5 -104.5t147.5 -73t147.5 -57.5t113.5 -59t45 -76.5q0 -51 -41 -78t-137 -27q-68 0 -166 18.5t-201 63.5l-18 -268q106 -29 203.5 -44.5t195.5 -15.5q86 0 180.5 19.5t173.5 60.5t129 107.5t50 161.5q0 72 -37 140t-104 107 q165 123 165 279q0 96 -45 160.5t-113.5 109.5t-148.5 74t-148.5 55.5t-113.5 54t-45 68.5q0 31 14.5 49.5t37 28.5t52 13t60.5 3q86 0 165 -15t150 -44l17 254q-102 29 -183.5 40t-148.5 11q-96 0 -190.5 -14.5t-171 -53t-124 -107.5t-47.5 -175q0 -78 48.5 -144.5 t113.5 -93.5q-92 -55 -138 -122.5t-46 -153.5zM430 633q0 35 14.5 68.5t53.5 80.5q43 -18 89 -37.5t86 -39t70.5 -37t44.5 -31.5q33 -33 33 -70q0 -35 -13 -73.5t-48 -81.5l-133 51q-115 45 -156 87t-41 83z" />
<glyph unicode="&#xa8;" horiz-adv-x="681" d="M-39 1198h295v295h-295v-295zM428 1198h295v295h-295v-295z" />
<glyph unicode="&#xa9;" horiz-adv-x="1638" d="M80 715q0 -154 58.5 -288t158.5 -234.5t234.5 -159t287.5 -58.5q154 0 288 58.5t234.5 159t159 234.5t58.5 288t-58.5 288t-159 234t-234.5 158.5t-288 58.5t-288 -58.5t-234 -158.5t-158.5 -234.5t-58.5 -287.5zM313 715q0 111 39 208t107.5 168.5t161 112.5t198.5 41 t198.5 -41t161 -112.5t107.5 -168.5t39 -208t-39 -208t-107.5 -169t-160.5 -113t-199 -41q-106 0 -198.5 41t-161 113t-107.5 169t-39 208zM432 715q0 -90 26.5 -168t78 -135.5t125 -90t169.5 -32.5q84 0 147.5 23.5t106.5 64.5t65 97t24 124h-197q-20 -63 -53 -88t-95 -25 q-80 0 -121.5 63.5t-41.5 168.5q0 100 43 162.5t122 62.5q55 0 91 -23.5t55 -89.5h197q-4 139 -90.5 224.5t-254.5 85.5q-94 0 -167.5 -33t-125 -89t-78 -134t-26.5 -168z" />
<glyph unicode="&#xaa;" horiz-adv-x="813" d="M43 983q0 -96 68.5 -150.5t191.5 -54.5q59 0 113.5 23.5t95.5 89.5h4l12 -96h242q-4 29 -8 69.5t-4 63.5v286q0 80 -31 127.5t-81 72t-113.5 32.5t-129.5 8q-70 0 -134 -9t-140 -36v-149q53 29 108.5 40t114.5 11q160 0 160 -115q-49 4 -79 6t-66 2q-37 0 -92.5 -7 t-106.5 -30.5t-88 -66.5t-37 -117zM289 997q0 35 29.5 55.5t105.5 20.5h88q-2 -74 -44 -112.5t-93 -38.5q-37 0 -61.5 19.5t-24.5 55.5z" />
<glyph unicode="&#xab;" d="M96 551l244 -418h303l-225 418l225 418h-303zM584 551l243 -418h303l-225 418l225 418h-303z" />
<glyph unicode="&#xac;" horiz-adv-x="1228" d="M96 625h778v-404h259v662h-1037v-258z" />
<glyph unicode="&#xad;" horiz-adv-x="1228" d="M96 389h1037v258h-1037v-258z" />
<glyph unicode="&#xae;" horiz-adv-x="1638" d="M80 715q0 -154 58.5 -288t158.5 -234.5t234.5 -159t287.5 -58.5q154 0 288 58.5t234.5 159t159 234.5t58.5 288t-58.5 288t-159 234t-234.5 158.5t-288 58.5t-288 -58.5t-234 -158.5t-158.5 -234.5t-58.5 -287.5zM313 715q0 111 39 208t107.5 168.5t161 112.5t198.5 41 t198.5 -41t161 -112.5t107.5 -168.5t39 -208t-39 -208t-107.5 -169t-160.5 -113t-199 -41q-106 0 -198.5 41t-161 113t-107.5 169t-39 208zM526 315h197v336h35l176 -336h196l-192 349q66 2 110 22.5t69.5 51t35.5 68.5t10 79q0 74 -24.5 120t-65.5 71.5t-96 34.5t-119 9 h-332v-805zM723 807v158h104q25 0 49.5 -2t45 -10.5t33 -22.5t12.5 -39q0 -45 -35 -64.5t-94 -19.5h-115z" />
<glyph unicode="&#xaf;" horiz-adv-x="681" d="M-43 1276h768v172h-768v-172z" />
<glyph unicode="&#xb0;" horiz-adv-x="819" d="M109 1153q0 -61 23.5 -116.5t64.5 -96.5t96 -64.5t117 -23.5q61 0 116.5 23.5t96.5 64.5t64.5 96.5t23.5 116.5t-23.5 116.5t-64.5 96.5t-96.5 64.5t-116.5 23.5t-116.5 -23.5t-96.5 -64.5t-64.5 -96.5t-23.5 -116.5zM264 1153q0 59 43 102t103 43q59 0 102 -43t43 -102 t-43 -102t-102 -43t-102.5 43t-43.5 102z" />
<glyph unicode="&#xb1;" horiz-adv-x="1228" d="M96 0h1037v258h-1037v-258zM96 549h389v-230h258v230h390v258h-390v229h-258v-229h-389v-258z" />
<glyph unicode="&#xb2;" horiz-adv-x="815" d="M61 578h676v184h-307q41 37 86 77t74 68q82 82 123 150.5t41 146.5q0 61 -28 108.5t-73 79t-104.5 47t-122.5 15.5q-78 0 -168 -11t-172 -38l10 -197q23 12 52.5 21.5t62.5 15.5t63.5 9t55.5 3q55 0 92 -22.5t37 -67.5q0 -41 -35 -89t-82 -95q-41 -41 -114.5 -99.5 t-166.5 -121.5v-184z" />
<glyph unicode="&#xb3;" horiz-adv-x="815" d="M57 590q59 -18 130 -23.5t161 -5.5q70 0 142.5 11.5t132 42t97.5 82.5t38 134q0 27 -9.5 58t-31 57.5t-57 47t-91.5 30.5v4q92 23 133 73t41 118q0 70 -32.5 114.5t-85 71.5t-119 38t-133.5 11q-78 0 -143.5 -7t-141.5 -30l12 -200q61 23 110.5 31.5t94.5 8.5 q72 0 114 -20t42 -55q0 -45 -39 -67.5t-105 -22.5q-25 0 -52 1t-56 5v-183q35 2 55.5 3.5t46.5 1.5q164 0 164 -78q0 -41 -49 -62.5t-131 -21.5q-61 0 -114.5 9t-110.5 36z" />
<glyph unicode="&#xb4;" horiz-adv-x="681" d="M203 1198h258l264 295h-383z" />
<glyph unicode="&#xb5;" horiz-adv-x="1366" d="M115 -430h372v405h35q49 0 103.5 9.5t106.5 34t99.5 67.5t79.5 111h4v-197h336v1067h-368v-446q0 -70 -10.5 -131.5t-36 -107.5t-70.5 -72.5t-113 -26.5q-92 0 -131 71.5t-39 196.5v516h-368v-1497z" />
<glyph unicode="&#xb6;" horiz-adv-x="1269" d="M37 1071q0 -168 105.5 -263t351.5 -95v-971h245v1503h199v-1503h246v1688h-699q-96 0 -178 -18.5t-141.5 -59.5t-94 -111t-34.5 -170z" />
<glyph unicode="&#xb7;" horiz-adv-x="626" d="M123 557q0 -39 15.5 -73.5t41 -60.5t60 -41t73.5 -15t74 15t60.5 41t41 60.5t15.5 73.5t-15.5 74t-41 60.5t-60.5 41t-74 15.5t-73.5 -15.5t-60 -41t-41 -60.5t-15.5 -74z" />
<glyph unicode="&#xb8;" horiz-adv-x="681" d="M113 -408q70 -29 130 -38t126 -9q143 0 206.5 43t63.5 111q0 31 -8 62.5t-26.5 57t-50.5 42t-79 16.5q-23 0 -41 -2t-53 -8l55 133h-135l-86 -184l80 -49q23 8 34 10t23 2q78 0 78 -72q0 -27 -21.5 -45t-78.5 -18q-47 0 -91 10t-92 33z" />
<glyph unicode="&#xb9;" horiz-adv-x="815" d="M61 1247l111 -178l162 98v-589h270v860h-231z" />
<glyph unicode="&#xba;" horiz-adv-x="888" d="M35 1114q0 -76 29.5 -138.5t84 -106.5t130 -67.5t167.5 -23.5q86 0 161 22.5t130.5 66.5t86 106.5t30.5 142.5t-30.5 142.5t-85 105.5t-129 66.5t-165.5 23.5q-84 0 -158.5 -21.5t-130 -64.5t-88 -106.5t-32.5 -147.5zM293 1116q0 76 42 121t109 45q68 0 110 -44t42 -122 t-42 -122t-110 -44q-70 0 -110.5 45t-40.5 121z" />
<glyph unicode="&#xbb;" d="M121 133h303l244 418l-244 418h-303l225 -418zM608 133h303l244 418l-244 418h-303l226 -418z" />
<glyph unicode="&#xbc;" horiz-adv-x="1875" d="M61 1251l111 -178l162 98v-589h270v860h-231zM428 -45h223l793 1520h-223zM1032 145h430v-145h246v145h123v185h-123v530h-309l-367 -508v-207zM1210 330l248 352h4v-352h-252z" />
<glyph unicode="&#xbd;" horiz-adv-x="1875" d="M45 1247l111 -178l161 98v-589h271v860h-232zM412 -45h223l792 1520h-223zM1139 0h676v184h-308q41 37 86 77t74 69q82 82 123 150.5t41 146.5q0 61 -27.5 108t-72.5 79t-104.5 47.5t-123.5 15.5q-78 0 -168 -11.5t-172 -38.5l11 -196q23 12 52 21.5t62 15.5t63.5 9 t55.5 3q55 0 92 -22.5t37 -67.5q0 -41 -35 -89t-82 -95q-41 -41 -114.5 -99.5t-165.5 -122.5v-184z" />
<glyph unicode="&#xbe;" horiz-adv-x="1875" d="M57 590q59 -18 130 -23.5t161 -5.5q70 0 142.5 11.5t132 42t97.5 82.5t38 134q0 27 -9.5 58t-31 57.5t-57 47t-91.5 30.5v4q92 23 133 73t41 118q0 70 -32.5 114.5t-85 71.5t-119 38t-133.5 11q-78 0 -143.5 -7t-141.5 -30l12 -200q61 23 110.5 31.5t94.5 8.5 q72 0 114 -20t42 -55q0 -45 -39 -67.5t-105 -22.5q-25 0 -52 1t-56 5v-183q35 2 55.5 3.5t46.5 1.5q164 0 164 -78q0 -41 -49 -62.5t-131 -21.5q-61 0 -114.5 9t-110.5 36zM428 -45h223l793 1520h-223zM1032 145h430v-145h246v145h123v185h-123v530h-309l-367 -508v-207z M1210 330l248 352h4v-352h-252z" />
<glyph unicode="&#xbf;" horiz-adv-x="1138" d="M82 -43q0 -96 46 -162.5t117.5 -106.5t159 -57.5t168.5 -17.5q113 0 227 14t206 45l-9 287q-59 -33 -143 -54.5t-174 -21.5q-100 0 -164.5 41t-64.5 107q0 57 30.5 108t79.5 111q70 84 112 158.5t42 173.5h-299q-8 -96 -59.5 -170t-114.5 -140q-72 -76 -116 -148.5 t-44 -166.5zM393 735h344v332h-344v-332z" />
<glyph unicode="&#xc0;" horiz-adv-x="1593" d="M16 0h387l113 305h537l106 -305h418l-551 1430h-467zM438 1800l264 -295h259l-140 295h-383zM604 575l184 560h5l170 -560h-359z" />
<glyph unicode="&#xc1;" horiz-adv-x="1593" d="M16 0h387l113 305h537l106 -305h418l-551 1430h-467zM604 575l184 560h5l170 -560h-359zM631 1505h258l264 295h-383z" />
<glyph unicode="&#xc2;" horiz-adv-x="1593" d="M16 0h387l113 305h537l106 -305h418l-551 1430h-467zM403 1505h256l142 160l133 -160h256l-223 295h-332zM604 575l184 560h5l170 -560h-359z" />
<glyph unicode="&#xc3;" horiz-adv-x="1593" d="M16 0h387l113 305h537l106 -305h418l-551 1430h-467zM397 1505h148q10 43 34.5 61.5t63.5 18.5q29 0 61.5 -11t70.5 -25.5t80 -26t87 -11.5q66 0 112 27t76.5 69t47 93t22.5 100h-147q-8 -41 -35 -60.5t-62 -19.5q-31 0 -66.5 11.5t-73.5 26t-79 25.5t-82 11 q-102 0 -171.5 -77t-86.5 -212zM604 575l184 560h5l170 -560h-359z" />
<glyph unicode="&#xc4;" horiz-adv-x="1593" d="M16 0h387l113 305h537l106 -305h418l-551 1430h-467zM418 1505h295v295h-295v-295zM604 575l184 560h5l170 -560h-359zM885 1505h295v295h-295v-295z" />
<glyph unicode="&#xc5;" horiz-adv-x="1593" d="M16 0h387l113 305h537l106 -305h418l-551 1430h-467zM569 1724q0 -47 18.5 -88t49.5 -72.5t73 -50t89 -18.5t89 18.5t72.5 49t49 72.5t18.5 89t-18.5 89t-49 73t-72.5 49.5t-89 18.5t-89 -18.5t-73 -50.5t-49.5 -74t-18.5 -87zM604 575l184 560h5l170 -560h-359z M700 1724q0 41 29 70t70 29t69.5 -29t28.5 -70t-28.5 -69.5t-69.5 -28.5t-70 28.5t-29 69.5z" />
<glyph unicode="&#xc6;" horiz-adv-x="2048" d="M-8 0h399l150 305h436v-305h991v270h-610v324h549v270h-549v295h586v271h-1205zM674 575l284 584h19v-584h-303z" />
<glyph unicode="&#xc7;" horiz-adv-x="1366" d="M80 707q0 -174 56.5 -301t149.5 -214.5t212.5 -136.5t249.5 -67l-80 -172l80 -49q23 8 34 10t23 2q78 0 78 -72q0 -27 -21.5 -45t-79.5 -18q-47 0 -91 10t-91 33l-35 -95q70 -29 130.5 -38t125.5 -9q143 0 207 43t64 111q0 31 -8.5 62.5t-27 57t-50 42t-78.5 16.5 q-23 0 -41.5 -2t-52.5 -8l45 108h26q109 0 204 13.5t216 44.5l-18 299q-106 -41 -191.5 -57.5t-165.5 -16.5q-104 0 -191 30.5t-150.5 88t-99.5 141.5t-36 191q0 100 32 185t90 146.5t141 96t186 34.5q84 0 174 -20.5t196 -79.5l31 309q-145 43 -242.5 58.5t-185.5 15.5 q-176 0 -324.5 -46t-258 -140t-171 -234.5t-61.5 -326.5z" />
<glyph unicode="&#xc8;" d="M123 0h1030v270h-649v324h592v270h-592v295h626v271h-1007v-1430zM266 1800l264 -295h258l-139 295h-383z" />
<glyph unicode="&#xc9;" d="M123 0h1030v270h-649v324h592v270h-592v295h626v271h-1007v-1430zM459 1505h258l264 295h-383z" />
<glyph unicode="&#xca;" d="M123 0h1030v270h-649v324h592v270h-592v295h626v271h-1007v-1430zM231 1505h256l142 160l133 -160h256l-223 295h-332z" />
<glyph unicode="&#xcb;" d="M123 0h1030v270h-649v324h592v270h-592v295h626v271h-1007v-1430zM246 1505h295v295h-295v-295zM713 1505h295v295h-295v-295z" />
<glyph unicode="&#xcc;" horiz-adv-x="684" d="M-16 1800l264 -295h258l-139 295h-383zM152 0h380v1430h-380v-1430z" />
<glyph unicode="&#xcd;" horiz-adv-x="684" d="M152 0h380v1430h-380v-1430zM176 1505h258l264 295h-383z" />
<glyph unicode="&#xce;" horiz-adv-x="684" d="M-51 1505h256l141 160l133 -160h256l-223 295h-332zM152 0h380v1430h-380v-1430z" />
<glyph unicode="&#xcf;" horiz-adv-x="684" d="M-37 1505h295v295h-295v-295zM152 0h380v1430h-380v-1430zM430 1505h295v295h-295v-295z" />
<glyph unicode="&#xd0;" horiz-adv-x="1593" d="M-4 639h137v-639h520q197 0 354.5 42t266 130t167 224.5t58.5 324.5q0 201 -59.5 337t-169 219t-265 118t-348.5 35h-524v-582h-137v-209zM514 283v356h342v209h-342v299h152q55 0 130.5 -13.5t144.5 -59.5t117 -132t48 -229q0 -133 -42 -217t-106.5 -131.5t-142.5 -64.5 t-147 -17h-154z" />
<glyph unicode="&#xd1;" horiz-adv-x="1593" d="M139 0h350l-12 977h4l500 -977h473v1430h-348l6 -971h-4l-483 971h-486v-1430zM397 1505h148q10 43 34.5 61.5t63.5 18.5q29 0 61.5 -11t70.5 -25.5t80 -26t87 -11.5q66 0 112 27t76.5 69t47 93t22.5 100h-147q-8 -41 -35 -60.5t-62 -19.5q-31 0 -66.5 11.5t-73.5 26 t-79 25.5t-82 11q-102 0 -171.5 -77t-86.5 -212z" />
<glyph unicode="&#xd2;" horiz-adv-x="1593" d="M80 715q0 -170 46 -307.5t137 -233.5t224.5 -147.5t309.5 -51.5q174 0 308 51.5t225 147.5t137 233.5t46 307.5q0 166 -44 303t-133 233.5t-223 149.5t-316 53t-316.5 -53t-223.5 -149.5t-133 -233.5t-44 -303zM438 1800l264 -295h259l-140 295h-383zM473 715 q0 98 19.5 182t59.5 144.5t100.5 95t144.5 34.5t144 -34.5t100 -95t59.5 -144.5t19.5 -182q0 -86 -17.5 -168t-56 -146.5t-100 -103.5t-149.5 -39t-149.5 39t-100.5 103.5t-56.5 146.5t-17.5 168z" />
<glyph unicode="&#xd3;" horiz-adv-x="1593" d="M80 715q0 -170 46 -307.5t137 -233.5t224.5 -147.5t309.5 -51.5q174 0 308 51.5t225 147.5t137 233.5t46 307.5q0 166 -44 303t-133 233.5t-223 149.5t-316 53t-316.5 -53t-223.5 -149.5t-133 -233.5t-44 -303zM473 715q0 98 19.5 182t59.5 144.5t100.5 95t144.5 34.5 t144 -34.5t100 -95t59.5 -144.5t19.5 -182q0 -86 -17.5 -168t-56 -146.5t-100 -103.5t-149.5 -39t-149.5 39t-100.5 103.5t-56.5 146.5t-17.5 168zM631 1505h258l264 295h-383z" />
<glyph unicode="&#xd4;" horiz-adv-x="1593" d="M80 715q0 -170 46 -307.5t137 -233.5t224.5 -147.5t309.5 -51.5q174 0 308 51.5t225 147.5t137 233.5t46 307.5q0 166 -44 303t-133 233.5t-223 149.5t-316 53t-316.5 -53t-223.5 -149.5t-133 -233.5t-44 -303zM403 1505h256l142 160l133 -160h256l-223 295h-332z M473 715q0 98 19.5 182t59.5 144.5t100.5 95t144.5 34.5t144 -34.5t100 -95t59.5 -144.5t19.5 -182q0 -86 -17.5 -168t-56 -146.5t-100 -103.5t-149.5 -39t-149.5 39t-100.5 103.5t-56.5 146.5t-17.5 168z" />
<glyph unicode="&#xd5;" horiz-adv-x="1593" d="M80 715q0 -170 46 -307.5t137 -233.5t224.5 -147.5t309.5 -51.5q174 0 308 51.5t225 147.5t137 233.5t46 307.5q0 166 -44 303t-133 233.5t-223 149.5t-316 53t-316.5 -53t-223.5 -149.5t-133 -233.5t-44 -303zM397 1505h148q10 43 34.5 61.5t63.5 18.5q29 0 61.5 -11 t70.5 -25.5t80 -26t87 -11.5q66 0 112 27t76.5 69t47 93t22.5 100h-147q-8 -41 -35 -60.5t-62 -19.5q-31 0 -66.5 11.5t-73.5 26t-79 25.5t-82 11q-102 0 -171.5 -77t-86.5 -212zM473 715q0 98 19.5 182t59.5 144.5t100.5 95t144.5 34.5t144 -34.5t100 -95t59.5 -144.5 t19.5 -182q0 -86 -17.5 -168t-56 -146.5t-100 -103.5t-149.5 -39t-149.5 39t-100.5 103.5t-56.5 146.5t-17.5 168z" />
<glyph unicode="&#xd6;" horiz-adv-x="1593" d="M80 715q0 -170 46 -307.5t137 -233.5t224.5 -147.5t309.5 -51.5q174 0 308 51.5t225 147.5t137 233.5t46 307.5q0 166 -44 303t-133 233.5t-223 149.5t-316 53t-316.5 -53t-223.5 -149.5t-133 -233.5t-44 -303zM418 1505h295v295h-295v-295zM473 715q0 98 19.5 182 t59.5 144.5t100.5 95t144.5 34.5t144 -34.5t100 -95t59.5 -144.5t19.5 -182q0 -86 -17.5 -168t-56 -146.5t-100 -103.5t-149.5 -39t-149.5 39t-100.5 103.5t-56.5 146.5t-17.5 168zM885 1505h295v295h-295v-295z" />
<glyph unicode="&#xd7;" horiz-adv-x="1228" d="M127 207l176 -176l311 313l312 -313l176 176l-314 311l314 311l-176 177l-312 -312l-311 312l-176 -177l311 -311z" />
<glyph unicode="&#xd8;" horiz-adv-x="1593" d="M31 35l131 -123l180 192q176 -129 455 -129q174 0 308 51.5t225 147.5t137 233.5t46 307.5q0 152 -35.5 276.5t-107.5 220.5l172 185l-131 123l-172 -185q-84 57 -193.5 88t-248.5 31q-182 0 -316.5 -53t-223.5 -149.5t-133 -233.5t-44 -303q0 -147 35 -268t100 -216z M473 715q0 98 19.5 182t59.5 144.5t100.5 95t144.5 34.5q131 0 211 -86l-514 -553q-10 43 -15.5 89.5t-5.5 93.5zM575 358l521 560q24 -92 24 -203q0 -86 -17.5 -168t-56 -146.5t-100 -103.5t-149.5 -39q-74 0 -128.5 26.5t-93.5 73.5z" />
<glyph unicode="&#xd9;" horiz-adv-x="1478" d="M113 543q0 -147 46 -255t129 -177.5t198.5 -102.5t252.5 -33q139 0 254 34t198 103.5t129 176.5t46 252v889h-381v-828q0 -76 -12 -139.5t-42 -108.5t-77 -70.5t-115 -25.5q-133 0 -189 93t-56 251v828h-381v-887zM381 1800l264 -295h258l-139 295h-383z" />
<glyph unicode="&#xda;" horiz-adv-x="1478" d="M113 543q0 -147 46 -255t129 -177.5t198.5 -102.5t252.5 -33q139 0 254 34t198 103.5t129 176.5t46 252v889h-381v-828q0 -76 -12 -139.5t-42 -108.5t-77 -70.5t-115 -25.5q-133 0 -189 93t-56 251v828h-381v-887zM573 1505h258l265 295h-383z" />
<glyph unicode="&#xdb;" horiz-adv-x="1478" d="M113 543q0 -147 46 -255t129 -177.5t198.5 -102.5t252.5 -33q139 0 254 34t198 103.5t129 176.5t46 252v889h-381v-828q0 -76 -12 -139.5t-42 -108.5t-77 -70.5t-115 -25.5q-133 0 -189 93t-56 251v828h-381v-887zM346 1505h256l141 160l134 -160h256l-224 295h-331z" />
<glyph unicode="&#xdc;" horiz-adv-x="1478" d="M113 543q0 -147 46 -255t129 -177.5t198.5 -102.5t252.5 -33q139 0 254 34t198 103.5t129 176.5t46 252v889h-381v-828q0 -76 -12 -139.5t-42 -108.5t-77 -70.5t-115 -25.5q-133 0 -189 93t-56 251v828h-381v-887zM360 1505h295v295h-295v-295zM827 1505h295v295h-295 v-295z" />
<glyph unicode="&#xdd;" horiz-adv-x="1478" d="M23 1430l528 -891v-539h381v539l524 891h-438l-277 -574l-280 574h-438zM602 1505h258l264 295h-383z" />
<glyph unicode="&#xde;" d="M113 0h381v322h149q270 0 417.5 113t147.5 349q0 129 -40 218.5t-119.5 144.5t-198.5 79.5t-279 24.5h-77v179h-381v-1430zM494 592v389h102q45 0 87 -9t75 -31.5t51 -60t18 -92.5t-18 -93t-50 -61.5t-75 -32.5t-92 -9h-98z" />
<glyph unicode="&#xdf;" horiz-adv-x="1366" d="M115 -2h368v1036q0 135 51.5 208t149.5 73q88 0 133 -50.5t45 -142.5q0 -84 -50 -139t-130 -55h-51v-262q29 4 49 4h45q94 0 143.5 -56.5t49.5 -142.5q0 -213 -193 -213q-35 0 -68.5 3t-66.5 7l-10 -268q59 -8 101 -10t81 -2q92 0 185 19.5t169 69.5t123 136t47 219 q0 152 -75.5 242t-235.5 114v5q127 43 191.5 123.5t64.5 222.5q0 117 -44 197.5t-118 131t-171 72t-204 21.5q-98 0 -200.5 -21.5t-187.5 -82t-138 -168t-53 -281.5v-1010z" />
<glyph unicode="&#xe0;" d="M63 311q0 -90 34 -153.5t90.5 -103.5t128 -59.5t147.5 -19.5q111 0 190.5 44t147.5 149h4q0 -43 3 -82t5 -86h338q-6 27 -9 59.5t-6 64.5t-4.5 61.5t-1.5 47.5v418q0 119 -40.5 203t-109.5 137t-161 77t-194 24q-104 0 -208 -14.5t-220 -61.5l6 -250q80 43 164 61.5 t174 18.5q129 0 186 -46t59 -138q-41 6 -82.5 10t-89.5 4q-72 0 -167 -11.5t-180 -48t-144.5 -109.5t-59.5 -196zM266 1493l264 -295h258l-139 295h-383zM408 340q0 66 55 102.5t172 36.5q29 0 72.5 -2t78.5 -4q0 -45 -15 -90t-45 -81t-72 -58.5t-93 -22.5q-68 0 -110.5 31 t-42.5 88z" />
<glyph unicode="&#xe1;" d="M63 311q0 -90 34 -153.5t90.5 -103.5t128 -59.5t147.5 -19.5q111 0 190.5 44t147.5 149h4q0 -43 3 -82t5 -86h338q-6 27 -9 59.5t-6 64.5t-4.5 61.5t-1.5 47.5v418q0 119 -40.5 203t-109.5 137t-161 77t-194 24q-104 0 -208 -14.5t-220 -61.5l6 -250q80 43 164 61.5 t174 18.5q129 0 186 -46t59 -138q-41 6 -82.5 10t-89.5 4q-72 0 -167 -11.5t-180 -48t-144.5 -109.5t-59.5 -196zM408 340q0 66 55 102.5t172 36.5q29 0 72.5 -2t78.5 -4q0 -45 -15 -90t-45 -81t-72 -58.5t-93 -22.5q-68 0 -110.5 31t-42.5 88zM487 1198h258l265 295h-383z " />
<glyph unicode="&#xe2;" d="M63 311q0 -90 34 -153.5t90.5 -103.5t128 -59.5t147.5 -19.5q111 0 190.5 44t147.5 149h4q0 -43 3 -82t5 -86h338q-6 27 -9 59.5t-6 64.5t-4.5 61.5t-1.5 47.5v418q0 119 -40.5 203t-109.5 137t-161 77t-194 24q-104 0 -208 -14.5t-220 -61.5l6 -250q80 43 164 61.5 t174 18.5q129 0 186 -46t59 -138q-41 6 -82.5 10t-89.5 4q-72 0 -167 -11.5t-180 -48t-144.5 -109.5t-59.5 -196zM231 1198h256l142 160l133 -160h256l-223 295h-332zM408 340q0 66 55 102.5t172 36.5q29 0 72.5 -2t78.5 -4q0 -45 -15 -90t-45 -81t-72 -58.5t-93 -22.5 q-68 0 -110.5 31t-42.5 88z" />
<glyph unicode="&#xe3;" d="M63 311q0 -90 34 -153.5t90.5 -103.5t128 -59.5t147.5 -19.5q111 0 190.5 44t147.5 149h4q0 -43 3 -82t5 -86h338q-6 27 -9 59.5t-6 64.5t-4.5 61.5t-1.5 47.5v418q0 119 -40.5 203t-109.5 137t-161 77t-194 24q-104 0 -208 -14.5t-220 -61.5l6 -250q80 43 164 61.5 t174 18.5q129 0 186 -46t59 -138q-41 6 -82.5 10t-89.5 4q-72 0 -167 -11.5t-180 -48t-144.5 -109.5t-59.5 -196zM225 1198h148q10 43 34.5 61.5t63.5 18.5q29 0 61.5 -11.5t70.5 -25.5t80 -25.5t87 -11.5q66 0 112 26.5t76.5 68.5t47 93.5t22.5 100.5h-147 q-8 -41 -35 -60.5t-62 -19.5q-31 0 -66.5 11.5t-73.5 25.5t-79 25.5t-82 11.5q-102 0 -171.5 -77t-86.5 -212zM408 340q0 66 55 102.5t172 36.5q29 0 72.5 -2t78.5 -4q0 -45 -15 -90t-45 -81t-72 -58.5t-93 -22.5q-68 0 -110.5 31t-42.5 88z" />
<glyph unicode="&#xe4;" d="M63 311q0 -90 34 -153.5t90.5 -103.5t128 -59.5t147.5 -19.5q111 0 190.5 44t147.5 149h4q0 -43 3 -82t5 -86h338q-6 27 -9 59.5t-6 64.5t-4.5 61.5t-1.5 47.5v418q0 119 -40.5 203t-109.5 137t-161 77t-194 24q-104 0 -208 -14.5t-220 -61.5l6 -250q80 43 164 61.5 t174 18.5q129 0 186 -46t59 -138q-41 6 -82.5 10t-89.5 4q-72 0 -167 -11.5t-180 -48t-144.5 -109.5t-59.5 -196zM246 1198h295v295h-295v-295zM408 340q0 66 55 102.5t172 36.5q29 0 72.5 -2t78.5 -4q0 -45 -15 -90t-45 -81t-72 -58.5t-93 -22.5q-68 0 -110.5 31t-42.5 88z M713 1198h295v295h-295v-295z" />
<glyph unicode="&#xe5;" d="M63 311q0 -90 34 -153.5t90.5 -103.5t128 -59.5t147.5 -19.5q111 0 190.5 44t147.5 149h4q0 -43 3 -82t5 -86h338q-6 27 -9 59.5t-6 64.5t-4.5 61.5t-1.5 47.5v418q0 119 -40.5 203t-109.5 137t-161 77t-194 24q-104 0 -208 -14.5t-220 -61.5l6 -250q80 43 164 61.5 t174 18.5q129 0 186 -46t59 -138q-41 6 -82.5 10t-89.5 4q-72 0 -167 -11.5t-180 -48t-144.5 -109.5t-59.5 -196zM397 1389q0 -47 18.5 -88t49.5 -73t73 -50.5t89 -18.5t89 18.5t72.5 49t49 73t18.5 89.5t-18.5 89t-49 72.5t-72.5 49t-89 18.5t-89 -18.5t-73 -50 t-49.5 -73.5t-18.5 -87zM408 340q0 66 55 102.5t172 36.5q29 0 72.5 -2t78.5 -4q0 -45 -15 -90t-45 -81t-72 -58.5t-93 -22.5q-68 0 -110.5 31t-42.5 88zM528 1389q0 41 29 69.5t70 28.5t69.5 -28.5t28.5 -69.5t-28.5 -70t-69.5 -29t-70 29t-29 70z" />
<glyph unicode="&#xe6;" horiz-adv-x="1933" d="M45 313q0 -82 29.5 -145.5t83 -106.5t127 -64.5t161.5 -21.5q160 0 272.5 55.5t184.5 184.5q33 -57 74 -102t98.5 -76t132 -46.5t174.5 -15.5q106 0 205 15.5t193 52.5v260q-90 -45 -167 -63.5t-169 -18.5q-147 0 -219 55.5t-84 149.5h737v70q0 119 -28.5 227t-93 190 t-167 130.5t-250.5 48.5q-113 0 -205 -34t-171 -97q-35 47 -128.5 89t-238.5 42q-106 0 -210.5 -16.5t-207.5 -57.5l6 -252q74 41 162 60.5t182 19.5q238 0 240 -180q-53 4 -93 7t-79 3q-84 0 -180.5 -13.5t-179 -51.5t-137 -109.5t-54.5 -188.5zM389 342q0 137 234 137h145 q0 -55 -18.5 -102t-49 -82t-71.5 -54.5t-88 -19.5q-72 0 -112 34t-40 87zM1137 635q10 117 66.5 170t135.5 53q113 0 159 -63.5t48 -159.5h-409z" />
<glyph unicode="&#xe7;" horiz-adv-x="1024" d="M63 532q0 -111 34 -201.5t95.5 -159.5t145.5 -114t186 -65l-82 -176l80 -49q23 8 34 10t24 2q78 0 77 -72q0 -27 -21.5 -45t-78.5 -18q-47 0 -91 10t-91 33l-35 -95q70 -29 130 -38t126 -9q143 0 206.5 43t63.5 111q0 31 -8 62.5t-26.5 57t-50 42t-79.5 16.5 q-23 0 -41 -2t-53 -8l45 108h31q74 0 152.5 12.5t148.5 35.5l-8 274q-96 -51 -232 -51q-57 0 -111 19.5t-96 55t-68 89t-26 120.5q0 129 78 210t205 81q59 0 112.5 -12t110.5 -47l27 270q-59 29 -131 44.5t-164 15.5q-127 0 -239.5 -36t-196.5 -106.5t-133.5 -175 t-49.5 -242.5z" />
<glyph unicode="&#xe8;" d="M63 532q0 -131 47.5 -234t130.5 -175t196.5 -110t246.5 -38q102 0 202.5 16.5t188.5 51.5v260q-82 -45 -168 -63.5t-155 -18.5q-143 0 -221 48t-95 157h738v68q0 119 -29 226t-92.5 190t-166 132.5t-249.5 49.5q-135 0 -241.5 -41t-180.5 -115t-113 -176.5t-39 -227.5z M266 1493l264 -295h258l-139 295h-383zM432 635q8 98 57.5 160.5t147.5 62.5q106 0 155.5 -62.5t49.5 -160.5h-410z" />
<glyph unicode="&#xe9;" d="M63 532q0 -131 47.5 -234t130.5 -175t196.5 -110t246.5 -38q102 0 202.5 16.5t188.5 51.5v260q-82 -45 -168 -63.5t-155 -18.5q-143 0 -221 48t-95 157h738v68q0 119 -29 226t-92.5 190t-166 132.5t-249.5 49.5q-135 0 -241.5 -41t-180.5 -115t-113 -176.5t-39 -227.5z M432 635q8 98 57.5 160.5t147.5 62.5q106 0 155.5 -62.5t49.5 -160.5h-410zM487 1198h258l265 295h-383z" />
<glyph unicode="&#xea;" d="M63 532q0 -131 47.5 -234t130.5 -175t196.5 -110t246.5 -38q102 0 202.5 16.5t188.5 51.5v260q-82 -45 -168 -63.5t-155 -18.5q-143 0 -221 48t-95 157h738v68q0 119 -29 226t-92.5 190t-166 132.5t-249.5 49.5q-135 0 -241.5 -41t-180.5 -115t-113 -176.5t-39 -227.5z M231 1198h256l142 160l133 -160h256l-223 295h-332zM432 635q8 98 57.5 160.5t147.5 62.5q106 0 155.5 -62.5t49.5 -160.5h-410z" />
<glyph unicode="&#xeb;" d="M63 532q0 -131 47.5 -234t130.5 -175t196.5 -110t246.5 -38q102 0 202.5 16.5t188.5 51.5v260q-82 -45 -168 -63.5t-155 -18.5q-143 0 -221 48t-95 157h738v68q0 119 -29 226t-92.5 190t-166 132.5t-249.5 49.5q-135 0 -241.5 -41t-180.5 -115t-113 -176.5t-39 -227.5z M246 1198h295v295h-295v-295zM432 635q8 98 57.5 160.5t147.5 62.5q106 0 155.5 -62.5t49.5 -160.5h-410zM713 1198h295v295h-295v-295z" />
<glyph unicode="&#xec;" horiz-adv-x="684" d="M-16 1493l264 -295h258l-139 295h-383zM158 0h368v1067h-368v-1067z" />
<glyph unicode="&#xed;" horiz-adv-x="684" d="M158 0h368v1067h-368v-1067zM205 1198h258l264 295h-383z" />
<glyph unicode="&#xee;" horiz-adv-x="684" d="M-51 1198h256l141 160l133 -160h256l-223 295h-332zM158 0h368v1067h-368v-1067z" />
<glyph unicode="&#xef;" horiz-adv-x="684" d="M-37 1198h295v295h-295v-295zM158 0h368v1067h-368v-1067zM430 1198h295v295h-295v-295z" />
<glyph unicode="&#xf0;" horiz-adv-x="1363" d="M63 508q0 -137 42 -237.5t120 -166t189.5 -97.5t251.5 -32q154 0 272.5 45.5t200.5 128t124 202.5t42 267q0 236 -91 412q-53 104 -123.5 182t-177.5 156l246 111l-127 131l-299 -135q-80 41 -162 75.5t-155 59.5l-213 -224q41 -16 89 -33.5t93 -35.5l-219 -100l123 -134 l295 136q76 -47 129 -90.5t89 -86.5t57.5 -83.5t35.5 -81.5l-4 -3q-39 86 -128 125t-200 39q-104 0 -195.5 -41t-159 -111.5t-106.5 -167.5t-39 -210zM444 508q0 51 12.5 100t40 88t71.5 61.5t110 22.5q115 0 180.5 -72.5t65.5 -197.5q0 -55 -15.5 -105.5t-46.5 -88 t-77 -60.5t-109 -23q-61 0 -105.5 24t-72 61.5t-41 87t-13.5 102.5z" />
<glyph unicode="&#xf1;" horiz-adv-x="1366" d="M115 0h368v453q0 178 60.5 254.5t169.5 76.5q90 0 130 -68.5t40 -203.5v-512h368v670q0 82 -22.5 157.5t-71.5 134t-127 94.5t-186 36q-131 0 -232.5 -54.5t-156.5 -167.5h-4v197h-336v-1067zM283 1198h147q10 43 34.5 61.5t63.5 18.5q29 0 62 -11.5t70.5 -25.5 t79.5 -25.5t87 -11.5q66 0 112 26.5t77 68.5t47 93.5t22 100.5h-147q-8 -41 -34.5 -60.5t-61.5 -19.5q-31 0 -67 11.5t-73.5 25.5t-78.5 25.5t-82 11.5q-102 0 -172 -77t-86 -212z" />
<glyph unicode="&#xf2;" horiz-adv-x="1368" d="M63 532q0 -129 46.5 -232t129.5 -176t196.5 -111t248.5 -38t249 38t196.5 111t129 176t46.5 232q0 131 -46.5 234.5t-129 176.5t-196.5 111t-249 38t-248.5 -38t-196.5 -111t-129.5 -176t-46.5 -235zM326 1493l264 -295h258l-139 295h-383zM444 535q0 135 61.5 217 t178.5 82t178.5 -82t61.5 -217q0 -143 -64.5 -222.5t-175.5 -79.5t-175.5 79t-64.5 223z" />
<glyph unicode="&#xf3;" horiz-adv-x="1368" d="M63 532q0 -129 46.5 -232t129.5 -176t196.5 -111t248.5 -38t249 38t196.5 111t129 176t46.5 232q0 131 -46.5 234.5t-129 176.5t-196.5 111t-249 38t-248.5 -38t-196.5 -111t-129.5 -176t-46.5 -235zM444 535q0 135 61.5 217t178.5 82t178.5 -82t61.5 -217 q0 -143 -64.5 -222.5t-175.5 -79.5t-175.5 79t-64.5 223zM547 1198h258l264 295h-383z" />
<glyph unicode="&#xf4;" horiz-adv-x="1368" d="M63 532q0 -129 46.5 -232t129.5 -176t196.5 -111t248.5 -38t249 38t196.5 111t129 176t46.5 232q0 131 -46.5 234.5t-129 176.5t-196.5 111t-249 38t-248.5 -38t-196.5 -111t-129.5 -176t-46.5 -235zM291 1198h256l141 160l133 -160h256l-223 295h-332zM444 535 q0 135 61.5 217t178.5 82t178.5 -82t61.5 -217q0 -143 -64.5 -222.5t-175.5 -79.5t-175.5 79t-64.5 223z" />
<glyph unicode="&#xf5;" horiz-adv-x="1368" d="M63 532q0 -129 46.5 -232t129.5 -176t196.5 -111t248.5 -38t249 38t196.5 111t129 176t46.5 232q0 131 -46.5 234.5t-129 176.5t-196.5 111t-249 38t-248.5 -38t-196.5 -111t-129.5 -176t-46.5 -235zM285 1198h147q10 43 35 61.5t63 18.5q29 0 62 -11.5t70.5 -25.5 t79.5 -25.5t87 -11.5q66 0 112 26.5t77 68.5t47 93.5t22 100.5h-147q-8 -41 -34.5 -60.5t-61.5 -19.5q-31 0 -67 11.5t-73.5 25.5t-78.5 25.5t-82 11.5q-102 0 -172 -77t-86 -212zM444 535q0 135 61.5 217t178.5 82t178.5 -82t61.5 -217q0 -143 -64.5 -222.5t-175.5 -79.5 t-175.5 79t-64.5 223z" />
<glyph unicode="&#xf6;" horiz-adv-x="1368" d="M63 532q0 -129 46.5 -232t129.5 -176t196.5 -111t248.5 -38t249 38t196.5 111t129 176t46.5 232q0 131 -46.5 234.5t-129 176.5t-196.5 111t-249 38t-248.5 -38t-196.5 -111t-129.5 -176t-46.5 -235zM305 1198h295v295h-295v-295zM444 535q0 135 61.5 217t178.5 82 t178.5 -82t61.5 -217q0 -143 -64.5 -222.5t-175.5 -79.5t-175.5 79t-64.5 223zM772 1198h295v295h-295v-295z" />
<glyph unicode="&#xf7;" horiz-adv-x="1228" d="M96 389h1037v258h-1037v-258zM422 90q0 -39 15.5 -72.5t41 -59.5t60 -41t73.5 -15t74 15t61.5 41t41 60.5t14.5 73.5t-15.5 74t-41 60.5t-59.5 41t-73 15.5q-82 0 -137 -56.5t-55 -136.5zM422 942q0 -39 15.5 -72.5t41 -59.5t60 -41t73.5 -15t74 15t60.5 41t41 60.5 t15.5 73.5t-14.5 74t-40 60.5t-60.5 41t-74 15.5q-41 0 -75.5 -15.5t-60 -41t-41 -61.5t-15.5 -75z" />
<glyph unicode="&#xf8;" horiz-adv-x="1368" d="M63 532q0 -117 37 -210t103 -164l-137 -144l124 -118l154 159q72 -39 157 -59.5t183 -20.5q135 0 249 38t196.5 111t129 176t46.5 232q0 117 -37 211.5t-103 163.5l140 146l-125 118l-154 -159q-145 80 -342 80q-135 0 -248.5 -38t-196.5 -111t-129.5 -176t-46.5 -235z M444 535q0 135 61.5 217t178.5 82q74 0 133 -39l-360 -373q-12 49 -13 113zM553 270l358 373q13 -49 13 -108q0 -143 -64.5 -222.5t-175.5 -79.5q-76 0 -131 37z" />
<glyph unicode="&#xf9;" horiz-adv-x="1366" d="M115 391q0 -57 16 -130t62.5 -136.5t125 -106.5t205.5 -43q119 0 224.5 51.5t162.5 170.5h4v-197h336v1067h-368v-449q0 -336 -232 -335q-92 0 -130 72.5t-38 197.5v514h-368v-676zM324 1493l264 -295h258l-139 295h-383z" />
<glyph unicode="&#xfa;" horiz-adv-x="1366" d="M115 391q0 -57 16 -130t62.5 -136.5t125 -106.5t205.5 -43q119 0 224.5 51.5t162.5 170.5h4v-197h336v1067h-368v-449q0 -336 -232 -335q-92 0 -130 72.5t-38 197.5v514h-368v-676zM545 1198h258l264 295h-383z" />
<glyph unicode="&#xfb;" horiz-adv-x="1366" d="M115 391q0 -57 16 -130t62.5 -136.5t125 -106.5t205.5 -43q119 0 224.5 51.5t162.5 170.5h4v-197h336v1067h-368v-449q0 -336 -232 -335q-92 0 -130 72.5t-38 197.5v514h-368v-676zM289 1198h256l141 160l133 -160h256l-223 295h-332z" />
<glyph unicode="&#xfc;" horiz-adv-x="1366" d="M115 391q0 -57 16 -130t62.5 -136.5t125 -106.5t205.5 -43q119 0 224.5 51.5t162.5 170.5h4v-197h336v1067h-368v-449q0 -336 -232 -335q-92 0 -130 72.5t-38 197.5v514h-368v-676zM303 1198h295v295h-295v-295zM770 1198h295v295h-295v-295z" />
<glyph unicode="&#xfd;" d="M16 1067l433 -1092q-18 -63 -64.5 -105t-120.5 -42q-35 0 -70.5 4t-76.5 18l-25 -280q55 -12 113.5 -18.5t111.5 -6.5q113 0 185.5 32t115.5 75q37 37 64 73.5t49.5 80.5t47 102.5t55.5 138.5l401 1020h-369l-219 -696h-4l-229 696h-398zM487 1198h258l265 295h-383z" />
<glyph unicode="&#xfe;" horiz-adv-x="1368" d="M106 -430h369v580h4q47 -88 138.5 -131.5t197.5 -43.5q119 0 211 46.5t153.5 125t93.5 183t32 223.5q0 92 -29 188.5t-86 174t-143 127t-201 49.5q-236 0 -365 -162h-4v606h-371v-1966zM475 532q0 119 61.5 198t163.5 79q104 0 164 -75.5t60 -188.5q0 -133 -60.5 -210 t-165.5 -77q-43 0 -83 19.5t-71.5 55.5t-50 87t-18.5 112z" />
<glyph unicode="&#xff;" d="M16 1067l433 -1092q-18 -63 -64.5 -105t-120.5 -42q-35 0 -70.5 4t-76.5 18l-25 -280q55 -12 113.5 -18.5t111.5 -6.5q113 0 185.5 32t115.5 75q37 37 64 73.5t49.5 80.5t47 102.5t55.5 138.5l401 1020h-369l-219 -696h-4l-229 696h-398zM246 1198h295v295h-295v-295z M713 1198h295v295h-295v-295z" />
<glyph unicode="&#x152;" horiz-adv-x="2048" d="M37 717q0 -174 49 -309.5t141 -228.5t225.5 -142t301.5 -49q98 0 204.5 6t206.5 6h846v270h-610v324h549v270h-555v295h594v271h-699q-47 0 -112.5 2t-139 4t-148.5 4t-140 2q-174 0 -307.5 -51.5t-223.5 -145.5t-136 -228t-46 -300zM430 715q0 88 13.5 169t49 142t99 97 t164.5 36q27 0 59.5 -1t66 -3t66.5 -3t60 -1v-872q-47 -2 -110.5 -5.5t-106.5 -3.5q-92 0 -161 38t-113 99.5t-65.5 141.5t-21.5 166z" />
<glyph unicode="&#x153;" horiz-adv-x="2048" d="M55 532q0 -135 43 -239.5t119 -175t181.5 -106.5t230.5 -36q137 0 247.5 36t184.5 136q63 -82 164.5 -127t277.5 -45q106 0 199.5 15.5t191.5 52.5v260q-92 -47 -169.5 -64.5t-163.5 -17.5q-133 0 -211 48t-95 157h738v68q0 119 -29 227t-93.5 191t-165.5 131.5 t-249 48.5q-135 0 -234.5 -44t-164.5 -118q-74 90 -173.5 126t-248.5 36q-119 0 -224.5 -35t-184.5 -104.5t-125 -175t-46 -245.5zM436 530q0 143 61.5 229.5t159.5 86.5q55 0 97.5 -24.5t71 -66.5t43 -100.5t14.5 -126.5q0 -57 -14.5 -112.5t-42 -98.5t-69.5 -69.5 t-98 -26.5q-59 0 -101 27.5t-68.5 72t-40 99.5t-13.5 110zM1251 635q6 96 55.5 159.5t147.5 63.5q102 0 154.5 -58.5t52.5 -164.5h-410z" />
<glyph unicode="&#x178;" horiz-adv-x="1478" d="M23 1430l528 -891v-539h381v539l524 891h-438l-277 -574l-280 574h-438zM360 1505h295v295h-295v-295zM827 1505h295v295h-295v-295z" />
<glyph unicode="&#x2c6;" horiz-adv-x="681" d="M-53 1198h256l141 160l133 -160h256l-223 295h-332z" />
<glyph unicode="&#x2dc;" horiz-adv-x="681" d="M-59 1198h147q10 43 34.5 61.5t63.5 18.5q29 0 62 -11.5t70.5 -25.5t79.5 -25.5t87 -11.5q66 0 112 26.5t77 68.5t47 93.5t22 100.5h-147q-8 -41 -34.5 -60.5t-61.5 -19.5q-31 0 -67 11.5t-73.5 25.5t-78.5 25.5t-82 11.5q-102 0 -172 -77t-86 -212z" />
<glyph unicode="&#x2000;" horiz-adv-x="977" />
<glyph unicode="&#x2001;" horiz-adv-x="1954" />
<glyph unicode="&#x2002;" horiz-adv-x="977" />
<glyph unicode="&#x2003;" horiz-adv-x="1954" />
<glyph unicode="&#x2004;" horiz-adv-x="651" />
<glyph unicode="&#x2005;" horiz-adv-x="488" />
<glyph unicode="&#x2006;" horiz-adv-x="325" />
<glyph unicode="&#x2007;" horiz-adv-x="325" />
<glyph unicode="&#x2008;" horiz-adv-x="244" />
<glyph unicode="&#x2009;" horiz-adv-x="390" />
<glyph unicode="&#x200a;" horiz-adv-x="108" />
<glyph unicode="&#x2010;" horiz-adv-x="681" d="M63 416h555v270h-555v-270z" />
<glyph unicode="&#x2011;" horiz-adv-x="681" d="M63 416h555v270h-555v-270z" />
<glyph unicode="&#x2012;" horiz-adv-x="681" d="M63 416h555v270h-555v-270z" />
<glyph unicode="&#x2013;" horiz-adv-x="1024" d="M0 422h1024v258h-1024v-258z" />
<glyph unicode="&#x2014;" horiz-adv-x="2048" d="M0 422h2048v258h-2048v-258z" />
<glyph unicode="&#x2018;" horiz-adv-x="681" d="M100 874h344l138 556h-281z" />
<glyph unicode="&#x2019;" horiz-adv-x="681" d="M100 874h281l201 556h-344z" />
<glyph unicode="&#x201a;" horiz-adv-x="681" d="M100 -223h281l201 555h-344z" />
<glyph unicode="&#x201c;" d="M150 874h344l137 556h-281zM621 874h344l137 556h-281z" />
<glyph unicode="&#x201d;" d="M150 874h280l201 556h-344zM621 874h280l201 556h-344z" />
<glyph unicode="&#x201e;" d="M150 -223h282l201 555h-346zM618 -223h283l201 555h-346z" />
<glyph unicode="&#x2022;" horiz-adv-x="1024" d="M156 715q0 -74 27.5 -139.5t76.5 -113.5t113.5 -77t138.5 -29t139.5 29t113.5 77t76.5 113.5t28.5 139.5t-28.5 138.5t-76.5 113.5t-113.5 76.5t-139.5 27.5t-138.5 -27.5t-113.5 -76.5t-76.5 -114t-27.5 -138z" />
<glyph unicode="&#x2026;" horiz-adv-x="2048" d="M170 0h344v332h-344v-332zM852 0h344v332h-344v-332zM1534 0h344v332h-344v-332z" />
<glyph unicode="&#x202f;" horiz-adv-x="390" />
<glyph unicode="&#x2039;" horiz-adv-x="681" d="M57 551l244 -418h303l-225 418l225 418h-303z" />
<glyph unicode="&#x203a;" horiz-adv-x="681" d="M78 133h303l244 418l-244 418h-303l225 -418z" />
<glyph unicode="&#x205f;" horiz-adv-x="488" />
<glyph unicode="&#x2122;" horiz-adv-x="2048" d="M76 1245h241v-667h222v667h241v185h-704v-185zM977 578h221v557h4l182 -557h181l182 557h4v-557h221v852h-315l-182 -496l-183 496h-315v-852z" />
<glyph unicode="&#xe000;" horiz-adv-x="1064" d="M0 0v1065h1065v-1065h-1065z" />
</font>
</defs>
</svg>
