<?xml version="1.0" standalone="no"?>
<!DOCTYPE svg PUBLIC "-//W3C//DTD SVG 1.1//EN" "http://www.w3.org/Graphics/SVG/1.1/DTD/svg11.dtd" >
<svg xmlns="http://www.w3.org/2000/svg">
<metadata></metadata>
<defs>
<font id="articulate_narrowbold" horiz-adv-x="1024" >
<font-face units-per-em="2048" ascent="1638" descent="-410" />
<missing-glyph horiz-adv-x="532" />
<glyph horiz-adv-x="2048" />
<glyph horiz-adv-x="2048" />
<glyph horiz-adv-x="682" />
<glyph horiz-adv-x="454" d="M-41 1450h119q4 -51 44 -95t107 -44q57 0 100.5 40t47.5 99h119q-4 -147 -79 -210.5t-188 -63.5t-189.5 62t-80.5 212z" />
<glyph horiz-adv-x="454" d="M129 1235v225h197v-225h-197z" />
<glyph horiz-adv-x="454" d="M8 1360q0 45 17.5 85t47 69.5t69.5 47t85 17.5t85 -17.5t70 -47t47 -69.5t17 -85t-17 -85t-47 -69.5t-70 -47t-85 -17.5t-85 17.5t-69.5 47t-47 69.5t-17.5 85zM111 1360q0 -47 34.5 -82t81.5 -35t82 35t35 82t-35 82t-82 35t-81.5 -35t-34.5 -82z" />
<glyph unicode="&#xa;" horiz-adv-x="454" d="M-98 1171l131 295h237l-209 -295h-159zM246 1171l131 295h237l-208 -295h-160z" />
<glyph horiz-adv-x="454" d="M143 -256q0 45 18.5 84t46.5 69.5t61.5 56.5t66.5 46h86q-59 -61 -93 -127t-34 -119q0 -47 26.5 -80.5t84.5 -33.5q25 0 44 4t35 10l21 -80q-33 -14 -75 -21.5t-79 -7.5q-41 0 -78.5 11.5t-66.5 36t-46.5 61.5t-17.5 90z" />
<glyph horiz-adv-x="454" d="M-68 1466h187l110 -178l113 178h180l-186 -295h-221z" />
<glyph unicode="&#xd;" />
<glyph horiz-adv-x="342" d="M-229 -70l641 1569h159l-641 -1569h-159z" />
<glyph horiz-adv-x="1175" d="M20 868v187h177v217q0 59 16 112.5t52 92.5t93.5 61.5t139.5 22.5t184 -25l-10 -184q-61 16 -94 16q-57 0 -92 -32.5t-35 -100.5v-180h192v-187h-192v-868h-254v868h-177zM778 1253v250h262v-250h-262zM782 0v1055h254v-1055h-254z" />
<glyph horiz-adv-x="1175" d="M20 868v187h177v217q0 59 16 112.5t52 92.5t93.5 61.5t139.5 22.5t184 -25l-10 -184q-61 16 -94 16q-57 0 -92 -32.5t-35 -100.5v-180h192v-187h-192v-868h-254v868h-177zM782 0v1536h254v-1536h-254z" />
<glyph horiz-adv-x="909" d="M0 369v192l139 127v742h262v-502l258 235v-192l-258 -236v-526h471v-209h-733v496z" />
<glyph horiz-adv-x="569" d="M0 356v201l158 172v807h254v-528l157 172v-201l-157 -172v-807h-254v528z" />
<glyph d="M74 0v229l563 992h-547v209h852v-218l-569 -1003h577v-209h-876zM217 1792h186l111 -178l113 178h180l-186 -295h-222z" />
<glyph horiz-adv-x="833" d="M57 0v219l451 643h-436v193h690v-217l-443 -645h457v-193h-719zM123 1466h186l111 -178l112 178h181l-187 -295h-221z" />
<glyph unicode=" "  horiz-adv-x="532" />
<glyph unicode="&#x09;" horiz-adv-x="532" />
<glyph unicode="&#xa0;" horiz-adv-x="532" />
<glyph unicode="!" horiz-adv-x="757" d="M248 1430h262l-33 -1008h-196zM256 0v258h246v-258h-246z" />
<glyph unicode="&#x22;" horiz-adv-x="1062" d="M262 1028v508h205v-508h-205zM596 1028v508h205v-508h-205z" />
<glyph unicode="#" horiz-adv-x="1064" d="M20 422v160h213l37 266h-192v160h215l59 422h160l-59 -422h241l60 422h159l-59 -422h190v-160h-213l-36 -266h190v-160h-213l-59 -422h-160l59 422h-241l-60 -422h-159l59 422h-191zM393 582h242l37 266h-242z" />
<glyph unicode="$" horiz-adv-x="1064" d="M102 1042q0 162 98.5 273.5t286.5 130.5v166h95v-162q82 0 161.5 -16.5t145.5 -44.5l-15 -215q-74 47 -141 67.5t-151 22.5v-424l108 -41q135 -51 204 -137.5t69 -223.5q0 -90 -21.5 -169t-68 -140t-121 -100t-181.5 -45v-179h-94v175q-102 4 -190 19t-152 44l17 233 q59 -41 146 -73.5t179 -36.5v483l-86 35q-59 25 -111.5 56.5t-92.5 74.5t-62.5 99.5t-22.5 127.5zM332 1085q0 -70 37 -118.5t118 -87.5v381q-66 -8 -110.5 -52.5t-44.5 -122.5zM571 170q92 16 131 76.5t39 142.5q0 47 -7 81t-26.5 58.5t-52 44t-84.5 37.5v-440z" />
<glyph unicode="%" horiz-adv-x="1705" d="M106 1044q0 88 17.5 162t53.5 128.5t92.5 85t136.5 30.5q76 0 131 -29.5t92 -83t54 -128.5t17 -165q0 -193 -75.5 -299t-218.5 -106q-147 0 -223.5 106.5t-76.5 298.5zM287 1044q0 -43 4 -89t16 -83.5t35 -63.5t61 -26q39 0 61.5 24.5t35 63.5t16.5 85t4 87t-3 88.5 t-15.5 86t-36 64.5t-62.5 26t-61.5 -25t-34.5 -63.5t-16 -85t-4 -89.5zM453 -70l647 1569h160l-648 -1569h-159zM1006 385q0 88 17 162t53 128t92.5 85t136.5 31q76 0 131 -30t92 -83t54 -128t17 -165q0 -193 -75.5 -299t-218.5 -106q-147 0 -223 106.5t-76 298.5zM1186 385 q0 -43 4 -89t16.5 -84t35 -63.5t61.5 -25.5t61 24.5t34.5 63.5t16.5 85t4 87t-3 88t-15 86t-36 64.5t-62 25.5q-39 0 -61.5 -24.5t-35 -63.5t-16.5 -85t-4 -89z" />
<glyph unicode="&#x26;" horiz-adv-x="1327" d="M94 397q0 141 73 246t193 164q-37 41 -64.5 79t-47 74.5t-29.5 76.5t-10 87q0 55 23.5 113.5t70.5 106t121 77t176 29.5q92 0 160.5 -26.5t114 -69.5t67 -99.5t21.5 -115.5q0 -104 -63.5 -194.5t-201.5 -182.5l226 -293q78 121 77 326h230q0 -57 -9.5 -122t-28.5 -131.5 t-52 -132t-80 -122.5l225 -287h-278l-103 131q-41 -43 -79 -72.5t-77.5 -47t-85 -24.5t-100.5 -7q-106 0 -192 28.5t-147.5 82.5t-95.5 132t-34 174zM348 406q0 -55 20.5 -98.5t53.5 -74t73 -46t78 -15.5q72 0 126.5 34t86.5 75l-288 376q-72 -43 -111 -104t-39 -147z M430 1133q0 -66 37 -122.5t94 -115.5q72 49 126 108.5t54 141.5q0 78 -47 111.5t-106 33.5q-76 0 -117 -47t-41 -110z" />
<glyph unicode="'" horiz-adv-x="532" d="M164 1028v508h205v-508h-205z" />
<glyph unicode="(" horiz-adv-x="606" d="M90 571q0 145 24.5 269.5t64.5 235t90 212t104 203.5h196q-51 -96 -98 -203.5t-82 -223.5t-56.5 -240t-21.5 -253q0 -139 24.5 -271t63.5 -250t84 -218t86 -176h-196q-55 106 -106.5 209.5t-90.5 213t-62.5 230.5t-23.5 262z" />
<glyph unicode=")" horiz-adv-x="606" d="M37 -344q41 76 86 176t84 218t63.5 250t24.5 271q0 129 -21.5 253t-56.5 240t-82 223.5t-98 203.5h196q53 -102 103.5 -203.5t90.5 -212t64.5 -235t24.5 -269.5q0 -141 -23.5 -262t-62.5 -230.5t-90 -213t-107 -209.5h-196z" />
<glyph unicode="*" horiz-adv-x="1062" d="M170 1098l63 182l238 -119l-35 269h197l-33 -269l234 119l61 -182l-256 -62l178 -211l-160 -108l-122 241l-123 -241l-160 108l176 211z" />
<glyph unicode="+" horiz-adv-x="1228" d="M96 428v180h428v428h181v-428h428v-180h-428v-428h-181v428h-428z" />
<glyph unicode="," horiz-adv-x="532" d="M37 -246l106 508h246l-156 -508h-196z" />
<glyph unicode="-" horiz-adv-x="645" d="M86 477v209h473v-209h-473z" />
<glyph unicode="." horiz-adv-x="532" d="M143 0v266h246v-266h-246z" />
<glyph unicode="/" horiz-adv-x="569" d="M16 -20l357 1470h180l-365 -1470h-172z" />
<glyph unicode="0" horiz-adv-x="1064" d="M82 717q0 154 22.5 288t75.5 233t139.5 155.5t212.5 56.5q125 0 211 -55.5t139.5 -153.5t77 -232t23.5 -292q0 -127 -17.5 -257t-66.5 -237.5t-137 -175t-230 -67.5q-127 0 -213 56t-138 154.5t-75.5 233.5t-23.5 293zM336 721q0 -127 9 -228.5t30.5 -173t59.5 -109.5 t97 -38t97.5 39t61 109.5t30.5 172t8 228.5q0 115 -8 213t-29.5 170t-59.5 112.5t-100 40.5q-61 0 -99 -40.5t-59.5 -113.5t-29.5 -171t-8 -211z" />
<glyph unicode="1" horiz-adv-x="1064" d="M168 1126l348 304h217v-1430h-254v1128l-190 -178z" />
<glyph unicode="2" horiz-adv-x="1064" d="M127 0v211l121 137q82 94 156.5 183.5t132 173t91.5 165.5t34 160q0 92 -50.5 151.5t-146.5 59.5q-158 0 -285 -108l-22 235q66 39 152.5 60.5t197.5 21.5t188.5 -27.5t129 -78t75 -120t23.5 -153.5q0 -100 -39 -204.5t-106.5 -213t-161 -220t-199.5 -224.5h520v-209 h-811z" />
<glyph unicode="3" horiz-adv-x="1064" d="M102 41l15 219q59 -31 134 -51.5t150 -20.5q129 0 198 67t69 171q0 61 -25 102t-63.5 67t-89 36t-99.5 10q-41 0 -64.5 -2t-39.5 -4v199h47q63 0 122.5 9t104.5 33.5t73 66.5t28 108q0 47 -18.5 82.5t-51.5 59.5t-75 36t-87 12q-68 0 -138.5 -20.5t-133.5 -49.5l-15 220 q72 25 156 42t188 17q78 0 155 -18.5t137.5 -61.5t98 -112.5t37.5 -170.5q0 -61 -15 -115t-49 -98.5t-86 -74t-126 -41.5v-4q61 -16 115.5 -39t95.5 -63t64.5 -99t23.5 -147q0 -102 -39 -181.5t-105.5 -133.5t-156.5 -82.5t-193 -28.5q-88 0 -173 16t-169 45z" />
<glyph unicode="4" horiz-adv-x="1064" d="M61 297v238l496 895h287v-941h160v-192h-160v-297h-238v297h-545zM250 489h356v678h-4z" />
<glyph unicode="5" horiz-adv-x="1064" d="M135 39l17 219q66 -35 127 -52.5t139 -17.5q68 0 118 21.5t83.5 59.5t51 88.5t17.5 107.5q0 70 -23.5 121t-62.5 83.5t-91 48t-110 15.5q-74 0 -129 -12t-110 -33v742h723v-201h-494v-328q63 18 162 19q82 0 153.5 -29t126 -85t86 -139.5t31.5 -189.5q0 -98 -27.5 -188 t-87 -159t-151.5 -109.5t-221 -40.5q-88 0 -171 17t-157 42z" />
<glyph unicode="6" horiz-adv-x="1064" d="M90 647q0 412 143.5 607.5t411.5 195.5q143 0 264 -49l-14 -213q-74 35 -127 48t-109 13q-84 0 -144 -34.5t-100 -98t-60.5 -151.5t-26.5 -193l4 -4q43 72 106.5 107.5t159.5 35.5q74 0 142.5 -29.5t120.5 -88t83 -145.5t31 -204q0 -217 -110.5 -340.5t-309.5 -123.5 q-240 0 -352.5 166.5t-112.5 500.5zM352 442q0 -127 44 -198.5t141 -71.5q96 0 140 69.5t44 198.5q0 117 -43 194t-139 77t-141.5 -76t-45.5 -193z" />
<glyph unicode="7" horiz-adv-x="1064" d="M127 1221v209h811v-230l-428 -1200h-283l465 1221h-565z" />
<glyph unicode="8" horiz-adv-x="1064" d="M82 373q0 162 104 266q29 29 66 50.5t98 49.5q-111 53 -169 133t-58 201q0 176 111.5 276.5t304.5 100.5q80 0 153.5 -23.5t129 -68.5t88 -109.5t32.5 -146.5q0 -61 -18.5 -114.5t-50 -96.5t-73.5 -77t-91 -58q61 -31 99 -56.5t73 -60.5q49 -49 75.5 -114.5t26.5 -139.5 q0 -100 -34 -176t-95 -127t-144 -76.5t-182 -25.5q-102 0 -185 30.5t-141.5 82.5t-89 124t-30.5 156zM336 381q0 -86 47 -150.5t152 -64.5q51 0 87.5 18.5t60.5 48t35 68.5t11 80q0 51 -11 87t-36 65.5t-64.5 57t-99.5 62.5q-47 -31 -82 -60.5t-57.5 -60t-32.5 -67.5 t-10 -84zM360 1067q0 -43 16.5 -79t44.5 -64.5t61.5 -51t68.5 -43.5q29 25 56.5 50.5t49 54.5t35 63.5t13.5 77.5q0 106 -47.5 147.5t-118.5 41.5q-78 0 -128.5 -52.5t-50.5 -144.5z" />
<glyph unicode="9" horiz-adv-x="1064" d="M90 985q0 217 110.5 341t309.5 124q240 0 352.5 -167t112.5 -501q0 -412 -143.5 -607t-411.5 -195q-145 0 -264 49l14 213q74 -35 127 -48.5t109 -13.5q84 0 144 35t100 98.5t60.5 151.5t26.5 192l-4 5q-43 -72 -106.5 -108t-159.5 -36q-74 0 -142.5 30t-120.5 88 t-83 145t-31 204zM344 989q0 -117 43 -193.5t139 -76.5t141.5 75.5t45.5 192.5q0 127 -44 198.5t-141 71.5q-96 0 -140 -69.5t-44 -198.5z" />
<glyph unicode=":" horiz-adv-x="532" d="M143 0v266h246v-266h-246zM143 788v267h246v-267h-246z" />
<glyph unicode=";" horiz-adv-x="532" d="M37 -246l106 508h246l-156 -508h-196zM143 788v267h246v-267h-246z" />
<glyph unicode="&#x3c;" horiz-adv-x="1228" d="M96 438v160l1037 457v-181l-807 -356l807 -354v-180z" />
<glyph unicode="=" horiz-adv-x="1228" d="M96 213v180h1037v-180h-1037zM96 643v180h1037v-180h-1037z" />
<glyph unicode="&#x3e;" horiz-adv-x="1228" d="M96 -16v180l807 354l-807 356v181l1037 -457v-160z" />
<glyph unicode="?" horiz-adv-x="948" d="M139 1395q72 29 151 42t159 13q197 0 303 -95t106 -247q0 -100 -44 -187t-97 -166t-97.5 -154t-44.5 -152v-31h-221v78q0 76 38 142.5t83 128.5t83 128t38 141q0 92 -56.5 148.5t-150.5 56.5q-66 0 -125 -19.5t-112 -50.5zM342 0v258h246v-258h-246z" />
<glyph unicode="@" horiz-adv-x="1638" d="M86 713q0 160 56.5 295t158.5 233t242.5 153.5t308.5 55.5q141 0 269 -42t224.5 -121t153.5 -190.5t57 -252.5q0 -143 -55 -249t-134 -176.5t-165 -105t-145 -34.5q-63 0 -94 35.5t-31 78.5h-4q-47 -47 -115 -80.5t-149 -33.5q-66 0 -116 26.5t-84 71.5t-51.5 104.5 t-17.5 122.5q0 113 36 207t97.5 162.5t141.5 107.5t170 39q88 0 146 -39t93 -100l33 106h152l-142 -522q-6 -16 -11 -37.5t-5 -42.5q0 -25 15.5 -38t37.5 -13q39 0 82 29t80 80t60.5 120.5t23.5 151.5q0 117 -43 209t-119 154.5t-176 95.5t-217 33q-131 0 -239.5 -46.5 t-187.5 -126t-122 -189t-43 -236.5q0 -145 46 -255t128 -183.5t193.5 -110.5t244.5 -37q129 0 252 46t203 134h152q-47 -74 -114 -133t-146.5 -102t-169 -65.5t-183.5 -22.5q-174 0 -317.5 52t-245.5 148t-158.5 231.5t-56.5 301.5zM575 633q0 -90 48.5 -136t113.5 -46 q57 0 107.5 29.5t87.5 76.5t57.5 105.5t20.5 115.5q0 86 -55.5 128t-129.5 42q-51 0 -96 -25.5t-79 -69.5t-54.5 -101.5t-20.5 -118.5z" />
<glyph unicode="A" horiz-adv-x="1251" d="M12 0l480 1430h286l461 -1430h-270l-101 344h-491l-103 -344h-262zM432 545h381l-180 667h-4z" />
<glyph unicode="B" horiz-adv-x="1138" d="M152 0v1430h421q90 0 168 -16.5t135.5 -56.5t90 -107.5t32.5 -172.5q0 -250 -237 -329v-5q55 -12 104 -37.5t86 -67.5t58.5 -100.5t21.5 -138.5q0 -90 -30.5 -162.5t-88 -126t-140.5 -82t-187 -28.5h-434zM406 201h151q92 0 152.5 55t60.5 164q0 59 -17.5 101t-48 67.5 t-70.5 38t-85 12.5h-143v-438zM406 831h137q94 0 148 62.5t54 150.5q0 51 -18 88t-47 59.5t-68 34t-77 11.5h-129v-406z" />
<glyph unicode="C" horiz-adv-x="1138" d="M94 715q0 158 42 292t124 232t204 154.5t281 56.5q84 0 161 -15.5t155 -43.5l-14 -236q-84 45 -146.5 61.5t-124.5 16.5q-82 0 -155.5 -28.5t-129 -92t-87 -162t-31.5 -237.5q0 -248 107.5 -382t295.5 -134q96 0 158.5 19.5t112.5 53.5l14 -239q-53 -25 -135 -38 t-174 -13q-168 0 -292 58t-205 158.5t-121 233.5t-40 285z" />
<glyph unicode="D" horiz-adv-x="1290" d="M139 0v1430h371q160 0 288 -42t216 -130.5t135 -223.5t47 -319q0 -166 -45 -298t-133 -224.5t-217 -142.5t-297 -50h-365zM401 201h88q119 0 200 40t132 109.5t74 163t23 199.5q0 135 -31 233t-87.5 160.5t-136 92.5t-178.5 30h-84v-1028z" />
<glyph unicode="E" d="M152 0v1430h751v-209h-489v-381h463v-209h-463v-422h510v-209h-772z" />
<glyph unicode="F" horiz-adv-x="948" d="M152 0v1430h722v-209h-460v-390h440v-208h-440v-623h-262z" />
<glyph unicode="G" horiz-adv-x="1327" d="M94 715q0 158 45 292t133 232t220.5 154.5t306.5 56.5q84 0 180 -15.5t166 -45.5l-15 -236q-80 47 -166.5 67.5t-162.5 20.5q-109 0 -189 -42t-133 -113.5t-79.5 -168t-26.5 -204.5q0 -258 112.5 -391.5t300.5 -133.5q47 0 84 8.5t68 18.5v385h-217v201h463v-748 q-76 -39 -175.5 -56t-209.5 -17q-178 0 -310.5 57t-220.5 156.5t-131 233.5t-43 288z" />
<glyph unicode="H" horiz-adv-x="1251" d="M152 0v1430h262v-582h424v582h262v-1430h-262v631h-424v-631h-262z" />
<glyph unicode="I" horiz-adv-x="569" d="M154 0v1430h262v-1430h-262z" />
<glyph unicode="J" horiz-adv-x="720" d="M41 14v226q27 -10 54.5 -18.5t70.5 -8.5q74 0 116 49t42 146v1022h262v-1018q0 -207 -97.5 -319.5t-255.5 -112.5q-59 0 -105 9t-87 25z" />
<glyph unicode="K" horiz-adv-x="1175" d="M152 0v1430h262v-607h6l407 607h301l-485 -674l524 -756h-317l-430 672h-6v-672h-262z" />
<glyph unicode="L" horiz-adv-x="909" d="M139 0v1430h262v-1221h471v-209h-733z" />
<glyph unicode="M" horiz-adv-x="1669" d="M150 0v1430h391l295 -1068h4l301 1068h379v-1430h-238v1192h-4l-358 -1192h-187l-342 1192h-4v-1192h-237z" />
<glyph unicode="N" horiz-adv-x="1327" d="M150 0v1430h311l475 -1123h4v1123h238v-1430h-314l-473 1114h-4v-1114h-237z" />
<glyph unicode="O" horiz-adv-x="1327" d="M94 715q0 201 50.5 341t130 227t182 127t207.5 40q119 0 223 -46t181 -138t121 -230.5t44 -322.5q0 -195 -48 -333t-128 -227.5t-182.5 -131t-210.5 -41.5q-111 0 -213.5 41.5t-182.5 132t-127 228.5t-47 333zM365 717q0 -98 13 -194.5t47 -172.5t92 -123t147 -47 q147 0 223 137.5t76 399.5q0 98 -13.5 193.5t-47.5 170t-92 121.5t-146 47q-90 0 -147.5 -47t-91.5 -122.5t-47 -171t-13 -191.5z" />
<glyph unicode="P" horiz-adv-x="1062" d="M139 0v1430h408q90 0 172 -23t143.5 -74t98 -135t36.5 -207q0 -111 -32.5 -191.5t-92 -135t-141.5 -80t-178 -25.5h-152v-559h-262zM401 760h101q47 0 89 10t74.5 37t51 71.5t18.5 116.5q0 68 -17.5 113t-48 71.5t-72.5 38t-91 11.5h-105v-469z" />
<glyph unicode="Q" horiz-adv-x="1327" d="M94 715q0 201 50.5 341t130 227t182 127t207.5 40q119 0 223 -46t181 -138t121 -230.5t44 -322.5q0 -133 -22.5 -239.5t-63.5 -189.5t-97.5 -141.5t-121.5 -95.5l282 -319h-301l-200 252h-45q-111 0 -213.5 41.5t-182.5 132t-127 228.5t-47 333zM365 717q0 -98 13 -194.5 t47 -172.5t92 -123t147 -47q147 0 223 137.5t76 399.5q0 98 -13.5 193.5t-47.5 170t-92 121.5t-146 47q-90 0 -147.5 -47t-91.5 -122.5t-47 -171t-13 -191.5z" />
<glyph unicode="R" horiz-adv-x="1138" d="M139 0v1430h449q82 0 158.5 -18.5t135 -62.5t94.5 -117t36 -181q0 -121 -70 -216.5t-207 -117.5v-6q53 -8 91 -44t67 -122l186 -545h-278l-142 465q-23 72 -68.5 110.5t-125.5 38.5h-64v-614h-262zM401 807h105q121 0 178 59.5t57 157.5q0 63 -16 103t-47 62.5t-74 31 t-96 8.5h-107v-422z" />
<glyph unicode="S" d="M100 1059q0 98 38 172t100.5 122t143.5 72.5t169 24.5q86 0 155.5 -14.5t143.5 -36.5l-12 -219q-72 29 -135.5 45t-131.5 16q-96 0 -148 -45t-52 -123q0 -74 39 -112.5t98 -71.5l178 -101q59 -35 103.5 -69.5t74 -78.5t45 -99t15.5 -129q0 -111 -37 -192t-101.5 -135 t-151.5 -79.5t-190 -25.5q-117 0 -194.5 16t-130.5 47l14 233q59 -37 136 -62.5t167 -25.5q104 0 160.5 58.5t56.5 146.5q0 45 -13 76t-39 55.5t-61.5 46t-80.5 45.5l-125 70q-113 63 -173.5 152.5t-60.5 220.5z" />
<glyph unicode="T" horiz-adv-x="985" d="M43 1221v209h899v-209h-317v-1221h-263v1221h-319z" />
<glyph unicode="U" horiz-adv-x="1251" d="M139 512v918h262v-932q0 -90 14.5 -149.5t43 -95.5t71.5 -50.5t99 -14.5q55 0 96 15.5t68.5 52.5t42 96.5t14.5 147.5v930h262v-922q0 -139 -36 -238.5t-100.5 -164t-153.5 -95t-195 -30.5q-98 0 -187.5 27.5t-156 90t-105.5 165t-39 249.5z" />
<glyph unicode="V" horiz-adv-x="1175" d="M16 1430h283l289 -1102h4l297 1102h270l-436 -1430h-277z" />
<glyph unicode="W" horiz-adv-x="1705" d="M29 1430h245l201 -1102h4l215 1102h320l213 -1102h4l209 1102h237l-295 -1430h-313l-213 1171h-4l-225 -1171h-310z" />
<glyph unicode="X" horiz-adv-x="1175" d="M12 0l426 758l-375 672h302l225 -461l264 461h281l-385 -672l413 -758h-299l-266 532l-297 -532h-289z" />
<glyph unicode="Y" horiz-adv-x="1138" d="M16 1430h283l279 -572l262 572h282l-422 -863v-567h-262v573z" />
<glyph unicode="Z" d="M74 0v229l563 992h-547v209h852v-218l-569 -1003h577v-209h-876z" />
<glyph unicode="[" horiz-adv-x="606" d="M152 -344v1835h372v-160h-176v-1515h176v-160h-372z" />
<glyph unicode="\" horiz-adv-x="569" d="M16 1450h181l356 -1470h-172z" />
<glyph unicode="]" horiz-adv-x="606" d="M82 -184h176v1515h-176v160h373v-1835h-373v160z" />
<glyph unicode="^" horiz-adv-x="1228" d="M123 602l405 828h172l406 -828h-180l-312 641l-311 -641h-180z" />
<glyph unicode="_" d="M0 -154h1024v-102h-1024v102z" />
<glyph unicode="`" horiz-adv-x="454" d="M-20 1466h237l131 -295h-160z" />
<glyph unicode="a" d="M59 291q0 104 39 174t111 110.5t175 58t230 17.5h52v41q0 102 -55.5 150.5t-139.5 48.5q-78 0 -156.5 -28.5t-134.5 -74.5l-14 205q86 39 161.5 58.5t172.5 19.5q117 0 194.5 -26.5t123.5 -80t65.5 -133t19.5 -184.5v-467q0 -59 5 -99t10 -81h-230q-8 29 -11 59.5 t-3 83.5h-4q-55 -78 -125 -118.5t-170 -40.5q-63 0 -120.5 21.5t-100.5 61t-69 96t-26 128.5zM297 319q0 -78 46 -120.5t116 -42.5q100 0 153.5 69.5t53.5 231.5v59h-25q-160 0 -252 -42t-92 -155z" />
<glyph unicode="b" horiz-adv-x="1099" d="M111 0l8 109v1427h254v-633h4q37 82 107.5 125t160.5 43q96 0 166 -42t115 -114.5t66.5 -172t21.5 -214.5q0 -117 -22.5 -217t-68.5 -172.5t-116 -113.5t-166 -41q-88 0 -161.5 41t-117.5 139h-6l-6 -164h-239zM373 530q0 -70 9 -134t32.5 -114.5t62.5 -81t98 -30.5 q68 0 105 35t54.5 88t21.5 118t4 124q0 63 -7.5 125.5t-27.5 112.5t-57 81t-97 31q-59 0 -97 -32t-60.5 -82t-31.5 -113.5t-9 -127.5z" />
<glyph unicode="c" horiz-adv-x="872" d="M86 528q0 106 28.5 204.5t90 174.5t159 120t234.5 44q49 0 109.5 -12t109.5 -31l-14 -201q-55 29 -98 40.5t-82 11.5q-145 0 -210 -96.5t-65 -258.5q0 -68 16.5 -130t51.5 -110t88 -78t129 -30q92 0 184 51l14 -200q-57 -20 -115.5 -31.5t-129.5 -11.5q-133 0 -227.5 43 t-155 116.5t-89 173t-28.5 211.5z" />
<glyph unicode="d" horiz-adv-x="1099" d="M86 528q0 115 21.5 214.5t66.5 172t114.5 114.5t166.5 42q90 0 160.5 -43t107.5 -125h4v633h254v-1427l8 -109h-239l-7 164h-6q-43 -98 -116.5 -139t-161.5 -41q-96 0 -166 41t-116 113.5t-68.5 173t-22.5 216.5zM340 535q0 -59 4 -124t21.5 -118t54.5 -88t104 -35 q59 0 98.5 30.5t63 81t32.5 114.5t9 134q0 63 -9 127t-31.5 114t-60.5 82t-98 32q-59 0 -96 -31t-57.5 -81t-27.5 -112.5t-7 -125.5z" />
<glyph unicode="e" d="M86 512q0 115 28.5 216t85 178t137.5 121t185 44q211 0 315.5 -144.5t104.5 -418.5v-49h-610q0 -84 20.5 -140.5t56 -89t85 -46t106.5 -13.5q80 0 149.5 18.5t127.5 63.5l12 -201q-59 -29 -143 -48t-171 -19q-133 0 -225 44t-151.5 116.5t-86 168t-26.5 199.5zM332 618 h364q0 57 -9 108.5t-28.5 89.5t-53.5 60.5t-83 22.5t-86 -23.5t-59.5 -63.5t-33.5 -90t-11 -104z" />
<glyph unicode="f" horiz-adv-x="681" d="M20 868v187h177v217q0 59 16 112.5t52 92.5t93.5 61.5t139.5 22.5t184 -25l-10 -184q-61 16 -94 16q-57 0 -92 -32.5t-35 -100.5v-180h192v-187h-192v-868h-254v868h-177z" />
<glyph unicode="g" horiz-adv-x="1099" d="M86 526q0 119 23.5 219.5t70.5 173t119 112.5t170 40t163.5 -47t112.5 -133h9l8 164h229l-8 -131v-824q0 -133 -25.5 -235.5t-83 -174t-151.5 -108.5t-229 -37q-86 0 -181.5 16.5t-179.5 49.5l14 225q74 -41 154 -65.5t158 -24.5q84 0 138 24.5t85 69.5t43 105.5 t12 132.5v100h-4q-88 -178 -274 -178q-68 0 -135.5 26.5t-119.5 88t-85 163t-33 248.5zM348 537q0 -156 43 -253.5t125 -97.5q117 0 169 86.5t52 266.5q0 158 -53 249t-147 91q-55 0 -92 -27t-58.5 -73t-30 -108.5t-8.5 -133.5z" />
<glyph unicode="h" horiz-adv-x="1062" d="M115 0v1536h254v-616l4 -2q49 78 110.5 115.5t151.5 37.5q49 0 104.5 -13.5t101.5 -55t76.5 -117.5t30.5 -201v-684h-254v639q0 123 -35.5 173t-109.5 50q-82 0 -131 -59.5t-49 -188.5v-614h-254z" />
<glyph unicode="i" horiz-adv-x="532" d="M135 1253v250h262v-250h-262zM139 0v1055h254v-1055h-254z" />
<glyph unicode="j" horiz-adv-x="532" d="M-37 -442l8 192q18 -4 35 -8t43 -4q25 0 42.5 7t27.5 27.5t15 55.5t5 88v1139h254v-1110q0 -109 -14 -184.5t-47 -124t-84 -70t-127 -21.5q-39 0 -82 4.5t-76 8.5zM135 1253v250h262v-250h-262z" />
<glyph unicode="k" d="M115 0v1536h254v-903h6l309 422h270l-370 -477l405 -578h-295l-319 514h-6v-514h-254z" />
<glyph unicode="l" horiz-adv-x="532" d="M139 0v1536h254v-1536h-254z" />
<glyph unicode="m" horiz-adv-x="1593" d="M100 1055h254l8 -166h5q43 88 110.5 135t159.5 47q182 0 262 -168q51 74 115.5 121t165.5 47q150 0 227.5 -96t77.5 -316v-659h-254v662q0 100 -32 150t-103 50q-41 0 -74 -18.5t-54.5 -49t-32.5 -70.5t-11 -83v-641h-254v664q0 104 -33 151t-102 47q-41 0 -74 -18.5 t-54.5 -49t-33 -70.5t-11.5 -85v-639h-253v936z" />
<glyph unicode="n" horiz-adv-x="1062" d="M106 1055h238l8 -162h4q43 78 111 128t166 50q51 0 107.5 -13.5t102.5 -55t75.5 -117.5t29.5 -201v-684h-254v639q0 123 -35.5 173t-109.5 50q-82 0 -131 -59.5t-49 -188.5v-614h-254v946z" />
<glyph unicode="o" horiz-adv-x="1099" d="M86 528q0 154 39 257.5t103.5 167t148.5 91t174 27.5q88 0 171 -26.5t147.5 -90t104.5 -168t40 -258.5q0 -260 -116 -402t-347 -142q-102 0 -187 30.5t-146.5 96t-96.5 169t-35 248.5zM348 528q0 -68 9.5 -133t32 -116.5t61 -83t100.5 -31.5q61 0 100 31.5t61.5 82 t31 114.5t8.5 132q0 82 -10.5 149.5t-35 116t-62.5 75t-93 26.5t-93 -26.5t-62.5 -74t-36 -114t-11.5 -148.5z" />
<glyph unicode="p" horiz-adv-x="1099" d="M111 1055h239l6 -164h6q43 98 117 139t162 41q96 0 166 -41t116 -113.5t68.5 -173t22.5 -217.5q0 -115 -21.5 -214t-66.5 -171.5t-115 -114.5t-166 -42q-90 0 -160.5 43t-107.5 125h-4v-594h-254v1388zM373 524q0 -63 9 -126.5t31.5 -114t60.5 -82t97 -31.5t96.5 30.5 t57.5 81t27.5 113t7.5 125.5q0 59 -4 124t-21.5 118t-54.5 88t-105 35q-59 0 -98 -31t-62.5 -81t-32.5 -114.5t-9 -134.5z" />
<glyph unicode="q" horiz-adv-x="1099" d="M86 526q0 117 22.5 217.5t68.5 173t115.5 113.5t166.5 41q88 0 161.5 -41t116.5 -139h6l7 164h239l-8 -109v-1388h-254v594h-4q-37 -82 -107.5 -125t-160.5 -43q-96 0 -166 42t-115 114.5t-66.5 172t-21.5 213.5zM340 520q0 -63 7 -125.5t27.5 -113t57.5 -81t96 -30.5 t97.5 31.5t61 82t31.5 114t9 126.5q0 70 -9 134.5t-32.5 114.5t-62.5 81t-99 31q-68 0 -104.5 -35t-54 -88t-21.5 -117.5t-4 -124.5z" />
<glyph unicode="r" horiz-adv-x="720" d="M115 1055h229l8 -193h4q14 41 40 79t58.5 66.5t73.5 46t90 17.5q27 0 50 -6v-238q-31 10 -70 11q-98 0 -159.5 -64.5t-61.5 -193.5v-580h-254v946z" />
<glyph unicode="s" horiz-adv-x="833" d="M74 35l12 211q72 -31 134.5 -50.5t129.5 -19.5q78 0 121 23.5t43 79.5q0 47 -36 78.5t-93 66.5l-92 53q-41 25 -80 50.5t-69.5 59.5t-50 78t-19.5 105q0 53 24.5 107.5t71.5 97.5t114.5 69.5t153.5 26.5q63 0 137 -11t127 -32l-14 -197q-57 23 -109.5 35.5t-113.5 12.5 q-70 0 -108 -25t-38 -76q0 -20 6.5 -36.5t21.5 -33t41 -34t63 -41.5l118 -76q39 -27 74 -52.5t61.5 -55t41 -67.5t14.5 -87q0 -139 -104.5 -225t-288.5 -86q-90 0 -159 14t-134 37z" />
<glyph unicode="t" horiz-adv-x="720" d="M41 868v187h168v217l254 78v-295h211v-187h-211v-553q0 -74 27.5 -106.5t84.5 -32.5t99 23v-181q-72 -34 -165 -34h-5q-63 0 -116.5 14t-93.5 49t-62.5 94.5t-22.5 149.5v577h-168z" />
<glyph unicode="u" horiz-adv-x="1062" d="M115 371v684h254v-639q0 -123 37.5 -173t115.5 -50q76 0 124 59t48 188v615h254v-946l8 -109h-237l-8 162h-4q-47 -84 -113 -131t-164 -47q-51 0 -107.5 13t-102.5 55t-75.5 118t-29.5 201z" />
<glyph unicode="v" horiz-adv-x="985" d="M20 1055h263l215 -813h4l217 813h246l-324 -1055h-299z" />
<glyph unicode="w" horiz-adv-x="1517" d="M10 1055h262l170 -822h4l179 822h288l174 -822h5l170 822h245l-280 -1055h-277l-188 821h-4l-185 -821h-278z" />
<glyph unicode="x" horiz-adv-x="948" d="M4 0l318 569l-291 486h286l166 -338l174 338h263l-293 -486l317 -569h-280l-195 391l-195 -391h-270z" />
<glyph unicode="y" horiz-adv-x="948" d="M10 1055h262l213 -797h4l203 797h246l-385 -1256q-37 -119 -108.5 -186.5t-190.5 -67.5q-53 0 -91 8.5t-73 18.5l14 195q23 -10 46.5 -15.5t52.5 -5.5q57 0 90 42t53 134l14 66z" />
<glyph unicode="z" horiz-adv-x="833" d="M57 0v219l451 643h-436v193h690v-217l-443 -645h457v-193h-719z" />
<glyph unicode="{" horiz-adv-x="681" d="M70 502v143q41 0 73.5 17.5t56 45t37 64.5t13.5 76v389q0 49 15.5 95t45 81t72.5 56.5t98 21.5h160v-143h-90q-55 0 -80 -40t-25 -110v-383q0 -88 -47 -153.5t-133 -86.5v-4q76 -10 128 -73.5t52 -165.5v-387q0 -145 103 -146h92v-143h-160q-49 0 -91 18.5t-73.5 52 t-49 80t-17.5 99.5v389q0 39 -13.5 77t-38 66.5t-57 46t-71.5 17.5z" />
<glyph unicode="|" horiz-adv-x="454" d="M137 -512v2048h180v-2048h-180z" />
<glyph unicode="}" horiz-adv-x="681" d="M41 -201h90q55 0 80 40t25 110v383q0 88 47 153.5t133 85.5v4q-76 10 -128 74t-52 166v387q0 145 -103 146h-92v143h160q49 0 91 -18.5t73.5 -52.5t49 -80t17.5 -99v-389q0 -41 13.5 -78t38 -65.5t57 -46t71.5 -17.5v-143q-41 0 -73.5 -17.5t-56 -45t-37 -64.5t-13.5 -76 v-389q0 -49 -15.5 -95t-45 -81t-72.5 -56.5t-98 -21.5h-160v143z" />
<glyph unicode="~" horiz-adv-x="1228" d="M141 498q41 72 102.5 123t153.5 51q51 0 107.5 -21.5t113 -46t111.5 -46t105 -21.5q55 0 96 39.5t84 105.5l73 -143q-53 -84 -113.5 -129t-137.5 -45q-61 0 -117.5 21.5t-110 46t-106.5 46t-105 21.5q-55 0 -96 -38t-86 -108z" />
<glyph horiz-adv-x="1064" d="M-43 502l43 151h51q-2 16 -2 31v31v33q0 16 2 32h-94l43 152h72q25 115 77 210t130.5 163.5t184 106.5t236.5 38q84 0 161 -15.5t155 -43.5l-15 -236q-84 45 -146 61.5t-124 16.5q-127 0 -229.5 -71.5t-147.5 -229.5h584l-43 -152h-565q-2 -16 -2 -35v-32v-31 q0 -14 2 -29h530l-43 -151h-465q41 -147 139.5 -226t239.5 -79q96 0 158.5 19.5t111.5 53.5l15 -239q-53 -25 -135 -38t-174 -13q-137 0 -245 39.5t-186.5 109.5t-129 165t-74.5 208h-115z" />
<glyph unicode="&#xa1;" horiz-adv-x="757" d="M248 -375l33 1008h196l33 -1008h-262zM256 797v258h246v-258h-246z" />
<glyph unicode="&#xa2;" horiz-adv-x="1064" d="M160 528q0 106 28.5 204.5t90 174.5t159 120t234.5 44h2l35 234h102l-37 -242q31 -4 59.5 -14.5t57.5 -20.5l-14 -201q-39 18 -69 29.5t-60 17.5l-105 -690q14 -4 30.5 -6t33.5 -2q92 0 184 51l14 -200q-66 -23 -137.5 -33t-155.5 -10l-37 -246h-102l39 262 q-92 23 -158.5 72t-109.5 118.5t-63.5 155.5t-20.5 182zM422 524q0 -92 29.5 -172t95.5 -127l98 654q-119 -16 -171 -111.5t-52 -243.5z" />
<glyph unicode="&#xa3;" horiz-adv-x="1064" d="M111 0v201h145v479h-145v160h145v114q0 106 21.5 197.5t72.5 158t136 103.5t212 37q59 0 125 -10t131 -27l-16 -203q-51 23 -101.5 35t-115.5 12q-53 0 -95 -14t-72 -48t-45 -90t-15 -140v-125h317v-160h-317v-479h460v-201h-843z" />
<glyph unicode="&#xa4;" horiz-adv-x="1064" d="M41 326l106 106q-45 59 -69.5 131t-24.5 152t24.5 151.5t69.5 130.5l-106 107l102 102l107 -106q59 43 131 68.5t151 25.5q80 0 152 -24.5t131 -69.5l107 106l102 -102l-106 -107q45 -59 69.5 -130.5t24.5 -151.5t-24.5 -151.5t-69.5 -131.5l106 -106l-102 -103l-107 107 q-59 -45 -131 -69.5t-152 -24.5t-151.5 25.5t-130.5 68.5l-107 -107zM213 715q0 -68 24.5 -127.5t67.5 -104.5t101.5 -70.5t125.5 -25.5q68 0 126.5 25.5t101.5 70.5t67.5 104.5t24.5 127.5t-24.5 127t-67.5 104t-101.5 70.5t-126.5 25.5t-126 -25.5t-101 -70.5 t-67.5 -104.5t-24.5 -126.5z" />
<glyph unicode="&#xa5;" horiz-adv-x="1064" d="M18 1430h263l251 -572l252 572h263l-318 -672h238v-152h-312v-155h312v-152h-312v-299h-245v299h-312v152h312v155h-312v152h242z" />
<glyph unicode="&#xa6;" horiz-adv-x="454" d="M137 -358v716h180v-716h-180zM137 666v716h180v-716h-180z" />
<glyph unicode="&#xa7;" horiz-adv-x="1062" d="M141 623q0 78 51.5 148.5t131.5 119.5q-66 53 -102 120.5t-36 149.5q0 63 27 116.5t75 92.5t114.5 59.5t144.5 20.5q82 0 159.5 -14.5t149.5 -44.5l-22 -197q-76 35 -137.5 52.5t-121.5 17.5q-66 0 -108.5 -33t-42.5 -88q0 -47 38 -87t134 -98l131 -75 q102 -59 148.5 -122t46.5 -149q0 -63 -34 -140t-126 -163q55 -39 92 -100.5t37 -140.5q0 -72 -27.5 -132.5t-80 -105.5t-129 -69.5t-173.5 -24.5q-88 0 -171 19.5t-163 54.5l23 200q84 -41 152.5 -64.5t140.5 -23.5t123 36t51 103q0 57 -37 96.5t-104 80.5l-138 84 q-96 59 -156.5 127.5t-60.5 173.5zM362 655q0 -66 46.5 -116t130.5 -95l90 -49q37 43 54 81t17 81q0 35 -7 61.5t-26.5 51t-53 49t-85.5 53.5l-82 47q-84 -72 -84 -164z" />
<glyph unicode="&#xa8;" horiz-adv-x="454" d="M-43 1235v225h197v-225h-197zM301 1235v225h197v-225h-197z" />
<glyph unicode="&#xa9;" horiz-adv-x="1638" d="M84 715q0 152 57.5 286t157.5 233t234.5 157.5t285.5 58.5q152 0 286 -58.5t233.5 -157.5t157.5 -233t58 -286t-58 -286t-157.5 -234.5t-233.5 -157.5t-286 -57t-286 57t-234 157.5t-157.5 234.5t-57.5 286zM256 715q0 -121 44 -227.5t120 -185.5t178 -125t221 -46 t221.5 46t178 125t119.5 185.5t44 227.5t-44 227.5t-119.5 185t-178 124.5t-221.5 46t-221 -46t-178 -124.5t-120 -185t-44 -227.5zM420 715q0 88 25.5 169t76.5 142t129 97t183 36q70 0 132 -20.5t110 -58.5t79 -95t37 -131h-152q-16 78 -73.5 120t-132.5 42 q-68 0 -116 -25.5t-79 -66.5t-45 -94.5t-14 -110.5q0 -143 70.5 -226t187.5 -83q78 0 135 44t67 130h152q-6 -70 -35 -128.5t-75 -100.5t-108.5 -65.5t-135.5 -23.5q-98 0 -176 34t-131.5 93.5t-82 141t-28.5 180.5z" />
<glyph unicode="&#xaa;" horiz-adv-x="720" d="M68 983q0 61 27.5 103t76.5 69t117.5 38t148.5 11h33v23q0 49 -31.5 76.5t-91.5 27.5q-55 0 -105 -14t-81 -37l-10 123q45 23 101 35t128 12q135 0 198.5 -55.5t63.5 -196.5v-287q0 -53 10 -100h-159q-4 18 -6.5 38.5t-2.5 43.5h-6q-37 -47 -84 -68.5t-106 -21.5 q-98 0 -159.5 48t-61.5 132zM240 1001q0 -88 102 -88q59 0 94 38t35 124v35h-18q-37 0 -75 -6t-68.5 -19.5t-50 -34t-19.5 -49.5z" />
<glyph unicode="&#xab;" horiz-adv-x="1062" d="M127 530l217 424h205l-201 -424l201 -424h-205zM489 530l218 424h204l-200 -424l200 -424h-204z" />
<glyph unicode="&#xac;" horiz-adv-x="1228" d="M96 643v180h1037v-610h-181v430h-856z" />
<glyph unicode="&#xad;" horiz-adv-x="1228" d="M96 428v180h1037v-180h-1037z" />
<glyph unicode="&#xae;" horiz-adv-x="1638" d="M84 715q0 152 57.5 286t157.5 233t234.5 157.5t285.5 58.5q152 0 286 -58.5t233.5 -157.5t157.5 -233t58 -286t-58 -286t-157.5 -234.5t-233.5 -157.5t-286 -57t-286 57t-234 157.5t-157.5 234.5t-57.5 286zM256 715q0 -121 44 -227.5t120 -185.5t178 -125t221 -46 t221.5 46t178 125t119.5 185.5t44 227.5t-44 227.5t-119.5 185t-178 124.5t-221.5 46t-221 -46t-178 -124.5t-120 -185t-44 -227.5zM530 301v838h308q94 0 156.5 -15.5t99 -47.5t51 -78t14.5 -107q0 -100 -51 -166t-164 -84l223 -340h-180l-211 334h-86v-334h-160zM690 770 h164q76 0 110.5 27.5t34.5 95.5t-37.5 89.5t-111.5 21.5h-160v-234z" />
<glyph unicode="&#xaf;" horiz-adv-x="454" d="M-57 1247v152h569v-152h-569z" />
<glyph unicode="&#xb0;" horiz-adv-x="819" d="M117 1157q0 61 22.5 114.5t62.5 93.5t93 62.5t115 22.5q61 0 114.5 -22.5t93 -62.5t62 -93.5t22.5 -114.5t-22.5 -114.5t-62 -93.5t-93 -62.5t-114.5 -22.5t-114.5 22.5t-93.5 62.5t-62.5 93.5t-22.5 114.5zM260 1157q0 -61 44 -105t106 -44q61 0 105 44t44 105 t-44 105.5t-105 44.5t-105.5 -44t-44.5 -106z" />
<glyph unicode="&#xb1;" horiz-adv-x="1228" d="M96 0v180h1037v-180h-1037zM96 555v180h428v301h181v-301h428v-180h-428v-301h-181v301h-428z" />
<glyph unicode="&#xb2;" horiz-adv-x="692" d="M76 578v137q113 121 198.5 213t122.5 166q23 49 23 84q0 59 -32 94t-91 35q-55 0 -99 -17.5t-79 -40.5l-15 152q92 49 242 49q53 0 102.5 -11.5t86 -39t59 -71.5t22.5 -107q0 -76 -43 -162q-35 -72 -100 -152t-168 -178h307v-151h-536z" />
<glyph unicode="&#xb3;" horiz-adv-x="692" d="M61 606l11 142q59 -25 100 -34t88 -9q74 0 120 35.5t46 95.5q0 37 -15.5 61.5t-39 38.5t-53 19.5t-60.5 5.5q-45 0 -72 -9v140q8 -6 29 -9.5t43 -3.5q31 0 60.5 8.5t53 23.5t38 39t14.5 56q0 55 -40 82t-103 27q-41 0 -83 -10.5t-96 -32.5l-12 141q66 18 115 27.5 t121 9.5q51 0 101 -11.5t89 -37t63.5 -67.5t24.5 -101q0 -90 -51 -138t-129 -61v-4q109 -23 154 -73t45 -132q0 -123 -92.5 -189.5t-237.5 -66.5q-113 0 -232 37z" />
<glyph unicode="&#xb4;" horiz-adv-x="454" d="M106 1171l132 295h237l-209 -295h-160z" />
<glyph unicode="&#xb5;" horiz-adv-x="1062" d="M115 -442v1497h254v-639q0 -123 37.5 -173t115.5 -50q76 0 124 59t48 188v615h254v-946l8 -109h-237l-8 162h-4q-47 -84 -114 -131t-147 -47q-47 0 -77 24v-450h-254z" />
<glyph unicode="&#xb6;" horiz-adv-x="1228" d="M88 1047q0 102 35 174.5t94 118.5t138 68t169 22h525v-1674h-197v1522h-217v-1522h-197v926q-84 2 -149.5 30.5t-109.5 78t-67.5 115t-23.5 141.5z" />
<glyph unicode="&#xb7;" horiz-adv-x="530" d="M109 582q0 66 46 111.5t111 45.5q66 0 112 -45.5t46 -111.5t-46 -112t-112 -46t-111.5 46t-45.5 112z" />
<glyph unicode="&#xb8;" horiz-adv-x="454" d="M12 -414l33 82q41 -14 70.5 -21t70.5 -7q49 0 79 21.5t30 59.5q0 41 -27.5 59.5t-68.5 18.5q-43 0 -78 -14l-37 35l63 180h91l-41 -127q16 4 34.5 8t47.5 4q72 0 124 -37.5t52 -117.5q0 -43 -19.5 -77t-51.5 -57.5t-74 -37t-85 -13.5q-61 0 -119.5 12.5t-93.5 28.5z" />
<glyph unicode="&#xb9;" horiz-adv-x="692" d="M98 1253l230 183h164v-858h-181v669l-123 -108z" />
<glyph unicode="&#xba;" horiz-adv-x="720" d="M49 1124q0 166 85 246t228 80q141 0 225.5 -82t84.5 -244q0 -84 -23.5 -144t-65.5 -99t-98.5 -58.5t-122.5 -19.5t-123 18.5t-99 57.5t-66.5 99t-24.5 146zM229 1124q0 -88 30 -145t101 -57q72 0 102 56t30 146q0 88 -29 147.5t-101 59.5t-102.5 -55t-30.5 -152z" />
<glyph unicode="&#xbb;" horiz-adv-x="1062" d="M152 106l200 424l-200 424h204l217 -424l-217 -424h-204zM514 106l201 424l-201 424h205l217 -424l-217 -424h-205z" />
<glyph unicode="&#xbc;" horiz-adv-x="1593" d="M61 1253l230 183h164v-858h-181v669l-122 -108zM360 -70l641 1569h160l-641 -1569h-160zM889 170v152l317 536h221v-553h105v-135h-105v-170h-172v170h-366zM1024 305h231v393h-4z" />
<glyph unicode="&#xbd;" horiz-adv-x="1593" d="M61 1253l230 183h164v-858h-181v669l-122 -108zM350 -70l641 1569h160l-641 -1569h-160zM991 0v137q113 121 199 213t123 166q23 49 22 84q0 59 -31.5 94t-91.5 35q-55 0 -99 -17.5t-79 -39.5l-14 151q92 49 242 49q53 0 102 -11t86 -38.5t59.5 -72t22.5 -107.5 q0 -76 -43 -162q-35 -72 -100.5 -151.5t-167.5 -177.5h307v-152h-537z" />
<glyph unicode="&#xbe;" horiz-adv-x="1593" d="M61 606l11 142q59 -25 100 -34t88 -9q74 0 120 35.5t46 95.5q0 37 -15.5 61.5t-39 38.5t-53 19.5t-60.5 5.5q-45 0 -72 -9v140q8 -6 29 -9.5t43 -3.5q31 0 60.5 8.5t53 23.5t38 39t14.5 56q0 55 -40 82t-103 27q-41 0 -83 -10.5t-96 -32.5l-12 141q66 18 115 27.5 t121 9.5q51 0 101 -11.5t89 -37t63.5 -67.5t24.5 -101q0 -90 -51 -138t-129 -61v-4q109 -23 154 -73t45 -132q0 -123 -92.5 -189.5t-237.5 -66.5q-113 0 -232 37zM408 -70l641 1569h159l-641 -1569h-159zM889 170v152l317 536h221v-553h105v-135h-105v-170h-172v170h-366z M1024 305h231v393h-4z" />
<glyph unicode="&#xbf;" horiz-adv-x="948" d="M90 -53q0 100 44 187t97.5 166t97.5 153.5t44 152.5v31h221v-78q0 -78 -38 -143.5t-83 -128t-83 -128t-38 -141.5q0 -92 56.5 -148t150.5 -56q66 0 125 19.5t113 49.5l12 -223q-145 -55 -309 -55q-197 0 -303.5 95t-106.5 247zM360 797v258h246v-258h-246z" />
<glyph unicode="&#xc0;" horiz-adv-x="1251" d="M12 0l480 1430h286l461 -1430h-270l-101 344h-491l-103 -344h-262zM379 1792h237l132 -295h-160zM432 545h381l-180 667h-4z" />
<glyph unicode="&#xc1;" horiz-adv-x="1251" d="M12 0l480 1430h286l461 -1430h-270l-101 344h-491l-103 -344h-262zM432 545h381l-180 667h-4zM506 1497l131 295h237l-208 -295h-160z" />
<glyph unicode="&#xc2;" horiz-adv-x="1251" d="M12 0l480 1430h286l461 -1430h-270l-101 344h-491l-103 -344h-262zM332 1497l186 295h221l183 -295h-187l-110 178l-113 -178h-180zM432 545h381l-180 667h-4z" />
<glyph unicode="&#xc3;" horiz-adv-x="1251" d="M12 0l480 1430h286l461 -1430h-270l-101 344h-491l-103 -344h-262zM319 1520q0 45 13.5 89t39 76.5t61.5 53t83 20.5q35 0 65.5 -11t60.5 -23.5t56.5 -23.5t51.5 -11q31 0 44 25.5t13 53.5h127q-2 -45 -15.5 -88t-37 -76.5t-57 -54t-76.5 -20.5q-33 0 -63 11t-59.5 23.5 t-56 23.5t-53.5 11q-37 0 -56.5 -21.5t-21.5 -57.5h-119zM432 545h381l-180 667h-4z" />
<glyph unicode="&#xc4;" horiz-adv-x="1251" d="M12 0l480 1430h286l461 -1430h-270l-101 344h-491l-103 -344h-262zM356 1561v225h197v-225h-197zM432 545h381l-180 667h-4zM700 1561v225h197v-225h-197z" />
<glyph unicode="&#xc5;" horiz-adv-x="1251" d="M12 0l480 1430h286l461 -1430h-270l-101 344h-491l-103 -344h-262zM424 1706q0 45 17.5 85t47 69.5t69.5 47t85 17.5t85 -17.5t69.5 -47t47 -69.5t17.5 -85t-17.5 -85t-47 -69.5t-69.5 -47t-85 -17.5t-85 17.5t-69.5 47t-47 69.5t-17.5 85zM432 545h381l-180 667h-4z M526 1706q0 -47 35 -82t82 -35t82 35t35 82t-35 82t-82 35t-82 -35t-35 -82z" />
<glyph unicode="&#xc6;" horiz-adv-x="1705" d="M16 0l682 1430h879v-209h-461v-381h434v-209h-434v-422h479v-209h-725v344h-417l-158 -344h-279zM539 545h331v704h-6z" />
<glyph unicode="&#xc7;" horiz-adv-x="1138" d="M94 715q0 158 42 292t124 232t204 154.5t281 56.5q84 0 161 -15.5t155 -43.5l-14 -236q-84 45 -146.5 61.5t-124.5 16.5q-82 0 -155.5 -28.5t-129 -92t-87 -162t-31.5 -237.5q0 -248 107.5 -382t295.5 -134q96 0 158.5 19.5t112.5 53.5l14 -239q-53 -25 -135 -38 t-174 -13q-168 0 -292 58t-205 158.5t-121 233.5t-40 285zM481 -414l33 82q41 -14 70.5 -21t70.5 -7q49 0 79 21.5t30 59.5q0 41 -27.5 59.5t-68.5 18.5q-43 0 -78 -14l-37 35l63 180h91l-41 -127q16 4 34.5 8t47.5 4q72 0 124 -37.5t52 -117.5q0 -43 -19.5 -77t-51.5 -57.5 t-74 -37t-85 -13.5q-61 0 -119.5 12.5t-93.5 28.5z" />
<glyph unicode="&#xc8;" d="M152 0v1430h751v-209h-489v-381h463v-209h-463v-422h510v-209h-772zM285 1792h237l131 -295h-159z" />
<glyph unicode="&#xc9;" d="M152 0v1430h751v-209h-489v-381h463v-209h-463v-422h510v-209h-772zM412 1497l131 295h237l-209 -295h-159z" />
<glyph unicode="&#xca;" d="M152 0v1430h751v-209h-489v-381h463v-209h-463v-422h510v-209h-772zM238 1497l186 295h221l182 -295h-186l-111 178l-112 -178h-180z" />
<glyph unicode="&#xcb;" d="M152 0v1430h751v-209h-489v-381h463v-209h-463v-422h510v-209h-772zM262 1561v225h197v-225h-197zM606 1561v225h197v-225h-197z" />
<glyph unicode="&#xcc;" horiz-adv-x="569" d="M37 1792h237l132 -295h-160zM154 0v1430h262v-1430h-262z" />
<glyph unicode="&#xcd;" horiz-adv-x="569" d="M154 0v1430h262v-1430h-262zM164 1497l131 295h237l-208 -295h-160z" />
<glyph unicode="&#xce;" horiz-adv-x="569" d="M-10 1497l186 295h221l183 -295h-187l-110 178l-113 -178h-180zM154 0v1430h262v-1430h-262z" />
<glyph unicode="&#xcf;" horiz-adv-x="569" d="M14 1561v225h197v-225h-197zM154 0v1430h262v-1430h-262zM358 1561v225h197v-225h-197z" />
<glyph unicode="&#xd0;" horiz-adv-x="1290" d="M0 651v172h139v607h371q160 0 288 -42t216 -130.5t135 -223.5t47 -319q0 -166 -45 -298t-133 -224.5t-217 -142.5t-297 -50h-365v651h-139zM401 201h88q119 0 200 40t132 109.5t74 163t23 199.5q0 135 -31 233t-87.5 160.5t-136 92.5t-178.5 30h-84v-406h267v-172h-267 v-450z" />
<glyph unicode="&#xd1;" horiz-adv-x="1327" d="M150 0v1430h311l475 -1123h4v1123h238v-1430h-314l-473 1114h-4v-1114h-237zM356 1520q0 45 13.5 89t39 76.5t61.5 53t83 20.5q35 0 65.5 -11t60.5 -23.5t56.5 -23.5t50.5 -11q31 0 44.5 25.5t13.5 53.5h127q-2 -45 -15.5 -88t-37 -76.5t-57.5 -54t-77 -20.5 q-33 0 -62.5 11t-59 23.5t-56 23.5t-53.5 11q-37 0 -56.5 -21.5t-21.5 -57.5h-119z" />
<glyph unicode="&#xd2;" horiz-adv-x="1327" d="M94 715q0 201 50.5 341t130 227t182 127t207.5 40q119 0 223 -46t181 -138t121 -230.5t44 -322.5q0 -195 -48 -333t-128 -227.5t-182.5 -131t-210.5 -41.5q-111 0 -213.5 41.5t-182.5 132t-127 228.5t-47 333zM365 717q0 -98 13 -194.5t47 -172.5t92 -123t147 -47 q147 0 223 137.5t76 399.5q0 98 -13.5 193.5t-47.5 170t-92 121.5t-146 47q-90 0 -147.5 -47t-91.5 -122.5t-47 -171t-13 -191.5zM416 1792h237l131 -295h-159z" />
<glyph unicode="&#xd3;" horiz-adv-x="1327" d="M94 715q0 201 50.5 341t130 227t182 127t207.5 40q119 0 223 -46t181 -138t121 -230.5t44 -322.5q0 -195 -48 -333t-128 -227.5t-182.5 -131t-210.5 -41.5q-111 0 -213.5 41.5t-182.5 132t-127 228.5t-47 333zM365 717q0 -98 13 -194.5t47 -172.5t92 -123t147 -47 q147 0 223 137.5t76 399.5q0 98 -13.5 193.5t-47.5 170t-92 121.5t-146 47q-90 0 -147.5 -47t-91.5 -122.5t-47 -171t-13 -191.5zM543 1497l131 295h237l-209 -295h-159z" />
<glyph unicode="&#xd4;" horiz-adv-x="1327" d="M94 715q0 201 50.5 341t130 227t182 127t207.5 40q119 0 223 -46t181 -138t121 -230.5t44 -322.5q0 -195 -48 -333t-128 -227.5t-182.5 -131t-210.5 -41.5q-111 0 -213.5 41.5t-182.5 132t-127 228.5t-47 333zM365 717q0 -98 13 -194.5t47 -172.5t92 -123t147 -47 q147 0 223 137.5t76 399.5q0 98 -13.5 193.5t-47.5 170t-92 121.5t-146 47q-90 0 -147.5 -47t-91.5 -122.5t-47 -171t-13 -191.5zM369 1497l186 295h221l182 -295h-186l-110 178l-113 -178h-180z" />
<glyph unicode="&#xd5;" horiz-adv-x="1327" d="M94 715q0 201 50.5 341t130 227t182 127t207.5 40q119 0 223 -46t181 -138t121 -230.5t44 -322.5q0 -195 -48 -333t-128 -227.5t-182.5 -131t-210.5 -41.5q-111 0 -213.5 41.5t-182.5 132t-127 228.5t-47 333zM356 1520q0 45 13.5 89t39 76.5t61.5 53t83 20.5 q35 0 65.5 -11t60.5 -23.5t56.5 -23.5t50.5 -11q31 0 44.5 25.5t13.5 53.5h127q-2 -45 -15.5 -88t-37 -76.5t-57.5 -54t-77 -20.5q-33 0 -62.5 11t-59 23.5t-56 23.5t-53.5 11q-37 0 -56.5 -21.5t-21.5 -57.5h-119zM365 717q0 -98 13 -194.5t47 -172.5t92 -123t147 -47 q147 0 223 137.5t76 399.5q0 98 -13.5 193.5t-47.5 170t-92 121.5t-146 47q-90 0 -147.5 -47t-91.5 -122.5t-47 -171t-13 -191.5z" />
<glyph unicode="&#xd6;" horiz-adv-x="1327" d="M94 715q0 201 50.5 341t130 227t182 127t207.5 40q119 0 223 -46t181 -138t121 -230.5t44 -322.5q0 -195 -48 -333t-128 -227.5t-182.5 -131t-210.5 -41.5q-111 0 -213.5 41.5t-182.5 132t-127 228.5t-47 333zM365 717q0 -98 13 -194.5t47 -172.5t92 -123t147 -47 q147 0 223 137.5t76 399.5q0 98 -13.5 193.5t-47.5 170t-92 121.5t-146 47q-90 0 -147.5 -47t-91.5 -122.5t-47 -171t-13 -191.5zM393 1561v225h197v-225h-197zM737 1561v225h197v-225h-197z" />
<glyph unicode="&#xd7;" horiz-adv-x="1228" d="M139 170l348 348l-348 348l127 127l348 -348l349 348l127 -127l-349 -348l349 -348l-127 -127l-349 350l-348 -350z" />
<glyph unicode="&#xd8;" horiz-adv-x="1327" d="M51 27l162 202q-55 88 -87 208t-32 278q0 201 50.5 341t130 227t182 127t207.5 40q115 0 212 -41t173 -125l145 182l82 -63l-162 -203q57 -90 88 -212t31 -275q0 -195 -48 -333t-128 -227.5t-182.5 -131t-210.5 -41.5q-109 0 -208.5 39.5t-176.5 125.5l-146 -182z M365 717q0 -68 6 -134.5t20 -127.5l504 637q-35 72 -90 114.5t-141 42.5q-90 0 -147.5 -47t-91.5 -122.5t-47 -171t-13 -191.5zM432 340q33 -72 89.5 -116t142.5 -44q147 0 223 137.5t76 399.5q0 66 -6.5 134.5t-20.5 123.5z" />
<glyph unicode="&#xd9;" horiz-adv-x="1251" d="M139 512v918h262v-932q0 -90 14.5 -149.5t43 -95.5t71.5 -50.5t99 -14.5q55 0 96 15.5t68.5 52.5t42 96.5t14.5 147.5v930h262v-922q0 -139 -36 -238.5t-100.5 -164t-153.5 -95t-195 -30.5q-98 0 -187.5 27.5t-156 90t-105.5 165t-39 249.5zM379 1792h237l132 -295h-160z " />
<glyph unicode="&#xda;" horiz-adv-x="1251" d="M139 512v918h262v-932q0 -90 14.5 -149.5t43 -95.5t71.5 -50.5t99 -14.5q55 0 96 15.5t68.5 52.5t42 96.5t14.5 147.5v930h262v-922q0 -139 -36 -238.5t-100.5 -164t-153.5 -95t-195 -30.5q-98 0 -187.5 27.5t-156 90t-105.5 165t-39 249.5zM506 1497l131 295h237 l-208 -295h-160z" />
<glyph unicode="&#xdb;" horiz-adv-x="1251" d="M139 512v918h262v-932q0 -90 14.5 -149.5t43 -95.5t71.5 -50.5t99 -14.5q55 0 96 15.5t68.5 52.5t42 96.5t14.5 147.5v930h262v-922q0 -139 -36 -238.5t-100.5 -164t-153.5 -95t-195 -30.5q-98 0 -187.5 27.5t-156 90t-105.5 165t-39 249.5zM332 1497l186 295h221 l183 -295h-187l-110 178l-113 -178h-180z" />
<glyph unicode="&#xdc;" horiz-adv-x="1251" d="M139 512v918h262v-932q0 -90 14.5 -149.5t43 -95.5t71.5 -50.5t99 -14.5q55 0 96 15.5t68.5 52.5t42 96.5t14.5 147.5v930h262v-922q0 -139 -36 -238.5t-100.5 -164t-153.5 -95t-195 -30.5q-98 0 -187.5 27.5t-156 90t-105.5 165t-39 249.5zM356 1561v225h197v-225h-197z M700 1561v225h197v-225h-197z" />
<glyph unicode="&#xdd;" horiz-adv-x="1138" d="M16 1430h283l279 -572l262 572h282l-422 -863v-567h-262v573zM449 1497l131 295h237l-209 -295h-159z" />
<glyph unicode="&#xde;" horiz-adv-x="1062" d="M139 0v1430h262v-228h146q90 0 172 -22.5t143.5 -73.5t98 -135t36.5 -207q0 -111 -32.5 -191.5t-92 -135t-141.5 -80t-178 -25.5h-152v-332h-262zM401 532h101q47 0 89 10.5t74.5 37t51 71.5t18.5 117q0 68 -17.5 113t-48 71.5t-72.5 37.5t-91 11h-105v-469z" />
<glyph unicode="&#xdf;" horiz-adv-x="1099" d="M115 0v1110q0 215 108.5 333t321.5 118q193 0 299 -103.5t106 -286.5q0 -141 -56 -226t-181 -126v-4q61 -6 115.5 -35.5t93.5 -80t61.5 -117t22.5 -144.5q0 -102 -25 -186t-77 -143.5t-131 -92t-187 -32.5q-47 0 -74 6t-45 16l12 187q16 -8 33.5 -12.5t42.5 -4.5 q96 0 142 67.5t46 180.5q0 143 -60 214t-191 71v192q98 0 155.5 59.5t57.5 190.5q0 109 -45.5 166t-127.5 57q-53 0 -85.5 -19.5t-52 -52t-27 -72.5t-7.5 -83v-1147h-245z" />
<glyph unicode="&#xe0;" d="M59 291q0 104 39 174t111 110.5t175 58t230 17.5h52v41q0 102 -55.5 150.5t-139.5 48.5q-78 0 -156.5 -28.5t-134.5 -74.5l-14 205q86 39 161.5 58.5t172.5 19.5q117 0 194.5 -26.5t123.5 -80t65.5 -133t19.5 -184.5v-467q0 -59 5 -99t10 -81h-230q-8 29 -11 59.5 t-3 83.5h-4q-55 -78 -125 -118.5t-170 -40.5q-63 0 -120.5 21.5t-100.5 61t-69 96t-26 128.5zM264 1466h238l131 -295h-160zM297 319q0 -78 46 -120.5t116 -42.5q100 0 153.5 69.5t53.5 231.5v59h-25q-160 0 -252 -42t-92 -155z" />
<glyph unicode="&#xe1;" d="M59 291q0 104 39 174t111 110.5t175 58t230 17.5h52v41q0 102 -55.5 150.5t-139.5 48.5q-78 0 -156.5 -28.5t-134.5 -74.5l-14 205q86 39 161.5 58.5t172.5 19.5q117 0 194.5 -26.5t123.5 -80t65.5 -133t19.5 -184.5v-467q0 -59 5 -99t10 -81h-230q-8 29 -11 59.5 t-3 83.5h-4q-55 -78 -125 -118.5t-170 -40.5q-63 0 -120.5 21.5t-100.5 61t-69 96t-26 128.5zM297 319q0 -78 46 -120.5t116 -42.5q100 0 153.5 69.5t53.5 231.5v59h-25q-160 0 -252 -42t-92 -155zM391 1171l131 295h238l-209 -295h-160z" />
<glyph unicode="&#xe2;" d="M59 291q0 104 39 174t111 110.5t175 58t230 17.5h52v41q0 102 -55.5 150.5t-139.5 48.5q-78 0 -156.5 -28.5t-134.5 -74.5l-14 205q86 39 161.5 58.5t172.5 19.5q117 0 194.5 -26.5t123.5 -80t65.5 -133t19.5 -184.5v-467q0 -59 5 -99t10 -81h-230q-8 29 -11 59.5 t-3 83.5h-4q-55 -78 -125 -118.5t-170 -40.5q-63 0 -120.5 21.5t-100.5 61t-69 96t-26 128.5zM217 1171l186 295h222l182 -295h-186l-111 179l-113 -179h-180zM297 319q0 -78 46 -120.5t116 -42.5q100 0 153.5 69.5t53.5 231.5v59h-25q-160 0 -252 -42t-92 -155z" />
<glyph unicode="&#xe3;" d="M59 291q0 104 39 174t111 110.5t175 58t230 17.5h52v41q0 102 -55.5 150.5t-139.5 48.5q-78 0 -156.5 -28.5t-134.5 -74.5l-14 205q86 39 161.5 58.5t172.5 19.5q117 0 194.5 -26.5t123.5 -80t65.5 -133t19.5 -184.5v-467q0 -59 5 -99t10 -81h-230q-8 29 -11 59.5 t-3 83.5h-4q-55 -78 -125 -118.5t-170 -40.5q-63 0 -120.5 21.5t-100.5 61t-69 96t-26 128.5zM205 1194q0 45 13 89t39 77t61.5 53.5t82.5 20.5q35 0 66 -11.5t60.5 -24t56 -23.5t51.5 -11q31 0 44 25.5t13 54.5h127q-2 -45 -15 -88t-37 -77t-57.5 -54.5t-76.5 -20.5 q-33 0 -62.5 11.5t-59.5 23.5t-56.5 23.5t-53.5 11.5q-37 0 -56 -21.5t-21 -58.5h-119zM297 319q0 -78 46 -120.5t116 -42.5q100 0 153.5 69.5t53.5 231.5v59h-25q-160 0 -252 -42t-92 -155z" />
<glyph unicode="&#xe4;" d="M59 291q0 104 39 174t111 110.5t175 58t230 17.5h52v41q0 102 -55.5 150.5t-139.5 48.5q-78 0 -156.5 -28.5t-134.5 -74.5l-14 205q86 39 161.5 58.5t172.5 19.5q117 0 194.5 -26.5t123.5 -80t65.5 -133t19.5 -184.5v-467q0 -59 5 -99t10 -81h-230q-8 29 -11 59.5 t-3 83.5h-4q-55 -78 -125 -118.5t-170 -40.5q-63 0 -120.5 21.5t-100.5 61t-69 96t-26 128.5zM242 1235v225h196v-225h-196zM297 319q0 -78 46 -120.5t116 -42.5q100 0 153.5 69.5t53.5 231.5v59h-25q-160 0 -252 -42t-92 -155zM586 1235v225h196v-225h-196z" />
<glyph unicode="&#xe5;" d="M59 291q0 104 39 174t111 110.5t175 58t230 17.5h52v41q0 102 -55.5 150.5t-139.5 48.5q-78 0 -156.5 -28.5t-134.5 -74.5l-14 205q86 39 161.5 58.5t172.5 19.5q117 0 194.5 -26.5t123.5 -80t65.5 -133t19.5 -184.5v-467q0 -59 5 -99t10 -81h-230q-8 29 -11 59.5 t-3 83.5h-4q-55 -78 -125 -118.5t-170 -40.5q-63 0 -120.5 21.5t-100.5 61t-69 96t-26 128.5zM297 319q0 -78 46 -120.5t116 -42.5q100 0 153.5 69.5t53.5 231.5v59h-25q-160 0 -252 -42t-92 -155zM334 1360q0 45 17.5 85t47 69.5t69.5 47t85 17.5t85 -17.5t69.5 -47 t47 -69.5t17.5 -85t-17.5 -85t-47 -69.5t-69.5 -47t-85 -17.5t-85 17.5t-69.5 47t-47 69.5t-17.5 85zM436 1360q0 -47 35 -82t82 -35t82 35t35 82t-35 82t-82 35t-82 -35t-35 -82z" />
<glyph unicode="&#xe6;" horiz-adv-x="1589" d="M80 291q0 104 39 174t108.5 110.5t168 58t218.5 17.5h50v43q0 98 -50.5 147.5t-124.5 49.5q-78 0 -154.5 -28.5t-131.5 -74.5l-15 205q86 39 162 58.5t172 19.5q61 0 107.5 -11t80 -30.5t57.5 -46.5t40 -55q45 68 111.5 105.5t171.5 37.5q211 0 315 -144.5t104 -418.5 v-49h-608q0 -80 19.5 -135.5t54.5 -89t83 -49t105 -15.5q80 0 149.5 18.5t127.5 63.5l12 -201q-59 -29 -143 -48t-170 -19q-141 0 -238.5 44t-142.5 160h-4q-29 -45 -62 -82.5t-75 -64.5t-96 -42t-126 -15q-63 0 -120.5 21.5t-100.5 61t-68.5 96t-25.5 128.5zM317 319 q0 -78 46.5 -120.5t115.5 -42.5q100 0 142.5 84t42.5 217v59h-35q-160 0 -236 -48t-76 -149zM901 618h363q0 57 -9.5 108.5t-29 89.5t-53 60.5t-82.5 22.5t-85 -23.5t-59.5 -62.5t-34 -89t-10.5 -106z" />
<glyph unicode="&#xe7;" horiz-adv-x="872" d="M86 528q0 106 28.5 204.5t90 174.5t159 120t234.5 44q49 0 109.5 -12t109.5 -31l-14 -201q-55 29 -98 40.5t-82 11.5q-145 0 -210 -96.5t-65 -258.5q0 -68 16.5 -130t51.5 -110t88 -78t129 -30q92 0 184 51l14 -200q-57 -20 -115.5 -31.5t-129.5 -11.5q-133 0 -227.5 43 t-155 116.5t-89 173t-28.5 211.5zM348 -414l33 82q41 -14 70.5 -21t70.5 -7q49 0 79 21.5t30 59.5q0 41 -28 59.5t-68 18.5q-43 0 -78 -14l-37 35l63 180h90l-41 -127q16 4 35 8t47 4q72 0 124.5 -37.5t52.5 -117.5q0 -43 -19.5 -77t-51.5 -57.5t-74 -37t-85 -13.5 q-61 0 -119.5 12.5t-93.5 28.5z" />
<glyph unicode="&#xe8;" d="M86 512q0 115 28.5 216t85 178t137.5 121t185 44q211 0 315.5 -144.5t104.5 -418.5v-49h-610q0 -84 20.5 -140.5t56 -89t85 -46t106.5 -13.5q80 0 149.5 18.5t127.5 63.5l12 -201q-59 -29 -143 -48t-171 -19q-133 0 -225 44t-151.5 116.5t-86 168t-26.5 199.5zM264 1466 h238l131 -295h-160zM332 618h364q0 57 -9 108.5t-28.5 89.5t-53.5 60.5t-83 22.5t-86 -23.5t-59.5 -63.5t-33.5 -90t-11 -104z" />
<glyph unicode="&#xe9;" d="M86 512q0 115 28.5 216t85 178t137.5 121t185 44q211 0 315.5 -144.5t104.5 -418.5v-49h-610q0 -84 20.5 -140.5t56 -89t85 -46t106.5 -13.5q80 0 149.5 18.5t127.5 63.5l12 -201q-59 -29 -143 -48t-171 -19q-133 0 -225 44t-151.5 116.5t-86 168t-26.5 199.5zM332 618 h364q0 57 -9 108.5t-28.5 89.5t-53.5 60.5t-83 22.5t-86 -23.5t-59.5 -63.5t-33.5 -90t-11 -104zM391 1171l131 295h238l-209 -295h-160z" />
<glyph unicode="&#xea;" d="M86 512q0 115 28.5 216t85 178t137.5 121t185 44q211 0 315.5 -144.5t104.5 -418.5v-49h-610q0 -84 20.5 -140.5t56 -89t85 -46t106.5 -13.5q80 0 149.5 18.5t127.5 63.5l12 -201q-59 -29 -143 -48t-171 -19q-133 0 -225 44t-151.5 116.5t-86 168t-26.5 199.5zM217 1171 l186 295h222l182 -295h-186l-111 179l-113 -179h-180zM332 618h364q0 57 -9 108.5t-28.5 89.5t-53.5 60.5t-83 22.5t-86 -23.5t-59.5 -63.5t-33.5 -90t-11 -104z" />
<glyph unicode="&#xeb;" d="M86 512q0 115 28.5 216t85 178t137.5 121t185 44q211 0 315.5 -144.5t104.5 -418.5v-49h-610q0 -84 20.5 -140.5t56 -89t85 -46t106.5 -13.5q80 0 149.5 18.5t127.5 63.5l12 -201q-59 -29 -143 -48t-171 -19q-133 0 -225 44t-151.5 116.5t-86 168t-26.5 199.5zM242 1235 v225h196v-225h-196zM332 618h364q0 57 -9 108.5t-28.5 89.5t-53.5 60.5t-83 22.5t-86 -23.5t-59.5 -63.5t-33.5 -90t-11 -104zM586 1235v225h196v-225h-196z" />
<glyph unicode="&#xec;" horiz-adv-x="532" d="M18 1466h238l131 -295h-160zM139 0v1055h254v-1055h-254z" />
<glyph unicode="&#xed;" horiz-adv-x="532" d="M139 0v1055h254v-1055h-254zM145 1171l131 295h238l-209 -295h-160z" />
<glyph unicode="&#xee;" horiz-adv-x="532" d="M-29 1171l187 295h221l182 -295h-186l-111 179l-112 -179h-181zM139 0v1055h254v-1055h-254z" />
<glyph unicode="&#xef;" horiz-adv-x="532" d="M-4 1235v225h197v-225h-197zM139 0v1055h254v-1055h-254zM340 1235v225h197v-225h-197z" />
<glyph unicode="&#xf0;" horiz-adv-x="1099" d="M86 528q0 147 37 251t99.5 168.5t142 94t165.5 29.5q78 0 123 -29.5t72 -66.5l4 2q-10 39 -29.5 85t-45 92t-56.5 87t-61 70l-177 -90l-67 77l158 82q-37 27 -80 48.5t-78 31.5l162 101q53 -16 88 -35t86 -53l172 88l67 -78l-151 -78q166 -147 231.5 -358.5t65.5 -471.5 q0 -172 -37 -285.5t-99.5 -181t-147.5 -96t-179 -28.5q-76 0 -158 21.5t-150.5 80.5t-112.5 165.5t-44 276.5zM348 526q0 -68 9.5 -132t32 -115.5t62.5 -83t101 -31.5t100 33.5t60.5 86t30 117t8.5 125.5q0 68 -8.5 133.5t-31 116.5t-61.5 83t-100 32q-59 0 -99 -31 t-62.5 -81t-32 -116.5t-9.5 -136.5z" />
<glyph unicode="&#xf1;" horiz-adv-x="1062" d="M106 1055h238l8 -162h4q43 78 111 128t166 50q51 0 107.5 -13.5t102.5 -55t75.5 -117.5t29.5 -201v-684h-254v639q0 123 -35.5 173t-109.5 50q-82 0 -131 -59.5t-49 -188.5v-614h-254v946zM225 1194q0 45 13.5 89t39 77t61.5 53.5t83 20.5q35 0 65.5 -11.5t60.5 -24 t56.5 -23.5t50.5 -11q31 0 44.5 25.5t13.5 54.5h127q-2 -45 -15.5 -88t-37 -77t-57.5 -54.5t-77 -20.5q-33 0 -62.5 11.5t-59 23.5t-56 23.5t-53.5 11.5q-37 0 -56.5 -21.5t-21.5 -58.5h-119z" />
<glyph unicode="&#xf2;" horiz-adv-x="1099" d="M86 528q0 154 39 257.5t103.5 167t148.5 91t174 27.5q88 0 171 -26.5t147.5 -90t104.5 -168t40 -258.5q0 -260 -116 -402t-347 -142q-102 0 -187 30.5t-146.5 96t-96.5 169t-35 248.5zM303 1466h238l131 -295h-160zM348 528q0 -68 9.5 -133t32 -116.5t61 -83t100.5 -31.5 q61 0 100 31.5t61.5 82t31 114.5t8.5 132q0 82 -10.5 149.5t-35 116t-62.5 75t-93 26.5t-93 -26.5t-62.5 -74t-36 -114t-11.5 -148.5z" />
<glyph unicode="&#xf3;" horiz-adv-x="1099" d="M86 528q0 154 39 257.5t103.5 167t148.5 91t174 27.5q88 0 171 -26.5t147.5 -90t104.5 -168t40 -258.5q0 -260 -116 -402t-347 -142q-102 0 -187 30.5t-146.5 96t-96.5 169t-35 248.5zM348 528q0 -68 9.5 -133t32 -116.5t61 -83t100.5 -31.5q61 0 100 31.5t61.5 82 t31 114.5t8.5 132q0 82 -10.5 149.5t-35 116t-62.5 75t-93 26.5t-93 -26.5t-62.5 -74t-36 -114t-11.5 -148.5zM430 1171l131 295h238l-209 -295h-160z" />
<glyph unicode="&#xf4;" horiz-adv-x="1099" d="M86 528q0 154 39 257.5t103.5 167t148.5 91t174 27.5q88 0 171 -26.5t147.5 -90t104.5 -168t40 -258.5q0 -260 -116 -402t-347 -142q-102 0 -187 30.5t-146.5 96t-96.5 169t-35 248.5zM256 1171l186 295h222l182 -295h-187l-110 179l-113 -179h-180zM348 528 q0 -68 9.5 -133t32 -116.5t61 -83t100.5 -31.5q61 0 100 31.5t61.5 82t31 114.5t8.5 132q0 82 -10.5 149.5t-35 116t-62.5 75t-93 26.5t-93 -26.5t-62.5 -74t-36 -114t-11.5 -148.5z" />
<glyph unicode="&#xf5;" horiz-adv-x="1099" d="M86 528q0 154 39 257.5t103.5 167t148.5 91t174 27.5q88 0 171 -26.5t147.5 -90t104.5 -168t40 -258.5q0 -260 -116 -402t-347 -142q-102 0 -187 30.5t-146.5 96t-96.5 169t-35 248.5zM244 1194q0 45 13 89t39 77t61.5 53.5t82.5 20.5q35 0 66 -11.5t60.5 -24t56 -23.5 t51.5 -11q31 0 44 25.5t13 54.5h127q-2 -45 -15.5 -88t-37 -77t-57 -54.5t-76.5 -20.5q-33 0 -62.5 11.5t-59.5 23.5t-56.5 23.5t-53.5 11.5q-37 0 -56 -21.5t-22 -58.5h-118zM348 528q0 -68 9.5 -133t32 -116.5t61 -83t100.5 -31.5q61 0 100 31.5t61.5 82t31 114.5t8.5 132 q0 82 -10.5 149.5t-35 116t-62.5 75t-93 26.5t-93 -26.5t-62.5 -74t-36 -114t-11.5 -148.5z" />
<glyph unicode="&#xf6;" horiz-adv-x="1099" d="M86 528q0 154 39 257.5t103.5 167t148.5 91t174 27.5q88 0 171 -26.5t147.5 -90t104.5 -168t40 -258.5q0 -260 -116 -402t-347 -142q-102 0 -187 30.5t-146.5 96t-96.5 169t-35 248.5zM281 1235v225h196v-225h-196zM348 528q0 -68 9.5 -133t32 -116.5t61 -83t100.5 -31.5 q61 0 100 31.5t61.5 82t31 114.5t8.5 132q0 82 -10.5 149.5t-35 116t-62.5 75t-93 26.5t-93 -26.5t-62.5 -74t-36 -114t-11.5 -148.5zM625 1235v225h196v-225h-196z" />
<glyph unicode="&#xf7;" horiz-adv-x="1228" d="M96 428v180h1037v-180h-1037zM457 94q0 66 46 112t111 46q66 0 112 -46t46 -112t-46 -111.5t-112 -45.5t-111.5 46t-45.5 111zM457 942q0 66 46 112t111 46q66 0 112 -46t46 -112t-46 -112t-112 -46t-111.5 46.5t-45.5 111.5z" />
<glyph unicode="&#xf8;" horiz-adv-x="1099" d="M86 16l102 129q-49 66 -75.5 160t-26.5 223q0 154 39 257.5t103.5 167t148.5 91t174 27.5q80 0 155.5 -22.5t137.5 -73.5l96 121l74 -58l-105 -131q47 -63 76 -156.5t29 -222.5q0 -260 -116 -402t-347 -142q-88 0 -162 21.5t-135 72.5l-94 -119zM348 528q0 -41 3 -81.5 t11 -79.5l340 428q-20 43 -59 69.5t-92 26.5q-55 0 -93 -26.5t-62.5 -74t-36 -114t-11.5 -148.5zM399 260q23 -43 60 -69.5t92 -26.5q61 0 100 31.5t61.5 82t31 114.5t8.5 132q0 94 -15 164z" />
<glyph unicode="&#xf9;" horiz-adv-x="1062" d="M115 371v684h254v-639q0 -123 37.5 -173t115.5 -50q76 0 124 59t48 188v615h254v-946l8 -109h-237l-8 162h-4q-47 -84 -113 -131t-164 -47q-51 0 -107.5 13t-102.5 55t-75.5 118t-29.5 201zM285 1466h237l131 -295h-159z" />
<glyph unicode="&#xfa;" horiz-adv-x="1062" d="M115 371v684h254v-639q0 -123 37.5 -173t115.5 -50q76 0 124 59t48 188v615h254v-946l8 -109h-237l-8 162h-4q-47 -84 -113 -131t-164 -47q-51 0 -107.5 13t-102.5 55t-75.5 118t-29.5 201zM412 1171l131 295h237l-209 -295h-159z" />
<glyph unicode="&#xfb;" horiz-adv-x="1062" d="M115 371v684h254v-639q0 -123 37.5 -173t115.5 -50q76 0 124 59t48 188v615h254v-946l8 -109h-237l-8 162h-4q-47 -84 -113 -131t-164 -47q-51 0 -107.5 13t-102.5 55t-75.5 118t-29.5 201zM238 1171l186 295h221l182 -295h-186l-111 179l-112 -179h-180z" />
<glyph unicode="&#xfc;" horiz-adv-x="1062" d="M115 371v684h254v-639q0 -123 37.5 -173t115.5 -50q76 0 124 59t48 188v615h254v-946l8 -109h-237l-8 162h-4q-47 -84 -113 -131t-164 -47q-51 0 -107.5 13t-102.5 55t-75.5 118t-29.5 201zM262 1235v225h197v-225h-197zM606 1235v225h197v-225h-197z" />
<glyph unicode="&#xfd;" horiz-adv-x="948" d="M10 1055h262l213 -797h4l203 797h246l-385 -1256q-37 -119 -108.5 -186.5t-190.5 -67.5q-53 0 -91 8.5t-73 18.5l14 195q23 -10 46.5 -15.5t52.5 -5.5q57 0 90 42t53 134l14 66zM354 1171l131 295h238l-209 -295h-160z" />
<glyph unicode="&#xfe;" horiz-adv-x="1099" d="M119 -442v1978h254v-645h4q45 96 110.5 138t153.5 42q96 0 166 -41t116 -113.5t68.5 -173t22.5 -217.5q0 -115 -21.5 -214t-66.5 -171.5t-115 -114.5t-166 -42q-90 0 -160.5 43t-107.5 125h-4v-594h-254zM373 524q0 -63 9 -126.5t31.5 -114t60.5 -82t97 -31.5t96.5 30.5 t57.5 81t27.5 113t7.5 125.5q0 59 -4 124t-21.5 118t-54.5 88t-105 35q-59 0 -98 -31t-62.5 -81t-32.5 -114.5t-9 -134.5z" />
<glyph unicode="&#xff;" horiz-adv-x="948" d="M10 1055h262l213 -797h4l203 797h246l-385 -1256q-37 -119 -108.5 -186.5t-190.5 -67.5q-53 0 -91 8.5t-73 18.5l14 195q23 -10 46.5 -15.5t52.5 -5.5q57 0 90 42t53 134l14 66zM205 1235v225h196v-225h-196zM549 1235v225h196v-225h-196z" />
<glyph unicode="&#x152;" horiz-adv-x="1705" d="M96 715q0 156 38 289t115 230t194.5 152.5t277.5 55.5q33 0 71.5 -2t77.5 -4t75 -4t63 -2h589v-209h-467v-381h439v-209h-439v-422h488v-209h-678q-61 0 -130 -6t-128 -6q-170 0 -281.5 61.5t-179 162.5t-96.5 232t-29 271zM375 717q0 -279 88 -404t264 -125 q45 0 74.5 5.5t66.5 15.5v1012q-31 8 -79 14t-78 6q-178 0 -257 -132t-79 -392z" />
<glyph unicode="&#x153;" horiz-adv-x="1669" d="M86 528q0 154 39 257.5t103.5 167t148.5 91t174 27.5q121 0 202 -52t117 -138q43 84 117 137t193 53q211 0 315 -144.5t104 -418.5v-49h-610q0 -84 20.5 -140.5t56.5 -89t85 -46t106 -13.5q80 0 150 18.5t127 63.5l12 -201q-59 -29 -143 -48t-170 -19q-131 0 -219 50 t-135 136q-14 -37 -46 -70.5t-75 -59.5t-96.5 -41t-110.5 -15q-102 0 -187 30.5t-146.5 96t-96.5 169t-35 248.5zM348 528q0 -68 9.5 -133t32 -116.5t61 -83t100.5 -31.5q61 0 100 31.5t61.5 82t31 114.5t8.5 132q0 82 -10.5 149.5t-35 116t-62.5 75t-93 26.5t-93 -26.5 t-62.5 -74t-36 -114t-11.5 -148.5zM989 618h365q0 57 -9.5 108.5t-29 89.5t-53 60.5t-82.5 22.5t-86 -23.5t-59.5 -63.5t-34 -90t-11.5 -104z" />
<glyph unicode="&#x178;" horiz-adv-x="1138" d="M16 1430h283l279 -572l262 572h282l-422 -863v-567h-262v573zM299 1561v225h197v-225h-197zM643 1561v225h197v-225h-197z" />
<glyph unicode="&#x2c6;" horiz-adv-x="454" d="M-68 1171l187 295h221l182 -295h-186l-111 179l-112 -179h-181z" />
<glyph unicode="&#x2dc;" horiz-adv-x="454" d="M-80 1194q0 45 13.5 89t39 77t61.5 53.5t83 20.5q35 0 65.5 -11.5t60 -24t56.5 -23.5t51 -11q31 0 44.5 25.5t13.5 54.5h127q-2 -45 -15.5 -88t-37 -77t-57.5 -54.5t-77 -20.5q-33 0 -62.5 11.5t-59 23.5t-56.5 23.5t-53 11.5q-37 0 -56.5 -21.5t-21.5 -58.5h-119z" />
<glyph unicode="&#x2000;" horiz-adv-x="962" />
<glyph unicode="&#x2001;" horiz-adv-x="1925" />
<glyph unicode="&#x2002;" horiz-adv-x="962" />
<glyph unicode="&#x2003;" horiz-adv-x="1925" />
<glyph unicode="&#x2004;" horiz-adv-x="641" />
<glyph unicode="&#x2005;" horiz-adv-x="481" />
<glyph unicode="&#x2006;" horiz-adv-x="320" />
<glyph unicode="&#x2007;" horiz-adv-x="320" />
<glyph unicode="&#x2008;" horiz-adv-x="240" />
<glyph unicode="&#x2009;" horiz-adv-x="385" />
<glyph unicode="&#x200a;" horiz-adv-x="106" />
<glyph unicode="&#x2010;" horiz-adv-x="645" d="M86 477v209h473v-209h-473z" />
<glyph unicode="&#x2011;" horiz-adv-x="645" d="M86 477v209h473v-209h-473z" />
<glyph unicode="&#x2012;" horiz-adv-x="645" d="M86 477v209h473v-209h-473z" />
<glyph unicode="&#x2013;" d="M0 492v180h1024v-180h-1024z" />
<glyph unicode="&#x2014;" horiz-adv-x="2048" d="M0 492v180h2048v-180h-2048z" />
<glyph unicode="&#x2018;" horiz-adv-x="532" d="M90 1028l156 508h196l-106 -508h-246z" />
<glyph unicode="&#x2019;" horiz-adv-x="532" d="M90 1028l107 508h245l-155 -508h-197z" />
<glyph unicode="&#x201a;" horiz-adv-x="532" d="M66 -246l106 508h246l-156 -508h-196z" />
<glyph unicode="&#x201c;" horiz-adv-x="1062" d="M174 1028l156 508h196l-106 -508h-246zM537 1028l155 508h197l-107 -508h-245z" />
<glyph unicode="&#x201d;" horiz-adv-x="1062" d="M174 1028l107 508h245l-155 -508h-197zM537 1028l106 508h246l-156 -508h-196z" />
<glyph unicode="&#x201e;" horiz-adv-x="1062" d="M174 -246l107 508h245l-155 -508h-197zM537 -246l106 508h246l-156 -508h-196z" />
<glyph unicode="&#x2022;" d="M154 715q0 74 27.5 139.5t76.5 114.5t114.5 76.5t139.5 27.5t139.5 -27.5t114.5 -76.5t76.5 -114.5t27.5 -139.5t-27.5 -139.5t-76.5 -114.5t-114.5 -77t-139.5 -28t-139.5 28t-114.5 77t-76.5 114.5t-27.5 139.5z" />
<glyph unicode="&#x2026;" horiz-adv-x="2048" d="M219 0v266h246v-266h-246zM901 0v266h246v-266h-246zM1583 0v266h246v-266h-246z" />
<glyph unicode="&#x202f;" horiz-adv-x="385" />
<glyph unicode="&#x2039;" horiz-adv-x="606" d="M78 530l217 424h205l-201 -424l201 -424h-205z" />
<glyph unicode="&#x203a;" horiz-adv-x="606" d="M106 106l201 424l-201 424h205l217 -424l-217 -424h-205z" />
<glyph unicode="&#x205f;" horiz-adv-x="481" />
<glyph unicode="&#x2122;" horiz-adv-x="2048" d="M106 1278v152h680v-152h-260v-700h-159v700h-261zM987 578v852h246l223 -576l219 576h246v-852h-160v651h-4l-239 -651h-127l-240 651h-4v-651h-160z" />
<glyph unicode="&#xe000;" horiz-adv-x="1054" d="M0 0v1055h1055v-1055h-1055z" />
</font>
</defs>
</svg>
