<svg xmlns="http://www.w3.org/2000/svg" viewBox="0 0 23.98 24"><defs><style>.cls-1{fill:#fff;}</style></defs><title>phone-iconAsset 1</title><g id="Layer_2" data-name="Layer 2"><g id="Layer_1-2" data-name="Layer 1"><path class="cls-1" d="M19.19,24a14.84,14.84,0,0,1-6.72-1.79,24.49,24.49,0,0,1-6.15-4.54,24.63,24.63,0,0,1-4.53-6.15A14.84,14.84,0,0,1,0,4.8C0,3.42,1.28,2.09,1.84,1.58A5.46,5.46,0,0,1,4.78,0,2.76,2.76,0,0,1,6.45.93,16,16,0,0,1,8.11,2.78c.34.45,2.07,2.73,2.07,3.82,0,.9-1,1.52-2.08,2.18a10.61,10.61,0,0,0-1.16.77c-.33.26-.39.4-.4.43A15.88,15.88,0,0,0,14,17.44s.17-.06.44-.4a11.47,11.47,0,0,0,.76-1.15c.67-1.07,1.29-2.09,2.18-2.09,1.1,0,3.38,1.73,3.82,2.08a16.08,16.08,0,0,1,1.86,1.66A2.71,2.71,0,0,1,24,19.2a5.51,5.51,0,0,1-1.58,3c-.51.55-1.84,1.84-3.22,1.84ZM4.78,1.2A4.54,4.54,0,0,0,2.65,2.47,3.87,3.87,0,0,0,1.2,4.8c0,8.07,9.92,18,18,18a3.93,3.93,0,0,0,2.33-1.45,4.6,4.6,0,0,0,1.27-2.14c0-.23-.67-1.12-2.4-2.45a9.52,9.52,0,0,0-3-1.76s-.15.06-.43.4-.49.72-.73,1.11c-.68,1.1-1.31,2.13-2.23,2.13a1.32,1.32,0,0,1-.44-.08,17,17,0,0,1-8.13-8.14A1.41,1.41,0,0,1,6,8.78a10.24,10.24,0,0,1,1.47-1A10.69,10.69,0,0,0,8.58,7c.35-.27.4-.41.4-.43a9.3,9.3,0,0,0-1.76-3A7.58,7.58,0,0,0,4.78,1.2Z"/></g></g></svg>