<?xml version="1.0" encoding="utf-8"?>
<!-- Generator: Adobe Illustrator 25.2.0, SVG Export Plug-In . SVG Version: 6.00 Build 0)  -->
<svg version="1.1" id="Layer_1" xmlns="http://www.w3.org/2000/svg" xmlns:xlink="http://www.w3.org/1999/xlink" x="0px" y="0px"
	 viewBox="0 0 713.3 665.3" style="enable-background:new 0 0 713.3 665.3;" xml:space="preserve">
<style type="text/css">
	.st0{opacity:0.55;fill:url(#SVGID_1_);}
	.st1{opacity:0.55;fill:url(#SVGID_2_);}
	.st2{fill:url(#SVGID_3_);}
	.st3{fill:url(#SVGID_4_);}
	.st4{fill:#4256CB;}
	.st5{fill:url(#SVGID_5_);}
	.st6{fill:url(#SVGID_6_);}
	.st7{fill:url(#SVGID_7_);}
	.st8{fill:url(#SVGID_8_);}
	.st9{fill:url(#SVGID_9_);}
	.st10{fill:url(#SVGID_10_);}
	.st11{fill:#232B57;}
	.st12{fill:url(#SVGID_11_);}
	.st13{opacity:0.2;}
	.st14{fill:#FFFFFF;}
	.st15{opacity:0.1;fill:#231F20;}
	.st16{fill:#F7BAAC;}
	.st17{fill:#FEF3C9;}
	.st18{fill:#E8AAA0;}
	.st19{fill:#E9C3B7;}
	.st20{fill:#222B5E;}
	.st21{fill:#004A87;}
	.st22{opacity:0.3;fill:#222B5E;}
	.st23{fill:#F7B9AC;}
	.st24{fill:#E8A89E;}
	.st25{fill:#FFDE6E;}
	.st26{fill:#1F265A;}
	.st27{opacity:0.1;}
	.st28{fill:#231F20;}
	.st29{fill:#FFB092;}
	.st30{fill:#FEC70E;}
	.st31{fill:url(#SVGID_12_);}
	.st32{fill:#F7941D;}
	.st33{opacity:0.4;fill:#F4CF67;}
	.st34{fill:#DDAC9E;}
	.st35{fill:#838BF3;}
	.st36{fill:#F8AD18;}
</style>
<g>
	<g>
		
			<radialGradient id="SVGID_1_" cx="-667.8588" cy="1771.9004" r="354.1605" gradientTransform="matrix(0.9946 0.1035 -5.400000e-02 0.5187 1538.1523 -150.4148)" gradientUnits="userSpaceOnUse">
			<stop  offset="0" style="stop-color:#FFFFFF"/>
			<stop  offset="0.2236" style="stop-color:#FCFEFF"/>
			<stop  offset="0.3601" style="stop-color:#F4F9FE"/>
			<stop  offset="0.4732" style="stop-color:#E6F1FD"/>
			<stop  offset="0.5737" style="stop-color:#D1E6FC"/>
			<stop  offset="0.6656" style="stop-color:#B7D8FA"/>
			<stop  offset="0.7515" style="stop-color:#96C7F7"/>
			<stop  offset="0.8326" style="stop-color:#6FB2F5"/>
			<stop  offset="0.9099" style="stop-color:#429AF2"/>
			<stop  offset="0.9816" style="stop-color:#117FEE"/>
			<stop  offset="1" style="stop-color:#0378ED"/>
		</radialGradient>
		<path class="st0" d="M713.3,647.8c-0.6,5.6-59.4,4-131.3-3.5s-129.8-18.1-129.2-23.6c0.6-5.6,59.4-4,131.3,3.5
			C656,631.7,713.9,642.3,713.3,647.8z"/>
		
			<radialGradient id="SVGID_2_" cx="2138.3569" cy="1211.9557" r="354.1606" gradientTransform="matrix(-0.9946 0.1035 5.400000e-02 0.5187 2002.2896 -150.4148)" gradientUnits="userSpaceOnUse">
			<stop  offset="0" style="stop-color:#FFFFFF"/>
			<stop  offset="0.2236" style="stop-color:#FCFEFF"/>
			<stop  offset="0.3601" style="stop-color:#F4F9FE"/>
			<stop  offset="0.4732" style="stop-color:#E6F1FD"/>
			<stop  offset="0.5737" style="stop-color:#D1E6FC"/>
			<stop  offset="0.6656" style="stop-color:#B7D8FA"/>
			<stop  offset="0.7515" style="stop-color:#96C7F7"/>
			<stop  offset="0.8326" style="stop-color:#6FB2F5"/>
			<stop  offset="0.9099" style="stop-color:#429AF2"/>
			<stop  offset="0.9816" style="stop-color:#117FEE"/>
			<stop  offset="1" style="stop-color:#0378ED"/>
		</radialGradient>
		<path class="st1" d="M5.9,647.8c0.6,5.6,59.4,4,131.3-3.5c71.9-7.5,129.8-18.1,129.2-23.6c-0.6-5.6-59.4-4-131.3,3.5
			C63.1,631.7,5.3,642.3,5.9,647.8z"/>
		<g>
			<g>
				<g>
					<g>
						
							<linearGradient id="SVGID_3_" gradientUnits="userSpaceOnUse" x1="1672.6559" y1="994.5226" x2="1672.8325" y2="994.5226" gradientTransform="matrix(-0.8566 -0.5161 -0.5161 0.8566 2379.1853 608.6598)">
							<stop  offset="0.2676" style="stop-color:#8DC63F"/>
							<stop  offset="1" style="stop-color:#009444"/>
						</linearGradient>
						<path class="st2" d="M432.6,598l1-1.4c0,0,0,0.1,0,0.1C433.2,597.2,432.9,597.6,432.6,598z"/>
					</g>
					<g>
						
							<linearGradient id="SVGID_4_" gradientUnits="userSpaceOnUse" x1="1696.7134" y1="770.1732" x2="1849.3193" y2="999.0819" gradientTransform="matrix(-0.9048 -0.4258 -0.4258 0.9048 2489.4131 481.089)">
							<stop  offset="0" style="stop-color:#9463D3"/>
							<stop  offset="1" style="stop-color:#3F53C4"/>
						</linearGradient>
						<path class="st3" d="M423.6,520c5.3-1.5,11-1.9,16.2-4c1.9-0.8,3.7-1.8,4.8-3.5c2.2-3.5,0.4-8-0.4-12.1
							c-2.2-12.5,6.7-24,15-33.5c2.3-2.7,5-5.5,8.5-5.8c5.1-0.5,8.9,4.4,11.9,8.5c3,4.2,7.5,8.7,12.4,7.2c4.9-1.5,6.2-7.9,5.1-12.9
							c-1.2-5.6-4.4-10.7-5.7-16.3c-1.3-5.6,0.1-12.6,5.3-15c6.2-2.9,12.9,2.4,17.9,7c5,4.6,12.5,9.3,18.1,5.4
							c3.2-2.2,4.4-6.5,3.9-10.4c-0.5-3.9-2.3-7.4-4-10.9c-0.9-1.9-1.8-4.1-1.3-6.1c0.5-1.9,2.1-3.3,3.8-4.3
							c9.4-5.9,23.1-3.6,30.1,5c7,8.6,6.4,22.5-1.4,30.5c-2.9,3-7.1,6.8-5.2,10.6c2.5,4.9,10.2,0.9,15.5,2.3
							c4.5,1.2,6.8,6.7,5.8,11.2c-1,4.5-4.4,8.2-8,11c-7,5.5-15.4,9-23.3,13.1c-1.3,0.7-2.6,1.4-3.3,2.6c-1.2,2.1-0.3,4.7,1,6.7
							c3,4.4,8,7,12.3,10.3c4.3,3.2,8.3,7.9,7.9,13.2c-0.4,5.8-5.9,10-11.4,11.7c-5.5,1.7-11.5,1.6-17.1,3.1
							c-1.6,0.4-3.4,1.1-4.3,2.5c-1.5,2.2-0.5,5.1,0.5,7.5c5.5,13,11,26.1,16.5,39.1c0.8,1.8,1.5,3.8,0.9,5.6
							c-0.3,0.9-1,1.7-1.6,2.3c-7.2,7.2-18.6,8.6-28.5,6.3c-9.9-2.3-18.7-7.8-27.7-12.7c-2.5-1.4-5-2.7-7.8-3.1
							c-3.9-0.5-7.8,1-11.5,2.4c-8,3.1-16.1,6-24.3,8.7c-4.2,1.4-9,2.7-13,0.8c-2.7-1.3-4.2-4.6-3.9-7.3c0.2-0.3,0.5-0.7,0.7-1.1
							l-0.6,0.9c0.2-1.1,0.7-2.1,1.6-2.8c3.1-7.2,1.5-16.3-2.3-23.4c-4.7-8.6-12-15.4-17.6-23.5c-3.5-5-6.3-11.4-4.3-17.1
							C412.8,524.6,418.2,521.5,423.6,520z"/>
					</g>
				</g>
				<path class="st4" d="M443.7,553c7.8,2.3,13.9,7.5,17.3,14.8c6.3-7.6,13.3-14.5,20.2-21.6c0-0.1-0.1-0.1-0.1-0.2
					c-3.6-9.1-6.7-18.4-9.3-27.9c-0.3-1,1.3-1.6,1.6-0.6c2.5,9.3,5.6,18.4,9.1,27.3c0.7-0.7,1.4-1.4,2.1-2.2
					c8.1-8.4,14.3-18.2,20.3-28.1c0-0.1-0.1-0.1-0.1-0.2c-2.1-8.5-3.1-17.1-3.2-25.8c0-1.1,1.7-1.2,1.7-0.1c0.1,8.2,1,16.2,2.8,24.1
					c0.4-0.7,0.8-1.3,1.2-2c7.3-11.9,14.3-23.8,21.1-35.9c0.5-0.9,2-0.2,1.5,0.7c-4.7,8.3-9.5,16.5-14.4,24.7
					c2.4,0.2,4.9,0.4,7.3,0.6c2.3,0.2,8.5,1.6,10.1-0.4c0.7-0.9,1.9,0.2,1.3,1.1c-1.5,2-3.9,1.6-6.1,1.5c-4.5-0.4-9-0.7-13.6-1.1
					c-1.9,3.2-3.8,6.5-5.8,9.7c-4.1,6.8-8.2,13.7-12.9,20.2c7.9,2.1,15.7,4.1,23.6,6.2c1,0.3,0.7,1.9-0.3,1.6
					c-8.1-2.1-16.1-4.2-24.2-6.3c0,0-0.1,0-0.1-0.1c-2.3,3.1-4.7,6.2-7.4,9.1c-5.8,6.3-11.9,12.1-17.7,18.3
					c10.6-0.3,20.8,1.8,30.3,6.5c1,0.5,0.3,2-0.7,1.5c-9.7-4.7-20-6.9-30.8-6.3c-0.1,0-0.2,0-0.4-0.1c-2.6,2.8-5.2,5.7-7.6,8.7
					c-8.4,10.5-15.8,21.6-23.3,32.7c-0.6,0.9-1.9-0.2-1.3-1.1c7.2-10.8,14.5-21.6,22.6-31.8c0.3-0.4,0.7-0.9,1-1.3c0,0,0,0,0,0
					c-3-7.2-8.9-12.4-16.4-14.6C442.4,554.3,442.7,552.7,443.7,553z"/>
			</g>
			<g>
				<g>
					<g>
						
							<linearGradient id="SVGID_5_" gradientUnits="userSpaceOnUse" x1="6218.6733" y1="-1175.9624" x2="6218.9126" y2="-1175.9624" gradientTransform="matrix(-0.7537 0.6572 0.6572 0.7537 5898.0869 -2591.1912)">
							<stop  offset="0.2676" style="stop-color:#8DC63F"/>
							<stop  offset="1" style="stop-color:#009444"/>
						</linearGradient>
						<path class="st5" d="M438.6,610.7l-1.4-1.9c0.1,0,0.1,0.1,0.2,0.1C437.8,609.5,438.2,610.1,438.6,610.7z"/>
					</g>
					<g>
						
							<linearGradient id="SVGID_6_" gradientUnits="userSpaceOnUse" x1="5956.6353" y1="-1928.4982" x2="6163.5029" y2="-1618.1971" gradientTransform="matrix(-0.6826 0.7308 0.7308 0.6826 5810.4287 -2735.219)">
							<stop  offset="0" style="stop-color:#9463D3"/>
							<stop  offset="1" style="stop-color:#3F53C4"/>
						</linearGradient>
						<path class="st6" d="M334.2,589.9c0.3-7.5,2.1-15,1.6-22.5c-0.2-2.7-0.8-5.6-2.5-7.7c-3.6-4.3-10.2-3.8-15.7-4.6
							c-17.1-2.3-28.1-18.6-37-33.3c-2.5-4.1-5-8.7-4-13.4c1.5-6.8,9.3-9.7,15.9-11.8c6.6-2.1,14.3-6.1,14.4-13
							c0.1-6.9-7.6-11.2-14.5-11.9c-7.8-0.7-15.6,1.2-23.4,0.5c-7.8-0.7-16.2-5.4-17.2-13.1c-1.1-9.2,8.4-15.7,16.5-20.2
							c8.1-4.6,17.1-12.3,14.5-21.2c-1.5-5-6.6-8.3-11.8-9.3c-5.2-1-10.5-0.1-15.7,0.6c-2.9,0.4-6,0.7-8.5-0.9
							c-2.2-1.4-3.4-4.1-4-6.7c-3.7-14.6,4.9-31.3,19-36.7c14.1-5.4,31.7,1.1,38.8,14.4c2.7,5,5.8,12,11.5,11
							c7.4-1.2,5.3-12.8,9.4-19.1c3.4-5.3,11.4-6,16.9-2.8c5.4,3.1,8.7,9,10.9,14.9c4.2,11.4,5.2,23.6,7.2,35.5
							c0.3,1.9,0.7,3.9,2,5.4c2.1,2.4,6,2.4,9,1.4c7-2.1,12.4-7.4,18.4-11.6c5.9-4.2,13.6-7.5,20.4-4.7c7.3,2.9,10.5,11.7,10.4,19.6
							c-0.1,7.9-2.7,15.5-3,23.3c-0.1,2.3,0,4.8,1.5,6.6c2.2,2.8,6.4,2.7,9.9,2.4c19.1-1.7,38.2-3.4,57.3-5c2.6-0.2,5.5-0.4,7.6,1.2
							c1,0.8,1.7,1.9,2.3,3.1c6.4,12.2,3.4,27.6-3.7,39.4c-7.1,11.8-17.8,21-27.9,30.4c-2.8,2.6-5.6,5.4-7.2,8.8
							c-2.3,4.8-2,10.5-1.7,15.8c0.6,11.6,1,23.3,1.1,35c0,6-0.2,12.7-4.3,17.1c-2.7,2.9-7.7,3.6-11.1,1.9c-0.3-0.5-0.7-0.9-1.1-1.3
							l0.9,1.2c-1.3-0.7-2.4-1.8-2.9-3.2c-7.9-7-20.4-8.7-31.2-6.7c-13,2.5-24.9,9.1-37.6,12.9c-7.9,2.4-17.3,3.5-23.9-1.6
							C335.7,605.7,333.9,597.4,334.2,589.9z"/>
					</g>
				</g>
				<path class="st4" d="M385.1,577.6c6.1-9.1,15.5-14.9,26.3-16.2c-7.2-11.4-13.2-23.2-19.5-35.1c-0.1,0-0.2,0.1-0.3,0.1
					c-13.3,0.9-26.6,1-39.9,0.4c-1.4-0.1-1.5-2.3-0.1-2.3c13,0.6,26,0.5,39-0.4c-0.6-1.2-1.3-2.4-1.9-3.6
					c-7.5-13.9-17.6-26-27.8-37.9c-0.1,0-0.2,0-0.3,0c-11.8-0.9-23.3-3-34.6-6.6c-1.4-0.4-0.9-2.6,0.5-2.2
					c10.6,3.3,21.3,5.4,32.3,6.4c-0.7-0.8-1.4-1.6-2.1-2.4c-12.3-14.3-24.8-28.3-37.6-42.2c-1-1.1,0.6-2.7,1.5-1.7
					c8.7,9.5,17.3,19.1,25.9,28.8c1.3-3.1,2.5-6.1,3.8-9.2c1.2-2.9,5.7-10.3,3.7-13.2c-0.8-1.2,1.1-2.4,1.9-1.2
					c1.9,2.8,0.5,5.7-0.7,8.5c-2.3,5.7-4.7,11.3-7.1,17c3.4,3.8,6.7,7.6,10.1,11.5c7,8.2,14.2,16.3,20.7,25
					c5.9-9.3,11.8-18.6,17.7-27.9c0.8-1.2,2.8-0.2,2,1.1c-6.1,9.5-12.1,19.1-18.2,28.6c0,0.1-0.1,0.1-0.1,0.1
					c3.1,4.3,6,8.7,8.6,13.3c5.7,10.1,10.7,20.3,16.2,30.4c4-13.8,11-26.1,21-36.4c1-1.1,2.7,0.5,1.7,1.5
					c-10.1,10.5-17.2,23-20.9,37.1c0,0.2-0.1,0.3-0.2,0.4c2.5,4.5,5.2,9,8.1,13.4c10.1,15.1,21.3,29.4,32.5,43.7
					c0.9,1.1-1,2.3-1.9,1.2c-10.9-13.8-21.8-27.7-31.6-42.3c-0.4-0.6-0.8-1.3-1.2-1.9c0,0,0,0-0.1,0c-10.5,0.9-19.7,6.4-25.6,15.1
					C386.3,579.9,384.3,578.8,385.1,577.6z"/>
			</g>
			<g>
				
					<linearGradient id="SVGID_7_" gradientUnits="userSpaceOnUse" x1="3360.792" y1="636.3463" x2="3650.8162" y2="470.0656" gradientTransform="matrix(0.7413 0.6711 -0.6711 0.7413 -1787.2161 -2289.5576)">
					<stop  offset="0" style="stop-color:#9463D3"/>
					<stop  offset="1" style="stop-color:#3F53C4"/>
				</linearGradient>
				<path class="st7" d="M620.1,512.5l0.1-0.1c0.8-0.6,1.2-0.9,1.2-0.9c-0.6-0.9-1.2-1.7-1.8-2.4l-0.1-0.2l0,0
					c-15.3-18.8-34.3-0.5-34.3-0.5C600.3,524.1,615.5,515.6,620.1,512.5z"/>
				
					<linearGradient id="SVGID_8_" gradientUnits="userSpaceOnUse" x1="3363.7461" y1="641.4951" x2="3653.7676" y2="475.216" gradientTransform="matrix(0.7413 0.6711 -0.6711 0.7413 -1787.2161 -2289.5576)">
					<stop  offset="0" style="stop-color:#9463D3"/>
					<stop  offset="1" style="stop-color:#3F53C4"/>
				</linearGradient>
				<path class="st8" d="M589.1,548.2c-0.3-1-0.7-1.9-1.1-2.8l-0.1-0.3l0,0c-5.8-12.8-16-13.9-23.5-12.5c8.8-7.4,16-16.1,21.7-26.2
					c0.1,0,0.1,0,0.2,0c0,0,0.1-0.2,0.1-0.5c3.2-5.7,6-11.9,8.2-18.4c1.9-5.5,3.4-11.1,4.6-16.7c19.8,12.2,32.7-5.3,32.7-5.3
					c-0.7-0.6-1.4-1.2-2.1-1.8l-0.2-0.2l0,0c-14.4-11.2-26,0.1-29.8,4.8c2.3-11.3,3.5-22.8,4.3-34.4c20,12.6,33-5.1,33-5.1
					c-0.7-0.7-1.4-1.2-2.1-1.8l-0.2-0.2l0,0c-15.5-12-27.6,1.9-30.6,5.8c0.4-6.5,0.8-13.1,1.1-19.6c0-0.5-0.1-0.9-0.4-1.1
					c1.8-3.9,8.8-21.9-9.6-29.8l0,0l-0.3-0.1c-0.8-0.3-1.6-0.6-2.5-0.9c0,0-0.2,0.5-0.5,1.4l0,0.1c-1.6,4.7-5.1,19.6,10.9,29.2
					c-0.6,0.3-1,0.8-1.1,1.6c-0.2,3.4-0.4,6.9-0.5,10.3c-2.4-6.6-7.9-14-20.6-13l0,0l-0.3,0c-0.9,0.1-1.8,0.2-2.7,0.3
					c0,0,0,0.5,0.2,1.4l0,0.1l0,0c0.7,4.9,4.5,19.5,22.8,20.8c-0.4,6.1-1,12.2-1.7,18.3c-1.7-3.9-5-7.5-11-10.1l0,0l-0.3-0.1
					c-0.8-0.3-1.6-0.6-2.5-0.9c0,0-0.2,0.5-0.5,1.3l-0.1,0.1l0,0c-1.6,4.7-5.1,19.7,11,29.3c-1.8,8.1-4.2,16.1-7.5,23.7
					c-0.3,0.8-0.7,1.5-1,2.2c-0.5-7.8-4-17.9-18.3-20.2l0,0l-0.1,0c-1-0.2-2-0.3-3.2-0.4c0,0-4.1,21.3,17.4,28.8
					c-5.7,9.8-13,18.2-21.6,25c3.7-6.9,6.5-18-5.3-27.5l0,0l-0.2-0.2c-0.7-0.6-1.5-1.2-2.4-1.8c0,0-0.4,0.4-0.9,1.1l-0.1,0.2
					c-3,4.3-10.9,18.5,2.3,33c-8.6,5.7-18.2,10.2-28.5,13.4c0,0,0,0-0.1,0c4.9-6.1,9.2-16.1-0.1-27.5l0,0l-0.1-0.2
					c-0.6-0.7-1.3-1.5-2-2.3c0,0-16.9,12.9-6.6,32.5c-17.7,4.9-35.8,8.9-51.7,17.9c3.7-8.9,6.6-24.1-10.5-34.3l0,0l-0.4-0.2
					c-1-0.6-2-1.1-3.1-1.7c0,0-14.4,22.5,6.8,40.8c-1.7,1.2-3.3,2.4-4.9,3.7c-6.2,5.1-11.3,11.2-15.6,17.9c1.7-10,0.3-24-17.3-31.2
					l0,0l-0.3-0.1c-1.2-0.5-2.4-0.9-3.6-1.3c0,0-0.3,0.7-0.8,2.1l0,0c-2.1,6.6-6.7,27.5,15.9,40.6c1.7,0,3.3,0.8,4,2.3
					c23,12.9,38.7-1.8,43.3-7l0,0c0.9-1,1.3-1.7,1.3-1.7c-1-0.9-2-1.7-3-2.5l-0.3-0.2l0,0c-15.7-11.8-28.7-5.1-36.3,1.7
					c5.4-8.4,12-15.9,20.4-21.9c0.2,0.1,0.3,0.2,0.4,0.3c0,0,0.3-0.4,0.8-1.2c0.4-0.3,0.9-0.6,1.4-0.9c24.1,20.7,44.4-0.4,44.4-0.4
					c-0.8-1-1.6-1.9-2.4-2.7l-0.2-0.2l0,0c-5.1-5.2-10.2-7.7-15-8.4c9.4-2.9,19.1-5.2,28.7-7.9c0.1,0.1,0.2,0.3,0.3,0.4
					c0,0,0.4-0.3,1-0.8c0.4-0.1,0.8-0.2,1.1-0.3c10.7,19,27.5,14.7,32.7,12.8l0,0l0,0c1-0.4,1.6-0.6,1.6-0.6c-0.3-1-0.7-1.9-1.1-2.8
					l-0.1-0.2l0,0c-5.4-11.8-14.5-13.7-21.8-12.8c4.4-1.6,8.8-3.4,13-5.5c3.7-1.9,7.2-4,10.6-6.2c10.7,16.1,26.2,12.1,31.1,10.3
					c0,0,0,0,0,0l0,0C588.5,548.5,589.1,548.2,589.1,548.2z"/>
			</g>
			<g>
				
					<linearGradient id="SVGID_9_" gradientUnits="userSpaceOnUse" x1="4350.9023" y1="116.0963" x2="4568.6353" y2="-8.7374" gradientTransform="matrix(-0.9586 0.2848 0.2848 0.9586 4648.4043 -826.9705)">
					<stop  offset="0" style="stop-color:#9463D3"/>
					<stop  offset="1" style="stop-color:#3F53C4"/>
				</linearGradient>
				<path class="st9" d="M254.2,462.9l-0.1-0.1c-0.4-0.6-0.5-1-0.5-1c0.7-0.4,1.4-0.7,2-1.1l0.1-0.1l0,0
					c16.5-7.8,23.4,10.8,23.4,10.8C263.8,477.2,256.2,466.5,254.2,462.9z"/>
				
					<linearGradient id="SVGID_10_" gradientUnits="userSpaceOnUse" x1="4353.1206" y1="119.9618" x2="4570.8511" y2="-4.8705" gradientTransform="matrix(-0.9586 0.2848 0.2848 0.9586 4648.4043 -826.9705)">
					<stop  offset="0" style="stop-color:#9463D3"/>
					<stop  offset="1" style="stop-color:#3F53C4"/>
				</linearGradient>
				<path class="st10" d="M263.5,497.1c0.6-0.6,1.1-1,1.6-1.5l0.1-0.1l0,0c8.1-6.8,15.3-4.2,20-0.8c-3.6-7.8-5.6-16.1-6.2-24.8
					c0,0-0.1,0-0.1,0c0,0,0-0.2,0.1-0.4c-0.3-4.9-0.2-10,0.4-15.1c0.5-4.3,1.3-8.6,2.3-12.8c-17.4,1.8-20.4-14.2-20.4-14.2
					c0.7-0.2,1.3-0.4,2-0.5l0.2-0.1l0,0c13.4-2.9,17.6,8.5,18.6,13c2.1-8.4,5-16.6,8.2-24.7c-17.6,2-20.7-14.1-20.7-14.1
					c0.7-0.2,1.3-0.4,2-0.5l0.2-0.1l0,0c14.4-3.1,18.1,10.3,18.8,13.8c1.8-4.6,3.7-9.1,5.6-13.6c0.1-0.4,0.4-0.6,0.6-0.6
					c0.1-3.2,1.2-17.7,16.2-17.1l0,0l0.2,0c0.6,0,1.3,0.1,2,0.2c0,0,0,0.4-0.1,1.1l0,0.1c-0.4,3.7-2.9,14.9-16.9,16.2
					c0.3,0.4,0.4,0.9,0.2,1.4c-1,2.4-2,4.8-3,7.2c3.8-3.7,9.9-6.9,18.1-2.1l0,0l0.2,0.1c0.6,0.3,1.1,0.7,1.7,1.1
					c0,0-0.2,0.4-0.6,0.9l0,0.1l0,0c-2.1,3.1-9.4,11.7-22.1,6.7c-1.7,4.3-3.3,8.6-4.8,12.9c2.4-2.1,5.8-3.5,10.7-3.3l0,0l0.2,0
					c0.6,0,1.3,0.1,2,0.2c0,0,0,0.4-0.1,1.1l0,0.1l0,0c-0.4,3.7-2.9,15-16.9,16.2c-1.4,6.1-2.4,12.2-2.7,18.5c0,0.6,0,1.2,0,1.8
					c2.8-5.1,8.5-10.8,19-7.7l0,0l0,0c0.7,0.2,1.5,0.5,2.3,0.8c0,0-4.2,15.8-21.1,13.9c0.7,8.5,2.9,16.5,6.5,24
					c-0.3-5.9,1.5-14.3,12.5-16.9l0,0l0.2,0c0.7-0.2,1.4-0.3,2.2-0.4c0,0,0.1,0.4,0.2,1.1l0,0.2c0.6,3.9,1.4,16.1-12.3,21.6
					c3.9,6.7,9,12.8,15,18.3c0,0,0,0,0,0c-1.3-5.7-1-13.9,9-18.6l0,0l0.1-0.1c0.7-0.3,1.4-0.6,2.1-0.9c0,0,7.3,14.3-6.1,24.1
					c10.4,9.1,21.4,17.6,29.2,28.9c0.3-7.2,3.3-18.4,18.2-19.8l0,0l0.3,0c0.8-0.1,1.7-0.1,2.7-0.1c0,0,2.4,19.9-17.8,25.4
					c0.7,1.3,1.5,2.7,2.1,4.1c2.5,5.5,4,11.2,4.7,17.2c2.1-7.3,7.6-16.3,21.8-15.5l0,0l0.3,0c0.9,0.1,1.9,0.2,2.9,0.3
					c0,0,0,0.6-0.1,1.6v0c-0.7,5.2-4.4,20.8-23.9,22.3c-1.1-0.5-2.5-0.5-3.5,0.2c-19.8,1.3-25.6-13.8-27-18.8l0,0
					c-0.3-1-0.4-1.6-0.4-1.6c1-0.3,1.9-0.5,2.8-0.7l0.3-0.1l0,0c14.4-2.9,21.1,5.9,24,13c-0.9-7.4-3-14.7-6.7-21.4
					c-0.1,0-0.3,0.1-0.4,0.1c0,0-0.1-0.4-0.1-1.1c-0.2-0.3-0.4-0.7-0.6-1c-23,6.2-29.9-14.7-29.9-14.7c0.9-0.4,1.7-0.7,2.5-1.1
					l0.2-0.1l0,0c5.1-1.9,9.4-1.9,12.9-0.8c-5.4-5.1-11.3-9.7-16.9-14.7c-0.1,0.1-0.2,0.1-0.3,0.2c0,0-0.2-0.3-0.5-0.9
					c-0.2-0.2-0.4-0.4-0.7-0.6c-13.4,9.4-23.4,1-26.3-1.9l0,0l0,0c-0.6-0.6-0.8-0.9-0.8-0.9c0.6-0.5,1.1-1,1.6-1.5l0.2-0.1l0,0
					c7.5-6.3,14.2-4.6,18.9-1.6c-2.5-2.5-4.9-5.1-7-8c-1.9-2.5-3.6-5-5.1-7.6c-12.4,7.4-21.6-0.3-24.4-3.1c0,0,0,0,0,0l0,0
					C263.8,497.5,263.5,497.1,263.5,497.1z"/>
			</g>
			<g>
				<g>
					<g>
						<path class="st11" d="M419.5,56c50.8,0,89.3,15.8,115.3,47.4c20.7,24.9,31.1,54.2,31.1,87.9c0,56.3-29.4,109.8-88.1,160.5
							c-20.5,17.7-31.4,38.3-32.7,61.8c-0.7,7.8-1,16.5-1,26.1v32.6L416.3,485l-67-12.7v-32.6c0-51.3,14.5-89.5,43.6-114.4
							c31.4-27,53-54.7,64.7-83.1c6.7-16.5,10-33.9,10-52.2c0-18.9-4.8-33.6-14.5-44.4c-10.7-12.5-26.2-17.5-46.6-15.2
							c-19.1,2-32.8,13.5-41.1,34.4c-3.7,8.7-6.2,18.9-7.5,30.5L330,207.9l-63.4-26.6c3.3-33.9,16.4-62.5,39.1-85.7
							c15.4-15.7,36.8-27,64.2-33.9C384.2,57.9,400.8,56,419.5,56z M349.3,529.3h94.8V612l-27.8,12.7l-67-12.7l-27.8-70L349.3,529.3
							z"/>
					</g>
					<g>
						<g>
							<linearGradient id="SVGID_11_" gradientUnits="userSpaceOnUse" x1="238.7577" y1="346.6642" x2="538.1209" y2="346.6642">
								<stop  offset="0" style="stop-color:#FAC600"/>
								<stop  offset="1" style="stop-color:#FBB606"/>
							</linearGradient>
							<path class="st12" d="M536.8,183.8c-0.4-3.1-0.9-6.2-1.6-9.3c-4.4-21.6-13.8-41-28.2-58.4c-4.2-5.1-8.7-9.8-13.6-14
								c-25.2-22.3-59.2-33.4-101.8-33.4c-18.7,0-35.3,1.9-49.6,5.7c-27.4,7-48.8,18.3-64.2,33.9c-22.7,23.2-35.8,51.8-39.1,85.7
								l91.3,13.9c1.3-11.6,3.8-21.8,7.5-30.5c8.4-20.9,22.1-32.3,41.1-34.4c20.4-2.3,35.9,2.8,46.6,15.2c2.7,3,5,6.3,7,10
								c5,9.4,7.6,20.8,7.6,34.4c0,18.3-3.4,35.7-10,52.2c-11.7,28.4-33.3,56.1-64.7,83.1c-17.8,15.2-30.1,35.4-37,60.5
								c-1.3,4.7-2.4,9.5-3.3,14.5c-2.2,12.1-3.3,25.3-3.3,39.4V485h94.8v-32.6c0-9.6,0.3-18.3,1-26.1c1.3-23.5,12.3-44.1,32.7-61.8
								c52.8-45.6,81.9-93.5,87.2-143.6c0.6-5.6,0.9-11.3,0.9-16.9C538.1,197.1,537.7,190.3,536.8,183.8z M321.5,542v82.7h94.8V542
								H321.5z"/>
						</g>
					</g>
				</g>
				<g class="st13">
					<path class="st14" d="M535.2,174.5L328.1,398.4c6.9-25.1,19.3-45.2,37-60.5c31.4-27,53-54.7,64.7-83.1
						c6.7-16.5,10-33.9,10-52.2c0-13.6-2.5-25-7.6-34.4l61.2-66.2c4.8,4.3,9.4,8.9,13.6,14C521.5,133.5,530.9,152.9,535.2,174.5z"/>
					<path class="st14" d="M538.1,204c0,5.7-0.3,11.3-0.9,16.9L321.5,454.2v-1.8c0-14.1,1.1-27.3,3.3-39.4l212-229.2
						C537.7,190.3,538.1,197.1,538.1,204z"/>
				</g>
				<g>
					<path class="st15" d="M464.2,346.1l-37.7,28.6l-24.8-19.5l-0.7,0c-1.3-2.2-4.1-6.6-5.7-7.5c-2.2-1.2-7-1.4-7-1.4
						s-6.2-5.1-6.4-3.3c-0.2,1.8,2.2,4.5,2.2,4.5s-12.5-3.7-12.9-1.9c-0.4,1.8,1.7,10.6,10.7,9.5c9.1-1.1,8.8-0.3,8.8-0.3
						s15.8,32.7,34.8,35.7c14.7,2.4,47.3-23.2,47.3-23.2S485.5,349.1,464.2,346.1z"/>
					<g>
						<path class="st16" d="M464.2,340.3l-37.7,28.6l-24.8-19.5l-0.7,0c-1.3-2.2-4.1-6.6-5.7-7.5c-2.2-1.2-7-1.4-7-1.4
							s-6.2-5.1-6.4-3.3c-0.2,1.8,2.2,4.5,2.2,4.5s-12.5-3.7-12.9-1.9c-0.4,1.8,1.7,10.6,10.7,9.5c9.1-1.1,8.8-0.3,8.8-0.3
							s15.8,32.7,34.8,35.7c14.7,2.4,47.3-23.2,47.3-23.2S485.5,343.3,464.2,340.3z"/>
						<path class="st17" d="M478.3,327.7c0,0-29.9,20.1-33.6,24.4c-4.7,5.5,0.4,26.9,8.2,25.8c7.9-1.1,21.4-10.9,21.4-10.9
							L478.3,327.7z"/>
					</g>
					<g>
						<path class="st18" d="M559.9,383.5c-1-14.4-33.4-46.9-33.4-46.9c-18.8-10.5-9.7,15-9.7,15s20.2,44.1,34.4,45.4
							C555.3,397.4,560.3,388.8,559.9,383.5z"/>
						<path class="st17" d="M514.6,327.9c11.5-5.6,38.9,34.3,34.3,37.7c-4.6,3.4-14.8,20.7-20.4,15c-5.6-5.6-12.2-21.1-12.2-21.1
							S507.4,331.3,514.6,327.9z"/>
					</g>
					<g>
						<g>
							<g>
								<g>
									<polygon class="st19" points="533,600.5 536.8,615.2 525.9,617.4 521.4,600.7 									"/>
									<path class="st20" d="M542.7,618.1l-5.5-8.5h-14.2c0,0-1,6.2,1.4,10.5c2.5,4.2,8.5,4.1,8.5,4.1L542.7,618.1z"/>
									<path class="st21" d="M533,624.2c0,0,0.3-8.2,9.7-8.2c9.5,0,7.9,8.2,7.9,8.2H533z"/>
								</g>
								<path class="st21" d="M536.4,605.7c0,0-3.1,1-7.3,1.3c-2.3,0.2-5,0.2-7.6-0.2c-4.1-0.7-12.8-41.3-18.8-75.5
									c-3.2-18.2-5.9-35.1-7.3-44.2c0,0,0.1-0.1,0.1-0.3c0.3-2.7-1.8-21.1-6.1-29.2c-2.5-4.8-5.8-9.1-8.8-13.5
									c-3.4-5.1-5.2-4.2-6.8-10.1c-0.4-1.6-0.7-3.1-1-4.7c17.7-3.4,25.2-1.4,25.2-1.4s27.6-3.6,28,3.8c0.3,6.9,4,45.9,4,45.9
									L536.4,605.7z"/>
							</g>
							<g>
								<g>
									<polygon class="st19" points="467.1,600.5 463.3,615.2 474.2,617.4 478.7,600.7 									"/>
									<path class="st21" d="M500.9,435.4c0,0-19.3-6.2-36.8-7.7c-0.2,1.6,1.9,81.3,3,86.4c1,4.5-5.2,90.5-2.2,91.7
										c4,1.6,13.3,1.7,14.4-0.8c9.9-21.8,8.3-59.1,13.7-90.9C500.8,468.9,500.9,435.4,500.9,435.4z"/>
								</g>
								<path class="st20" d="M457.4,618.1l5.5-8.5H477c0,0,1,6.2-1.4,10.5c-2.5,4.2-8.5,4.1-8.5,4.1L457.4,618.1z"/>
								<path class="st21" d="M467.1,624.2c0,0-0.3-8.2-9.7-8.2c-9.5,0-7.9,8.2-7.9,8.2H467.1z"/>
							</g>
						</g>
						<path class="st20" d="M529.1,607.2c-2.3,0.2-5,0.2-7.6-0.2c-4.1-0.7-12.8-41.3-18.8-75.5c-3.2-18.2-5.9-35.1-7.3-44.2l0.1-0.3
							l8.7-33.5c0,0-1.4,42.3,0,53C505.5,517,528,603.2,529.1,607.2z"/>
						<path class="st22" d="M464.1,427.7l0,8.1c0,0,24.1,12.8,36.4,12.1c12.3-0.7,20.9-0.3,26-8.4l-0.6-8.1L464.1,427.7z"/>
					</g>
					<path class="st17" d="M493.3,325.3c-6.4,0.4-21.3-1.3-23.9,9.3c-3.1,12.8-14.1,90.3-5.3,96.9c20.9,15.4,57.6,11,62.2,2.6
						c8.8-16.1-0.5-97.6-6.6-105.6C518.4,326.8,503.5,324.8,493.3,325.3z"/>
					<g>
						<path class="st23" d="M505.4,327.6c0,0-1.2-14.6-1.2-17.2c0-2.7,4.4-8.7,0.6-15.8c-3.8-7.1-19.8-5.9-23.3,2.3
							c-3.6,8.2-3.2,28.2,2.5,27.2c5.7-1.1,5.5-2.1,5.5-2.1l-0.7,11c0,0,2,6.9,9.4,2C505.6,329.9,505.4,327.6,505.4,327.6z"/>
						<path class="st24" d="M489.4,321.9l8.5-5.6c0,0-4.9,9.6-8.8,11.4L489.4,321.9z"/>
						<path class="st24" d="M479.6,303.8l-0.3,2.1c0,0,3.4,0.9,8.8-1c5.4-1.9,8-7,8-7s-0.9,7.9,1.1,8.3c2,0.4,4.1-5.2,4.1-5.2
							l1.2,8.4l0.9-12.1l-5.7-4L479.6,303.8z"/>
						<path class="st11" d="M496,295.3c0,0-9.2,10.3-16.3,8.5c-7.1-1.8-13.8-8.8-9.8-13.9c4.1-5.1,6.4-22.5,21.3-18.1
							c0,0,12.8,1.4,11.4,6.2c0,0,10.3,0,9.4,8.3c-0.9,8.3-2.7,22.2-6.4,23.6c-3.7,1.4-2.8-2.1-2.8-2.1l-0.5-8c0,0-1.4-1.8-2,1.8
							c-0.5,3.6-2.5,4.4-2.8,0.4C497,298,499.9,295.8,496,295.3z"/>
					</g>
					<g>
						<g>
							<path class="st25" d="M510.3,343l-7.8,3.8c-0.8,0.4-1.3,1.4-1.1,2.3l5.4,25.7c0.3,1.4,1.7,2.1,3,1.5l7.8-3.8
								c0.8-0.4,1.3-1.4,1.1-2.3l-5.4-25.7C513,343.1,511.5,342.4,510.3,343z"/>
							<path class="st26" d="M511.3,344.7l-7.6,3.7c-0.8,0.4-1.3,1.3-1.1,2.2l4.8,24c0.3,1.3,1.6,2,2.8,1.4l7.6-3.7
								c0.8-0.4,1.3-1.3,1.1-2.2l-4.8-24C513.8,344.8,512.4,344.2,511.3,344.7z"/>
						</g>
						<path class="st16" d="M514.8,353.4c0,0-1-4.7,0.4-3.9c1.4,0.8,4.2,7.2,4.6,11.4c0.4,4.2-1.5,9.9-1.5,9.9s-11.5,0.4-15-5.6
							c-3.5-6-2.2-12.6-2.2-12.6s7.5,4.8,10.3,3.4C514.4,354.6,514.8,353.4,514.8,353.4z"/>
						<path class="st16" d="M519.9,360.9c0,0,13.3,11.4,19.2,12.9c5.9,1.4,10.8,3.5,10.8,3.5s13.4,9.2,7.8,16.6
							c-5.6,7.3-15.1,0.6-20.2-4.7c-5.1-5.4-19.1-18.2-19.1-18.2S517.3,361.3,519.9,360.9z"/>
					</g>
				</g>
				<g>
					<g>
						<g class="st27">
							<path class="st28" d="M534.4,293.7l95.7-0.6c2.9,0,5.2,2.3,5.3,5.2l0.2,34.5c0,2.9-2.3,5.2-5.2,5.3l-75.7,0.5
								c-4.8,5.6-10.5,13-10.5,13l-2.9-12.9l-6.6,0c-2.9,0-5.2-2.3-5.3-5.2l-0.2-34.5C529.2,296.1,531.5,293.7,534.4,293.7z"/>
						</g>
						<path class="st25" d="M536.4,287l95.7-0.6c2.9,0,5.2,2.3,5.3,5.2l0.2,34.5c0,2.9-2.3,5.2-5.2,5.3l-75.7,0.5
							c-4.8,5.6-10.5,13-10.5,13l-2.9-12.9l-6.6,0c-2.9,0-5.2-2.3-5.3-5.2l-0.2-34.5C531.1,289.4,533.5,287,536.4,287z"/>
					</g>
					<g>
						<rect x="571.9" y="296.5" class="st14" width="56.8" height="4.3"/>
						<rect x="571.9" y="314.4" class="st14" width="56.8" height="4.3"/>
						<rect x="571.9" y="305.4" class="st14" width="56.8" height="4.3"/>
					</g>
					<g>
						<path class="st14" d="M550,313.8c-0.2-0.4-0.2-0.8-0.2-1.3c0-4.8,4.7-5.2,4.7-10.6c0-1.6-0.8-2.1-2.2-2.1
							c-1.4,0-2.2,0.6-2.2,2.1v2.4h-4.1V302c0-3.5,2.2-5.5,6.3-5.5c4.2,0,6.3,2,6.3,5.5c0,5.7-5.1,6.5-5.1,10.5c0,0.4,0,0.8,0.2,1.2
							H550z M554,315.3v3.3h-4.2v-3.3H554z"/>
					</g>
				</g>
			</g>
		</g>
		<g>
			<g>
				<g>
					<g>
						<path class="st29" d="M246.7,598.6l0.6,12.4c0,0-11.2,1.8-10.9,1c0.2-0.7,0.4-21,0.4-21L246.7,598.6z"/>
						<path class="st30" d="M248.2,610.1c0,0-10.6,2.1-12,0.5c0,0-1.1-3.8-2.2,0.7c-1.1,4.5-1.3,7.9,0.2,8.9
							c1.5,1,31.4,1.3,31.4,1.3s3.5-3.8-3.5-5.2C255.2,615,248.2,610.1,248.2,610.1z"/>
					</g>
					<g>
						<path class="st29" d="M166,595l-3.5,11.9c0,0-11.1-1.9-10.7-2.5c0.5-0.6,7.1-19.8,7.1-19.8L166,595z"/>
						<path class="st30" d="M163.7,606.4c0,0-10.7-1.4-11.5-3.4c0,0,0.2-4-2.3,0c-2.5,3.9-3.8,7.1-2.7,8.5
							c1.1,1.4,29.3,11.4,29.3,11.4s4.5-2.5-1.6-6C168.7,613.2,163.7,606.4,163.7,606.4z"/>
					</g>
					<path class="st20" d="M234.5,418.2c0,0,12.7,98.5,14,101.1c1.3,2.6,2.3,86.7,2.3,86.7s-18.9,3.9-18.3-1.3
						c0.7-5.2-20.2-120.5-20.2-120.5s-22.2-45.1-13-62.7C208.4,403.8,234.5,418.2,234.5,418.2z"/>
					<path class="st21" d="M228.2,417.9c-22,100-29.3,113.4-29.3,113.4l-34.7,72.8c0,0-19.1-2.8-16.7-7.5
						c2.4-4.7,27.6-97.3,27.6-97.3s-10.8-72.8,3.8-86.2C193.4,399.7,228.2,417.9,228.2,417.9z"/>
				</g>
				<g>
					<path class="st19" d="M313.5,342.3l-42.4,5.5l-25.3-11.3c-1.5,0.7-6.2,16.4-9.4,20c10,8.3,16.9,1.8,25.7,6
						c0,0,49.6-12.4,51.7-10.4C312.7,339.7,313.5,342.3,313.5,342.3z"/>
					<path class="st19" d="M330.7,349.6c0.6,2.1-1.5,4.4-3,5.7c-8.5-0.6-15.4,0.9-21.9,2.9c-0.3-4.2-1.2-8.3-2.7-12.2
						c7.2-2,12.8-4.4,13.2-5.7c0.7-2,2.5-4.9,4.5-3.4c1.7,1.3,0.4,4,0.4,4S329.8,346.4,330.7,349.6z"/>
					<path class="st21" d="M249.9,335.5c0.5-6.5-16.4-19.4-16.4-19.4c-8.4-8.5-25.5,0-21.1,14.6c1.4,4.8,10.7,14.6,22.1,24.2
						C237.9,351.1,249.8,336.8,249.9,335.5z"/>
				</g>
				<path class="st17" d="M239.2,419.9c-5.9,1.5-11.9,2.5-17.7,3.2c-22.5,2.7-43,0.4-48.4-1.6c-0.1,0-0.2-0.1-0.2-0.1
					c-0.7-0.3-1.1-0.6-1.1-0.9l0-0.1c13.6-37.3,7.3-29.5,15.6-68.6c4.6-21.7,6.8-27.1,11.3-33.6c5.1-7.5,12.9-12.7,19-12.7
					c0,0,9.5,2.7,13.9,8.9c1.2,1.7,4.4,8.5,5.7,10.8c3.1,6,4.5,23.2,4.1,39C240.9,386.2,239.2,419.9,239.2,419.9z"/>
				<g>
					<path class="st25" d="M177.2,371.6l130.6-31.2c3.9-0.9,7.9,1.5,8.8,5.4l11.3,47.1c0.9,3.9-1.5,7.9-5.4,8.8l-130.6,31.2
						c-3.9,0.9-7.9-1.5-8.8-5.4l-11.3-47.1C170.9,376.5,173.3,372.5,177.2,371.6z"/>
					<g>
						<linearGradient id="SVGID_12_" gradientUnits="userSpaceOnUse" x1="263.3779" y1="376.9777" x2="309.4701" y2="376.9777">
							<stop  offset="0" style="stop-color:#FAC600"/>
							<stop  offset="1" style="stop-color:#FBB606"/>
						</linearGradient>
						<circle class="st31" cx="286.4" cy="377" r="23"/>
						<g>
							<g>
								<path class="st32" d="M274.2,373.4c0.3,1.4,1.7,2.2,3,1.9c1.4-0.3,2.2-1.7,1.9-3c-0.3-1.4-1.7-2.2-3-1.9
									C274.7,370.7,273.9,372,274.2,373.4z"/>
							</g>
						</g>
						<g>
							<g>
								<path class="st32" d="M290.7,369.6c0.3,1.4,1.7,2.2,3,1.9c1.4-0.3,2.2-1.7,1.9-3c-0.3-1.4-1.7-2.2-3-1.9
									C291.2,366.9,290.4,368.2,290.7,369.6z"/>
							</g>
						</g>
						<g>
							<path class="st33" d="M279.7,381.6c0.5,2.3-1,4.5-3.2,5c-2.3,0.5-4.5-1-5-3.2c-0.5-2.3,1-4.5,3.2-5
								C277,377.9,279.2,379.3,279.7,381.6z"/>
							<path class="st33" d="M302.7,376.7c0.5,2.3-1,4.5-3.2,5c-2.3,0.5-4.5-1-5-3.2c-0.5-2.3,1-4.5,3.2-5
								C299.9,373,302.2,374.4,302.7,376.7z"/>
						</g>
						<path class="st32" d="M288.6,387.4c5.3-1.1,8.8-6.3,7.7-11.6c-0.1-0.3-0.4-0.5-0.7-0.5c-0.3,0.1-0.5,0.4-0.5,0.7
							c0.9,4.7-2.1,9.3-6.8,10.2c-4.7,0.9-9.3-2.1-10.2-6.8c-0.1-0.3-0.4-0.5-0.7-0.5c-0.3,0.1-0.5,0.4-0.5,0.7
							C278.1,385,283.3,388.5,288.6,387.4z"/>
					</g>
					<g>
						<path class="st14" d="M190.9,391.1l59.9-13.8c1.2-0.3,2-1.8,1.6-3.5c-0.4-1.6-1.7-2.7-2.9-2.4l-59.9,13.8
							c-1.2,0.3-2,1.8-1.6,3.5C188.3,390.3,189.6,391.4,190.9,391.1z"/>
						<path class="st14" d="M252.2,383.1L192.2,397c-1.2,0.3-2,1.8-1.6,3.5c0.4,1.6,1.7,2.7,2.9,2.4l59.9-13.8
							c1.2-0.3,2-1.8,1.6-3.5C254.7,383.9,253.4,382.8,252.2,383.1z"/>
						<path class="st14" d="M254.9,394.9L195,408.8c-1.2,0.3-2,1.8-1.6,3.5c0.4,1.6,1.7,2.7,2.9,2.4l59.9-13.8
							c1.2-0.3,2-1.8,1.6-3.5C257.5,395.8,256.1,394.7,254.9,394.9z"/>
					</g>
				</g>
				<g>
					<path class="st19" d="M292,402.6c0,0,6.1-4.5,5.3-6.4c-0.9-2.3-4.2-0.4-9.2,3.4c-0.7,0.5-3,4.5-13.9,0.1l-31.6-13.8l-17.1-39
						c-9.5,1.7-11.7,2.4-20.9,5.5c4.6,14,16.3,41.5,22.7,51c0,0,49.7,6.4,50.6,9.2c0.1-0.2,0.2-0.4,0.2-0.5c4,1.4,8,3.3,12.2,6.1
						c2-0.4,4.9-1.3,5.5-3.4c0.9-3.2,10.3,1.9,10.3,1.9s0.5,0,1.2,0.1c0.4-1.3,0.5-2.2,0.5-2.2C302,405.8,292,402.6,292,402.6z"/>
					<path class="st21" d="M231.2,354.9c4.1-3.3-7.5-24.7-7.5-24.7c-3-11.6-22-12.9-25.6,2c-1,4.1-0.9,19.2,8.6,30.4
						C214.5,362.7,223.9,360.8,231.2,354.9z"/>
				</g>
				<path class="st19" d="M318.3,343.9c0,0-7.8,13.4-2.9,14.6c4.9,1.2,12.2-3.2,12.2-3.2S327.9,343.9,318.3,343.9z"/>
				<g>
					<path class="st34" d="M221.5,295.8c-1,3.5-1.5,8.1-5.5,12c-4,3.9-3.5,2.6-4,3.9c-1.9,4.3,10.9,13.8,15.8,10.2
						c2.4-1.7,2.2-8,5.7-10.3C237,309.3,221.5,295.8,221.5,295.8z"/>
					<path class="st19" d="M252.5,297.5c0-0.1,0-0.1,0.1-0.2c2.3-7.2,5.2-12.5,3.6-18.1c-0.1-0.5-2-2-2.8-2.9
						c-4.7-11.4-31.9-8.9-33.4-1c-6.7,33.9,6.7,38.7,13,40.2c3.2,0.7,4.9,1.3,7.6,0.1c2.5-1.1,5.4-3.9,7.7-8.5
						c2.1-0.1,4.4,0.2,4.8-1c0.1-0.2,0.2-0.3,0.2-0.6C252.5,303.3,252.8,299.2,252.5,297.5z"/>
					<path class="st20" d="M259.3,276.6c-3.3,1.8-8.3-9.4-18-13.4c-3.1-1.3-6-2.4-8.6-2.3c-6.6-0.9-9,2.4-11.7,4.9
						c-0.7,0.7-12.9,3.3-10.4,19.7c0.7,4.5,1.8,6.6,2,9.3c0.7,7.4-1,8.4-1,8.4s5.9,2.7,7.5,0.3c6.8-10,14-11.1,14-11.1
						s0.3-0.7,0.7-1.8c2.3-0.4,4,0.4,4,0.4s2.2-4.3,5.3-6.9c3.7-3.1,4.1-2.9,6.3-2.9c2.2,0,7.1,3.3,7.1,3.3S264.8,273.7,259.3,276.6
						z"/>
					<path class="st34" d="M235.9,290.2c-0.2-4.4-3.4-4.6-5.3-3c-1.8,1.7-1.3,8.4,0,9.2C234.2,298.8,235.9,290.2,235.9,290.2z"/>
				</g>
			</g>
		</g>
	</g>
</g>
<g>
	<g>
		<path class="st35" d="M601.1,217.5l0.5-0.9l2.6,1.6l-0.5,0.9c-0.9,1.4-1.3,2.2-1.3,2.2l-0.5,0.8l-2.5-1.6l0.5-0.8
			C599.9,219.6,600.3,218.8,601.1,217.5z"/>
		<path class="st35" d="M608.5,204.2c0.7-1.4,1.5-2.9,2.3-4.5l0.4-0.9l2.7,1.4l-0.4,0.9c-0.8,1.6-1.6,3.1-2.3,4.6l-0.5,0.9l-2.7-1.4
			L608.5,204.2z"/>
		<path class="st35" d="M603.7,213.1c0.7-1.3,1.6-2.8,2.5-4.4l0.5-0.9l2.6,1.4l-0.5,0.9c-0.9,1.7-1.7,3.2-2.5,4.5l-0.5,0.9l-2.6-1.5
			L603.7,213.1z"/>
		<path class="st35" d="M613.1,195.2c0.7-1.5,1.4-3,2.2-4.6l0.4-0.9l2.7,1.3l-0.4,0.9c-0.7,1.6-1.5,3.1-2.2,4.6l-0.4,0.9l-2.7-1.3
			L613.1,195.2z"/>
		<path class="st35" d="M621.3,176.6c0.6-1.5,1.2-3.1,1.9-4.7l0.4-0.9l2.8,1.1L626,173c-0.6,1.6-1.2,3.2-1.9,4.8l-0.4,0.9l-2.8-1.1
			L621.3,176.6z"/>
		<path class="st35" d="M572.1,9.8c1.6,0.6,3.2,1.2,4.8,1.9l0.9,0.4l-1.2,2.8l-0.9-0.4c-1.6-0.7-3.1-1.3-4.6-1.9l-0.9-0.4l1.1-2.8
			L572.1,9.8z"/>
		<path class="st35" d="M590.6,18.8c1.4,0.8,2.9,1.7,4.4,2.7l0.8,0.5l-1.6,2.6l-0.8-0.5c-1.4-0.9-2.9-1.8-4.3-2.6l-0.9-0.5l1.5-2.6
			L590.6,18.8z"/>
		<path class="st35" d="M625,167.2c0.6-1.6,1.1-3.2,1.7-4.8l0.3-0.9l2.9,1l-0.3,0.9c-0.6,1.6-1.1,3.2-1.7,4.8l-0.3,0.9l-2.8-1
			L625,167.2z"/>
		<path class="st35" d="M581.5,14c1.5,0.7,3.1,1.5,4.6,2.4l0.9,0.5l-1.4,2.7l-0.9-0.5c-1.5-0.8-3-1.6-4.5-2.3l-0.9-0.4l1.3-2.7
			L581.5,14z"/>
		<path class="st35" d="M599.3,24.3c1,0.6,2,1.3,2.9,2c0.4,0.3,0.9,0.6,1.3,0.9l0.8,0.6l-1.8,2.4l-0.8-0.6c-0.4-0.3-0.8-0.6-1.2-0.9
			c-1-0.7-1.9-1.3-2.9-2l-0.8-0.6l1.7-2.5L599.3,24.3z"/>
		<path class="st35" d="M615.3,37.2c1.2,1.2,2.4,2.5,3.5,3.8l0.7,0.8l-2.3,2l-0.7-0.8c-1.1-1.2-2.2-2.5-3.4-3.6l-0.7-0.7l2.1-2.1
			L615.3,37.2z"/>
		<path class="st35" d="M607.6,30.3c1.4,1.1,2.7,2.2,3.9,3.3l0.7,0.7l-2,2.2l-0.7-0.7c-1.2-1.1-2.5-2.2-3.8-3.2l-0.8-0.6l1.9-2.4
			L607.6,30.3z"/>
		<path class="st35" d="M617.4,186c0.7-1.5,1.3-3.1,2-4.6l0.4-0.9l2.8,1.2l-0.4,0.9c-0.7,1.6-1.4,3.2-2,4.7l-0.4,0.9l-2.8-1.2
			L617.4,186z"/>
		<path class="st35" d="M631.8,68.6c-0.6-1.6-1.2-3.1-1.9-4.6l-0.4-0.9l2.8-1.2l0.4,0.9c0.7,1.6,1.3,3.2,1.9,4.8l0.3,0.9l-2.8,1
			L631.8,68.6z"/>
		<path class="st35" d="M634.7,78.2c-0.4-1.6-0.8-3.3-1.3-4.8l-0.3-1l2.9-0.9l0.3,1c0.5,1.6,1,3.3,1.4,5l0.2,1l-2.9,0.7L634.7,78.2z
			"/>
		<path class="st35" d="M636.6,88.1c-0.2-1.7-0.5-3.4-0.8-4.9l-0.2-1l3-0.6l0.2,1c0.3,1.6,0.6,3.4,0.8,5.1l0.1,1l-3,0.4L636.6,88.1z
			"/>
		<path class="st35" d="M628.2,157.6c0.5-1.6,1-3.2,1.5-4.8l0.3-1l2.9,0.9l-0.3,1c-0.5,1.6-1,3.3-1.5,4.9l-0.3,1l-2.9-0.9
			L628.2,157.6z"/>
		<path class="st35" d="M622.7,50.9c-0.9-1.4-1.9-2.7-2.9-4l-0.6-0.8l2.4-1.9l0.6,0.8c1.1,1.4,2.1,2.8,3.1,4.2l0.6,0.8l-2.5,1.7
			L622.7,50.9z"/>
		<path class="st35" d="M627.8,59.5c-0.8-1.5-1.6-2.9-2.4-4.4l-0.5-0.9l2.6-1.5l0.5,0.9c0.9,1.5,1.7,3,2.5,4.5L631,59l-2.7,1.4
			L627.8,59.5z"/>
		<path class="st35" d="M637.5,98.1c-0.1-1.7-0.2-3.4-0.3-5l-0.1-1l3-0.3l0.1,1c0.2,1.7,0.3,3.4,0.3,5.1l0,1l-3,0.1L637.5,98.1z"/>
		<path class="st35" d="M631.1,147.9c0.4-1.6,0.9-3.3,1.3-4.9l0.2-1l2.9,0.7l-0.2,1c-0.4,1.7-0.8,3.3-1.3,5l-0.3,1l-2.9-0.8
			L631.1,147.9z"/>
		<path class="st35" d="M637.5,108.1c0.1-1.7,0.1-3.4,0.1-5l0-1l3,0l0,1c0,1.7,0,3.4-0.1,5.1l0,1l-3-0.1L637.5,108.1z"/>
		<path class="st35" d="M633.5,138.1c0.4-1.6,0.7-3.3,1-4.9l0.2-1l3,0.6l-0.2,1c-0.3,1.6-0.7,3.3-1,5l-0.2,1l-2.9-0.7L633.5,138.1z"
			/>
		<path class="st35" d="M636.8,118.2c0.2-1.5,0.3-3,0.4-4.5l0.1-1.5l3,0.2l-0.1,1.5c-0.1,1.5-0.3,3.1-0.4,4.6l-0.1,1l-3-0.3
			L636.8,118.2z"/>
		<path class="st35" d="M635.5,128.2c0.3-1.7,0.5-3.4,0.8-5l0.1-1l3,0.4l-0.1,1c-0.2,1.6-0.5,3.3-0.8,5.1l-0.2,1l-3-0.5L635.5,128.2
			z"/>
		<path class="st35" d="M516.2,8.4l1-0.2l0.8,2.9l-1,0.2c-1.6,0.4-3.3,0.9-4.9,1.3l-1,0.3l-0.8-2.9l1-0.3
			C513,9.3,514.6,8.8,516.2,8.4z"/>
		<path class="st35" d="M431.7,19.1c1.6,0.2,3.3,0.3,5,0.4l1,0.1l-0.2,3l-1-0.1c-1.8-0.1-3.4-0.3-5.1-0.4l-1-0.1l0.3-3L431.7,19.1z"
			/>
		<path class="st35" d="M391.9,12.1c1.6,0.4,3.2,0.8,4.9,1.2l1,0.2l-0.7,2.9l-1-0.2c-1.7-0.4-3.3-0.8-5-1.2l-1-0.2l0.8-2.9
			L391.9,12.1z"/>
		<path class="st35" d="M421.6,18c1.6,0.2,3.3,0.4,5,0.6l1,0.1l-0.3,3l-1-0.1c-1.8-0.2-3.4-0.4-5.1-0.6l-1-0.1l0.4-3L421.6,18z"/>
		<path class="st35" d="M411.6,16.5c1.6,0.3,3.3,0.5,5,0.8l1,0.1l-0.4,3l-1-0.1c-1.8-0.3-3.4-0.5-5.1-0.8l-1-0.2l0.5-3L411.6,16.5z"
			/>
		<path class="st35" d="M382,9.6c1.6,0.4,3.3,0.8,4.9,1.3l1,0.3l-0.8,2.9l-1-0.3c-1.7-0.4-3.3-0.9-4.9-1.3l-1-0.2l0.7-2.9L382,9.6z"
			/>
		<path class="st35" d="M401.7,14.5c1.6,0.3,3.2,0.7,4.9,1l1,0.2l-0.6,3l-1-0.2c-1.7-0.3-3.4-0.7-5-1l-1-0.2l0.6-2.9L401.7,14.5z"/>
		<path class="st35" d="M336.2,5l1,0l0.1,3l-1,0c-1.6,0-3.3,0.1-5.1,0.2l-1,0l-0.1-3l1,0C332.9,5.1,334.6,5,336.2,5z"/>
		<path class="st35" d="M562.2,6.7c1.6,0.4,3.3,0.9,5,1.4l1,0.3l-0.9,2.9l-1-0.3c-1.6-0.5-3.2-1-4.8-1.4l-1-0.2l0.7-2.9L562.2,6.7z"
			/>
		<path class="st35" d="M356.6,5.3l1.2,0.1l-0.2,3l-1.2-0.1c-1.6-0.1-3.2-0.2-4.8-0.3l-1,0l0.1-3l1,0C353.3,5.1,355,5.2,356.6,5.3z"
			/>
		<path class="st35" d="M361.9,5.8c1.7,0.2,3.4,0.4,5.1,0.7l1,0.2l-0.5,3l-1-0.1c-1.6-0.2-3.3-0.5-5-0.7l-1-0.1l0.3-3L361.9,5.8z"/>
		<path class="st35" d="M372,7.3c1.6,0.3,3.3,0.7,5,1.1l1,0.2l-0.7,2.9l-1-0.2c-1.7-0.4-3.3-0.7-4.9-1l-1-0.2l0.6-3L372,7.3z"/>
		<path class="st35" d="M346.5,4.9l1,0l0,3l-1,0c-1.6,0-3.3,0-5.1,0l-1,0l0-3l1,0C343.1,4.9,344.8,4.9,346.5,4.9z"/>
		<path class="st35" d="M536.5,4.7l1-0.1l0.3,3l-1,0.1c-1.6,0.1-3.3,0.3-5,0.6l-1,0.1l-0.4-3l1-0.1C533.1,5,534.8,4.8,536.5,4.7z"/>
		
			<rect x="500.8" y="11.8" transform="matrix(0.9622 -0.2722 0.2722 0.9622 15.4377 137.7984)" class="st35" width="7.1" height="3"/>
		<path class="st35" d="M526.3,6.1l1-0.2l0.6,3l-1,0.2c-1.6,0.3-3.2,0.6-4.9,1l-1,0.2l-0.7-2.9l1-0.2C523,6.8,524.6,6.4,526.3,6.1z"
			/>
		<path class="st35" d="M546.8,4.5l1,0l-0.1,3l-1,0c-1.6-0.1-3.3-0.1-5,0l-1,0l-0.1-3l1,0C543.4,4.4,545.1,4.4,546.8,4.5z"/>
		<path class="st35" d="M552,4.9c1.7,0.2,3.4,0.5,5.1,0.8l1,0.2l-0.5,3l-1-0.2c-1.6-0.3-3.3-0.5-4.9-0.7l-1-0.1l0.3-3L552,4.9z"/>
		<path class="st35" d="M496.6,13.9l1-0.3l0.8,2.9l-1,0.3c-1.6,0.4-3.3,0.9-4.9,1.3l-1,0.2l-0.7-2.9l1-0.2
			C493.4,14.7,495,14.3,496.6,13.9z"/>
		<path class="st35" d="M445.8,20.1l2,0.1l-0.1,3l-2-0.1c-1.4-0.1-2.7-0.2-4.1-0.2l-1-0.1l0.2-3l1,0.1
			C443.1,19.9,444.4,20,445.8,20.1z"/>
		<path class="st35" d="M466.9,19.6l1-0.1l0.3,3l-1,0.1c-1.7,0.2-3.4,0.3-5.1,0.4l-1,0.1l-0.2-3l1-0.1
			C463.6,19.9,465.3,19.8,466.9,19.6z"/>
		<path class="st35" d="M456.9,20.3l1,0l0.1,3l-1,0c-1.7,0-3.4,0.1-5.1,0l-1,0l0-3l1,0C453.5,20.3,455.2,20.3,456.9,20.3z"/>
		<path class="st35" d="M486.8,16.3l1-0.2l0.7,2.9l-1,0.2c-1.7,0.4-3.4,0.8-5,1.1l-1,0.2l-0.6-3l1-0.2
			C483.5,17.1,485.1,16.7,486.8,16.3z"/>
		<path class="st35" d="M476.9,18.3l1-0.2l0.5,3l-1,0.2c-1.7,0.3-3.4,0.6-5.1,0.8l-1,0.1l-0.4-3l1-0.1
			C473.6,18.8,475.3,18.6,476.9,18.3z"/>
		<path class="st35" d="M323.2,5.6c0.9-0.1,1.7-0.1,2.5-0.2l1-0.1l0.2,3l-1,0.1c-0.8,0.1-1.7,0.1-2.5,0.2l-1,0.1l-0.2-3L323.2,5.6z"
			/>
	</g>
	<g>
		<path class="st36" d="M317.3,16l-5.7,5.8c0,0-35.7-5.9-33.1-5.7c2.6,0.2,36.6-12,36.6-12L317.3,16z"/>
		<polygon class="st25" points="321.3,19.5 319.1,9.6 284.7,15.2 316.2,6.8 313.5,0 278.5,16.1 		"/>
	</g>
</g>
</svg>
