<svg xmlns="http://www.w3.org/2000/svg" viewBox="0 0 64 64"><g data-name="Layer 10"><path fill="#c7e2fc" d="M55,56H21v2a4,4,0,0,1-4,4h0a4,4,0,0,1-4-4V6A4,4,0,0,0,9,2H49a6,6,0,0,1,6,6Z"/><path fill="#dbedfd" d="M48,11.5A38.117,38.117,0,0,0,46.8,2H9a4,4,0,0,1,4,4V49.8A38.7,38.7,0,0,0,48,11.5Z"/><path fill="#95aabd" d="M55 56H21v2a4 4 0 0 1-4 4H55a4 4 0 0 0 4-4V56zM9 2H9a4 4 0 0 1 4 4v8a0 0 0 0 1 0 0H5a0 0 0 0 1 0 0V6A4 4 0 0 1 9 2z"/><polygon fill="#f2c351" points="45.081 32 45.081 46 23.081 46 23.081 32 27.081 32 29.081 36 39.081 36 41.081 32 45.081 32"/><polygon fill="#8892a0" points="32.081 16 32.081 23 29.081 23 34.081 30 39.081 23 36.081 23 36.081 16 32.081 16"/><path fill="#f5cf74" d="M41.081,32l-2,4h-10l-2-4h-4V46H26.31a38.992,38.992,0,0,0,15.7-14Z"/><path d="M59,55H56V8a7.008,7.008,0,0,0-7-7H9A5.006,5.006,0,0,0,4,6v8a1,1,0,0,0,1,1h7V58a5.006,5.006,0,0,0,5,5H55a5.006,5.006,0,0,0,5-5V56A1,1,0,0,0,59,55ZM12,13H6V6a3,3,0,0,1,6,0Zm8,43v2a3,3,0,0,1-6,0V6a4.948,4.948,0,0,0-1.026-3H49a5.006,5.006,0,0,1,5,5V55H21A1,1,0,0,0,20,56Zm38,2a3,3,0,0,1-3,3H21a4.98,4.98,0,0,0,1-3V57H58Z"/><path d="M23.081,47h22a1,1,0,0,0,1-1V32a1,1,0,0,0-1-1h-4a1,1,0,0,0-.894.553L38.463,35H29.7l-1.723-3.447A1,1,0,0,0,27.081,31h-4a1,1,0,0,0-1,1V46A1,1,0,0,0,23.081,47Zm1-14h2.382l1.724,3.447a1,1,0,0,0,.894.553h10a1,1,0,0,0,.895-.553L41.7,33h2.382V45h-20Z"/><path d="M33.267,30.581a1,1,0,0,0,1.628,0l5-7A1,1,0,0,0,39.081,22h-2V16a1,1,0,0,0-1-1h-4a1,1,0,0,0-1,1v6h-2a1,1,0,0,0-.814,1.581ZM32.081,24a1,1,0,0,0,1-1V17h2v6a1,1,0,0,0,1,1h1.057l-3.057,4.279L31.024,24Z"/></g></svg>