<svg xmlns="http://www.w3.org/2000/svg" enable-background="new 0 0 468 468" viewBox="0 0 468 468"><rect width="395.614" height="237.256" x="37.193" y="227.744" fill="#ff8ede"/><path fill="#fd4cc8" d="M114.234,418.176c-69.753,8.324-43.895-66.595-43.895-66.595
						c14.566-44.983,14.935-88.773,10.729-123.837H37.193V465h363.286C381.598,403.688,114.234,418.176,114.234,418.176z"/><g opacity=".5"><rect width="26.463" height="26.463" x="73.294" y="245.988" fill="#fff" opacity=".5" transform="rotate(-45.017 86.521 259.22)"/><rect width="26.463" height="26.463" x="73.294" y="283.402" fill="#fff" opacity=".5" transform="rotate(-45.017 86.52 296.635)"/><rect width="26.463" height="26.463" x="73.294" y="320.817" fill="#fff" opacity=".5" transform="rotate(-45.017 86.52 334.05)"/><rect width="26.463" height="26.463" x="73.294" y="358.232" fill="#fff" opacity=".5" transform="rotate(-45.017 86.52 371.464)"/><rect width="26.463" height="26.463" x="73.294" y="395.646" fill="#fff" opacity=".5" transform="rotate(-45.017 86.519 408.878)"/><rect width="26.463" height="26.463" x="73.294" y="433.061" fill="#fff" opacity=".5" transform="rotate(-45.017 86.518 446.293)"/><rect width="26.463" height="26.463" x="110.729" y="245.988" fill="#fff" opacity=".5" transform="rotate(-45.017 123.956 259.22)"/><rect width="26.463" height="26.463" x="110.729" y="283.402" fill="#fff" opacity=".5" transform="rotate(-45.017 123.956 296.635)"/><rect width="26.463" height="26.463" x="110.729" y="320.817" fill="#fff" opacity=".5" transform="rotate(-45.017 123.955 334.05)"/><rect width="26.463" height="26.463" x="110.729" y="358.232" fill="#fff" opacity=".5" transform="rotate(-45.017 123.955 371.464)"/><rect width="26.463" height="26.463" x="110.729" y="395.646" fill="#fff" opacity=".5" transform="rotate(-45.017 123.954 408.879)"/><rect width="26.463" height="26.463" x="110.729" y="433.061" fill="#fff" opacity=".5" transform="rotate(-45.017 123.954 446.293)"/><rect width="26.463" height="26.463" x="148.164" y="245.988" fill="#fff" opacity=".5" transform="rotate(-45.017 161.391 259.221)"/><rect width="26.463" height="26.463" x="148.164" y="283.402" fill="#fff" opacity=".5" transform="rotate(-45.017 161.39 296.636)"/><rect width="26.463" height="26.463" x="148.164" y="320.817" fill="#fff" opacity=".5" transform="rotate(-45.017 161.39 334.05)"/><rect width="26.463" height="26.463" x="148.164" y="358.232" fill="#fff" opacity=".5" transform="rotate(-45.017 161.39 371.465)"/><rect width="26.463" height="26.463" x="148.164" y="395.646" fill="#fff" opacity=".5" transform="rotate(-45.017 161.39 408.88)"/><rect width="26.463" height="26.463" x="148.164" y="433.061" fill="#fff" opacity=".5" transform="rotate(-45.017 161.389 446.294)"/><rect width="26.463" height="26.463" x="185.599" y="245.988" fill="#fff" opacity=".5" transform="rotate(-45.017 198.827 259.222)"/><rect width="26.463" height="26.463" x="185.599" y="283.402" fill="#fff" opacity=".5" transform="rotate(-45.017 198.826 296.636)"/><rect width="26.463" height="26.463" x="185.599" y="320.817" fill="#fff" opacity=".5" transform="rotate(-45.017 198.826 334.05)"/><rect width="26.463" height="26.463" x="185.599" y="358.232" fill="#fff" opacity=".5" transform="rotate(-45.017 198.825 371.465)"/><rect width="26.463" height="26.463" x="185.599" y="395.646" fill="#fff" opacity=".5" transform="rotate(-45.017 198.824 408.88)"/><rect width="26.463" height="26.463" x="185.599" y="433.061" fill="#fff" opacity=".5" transform="rotate(-45.017 198.824 446.294)"/><rect width="26.463" height="26.463" x="222.991" y="245.988" fill="#fff" opacity=".5" transform="rotate(-45.017 236.218 259.222)"/><rect width="26.463" height="26.463" x="222.991" y="283.402" fill="#fff" opacity=".5" transform="rotate(-45.017 236.218 296.637)"/><rect width="26.463" height="26.463" x="222.991" y="320.817" fill="#fff" opacity=".5" transform="rotate(-45.017 236.217 334.051)"/><rect width="26.463" height="26.463" x="222.991" y="358.232" fill="#fff" opacity=".5" transform="rotate(-45.017 236.217 371.466)"/><rect width="26.463" height="26.463" x="222.991" y="395.646" fill="#fff" opacity=".5" transform="rotate(-45.017 236.216 408.88)"/><rect width="26.463" height="26.463" x="222.991" y="433.061" fill="#fff" opacity=".5" transform="rotate(-45.017 236.216 446.295)"/><rect width="26.463" height="26.463" x="259.913" y="245.988" fill="#fff" opacity=".5" transform="rotate(-45.017 273.14 259.223)"/><rect width="26.463" height="26.463" x="259.913" y="283.402" fill="#fff" opacity=".5" transform="rotate(-45.017 273.14 296.637)"/><rect width="26.463" height="26.463" x="259.913" y="320.817" fill="#fff" opacity=".5" transform="rotate(-45.017 273.139 334.052)"/><rect width="26.463" height="26.463" x="259.913" y="358.232" fill="#fff" opacity=".5" transform="rotate(-45.017 273.138 371.466)"/><rect width="26.463" height="26.463" x="259.913" y="395.646" fill="#fff" opacity=".5" transform="rotate(-45.017 273.137 408.88)"/><rect width="26.463" height="26.463" x="259.913" y="433.061" fill="#fff" opacity=".5" transform="rotate(-45.017 273.137 446.295)"/><rect width="26.463" height="26.463" x="297.348" y="245.988" fill="#fff" opacity=".5" transform="rotate(-45.017 310.575 259.223)"/><rect width="26.463" height="26.463" x="297.348" y="283.402" fill="#fff" opacity=".5" transform="rotate(-45.017 310.574 296.638)"/><rect width="26.463" height="26.463" x="297.348" y="320.817" fill="#fff" opacity=".5" transform="rotate(-45.017 310.574 334.052)"/><rect width="26.463" height="26.463" x="297.348" y="358.232" fill="#fff" opacity=".5" transform="rotate(-45.017 310.573 371.467)"/><rect width="26.463" height="26.463" x="297.348" y="395.646" fill="#fff" opacity=".5" transform="rotate(-45.017 310.573 408.881)"/><rect width="26.463" height="26.463" x="297.348" y="433.061" fill="#fff" opacity=".5" transform="rotate(-45.017 310.572 446.296)"/><rect width="26.463" height="26.463" x="334.783" y="245.988" fill="#fff" opacity=".5" transform="rotate(-45.017 348.01 259.224)"/><rect width="26.463" height="26.463" x="334.783" y="283.402" fill="#fff" opacity=".5" transform="rotate(-45.017 348.01 296.638)"/><rect width="26.463" height="26.463" x="334.783" y="320.817" fill="#fff" opacity=".5" transform="rotate(-45.017 348.009 334.053)"/><rect width="26.463" height="26.463" x="334.783" y="358.232" fill="#fff" opacity=".5" transform="rotate(-45.017 348.008 371.468)"/><rect width="26.463" height="26.463" x="334.783" y="395.646" fill="#fff" opacity=".5" transform="rotate(-45.017 348.008 408.882)"/><rect width="26.463" height="26.463" x="334.783" y="433.061" fill="#fff" opacity=".5" transform="rotate(-45.017 348.007 446.296)"/><rect width="26.463" height="26.463" x="372.219" y="245.988" fill="#fff" opacity=".5" transform="rotate(-45.017 385.445 259.225)"/><rect width="26.463" height="26.463" x="372.219" y="283.402" fill="#fff" opacity=".5" transform="rotate(-45.017 385.445 296.639)"/><rect width="26.463" height="26.463" x="372.219" y="320.817" fill="#fff" opacity=".5" transform="rotate(-45.017 385.444 334.053)"/><rect width="26.463" height="26.463" x="372.219" y="358.232" fill="#fff" opacity=".5" transform="rotate(-45.017 385.444 371.468)"/><rect width="26.463" height="26.463" x="372.219" y="395.646" fill="#fff" opacity=".5" transform="rotate(-45.017 385.443 408.882)"/><rect width="26.463" height="26.463" x="372.219" y="433.061" fill="#fff" opacity=".5" transform="rotate(-45.017 385.443 446.297)"/><polygon fill="#fff" points="49.09 240.512 61.866 227.744 36.314 227.744" opacity=".5"/><polygon fill="#fff" points="86.525 240.512 99.301 227.744 73.75 227.744" opacity=".5"/><polygon fill="#fff" points="123.961 240.512 136.736 227.744 111.185 227.744" opacity=".5"/><polygon fill="#fff" points="161.396 240.512 174.172 227.744 148.62 227.744" opacity=".5"/><polygon fill="#fff" points="198.831 240.512 211.607 227.744 186.056 227.744" opacity=".5"/><polygon fill="#fff" points="236.223 240.512 248.999 227.744 223.447 227.744" opacity=".5"/><polygon fill="#fff" points="217.527 221.827 217.549 221.805 217.527 221.783 217.505 221.805" opacity=".5"/><polygon fill="#fff" points="217.527 221.827 217.549 221.805 217.527 221.783 217.505 221.805" opacity=".5"/><polygon fill="#fff" points="273.144 240.512 285.92 227.744 260.369 227.744" opacity=".5"/><rect width=".363" height=".363" x="254.502" y="221.623" fill="#fff" opacity=".5" transform="rotate(-44.984 254.69 221.812)"/><rect width=".363" height=".363" x="254.502" y="221.623" fill="#fff" opacity=".5" transform="rotate(-44.984 254.69 221.812)"/><polygon fill="#fff" points="310.58 240.512 323.355 227.744 297.804 227.744" opacity=".5"/><polygon fill="#fff" points="348.015 240.512 360.791 227.744 335.239 227.744" opacity=".5"/><polygon fill="#fff" points="385.45 240.512 398.226 227.744 372.675 227.744" opacity=".5"/><polygon fill="#fff" points="432.807 227.744 410.11 227.744 422.886 240.512 432.807 230.596" opacity=".5"/><polygon fill="#fff" points="432.807 250.428 422.886 240.512 404.168 259.22 422.886 277.927 432.807 268.011" opacity=".5"/><polygon fill="#fff" points="404.168 296.634 422.886 315.342 432.807 305.426 432.807 287.843 422.886 277.927" opacity=".5"/><polygon fill="#fff" points="404.168 334.049 422.886 352.756 432.807 342.84 432.807 325.257 422.886 315.342" opacity=".5"/><polygon fill="#fff" points="404.168 371.463 422.886 390.171 432.807 380.255 432.807 362.672 422.886 352.756" opacity=".5"/><polygon fill="#fff" points="404.168 408.878 422.886 427.585 432.807 417.67 432.807 400.087 422.886 390.171" opacity=".5"/><polygon fill="#fff" points="404.168 446.293 422.886 465 432.807 455.084 432.807 437.501 422.886 427.585" opacity=".5"/><polygon fill="#fff" points="67.808 259.22 49.09 240.512 37.193 252.403 37.193 266.036 49.09 277.927" opacity=".5"/><polygon fill="#fff" points="49.09 277.927 37.193 289.817 37.193 303.451 49.09 315.342 67.808 296.634" opacity=".5"/><polygon fill="#fff" points="37.193 340.866 49.09 352.756 67.808 334.049 49.09 315.342 37.193 327.232" opacity=".5"/><polygon fill="#fff" points="37.193 378.28 49.09 390.171 67.808 371.463 49.09 352.756 37.193 364.647" opacity=".5"/><polygon fill="#fff" points="37.193 415.695 49.09 427.585 67.808 408.878 49.09 390.171 37.193 402.061" opacity=".5"/><polygon fill="#fff" points="37.193 453.109 49.09 465 67.808 446.293 49.09 427.585 37.193 439.476" opacity=".5"/></g><polygon fill="#fff" points="237.641 376.485 37.193 227.744 237.372 79.1 432.807 227.744"/><path fill="#e3d7fe" d="M79.723,196.163l-42.53,31.581l47.351,35.136C88.149,237.657,83.563,211.745,79.723,196.163z"/><path fill="#ffcf00" d="M108.9,111.739H37.992V36.517C37.992,18.006,52.998,3,71.509,3h3.874
						C93.894,3,108.9,18.006,108.9,36.517V111.739z"/><path fill="#feac01" d="M69.467,84.162c-20.128-3.469-9.717-24.973-9.717-24.973
						c8.452-21.723,6.165-41.333,2.483-54.528c-14.06,4.502-24.241,17.667-24.241,33.214v73.863h59.217
						C101.627,81.596,69.467,84.162,69.467,84.162z"/><path fill="#00d5fe" d="M75.544,3.067C94.148,4.152,108.9,19.559,108.9,38.413l0.194,242.699l128.546,95.373
						l127.684-97.312V25.542c0-12.449-10.105-22.54-22.568-22.537L75.544,3.067z"/><path fill="#10a5e7" d="M235,281.865c-54.937,1.194-95.979-38.214-84.438-94.548
						c19.302-94.209,5.489-154.28-6.152-184.266L75.544,3.067C94.148,4.152,108.9,19.559,108.9,38.413l0.194,242.699l128.546,95.373
						l71.544-54.526C298.591,276.373,235,281.865,235,281.865z"/><path fill="#fff" d="M334.732,146.074h-0.616c-4.142,0-7.5-3.358-7.5-7.5V59.926
						c0-4.142,3.358-7.5,7.5-7.5h0.616c4.142,0,7.5,3.358,7.5,7.5v78.649C342.232,142.716,338.874,146.074,334.732,146.074z" opacity=".5"/><path d="M434.623,225.356l-66.298-50.425V25.543c0-15.141-12.075-25.543-25.569-25.537L71.509,0
						C51.373,0,34.992,16.382,34.992,36.518v75.222c0,1.657,1.343,3,3,3h67.969l0.047,58.17l-70.603,52.427
						c-0.739,0.551-1.212,1.487-1.212,2.408V465c0,1.657,1.343,3,3,3h395.613c1.657,0,3-1.343,3-3V227.743
						C435.807,226.958,435.318,225.889,434.623,225.356z M368.325,182.469l59.529,45.277l-59.529,45.369V182.469z M342.758,6.006
						c9.992-0.006,19.567,7.953,19.567,19.537v252.146l-124.708,95.043l-125.523-93.13L111.9,36.518
						c0-12.706-6.527-23.912-16.4-30.455L342.758,6.006z M105.9,108.739H40.992V36.518C40.992,19.69,54.682,6,71.509,6h3.874
						C92.21,6,105.9,19.69,105.9,36.518V108.739z M106.014,180.377l0.076,94.755l-63.863-47.389L106.014,180.377z M429.807,462
						H40.193V233.706l195.661,145.188c1.204,0.795,2.406,0.788,3.605-0.023l190.347-145.069V462z"/><path d="M290.362 276.782H188.262c-1.657 0-3-1.343-3-3s1.343-3 3-3h102.101c1.657 0 3 1.343 3 3S292.02 276.782 290.362 276.782zM290.362 224.455H188.262c-1.657 0-3-1.343-3-3s1.343-3 3-3h102.101c1.657 0 3 1.343 3 3S292.02 224.455 290.362 224.455z"/><ellipse cx="239.312" cy="112.106" fill="#ffcf00" rx="57.473" ry="57.288"/><path fill="#feac01" d="M242.288,145.034c-28.773,3.595-42.805-31.679-27.08-51.054
						c11.301-13.923,11.397-27.86,9.403-37.263c-24.618,6.475-42.772,28.816-42.772,55.389c0,31.639,25.732,57.288,57.473,57.288
						c10.272,0,19.907-2.699,28.252-7.406C263.497,145.05,242.288,145.034,242.288,145.034z"/><g opacity=".5"><ellipse cx="281.575" cy="80.925" fill="#fff" rx="5.637" ry="5.629"/><ellipse cx="252.99" cy="62.16" fill="#fff" rx="5.637" ry="5.629"/><ellipse cx="252.99" cy="80.925" fill="#fff" rx="5.637" ry="5.629"/><ellipse cx="224.406" cy="62.16" fill="#fff" rx="5.637" ry="5.629"/><ellipse cx="224.79" cy="80.925" fill="#fff" rx="5.637" ry="5.629"/><ellipse cx="196.206" cy="80.925" fill="#fff" rx="5.637" ry="5.629"/><ellipse cx="281.959" cy="102.672" fill="#fff" rx="5.637" ry="5.629"/><ellipse cx="281.959" cy="121.436" fill="#fff" rx="5.637" ry="5.629"/><ellipse cx="281.959" cy="140.201" fill="#fff" rx="5.637" ry="5.629"/><ellipse cx="253.374" cy="102.672" fill="#fff" rx="5.637" ry="5.629"/><ellipse cx="253.374" cy="121.436" fill="#fff" rx="5.637" ry="5.629"/><ellipse cx="253.374" cy="140.201" fill="#fff" rx="5.637" ry="5.629"/><ellipse cx="224.79" cy="102.672" fill="#fff" rx="5.637" ry="5.629"/><ellipse cx="224.79" cy="121.436" fill="#fff" rx="5.637" ry="5.629"/><ellipse cx="224.79" cy="140.201" fill="#fff" rx="5.637" ry="5.629"/><ellipse cx="196.206" cy="102.672" fill="#fff" rx="5.637" ry="5.629"/><ellipse cx="196.206" cy="121.436" fill="#fff" rx="5.637" ry="5.629"/><ellipse cx="196.206" cy="140.201" fill="#fff" rx="5.637" ry="5.629"/><ellipse cx="253.374" cy="159.971" fill="#fff" rx="5.637" ry="5.629"/><ellipse cx="224.79" cy="159.971" fill="#fff" rx="5.637" ry="5.629"/></g><path fill="#fff" d="M239.312,54.817v57.289h57.473C296.785,80.466,271.054,54.817,239.312,54.817z"/><path fill="#e3d7fe" d="M268.925,97.933c-14.588-3.064-21.107-8.795-15.114-23.325
							c2.233-4.737,3.518-11.355,4.142-16.693c-5.848-1.998-12.114-3.098-18.641-3.098v57.289h47.526
							C284.983,103.04,273.881,98.974,268.925,97.933z"/><path d="M239.313,51.817c-33.346,0-60.474,27.045-60.474,60.288s27.128,60.289,60.474,60.289
						c33.345,0,60.473-27.046,60.473-60.289S272.657,51.817,239.313,51.817z M293.698,109.105h-51.385V57.903
						C269.961,59.407,292.184,81.552,293.698,109.105z M239.313,166.395c-30.037,0-54.474-24.354-54.474-54.289
						c0-28.931,22.827-52.644,51.474-54.202v54.202c0,1.657,1.343,3,3,3h54.385C292.13,143.651,268.338,166.395,239.313,166.395z"/><g><circle cx="423.545" cy="147.988" r="14" fill="#915efd"/><path d="M423.545,164.987c-9.374,0-17-7.626-17-17s7.626-17,17-17s17,7.626,17,17S432.919,164.987,423.545,164.987z
					 M423.545,136.987c-6.065,0-11,4.935-11,11s4.935,11,11,11s11-4.935,11-11S429.61,136.987,423.545,136.987z"/><circle cx="423.545" cy="92.988" r="14" fill="#ff8ede"/><path d="M423.545,109.987c-9.374,0-17-7.626-17-17s7.626-17,17-17s17,7.626,17,17S432.919,109.987,423.545,109.987z
					 M423.545,81.987c-6.065,0-11,4.935-11,11s4.935,11,11,11s11-4.935,11-11S429.61,81.987,423.545,81.987z"/><circle cx="423.545" cy="37.988" r="14" fill="#00d5fe"/><path d="M423.545 54.987c-9.374 0-17-7.626-17-17s7.626-17 17-17 17 7.626 17 17S432.919 54.987 423.545 54.987zM423.545 26.987c-6.065 0-11 4.935-11 11s4.935 11 11 11 11-4.935 11-11S429.61 26.987 423.545 26.987zM7 393.688c-1.657 0-3-1.343-3-3v-84.566c0-1.657 1.343-3 3-3s3 1.343 3 3v84.566C10 392.345 8.657 393.688 7 393.688zM7 412.688c-1.657 0-3-1.343-3-3v-5.666c0-1.657 1.343-3 3-3s3 1.343 3 3v5.666C10 411.345 8.657 412.688 7 412.688zM463 393.688c-1.657 0-3-1.343-3-3v-84.566c0-1.657 1.343-3 3-3s3 1.343 3 3v84.566C466 392.345 464.657 393.688 463 393.688zM463 412.688c-1.657 0-3-1.343-3-3v-5.666c0-1.657 1.343-3 3-3s3 1.343 3 3v5.666C466 411.345 464.657 412.688 463 412.688z"/><g><polygon fill="#feac01" points="53.809 145.342 64.754 148.397 67.809 159.342 70.864 148.397 81.809 145.342 71.376 142.256 67.809 131.342 64.754 142.287"/><polygon fill="#feac01" points="2 189.746 12.945 192.801 16 203.746 19.055 192.801 30 189.746 19.567 186.66 16 175.746 12.945 186.69"/></g></g></svg>