<svg xmlns="http://www.w3.org/2000/svg" width="18.904" height="18.881" viewBox="0 0 18.904 18.881">
  <path id="pencil" d="M29.437,16.3l-1.7,1.7a.438.438,0,0,1-.628,0l-4.1-4.059a.438.438,0,0,1,0-.628l1.7-1.708a1.789,1.789,0,0,1,2.511,0l2.19,2.19a1.759,1.759,0,0,1,.029,2.5Zm-3.161,2.54-4.1-4.1a.438.438,0,0,0-.628,0l-9.709,9.7-.781,4.49a.891.891,0,0,0,1.029,1.029l4.49-.788,9.7-9.7a.438.438,0,0,0,0-.628Zm-10.22,9.22-2.387.416-1.146-1.146.416-2.387H14.3v1.774H16.07Zm5.979-10.14-5.694,5.687a.518.518,0,0,1-.73-.73L21.3,17.194a.518.518,0,0,1,.73.73Z" transform="translate(-11.042 -11.095)" opacity="0.4"/>
</svg>
