<svg xmlns="http://www.w3.org/2000/svg" enable-background="new 0 0 47.5 47.5" viewBox="0 0 47.5 47.5"><defs><clipPath id="a" clipPathUnits="userSpaceOnUse"><path d="M 0,38 38,38 38,0 0,0 0,38 Z"/></clipPath></defs><g clip-path="url(#a)" transform="matrix(1.25 0 0 -1.25 0 47.5)"><path fill="#d99e82" d="m 0,0 c -1.245,6.819 -5.992,11.903 -11.672,11.903 -5.68,0 -10.427,-5.084 -11.671,-11.903 -1.3,-0.144 -2.329,-1.857 -2.329,-3.973 0,-2.209 1.119,-4 2.5,-4 0.003,0 0.006,10e-4 0.009,10e-4 1.482,-6.361 6.063,-11.001 11.491,-11.001 5.428,0 10.009,5 11.491,11 l 0.009,0 c 1.381,0 2.5,1.791 2.5,4 C 2.328,-1.857 1.299,-0.144 0,0" transform="translate(30.672 21.973)"/><path fill="#662113" d="m 0,0 c -0.552,0 -1,0.447 -1,1 l 0,2 C -1,3.552 -0.552,4 0,4 0.552,4 1,3.552 1,3 L 1,1 C 1,0.447 0.552,0 0,0" transform="translate(14 16)"/><path fill="#662113" d="m 0,0 c -0.553,0 -1,0.447 -1,1 l 0,2 C -1,3.552 -0.553,4 0,4 0.553,4 1,3.552 1,3 L 1,1 C 1,0.447 0.553,0 0,0" transform="translate(24 16)"/><path fill="#c1694f" d="M 0,0 C -2.21,0 -4.357,1.061 -4.447,1.105 -4.94,1.353 -5.14,1.951 -4.895,2.445 -4.649,2.94 -4.05,3.14 -3.554,2.896 -3.536,2.886 -1.73,2 0,2 1.73,2 3.536,2.886 3.554,2.896 4.052,3.14 4.649,2.939 4.895,2.445 5.141,1.951 4.94,1.353 4.447,1.105 4.356,1.061 2.211,0 0,0" transform="translate(19 7)"/><path fill="#c1694f" d="m 0,0 -2,0 c -0.552,0 -1,0.447 -1,1 0,0.553 0.448,1 1,1 L 0,2 C 0.553,2 1,1.553 1,1 1,0.447 0.553,0 0,0" transform="translate(20 12)"/><path fill="#e6e7e8" d="M 0,0 C 0,0 10.327,-2.685 11.91,-7.518 12.6,-6.042 13,-2.625 13,-0.799 13,4.746 7.583,8.952 1.625,8.952 l -3.25,0 C -7.583,8.952 -13,4.746 -13,-0.799 c 0,-1.826 0.4,-5.388 1.089,-6.862 C -10.327,-2.828 0,0 0,0" transform="translate(19 26.048)"/><path fill="#d1d3d4" d="M 0,0 C -2.017,1.611 -4.384,2.94 -6.649,3.695 -7.177,3.871 -7.74,3.585 -7.914,3.063 -8.089,2.539 -7.806,1.972 -7.282,1.797 -4.877,0.996 -2.248,-0.594 -0.243,-2.426 -0.122,-1.587 -0.041,-0.742 0,0" transform="translate(31.966 24.254)"/><path fill="#d1d3d4" d="M 0,0 C 2.898,2.072 12.518,8.292 23.604,8.377 22.977,9.099 22.244,9.744 21.423,10.293 11.736,9.574 3.454,4.748 -0.161,2.317 -0.147,1.66 -0.095,0.854 0,0" transform="translate(6.169 22.615)"/><path fill="#d1d3d4" d="m 0,0 c -0.041,0.005 -0.077,0.024 -0.12,0.024 -4.095,0 -8.238,-1.026 -12.318,-3.045 0.201,0.061 0.318,0.093 0.318,0.093 0,0 1.178,-0.307 2.797,-0.898 3.071,1.222 6.157,1.85 9.203,1.85 0.293,0 0.551,0.131 0.733,0.332 C 0.466,-1.073 0.258,-0.525 0,0" transform="translate(31.12 28.976)"/><path fill="#d1d3d4" d="m 0,0 c 3.578,2.291 10.386,5.806 17.956,7.125 -1.15,0.338 -2.362,0.53 -3.602,0.53 l -2.549,0 C 7.87,6.412 4.363,4.782 1.662,3.295 0.888,2.315 0.312,1.206 0,0" transform="translate(6.271 27.345)"/></g></svg>