<svg xmlns="http://www.w3.org/2000/svg" xmlns:xlink="http://www.w3.org/1999/xlink" width="31.039" height="31.34" viewBox="0 0 31.039 31.34">
  <defs>
    <clipPath id="clip-path">
      <rect width="31.039" height="31.34" fill="none"/>
    </clipPath>
  </defs>
  <g id="Repeat_Grid_1" data-name="Repeat Grid 1" clip-path="url(#clip-path)">
    <g id="Group_17" data-name="Group 17" transform="translate(0)">
      <g id="music" transform="translate(7.374 6.229)">
        <path id="Path_66" data-name="Path 66" d="M10.015,8.892a2.173,2.173,0,0,1,.866.015V2.828L4.449,4.675v7.058c0,.039.006.079.006.117h0a2.511,2.511,0,0,1-2.227,2.107C1,14.17,0,13.572,0,12.621a2.51,2.51,0,0,1,2.227-2.106,2.5,2.5,0,0,1,1.25.081V1.907h.054L11.854,0V9.789a1.078,1.078,0,0,1,.023.218h0a2.1,2.1,0,0,1-1.861,1.759c-1.028.178-1.861-.322-1.861-1.117a2.093,2.093,0,0,1,1.859-1.759Z" transform="translate(0)" fill="#fff" fill-rule="evenodd"/>
      </g>
      <g id="job-search">
        <path id="Path_67" data-name="Path 67" d="M13.674,0A13.677,13.677,0,0,1,25.12,21.157l5.919,6.451L26.957,31.34l-5.708-6.28A13.676,13.676,0,1,1,13.674,0Zm8.588,5.086a12.134,12.134,0,1,0,3.561,8.587,12.118,12.118,0,0,0-3.561-8.587Z" fill="#fff"/>
      </g>
    </g>
  </g>
</svg>
