<svg xmlns="http://www.w3.org/2000/svg" width="17.355" height="17.727" viewBox="0 0 17.355 17.727">
  <path id="search-icon" d="M16.944,16.051l-3.99-4.132a7.413,7.413,0,0,0,1.071-3.856A7.14,7.14,0,0,0,7.013.8,7.14,7.14,0,0,0,0,8.063a7.14,7.14,0,0,0,7.013,7.261,6.817,6.817,0,0,0,4.005-1.3L14.961,18.1a1.371,1.371,0,0,0,1.984,0A1.489,1.489,0,0,0,16.944,16.051ZM7.013,12.971a4.826,4.826,0,0,1-4.74-4.908,4.827,4.827,0,0,1,4.74-4.908,4.826,4.826,0,0,1,4.74,4.908A4.826,4.826,0,0,1,7.013,12.971Z" transform="translate(0 -0.802)" fill="#fff"/>
</svg>
