<svg xmlns="http://www.w3.org/2000/svg" enable-background="new 0 0 64 64" viewBox="0 0 64 64"><path d="M33.8 52.4c0 .5-.4 1-1 1H8.5c-.5 0-1-.4-1-1 0-.5.4-1 1-1h24.3C33.3 51.4 33.8 51.8 33.8 52.4zM44.4 32.3c0 .5-.4 1-1 1h-35c-.5 0-1-.4-1-1 0-.5.4-1 1-1h35C44 31.4 44.4 31.8 44.4 32.3zM44.4 22.3c0 .5-.4 1-1 1h-35c-.5 0-1-.4-1-1 0-.5.4-1 1-1h35C44 21.4 44.4 21.8 44.4 22.3zM30.6 12.3c0 .5-.4 1-1 1H8.5c-.5 0-1-.4-1-1 0-.5.4-1 1-1h21.1C30.1 11.3 30.6 11.8 30.6 12.3z"/><path d="M51.5,35.3V12.9c0,0,0,0,0,0c0-0.3-0.1-0.5-0.3-0.7L39.3,0.3C39.2,0.1,38.9,0,38.6,0c0,0,0,0,0,0H1.4c-0.5,0-1,0.4-1,1V63c0,0.5,0.4,1,1,1h49.2c0.5,0,1-0.4,1-1v-1.7c6.7-0.5,12.1-6.1,12.1-13C63.6,41.5,58.3,35.8,51.5,35.3z M39.6,3.3l8.6,8.6h-8.6V3.3z M49.6,62.1H2.3V1.9h35.3v11c0,0.5,0.4,1,1,1h11v21.4c-4.2,0.3-7.9,2.7-10,6.1H8.5c-0.5,0-1,0.4-1,1c0,0.5,0.4,1,1,1h30.1c-0.6,1.5-1,3.2-1,5c0,6.9,5.3,12.5,12,13V62.1z M50.6,59.4c-6.1,0-11.1-5-11.1-11.1c0-6.1,5-11.1,11.1-11.1c6.1,0,11.1,5,11.1,11.1C61.7,54.4,56.7,59.4,50.6,59.4z"/><polygon fill="#f2776b" points="48.2 11.9 39.6 11.9 39.6 3.3"/><path fill="#da5b57" d="M48.2,11.9h-8.6V3.3l0.9,0.9v5.6c0,0.7,0.6,1.2,1.2,1.2h5.6L48.2,11.9z"/><path fill="#e8625c" d="M47.3,11h-5.6c-0.7,0-1.2-0.6-1.2-1.2V4.2l1.1,1.1v3.3c0,0.7,0.6,1.2,1.2,1.2h3.3L47.3,11z"/><path fill="#edeced" d="M8.5,41.4h31.1c2.1-3.4,5.8-5.7,10-6.1V13.9h-11c-0.5,0-1-0.4-1-1v-11H2.3v60.1h47.3v-0.8c-6.7-0.5-12-6.1-12-13c0-1.8,0.3-3.4,1-5H8.5c-0.5,0-1-0.4-1-1C7.5,41.8,8,41.4,8.5,41.4z M8.5,51.4h24.3c0.5,0,1,0.4,1,1c0,0.5-0.4,1-1,1H8.5c-0.5,0-1-0.4-1-1C7.5,51.8,8,51.4,8.5,51.4z M8.5,11.3h21.1c0.5,0,1,0.4,1,1c0,0.5-0.4,1-1,1H8.5c-0.5,0-1-0.4-1-1C7.5,11.8,8,11.3,8.5,11.3z M8.5,21.4h35c0.5,0,1,0.4,1,1c0,0.5-0.4,1-1,1h-35c-0.5,0-1-0.4-1-1C7.5,21.8,8,21.4,8.5,21.4z M8.5,31.4h35c0.5,0,1,0.4,1,1c0,0.5-0.4,1-1,1h-35c-0.5,0-1-0.4-1-1C7.5,31.8,8,31.4,8.5,31.4z"/><path fill="#d5d6d5" d="M43.8,59.4H9.4C7,59.4,5,57.4,5,55V1.9h7.1v9.4H8.5c-0.5,0-1,0.4-1,1c0,0.5,0.4,1,1,1h3.6v8.1H8.5c-0.5,0-1,0.4-1,1c0,0.5,0.4,1,1,1h3.6v8.1H8.5c-0.5,0-1,0.4-1,1c0,0.5,0.4,1,1,1h3.6v8.1H8.5c-0.5,0-1,0.4-1,1c0,0.5,0.4,1,1,1h3.6V48c0,1.4,0.7,2.7,1.7,3.5H8.5c-0.5,0-1,0.4-1,1c0,0.5,0.4,1,1,1h24.3c0.5,0,1-0.4,1-1v0h4.4C39.2,55.3,41.2,57.8,43.8,59.4z"/><path fill="#bfbebc" d="M49.6,61.3v0.8H2.3V1.9H5V55c0,2.4,2,4.4,4.4,4.4h34.4C45.5,60.5,47.5,61.1,49.6,61.3z"/><path fill="#5acaf4" d="M50.6,37.2c-6.1,0-11.1,5-11.1,11.1c0,6.1,5,11.1,11.1,11.1c6.1,0,11.1-5,11.1-11.1C61.7,42.2,56.7,37.2,50.6,37.2z M57.6,44.8l-8.4,8.4c-0.2,0.2-0.4,0.3-0.7,0.3c-0.3,0-0.5-0.1-0.7-0.3L43.5,49c-0.4-0.4-0.4-1,0-1.4c0.4-0.4,1-0.4,1.4,0l3.6,3.6l7.7-7.7c0.4-0.4,1-0.4,1.4,0C58,43.8,58,44.4,57.6,44.8z"/><path fill="#43b4dc" d="M60.6,53.1c-0.4,0.8-0.9,1.6-1.4,2.3l0,0c-1.9,1.6-4.4,2.5-7,2.5c-6.1,0-11.1-5-11.1-11.1c0-2.7,1-5.1,2.5-7c0,0,0,0,0,0c0.7-0.6,1.5-1.1,2.3-1.5c-0.7,1.5-1.1,3.1-1.1,4.8c0,2.3,0.7,4.4,1.8,6.1l-1.6-1.6c-0.4-0.4-1-0.4-1.4,0c-0.4,0.4-0.4,1,0,1.4l4.3,4.3c0.2,0.2,0.4,0.3,0.7,0.3c0.3,0,0.5-0.1,0.7-0.3l0.7-0.7c1.7,1.1,3.7,1.7,5.9,1.7C57.5,54.2,59.1,53.8,60.6,53.1z"/><path fill="#36a1cf" d="M59.1,55.4c-2,2.4-5.1,4-8.5,4c-6.1,0-11.1-5-11.1-11.1c0-3.4,1.6-6.5,4-8.5c-1.6,1.9-2.5,4.4-2.5,7c0,6.1,5,11.1,11.1,11.1C54.7,57.9,57.2,57,59.1,55.4z"/><path d="M57.6,44.8l-8.4,8.4c-0.2,0.2-0.4,0.3-0.7,0.3c-0.3,0-0.5-0.1-0.7-0.3L43.5,49c-0.4-0.4-0.4-1,0-1.4c0.4-0.4,1-0.4,1.4,0l3.6,3.6l7.7-7.7c0.4-0.4,1-0.4,1.4,0C58,43.8,58,44.4,57.6,44.8z"/></svg>