<svg xmlns="http://www.w3.org/2000/svg" width="48" height="48" viewBox="0 0 48 48"><g transform="translate(0 -1004.362)"><circle cx="24" cy="1028.362" r="24" fill="#1d67b1"/><path fill="#154082" fill-rule="evenodd" style="line-height:normal;text-indent:0;text-align:start;text-decoration-line:none;text-decoration-style:solid;text-decoration-color:#000;text-transform:none;block-progression:tb;isolation:auto;mix-blend-mode:normal" d="M 25.931641 47.910156 A 23.999992 23.999992 0 0 0 28.080078 47.650391 A 23.999992 23.999992 0 0 0 30.419922 47.125 A 23.999992 23.999992 0 0 0 32.697266 46.369141 A 23.999992 23.999992 0 0 0 34.886719 45.388672 A 23.999992 23.999992 0 0 0 36.966797 44.195312 A 23.999992 23.999992 0 0 0 38.917969 42.800781 A 23.999992 23.999992 0 0 0 40.720703 41.216797 A 23.999992 23.999992 0 0 0 42.355469 39.460938 A 23.999992 23.999992 0 0 0 43.808594 37.550781 A 23.999992 23.999992 0 0 0 45.0625 35.505859 A 23.999992 23.999992 0 0 0 46.105469 33.345703 A 23.999992 23.999992 0 0 0 46.652344 31.845703 L 27.853516 13.046875 L 27.845703 13.039062 C 27.724024 12.917383 27.597386 12.801283 27.464844 12.691406 C 27.462337 12.689328 27.459542 12.687621 27.457031 12.685547 C 27.321725 12.573805 27.180819 12.469639 27.035156 12.371094 C 26.931822 12.301164 26.822996 12.23867 26.714844 12.175781 C 26.670667 12.150098 26.628927 12.120173 26.583984 12.095703 C 26.430241 12.011983 26.273448 11.936123 26.111328 11.867188 C 26.110004 11.866623 26.108747 11.865797 26.107422 11.865234 C 25.944654 11.796178 25.777715 11.734889 25.607422 11.681641 C 25.506206 11.649992 25.400494 11.627371 25.296875 11.601562 C 24.874201 11.49629 24.435096 11.433594 23.980469 11.433594 C 20.958568 11.433594 18.499969 13.902794 18.5 16.933594 C 18.500002 17.123019 18.51055 17.309569 18.529297 17.494141 C 18.529297 17.494141 18.529297 17.496094 18.529297 17.496094 C 18.548042 17.680002 18.57489 17.862853 18.611328 18.041016 C 18.624088 18.103356 18.643353 18.163049 18.658203 18.224609 C 18.685903 18.339481 18.71131 18.454447 18.746094 18.566406 C 18.746514 18.567759 18.747626 18.56896 18.748047 18.570312 C 18.801207 18.74094 18.862772 18.909167 18.931641 19.072266 C 18.932201 19.073593 18.933032 19.074845 18.933594 19.076172 C 19.002579 19.239182 19.07833 19.398167 19.162109 19.552734 C 19.163212 19.554769 19.16491 19.55656 19.166016 19.558594 C 19.249994 19.713057 19.341593 19.862716 19.439453 20.007812 C 19.463958 20.044134 19.492239 20.077582 19.517578 20.113281 C 19.593753 20.220636 19.670442 20.32822 19.753906 20.429688 C 19.755641 20.431795 19.758028 20.433441 19.759766 20.435547 C 19.871161 20.570558 19.987806 20.700475 20.111328 20.824219 L 20.115234 20.828125 L 22.720703 23.433594 L 21 23.433594 C 16.852371 23.433594 13.5 26.801791 13.5 30.962891 L 13.5 35.478516 A 0.50004994 0.50004994 0 0 0 14 35.978516 L 25.931641 47.910156 z " color="#000" font-family="sans-serif" font-weight="400" transform="translate(0 1004.362)"/><path fill="#fff" fill-rule="evenodd" style="line-height:normal;text-indent:0;text-align:start;text-decoration-line:none;text-decoration-style:solid;text-decoration-color:#000;text-transform:none;block-progression:tb;isolation:auto;mix-blend-mode:normal" d="m 15.480469,4.4335938 c -3.021901,0 -5.4805005,2.4692 -5.480469,5.5 2.9e-5,3.0308002 2.458611,5.5000002 5.480469,5.5000002 3.021858,0 5.48044,-2.4692 5.480469,-5.5000002 3e-5,-3.0308 -2.458568,-5.5 -5.480469,-5.5 z m 0,1 c 2.479275,0 4.480494,2.0074999 4.480469,4.5 -2.4e-5,2.4925002 -2.001229,4.5000002 -4.480469,4.5000002 -2.47924,0 -4.480445,-2.0075 -4.480469,-4.5000002 -2.6e-5,-2.4925001 2.001194,-4.5 4.480469,-4.5 z M 12.5,16.433594 c -4.1476285,0 -7.5,3.368197 -7.5,7.529297 l 0,4.515625 a 0.50004994,0.50004994 0 0 0 0.5,0.5 l 3.8535156,0 a 0.50004994,0.50004994 0 0 0 0.2929688,0 l 11.7070316,0 a 0.50004994,0.50004994 0 0 0 0.292968,0 l 3.853516,0 a 0.50004994,0.50004994 0 0 0 0.5,-0.5 l 0,-4.515625 c 0,-4.1611 -3.352371,-7.529297 -7.5,-7.529297 l -6,0 z m 0,1 6,0 c 3.608733,0 6.5,2.902697 6.5,6.529297 l 0,4.015625 -3,0 0,-4.023438 A 0.50004994,0.50004994 0 0 0 21.492188,23.449219 0.50004994,0.50004994 0 0 0 21,23.955078 l 0,4.023438 -11,0 0,-4.023438 A 0.50004994,0.50004994 0 0 0 9.4921875,23.449219 0.50004994,0.50004994 0 0 0 9,23.955078 l 0,4.023438 -3,0 0,-4.015625 c 0,-3.6266 2.8912667,-6.529297 6.5,-6.529297 z" color="#000" font-family="sans-serif" font-weight="400" overflow="visible" transform="translate(8.5 1011.362)"/></g></svg>