<?xml version="1.0" standalone="no"?>
<!DOCTYPE svg PUBLIC "-//W3C//DTD SVG 1.1//EN" "http://www.w3.org/Graphics/SVG/1.1/DTD/svg11.dtd" >
<svg xmlns="http://www.w3.org/2000/svg" xmlns:xlink="http://www.w3.org/1999/xlink" version="1.1">
<metadata></metadata>
<defs>
<font id="freightsans_black" horiz-adv-x="1110" >
<font-face units-per-em="2048" ascent="1638" descent="-410" />
<missing-glyph horiz-adv-x="376" />
<glyph horiz-adv-x="0" />
<glyph horiz-adv-x="682" />
<glyph unicode=" "  horiz-adv-x="376" />
<glyph unicode="&#x09;" horiz-adv-x="376" />
<glyph unicode="&#xa0;" horiz-adv-x="376" />
<glyph unicode="!" horiz-adv-x="653" d="M98 1335h459l-76 -872h-307zM100 164q0 97 60 145.5t166 48.5t165.5 -48.5t59.5 -145.5t-59.5 -146t-165.5 -49t-166 49t-60 146z" />
<glyph unicode="&#x22;" horiz-adv-x="1030" d="M16 815l236 506l336 -74l-299 -432h-273zM508 815l235 506l336 -74l-299 -432h-272z" />
<glyph unicode="#" horiz-adv-x="1339" d="M29 199v282h186l61 230h-206v282h284l84 322h291l-86 -322h270l86 322h291l-86 -322h109v-282h-185l-61 -230h205v-282h-281l-94 -351h-291l94 351h-270l-94 -351h-291l94 351h-110zM500 463h270l74 266h-273z" />
<glyph unicode="$" horiz-adv-x="1212" d="M53 84l62 330q172 -84 340 -109l32 191q-67 20 -116 38.5t-108.5 52t-97.5 73t-64.5 100.5t-26.5 135q0 194 133.5 304t390.5 110h53l33 188h162l-35 -205q182 -34 303 -96l-63 -330q-112 57 -295 101l-58 -340h-161l32 194q3 -1 7.5 -2t7.5 -2v17q27 -12 143 -41 q68 -19 122 -38.5t111.5 -53t95.5 -73t62.5 -98t24.5 -129.5q0 -197 -145.5 -314.5t-417.5 -117.5h-21l-37 -219h-162l39 232q-217 28 -346 102zM459 915q0 -57 110 -94l31 180q-141 -3 -141 -86zM612 279q78 4 113 25.5t35 62.5q0 35 -27 56.5t-90 39.5z" />
<glyph unicode="%" horiz-adv-x="1802" d="M41 965q0 171 98.5 267.5t272.5 96.5q176 0 272 -96.5t96 -267.5q0 -174 -97.5 -270.5t-274.5 -96.5q-176 0 -271.5 97t-95.5 270zM215 -31l1081 1340h293l-1081 -1340h-293zM303 963q0 -85 29 -127.5t80 -42.5q49 0 76.5 43t27.5 127q0 85 -28.5 128.5t-77.5 43.5 t-78 -44t-29 -128zM1022 315q0 171 98.5 268t272.5 97q176 0 272 -96.5t96 -268.5q0 -173 -97.5 -269.5t-274.5 -96.5q-176 0 -271.5 96.5t-95.5 269.5zM1284 313q0 -85 29 -127.5t80 -42.5q49 0 76.5 43t27.5 127q0 85 -28.5 128.5t-77.5 43.5t-78 -44t-29 -128z" />
<glyph unicode="&#x26;" horiz-adv-x="1384" d="M39 315q0 127 83 218t195 118q-75 42 -127.5 119t-52.5 170q0 69 29 134.5t83 118t139.5 84.5t189.5 32q190 0 314 -83t124 -227q0 -103 -73 -174.5t-175 -99.5q30 -14 129 -86l80 172h403l-282 -375l305 -387l-393 -69l-125 198q-93 -107 -203.5 -158t-220.5 -51 q-183 0 -302.5 94t-119.5 252zM391 401q0 -69 46 -107t108 -38q59 0 103.5 28t88.5 85q-132 135 -258 184q-41 -29 -64.5 -70t-23.5 -82zM465 956q0 -49 38 -83.5t105 -63.5q41 34 61.5 65t20.5 76q0 54 -33 84.5t-84 30.5q-46 0 -77 -32t-31 -77z" />
<glyph unicode="'" horiz-adv-x="538" d="M16 815l236 506l336 -74l-299 -432h-273z" />
<glyph unicode="(" horiz-adv-x="933" d="M102 498q0 182 53 351t143 300t198.5 231t230.5 166l213 -270q-98 -64 -179 -143.5t-145.5 -177t-100.5 -215t-36 -242.5q0 -244 128.5 -445t332.5 -334l-213 -270q-96 52 -185 125.5t-170 172.5t-140.5 212.5t-94.5 252.5t-35 286z" />
<glyph unicode=")" horiz-adv-x="933" d="M-4 -281q204 130 332.5 332.5t128.5 446.5q0 125 -36 242.5t-100 215t-145.5 178t-179.5 142.5l213 270q122 -66 230.5 -166t198.5 -231t143 -300t53 -351q0 -147 -35 -286t-94.5 -252.5t-140.5 -212.5t-170 -172.5t-185 -125.5z" />
<glyph unicode="*" horiz-adv-x="862" d="M18 756l318 110v23l-318 108l181 248l198 -270l21 8l12 338l291 -96l-203 -277l14 -16l322 102v-309l-322 104l-12 -20l197 -279l-293 -94l-4 340l-23 6l-200 -274z" />
<glyph unicode="+" horiz-adv-x="1120" d="M63 352l7 285h338v348h307v-348h338l6 -285h-344v-348h-307v348h-345z" />
<glyph unicode="," horiz-adv-x="630" d="M31 178q12 99 86 159t176 60q126 0 203 -88.5t77 -210.5q0 -249 -366 -426l-176 150q116 76 144 101q58 49 58 91q0 45 -44.5 83.5t-157.5 80.5z" />
<glyph unicode="-" horiz-adv-x="827" d="M51 346v301h727v-301h-727z" />
<glyph unicode="." horiz-adv-x="630" d="M90 184q0 99 61 157t164 58t164.5 -58t61.5 -157t-61.5 -157t-164.5 -58t-164 58t-61 157z" />
<glyph unicode="/" horiz-adv-x="659" d="M-100 -408l497 1846h328l-498 -1846h-327z" />
<glyph unicode="0" horiz-adv-x="1171" d="M57 489q0 240 143.5 383.5t385.5 143.5q245 0 386.5 -139t141.5 -379q0 -241 -144 -385t-390 -144q-244 0 -383.5 140.5t-139.5 379.5zM432 492q0 -121 41.5 -182.5t112.5 -61.5q70 0 110.5 62t40.5 182q0 121 -41 183t-112 62t-111.5 -62.5t-40.5 -182.5z" />
<glyph unicode="1" horiz-adv-x="837" d="M61 907l633 113v-1020h-389v637l-237 -43z" />
<glyph unicode="2" horiz-adv-x="1069" d="M39 877q95 62 227.5 101.5t255.5 39.5q213 0 331 -92.5t118 -241.5q0 -228 -377 -379h422l6 -305h-942v256q47 28 105.5 62.5t92 54t75.5 45t65 40.5t49.5 33.5t39.5 31.5t25 28t16.5 28.5t4.5 28.5q0 92 -135 92q-129 0 -301 -104z" />
<glyph unicode="3" horiz-adv-x="1030" d="M14 -279l41 304q83 -46 176 -77.5t170 -35.5q94 -5 146.5 29t52.5 100q0 65 -48 97t-163 36q-95 3 -156 -6v270q160 22 214 44q96 37 96 120q0 109 -164 109q-122 0 -287 -107l-76 273q211 141 469 141q204 0 340 -93.5t136 -250.5q0 -108 -74 -190.5t-189 -121.5 q143 -29 221 -116t78 -207q0 -129 -77 -226.5t-202 -146.5t-276 -49q-225 0 -428 104z" />
<glyph unicode="4" horiz-adv-x="1226" d="M59 242l500 747h442v-694h199l6 -295h-205v-346h-360v346h-532zM401 285h263v417z" />
<glyph unicode="5" horiz-adv-x="1071" d="M49 -313l29 317q74 -36 175.5 -60t178.5 -24q213 0 213 146q0 71 -58.5 109t-193.5 38q-66 0 -138.5 -12t-119.5 -31l-43 53l90 766h807l6 -305h-495l-27 -201q5 0 29.5 1t46.5 1q226 0 346.5 -108t120.5 -277q0 -213 -150 -348t-417 -135q-96 0 -205.5 17.5t-194.5 52.5 z" />
<glyph unicode="6" horiz-adv-x="1224" d="M70 588q0 155 61 296t170.5 250.5t271 182t353.5 90.5l90 -307q-208 -26 -366 -114t-197 -212l10 -8q49 52 131.5 87.5t185.5 35.5q177 0 284 -107t107 -301q0 -108 -36 -201t-103.5 -162.5t-173 -109t-237.5 -39.5q-258 0 -404.5 169.5t-146.5 449.5zM475 461 q0 -88 40 -149.5t114 -61.5q67 0 106 50.5t39 141.5q0 79 -39 124.5t-110 45.5q-81 0 -142 -49q-8 -41 -8 -102z" />
<glyph unicode="7" horiz-adv-x="1071" d="M39 668l6 321h987v-248l-532 -1087h-375l520 1014h-606z" />
<glyph unicode="8" horiz-adv-x="1124" d="M51 330q0 99 66.5 170t199.5 102q-247 99 -247 311q0 185 124.5 290.5t378.5 105.5q218 0 350 -92t132 -269q0 -94 -61 -162.5t-183 -103.5q116 -41 189 -118t73 -193q0 -182 -130.5 -292t-387.5 -110q-106 0 -196.5 22.5t-160 66t-108.5 113.5t-39 159zM408 365 q0 -63 43 -102.5t122 -39.5q72 0 112 35t40 98q0 108 -211 160q-55 -32 -80.5 -74t-25.5 -77zM432 920q0 -52 40 -90t136 -66q49 32 74 73t25 72q0 67 -37 104.5t-103 37.5q-62 0 -98.5 -36.5t-36.5 -94.5z" />
<glyph unicode="9" horiz-adv-x="1224" d="M53 494q0 109 36.5 203.5t104.5 166t173.5 113t236.5 41.5q258 0 404.5 -169.5t146.5 -449.5q0 -154 -61 -295t-170.5 -249.5t-271 -180.5t-353.5 -90l-90 303q135 17 251 61t196.5 113t101.5 152l-10 8q-39 -50 -121 -86.5t-172 -36.5q-181 0 -291.5 104t-110.5 292z M451 545q0 -79 39 -124.5t110 -45.5q80 0 141 49q9 46 9 102q0 89 -40 150t-114 61q-67 0 -106 -50.5t-39 -141.5z" />
<glyph unicode=":" horiz-adv-x="630" d="M90 184q0 99 61 157t164 58t164.5 -58t61.5 -157t-61.5 -157t-164.5 -58t-164 58t-61 157zM90 733q0 99 61 157t164 58t164.5 -58t61.5 -157t-61.5 -157t-164.5 -58t-164 58t-61 157z" />
<glyph unicode=";" horiz-adv-x="630" d="M31 178q12 99 86 159t176 60q126 0 203 -88.5t77 -210.5q0 -249 -366 -426l-176 150q116 76 144 101q58 49 58 91q0 45 -44.5 83.5t-157.5 80.5zM90 733q0 99 61 157t164 58t164.5 -58t61.5 -157t-61.5 -157t-164.5 -58t-164 58t-61 157z" />
<glyph unicode="&#x3c;" horiz-adv-x="1052" d="M104 358v246l822 367v-295l-447 -184v-21l447 -180v-297z" />
<glyph unicode="=" horiz-adv-x="1079" d="M94 98l10 281h875l10 -281h-895zM94 862h895l-10 -280h-875z" />
<glyph unicode="&#x3e;" horiz-adv-x="1056" d="M119 -6v297l444 180v21l-444 184v295l819 -367v-246z" />
<glyph unicode="?" horiz-adv-x="921" d="M82 944l18 320q110 47 260 47q224 0 362 -117.5t138 -302.5q0 -112 -67 -185.5t-183 -107.5q-121 -35 -141 -47q0 -3 27 -23.5t55.5 -41.5t30.5 -23q-98 -13 -121 -17l-142 -18q-86 31 -131 96.5t-45 132.5q0 143 205 191q94 22 121 34.5t27 39.5q0 71 -168 71 q-54 0 -126.5 -14.5t-119.5 -34.5zM172 164q0 97 59.5 145.5t165.5 48.5t166 -48.5t60 -145.5t-60 -146t-166 -49t-165.5 49t-59.5 146z" />
<glyph unicode="@" horiz-adv-x="1785" d="M102 496q0 115 29.5 224.5t83 203t131 172.5t169.5 134.5t201.5 86.5t225.5 31q126 0 243.5 -31.5t216.5 -93.5t173.5 -147.5t116 -199.5t41.5 -243q0 -138 -38 -247.5t-103 -177.5t-146.5 -104t-173.5 -36q-234 0 -293 182q-52 -63 -118 -95t-132 -32 q-119 0 -198.5 90.5t-79.5 249.5q0 212 121.5 342.5t312.5 130.5q69 0 155 -39l342 41l-106 -537q-23 -99 3.5 -142.5t106.5 -43.5q96 0 174 114.5t78 303.5q0 112 -38 212.5t-104.5 175.5t-154.5 130.5t-190.5 84t-208.5 28.5q-153 0 -291.5 -62t-237.5 -166t-157.5 -245 t-58.5 -293q0 -194 86.5 -355.5t243.5 -256.5t352 -95q124 0 264 43l24 -80q-146 -49 -293 -49q-165 0 -309.5 62t-245.5 167.5t-159 251.5t-58 310zM764 485q0 -64 28.5 -100.5t73.5 -36.5q48 0 95 37l61 289q-53 45 -102 45q-70 0 -113 -69t-43 -165z" />
<glyph unicode="A" horiz-adv-x="1390" d="M2 0l440 1280h514l433 -1280h-400l-80 240h-434l-76 -240h-397zM553 543h278l-135 448z" />
<glyph unicode="B" horiz-adv-x="1327" d="M119 0v1280h620q122 0 213 -17.5t146 -47t88 -73.5t45 -90t12 -104q0 -111 -63.5 -177t-184.5 -97q125 -18 206 -97.5t81 -199.5q0 -65 -12.5 -116.5t-48.5 -102t-94.5 -84t-156.5 -54t-229 -20.5h-622zM508 287h188q92 0 135 29t43 92q0 64 -46 91t-136 27h-184v-239z M508 754h168q164 0 164 123q0 116 -152 116h-180v-239z" />
<glyph unicode="C" horiz-adv-x="1267" d="M72 635q0 313 190.5 494.5t525.5 181.5q232 0 433 -90l-121 -334q-148 86 -307 86q-148 0 -232 -88t-84 -242q0 -158 81.5 -247t234.5 -89q166 0 325 94l88 -346q-76 -37 -198.5 -61.5t-235.5 -24.5q-328 0 -514 170.5t-186 495.5z" />
<glyph unicode="D" horiz-adv-x="1433" d="M119 0v1280h530q343 0 532 -170t189 -461q0 -299 -196 -474t-553 -175h-502zM522 309h121q322 0 322 328q0 177 -82 255.5t-260 78.5h-101v-662z" />
<glyph unicode="E" horiz-adv-x="1202" d="M119 0v1280h999v-313h-606v-168h479v-314h-479v-172h606v-313h-999z" />
<glyph unicode="F" horiz-adv-x="1155" d="M119 0v1280h979v-324h-582v-184h455v-319h-455v-453h-397z" />
<glyph unicode="G" horiz-adv-x="1413" d="M72 635q0 318 191 497t525 179q138 0 277 -28.5t233 -82.5l-124 -332q-189 105 -369 105q-153 0 -242.5 -91t-89.5 -239q0 -174 78.5 -262t245.5 -88q105 0 166 24v129h-293v310h651v-670q-229 -117 -537 -117q-327 0 -519.5 174.5t-192.5 491.5z" />
<glyph unicode="H" horiz-adv-x="1462" d="M119 0v1280h403v-467h418v467h403v-1280h-403v477h-418v-477h-403z" />
<glyph unicode="I" horiz-adv-x="645" d="M121 0v1280h403v-1280h-403z" />
<glyph unicode="J" horiz-adv-x="1021" d="M14 61l84 312q142 -74 246 -74q93 0 130.5 48t37.5 167v766h403v-797q0 -255 -121 -384.5t-374 -129.5q-115 0 -224 25t-182 67z" />
<glyph unicode="K" horiz-adv-x="1361" d="M119 0v1280h403v-543h2l365 543h452l-460 -621l475 -659h-473l-359 541h-2v-541h-403z" />
<glyph unicode="L" horiz-adv-x="1091" d="M119 0v1280h403v-950h494v-330h-897z" />
<glyph unicode="M" horiz-adv-x="1824" d="M90 0l45 1280h580l200 -913l201 913h574l45 -1280h-379l-4 946l-224 -926h-438l-225 922l-4 -942h-371z" />
<glyph unicode="N" horiz-adv-x="1501" d="M119 0v1280h434l455 -727v727h374v-1292h-428l-460 737v-725h-375z" />
<glyph unicode="O" horiz-adv-x="1513" d="M72 637q0 153 53.5 281t146 213.5t218.5 132.5t270 47q146 0 269 -41.5t216 -122.5t145 -209.5t52 -292.5q0 -153 -53.5 -281t-146 -214t-218.5 -133.5t-270 -47.5q-146 0 -269 42.5t-216 123.5t-145 210t-52 292zM477 645q0 -163 73.5 -260.5t209.5 -97.5 q135 0 205.5 95t70.5 255q0 163 -73 259.5t-209 96.5q-137 0 -207 -94t-70 -254z" />
<glyph unicode="P" horiz-adv-x="1277" d="M119 0v1280h532q268 0 419 -125t151 -334q0 -233 -151.5 -355t-444.5 -122h-103v-344h-403zM510 639l102 2q108 1 158.5 43t50.5 129q0 160 -200 160h-111v-334z" />
<glyph unicode="Q" horiz-adv-x="1513" d="M72 637q0 153 53.5 281t146 213.5t218.5 132.5t270 47q146 0 269 -41.5t216 -122.5t145 -209.5t52 -292.5q0 -175 -72 -310t-201 -224l328 -127l-156 -324l-575 309h-12q-146 0 -269 42.5t-216 123.5t-145 210t-52 292zM477 645q0 -164 73.5 -264t209.5 -100 q137 0 206.5 95t69.5 261q0 163 -73 259.5t-209 96.5q-137 0 -207 -94t-70 -254z" />
<glyph unicode="R" horiz-adv-x="1339" d="M119 0v1280h579q264 0 404.5 -112t140.5 -308q0 -127 -62.5 -222.5t-187.5 -145.5l318 -492h-447l-229 389l-113 -10v-379h-403zM514 666l139 2q93 11 132.5 48t39.5 115q0 74 -46 108t-154 34h-111v-307z" />
<glyph unicode="S" horiz-adv-x="1212" d="M53 84l62 330q243 -119 471 -119q153 0 153 74q0 10 -3 19t-10.5 17t-15 14t-22 12.5t-26.5 11.5t-33.5 11.5t-37.5 11t-43.5 12.5t-47.5 14q-56 17 -97.5 31.5t-95.5 38.5t-91.5 54t-72 69.5t-52 93t-17.5 116.5q0 194 133.5 304t390.5 110q295 0 516 -113l-63 -330 q-109 54 -230 85.5t-221 31.5q-62 0 -92.5 -15.5t-30.5 -52.5q0 -20 18 -37.5t57 -32t72.5 -24.5t90.5 -25l12 -3q68 -19 122 -38.5t111.5 -53t95.5 -73t62.5 -98t24.5 -129.5q0 -197 -145.5 -314.5t-417.5 -117.5q-153 0 -293.5 32.5t-233.5 82.5z" />
<glyph unicode="T" horiz-adv-x="1275" d="M49 950v330h1178v-330h-387v-950h-404v950h-387z" />
<glyph unicode="U" horiz-adv-x="1404" d="M106 504v776h404v-727q0 -130 47.5 -191t151.5 -61q101 0 144.5 54.5t43.5 187.5v737h401v-743q0 -145 -43.5 -255t-123.5 -178t-187.5 -101.5t-241.5 -33.5q-131 0 -237 30t-188 92t-126.5 167t-44.5 246z" />
<glyph unicode="V" horiz-adv-x="1374" d="M14 1280h418l254 -897l254 897h420l-420 -1280h-512z" />
<glyph unicode="W" horiz-adv-x="2017" d="M39 1280h434l117 -836l194 836h461l195 -836l119 836h419l-331 -1280h-426l-213 834l-215 -834h-424z" />
<glyph unicode="X" horiz-adv-x="1394" d="M20 0l433 641l-420 639h446l217 -371l226 371h440l-424 -627l436 -653h-448l-234 391l-235 -391h-437z" />
<glyph unicode="Y" horiz-adv-x="1327" d="M20 1280h422l226 -459l217 459h422l-445 -807v-473h-395v475z" />
<glyph unicode="Z" horiz-adv-x="1251" d="M72 0v258l596 692h-584v330h1092v-260l-592 -688h590v-332h-1102z" />
<glyph unicode="[" horiz-adv-x="901" d="M123 -403v1837h768v-285h-416v-1268h416v-284h-768z" />
<glyph unicode="\" horiz-adv-x="677" d="M-45 1438h328l497 -1846h-327z" />
<glyph unicode="]" horiz-adv-x="903" d="M12 -119h416v1268h-416v285h768v-1837h-768v284z" />
<glyph unicode="^" horiz-adv-x="819" d="M-8 1085l248 383h340l247 -383h-262l-153 201h-6l-146 -201h-268z" />
<glyph unicode="_" horiz-adv-x="1198" d="M-12 0h1222v-301h-1222v301z" />
<glyph unicode="`" horiz-adv-x="815" d="M14 1468h410l197 -383h-236z" />
<glyph unicode="a" d="M59 231q0 58 18 106.5t60 91t106 72.5t160.5 48t219.5 20v15q0 110 -146 110q-128 0 -334 -92l-82 272q236 115 484 115q135 0 228.5 -30t146 -89.5t74.5 -137.5q20 -72 20 -168v-17l-2 -223q0 -42 12.5 -54t56.5 -18l-39 -268q-70 -10 -128 -10q-83 0 -141 21 q-97 36 -140 128h-6q-27 -31 -41 -46t-43 -40t-54.5 -37t-63.5 -21.5t-81 -9.5q-118 0 -201.5 76.5t-83.5 185.5zM418 291q0 -36 26.5 -58t65.5 -22q72 0 113 45v145q-115 -11 -160 -34t-45 -76z" />
<glyph unicode="b" horiz-adv-x="1206" d="M96 -31v1372l391 45v-530q124 133 271 133q172 0 286.5 -133.5t114.5 -359.5q0 -121 -40 -222t-106.5 -165.5t-152 -100t-178.5 -35.5q-120 0 -223 41zM487 276q50 -26 113 -26q79 0 124.5 59.5t45.5 163.5q0 105 -40 160t-118 55q-75 0 -125 -53v-359z" />
<glyph unicode="c" horiz-adv-x="1019" d="M53 469q0 242 146.5 381t402.5 139q104 0 204.5 -22t164.5 -58l-70 -280q-135 71 -248 71q-95 0 -148.5 -60.5t-53.5 -156.5q0 -108 58.5 -165.5t158.5 -57.5q118 0 241 70l56 -283q-61 -36 -159.5 -57t-207.5 -21q-253 0 -399 127t-146 373z" />
<glyph unicode="d" horiz-adv-x="1212" d="M53 465q0 121 40 221.5t106.5 165t152 100t178.5 35.5q105 0 195 -33v387l391 45v-1386h-391v104q-124 -133 -270 -133q-172 0 -287 134t-115 360zM442 487q0 -101 44.5 -158t113.5 -57q74 0 125 54v358q-52 27 -113 27q-79 0 -124.5 -60t-45.5 -164z" />
<glyph unicode="e" horiz-adv-x="1101" d="M51 473q0 236 148 376t393 140q216 0 333 -113.5t117 -302.5q0 -117 -20 -176l-592 -14v-2q11 -72 65 -106.5t158 -34.5q150 0 326 100l31 -291q-173 -78 -398 -78q-263 0 -412 128.5t-149 373.5zM430 559h250q2 6 2 21q0 157 -113 157q-59 0 -96 -49t-43 -129z" />
<glyph unicode="f" horiz-adv-x="817" d="M-6 653l8 250l154 45l2 62q7 216 105 315.5t300 99.5q178 0 295 -49l-70 -315q-78 35 -163 35q-54 0 -75.5 -27t-21.5 -80v-49h250l-6 -295h-223v-645h-391v641z" />
<glyph unicode="g" horiz-adv-x="1136" d="M-12 -279q0 70 61.5 124t177.5 65q-75 17 -130.5 63.5t-55.5 116.5q0 73 60.5 137t154.5 90q-94 38 -151.5 117t-57.5 180q0 166 132.5 270.5t355.5 104.5q154 0 315 -74l283 23l18 -301l-184 25q6 -10 6 -58q0 -148 -123.5 -246t-317.5 -98q-65 0 -122 8 q-37 -23 -37 -53q0 -27 36 -36t117 -9h127q79 0 143 -7.5t123.5 -26.5t100 -49.5t64.5 -79.5t24 -113q0 -122 -93 -217t-238 -143t-312 -48q-100 0 -184 13t-151 40.5t-104.5 73.5t-37.5 108zM319 -205q0 -47 56 -73.5t153 -26.5q113 0 180.5 25t67.5 73q0 45 -51.5 60.5 t-175.5 15.5q-33 0 -109.5 3t-89.5 3q-31 -40 -31 -80zM416 612q0 -145 112 -145q59 0 84 37.5t25 113.5q0 69 -27.5 108.5t-81.5 39.5q-55 0 -83.5 -40.5t-28.5 -113.5z" />
<glyph unicode="h" horiz-adv-x="1208" d="M96 0v1341l391 45v-571q64 81 147.5 127.5t178.5 46.5q142 0 222.5 -88t80.5 -242v-659h-391v549q0 119 -104 119q-72 0 -134 -58v-610h-391z" />
<glyph unicode="i" horiz-adv-x="583" d="M68 1251q0 97 59.5 146t165.5 49t165.5 -49t59.5 -146t-59.5 -145.5t-165.5 -48.5t-165.5 48.5t-59.5 145.5zM96 0v932l391 47v-979h-391z" />
<glyph unicode="j" horiz-adv-x="583" d="M-76 -227q47 22 76.5 45t52.5 59t33 88t10 127v840l391 47v-926q0 -222 -80.5 -355t-265.5 -185zM68 1251q0 97 59.5 146t165.5 49t165.5 -49t59.5 -146t-59.5 -145.5t-165.5 -48.5t-165.5 48.5t-59.5 145.5z" />
<glyph unicode="k" horiz-adv-x="1169" d="M96 0v1341l391 45v-827h2l240 399h440l-309 -456l311 -502h-434l-248 438h-2v-438h-391z" />
<glyph unicode="l" horiz-adv-x="583" d="M96 0v1341l391 45v-1386h-391z" />
<glyph unicode="m" horiz-adv-x="1792" d="M96 0v934l391 45v-137q67 72 139 109.5t165 37.5q96 0 170.5 -45.5t109.5 -130.5q139 176 326 176q142 0 222.5 -88t80.5 -242v-659h-391v549q0 119 -105 119q-57 0 -110 -39v-56v-573h-392v549q0 119 -104 119q-58 0 -111 -39v-629h-391z" />
<glyph unicode="n" horiz-adv-x="1208" d="M96 0v934l391 45v-164q64 81 147.5 127.5t178.5 46.5q142 0 222.5 -88t80.5 -242v-659h-391v549q0 119 -104 119q-72 0 -134 -58v-610h-391z" />
<glyph unicode="o" horiz-adv-x="1177" d="M51 475q0 122 43 220.5t118 162t173.5 97.5t210.5 34t208 -33.5t168 -96t113 -159.5t41 -217q0 -159 -74.5 -277.5t-197 -177.5t-272.5 -59q-113 0 -208.5 32.5t-168 94t-113.5 159t-41 220.5zM438 477q0 -107 39 -164t113 -57q73 0 111 58t38 167q0 107 -38.5 165.5 t-112.5 58.5q-73 0 -111.5 -59.5t-38.5 -168.5z" />
<glyph unicode="p" horiz-adv-x="1212" d="M96 -395v1329l391 45v-123q124 133 269 133q172 0 287.5 -133.5t115.5 -359.5q0 -121 -40 -222t-106.5 -165.5t-152 -100t-178.5 -35.5q-105 0 -195 33v-401h-391zM487 276q50 -26 113 -26q79 0 124.5 59.5t45.5 163.5q0 105 -40 160t-118 55q-75 0 -125 -53v-359z" />
<glyph unicode="q" horiz-adv-x="1212" d="M53 465q0 121 40 221.5t106.5 165t152 100t178.5 35.5q56 0 121.5 -14.5t102.5 -36.5l362 43v-1374h-391v499q-124 -133 -270 -133q-172 0 -287 134t-115 360zM442 487q0 -101 44.5 -158t113.5 -57q74 0 125 54v358q-52 27 -113 27q-79 0 -124.5 -60t-45.5 -164z" />
<glyph unicode="r" horiz-adv-x="843" d="M96 0v932l391 47v-127q73 137 211 137q84 0 150 -35l-74 -340q-51 23 -104 23q-118 0 -183 -111v-526h-391z" />
<glyph unicode="s" horiz-adv-x="1005" d="M41 53l72 264q201 -92 379 -92q98 0 98 49q0 25 -25.5 39t-105.5 31q-208 37 -306 112.5t-98 217.5q0 141 120 228t341 87q104 0 231.5 -26t198.5 -62l-74 -262q-91 44 -187 69t-169 25q-49 0 -70.5 -11t-21.5 -36q0 -23 26.5 -34.5t110.5 -30.5q212 -43 303.5 -114.5 t91.5 -215.5q0 -137 -122 -229.5t-349 -92.5q-111 0 -238 23t-206 61z" />
<glyph unicode="t" horiz-adv-x="813" d="M18 653l7 250l135 47l4 224h379v-234h211l-6 -295h-236l-8 -246v-13q0 -52 30 -78q34 -29 97 -29q47 0 100 18l41 -297q-115 -31 -242 -31q-205 -1 -303 87q-89 79 -89 250q0 17 1 36l15 281z" />
<glyph unicode="u" horiz-adv-x="1185" d="M90 299v659h391v-548q0 -119 105 -119q61 0 112 41v626h392v-933l-392 -45v143q-55 -66 -134.5 -110t-170.5 -44q-142 0 -222.5 88t-80.5 242z" />
<glyph unicode="v" horiz-adv-x="1130" d="M-14 958h417l158 -614l160 614h424l-357 -960h-460z" />
<glyph unicode="w" horiz-adv-x="1671" d="M18 958h394l92 -600l133 603h420l127 -584l78 581h399l-264 -962h-406l-151 590l-158 -590h-403z" />
<glyph unicode="x" horiz-adv-x="1103" d="M-16 0l331 489l-329 469h409l156 -241l154 241h407l-324 -464l332 -494h-411l-156 272l-154 -272h-415z" />
<glyph unicode="y" d="M-31 -352l117 284q45 -19 61.5 -25.5t39 -12t46.5 -5.5q49 0 72.5 15.5t40.5 58.5l10 35l-376 960h419l166 -571l144 571h417l-327 -884l-39 -105q-76 -219 -181.5 -303t-283.5 -84q-179 0 -326 66z" />
<glyph unicode="z" horiz-adv-x="991" d="M35 0v211l393 434h-375v313h899v-210l-393 -435h393v-313h-917z" />
<glyph unicode="{" horiz-adv-x="882" d="M-10 524l6 158q133 11 191.5 41t58.5 96q0 40 -25.5 158.5t-25.5 212.5q0 51 17 91.5t45 69t76 49.5t98.5 33t123.5 20t140 11t159 4v-231q-164 -12 -223.5 -39t-59.5 -90q0 -21 16.5 -127.5t16.5 -204.5q0 -97 -88.5 -165t-222.5 -76v-21q133 -7 222 -77t89 -167 q0 -96 -16.5 -194.5t-16.5 -128.5q0 -67 59 -95t224 -40v-230q-93 1 -159.5 4t-140 10.5t-123.5 20t-98 33t-76 49t-45 69t-17 91.5q0 94 25.5 208.5t25.5 153.5q0 66 -60 100.5t-190 45.5z" />
<glyph unicode="|" horiz-adv-x="589" d="M123 -410v1846h344v-1846h-344z" />
<glyph unicode="}" horiz-adv-x="882" d="M29 -188q165 12 223.5 40t58.5 95q0 30 -16 128.5t-16 194.5q0 97 89 167t222 77v21q-134 8 -222.5 76t-88.5 165q0 98 16 204.5t16 127.5q0 63 -59 90t-223 39v231q93 -1 160 -4t140 -11t123.5 -20t98 -33t75.5 -49.5t45 -69t17 -91.5q0 -94 -25.5 -212.5t-25.5 -158.5 q0 -66 58.5 -96t191.5 -41l6 -158l-6 -157q-130 -11 -190 -45.5t-60 -100.5q0 -39 25.5 -153.5t25.5 -208.5q0 -51 -17 -91.5t-45 -69t-76 -49t-97.5 -33t-123.5 -20t-140.5 -10.5t-159.5 -4v230z" />
<glyph unicode="~" horiz-adv-x="819" d="M-8 399q10 102 31.5 171t54 105t68.5 50t83 14q57 0 121.5 -26t115 -52t73.5 -26q26 0 38.5 18.5t18.5 73.5h225q-10 -102 -31 -171t-53 -105t-68 -50t-85 -14q-57 0 -121.5 26.5t-115 52.5t-73.5 26q-26 0 -38.5 -19t-18.5 -74h-225z" />
<glyph unicode="&#xa1;" horiz-adv-x="653" d="M109 -57l75 872h285l76 -872h-436zM113 1114q0 93 60.5 144t152.5 51t152.5 -51t60.5 -144t-60.5 -143.5t-152.5 -50.5t-152.5 50.5t-60.5 143.5z" />
<glyph unicode="&#xa2;" horiz-adv-x="1024" d="M53 469q0 242 146.5 381t402.5 139q35 0 51 -2q0 1 3 15.5t8.5 41.5t9.5 48q10 50 18 104h162l-43 -229q88 -20 160 -58l-70 -280q-75 40 -141 59l-41 -217l-41 -217q61 1 112 20t119 56l56 -283q-107 -68 -340 -78l-50 -262h-161l51 273q-192 30 -302 155t-110 334z M430 483q0 -133 92 -192l78 411q-82 -17 -126 -76.5t-44 -142.5z" />
<glyph unicode="&#xa3;" horiz-adv-x="1226" d="M37 264q121 26 177 60.5t56 101.5q0 47 -18 135h-186l-11 158h164q-14 82 -14 145q0 203 137 325t369 122q103 0 212.5 -28.5t188.5 -80.5q-6 -26 -18 -73t-17 -68l-37 -148q-65 46 -141.5 71.5t-146.5 25.5q-86 0 -131.5 -47.5t-45.5 -128.5q0 -13 13 -115h317l-10 -158 h-287q6 -43 6 -84q0 -76 -14 -131q82 -65 193 -65q63 0 100.5 40t48.5 142l275 -47q-8 -116 -41 -203t-85.5 -139.5t-118 -78.5t-143.5 -26q-176 0 -342 166q-127 -127 -368 -172z" />
<glyph unicode="&#xa4;" horiz-adv-x="1177" d="M47 414l10 157h148q-2 23 -2 66q0 51 2 76h-148l-10 157h172q48 237 188.5 348t354.5 111q109 0 214 -22t167 -58l-72 -280q-124 67 -252 67q-79 0 -128 -39.5t-73 -126.5h381l-10 -157h-395q-2 -16 -2 -62q0 -53 6 -80h330l10 -157h-305q54 -152 203 -152q119 0 245 68 l56 -283q-57 -35 -160 -56.5t-219 -21.5q-109 0 -195.5 24t-157.5 75.5t-118.5 138t-69.5 207.5h-170z" />
<glyph unicode="&#xa5;" horiz-adv-x="1327" d="M20 1280h422l224 -440l219 440h422l-406 -647h322l-11 -158h-358v-121h358l11 -157h-361v-197h-395v197h-361l11 157h358v121h-358l-11 158h322z" />
<glyph unicode="&#xa6;" horiz-adv-x="942" d="M25 63l26 349q148 -111 262 -111q63 0 95 39t32 133v807h404v-815q0 -494 -461 -494q-213 0 -358 92z" />
<glyph unicode="&#xa7;" horiz-adv-x="1138" d="M37 569q0 179 196 240q-94 78 -94 192q0 141 120 228.5t341 87.5q100 0 230 -23.5t200 -64.5l-74 -262q-91 44 -187 69t-169 25q-49 0 -70.5 -11t-21.5 -36q0 -8 3.5 -15t11.5 -13t16.5 -11.5t24 -11t27 -10t32.5 -10.5t35 -9.5t39 -10t40 -10.5q60 -17 103.5 -32.5 t96.5 -42t86 -55.5t56 -72t23 -93q0 -166 -180 -235q118 -77 118 -197q0 -136 -122 -228.5t-349 -92.5q-107 0 -234 23t-210 61l72 264q201 -92 378 -92q99 0 99 49q0 29 -57.5 50t-170.5 46q-44 10 -70.5 16t-69.5 17.5t-70 23.5t-62 29t-56.5 38t-41.5 47t-29.5 59.5 t-9.5 72.5zM332 647q0 -29 25 -52t73 -41.5t97.5 -33.5t121 -36t121.5 -40q14 14 25.5 41.5t11.5 49.5q0 29 -25.5 52t-73.5 41.5t-99 33.5t-120.5 36.5t-119.5 42.5q-37 -37 -37 -94z" />
<glyph unicode="&#xa8;" horiz-adv-x="819" d="M-29 1268q0 88 48.5 131t136.5 43q85 0 133.5 -43t48.5 -131t-48.5 -131t-133.5 -43q-88 0 -136.5 43t-48.5 131zM479 1268q0 88 49 131t134 43q182 0 182 -174t-182 -174q-85 0 -134 43t-49 131z" />
<glyph unicode="&#xa9;" horiz-adv-x="1710" d="M51 637q0 219 107.5 404.5t292.5 294t403 108.5t403.5 -108.5t293.5 -294.5t108 -404q0 -217 -108 -402t-293.5 -293t-403.5 -108t-403 108t-292.5 292.5t-107.5 402.5zM125 637q0 -149 57.5 -284.5t155 -234.5t233 -157.5t283.5 -58.5t283.5 58.5t233.5 157.5t156 235 t58 284q0 149 -58 285t-156 235t-233.5 158t-283.5 59t-283.5 -59t-233 -158t-155 -235t-57.5 -285zM453 637q0 199 119.5 311.5t342.5 112.5q124 0 275 -51l-94 -256q-32 19 -84.5 32t-93.5 13q-71 0 -110.5 -43t-39.5 -113q0 -162 147 -162q99 0 193 47l70 -260 q-45 -18 -126.5 -32.5t-150.5 -14.5q-215 0 -331.5 103.5t-116.5 312.5z" />
<glyph unicode="&#xaa;" horiz-adv-x="860" d="M35 707q0 121 107 193.5t333 82.5v16q0 37 -26 59.5t-78 22.5q-59 0 -128 -24.5t-126 -61.5l-82 209q64 46 174.5 78.5t210.5 32.5q183 0 275.5 -80.5t92.5 -230.5v-230q0 -112 82 -215l-317 -63q-18 21 -28 33.5t-22.5 38.5t-19.5 55h-10q-40 -53 -97 -89t-124 -36 q-98 0 -157.5 58t-59.5 151zM313 764q0 -31 20.5 -50.5t55.5 -19.5q19 0 46.5 9.5t39.5 21.5v139q-162 -21 -162 -100z" />
<glyph unicode="&#xab;" horiz-adv-x="1265" d="M31 342v274l512 310l73 -236l-229 -211v-4l229 -209l-73 -235zM637 334v287l520 325l70 -239l-230 -228v-4l230 -225l-70 -240z" />
<glyph unicode="&#xac;" horiz-adv-x="1212" d="M53 465q0 121 40 221.5t106.5 165t152 100t178.5 35.5q56 0 121.5 -14.5t102.5 -36.5l362 43v-655q0 -42 13 -54t57 -18l-41 -268q-170 -25 -266.5 11.5t-141.5 127.5q-66 -73 -131.5 -112.5t-150.5 -39.5q-172 0 -287 134t-115 360zM442 487q0 -101 44.5 -158t113.5 -57 q74 0 125 54v358q-52 27 -113 27q-79 0 -124.5 -60t-45.5 -164z" />
<glyph unicode="&#xad;" horiz-adv-x="827" d="M51 346v301h727v-301h-727z" />
<glyph unicode="&#xae;" horiz-adv-x="1710" d="M51 637q0 219 107.5 404.5t292.5 294t403 108.5t403.5 -108.5t293.5 -294.5t108 -404q0 -217 -108 -402t-293.5 -293t-403.5 -108t-403 108t-292.5 292.5t-107.5 402.5zM125 637q0 -149 57.5 -284.5t155 -234.5t233 -157.5t283.5 -58.5t283.5 58.5t233.5 157.5t156 235 t58 284q0 149 -58 285t-156 235t-233.5 158t-283.5 59t-283.5 -59t-233 -158t-155 -235t-57.5 -285zM487 254v788h426q174 0 264.5 -70t90.5 -194q0 -70 -38 -130t-112 -91l176 -303h-323l-119 244l-59 -4v-240h-306zM791 664l61 2q49 2 77.5 25t28.5 69q0 86 -110 86h-57 v-182z" />
<glyph unicode="&#xaf;" horiz-adv-x="819" d="M-8 1137l28 213h781l28 -213h-837z" />
<glyph unicode="&#xb0;" horiz-adv-x="792" d="M55 969q0 144 93.5 243t246.5 99q154 0 247 -99t93 -243q0 -140 -93.5 -239t-246.5 -99q-152 0 -246 99t-94 239zM166 969q0 -96 62.5 -164t166.5 -68t167 68t63 164q0 101 -62 168t-168 67t-167.5 -66.5t-61.5 -168.5z" />
<glyph unicode="&#xb1;" horiz-adv-x="1710" d="M51 637q0 219 107.5 404.5t292.5 294t403 108.5t403.5 -108.5t293.5 -294.5t108 -404q0 -217 -108 -402t-293.5 -293t-403.5 -108t-403 108t-292.5 292.5t-107.5 402.5zM125 637q0 -149 57.5 -284.5t155 -234.5t233 -157.5t283.5 -58.5t283.5 58.5t233.5 157.5t156 235 t58 284q0 149 -58 285t-156 235t-233.5 158t-283.5 59t-283.5 -59t-233 -158t-155 -235t-57.5 -285zM537 254v790h391q179 0 275.5 -75.5t96.5 -214.5q0 -151 -101 -229.5t-286 -78.5h-63v-192h-313zM836 637l36 2q69 5 100.5 28.5t31.5 77.5q0 99 -119 99h-49v-207z" />
<glyph unicode="&#xb4;" horiz-adv-x="815" d="M195 1085l196 383h410l-371 -383h-235z" />
<glyph unicode="&#xb5;" horiz-adv-x="1212" d="M53 475q0 115 39.5 213t105.5 162.5t151 100.5t177 36q57 0 124 -14.5t104 -36.5l362 45v-840q0 -293 -136.5 -426t-422.5 -133q-124 0 -244.5 30.5t-201.5 74.5l98 288q187 -88 323 -88q42 0 72.5 6t60 23.5t45 53.5t15.5 91v43q-94 -112 -260 -112q-80 0 -153.5 31.5 t-131.5 90t-92.5 152t-34.5 209.5zM442 498q0 -101 44.5 -158t113.5 -57q75 0 125 53v348q-52 27 -113 27q-80 0 -125 -56.5t-45 -156.5z" />
<glyph unicode="&#xb6;" horiz-adv-x="1306" d="M70 821q0 216 157.5 337.5t462.5 121.5h481v-1432h-344v496h-165q-294 0 -443 121t-149 356z" />
<glyph unicode="&#xb7;" horiz-adv-x="616" d="M90 555q0 99 61 157t164 58t164.5 -58t61.5 -157t-61.5 -157t-164.5 -58t-164 58t-61 157z" />
<glyph unicode="&#xb8;" horiz-adv-x="819" d="M201 -121l225 201h172q-63 -55 -72 -62q-14 -12 -58.5 -49t-64.5 -55q69 -5 127 -30t98 -75t40 -116q0 -240 -445 -295l-16 164q136 7 193 32.5t57 73.5q0 59 -56.5 80t-177.5 16z" />
<glyph unicode="&#xba;" horiz-adv-x="958" d="M49 903q0 127 58.5 221t156 140.5t219.5 46.5q186 0 306 -108.5t120 -299.5q0 -187 -123.5 -297t-310.5 -110q-185 0 -305.5 110t-120.5 297zM365 905q0 -92 30 -142t86 -50q55 0 84 48.5t29 139.5q0 92 -30.5 144t-86.5 53q-55 0 -83.5 -50.5t-28.5 -142.5z" />
<glyph unicode="&#xbb;" horiz-adv-x="1275" d="M49 250l230 225v4l-230 228l70 239l520 -325v-287l-520 -324zM659 266l230 209v4l-230 211l74 236l512 -310v-274l-512 -311z" />
<glyph unicode="&#xbc;" horiz-adv-x="1548" d="M-6 653l8 250l154 45l2 41q7 216 105 316t300 100q178 0 295 -49l-70 -316q-78 35 -163 35q-54 0 -75.5 -26.5t-21.5 -79.5v-29l359 8l2 62q7 216 105 315.5t300 99.5q178 0 295 -49l-69 -315q-78 35 -164 35q-54 0 -75 -27t-21 -80v-49h249l-6 -295h-223v-645h-391v643 l-340 2v-645h-391v641z" />
<glyph unicode="&#xbd;" horiz-adv-x="2058" d="M-6 653l8 250l154 45l2 41q7 216 105 316t300 100q178 0 295 -49l-70 -316q-78 35 -163 35q-54 0 -75.5 -26.5t-21.5 -79.5v-29l359 8l2 62q7 216 105 315.5t300 99.5q178 0 295 -49l-69 -315q-78 35 -164 35q-54 0 -75 -27t-21 -80v-49h319l391 39v-979h-391v645h-309 v-645h-381v641l-340 4v-645h-391v641z" />
<glyph unicode="&#xbe;" horiz-adv-x="2127" d="M-6 653l8 250l154 45l2 41q7 216 105 316t300 100q178 0 295 -49l-70 -316q-78 35 -163 35q-54 0 -75.5 -26.5t-21.5 -79.5v-29l359 8l2 62q7 216 105 315.5t300 99.5q178 0 295 -49l-69 -315q-78 35 -164 35q-54 0 -75 -27t-21 -80v-49h249l-6 -295h-223v-645h-391v641 l-340 4v-645h-391v641zM1640 0v1341l392 45v-1386h-392z" />
<glyph unicode="&#xbf;" horiz-adv-x="921" d="M61 389q0 112 67 185.5t183 107.5q123 35 142 47q0 3 -27 23.5t-55.5 41.5t-30.5 23q46 6 121 19q126 16 141 16q86 -30 131 -96t45 -133q0 -143 -205 -191q-93 -22 -120 -34.5t-27 -39.5q0 -71 168 -71q54 0 126.5 14.5t119.5 34.5l-19 -320q-110 -47 -260 -47 q-224 0 -362 117.5t-138 302.5zM295 1116q0 97 59.5 146t165.5 49t165.5 -49t59.5 -146t-59.5 -145.5t-165.5 -48.5t-165.5 48.5t-59.5 145.5z" />
<glyph unicode="&#xc0;" horiz-adv-x="1390" d="M2 0l440 1280h514l433 -1280h-400l-80 240h-434l-76 -240h-397zM223 1729h410l196 -383h-235zM553 543h278l-135 448z" />
<glyph unicode="&#xc1;" horiz-adv-x="1390" d="M2 0l440 1280h514l433 -1280h-400l-80 240h-434l-76 -240h-397zM553 543h278l-135 448zM567 1346l197 383h410l-371 -383h-236z" />
<glyph unicode="&#xc2;" horiz-adv-x="1390" d="M2 0l440 1280h514l433 -1280h-400l-80 240h-434l-76 -240h-397zM276 1346l248 383h340l248 -383h-262l-154 200h-6l-145 -200h-269zM553 543h278l-135 448z" />
<glyph unicode="&#xc3;" horiz-adv-x="1390" d="M2 0l440 1280h514l433 -1280h-400l-80 240h-434l-76 -240h-397zM279 1366q10 102 31.5 171t54 105t68.5 50t83 14q57 0 121.5 -26t114.5 -52t73 -26q26 0 39 18.5t19 73.5h225q-10 -102 -31 -171t-53.5 -105t-68.5 -50t-85 -14q-57 0 -121.5 26t-114.5 52t-73 26 q-26 0 -38.5 -18.5t-18.5 -73.5h-225zM553 543h278l-135 448z" />
<glyph unicode="&#xc4;" horiz-adv-x="1390" d="M2 0l440 1280h514l433 -1280h-400l-80 240h-434l-76 -240h-397zM248 1528q0 88 48 131t136 43q85 0 133.5 -43t48.5 -131t-48.5 -131t-133.5 -43q-88 0 -136 43t-48 131zM553 543h278l-135 448zM756 1528q0 88 48.5 131t133.5 43q182 0 182 -174t-182 -174 q-85 0 -133.5 43t-48.5 131z" />
<glyph unicode="&#xc5;" horiz-adv-x="1390" d="M2 0l440 1274q-53 65 -53 149q0 108 84.5 180t222.5 72q140 0 224 -70.5t84 -181.5q0 -81 -52 -145l437 -1278h-400l-80 240h-434l-76 -240h-397zM520 1425q0 -66 48 -105.5t128 -39.5q84 0 131 39t47 106t-47 105.5t-131 38.5q-80 0 -128 -39t-48 -105zM553 543h278 l-135 448z" />
<glyph unicode="&#xc6;" horiz-adv-x="1906" d="M-14 0l567 1280h1280v-313h-606v-168h499v-314h-499v-172h606v-313h-999v240h-324l-96 -240h-428zM637 553h197v491z" />
<glyph unicode="&#xc7;" horiz-adv-x="1267" d="M72 635q0 313 190.5 494.5t525.5 181.5q232 0 433 -90l-121 -334q-148 86 -307 86q-148 0 -232 -88t-84 -242q0 -158 81.5 -247t234.5 -89q166 0 325 94l88 -346q-76 -37 -195 -61.5t-233 -24.5q-13 -13 -36.5 -32t-28.5 -23q69 -5 127 -30t97.5 -75t39.5 -116 q0 -240 -445 -295l-16 164q136 7 193 32.5t57 73.5q0 59 -56.5 80t-177.5 16l-22 115l113 101q-263 36 -407 201.5t-144 453.5z" />
<glyph unicode="&#xc8;" horiz-adv-x="1202" d="M119 0v1280h999v-313h-606v-168h479v-314h-479v-172h606v-313h-999zM147 1729h410l197 -383h-236z" />
<glyph unicode="&#xc9;" horiz-adv-x="1202" d="M119 0v1280h999v-313h-606v-168h479v-314h-479v-172h606v-313h-999zM502 1346l196 383h410l-371 -383h-235z" />
<glyph unicode="&#xca;" horiz-adv-x="1202" d="M119 0v1280h999v-313h-606v-168h479v-314h-479v-172h606v-313h-999zM209 1346l248 383h340l247 -383h-262l-153 200h-6l-146 -200h-268z" />
<glyph unicode="&#xcb;" horiz-adv-x="1202" d="M119 0v1280h999v-313h-606v-168h479v-314h-479v-172h606v-313h-999zM190 1528q0 88 48.5 131t136.5 43q85 0 133.5 -43t48.5 -131t-48.5 -131t-133.5 -43q-88 0 -136.5 43t-48.5 131zM698 1528q0 88 49 131t134 43q182 0 182 -174t-182 -174q-85 0 -134 43t-49 131z" />
<glyph unicode="&#xcc;" horiz-adv-x="645" d="M-160 1729h410l196 -383h-235zM121 0v1280h403v-1280h-403z" />
<glyph unicode="&#xcd;" horiz-adv-x="645" d="M121 0v1280h403v-1280h-403zM178 1346l197 383h409l-370 -383h-236z" />
<glyph unicode="&#xce;" horiz-adv-x="645" d="M-96 1346l248 383h340l247 -383h-262l-153 200h-7l-145 -200h-268zM121 0v1280h403v-1280h-403z" />
<glyph unicode="&#xcf;" horiz-adv-x="645" d="M-117 1528q0 88 48.5 131t136.5 43q85 0 133.5 -43t48.5 -131t-48.5 -131t-133.5 -43q-88 0 -136.5 43t-48.5 131zM121 0v1280h403v-1280h-403zM391 1528q0 88 48.5 131t133.5 43q183 0 183 -174t-183 -174q-85 0 -133.5 43t-48.5 131z" />
<glyph unicode="&#xd0;" horiz-adv-x="1525" d="M31 496v301h170v483h530q343 0 532 -170t189 -461q0 -299 -196.5 -474t-553.5 -175h-501v496h-170zM604 309h80q160 0 261.5 83t101.5 245q0 334 -383 334h-60v-174h225v-301h-225v-187z" />
<glyph unicode="&#xd1;" horiz-adv-x="1501" d="M119 0v1280h434l455 -727v727h374v-1292h-428l-460 737v-725h-375zM334 1366q10 102 31.5 171t54 105t68.5 50t83 14q57 0 121.5 -26t115 -52t73.5 -26q26 0 38.5 18.5t18.5 73.5h225q-10 -102 -31 -171t-53 -105t-68 -50t-85 -14q-57 0 -121.5 26t-115 52t-73.5 26 q-26 0 -38.5 -18.5t-18.5 -73.5h-225z" />
<glyph unicode="&#xd2;" horiz-adv-x="1513" d="M72 637q0 153 53.5 281t146 213.5t218.5 132.5t270 47q146 0 269 -41.5t216 -122.5t145 -209.5t52 -292.5q0 -153 -53.5 -281t-146 -214t-218.5 -133.5t-270 -47.5q-146 0 -269 42.5t-216 123.5t-145 210t-52 292zM276 1749h410l197 -383h-236zM477 645 q0 -163 73.5 -260.5t209.5 -97.5q135 0 205.5 95t70.5 255q0 163 -73 259.5t-209 96.5q-137 0 -207 -94t-70 -254z" />
<glyph unicode="&#xd3;" horiz-adv-x="1513" d="M72 637q0 153 53.5 281t146 213.5t218.5 132.5t270 47q146 0 269 -41.5t216 -122.5t145 -209.5t52 -292.5q0 -153 -53.5 -281t-146 -214t-218.5 -133.5t-270 -47.5q-146 0 -269 42.5t-216 123.5t-145 210t-52 292zM477 645q0 -163 73.5 -260.5t209.5 -97.5 q135 0 205.5 95t70.5 255q0 163 -73 259.5t-209 96.5q-137 0 -207 -94t-70 -254zM627 1366l196 383h410l-371 -383h-235z" />
<glyph unicode="&#xd4;" horiz-adv-x="1513" d="M72 637q0 153 53.5 281t146 213.5t218.5 132.5t270 47q146 0 269 -41.5t216 -122.5t145 -209.5t52 -292.5q0 -153 -53.5 -281t-146 -214t-218.5 -133.5t-270 -47.5q-146 0 -269 42.5t-216 123.5t-145 210t-52 292zM338 1346l248 383h340l248 -383h-263l-153 200h-6 l-146 -200h-268zM477 645q0 -163 73.5 -260.5t209.5 -97.5q135 0 205.5 95t70.5 255q0 163 -73 259.5t-209 96.5q-137 0 -207 -94t-70 -254z" />
<glyph unicode="&#xd5;" horiz-adv-x="1513" d="M72 637q0 153 53.5 281t146 213.5t218.5 132.5t270 47q146 0 269 -41.5t216 -122.5t145 -209.5t52 -292.5q0 -153 -53.5 -281t-146 -214t-218.5 -133.5t-270 -47.5q-146 0 -269 42.5t-216 123.5t-145 210t-52 292zM340 1366q10 102 31.5 171t54.5 105t68.5 50t83.5 14 q57 0 121.5 -26t114.5 -52t73 -26q26 0 38.5 18.5t18.5 73.5h225q-10 -102 -31 -171t-53 -105t-68 -50t-85 -14q-57 0 -121.5 26t-114.5 52t-73 26q-26 0 -39 -18.5t-19 -73.5h-225zM477 645q0 -163 73.5 -260.5t209.5 -97.5q135 0 205.5 95t70.5 255q0 163 -73 259.5 t-209 96.5q-137 0 -207 -94t-70 -254z" />
<glyph unicode="&#xd6;" horiz-adv-x="1513" d="M72 637q0 153 53.5 281t146 213.5t218.5 132.5t270 47q146 0 269 -41.5t216 -122.5t145 -209.5t52 -292.5q0 -153 -53.5 -281t-146 -214t-218.5 -133.5t-270 -47.5q-146 0 -269 42.5t-216 123.5t-145 210t-52 292zM317 1528q0 88 48.5 131t136.5 43q85 0 133.5 -43 t48.5 -131t-48.5 -131t-133.5 -43q-88 0 -136.5 43t-48.5 131zM477 645q0 -163 73.5 -260.5t209.5 -97.5q135 0 205.5 95t70.5 255q0 163 -73 259.5t-209 96.5q-137 0 -207 -94t-70 -254zM825 1528q0 88 49 131t134 43q182 0 182 -174t-182 -174q-85 0 -134 43t-49 131z" />
<glyph unicode="&#xd7;" horiz-adv-x="1118" d="M63 786l201 201l295 -299l295 299l201 -201l-299 -292l297 -293l-201 -201l-293 295l-293 -295l-200 201l296 291z" />
<glyph unicode="&#xd8;" horiz-adv-x="1513" d="M72 637q0 153 53.5 281t146 213.5t218.5 132.5t270 47q157 0 276 -45q1 0 45 75l13.5 22.5t16.5 28.5t15 25h156l-123 -209q134 -81 208.5 -223t74.5 -340q0 -153 -53.5 -281t-146 -214t-218.5 -133.5t-270 -47.5q-167 0 -295 51l-92 -157h-156l129 219 q-127 82 -197.5 222t-70.5 333zM477 645q0 -152 64 -246l329 572q-58 22 -116 22q-137 0 -207 -94t-70 -254zM629 317q55 -30 131 -30q135 0 205.5 95t70.5 255q0 166 -73 260z" />
<glyph unicode="&#xd9;" horiz-adv-x="1404" d="M106 504v776h404v-727q0 -130 47.5 -191t151.5 -61q101 0 144.5 54.5t43.5 187.5v737h401v-743q0 -145 -43.5 -255t-123.5 -178t-187.5 -101.5t-241.5 -33.5q-131 0 -237 30t-188 92t-126.5 167t-44.5 246zM240 1729h409l197 -383h-236z" />
<glyph unicode="&#xda;" horiz-adv-x="1404" d="M106 504v776h404v-727q0 -130 47.5 -191t151.5 -61q101 0 144.5 54.5t43.5 187.5v737h401v-743q0 -145 -43.5 -255t-123.5 -178t-187.5 -101.5t-241.5 -33.5q-131 0 -237 30t-188 92t-126.5 167t-44.5 246zM557 1346l197 383h409l-370 -383h-236z" />
<glyph unicode="&#xdb;" horiz-adv-x="1404" d="M106 504v776h404v-727q0 -130 47.5 -191t151.5 -61q101 0 144.5 54.5t43.5 187.5v737h401v-743q0 -145 -43.5 -255t-123.5 -178t-187.5 -101.5t-241.5 -33.5q-131 0 -237 30t-188 92t-126.5 167t-44.5 246zM285 1346l247 383h340l248 -383h-262l-153 200h-7l-145 -200 h-268z" />
<glyph unicode="&#xdc;" horiz-adv-x="1404" d="M106 504v776h404v-727q0 -130 47.5 -191t151.5 -61q101 0 144.5 54.5t43.5 187.5v737h401v-743q0 -145 -43.5 -255t-123.5 -178t-187.5 -101.5t-241.5 -33.5q-131 0 -237 30t-188 92t-126.5 167t-44.5 246zM264 1528q0 88 48.5 131t136.5 43q85 0 133.5 -43t48.5 -131 t-48.5 -131t-133.5 -43q-88 0 -136.5 43t-48.5 131zM772 1528q0 88 48.5 131t133.5 43q183 0 183 -174t-183 -174q-85 0 -133.5 43t-48.5 131z" />
<glyph unicode="&#xdd;" horiz-adv-x="1327" d="M20 1280h422l226 -459l217 459h422l-445 -807v-473h-395v475zM526 1346l197 383h410l-371 -383h-236z" />
<glyph unicode="&#xde;" horiz-adv-x="1277" d="M119 0v1280h403v-164h129q268 0 419 -125t151 -334q0 -233 -151.5 -355t-444.5 -122h-103v-180h-403zM510 475l98 2q213 3 213 172q0 160 -200 160h-111v-334z" />
<glyph unicode="&#xdf;" horiz-adv-x="1626" d="M-6 653l8 250l154 45l2 62q7 216 105 315.5t300 99.5q178 0 295 -49l-70 -315q-78 35 -163 35q-86 0 -86 -111v-985h-381v641zM662 53l71 264q201 -92 379 -92q98 0 98 49q0 25 -25.5 39t-105.5 31q-208 36 -305.5 112t-97.5 218q0 141 120 228t341 87q104 0 231.5 -26 t198.5 -62l-74 -262q-91 44 -187 69t-169 25q-49 0 -71 -11t-22 -36q0 -23 27 -34.5t111 -30.5q212 -43 303.5 -114.5t91.5 -215.5q0 -137 -122 -229.5t-349 -92.5q-111 0 -238 23t-206 61z" />
<glyph unicode="&#xe0;" d="M53 1468h410l196 -383h-235zM59 231q0 58 18 106.5t60 91t106 72.5t160.5 48t219.5 20v15q0 110 -146 110q-128 0 -334 -92l-82 272q236 115 484 115q135 0 228.5 -30t146 -89.5t74.5 -138t20 -184.5l-2 -223q0 -42 12.5 -54t56.5 -18l-39 -268q-172 -25 -269 11 t-140 128h-6q-27 -31 -41 -46t-43 -40t-54.5 -37t-63.5 -21.5t-81 -9.5q-118 0 -201.5 76.5t-83.5 185.5zM418 291q0 -36 26.5 -58t65.5 -22q72 0 113 45v145q-115 -11 -160 -34t-45 -76z" />
<glyph unicode="&#xe1;" d="M59 231q0 58 18 106.5t60 91t106 72.5t160.5 48t219.5 20v15q0 110 -146 110q-128 0 -334 -92l-82 272q236 115 484 115q135 0 228.5 -30t146 -89.5t74.5 -138t20 -184.5l-2 -223q0 -42 12.5 -54t56.5 -18l-39 -268q-172 -25 -269 11t-140 128h-6q-27 -31 -41 -46 t-43 -40t-54.5 -37t-63.5 -21.5t-81 -9.5q-118 0 -201.5 76.5t-83.5 185.5zM371 1085l196 383h410l-371 -383h-235zM418 291q0 -36 26.5 -58t65.5 -22q72 0 113 45v145q-115 -11 -160 -34t-45 -76z" />
<glyph unicode="&#xe2;" d="M59 231q0 58 18 106.5t60 91t106 72.5t160.5 48t219.5 20v15q0 110 -146 110q-128 0 -334 -92l-82 272q236 115 484 115q135 0 228.5 -30t146 -89.5t74.5 -138t20 -184.5l-2 -223q0 -42 12.5 -54t56.5 -18l-39 -268q-172 -25 -269 11t-140 128h-6q-27 -31 -41 -46 t-43 -40t-54.5 -37t-63.5 -21.5t-81 -9.5q-118 0 -201.5 76.5t-83.5 185.5zM109 1085l247 383h340l248 -383h-262l-154 201h-6l-145 -201h-268zM418 291q0 -36 26.5 -58t65.5 -22q72 0 113 45v145q-115 -11 -160 -34t-45 -76z" />
<glyph unicode="&#xe3;" d="M59 231q0 58 18 106.5t60 91t106 72.5t160.5 48t219.5 20v15q0 110 -146 110q-128 0 -334 -92l-82 272q236 115 484 115q135 0 228.5 -30t146 -89.5t74.5 -138t20 -184.5l-2 -223q0 -42 12.5 -54t56.5 -18l-39 -268q-172 -25 -269 11t-140 128h-6q-27 -31 -41 -46 t-43 -40t-54.5 -37t-63.5 -21.5t-81 -9.5q-118 0 -201.5 76.5t-83.5 185.5zM129 1106q10 102 31.5 171t54.5 105t68.5 50t83.5 14q57 0 121 -26t114.5 -52.5t73.5 -26.5q26 0 38.5 19t18.5 74h225q-10 -102 -31 -171t-53 -105t-68 -50t-85 -14q-57 0 -121 26t-114.5 52 t-73.5 26q-26 0 -39 -18.5t-19 -73.5h-225zM418 291q0 -36 26.5 -58t65.5 -22q72 0 113 45v145q-115 -11 -160 -34t-45 -76z" />
<glyph unicode="&#xe4;" d="M59 231q0 58 18 106.5t60 91t106 72.5t160.5 48t219.5 20v15q0 110 -146 110q-128 0 -334 -92l-82 272q236 115 484 115q135 0 228.5 -30t146 -89.5t74.5 -138t20 -184.5l-2 -223q0 -42 12.5 -54t56.5 -18l-39 -268q-172 -25 -269 11t-140 128h-6q-27 -31 -41 -46 t-43 -40t-54.5 -37t-63.5 -21.5t-81 -9.5q-118 0 -201.5 76.5t-83.5 185.5zM109 1247q0 88 48 131t136 43q85 0 133.5 -43t48.5 -131t-48.5 -131t-133.5 -43q-88 0 -136 43t-48 131zM418 291q0 -36 26.5 -58t65.5 -22q72 0 113 45v145q-115 -11 -160 -34t-45 -76zM616 1247 q0 88 49 131t134 43q182 0 182 -174t-182 -174q-85 0 -134 43t-49 131z" />
<glyph unicode="&#xe5;" d="M59 231q0 58 18 106.5t60 91t106 72.5t160.5 48t219.5 20v15q0 110 -146 110q-128 0 -334 -92l-82 272q236 115 484 115q135 0 228.5 -30t146 -89.5t74.5 -138t20 -184.5l-2 -223q0 -42 12.5 -54t56.5 -18l-39 -268q-172 -25 -269 11t-140 128h-6q-27 -31 -41 -46 t-43 -40t-54.5 -37t-63.5 -21.5t-81 -9.5q-118 0 -201.5 76.5t-83.5 185.5zM199 1319q0 108 84.5 180t222.5 72q139 0 223 -70t84 -182q0 -107 -84.5 -178.5t-222.5 -71.5t-222.5 71.5t-84.5 178.5zM330 1321q0 -66 48 -105.5t128 -39.5q84 0 131 39t47 106t-47 105t-131 38 q-80 0 -128 -38.5t-48 -104.5zM418 291q0 -36 26.5 -58t65.5 -22q72 0 113 45v145q-115 -11 -160 -34t-45 -76z" />
<glyph unicode="&#xe6;" horiz-adv-x="1642" d="M59 231q0 58 19 107t62 91.5t108.5 72.5t162.5 47.5t220 19.5v15q0 110 -154 110q-128 0 -334 -92l-82 272q232 113 488 113q217 0 323 -69q127 71 281 71q140 0 239 -57t145 -149.5t46 -209.5t-20 -176l-592 -14v-2q11 -72 65 -106.5t158 -34.5q150 0 326 100l30 -291 q-173 -78 -397 -78q-311 0 -451 199q-85 -96 -170.5 -148.5t-187.5 -52.5q-118 0 -201.5 76.5t-83.5 185.5zM418 291q0 -36 26.5 -57t65.5 -21q74 0 143 63q-18 58 -24 125q-113 -8 -162 -32.5t-49 -77.5zM971 559h250q2 6 2 21q0 157 -113 157q-59 0 -96 -49t-43 -129z" />
<glyph unicode="&#xe7;" horiz-adv-x="1024" d="M53 469q0 242 146.5 381t402.5 139q104 0 204.5 -22t164.5 -58l-70 -280q-135 71 -248 71q-95 0 -148.5 -60.5t-53.5 -156.5q0 -108 58.5 -165.5t158.5 -57.5q118 0 241 70l56 -283q-111 -66 -322 -76q-14 -13 -37.5 -32t-30.5 -25q69 -5 127 -30t98 -75t40 -116 q0 -240 -445 -295l-16 164q136 7 193 32.5t57 73.5q0 59 -56.5 80t-177.5 16l-22 115l108 98q-201 27 -314.5 151.5t-113.5 340.5z" />
<glyph unicode="&#xe8;" horiz-adv-x="1097" d="M51 473q0 236 148 376t393 140q216 0 333 -113.5t117 -302.5q0 -117 -20 -176l-592 -14v-2q11 -72 65 -106.5t158 -34.5q150 0 326 100l31 -291q-173 -78 -398 -78q-263 0 -412 128.5t-149 373.5zM100 1468h410l197 -383h-236zM430 559h250q2 6 2 21q0 157 -113 157 q-59 0 -96 -49t-43 -129z" />
<glyph unicode="&#xe9;" horiz-adv-x="1097" d="M51 473q0 236 148 376t393 140q216 0 333 -113.5t117 -302.5q0 -117 -20 -176l-592 -14v-2q11 -72 65 -106.5t158 -34.5q150 0 326 100l31 -291q-173 -78 -398 -78q-263 0 -412 128.5t-149 373.5zM424 1085l197 383h409l-371 -383h-235zM430 559h250q2 6 2 21 q0 157 -113 157q-59 0 -96 -49t-43 -129z" />
<glyph unicode="&#xea;" horiz-adv-x="1097" d="M51 473q0 236 148 376t393 140q216 0 333 -113.5t117 -302.5q0 -117 -20 -176l-592 -14v-2q11 -72 65 -106.5t158 -34.5q150 0 326 100l31 -291q-173 -78 -398 -78q-263 0 -412 128.5t-149 373.5zM137 1085l248 383h340l248 -383h-262l-154 201h-6l-145 -201h-269z M430 559h250q2 6 2 21q0 157 -113 157q-59 0 -96 -49t-43 -129z" />
<glyph unicode="&#xeb;" horiz-adv-x="1097" d="M51 473q0 236 148 376t393 140q216 0 333 -113.5t117 -302.5q0 -117 -20 -176l-592 -14v-2q11 -72 65 -106.5t158 -34.5q150 0 326 100l31 -291q-173 -78 -398 -78q-263 0 -412 128.5t-149 373.5zM135 1247q0 88 48 131t136 43q85 0 134 -43t49 -131t-49 -131t-134 -43 q-88 0 -136 43t-48 131zM430 559h250q2 6 2 21q0 157 -113 157q-59 0 -96 -49t-43 -129zM643 1247q0 88 48.5 131t133.5 43q183 0 183 -174t-183 -174q-85 0 -133.5 43t-48.5 131z" />
<glyph unicode="&#xec;" horiz-adv-x="583" d="M-158 1468h410l197 -383h-236zM104 0v952l392 27v-979h-392z" />
<glyph unicode="&#xed;" horiz-adv-x="583" d="M104 0v952l392 27v-979h-392zM141 1085l197 383h410l-371 -383h-236z" />
<glyph unicode="&#xee;" horiz-adv-x="583" d="M-113 1085l248 383h340l248 -383h-262l-154 201h-6l-145 -201h-269zM104 0v952l392 27v-979h-392z" />
<glyph unicode="&#xef;" horiz-adv-x="583" d="M-133 1247q0 88 48 131t136 43q85 0 133.5 -43t48.5 -131t-48.5 -131t-133.5 -43q-88 0 -136 43t-48 131zM104 0v952l392 27v-979h-392zM375 1247q0 88 48.5 131t133.5 43q182 0 182 -174t-182 -174q-85 0 -133.5 43t-48.5 131z" />
<glyph unicode="&#xf0;" horiz-adv-x="1220" d="M61 477q0 115 38.5 208t100.5 148t134 84t145 29q104 0 189 -61l4 2q-113 137 -154 178q1 0 -16.5 -4.5t-53.5 -14t-63 -16.5q-5 -1 -55 -14.5t-80 -20.5l-49 195l153 39q-31 24 -80.5 61.5t-66.5 50.5l430 78q41 -28 106 -86l271 72l49 -195l-160 -39q256 -298 256 -606 q0 -167 -69 -302t-201 -214.5t-305 -79.5q-150 0 -267.5 59t-186.5 175.5t-69 273.5zM451 467q0 -98 44 -148.5t109 -50.5t105.5 55.5t40.5 151.5q0 76 -23 170q-53 43 -119 43q-73 0 -115 -58.5t-42 -162.5z" />
<glyph unicode="&#xf1;" horiz-adv-x="1208" d="M96 0v934l391 45v-164q64 81 147.5 127.5t178.5 46.5q142 0 222.5 -88t80.5 -242v-659h-391v549q0 119 -104 119q-72 0 -134 -58v-610h-391zM188 1106q10 102 31.5 171t54.5 105t68.5 50t83.5 14q44 0 95 -16.5t87 -36t72 -36t55 -16.5q26 0 39 19t19 74h225 q-10 -102 -31 -171t-53.5 -105t-68.5 -50t-85 -14q-57 0 -121.5 26t-114.5 52t-73 26q-26 0 -38.5 -18.5t-18.5 -73.5h-226z" />
<glyph unicode="&#xf2;" horiz-adv-x="1177" d="M51 475q0 122 43 220.5t118 162t173.5 97.5t210.5 34t208 -33.5t168 -96t113 -159.5t41 -217q0 -159 -74.5 -277.5t-197 -177.5t-272.5 -59q-113 0 -208.5 32.5t-168 94t-113.5 159t-41 220.5zM147 1468h410l197 -383h-236zM438 477q0 -107 39 -164t113 -57q73 0 111 58 t38 167q0 107 -38.5 165.5t-112.5 58.5q-73 0 -111.5 -59.5t-38.5 -168.5z" />
<glyph unicode="&#xf3;" horiz-adv-x="1177" d="M51 475q0 122 43 220.5t118 162t173.5 97.5t210.5 34t208 -33.5t168 -96t113 -159.5t41 -217q0 -159 -74.5 -277.5t-197 -177.5t-272.5 -59q-113 0 -208.5 32.5t-168 94t-113.5 159t-41 220.5zM438 477q0 -107 39 -164t113 -57q73 0 111 58t38 167q0 107 -38.5 165.5 t-112.5 58.5q-73 0 -111.5 -59.5t-38.5 -168.5zM440 1085l197 383h410l-371 -383h-236z" />
<glyph unicode="&#xf4;" horiz-adv-x="1177" d="M51 475q0 122 43 220.5t118 162t173.5 97.5t210.5 34t208 -33.5t168 -96t113 -159.5t41 -217q0 -159 -74.5 -277.5t-197 -177.5t-272.5 -59q-113 0 -208.5 32.5t-168 94t-113.5 159t-41 220.5zM180 1085l248 383h340l248 -383h-262l-154 201h-6l-145 -201h-269zM438 477 q0 -107 39 -164t113 -57q73 0 111 58t38 167q0 107 -38.5 165.5t-112.5 58.5q-73 0 -111.5 -59.5t-38.5 -168.5z" />
<glyph unicode="&#xf5;" horiz-adv-x="1177" d="M51 475q0 122 43 220.5t118 162t173.5 97.5t210.5 34t208 -33.5t168 -96t113 -159.5t41 -217q0 -159 -74.5 -277.5t-197 -177.5t-272.5 -59q-113 0 -208.5 32.5t-168 94t-113.5 159t-41 220.5zM182 1106q10 102 31.5 171t54.5 105t68.5 50t83.5 14q44 0 95 -16.5t87 -36 t72 -36t55 -16.5q26 0 38.5 19t18.5 74h226q-10 -102 -31 -171t-53.5 -105t-68.5 -50t-85 -14q-57 0 -121.5 26t-114.5 52t-73 26q-26 0 -38.5 -18.5t-18.5 -73.5h-226zM438 477q0 -107 39 -164t113 -57q73 0 111 58t38 167q0 107 -38.5 165.5t-112.5 58.5 q-73 0 -111.5 -59.5t-38.5 -168.5z" />
<glyph unicode="&#xf6;" horiz-adv-x="1177" d="M51 475q0 122 43 220.5t118 162t173.5 97.5t210.5 34t208 -33.5t168 -96t113 -159.5t41 -217q0 -159 -74.5 -277.5t-197 -177.5t-272.5 -59q-113 0 -208.5 32.5t-168 94t-113.5 159t-41 220.5zM160 1247q0 88 48 131t136 43q85 0 133.5 -43t48.5 -131t-48.5 -131 t-133.5 -43q-88 0 -136 43t-48 131zM438 477q0 -107 39 -164t113 -57q73 0 111 58t38 167q0 107 -38.5 165.5t-112.5 58.5q-73 0 -111.5 -59.5t-38.5 -168.5zM668 1247q0 88 48.5 131t133.5 43q182 0 182 -174t-182 -174q-85 0 -133.5 43t-48.5 131z" />
<glyph unicode="&#xf7;" horiz-adv-x="1120" d="M63 352l7 285h983l6 -285h-996zM381 82q0 79 49 125.5t131 46.5t131 -46.5t49 -125.5t-49 -125.5t-131 -46.5t-131 46.5t-49 125.5zM381 907q0 79 49 125.5t131 46.5t131 -46.5t49 -125.5t-49 -125.5t-131 -46.5t-131 46.5t-49 125.5z" />
<glyph unicode="&#xf8;" horiz-adv-x="1177" d="M61 479q0 158 73 275t195 176t275 59q120 0 205 -33l72 121h155l-106 -180q99 -64 153 -171t54 -247q0 -158 -73 -275t-195 -176t-275 -59q-96 0 -197 29l-80 -135h-155l112 192q-213 143 -213 424zM434 489q0 -76 23 -149l221 381q-42 31 -86 31q-75 0 -116.5 -69 t-41.5 -194zM532 238q46 -21 76 -21q75 0 116.5 68.5t41.5 191.5q0 74 -16 139z" />
<glyph unicode="&#xf9;" horiz-adv-x="1185" d="M90 299v659h391v-548q0 -119 105 -119q61 0 112 41v626h392v-933l-392 -45v143q-55 -66 -134.5 -110t-170.5 -44q-142 0 -222.5 88t-80.5 242zM106 1468h410l197 -383h-236z" />
<glyph unicode="&#xfa;" horiz-adv-x="1185" d="M90 299v659h391v-548q0 -119 105 -119q61 0 112 41v626h392v-933l-392 -45v143q-55 -66 -134.5 -110t-170.5 -44q-142 0 -222.5 88t-80.5 242zM469 1085l197 383h409l-370 -383h-236z" />
<glyph unicode="&#xfb;" horiz-adv-x="1185" d="M90 299v659h391v-548q0 -119 105 -119q61 0 112 41v626h392v-933l-392 -45v143q-55 -66 -134.5 -110t-170.5 -44q-142 0 -222.5 88t-80.5 242zM174 1085l248 383h340l248 -383h-262l-154 201h-6l-146 -201h-268z" />
<glyph unicode="&#xfc;" horiz-adv-x="1185" d="M90 299v659h391v-548q0 -119 105 -119q61 0 112 41v626h392v-933l-392 -45v143q-55 -66 -134.5 -110t-170.5 -44q-142 0 -222.5 88t-80.5 242zM158 1247q0 88 48 131t136 43q85 0 133.5 -43t48.5 -131t-48.5 -131t-133.5 -43q-88 0 -136 43t-48 131zM666 1247 q0 88 48.5 131t133.5 43q182 0 182 -174t-182 -174q-85 0 -133.5 43t-48.5 131z" />
<glyph unicode="&#xfd;" d="M-31 -352l117 284q45 -19 61.5 -25.5t39 -12t46.5 -5.5q49 0 72.5 15.5t40.5 58.5l10 35l-376 960h419l166 -571l144 571h417l-327 -884l-39 -105q-76 -219 -181.5 -303t-283.5 -84q-179 0 -326 66zM397 1085l197 383h410l-371 -383h-236z" />
<glyph unicode="&#xfe;" horiz-adv-x="1220" d="M96 -395v1736l391 45v-530q124 133 269 133q172 0 287.5 -133.5t115.5 -359.5q0 -121 -40 -222t-106.5 -165.5t-152 -100t-178.5 -35.5q-105 0 -195 33v-401h-391zM487 276q50 -26 113 -26q79 0 124.5 59.5t45.5 163.5q0 105 -40 160t-118 55q-75 0 -125 -53v-359z" />
<glyph unicode="&#xff;" d="M-31 -352l117 284q45 -19 61.5 -25.5t39 -12t46.5 -5.5q49 0 72.5 15.5t40.5 58.5l10 35l-376 960h419l166 -571l144 571h417l-327 -884l-39 -105q-76 -219 -181.5 -303t-283.5 -84q-179 0 -326 66zM111 1268q0 88 48 131t136 43q85 0 133.5 -43t48.5 -131t-48.5 -131 t-133.5 -43q-88 0 -136 43t-48 131zM618 1268q0 88 49 131t134 43q182 0 182 -174t-182 -174q-85 0 -134 43t-49 131z" />
<glyph unicode="&#x152;" horiz-adv-x="2002" d="M72 631q0 302 187 475.5t542 173.5h1128v-313h-596v-168h490v-314h-490v-172h596v-313h-1136q-343 0 -532 170t-189 461zM477 643q0 -177 82 -255.5t260 -78.5h111v662h-131q-322 0 -322 -328z" />
<glyph unicode="&#x153;" horiz-adv-x="1720" d="M51 475q0 122 43 220.5t118 162t173.5 97.5t210.5 34q179 0 307 -80q138 80 311 80q216 0 331.5 -113t115.5 -303q0 -115 -21 -176l-591 -14v-2q11 -72 65 -106.5t158 -34.5q149 0 325 100l31 -291q-173 -78 -397 -78q-109 0 -181.5 20t-150.5 64q-136 -86 -317 -86 q-113 0 -208.5 32.5t-168 94t-113.5 159t-41 220.5zM438 477q0 -107 39 -164t113 -57q73 0 111 58t38 167q0 107 -38.5 165.5t-112.5 58.5q-73 0 -111.5 -59.5t-38.5 -168.5zM1049 559h249q2 6 2 21q0 157 -112 157q-59 0 -96 -49t-43 -129z" />
<glyph unicode="&#x178;" horiz-adv-x="1327" d="M20 1280h422l226 -459l217 459h422l-445 -807v-473h-395v475zM225 1528q0 88 48.5 131t136.5 43q85 0 133.5 -43t48.5 -131t-48.5 -131t-133.5 -43q-88 0 -136.5 43t-48.5 131zM733 1528q0 88 48.5 131t133.5 43q183 0 183 -174t-183 -174q-85 0 -133.5 43t-48.5 131z " />
<glyph unicode="&#x2c6;" horiz-adv-x="819" d="M-8 1085l248 383h340l247 -383h-262l-153 201h-6l-146 -201h-268z" />
<glyph unicode="&#x2dc;" horiz-adv-x="815" d="M-8 1106q10 102 31.5 171t54 105t68.5 50t83 14q57 0 121.5 -26t115 -52.5t73.5 -26.5q26 0 38.5 19t18.5 74h225q-10 -102 -31 -171t-53 -105t-68 -50t-85 -14q-57 0 -121.5 26t-115 52t-73.5 26q-26 0 -38.5 -18.5t-18.5 -73.5h-225z" />
<glyph unicode="&#x2000;" horiz-adv-x="874" />
<glyph unicode="&#x2001;" horiz-adv-x="1749" />
<glyph unicode="&#x2002;" horiz-adv-x="874" />
<glyph unicode="&#x2003;" horiz-adv-x="1749" />
<glyph unicode="&#x2004;" horiz-adv-x="583" />
<glyph unicode="&#x2005;" horiz-adv-x="437" />
<glyph unicode="&#x2006;" horiz-adv-x="291" />
<glyph unicode="&#x2007;" horiz-adv-x="291" />
<glyph unicode="&#x2008;" horiz-adv-x="218" />
<glyph unicode="&#x2009;" horiz-adv-x="349" />
<glyph unicode="&#x200a;" horiz-adv-x="97" />
<glyph unicode="&#x2010;" horiz-adv-x="827" d="M51 346v301h727v-301h-727z" />
<glyph unicode="&#x2011;" horiz-adv-x="827" d="M51 346v301h727v-301h-727z" />
<glyph unicode="&#x2012;" horiz-adv-x="827" d="M51 346v301h727v-301h-727z" />
<glyph unicode="&#x2013;" horiz-adv-x="1144" d="M47 346l6 301h1043l6 -301h-1055z" />
<glyph unicode="&#x2014;" horiz-adv-x="2107" d="M47 346l6 301h2005l6 -301h-2017z" />
<glyph unicode="&#x2018;" horiz-adv-x="610" d="M37 909q0 249 366 426l177 -149q-117 -77 -146 -103q-57 -49 -57 -90q0 -45 44.5 -83.5t158.5 -80.5q-12 -99 -86 -159t-177 -60q-126 0 -203 88.5t-77 210.5z" />
<glyph unicode="&#x2019;" horiz-adv-x="610" d="M31 795q116 76 144 101q58 49 58 91q0 45 -44.5 83.5t-157.5 80.5q12 99 86 159t176 60q126 0 203 -88.5t77 -210.5q0 -249 -366 -426z" />
<glyph unicode="&#x201a;" horiz-adv-x="610" d="M31 178q12 99 86 159t176 60q126 0 203 -88.5t77 -210.5q0 -249 -366 -426l-176 150q116 76 144 101q58 49 58 91q0 45 -44.5 83.5t-157.5 80.5z" />
<glyph unicode="&#x201c;" horiz-adv-x="1216" d="M37 909q0 249 366 426l177 -149q-117 -77 -146 -103q-57 -49 -57 -90q0 -45 44.5 -83.5t158.5 -80.5q-12 -99 -86 -159t-177 -60q-126 0 -203 88.5t-77 210.5zM643 909q0 248 367 426l176 -149q-117 -77 -146 -103q-57 -49 -57 -90q0 -45 44.5 -83.5t158.5 -80.5 q-12 -100 -85.5 -159.5t-176.5 -59.5q-126 0 -203.5 88.5t-77.5 210.5z" />
<glyph unicode="&#x201d;" horiz-adv-x="1216" d="M31 795q116 76 144 101q58 49 58 91q0 45 -44.5 83.5t-157.5 80.5q12 99 86 159t176 60q126 0 203 -88.5t77 -210.5q0 -249 -366 -426zM637 795q9 6 32.5 21.5t34 22t30.5 20.5t29.5 22t24.5 20.5t22 21.5t15.5 20.5t11.5 22t3 21.5q0 45 -44.5 83.5t-158.5 80.5 q12 99 86 159t176 60q126 0 203.5 -88.5t77.5 -210.5q0 -248 -367 -426z" />
<glyph unicode="&#x201e;" horiz-adv-x="1216" d="M31 178q12 99 86 159t176 60q126 0 203 -88.5t77 -210.5q0 -249 -366 -426l-176 150q116 76 144 101q58 49 58 91q0 45 -44.5 83.5t-157.5 80.5zM637 178q12 99 86 159t176 60q126 0 203.5 -88.5t77.5 -210.5q0 -248 -367 -426l-176 150q9 6 32.5 21.5t34 22t30.5 20.5 t29.5 22t24.5 20.5t22 21.5t15.5 20.5t11.5 22t3 21.5q0 45 -44.5 83.5t-158.5 80.5z" />
<glyph unicode="&#x2022;" horiz-adv-x="886" d="M49 475q0 43 43 145.5t74 133.5t133 72.5t145 41.5t147.5 -41.5t131.5 -72.5q31 -27 73 -131.5t42 -147.5t-41.5 -145.5t-73.5 -134.5q-31 -31 -134 -73t-147 -42q-42 0 -144 42.5t-132 72.5q-31 35 -74 136t-43 144z" />
<glyph unicode="&#x2026;" horiz-adv-x="1849" d="M100 174q0 94 61 149.5t152 55.5t152 -55.5t61 -149.5t-61 -149.5t-152 -55.5t-152 55.5t-61 149.5zM717 174q0 94 61 149.5t152 55.5t152 -55.5t61 -149.5t-61 -149.5t-152 -55.5t-152 55.5t-61 149.5zM1333 174q0 94 61 149.5t152 55.5t152 -55.5t61 -149.5t-61 -149.5 t-152 -55.5t-152 55.5t-61 149.5z" />
<glyph unicode="&#x202f;" horiz-adv-x="349" />
<glyph unicode="&#x2039;" horiz-adv-x="765" d="M47 334v287l582 325l73 -239l-303 -228v-4l303 -225l-73 -240z" />
<glyph unicode="&#x203a;" horiz-adv-x="765" d="M63 248l304 227v4l-304 226l74 239l582 -323v-287l-582 -326z" />
<glyph unicode="&#x205f;" horiz-adv-x="437" />
<glyph unicode="&#x20ac;" horiz-adv-x="1177" d="M47 414l10 157h148q-2 23 -2 66q0 51 2 76h-148l-10 157h172q48 237 188.5 348t354.5 111q109 0 214 -22t167 -58l-72 -280q-124 67 -252 67q-79 0 -128 -39.5t-73 -126.5h381l-10 -157h-395q-2 -16 -2 -62q0 -53 6 -80h330l10 -157h-305q54 -152 203 -152q119 0 245 68 l56 -283q-57 -35 -160 -56.5t-219 -21.5q-109 0 -195.5 24t-157.5 75.5t-118.5 138t-69.5 207.5h-170z" />
<glyph unicode="&#x2122;" horiz-adv-x="2045" d="M68 1073v207h757v-207h-268v-557h-246v557h-243zM905 516l13 764h409l68 -498h26l95 498h395l6 -764h-236l13 537h-27l-135 -512h-270l-109 518h-23l-4 -543h-221z" />
<glyph unicode="&#x25fc;" horiz-adv-x="962" d="M0 0v963h963v-963h-963z" />
<glyph unicode="&#xfb01;" horiz-adv-x="1327" d="M-6 653l8 250l154 45l2 62q7 216 105 315.5t300 99.5q178 0 295 -49l-70 -315q-78 35 -163 35q-54 0 -75.5 -27t-21.5 -80v-49h320l391 39v-979h-391v645h-309v-645h-381v641z" />
<glyph unicode="&#xfb02;" horiz-adv-x="1396" d="M-6 653l8 250l154 45l2 62q7 216 105 315.5t300 99.5q178 0 295 -49l-70 -315q-78 35 -163 35q-54 0 -75.5 -27t-21.5 -80v-49h250l-6 -295h-223v-645h-391v641zM909 0v1341l391 45v-1386h-391z" />
<glyph unicode="&#xfb03;" horiz-adv-x="2058" d="M-6 653l8 250l154 45l2 41q7 216 105 316t300 100q178 0 295 -49l-70 -316q-78 35 -163 35q-54 0 -75.5 -26.5t-21.5 -79.5v-29l359 8l2 62q7 216 105 315.5t300 99.5q178 0 295 -49l-69 -315q-78 35 -164 35q-54 0 -75 -27t-21 -80v-49h319l391 39v-979h-391v645h-309 v-645h-381v641l-340 4v-645h-391v641z" />
<glyph unicode="&#xfb04;" horiz-adv-x="2127" d="M-6 653l8 250l154 45l2 41q7 216 105 316t300 100q178 0 295 -49l-70 -316q-78 35 -163 35q-54 0 -75.5 -26.5t-21.5 -79.5v-29l359 8l2 62q7 216 105 315.5t300 99.5q178 0 295 -49l-69 -315q-78 35 -164 35q-54 0 -75 -27t-21 -80v-49h249l-6 -295h-223v-645h-391v641 l-340 4v-645h-391v641zM1640 0v1341l392 45v-1386h-392z" />
</font>
</defs>
</svg>
