<svg xmlns="http://www.w3.org/2000/svg" width="17.286" height="22" viewBox="0 0 17.286 22">
  <path id="change-pwd-icon" d="M12.071,2A4.728,4.728,0,0,0,7.357,6.714V9.857A2.315,2.315,0,0,0,5,12.214v4.714A7.082,7.082,0,0,0,18.986,18.5h.157a2.853,2.853,0,0,0,2.2-.943,3.1,3.1,0,0,0,.943-2.2,2.973,2.973,0,0,0-.943-2.2,3.3,3.3,0,0,0-2.2-.943,2.315,2.315,0,0,0-2.357-2.357V6.714A4.728,4.728,0,0,0,12.071,2Zm8.171,12.257a1.519,1.519,0,0,1,0,2.2,1.734,1.734,0,0,1-1.65.393,1.57,1.57,0,0,1-.55-2.593,1.711,1.711,0,0,1,.629-.393,1,1,0,0,1,.471-.079A1.551,1.551,0,0,1,20.243,14.257Zm-2.671-2.043v.471a4.358,4.358,0,0,0-.629.471,2.551,2.551,0,0,0-.786,1.414H8.929a.742.742,0,0,0-.786.786v1.571a.742.742,0,0,0,.786.786.742.742,0,0,0,.786-.786v-.786h1.571v.786a.786.786,0,0,0,1.571,0v-.786h3.221a3.638,3.638,0,0,0,1.336,1.886,5.408,5.408,0,0,1-5.343,4.4,5.659,5.659,0,0,1-3.929-1.571,5.522,5.522,0,0,1-1.571-3.929V12.214a.742.742,0,0,1,.786-.786h9.429A.742.742,0,0,1,17.571,12.214ZM8.929,9.857V6.714a3.143,3.143,0,0,1,6.286,0V9.857Z" transform="translate(-5 -2)" fill="#fff"/>
</svg>
