<svg xmlns="http://www.w3.org/2000/svg" width="31.931" height="31.339" viewBox="0 0 31.931 31.339">
  <path id="download-icon" d="M21.979,12.409a2,2,0,1,1,2.806,2.858l-7.611,7.5a2.006,2.006,0,0,1-2.812,0l-7.5-7.408a2,2,0,1,1,2.809-2.858L13.8,16.6,13.84,2.184a2.006,2.006,0,0,1,4.01.034L17.81,16.51ZM0,29.684l.026-7.842a2.006,2.006,0,1,1,4.01.036l-.018,5.717q11.953.023,23.883,0l.018-5.748a2.006,2.006,0,0,1,4.012.036l-.026,7.8h-.023A2,2,0,0,1,29.9,31.591q-13.962.026-27.9,0A2,2,0,0,1,0,29.684Z" transform="translate(0 -0.265)" fill="#fff"/>
</svg>
