<svg xmlns="http://www.w3.org/2000/svg" width="21.172" height="17.776" viewBox="0 0 21.172 17.776">
  <g id="feedback-icon" transform="translate(-0.238 -3.551)">
    <path id="Path_138" data-name="Path 138" d="M4.612,21.724a3.362,3.362,0,0,1-3.3-4.035A3.443,3.443,0,0,1,4.733,15H5.789v6.725Zm12.423,0a3.362,3.362,0,0,0,3.3-4.035A3.443,3.443,0,0,0,16.914,15H15.858v6.725Z" transform="translate(0 -3.415)" fill="none" stroke="#fff" stroke-linecap="round" stroke-linejoin="round" stroke-width="2"/>
    <path id="Path_139" data-name="Path 139" d="M7,11.585v-.794a6.126,6.126,0,0,1,4.647-6.052A6.052,6.052,0,0,1,19.1,10.65v.935M9.017,18.31h0a2.017,2.017,0,0,0,2.017,2.017" transform="translate(-1.228)" fill="none" stroke="#fff" stroke-linecap="round" stroke-linejoin="round" stroke-width="2"/>
    <circle id="Ellipse_30" data-name="Ellipse 30" cx="0.672" cy="0.672" r="0.672" transform="translate(11.151 19.655)" fill="#fff"/>
    <line id="Line_9" data-name="Line 9" y2="6.052" transform="translate(6.108 11.921)" fill="none" stroke="#fff" stroke-linecap="round" stroke-linejoin="round" stroke-width="1"/>
    <rect id="Rectangle_47" data-name="Rectangle 47" width="1.345" height="6.725" transform="translate(15.858 11.585)" fill="#fff"/>
  </g>
</svg>
