<svg xmlns="http://www.w3.org/2000/svg" width="40" height="40" viewBox="0 0 40 40">
  <g id="google" transform="translate(-192 -649)">
    <circle id="Ellipse_24" data-name="Ellipse 24" cx="20" cy="20" r="20" transform="translate(192 649)" fill="#fff"/>
    <g id="google_2_" data-name="google (2)" transform="translate(201 658)">
      <path id="Path_94" data-name="Path 94" d="M4.876,145.622,4.11,148.48l-2.8.059a11.019,11.019,0,0,1-.081-10.272h0l2.492.457L4.814,141.2a6.565,6.565,0,0,0,.062,4.42Z" transform="translate(0 -132.327)" fill="#fbbb00"/>
      <path id="Path_95" data-name="Path 95" d="M272.194,208.176a11,11,0,0,1-3.921,10.633h0l-3.139-.16-.444-2.773a6.556,6.556,0,0,0,2.821-3.348h-5.882v-4.352h10.566Z" transform="translate(-250.386 -199.231)" fill="#518ef8"/>
      <path id="Path_96" data-name="Path 96" d="M47.084,315.692h0a11,11,0,0,1-16.576-3.365l3.565-2.918a6.542,6.542,0,0,0,9.427,3.35Z" transform="translate(-29.198 -296.114)" fill="#28b446"/>
      <path id="Path_97" data-name="Path 97" d="M45.415,2.532,41.852,5.45a6.541,6.541,0,0,0-9.644,3.425L28.625,5.941h0A11,11,0,0,1,45.415,2.532Z" transform="translate(-27.394)" fill="#f14336"/>
    </g>
  </g>
</svg>
