<svg xmlns="http://www.w3.org/2000/svg" width="32.021" height="32.049" viewBox="0 0 32.021 32.049">
  <path id="Home-icon" d="M0,16.025A16.02,16.02,0,0,1,14.969.033a1.469,1.469,0,1,1,.189,2.931,13.081,13.081,0,1,0,10.7,4.453,1.469,1.469,0,0,1,2.214-1.932A16.017,16.017,0,1,1,0,16.025Zm9.694-.708A6.2,6.2,0,0,1,16.01,9.231a6.469,6.469,0,0,1,3.379.943V1.469A1.464,1.464,0,0,1,20.849,0h8.088a1.469,1.469,0,1,1,0,2.937h-6.61V16.087a1.47,1.47,0,0,1-.19.726A6.282,6.282,0,0,1,16.01,21.4,6.2,6.2,0,0,1,9.694,15.317Z" fill="#fff"/>
</svg>
