<svg xmlns="http://www.w3.org/2000/svg" width="13.376" height="10.033" viewBox="0 0 13.376 10.033">
  <path id="list-icon" d="M6.178,7.671h8.358a.79.79,0,0,0,.836-.836A.79.79,0,0,0,14.536,6H6.178a.79.79,0,0,0-.836.836A.79.79,0,0,0,6.178,7.671Zm8.358,2.507H6.178a.836.836,0,0,0,0,1.672h8.358a.836.836,0,0,0,0-1.672Zm0,4.179H6.178a.836.836,0,0,0,0,1.672h8.358a.836.836,0,0,0,0-1.672ZM3.42,6.25c-.084-.084-.167-.167-.251-.167a.763.763,0,0,0-.919.167c-.084.084-.167.167-.167.251a.923.923,0,0,0,0,.669c.084.084.084.167.167.251s.167.167.251.167a.5.5,0,0,0,.334.084A.759.759,0,0,0,3.42,7.42c.084-.084.167-.167.167-.251a.923.923,0,0,0,0-.669C3.587,6.417,3.5,6.334,3.42,6.25Zm0,4.179a.763.763,0,0,0-.919-.167c-.084.084-.167.084-.251.167s-.167.167-.167.251a.916.916,0,0,0,0,.669c.084.084.084.167.167.251s.167.167.251.167a.5.5,0,0,0,.334.084.5.5,0,0,0,.334-.084c.084-.084.167-.084.251-.167s.167-.167.167-.251a.916.916,0,0,0,0-.669C3.587,10.6,3.5,10.513,3.42,10.429Zm0,4.179c-.084-.084-.167-.167-.251-.167a.916.916,0,0,0-.669,0c-.084,0-.167.084-.251.167s-.167.167-.167.251a.763.763,0,0,0,.167.919c.084.084.167.167.251.167a.5.5,0,0,0,.334.084.5.5,0,0,0,.334-.084c.084-.084.167-.084.251-.167a.763.763,0,0,0,.167-.919C3.587,14.775,3.5,14.692,3.42,14.608Z" transform="translate(-1.996 -5.996)" fill="#fff"/>
</svg>
