<svg xmlns="http://www.w3.org/2000/svg" width="36" height="35" viewBox="0 0 36 35">
  <g id="list-play" transform="translate(-320 -689)">
    <g id="Path_72" data-name="Path 72" transform="translate(320 689)" fill="none">
      <path d="M18,0A17.755,17.755,0,0,1,36,17.5,17.755,17.755,0,0,1,18,35,17.755,17.755,0,0,1,0,17.5,17.755,17.755,0,0,1,18,0Z" stroke="none"/>
      <path d="M 18.00000190734863 2 C 13.71563148498535 2 9.690561294555664 3.61931037902832 6.666231155395508 6.559619903564453 C 3.657173156738281 9.485099792480469 2.000003814697266 13.37047004699707 2.000003814697266 17.5 C 2.000003814697266 21.62952995300293 3.657173156738281 25.51490020751953 6.666231155395508 28.44038009643555 C 9.690561294555664 31.38068962097168 13.71563148498535 33 18.00000190734863 33 C 22.28437232971191 33 26.30944061279297 31.38068962097168 29.33377075195313 28.44038009643555 C 32.34283065795898 25.51490020751953 34 21.62952995300293 34 17.5 C 34 13.37047004699707 32.34283065795898 9.485099792480469 29.33377075195313 6.559619903564453 C 26.30944061279297 3.61931037902832 22.28437232971191 2 18.00000190734863 2 M 18.00000190734863 0 C 27.94113159179688 0 36 7.835020065307617 36 17.5 C 36 27.16497993469238 27.94113159179688 35 18.00000190734863 35 C 8.058872222900391 35 3.814697265625e-06 27.16497993469238 3.814697265625e-06 17.5 C 3.814697265625e-06 7.835020065307617 8.058872222900391 0 18.00000190734863 0 Z" stroke="none" fill="#fff"/>
    </g>
    <path id="Polygon_1" data-name="Polygon 1" d="M6.5,0,13,11H0Z" transform="translate(344 700) rotate(90)" fill="#fff"/>
  </g>
</svg>
