<svg xmlns="http://www.w3.org/2000/svg" width="292.033" height="289" viewBox="0 0 292.033 289">
  <g id="notfound" transform="translate(0 0)">
    <g id="empty_item" transform="translate(0.034 -48.8)">
      <path id="Path_102" data-name="Path 102" d="M279.436,85.69V99.435H144.494s-8.954,1.369-8.954-8.954V65.043s-1.369-7.243,7.243-7.243h43l11.008,18.251h74.372S279.436,77.42,279.436,85.69Z" transform="translate(-58.217 -3.867)" fill="#ededed"/>
      <g id="Group_30" data-name="Group 30" transform="translate(63.494 62.203)">
        <path id="Path_103" data-name="Path 103" d="M120.733,199.371a9.4,9.4,0,0,1-6.16-2.11c-2.11-1.825-3.137-4.563-3.137-8.27V81.026a7.888,7.888,0,0,1,1.54-5.989c1.483-1.825,3.878-2.738,7.072-2.738h43a1.407,1.407,0,0,1,1.2.684l10.608,17.566h73.8c3.251.57,9.411,3.536,9.411,11.008v96.387a1.388,1.388,0,0,1-1.369,1.369H121.817A4.963,4.963,0,0,1,120.733,199.371Zm-.684-124.277q-3.508,0-4.962,1.711a5.316,5.316,0,0,0-.913,3.878V188.991c0,2.852.741,4.962,2.224,6.217a7.037,7.037,0,0,0,5.133,1.369h133.8V101.558c0-6.616-6.1-8.1-7.015-8.27H174.06a1.407,1.407,0,0,1-1.2-.684L162.254,75.038H120.049Z" transform="translate(-111.352 -72.3)" fill="#51597d"/>
      </g>
      <ellipse id="Ellipse_25" data-name="Ellipse 25" cx="94.733" cy="18.308" rx="94.733" ry="18.308" transform="translate(88.274 248.532)" fill="#f5f5f5"/>
      <g id="Group_31" data-name="Group 31" transform="translate(223.971 225.049)">
        <line id="Line_7" data-name="Line 7" x2="4.163" y2="4.106" transform="translate(1.355 1.355)" fill="#fff"/>
        <path id="Path_104" data-name="Path 104" d="M398.186,364.655a1.336,1.336,0,0,1-.97-.4l-4.106-4.106a1.371,1.371,0,1,1,1.939-1.939l4.106,4.106a1.413,1.413,0,0,1,0,1.939A1.175,1.175,0,0,1,398.186,364.655Z" transform="translate(-392.725 -357.825)" fill="#51597d"/>
      </g>
      <g id="Group_32" data-name="Group 32" transform="translate(230.873 219.574)">
        <line id="Line_8" data-name="Line 8" x2="4.106" y2="4.163" transform="translate(1.355 1.298)" fill="#fff"/>
        <path id="Path_105" data-name="Path 105" d="M410.286,355.055a1.336,1.336,0,0,1-.97-.4l-4.106-4.106a1.371,1.371,0,1,1,1.939-1.939l4.106,4.106a1.413,1.413,0,0,1,0,1.939A1.251,1.251,0,0,1,410.286,355.055Z" transform="translate(-404.825 -348.225)" fill="#51597d"/>
      </g>
      <circle id="Ellipse_26" data-name="Ellipse 26" cx="61.939" cy="61.939" r="61.939" transform="translate(128.996 114.902)" fill="#ededed"/>
      <g id="Group_33" data-name="Group 33" transform="translate(117.988 113.533)">
        <circle id="Ellipse_27" data-name="Ellipse 27" cx="61.939" cy="61.939" r="61.939" transform="translate(1.369 1.369)" fill="#fff"/>
        <path id="Path_106" data-name="Path 106" d="M270.208,288.915a63.308,63.308,0,1,1,63.308-63.308A63.383,63.383,0,0,1,270.208,288.915Zm0-123.877a60.57,60.57,0,1,0,60.57,60.57A60.608,60.608,0,0,0,270.208,165.038Z" transform="translate(-206.9 -162.3)" fill="#51597d"/>
      </g>
      <g id="Group_34" data-name="Group 34" transform="translate(127.627 123.172)">
        <path id="Path_107" data-name="Path 107" d="M277.469,286.538a53.669,53.669,0,1,1,53.669-53.669A53.72,53.72,0,0,1,277.469,286.538Zm0-104.6A50.931,50.931,0,1,0,328.4,232.869,51.018,51.018,0,0,0,277.469,181.938Z" transform="translate(-223.8 -179.2)" fill="#51597d"/>
      </g>
      <g id="Group_35" data-name="Group 35" transform="translate(279.337 152.259)">
        <path id="Path_108" data-name="Path 108" d="M496.131,242.861a6.331,6.331,0,1,1,6.331-6.331A6.353,6.353,0,0,1,496.131,242.861Zm0-11.008a4.677,4.677,0,1,0,4.677,4.677A4.7,4.7,0,0,0,496.131,231.854Z" transform="translate(-489.8 -230.2)" fill="#51597d"/>
      </g>
      <circle id="Ellipse_28" data-name="Ellipse 28" cx="2.738" cy="2.738" r="2.738" transform="translate(282.93 155.852)" fill="#ededed"/>
      <g id="Group_36" data-name="Group 36" transform="translate(64.259 102.754)">
        <path id="Path_109" data-name="Path 109" d="M257.221,146.138H114.18a1.436,1.436,0,0,1-1.483-1.255,1.379,1.379,0,0,1,1.369-1.483H257.221a1.357,1.357,0,0,1,1.369,1.027A1.39,1.39,0,0,1,257.221,146.138Z" transform="translate(-112.694 -143.4)" fill="#51597d"/>
      </g>
      <g id="Group_39" data-name="Group 39" transform="translate(3.636 59.808)">
        <g id="Group_37" data-name="Group 37" transform="translate(8.327 0)">
          <path id="Path_110" data-name="Path 110" d="M22.369,87.377A1.388,1.388,0,0,1,21,86.009V69.469a1.369,1.369,0,1,1,2.738,0v16.54A1.388,1.388,0,0,1,22.369,87.377Z" transform="translate(-21 -68.1)" fill="#51597d"/>
        </g>
        <g id="Group_38" data-name="Group 38" transform="translate(0 8.27)">
          <path id="Path_111" data-name="Path 111" d="M24.309,85.338H7.769a1.369,1.369,0,0,1,0-2.738h16.54a1.388,1.388,0,0,1,1.369,1.369A1.351,1.351,0,0,1,24.309,85.338Z" transform="translate(-6.4 -82.6)" fill="#51597d"/>
        </g>
      </g>
      <g id="Group_42" data-name="Group 42" transform="translate(152.052 157.236)">
        <g id="Group_40" data-name="Group 40">
          <path id="Path_112" data-name="Path 112" d="M267.98,253.34a1.336,1.336,0,0,1-.97-.4,1.413,1.413,0,0,1,0-1.939L278.7,239.31a1.371,1.371,0,0,1,1.939,1.939l-11.692,11.692A1.336,1.336,0,0,1,267.98,253.34Z" transform="translate(-266.625 -238.925)" fill="#51597d"/>
        </g>
        <g id="Group_41" data-name="Group 41">
          <path id="Path_113" data-name="Path 113" d="M279.671,253.34a1.336,1.336,0,0,1-.97-.4L267.01,241.249a1.371,1.371,0,1,1,1.939-1.939L280.641,251a1.413,1.413,0,0,1,0,1.939A1.336,1.336,0,0,1,279.671,253.34Z" transform="translate(-266.625 -238.925)" fill="#51597d"/>
        </g>
      </g>
      <g id="Group_45" data-name="Group 45" transform="translate(197.508 157.236)">
        <g id="Group_43" data-name="Group 43">
          <path id="Path_114" data-name="Path 114" d="M347.68,253.34a1.336,1.336,0,0,1-.97-.4,1.413,1.413,0,0,1,0-1.939L358.4,239.31a1.371,1.371,0,0,1,1.939,1.939l-11.692,11.692A1.336,1.336,0,0,1,347.68,253.34Z" transform="translate(-346.325 -238.925)" fill="#51597d"/>
        </g>
        <g id="Group_44" data-name="Group 44">
          <path id="Path_115" data-name="Path 115" d="M359.314,253.34a1.336,1.336,0,0,1-.97-.4L346.71,241.249a1.371,1.371,0,1,1,1.939-1.939L360.341,251a1.413,1.413,0,0,1,0,1.939A1.375,1.375,0,0,1,359.314,253.34Z" transform="translate(-346.325 -238.925)" fill="#51597d"/>
        </g>
      </g>
      <g id="Group_48" data-name="Group 48" transform="translate(252.873 48.8)">
        <g id="Group_46" data-name="Group 46" transform="translate(12.376)">
          <path id="Path_116" data-name="Path 116" d="M466.469,76.347a1.388,1.388,0,0,1-1.369-1.369V50.169a1.369,1.369,0,1,1,2.738,0v24.81A1.351,1.351,0,0,1,466.469,76.347Z" transform="translate(-465.1 -48.8)" fill="#51597d"/>
        </g>
        <g id="Group_47" data-name="Group 47" transform="translate(0 12.376)">
          <path id="Path_117" data-name="Path 117" d="M469.578,73.238h-24.81a1.369,1.369,0,1,1,0-2.738h24.81a1.369,1.369,0,0,1,0,2.738Z" transform="translate(-443.4 -70.5)" fill="#51597d"/>
        </g>
      </g>
      <g id="Group_49" data-name="Group 49" transform="translate(171.657 187.848)">
        <path id="Path_118" data-name="Path 118" d="M301,303.27s1.369-8.27,11.008-8.27c0,0,11.008,0,11.008,8.27" transform="translate(-301 -293.631)" fill="none" stroke="#fff" stroke-miterlimit="10" stroke-width="1"/>
        <path id="Path_119" data-name="Path 119" d="M302.535,301.954h-.057a1.314,1.314,0,0,1-1.312-1.654c.741-2.738,3.251-7.7,11.464-7.7,3.992,0,9.7,1.255,11.008,8.1a1.283,1.283,0,0,1-1.255,1.54h-.057a1.24,1.24,0,0,1-1.255-1.084c-.8-5.7-8.042-5.76-8.441-5.76-6.559,0-8.384,3.821-8.9,5.646A1.454,1.454,0,0,1,302.535,301.954Z" transform="translate(-301.053 -292.6)" fill="#51597d"/>
      </g>
      <g id="Group_50" data-name="Group 50" transform="translate(228.463 222.782)">
        <path id="Path_120" data-name="Path 120" d="M445.729,398.929h0a11.188,11.188,0,0,1-15.855,0l-23.555-23.555a11.188,11.188,0,0,1,0-15.855h0a11.188,11.188,0,0,1,15.855,0l23.555,23.555A11.188,11.188,0,0,1,445.729,398.929Z" transform="translate(-401.642 -354.87)" fill="#fff"/>
        <path id="Path_121" data-name="Path 121" d="M436.759,402.528a12.562,12.562,0,0,1-8.9-3.65l-23.555-23.555a12.53,12.53,0,0,1,0-17.795,12.6,12.6,0,0,1,17.795,0l23.555,23.555a12.53,12.53,0,0,1,0,17.795h0A12.466,12.466,0,0,1,436.759,402.528ZM413.2,356.616a9.992,9.992,0,0,0-6.958,2.852,9.7,9.7,0,0,0-2.852,6.958,9.938,9.938,0,0,0,2.852,6.958L429.8,396.939a9.811,9.811,0,0,0,13.859,0h0a9.7,9.7,0,0,0,2.852-6.958,9.938,9.938,0,0,0-2.852-6.958l-23.555-23.555A9.663,9.663,0,0,0,413.2,356.616Zm31.483,41.292Z" transform="translate(-400.6 -353.85)" fill="#51597d"/>
      </g>
      <path id="Path_122" data-name="Path 122" d="M.328,283.949l18.479,35.019a3.017,3.017,0,0,0,4.163,1.312l25.95-13.916a3.076,3.076,0,0,0,1.2-4.22L29.472,264.9,1.582,279.786A3.093,3.093,0,0,0,.328,283.949Z" transform="translate(0 -92.85)" fill="#ededed"/>
      <g id="Group_51" data-name="Group 51" transform="translate(7.909 171.418)">
        <path id="Path_123" data-name="Path 123" d="M35.056,315.811a4.341,4.341,0,0,1-1.2-.171,3.984,3.984,0,0,1-2.4-2l-17.11-32.966h0a4.051,4.051,0,0,1,1.711-5.475l21.1-11.293a.853.853,0,0,1,.741-.057l10.38,2.909a.822.822,0,0,1,.627.513l15.741,28.688A4.268,4.268,0,0,1,65,299.1a3.909,3.909,0,0,1-2,2.452l-25.95,13.916A8.138,8.138,0,0,1,35.056,315.811ZM16.121,279.652l17.11,32.966a2.138,2.138,0,0,0,1.2,1.027,1.827,1.827,0,0,0,1.54-.171l25.95-13.916a2.009,2.009,0,0,0,.97-1.2,1.827,1.827,0,0,0-.171-1.54L47.2,268.53l-9.582-2.681-20.7,11.065a2.169,2.169,0,0,0-.8,2.738Z" transform="translate(-13.893 -263.791)" fill="#51597d"/>
      </g>
      <g id="Group_52" data-name="Group 52" transform="translate(30.553 171.344)">
        <path id="Path_124" data-name="Path 124" d="M58.617,273.208a.427.427,0,0,1-.285-.057,1.108,1.108,0,0,1-.627-.513l-3.992-7.471a1.027,1.027,0,0,1,.114-1.141.975.975,0,0,1,1.141-.285l10.893,3.707a.925.925,0,0,1,.684.913.959.959,0,0,1-.513.97l-6.9,3.707A.92.92,0,0,1,58.617,273.208Zm-1.825-6.673,2.281,4.221,3.935-2.11Z" transform="translate(-53.595 -263.662)" fill="#51597d"/>
      </g>
      <g id="Group_53" data-name="Group 53" transform="translate(16.686 184.384)">
        <path id="Path_125" data-name="Path 125" d="M30.319,295.637a1.016,1.016,0,0,1-.913-.57.978.978,0,0,1,.456-1.369l13.859-7.072a1.023,1.023,0,0,1,1.369.456.978.978,0,0,1-.456,1.369l-13.8,7.072A1.665,1.665,0,0,1,30.319,295.637Z" transform="translate(-29.282 -286.526)" fill="#51597d"/>
      </g>
      <g id="Group_54" data-name="Group 54" transform="translate(23.587 195.652)">
        <path id="Path_126" data-name="Path 126" d="M42.419,317.015a1.016,1.016,0,0,1-.913-.57.978.978,0,0,1,.456-1.369l17-8.669a1.02,1.02,0,1,1,.913,1.825l-17,8.669A1.074,1.074,0,0,1,42.419,317.015Z" transform="translate(-41.382 -306.282)" fill="#51597d"/>
      </g>
      <g id="Group_55" data-name="Group 55" transform="translate(26.895 201.437)">
        <path id="Path_127" data-name="Path 127" d="M48.219,327.533a1.016,1.016,0,0,1-.913-.57.978.978,0,0,1,.456-1.369l17.795-9.068a1.023,1.023,0,0,1,1.369.456.978.978,0,0,1-.456,1.369l-17.795,9.068A1.343,1.343,0,0,1,48.219,327.533Z" transform="translate(-47.182 -316.426)" fill="#51597d"/>
      </g>
      <g id="Group_56" data-name="Group 56" transform="translate(19.709 189.207)">
        <path id="Path_128" data-name="Path 128" d="M35.619,305.715a1.016,1.016,0,0,1-.913-.57.978.978,0,0,1,.456-1.369l17-8.669a1.02,1.02,0,1,1,.913,1.825l-17,8.669A.614.614,0,0,1,35.619,305.715Z" transform="translate(-34.582 -294.982)" fill="#51597d"/>
      </g>
    </g>
    <text id="No_Record_Found" data-name="No Record Found" transform="translate(71 283)" fill="#fff" font-size="19" font-family="OpenSans, Open Sans"><tspan x="0" y="0">No Record Found</tspan></text>
  </g>
</svg>
