<svg xmlns="http://www.w3.org/2000/svg" width="16.912" height="12.08" viewBox="0 0 16.912 12.08">
  <g id="paymet-icon" transform="translate(-2 -6)">
    <path id="Path_134" data-name="Path 134" d="M17.1,6H3.812A1.812,1.812,0,0,0,2,7.812v8.456A1.812,1.812,0,0,0,3.812,18.08H17.1a1.812,1.812,0,0,0,1.812-1.812V7.812A1.812,1.812,0,0,0,17.1,6ZM3.812,7.208H17.1a.6.6,0,0,1,.6.6V9.02H3.208V7.812A.6.6,0,0,1,3.812,7.208ZM17.1,16.872H3.812a.6.6,0,0,1-.6-.6V11.436H17.7v4.832A.6.6,0,0,1,17.1,16.872Z" transform="translate(0)" fill="#fff"/>
    <rect id="Rectangle_46" data-name="Rectangle 46" width="9" height="2" transform="translate(8 14)" fill="#fff"/>
  </g>
</svg>
