<svg id="play-button" xmlns="http://www.w3.org/2000/svg" width="30.023" height="30.023" viewBox="0 0 30.023 30.023">
  <g id="play-button-2" data-name="play-button">
    <g id="Group" transform="translate(0 0)">
      <path id="Shape" d="M0,15.012A15.012,15.012,0,1,1,15.012,30.023,15.029,15.029,0,0,1,0,15.012Z" fill="#fff"/>
      <path id="Shape-2" data-name="Shape" d="M.051,11.645,0,11.5V1.973A1.825,1.825,0,0,1,1.92,0,3.9,3.9,0,0,1,3.3.291l.12.063,8.205,5.019.118.214a1.9,1.9,0,0,1-.54,2.507L3.009,12.743a2.394,2.394,0,0,1-1.1.3A2.02,2.02,0,0,1,.051,11.645Z" transform="translate(10.165 8.472)" fill="#fff"/>
    </g>
  </g>
  <path id="Path_65" data-name="Path 65" d="M6,0l6,10.609H0Z" transform="translate(22.278 9.148) rotate(90)" fill="#00adef"/>
</svg>
