<svg xmlns="http://www.w3.org/2000/svg" viewBox="0 0 187.28 189.66"><defs><style>.cls-1{fill:#fff;}.cls-2{fill:#231f20;}</style></defs><title>instagramAsset 1</title><g id="Layer_2" data-name="Layer 2"><g id="Layer_27" data-name="Layer 27"><path class="cls-1" d="M11.89,61.38a6.26,6.26,0,0,1,1.53.68,10.45,10.45,0,0,1,1.45,1.39A7.06,7.06,0,0,1,16,64.93a14.82,14.82,0,0,1,.75,1.5c.16.4.39,1,.67,1.93a13.5,13.5,0,0,1,.55,2.4,4.88,4.88,0,0,1-.21,2.14,16.92,16.92,0,0,1-1.67,3.2l-.71,1.1q-1.38-.45-5-1.77t-5-1.78l-1.42-.46-1.09-.36c-.16.49-.29.93-.4,1.3s-.19.77-.26,1.19l-.13,1L.17,72.24c0-.17,0-.33.07-.49a4.9,4.9,0,0,1,.16-.58c.13-.39.25-.78.38-1.17s.25-.76.37-1.14a18.14,18.14,0,0,1,1.33-3.07,10.54,10.54,0,0,1,1.85-2.5,7,7,0,0,1,2.05-1.45,14,14,0,0,1,1.81-.65A5.85,5.85,0,0,1,10,61,6.82,6.82,0,0,1,11.89,61.38Zm1.74,3.83-.4-.16a1.83,1.83,0,0,0-.29-.11,11.82,11.82,0,0,0-3.51-.34,4.19,4.19,0,0,0-3.62,1.73c-.82,1.15-1.27,1.8-1.37,2a3.76,3.76,0,0,0-.28.67c0,.12-.08.26-.14.42l-.12.37,3,1,3.23,1,1.33.43,2.23.73a5.33,5.33,0,0,0,1.35-1.76c.27-.61.43-1,.5-1.2l.15-.42a3.36,3.36,0,0,0,0-2.54A4.24,4.24,0,0,0,13.63,65.21Z"/><path class="cls-1" d="M15.43,77.4l-.12,0c-.92-.3-2.61-.9-5-1.77s-4.11-1.48-5-1.78L2.9,73c-.13.42-.25.8-.34,1.14a9.2,9.2,0,0,0-.26,1.17l-.21,1.59L0,72.27v0c0-.18,0-.34.07-.49a3.48,3.48,0,0,1,.16-.61L1,68.81a18.48,18.48,0,0,1,1.34-3.1,10.88,10.88,0,0,1,1.88-2.54,7.12,7.12,0,0,1,2.1-1.48A11.9,11.9,0,0,1,8.15,61,6.55,6.55,0,0,1,10,60.85a7.24,7.24,0,0,1,2,.37h0a5.84,5.84,0,0,1,1.57.71A10.42,10.42,0,0,1,15,63.33a7.39,7.39,0,0,1,1.12,1.52,14.18,14.18,0,0,1,.76,1.51c.17.41.4,1.06.68,2a13.67,13.67,0,0,1,.56,2.43A5,5,0,0,1,17.9,73a16.75,16.75,0,0,1-1.69,3.24ZM2.68,72.62l2.68.87c.93.31,2.62.9,5,1.78s3.95,1.42,4.89,1.73l.64-1a16.51,16.51,0,0,0,1.65-3.16,4.87,4.87,0,0,0,.21-2.07,14.15,14.15,0,0,0-.55-2.37c-.28-.88-.5-1.52-.67-1.92A14.39,14.39,0,0,0,15.83,65a6.37,6.37,0,0,0-1.08-1.44,10.8,10.8,0,0,0-1.42-1.37,6.11,6.11,0,0,0-1.49-.66h0a6.82,6.82,0,0,0-1.9-.35,5.56,5.56,0,0,0-1.71.17A12.08,12.08,0,0,0,6.45,62a6.87,6.87,0,0,0-2,1.42,10.44,10.44,0,0,0-1.83,2.46,17.86,17.86,0,0,0-1.31,3l-.75,2.3a3.18,3.18,0,0,0-.15.56c0,.14,0,.28-.06.44l1.56,3.49L2,75.3c.08-.43.17-.84.27-1.21s.25-.83.4-1.31Zm11.08.44L10.1,71.87l-3.22-1-3.19-1,.31-1a4.05,4.05,0,0,1,.3-.7c.1-.17.55-.82,1.37-2a4.39,4.39,0,0,1,3.76-1.8,12.25,12.25,0,0,1,3.57.35l.3.11.4.17h0a4.41,4.41,0,0,1,2.2,1.81,3.57,3.57,0,0,1,0,2.68l-.15.42c-.07.19-.24.6-.51,1.2A5.3,5.3,0,0,1,13.83,73ZM4.11,69.65,7,70.58l3.22,1,3.48,1.13A5,5,0,0,0,14.92,71c.25-.59.43-1,.49-1.19s.12-.32.15-.41a3.2,3.2,0,0,0,0-2.42,4.08,4.08,0,0,0-2-1.65l-.39-.17-.28-.1a11.78,11.78,0,0,0-3.46-.34,4.11,4.11,0,0,0-3.49,1.67c-.8,1.14-1.26,1.79-1.35,1.95a3.27,3.27,0,0,0-.27.63Z"/><path class="cls-1" d="M26.78,49.21c.1.67.18,1.37.25,2.1a2.5,2.5,0,0,1-.16,1.47,1.08,1.08,0,0,1-.81.56,17.24,17.24,0,0,1-1.88.13L23,53.5l-1,0-1.59,2.83L19,58.93l.39.37c.1.12.2.23.32.35a4.7,4.7,0,0,0,.44.37l.73.53-.24,2.55c0,.2-.06.46-.12.77s-.11.59-.15.85c-.2-.39-.42-.81-.67-1.26a19.74,19.74,0,0,0-1.33-2c-.63-.85-1.23-1.64-1.79-2.38s-1.16-1.55-1.81-2.43A20.12,20.12,0,0,0,13,54.63L11.7,53.12l-.87-.95c0-.11,0-.28.05-.53a6.54,6.54,0,0,0,0-.78c0-.28,0-.55,0-.81s0-.52.05-.79a.5.5,0,0,1,.23-.36.76.76,0,0,1,.6-.11l.83.2.67.14c.29,0,1,.14,2,.25l3.56.41c1.32.15,2.17.23,2.54.25s.88,0,1.54,0,1.29,0,1.89-.07A1.77,1.77,0,0,0,26,49.64l.39-.47Zm-7,4.11-5.92-.65,3.69,4.62,1-1.66Z"/><path class="cls-1" d="M20.4,65.25l-.23-.46c-.19-.38-.41-.79-.67-1.25a20.13,20.13,0,0,0-1.32-1.93L16.4,59.23c-.56-.74-1.17-1.55-1.82-2.43a19.82,19.82,0,0,0-1.68-2.06l-1.33-1.51-.91-1v-.08c0-.1,0-.28.05-.52a6.31,6.31,0,0,0,0-.77c0-.3,0-.56,0-.82s0-.52,0-.79a.68.68,0,0,1,.29-.48.91.91,0,0,1,.74-.14l.83.19c.16,0,.38.09.67.14s.95.14,2,.26l3.55.4c1.32.15,2.17.24,2.53.25s.88,0,1.54,0a16.44,16.44,0,0,0,1.88-.07c.72-.07.95-.22,1-.31l.45-.54.65.07,0,.13c.11.66.19,1.37.26,2.11a2.58,2.58,0,0,1-.2,1.58,1.24,1.24,0,0,1-.91.63,16,16,0,0,1-1.91.12l-1.16,0-.92,0L19.16,58.9l.3.28a3.49,3.49,0,0,0,.32.35,3.23,3.23,0,0,0,.42.35l.81.59-.26,2.64a6.11,6.11,0,0,1-.11.79c-.06.31-.11.59-.16.84ZM11,52.11l.81.9,1.32,1.5a20.48,20.48,0,0,1,1.72,2.09q1,1.32,1.8,2.43c.56.74,1.16,1.53,1.79,2.38a17.46,17.46,0,0,1,1.34,2c.17.3.32.57.45.83,0-.12,0-.24.07-.36.06-.31.09-.56.11-.76l.23-2.45L20,60.15a4,4,0,0,1-.46-.38c-.12-.12-.23-.25-.33-.37L18.74,59l3.17-5.66,1.11,0,1.15,0A16.56,16.56,0,0,0,26,53.17a.89.89,0,0,0,.69-.47,2.16,2.16,0,0,0,.14-1.37c-.06-.68-.14-1.34-.23-2l-.22,0-.33.4a1.85,1.85,0,0,1-1.25.44c-.61,0-1.26.08-1.92.07l-1.54,0c-.37,0-1.21-.1-2.55-.26l-3.56-.4c-1-.11-1.71-.2-2-.26l-.68-.14L11.75,49a.56.56,0,0,0-.46.07c-.1.09-.16.17-.16.24,0,.27,0,.53-.05.79s0,.51,0,.79a7,7,0,0,1,0,.81C11,51.85,11,52,11,52.11Zm6.58,5.48-4.1-5.14,6.56.73-1.36,2.53Zm-3.34-4.71L17.54,57l.86-1.46,1.12-2.08Z"/><path class="cls-1" d="M40.84,33.63l-.14.66L40.29,37l-1.14-.48c-1.21-.55-2.34-1.1-3.38-1.66s-2-1.11-2.79-1.64l.26,1,.07.31.59,2.07.18.83c0,.14.06.37.11.69s.08.69.1,1.1a4.89,4.89,0,0,1-.09,1.3,2.12,2.12,0,0,1-.5,1.09,2.71,2.71,0,0,1-1.41.78,9.27,9.27,0,0,1-1.84.25c-.64,0-1.47,0-2.48,0l-2.2-.06c.45.58,1,1.19,1.54,1.82A22.73,22.73,0,0,0,28.93,46l-.22,1c-.1.58-.2,1.11-.28,1.58s-.16,1-.23,1.64l-1.69-2.18-.6-.78-1.2-1.61-1.65-2.25L22,42l-1.1-.24a16,16,0,0,1-1.64-.49,2.46,2.46,0,0,1-.81-.41,1,1,0,0,1-.31-.66v-.36l.29-1.4.23-1.24a8.25,8.25,0,0,0,1.69.83c.56.19,1.62.45,3.17.78a20.71,20.71,0,0,0,4.27.5,13.49,13.49,0,0,0,3-.23,3,3,0,0,0,1.53-.79A2.22,2.22,0,0,0,32.72,36a14.62,14.62,0,0,0-.88-2.17c-.27-.49-.56-1-.86-1.41A13.56,13.56,0,0,0,30,31.17,12.27,12.27,0,0,0,28.89,30l-.44-.41.62-2.74.22-1.11.23-1.12c.33.69.6,1.23.81,1.65s.42.82.65,1.24l.43.89a36.34,36.34,0,0,0,4,2.49,33.42,33.42,0,0,0,3.63,1.71,10.26,10.26,0,0,1,1.6.68A.73.73,0,0,1,40.84,33.63Z"/><path class="cls-1" d="M28.33,50.69,25.77,47.4l-1.2-1.61-2.64-3.61-1-.23a15.45,15.45,0,0,1-1.67-.49,2.73,2.73,0,0,1-.87-.45,1.14,1.14,0,0,1-.36-.76l0-.39.28-1.42L18.58,37l.21.14a8.11,8.11,0,0,0,1.65.81c.56.19,1.62.45,3.16.78a21.8,21.8,0,0,0,4.23.5,13.59,13.59,0,0,0,2.94-.24,2.79,2.79,0,0,0,1.45-.73A2.06,2.06,0,0,0,32.56,36a14.18,14.18,0,0,0-.87-2.14,16.1,16.1,0,0,0-.85-1.39,14.81,14.81,0,0,0-.93-1.21,13.4,13.4,0,0,0-1.13-1.14l-.52-.47.65-2.84.55-2.71.22.45c.32.68.59,1.23.8,1.64l.64,1.24.43.86a35.25,35.25,0,0,0,4,2.45,30.48,30.48,0,0,0,3.61,1.7,6.92,6.92,0,0,1,1.65.72.8.8,0,0,1,.22.41v0l-.14.69-.45,2.91-1.33-.57c-1.22-.54-2.37-1.1-3.4-1.66s-1.71-1-2.44-1.41l.23.84.58,2.07.18.84c0,.15.07.38.11.71s.08.7.11,1.11a6.25,6.25,0,0,1-.09,1.34,2.4,2.4,0,0,1-.55,1.18,2.91,2.91,0,0,1-1.49.83,10.39,10.39,0,0,1-1.88.25c-.64,0-1.48,0-2.49,0l-1.84,0c.39.49.83,1,1.31,1.53s1.11,1.17,1.61,1.62l.07.06-.23,1.12c-.11.58-.21,1.11-.29,1.58s-.15,1-.22,1.63ZM18.82,37.5l-.19,1-.28,1.4v.34a.76.76,0,0,0,.25.52,2.48,2.48,0,0,0,.75.39c.38.14.93.3,1.64.48l1.14.25L26,47.2l2,2.64c.06-.46.12-.87.18-1.24s.18-1,.29-1.59l.19-.94c-.48-.44-1-1-1.56-1.57s-1.1-1.26-1.54-1.83l-.21-.28,2.54.06c1,0,1.83,0,2.47,0a10.66,10.66,0,0,0,1.81-.25,2.58,2.58,0,0,0,1.33-.73,2.1,2.1,0,0,0,.46-1,5,5,0,0,0,.08-1.26,10.72,10.72,0,0,0-.1-1.09c-.05-.31-.08-.54-.11-.68l-.17-.83-1-3.75.37.24c.81.53,1.74,1.08,2.78,1.63s2.16,1.11,3.37,1.65l.93.4.39-2.48.12-.63a.41.41,0,0,0-.1-.21A8.41,8.41,0,0,0,39,32.78a33,33,0,0,1-3.66-1.72,35.62,35.62,0,0,1-4-2.5l0,0-.46-.93c-.22-.41-.43-.82-.64-1.24s-.36-.72-.59-1.2l-.35,1.74-.61,2.65.38.34a13.61,13.61,0,0,1,2.11,2.41c.31.45.6.93.87,1.42a14.87,14.87,0,0,1,.89,2.19,2.39,2.39,0,0,1-.42,2.52,3,3,0,0,1-1.61.84,13.24,13.24,0,0,1-3,.24,21.68,21.68,0,0,1-4.3-.51,31,31,0,0,1-3.2-.79A7.91,7.91,0,0,1,18.82,37.5Z"/><path class="cls-1" d="M54.38,24.39c-.2.65-.43,1.31-.7,2a2.5,2.5,0,0,1-.79,1.25,1.08,1.08,0,0,1-1,.14,16.54,16.54,0,0,1-1.75-.72l-1.06-.48-.89-.46L45.55,28l-2.48,1.71.19.49a4,4,0,0,0,.13.46,5.26,5.26,0,0,0,.23.52l.42.8L42.7,34.12a5.77,5.77,0,0,1-.44.64l-.51.7c0-.43,0-.91,0-1.43a20.66,20.66,0,0,0-.33-2.33c-.2-1-.38-2-.56-2.93s-.36-1.9-.55-3a21.44,21.44,0,0,0-.61-2.61l-.53-1.93L38.77,20c0-.09.15-.24.27-.45a7.37,7.37,0,0,0,.37-.69q.18-.39.36-.72l.39-.69a.49.49,0,0,1,.37-.22.68.68,0,0,1,.58.17l.66.53.54.43q.36.25,1.68,1.11l3,1.92c1.12.73,1.85,1.17,2.17,1.35s.78.42,1.36.72,1.17.55,1.74.77a1.72,1.72,0,0,0,1.18.17l.56-.25ZM46.3,25l-5-3.2,1.27,5.78,1.61-1.06Z"/><path class="cls-1" d="M41.58,36v-.51c0-.42,0-.89,0-1.42a16.64,16.64,0,0,0-.33-2.31c-.19-1-.38-2-.55-2.93s-.36-1.9-.56-3a21.23,21.23,0,0,0-.6-2.59L39,21.29,38.58,20l0-.07.28-.44c.12-.2.24-.43.36-.68a6.19,6.19,0,0,1,.37-.73q.18-.34.39-.69a.66.66,0,0,1,.47-.31.9.9,0,0,1,.72.2l.67.54c.12.11.3.25.53.42s.8.55,1.67,1.11l3,1.92c1.12.72,1.84,1.17,2.16,1.34s.78.42,1.36.72a18.11,18.11,0,0,0,1.72.76c.68.26,1,.22,1.05.18L54,24l.56.35,0,.12c-.2.64-.43,1.32-.7,2A2.56,2.56,0,0,1,53,27.78a1.22,1.22,0,0,1-1.1.16,15.77,15.77,0,0,1-1.77-.73L49,26.74l-.81-.43-4.95,3.42.14.37a3.62,3.62,0,0,0,.13.47,3.27,3.27,0,0,0,.22.49l.47.89-1.4,2.26a5.6,5.6,0,0,1-.45.66l-.51.69ZM39,20l.33,1.16.53,1.94a21.21,21.21,0,0,1,.61,2.62c.2,1.08.38,2.07.56,3s.36,1.89.55,2.92A19.85,19.85,0,0,1,41.87,34c0,.34,0,.65,0,.94l.22-.3a7.27,7.27,0,0,0,.43-.62l1.29-2.1-.38-.72c-.1-.2-.18-.39-.24-.54s-.1-.33-.13-.48l-.23-.6,5.33-3.68,1,.51,1.05.48a16,16,0,0,0,1.73.71.92.92,0,0,0,.82-.12c.17-.1.42-.37.74-1.17.24-.64.46-1.27.65-1.86L54,24.35l-.48.21a1.82,1.82,0,0,1-1.31-.16c-.58-.22-1.16-.49-1.75-.78s-1.05-.54-1.37-.72-1.06-.63-2.18-1.35l-3-1.93c-.88-.56-1.45-.94-1.69-1.12l-.55-.43L41,17.54a.56.56,0,0,0-.45-.14.39.39,0,0,0-.25.14c-.14.24-.27.46-.39.69a7.77,7.77,0,0,0-.36.71c-.12.26-.25.5-.37.71Zm3.49,7.82L41,21.44,46.6,25l-2.34,1.67Zm-.91-5.7,1.13,5.15,1.41-.93L46,25Z"/><path class="cls-1" d="M64,17.2a5.51,5.51,0,0,1-.21,1.25,13.15,13.15,0,0,1-.51,1.45c-.21.48-.36.81-.46,1s-.26.44-.48.78a8.34,8.34,0,0,1-.86,1.1,9.22,9.22,0,0,1-1.21,1.11,8.16,8.16,0,0,1-1.49.89,5.58,5.58,0,0,1-1.67.48,3.64,3.64,0,0,1-1.39-.08,4.35,4.35,0,0,1-.82-.32.81.81,0,0,1-.36-.35,1.23,1.23,0,0,1,.14-1,16.37,16.37,0,0,1,1.14-1.88l.45-.66A3.28,3.28,0,0,0,58,22,2.81,2.81,0,0,0,60,21.93a1.36,1.36,0,0,0,.35-.11,2.64,2.64,0,0,0,1.37-1.27,1.78,1.78,0,0,0,0-1.59,3.37,3.37,0,0,0-.4-.55,1.94,1.94,0,0,0-.93-.59,5.32,5.32,0,0,0-1.76-.1l-.49.06-3.94.64a3.35,3.35,0,0,1-.55,0,8.63,8.63,0,0,1-1.05-.22A2,2,0,0,1,51.36,17a3.39,3.39,0,0,1-.17-2.1,5.9,5.9,0,0,1,.86-2.16q.62-.93.81-1.17c.12-.16.49-.55,1.1-1.18a7.35,7.35,0,0,1,2.25-1.54,4,4,0,0,1,2.21-.44c.64.09,1,.29,1.16.59a.46.46,0,0,1,0,.47l-.47.72-1.2,1.58-.38-.23a3.2,3.2,0,0,0-2.75-.15l-.8.52a1.32,1.32,0,0,0-.63,1.18,3.13,3.13,0,0,0,.17,1,1.52,1.52,0,0,0,1,.8,5.73,5.73,0,0,0,2,.16l.17,0,3.39-.55c1.9-.32,3.12.11,3.67,1.29A3.24,3.24,0,0,1,64,17.2Z"/><path class="cls-1" d="M56.6,25.45a3.14,3.14,0,0,1-.91-.12,4.73,4.73,0,0,1-.87-.33,1,1,0,0,1-.42-.43,1.34,1.34,0,0,1,.14-1.12,18.17,18.17,0,0,1,1.15-1.91l.58-.83.14.17a3.21,3.21,0,0,0,1.65.93,2.69,2.69,0,0,0,1.83,0h0a1.38,1.38,0,0,0,.3-.1,2.48,2.48,0,0,0,1.29-1.19,1.64,1.64,0,0,0,0-1.45,2.82,2.82,0,0,0-.38-.51,1.69,1.69,0,0,0-.85-.54,5.24,5.24,0,0,0-1.7-.09l-.48.06-3.93.64a3.88,3.88,0,0,1-.59,0,9.42,9.42,0,0,1-1.08-.23,2.12,2.12,0,0,1-1.33-1.3,3.49,3.49,0,0,1-.18-2.2,6,6,0,0,1,.88-2.22c.42-.63.69-1,.82-1.18a15.37,15.37,0,0,1,1.11-1.19,7.85,7.85,0,0,1,2.3-1.59,4.15,4.15,0,0,1,2.3-.44c.71.1,1.13.32,1.3.68a.67.67,0,0,1,0,.63l-.49.72L57.94,12l-.52-.3a3,3,0,0,0-2.59-.14,8,8,0,0,0-.77.5,1.16,1.16,0,0,0-.57,1,3,3,0,0,0,.16,1,1.4,1.4,0,0,0,.88.71,5.67,5.67,0,0,0,2,.15l.15,0,3.39-.56c2-.33,3.27.14,3.85,1.4a3.35,3.35,0,0,1,.28,1.48h0A6,6,0,0,1,64,18.5,11.57,11.57,0,0,1,63.44,20c-.2.48-.36.82-.46,1s-.26.44-.49.79a8.55,8.55,0,0,1-.88,1.13A9.53,9.53,0,0,1,60.38,24a8,8,0,0,1-1.52.92,5.9,5.9,0,0,1-1.72.49Zm-.3-4.2-.33.48a15.68,15.68,0,0,0-1.12,1.86,1,1,0,0,0-.14.84.63.63,0,0,0,.28.28,3.88,3.88,0,0,0,.79.3,3.46,3.46,0,0,0,1.32.08,5.47,5.47,0,0,0,1.62-.47,7.83,7.83,0,0,0,1.46-.87,8.86,8.86,0,0,0,1.18-1.09,8.12,8.12,0,0,0,.85-1.08c.22-.35.38-.6.47-.77s.25-.51.45-1a11.45,11.45,0,0,0,.5-1.42,5.29,5.29,0,0,0,.21-1.22,2.89,2.89,0,0,0-.25-1.34c-.51-1.11-1.65-1.5-3.48-1.2l-3.56.59a6,6,0,0,1-2.12-.16,1.67,1.67,0,0,1-1.08-.89,3,3,0,0,1-.19-1.09,1.46,1.46,0,0,1,.71-1.32,6.51,6.51,0,0,1,.83-.54,3.34,3.34,0,0,1,2.88.15l.27.16L59,10.09l.48-.71a.34.34,0,0,0,0-.31c-.11-.24-.46-.41-1-.49A3.79,3.79,0,0,0,56.28,9a7.28,7.28,0,0,0-2.2,1.51c-.6.62-1,1-1.09,1.16s-.39.55-.8,1.17a5.63,5.63,0,0,0-.83,2.09,3.3,3.3,0,0,0,.15,2,1.83,1.83,0,0,0,1.12,1.12,7.52,7.52,0,0,0,1,.21,2.26,2.26,0,0,0,.52,0l3.93-.64.5-.06a5.2,5.2,0,0,1,1.83.1,2.09,2.09,0,0,1,1,.65,2.92,2.92,0,0,1,.43.58,2,2,0,0,1,0,1.73A2.81,2.81,0,0,1,60.38,22a1.66,1.66,0,0,1-.37.13,3.12,3.12,0,0,1-2,0A3.65,3.65,0,0,1,56.3,21.25Z"/><path class="cls-1" d="M77.41,15.49l-.52.71a16.89,16.89,0,0,1-1.27,1.62,8.72,8.72,0,0,1-1.16,1,6.12,6.12,0,0,1-.88.32l-.26.07c-.14,0-.49.07-1,.17a5.29,5.29,0,0,1-2.44-.34,6.15,6.15,0,0,1-2.49-1.36A12.31,12.31,0,0,1,66,16.32a7.74,7.74,0,0,1-.72-1.13,6.83,6.83,0,0,1-.53-1.39,5.63,5.63,0,0,1-.23-1.68,6.27,6.27,0,0,1,.19-1.55q.18-.69.27-1.08a5.35,5.35,0,0,0,.3-.68,5,5,0,0,1,.5-.89,14.52,14.52,0,0,1,1.1-1.42,9.64,9.64,0,0,1,2-1.69,8.44,8.44,0,0,1,2.29-1.12,5.8,5.8,0,0,1,1.49-.25,2.21,2.21,0,0,1,.94.21c.25.14.4.28.44.43a.73.73,0,0,1-.11.57c-.14.18-.33.46-.58.82s-.47.66-.67.91l-.47.55a2.72,2.72,0,0,0-1.52-.58A4.47,4.47,0,0,0,69,6.46a2.68,2.68,0,0,0-1.71,1.35,2.94,2.94,0,0,0-.43,1.85q.14.83.18,1l.07.25a7.7,7.7,0,0,0,.36,1,16.15,16.15,0,0,0,1.44,2.3,4.34,4.34,0,0,0,3.4,1.91,10.15,10.15,0,0,0,3.3-.14,6.27,6.27,0,0,0,1.58-.7Z"/><path class="cls-1" d="M71.81,19.63a7,7,0,0,1-2-.39,6.5,6.5,0,0,1-2.56-1.4,13.44,13.44,0,0,1-1.32-1.41,9.15,9.15,0,0,1-.74-1.16,7.62,7.62,0,0,1-.55-1.43,6.66,6.66,0,0,1-.23-1.72,6.07,6.07,0,0,1,.2-1.59q.18-.69.27-1.08v0q.15-.3.3-.66a5.69,5.69,0,0,1,.51-.93,15.24,15.24,0,0,1,1.12-1.43,9.38,9.38,0,0,1,2-1.72,8.32,8.32,0,0,1,2.33-1.14,6.29,6.29,0,0,1,1.54-.26,2.26,2.26,0,0,1,1,.24A.94.94,0,0,1,74.2,4a.89.89,0,0,1-.12.69c-.15.2-.35.48-.59.83s-.48.67-.68.92l-.58.69-.13-.11a2.58,2.58,0,0,0-1.43-.54,4.31,4.31,0,0,0-1.67.1,2.49,2.49,0,0,0-1.61,1.27A2.75,2.75,0,0,0,67,9.63a9.53,9.53,0,0,0,.17,1l.07.25a10.07,10.07,0,0,0,.35,1A17.26,17.26,0,0,0,69,14.09a4.22,4.22,0,0,0,3.28,1.84,9.84,9.84,0,0,0,3.24-.13,5.84,5.84,0,0,0,1.54-.69l.11-.06.47.42-.6.82c-.54.75-1,1.3-1.28,1.65A10,10,0,0,1,74.56,19l0,0a7.77,7.77,0,0,1-.89.32l-.31.08a8.77,8.77,0,0,0-1,.17A2.49,2.49,0,0,1,71.81,19.63ZM65.17,9.55c-.06.25-.15.61-.27,1.06a5.9,5.9,0,0,0-.18,1.51,5.62,5.62,0,0,0,.22,1.63,7.15,7.15,0,0,0,.52,1.36,7.48,7.48,0,0,0,.71,1.11,11.84,11.84,0,0,0,1.29,1.38,6.11,6.11,0,0,0,2.42,1.32,5.24,5.24,0,0,0,2.36.34c.54-.1.89-.16,1.05-.17l.25-.07c.29-.09.56-.19.83-.3a8.27,8.27,0,0,0,1.13-1,20.23,20.23,0,0,0,1.26-1.61l.42-.58-.06-.06a5.8,5.8,0,0,1-1.52.66,10.42,10.42,0,0,1-3.35.15,4.52,4.52,0,0,1-3.53-2A17.44,17.44,0,0,1,67.26,12a8,8,0,0,1-.36-1l-.07-.24a8.32,8.32,0,0,1-.18-1,3.07,3.07,0,0,1,.44-2,2.88,2.88,0,0,1,1.82-1.44,5,5,0,0,1,1.79-.11,3.1,3.1,0,0,1,1.49.52l.36-.43q.28-.36.66-.9c.25-.36.45-.63.59-.82a.62.62,0,0,0,.08-.42c0-.07-.1-.19-.36-.33a2,2,0,0,0-.87-.19,5.21,5.21,0,0,0-1.44.25A7.78,7.78,0,0,0,69,5,9.26,9.26,0,0,0,67,6.61,16.1,16.1,0,0,0,66,8a4.38,4.38,0,0,0-.48.87C65.37,9.12,65.27,9.34,65.17,9.55Z"/><path class="cls-1" d="M93.59.35l0,.56-.06.48c0,.57-.1,1-.15,1.36s-.15.86-.29,1.56S92.79,5.57,92.7,6s-.27,1-.5,1.69-.39,1.19-.47,1.42-.3.78-.68,1.68-.77,1.75-1.19,2.55a12.54,12.54,0,0,1-1.19,1.92,7.67,7.67,0,0,1-1,1.1,2.87,2.87,0,0,1-.88.54,3.14,3.14,0,0,1-.85.22,2.78,2.78,0,0,1-1.63-.44,9.21,9.21,0,0,1-1.79-1.47,18.39,18.39,0,0,1-1.76-2.11c-.56-.77-1-1.46-1.41-2.07s-.69-1.13-.93-1.56-.58-1.07-1-1.92a6.75,6.75,0,0,1-.73-2.29,1.47,1.47,0,0,1,.64-1.46l2.47-1.86.1.58.15.69a19.46,19.46,0,0,0,.74,2.59,19,19,0,0,0,.74,1.79c.23.49.49,1,.76,1.45l0,.08.43.65A20.72,20.72,0,0,0,85,12.8a2.6,2.6,0,0,0,2.13,1.07,2,2,0,0,0,1.54-1.25,11,11,0,0,0,.91-2.15,10.82,10.82,0,0,0,.37-1.87A12.72,12.72,0,0,0,90,7c0-.44-.05-.94-.1-1.5l-.07-.71-.11-.94,0-.15,0-.53.91-.65.89-.65,1-.77Z"/><path class="cls-1" d="M85.77,17.27a3,3,0,0,1-1.52-.47,9,9,0,0,1-1.83-1.5,19.74,19.74,0,0,1-1.78-2.12c-.55-.77-1-1.47-1.41-2.08s-.69-1.13-.94-1.57-.58-1.08-1-1.93a6.93,6.93,0,0,1-.75-2.34,1.67,1.67,0,0,1,.71-1.62l2.69-2,.15.84.15.69A21.3,21.3,0,0,0,81,5.72c.26.7.51,1.3.74,1.78s.49,1,.76,1.44l0,.09.42.63a21.2,21.2,0,0,0,2.19,3,2.48,2.48,0,0,0,2,1,1.87,1.87,0,0,0,1.41-1.16,11.07,11.07,0,0,0,.9-2.12,11.44,11.44,0,0,0,.36-1.84,12.26,12.26,0,0,0,.07-1.53c0-.44,0-.94-.1-1.49l-.07-.71-.12-1.09,0-.64,1.87-1.34L93.78,0l0,.92-.06.5c0,.56-.1,1-.16,1.36s-.15.87-.29,1.57S93,5.61,92.86,6s-.27,1-.5,1.7-.39,1.2-.47,1.42-.31.8-.68,1.7S90.43,12.6,90,13.4a14.28,14.28,0,0,1-1.2,1.94,8.65,8.65,0,0,1-1,1.12,3.21,3.21,0,0,1-1.82.8Zm-6.06-15L77.46,3.91a1.32,1.32,0,0,0-.57,1.32,6.57,6.57,0,0,0,.71,2.22c.41.85.74,1.49,1,1.92s.56,1,.94,1.55.84,1.3,1.4,2.06a18,18,0,0,0,1.74,2.09,8.86,8.86,0,0,0,1.76,1.44,2.58,2.58,0,0,0,1.53.42,3.23,3.23,0,0,0,.8-.2,2.78,2.78,0,0,0,.83-.52,7.45,7.45,0,0,0,1-1.08,13,13,0,0,0,1.17-1.89c.42-.79.82-1.64,1.19-2.53s.6-1.46.67-1.68.24-.69.47-1.41.4-1.28.49-1.68.22-1,.36-1.66.24-1.22.29-1.56a13.13,13.13,0,0,0,.15-1.34L93.41.7l-2.72,2-.83.6,0,.59.18,1.65c.06.55.09,1.06.1,1.51a12.69,12.69,0,0,1-.06,1.57,10.83,10.83,0,0,1-.38,1.9,11.09,11.09,0,0,1-.92,2.19A2.18,2.18,0,0,1,87.14,14a2.73,2.73,0,0,1-2.27-1.12,21,21,0,0,1-2.23-3.07l-.45-.68,0-.08c-.26-.45-.52-.94-.75-1.44s-.49-1.1-.75-1.8a21.51,21.51,0,0,1-.74-2.61Z"/><path class="cls-1" d="M107,12.69a5.87,5.87,0,0,1-.81,1,10.24,10.24,0,0,1-1.16,1,9.47,9.47,0,0,1-.88.63q-.27.16-.81.45a8,8,0,0,1-1.29.53,9.1,9.1,0,0,1-1.6.37,7.74,7.74,0,0,1-1.74,0,5.51,5.51,0,0,1-1.69-.41,3.69,3.69,0,0,1-1.16-.75,4.55,4.55,0,0,1-.56-.69.73.73,0,0,1-.13-.48,1.16,1.16,0,0,1,.6-.78,16,16,0,0,1,1.92-1.08l.72-.34a3.29,3.29,0,0,0,1,1.72,2.86,2.86,0,0,0,1.72.92,1.26,1.26,0,0,0,.36.07,2.64,2.64,0,0,0,1.82-.42,1.85,1.85,0,0,0,.8-1.38,3.51,3.51,0,0,0-.08-.67,1.92,1.92,0,0,0-.52-1,5.47,5.47,0,0,0-1.48-.95l-.46-.19L97.88,8.9a3.77,3.77,0,0,1-.48-.26,10.5,10.5,0,0,1-.8-.71,2,2,0,0,1-.47-1.66A3.51,3.51,0,0,1,97,4.36a5.88,5.88,0,0,1,1.81-1.45c.67-.34,1.1-.54,1.29-.62s.7-.24,1.54-.48a7.31,7.31,0,0,1,2.71-.23,4,4,0,0,1,2.14.71q.76.6.72,1.08a.48.48,0,0,1-.25.41l-.77.38L104.4,5l-.23-.39a3.14,3.14,0,0,0-2.31-1.48c-.1,0-.42,0-1,0a1.33,1.33,0,0,0-1.14.71,3.24,3.24,0,0,0-.35,1A1.52,1.52,0,0,0,99.87,6a6,6,0,0,0,1.7,1.14l.16,0L105,8.39q2.73,1,2.55,2.94A3.15,3.15,0,0,1,107,12.69Z"/><path class="cls-1" d="M99.46,16.9q-.36,0-.72,0A5.77,5.77,0,0,1,97,16.45a3.69,3.69,0,0,1-1.22-.8,4.48,4.48,0,0,1-.59-.71,1,1,0,0,1-.15-.58,1.35,1.35,0,0,1,.68-.91,16.34,16.34,0,0,1,1.94-1.09l.91-.44,0,.22a3.22,3.22,0,0,0,1,1.63,2.73,2.73,0,0,0,1.61.87h0a1,1,0,0,0,.31.06,2.49,2.49,0,0,0,1.71-.39,1.62,1.62,0,0,0,.73-1.25,2.62,2.62,0,0,0-.08-.63,1.65,1.65,0,0,0-.47-.89,5.25,5.25,0,0,0-1.43-.92l-.45-.18L97.83,9.06a2.39,2.39,0,0,1-.52-.29,7.31,7.31,0,0,1-.83-.72A2.13,2.13,0,0,1,96,6.25a3.56,3.56,0,0,1,.92-2,6.12,6.12,0,0,1,1.87-1.49c.68-.34,1.1-.55,1.29-.62s.7-.24,1.56-.49a7.48,7.48,0,0,1,2.78-.24,4.09,4.09,0,0,1,2.22.75c.57.43.83.84.79,1.23a.66.66,0,0,1-.33.53l-.78.39-2,.85-.3-.51a3,3,0,0,0-2.18-1.4,5.94,5.94,0,0,0-.93,0,1.13,1.13,0,0,0-1,.62,3,3,0,0,0-.34.92,1.36,1.36,0,0,0,.42,1A5.43,5.43,0,0,0,101.64,7l.15,0L105,8.23c1.89.69,2.78,1.74,2.66,3.12a3.44,3.44,0,0,1-.49,1.43h0a5.7,5.7,0,0,1-.83,1,11.76,11.76,0,0,1-1.18,1,10.27,10.27,0,0,1-.9.64c-.17.11-.44.25-.81.45a8.38,8.38,0,0,1-1.32.54,9.33,9.33,0,0,1-1.62.37A7.45,7.45,0,0,1,99.46,16.9Zm-1.13-4.49-.53.25a18.06,18.06,0,0,0-1.89,1.06c-.34.24-.52.46-.53.66a.59.59,0,0,0,.1.39,4.83,4.83,0,0,0,.54.65,3.55,3.55,0,0,0,1.11.72,5.13,5.13,0,0,0,1.64.39,7.4,7.4,0,0,0,1.7,0,9.13,9.13,0,0,0,1.56-.36,7.4,7.4,0,0,0,1.27-.52c.37-.19.63-.33.8-.44s.46-.31.87-.62a10.94,10.94,0,0,0,1.14-1,6,6,0,0,0,.79-1,3.11,3.11,0,0,0,.44-1.28c.1-1.23-.69-2.13-2.44-2.77L101.51,7.3a5.84,5.84,0,0,1-1.76-1.18,1.71,1.71,0,0,1-.5-1.31,3,3,0,0,1,.37-1,1.48,1.48,0,0,1,1.27-.8,6.16,6.16,0,0,1,1-.06,3.32,3.32,0,0,1,2.43,1.56l.15.26L106.15,4l.76-.38a.33.33,0,0,0,.16-.27c0-.26-.21-.59-.66-.94a4,4,0,0,0-2-.68A7.48,7.48,0,0,0,101.7,2c-.83.24-1.34.4-1.52.48s-.61.28-1.27.61a5.71,5.71,0,0,0-1.76,1.41,3.26,3.26,0,0,0-.85,1.81,1.81,1.81,0,0,0,.42,1.53,10.06,10.06,0,0,0,.78.69,2.85,2.85,0,0,0,.45.25l3.73,1.38.46.2a5.16,5.16,0,0,1,1.54,1,2,2,0,0,1,.56,1.06,3.72,3.72,0,0,1,.09.72,2,2,0,0,1-.88,1.5,2.82,2.82,0,0,1-1.93.45,1.46,1.46,0,0,1-.38-.08,3,3,0,0,1-1.79-1A3.64,3.64,0,0,1,98.33,12.41Z"/><path class="cls-1" d="M126.23,20.08l-.9.32a21.52,21.52,0,0,1-2.15.71,11.11,11.11,0,0,1-1.7.23,7.1,7.1,0,0,1-1-.26l-.29-.09a10,10,0,0,0-1-.49,5.89,5.89,0,0,1-2-1.81,6.84,6.84,0,0,1-1.42-2.77,14.75,14.75,0,0,1-.32-2.07,8.06,8.06,0,0,1,0-1.47,8.19,8.19,0,0,1,.37-1.59,6.39,6.39,0,0,1,.83-1.65,6.84,6.84,0,0,1,1.12-1.29c.4-.34.7-.61.92-.81a7.4,7.4,0,0,0,.68-.42,5.37,5.37,0,0,1,1-.51,15.8,15.8,0,0,1,1.88-.6,10.42,10.42,0,0,1,2.82-.32,9,9,0,0,1,2.75.4,5.75,5.75,0,0,1,1.5.69,2.26,2.26,0,0,1,.72.77.9.9,0,0,1,.13.67.82.82,0,0,1-.44.44l-1,.38c-.45.18-.84.31-1.17.42l-.77.21a3,3,0,0,0-1-1.48,4.75,4.75,0,0,0-1.63-1,2.94,2.94,0,0,0-2.38.16,3.27,3.27,0,0,0-1.53,1.41c-.26.56-.41.89-.45,1l-.09.27a10.5,10.5,0,0,0-.29,1.12,20.58,20.58,0,0,0-.11,3,4.72,4.72,0,0,0,1.9,3.82,11.11,11.11,0,0,0,3.06,1.91,6.33,6.33,0,0,0,1.88.32Z"/><path class="cls-1" d="M121.47,21.5h0a7.36,7.36,0,0,1-1-.26l-.33-.11a11.29,11.29,0,0,0-1-.48A6.13,6.13,0,0,1,117,18.79,7,7,0,0,1,115.59,16a15.37,15.37,0,0,1-.33-2.1,9.44,9.44,0,0,1,0-1.5,8.52,8.52,0,0,1,.38-1.62,6.6,6.6,0,0,1,.85-1.7,6.78,6.78,0,0,1,1.15-1.31l.91-.81,0,0,.68-.42a5.35,5.35,0,0,1,1-.53,17.43,17.43,0,0,1,1.89-.6A10.44,10.44,0,0,1,125.1,5a9.24,9.24,0,0,1,2.8.41,6.53,6.53,0,0,1,1.55.71,2.49,2.49,0,0,1,.77.83,1,1,0,0,1,.14.8,1,1,0,0,1-.53.54l-1,.39c-.45.17-.84.31-1.18.42l-.93.26-.05-.16a2.86,2.86,0,0,0-1-1.4,4.89,4.89,0,0,0-1.57-1,2.82,2.82,0,0,0-2.26.16,3,3,0,0,0-1.45,1.34c-.32.67-.41.9-.44,1l-.09.27a9.2,9.2,0,0,0-.28,1.1,18.65,18.65,0,0,0-.11,2.93,4.6,4.6,0,0,0,1.84,3.69,10.71,10.71,0,0,0,3,1.88,6.25,6.25,0,0,0,1.82.31h.13l.16.65-1,.37a20.72,20.72,0,0,1-2.17.71,9.3,9.3,0,0,1-1.73.23Zm-1.19-.67.27.09a6.54,6.54,0,0,0,.94.25,9.37,9.37,0,0,0,1.65-.23,20.29,20.29,0,0,0,2.13-.69L126,20l0-.11a6.52,6.52,0,0,1-1.8-.32,11.18,11.18,0,0,1-3.11-1.94,4.89,4.89,0,0,1-2-4,19.19,19.19,0,0,1,.12-3c.09-.43.19-.82.29-1.14l.09-.26a11,11,0,0,1,.46-1,3.39,3.39,0,0,1,1.6-1.49,3.09,3.09,0,0,1,2.51-.17,5.15,5.15,0,0,1,1.69,1,3.38,3.38,0,0,1,1,1.41l.6-.17c.33-.1.72-.24,1.15-.41s.8-.3,1-.39a.65.65,0,0,0,.35-.34.79.79,0,0,0-.13-.53,2,2,0,0,0-.67-.71,5.78,5.78,0,0,0-1.46-.67,8.6,8.6,0,0,0-2.7-.39,10.16,10.16,0,0,0-2.77.31,19,19,0,0,0-1.85.59,5.37,5.37,0,0,0-1,.49c-.23.16-.46.3-.69.43l-.9.8a7.22,7.22,0,0,0-1.1,1.25,6.44,6.44,0,0,0-.8,1.62,7.69,7.69,0,0,0-.37,1.55,8.69,8.69,0,0,0,0,1.44,13.21,13.21,0,0,0,.32,2.05,6.58,6.58,0,0,0,1.38,2.69,5.76,5.76,0,0,0,1.93,1.76C119.79,20.59,120.14,20.75,120.28,20.83Z"/><path class="cls-1" d="M143,21.43c-.05.1-.1.22-.16.33l-.17.32a7.9,7.9,0,0,1-4,3.42l-.83.32-1,.27c-.24.06-.73.14-1.49.25a8.48,8.48,0,0,1-2.25,0,6.17,6.17,0,0,1-2.17-.72q-2.31-1.26-2.55-2.76c-.16-1-.24-1.55-.25-1.67s0-.37,0-.77a4.71,4.71,0,0,1,.29-1.59A9.69,9.69,0,0,1,129,17.3a4.58,4.58,0,0,1,1.39-1.5,7.3,7.3,0,0,1,1.85-.93,10.19,10.19,0,0,1,2.19-.44h.35l.23.47A4.67,4.67,0,0,0,132.71,17a5.16,5.16,0,0,0-.68,2,13.47,13.47,0,0,0-.06,1.36c0,.28.06.67.13,1.19a4.76,4.76,0,0,0,.46,1.49,4.74,4.74,0,0,0,.73,1.16,3.31,3.31,0,0,0,.82.67,2.66,2.66,0,0,0,1.57.32,3,3,0,0,0,1.57-.74,6.14,6.14,0,0,0,1.42-1.84,4.13,4.13,0,0,0,.26-.52c.06-.13.17-.4.33-.82a6.78,6.78,0,0,0,.35-1.21,8.34,8.34,0,0,0,.11-1.56,6.77,6.77,0,0,0-.33-2A4.29,4.29,0,0,0,138.6,15a7.16,7.16,0,0,0-.72-.79,3.29,3.29,0,0,0-.6-.41,6.76,6.76,0,0,0-.85-.38l-.84-.3-.33-.1,0-.51,1,0c.24,0,.5,0,.79,0l1.49.08a4.57,4.57,0,0,1,1.94.54,9.44,9.44,0,0,1,1.07.76,9.92,9.92,0,0,1,1.75,2.41Q144.34,18.18,143,21.43Z"/><path class="cls-1" d="M134.09,26.59a7.45,7.45,0,0,1-1.06-.07,6.22,6.22,0,0,1-2.23-.73c-1.58-.87-2.47-1.84-2.63-2.88-.11-.68-.24-1.53-.26-1.68s0-.4,0-.79a5.3,5.3,0,0,1,.3-1.64,9.55,9.55,0,0,1,.63-1.58,4.63,4.63,0,0,1,1.45-1.55,6.89,6.89,0,0,1,1.89-1,10.43,10.43,0,0,1,2.23-.45h.46l.36.72L135,15a4.65,4.65,0,0,0-2.18,2.05,5.17,5.17,0,0,0-.65,2,13.09,13.09,0,0,0-.06,1.35c0,.26.06.65.13,1.16a4.57,4.57,0,0,0,.44,1.45,4.42,4.42,0,0,0,.71,1.12,2.85,2.85,0,0,0,.78.63,2.36,2.36,0,0,0,1.46.3,2.86,2.86,0,0,0,1.49-.7,6.1,6.1,0,0,0,1.38-1.79c.11-.2.19-.37.25-.5l.32-.82a6.59,6.59,0,0,0,.35-1.19,7.88,7.88,0,0,0,.1-1.52,6.12,6.12,0,0,0-.32-1.91,4.37,4.37,0,0,0-.75-1.5,7.72,7.72,0,0,0-.71-.77,3.16,3.16,0,0,0-.57-.39,5.88,5.88,0,0,0-.83-.37l-.83-.3-.44-.14-.06-.8,1.17,0a6.7,6.7,0,0,1,.8,0l1.49.08a4.92,4.92,0,0,1,2,.57,8.5,8.5,0,0,1,1.1.77,9.9,9.9,0,0,1,1.78,2.46c.76,1.29.67,3.07-.27,5.28a2.72,2.72,0,0,1-.16.35l-.16.29a8,8,0,0,1-4.14,3.52l-.84.33-1,.27c-.24.06-.74.15-1.51.25A8.48,8.48,0,0,1,134.09,26.59Zm.54-12h-.24a10.55,10.55,0,0,0-2.15.44,6.93,6.93,0,0,0-1.8.91,4.24,4.24,0,0,0-1.34,1.44,8.79,8.79,0,0,0-.61,1.52,4.61,4.61,0,0,0-.28,1.53c0,.37,0,.65,0,.77s0,.37.26,1.65c.14.94,1,1.83,2.46,2.64a5.78,5.78,0,0,0,2.11.7,8.11,8.11,0,0,0,2.2,0c.75-.1,1.25-.19,1.48-.24l1-.27.82-.32a7.71,7.71,0,0,0,4-3.34l.17-.32a2.89,2.89,0,0,0,.15-.31h0c.9-2.11,1-3.78.29-5A10,10,0,0,0,141.4,14a7.85,7.85,0,0,0-1.05-.74,4.43,4.43,0,0,0-1.87-.52L137,12.67a6.47,6.47,0,0,0-.77,0l-.82,0,0,.22.22.07.85.31a5.84,5.84,0,0,1,.87.38,3.49,3.49,0,0,1,.63.44,6.36,6.36,0,0,1,.74.8,4.72,4.72,0,0,1,.82,1.62,6.78,6.78,0,0,1,.34,2,8.63,8.63,0,0,1-.11,1.59,8.46,8.46,0,0,1-.36,1.24c-.17.42-.28.69-.33.83a5.37,5.37,0,0,1-.27.53,6.48,6.48,0,0,1-1.46,1.89,3.15,3.15,0,0,1-1.66.77,2.76,2.76,0,0,1-1.67-.33,3.49,3.49,0,0,1-.86-.71,4.88,4.88,0,0,1-.77-1.2,5.82,5.82,0,0,1-.47-1.54c-.07-.53-.11-.92-.12-1.2a9.44,9.44,0,0,1,.06-1.38,5.31,5.31,0,0,1,.69-2.11,4.85,4.85,0,0,1,2.18-2.12Z"/><path class="cls-1" d="M150.16,35l-1.16.13q-.75.08-1.38.18c-.43.07-.94.17-1.52.29l-5.32-4.14-.65-.46.74-.91.67-.86.74-1,1.16-1.48q.62-.8,1.11-1.47c.32-.45.65-.91,1-1.37a17.75,17.75,0,0,0,1.07-1.47c.15-.32.31-.63.46-.93a3.2,3.2,0,0,0,.3-.75.4.4,0,0,0-.13-.45,1.14,1.14,0,0,0-.55-.18l-.12,0,.1-.44.7-.05a15.21,15.21,0,0,1,2.16,0,5,5,0,0,1,1.17.19,1.85,1.85,0,0,1,.51.22c.36.28.4.68.1,1.18a21.86,21.86,0,0,1-1.39,2q-.93,1.25-3.41,4.42l-.14.17-2.22,3c.47.37,1.24.91,2.31,1.64s1.91,1.33,2.54,1.82Z"/><path class="cls-1" d="M146.05,35.77l-5.37-4.19-.8-.56.86-1.05,2.56-3.29c.4-.52.78-1,1.11-1.47s.66-.91,1-1.37a15.14,15.14,0,0,0,1.05-1.46l.47-.92a3.63,3.63,0,0,0,.28-.71.24.24,0,0,0-.08-.28.89.89,0,0,0-.46-.14l-.31,0,.17-.74.82-.07a15.76,15.76,0,0,1,2.2-.05,5.25,5.25,0,0,1,1.2.2,1.66,1.66,0,0,1,.56.25c.3.23.57.66.14,1.4a19.93,19.93,0,0,1-1.39,2c-.63.82-1.74,2.27-3.42,4.42l-.13.17-2.13,2.85c.48.37,1.21.88,2.17,1.54s1.93,1.34,2.56,1.83l1.54,1-1.63.18-1.38.18c-.42.07-.93.17-1.51.29ZM140.37,31l.51.35,5.26,4.1c.55-.12,1-.21,1.45-.28S148.48,35,149,35l.69-.08-.76-.49c-.63-.49-1.49-1.1-2.55-1.83s-1.84-1.27-2.31-1.64l-.13-.1,2.45-3.3c1.68-2.14,2.8-3.59,3.42-4.41a21.13,21.13,0,0,0,1.37-2c.34-.57.13-.83,0-1a1.79,1.79,0,0,0-.46-.19,5.41,5.41,0,0,0-1.13-.18,14.93,14.93,0,0,0-2.14.05l-.58,0,0,.14a1.26,1.26,0,0,1,.57.21.57.57,0,0,1,.2.61,3.25,3.25,0,0,1-.32.79l-.46.93a16.69,16.69,0,0,1-1.08,1.5l-1,1.36c-.33.47-.71,1-1.11,1.48L141,30.18Z"/><path class="cls-1" d="M158.24,43.49l-1.17,0c-.5,0-1,0-1.4,0s-.94,0-1.54.08l-4.68-4.85-.59-.55.87-.8.78-.75.88-.85,1.35-1.3c.48-.47.92-.9,1.3-1.3s.78-.8,1.18-1.21a17.68,17.68,0,0,0,1.26-1.31c.2-.29.4-.57.59-.86a3.24,3.24,0,0,0,.41-.7.4.4,0,0,0-.08-.46,1.1,1.1,0,0,0-.51-.25l-.12,0,.16-.42.7.05a15.41,15.41,0,0,1,2.15.25,5.28,5.28,0,0,1,1.13.35,1.85,1.85,0,0,1,.47.29c.32.33.3.73-.06,1.19a22.24,22.24,0,0,1-1.66,1.79q-1.11,1.1-4,3.89l-.16.15-2.62,2.65c.41.43,1.1,1.08,2.05,2s1.71,1.59,2.26,2.16Z"/><path class="cls-1" d="M154.06,43.69l-4.73-4.91-.71-.66,1-.92,3-2.9c.47-.45.91-.89,1.3-1.3s.78-.8,1.18-1.21a17.81,17.81,0,0,0,1.25-1.29l.59-.85a2.84,2.84,0,0,0,.38-.67.25.25,0,0,0,0-.29,1,1,0,0,0-.43-.2l-.3-.08.27-.71.82.05a15.66,15.66,0,0,1,2.18.26,5,5,0,0,1,1.16.36,1.78,1.78,0,0,1,.52.33c.27.27.47.74-.05,1.4a20.78,20.78,0,0,1-1.67,1.81c-.73.72-2.08,2-4,3.89l-.15.15-2.51,2.53c.42.42,1.07,1,1.93,1.82s1.72,1.6,2.28,2.18l1.38,1.19-1.64,0c-.49,0-1,0-1.38,0s-1,0-1.54.08Zm-4.95-5.57.45.42,4.63,4.81c.57,0,1.06-.07,1.48-.07s.9,0,1.4,0l.7,0-.69-.59c-.56-.58-1.31-1.31-2.26-2.17s-1.64-1.52-2.06-2l-.12-.11,2.9-2.92c1.93-1.86,3.27-3.17,4-3.89a24.19,24.19,0,0,0,1.65-1.77c.4-.52.24-.8.07-1a1.91,1.91,0,0,0-.42-.26,5.83,5.83,0,0,0-1.09-.33,14.78,14.78,0,0,0-2.13-.26l-.58,0,0,.13a1.1,1.1,0,0,1,.53.28.56.56,0,0,1,.11.64,3.08,3.08,0,0,1-.42.74c-.2.28-.39.57-.59.86A18.43,18.43,0,0,1,155.34,32c-.4.4-.8.81-1.18,1.21s-.83.85-1.31,1.3l-3,2.9Z"/><path class="cls-1" d="M165.16,53.69l-1.37-.11-1.56-.21-.69-.14-.72-1c-.82-1.15-1.47-2.1-2-2.84l-1.4-2.14-.3-.34-.44-.45.78-.48.63-.4,1.8-1.28,1.62-1.15.66-.47-1.66-2.27a13.45,13.45,0,0,0,3.61.89l3-2.17-1.6-2.25,1.05.38,1.44.41a8.16,8.16,0,0,0,1.11.23c.21.37.49.83.85,1.36s.57.84.62.91c.31.44.89,1.22,1.73,2.34s1.36,1.8,1.55,2.07L175,45.82l-.54-.09a14,14,0,0,1-3.08-.63,6.87,6.87,0,0,1-1.65-1.84l-1.22-1.58L166,43.5c.55.77,1.1,1.54,1.65,2.29l1.68,2.28a10.37,10.37,0,0,1-1.73-.11,4,4,0,0,1-1.69-.57,7.49,7.49,0,0,1-1.59-1.75l-.38-.54v-.16l-.71.53-1.25.93-1.12.88-.12,0-.16.12,1.67,2.35c.69,1,1.08,1.52,1.18,1.66l.83,1.17Z"/><path class="cls-1" d="M165.56,53.88l-.41,0c-.48,0-.94-.06-1.37-.11s-1-.11-1.58-.2l-.76-.16-.76-1.07c-.8-1.14-1.47-2.1-2-2.85l-1.4-2.14L157,47l-.58-.6,1-.58.62-.4,3.93-2.8-1.9-2.6.54.22a13.49,13.49,0,0,0,3.5.86l2.86-2-1.82-2.55,1.56.56,1.42.41a8.49,8.49,0,0,0,1.1.22h.08l0,.08c.21.37.49.83.84,1.35l.61.9c.32.44.88,1.21,1.74,2.34s1.37,1.81,1.55,2.07l1.33,1.6-1-.16a14.14,14.14,0,0,1-3.13-.65,6.85,6.85,0,0,1-1.7-1.9l-1.12-1.44-2.3,1.63c.52.73,1,1.44,1.56,2.16l1.86,2.53h-.32a10.6,10.6,0,0,1-1.75-.11,4.2,4.2,0,0,1-1.76-.6,7.31,7.31,0,0,1-1.63-1.8l-.36-.5-.51.38c-.45.32-.86.63-1.24.92l-1.16.9-.12.06,3.59,5Zm-3.92-.8.62.13c.6.09,1.12.15,1.55.2l.95.08-.68-.75-3.79-5.33.29-.21.13-.06,1.11-.87c.38-.3.81-.61,1.26-.93l1-.72,0,.42.35.5A7.38,7.38,0,0,0,166,47.25a3.82,3.82,0,0,0,1.62.54,12.9,12.9,0,0,0,1.38.12l-1.48-2c-.56-.75-1.11-1.52-1.66-2.29l-.1-.14,2.84-2,1.32,1.7a6.48,6.48,0,0,0,1.58,1.8,14.17,14.17,0,0,0,3,.62h.11l-.76-.91c-.19-.27-.68-.92-1.56-2.08s-1.43-1.9-1.74-2.34l-.62-.91c-.33-.5-.61-.94-.81-1.31-.42-.06-.77-.14-1.06-.21l-1.43-.42-.56-.2,1.39,1.95-3.24,2.3h-.06a13.69,13.69,0,0,1-3.12-.69l1.43,2-4.22,3-.64.4-.61.37.3.3.31.35L159,49.28c.49.75,1.15,1.7,2,2.84Z"/><path class="cls-1" d="M175.26,64.45a3.64,3.64,0,0,1-.69.45,3.38,3.38,0,0,1-1.88.32c-.67-.08-1.17-.16-1.52-.24a7.39,7.39,0,0,1-1.24-.43c-.47-.2-.79-.34-1-.43s-.41-.25-.75-.48l-.38-.25-.33-.24A5.75,5.75,0,0,1,165.65,61a4.61,4.61,0,0,1-.27-3.88,16.36,16.36,0,0,1,1.42-2.83,7,7,0,0,1,2.2-2,9.94,9.94,0,0,1,3.07-1,6.27,6.27,0,0,1,2.64.25,9.17,9.17,0,0,1,2,.9c.52.32,1,.66,1.54,1a6.13,6.13,0,0,1,1.29,1.25,12.82,12.82,0,0,1,.83,1.21c.2.32.35.6.46.82.25.68.42,1.17.49,1.46a2,2,0,0,1,0,.85.74.74,0,0,1-.41.56.73.73,0,0,1-.71-.05l-1.8-1.11-.53-.36a3.61,3.61,0,0,0,.22-.64,7.69,7.69,0,0,0,.19-1.09,2.76,2.76,0,0,0-.32-1.53,2.69,2.69,0,0,0-1.35-1.31,3.2,3.2,0,0,0-1.88-.25,6.5,6.5,0,0,0-1.86.58,9.12,9.12,0,0,0-.91.51,8.62,8.62,0,0,0-1,.75l-.6.52-1,1.12a4.66,4.66,0,0,0-1,2.7,6.59,6.59,0,0,0,0,2.2,5.72,5.72,0,0,0,.29.79,1.78,1.78,0,0,0,1.06,1,2,2,0,0,0,1.52-.18,3.6,3.6,0,0,0,.55-.34l.39-.36a3.24,3.24,0,0,0,.89-2.84l-.05-.24.72.35a2.73,2.73,0,0,1,.45.2l.86.49a2.39,2.39,0,0,1,1,1.07C176.57,62.63,176.29,63.55,175.26,64.45Z"/><path class="cls-1" d="M173.09,65.41l-.42,0a13,13,0,0,1-1.54-.25,7.54,7.54,0,0,1-1.26-.43c-.47-.2-.8-.35-1-.44s-.42-.26-.76-.5l-.38-.24-.34-.25a6,6,0,0,1-1.92-2.18,4.8,4.8,0,0,1-.27-4,15.87,15.87,0,0,1,1.44-2.85,7,7,0,0,1,2.24-2,9.93,9.93,0,0,1,3.14-1,6.28,6.28,0,0,1,2.71.25,9.55,9.55,0,0,1,2.08.91c.52.33,1,.68,1.54,1a6,6,0,0,1,1.33,1.29c.36.48.65.89.85,1.22s.35.61.46.83a14.74,14.74,0,0,1,.5,1.5,2.21,2.21,0,0,1,0,.92.91.91,0,0,1-.49.68.93.93,0,0,1-.88-.06l-1.8-1.11-.66-.44.07-.13a4.41,4.41,0,0,0,.21-.62,8.77,8.77,0,0,0,.19-1.06,2.73,2.73,0,0,0-.31-1.44,2.55,2.55,0,0,0-1.26-1.23,3.09,3.09,0,0,0-1.8-.24,6.26,6.26,0,0,0-1.81.57,8.74,8.74,0,0,0-.89.5,9.68,9.68,0,0,0-1,.74l-.59.51s-.14.15-.95,1.11a4.58,4.58,0,0,0-1,2.6,6.58,6.58,0,0,0,0,2.14c.15.46.24.67.28.77a1.64,1.64,0,0,0,1,.89,1.84,1.84,0,0,0,1.39-.17,4.67,4.67,0,0,0,.53-.32l.38-.35a3,3,0,0,0,.83-2.7l-.1-.55,1,.49a2.23,2.23,0,0,1,.46.21c.18.09.46.25.86.48a2.56,2.56,0,0,1,1,1.15c.5,1,.2,2-.89,3h0a4.13,4.13,0,0,1-.72.47A3.5,3.5,0,0,1,173.09,65.41Zm-.24-13.9a6.56,6.56,0,0,0-.76,0,9.86,9.86,0,0,0-3,1,7.07,7.07,0,0,0-2.13,1.89,16.42,16.42,0,0,0-1.4,2.8,4.47,4.47,0,0,0,.27,3.75A5.55,5.55,0,0,0,167.62,63l.33.24.38.24a7,7,0,0,0,.73.48c.16.09.48.23.94.43a9.78,9.78,0,0,0,1.2.42,13.45,13.45,0,0,0,1.51.23,3.23,3.23,0,0,0,1.79-.3,3.61,3.61,0,0,0,.65-.43c1-.85,1.24-1.69.81-2.57a2.22,2.22,0,0,0-.89-1l-.84-.48a3.65,3.65,0,0,0-.44-.19l-.44-.22a3.37,3.37,0,0,1-.94,2.91l-.4.37a3.75,3.75,0,0,1-.59.36,2.15,2.15,0,0,1-1.64.19,1.94,1.94,0,0,1-1.16-1.06c-.07-.16-.17-.43-.3-.82a6.67,6.67,0,0,1,0-2.27,4.87,4.87,0,0,1,1.09-2.79c.9-1.07.95-1.12,1-1.14l.6-.52a8.87,8.87,0,0,1,1-.76,8.48,8.48,0,0,1,.93-.52,6.8,6.8,0,0,1,1.9-.6,3.43,3.43,0,0,1,2,.26,2.87,2.87,0,0,1,1.43,1.4,2.9,2.9,0,0,1,.34,1.62,7.84,7.84,0,0,1-.2,1.11,3.86,3.86,0,0,1-.17.54l.41.28,1.79,1.1a.57.57,0,0,0,.56.05.55.55,0,0,0,.31-.44,1.73,1.73,0,0,0,0-.78,13.57,13.57,0,0,0-.48-1.45,8.21,8.21,0,0,0-.44-.78,14.35,14.35,0,0,0-.83-1.2,5.79,5.79,0,0,0-1.25-1.22c-.5-.35-1-.7-1.53-1a8.82,8.82,0,0,0-2-.88A5.76,5.76,0,0,0,172.85,51.51Z"/><path class="cls-1" d="M175.11,79.05c-.45-.18-.87-.37-1.26-.55s-.86-.41-1.41-.7l-.61-.35-.35-1.2c-.4-1.36-.72-2.47-.94-3.33l-.63-2.47-.17-.42-.28-.57.9-.2.73-.17,2.11-.63,1.91-.57.77-.23L175.05,65a13.07,13.07,0,0,0,3.12,2l3.58-1.06L181,63.27l.87.7c.57.4,1,.69,1.23.86a10.4,10.4,0,0,0,1,.57c.07.42.19.95.36,1.57s.26,1,.29,1c.15.52.45,1.45.88,2.78s.71,2.14.8,2.46l.59,1.53-.49-.26a13.62,13.62,0,0,1-2.71-1.6,6.78,6.78,0,0,1-1-2.27l-.65-1.89-3,.9c.27.9.54,1.81.82,2.7s.56,1.8.85,2.7a10.92,10.92,0,0,1-1.6-.67,3.84,3.84,0,0,1-1.41-1.09,7.14,7.14,0,0,1-.94-2.16l-.18-.64,0-.15-.84.28c-.53.15-1,.31-1.49.47l-1.35.46-.13,0-.18,0c.21.72.48,1.64.82,2.77s.53,1.78.57,2l.41,1.38Z"/><path class="cls-1" d="M175.42,79.36,175,79.2l-1.26-.54c-.4-.19-.88-.43-1.42-.71l-.67-.39-.37-1.26c-.4-1.34-.71-2.46-.94-3.33l-.63-2.48-.17-.4-.36-.75,1.11-.24.72-.18,4.62-1.37-1-3.08.44.38a13.12,13.12,0,0,0,3,2l3.36-1-.9-3,1.3,1,1.21.85a8.46,8.46,0,0,0,1,.56l.07,0v.08c.08.41.2.94.36,1.55s.26,1,.29,1c.15.53.45,1.46.88,2.77s.71,2.15.8,2.47l.74,1.94-.88-.47a14.15,14.15,0,0,1-2.75-1.63,6.66,6.66,0,0,1-1-2.34L182.06,69l-2.7.8c.25.85.51,1.7.77,2.54l.94,3-.3-.09a11,11,0,0,1-1.62-.67,4.11,4.11,0,0,1-1.47-1.14,7.25,7.25,0,0,1-1-2.23l-.17-.59-.6.2c-.54.15-1,.31-1.48.47l-1.39.47-.13,0,1.76,5.93Zm-3.45-2,.55.33c.53.27,1,.51,1.4.69l.87.39-.4-.94-1.86-6.27.35-.1.13,0,1.34-.46c.45-.16,1-.32,1.49-.48l1.14-.36-.12.4.18.59a7,7,0,0,0,.9,2.11,3.7,3.7,0,0,0,1.35,1,13.56,13.56,0,0,0,1.27.56l-.75-2.39c-.28-.89-.55-1.8-.82-2.7l-.05-.17,3.33-1,.7,2a6.2,6.2,0,0,0,.92,2.21,14.4,14.4,0,0,0,2.67,1.56l.09.05-.43-1.11c-.1-.33-.36-1.16-.79-2.47s-.74-2.25-.9-2.78c0-.08-.12-.44-.28-1.06s-.28-1.09-.35-1.5c-.37-.2-.69-.38-.93-.54l-1.22-.86-.47-.38L182,66l-3.8,1.13-.06,0a13.37,13.37,0,0,1-2.73-1.66l.73,2.3-5,1.48-.73.18-.69.15.18.38.18.42c.2.82.41,1.64.64,2.5s.53,2,.93,3.32Z"/><path class="cls-1" d="M18.66,128.2l-2-1.19a2.19,2.19,0,0,1-.62-.73,3.9,3.9,0,0,1-.24-.56,7.54,7.54,0,0,1-.25-.76l-.28-1-1.82.48c-1,.29-2,.58-2.83.85s-1.71.59-2.59.93a23.21,23.21,0,0,0-2.52-2.18l.94-.16,8.18-2.33c-.14-.48-.29-1.19-.47-2.15s-.33-1.67-.46-2.12a19.28,19.28,0,0,1,1.95,1.42l.22.2.24.19.37,1.75c.2.73.57,1.92,1.09,3.6S18.43,127.39,18.66,128.2Z"/><path class="cls-1" d="M19,128.6l-2.44-1.43a2.15,2.15,0,0,1-.69-.79,4.89,4.89,0,0,1-.26-.59c-.09-.23-.17-.49-.26-.78l-.22-.78-1.64.43c-1,.29-2,.58-2.82.85s-1.7.58-2.58.93l-.12,0-.09-.09a21.81,21.81,0,0,0-2.49-2.16L5,124l1.37-.23,8-2.28c-.13-.48-.27-1.14-.43-2s-.33-1.66-.45-2.1l-.14-.48.42.27a19.62,19.62,0,0,1,2,1.43l.23.22.28.22.38,1.81c.2.71.57,1.92,1.09,3.58s.89,2.9,1.13,3.73Zm-3.61-4.83.33,1.14c.08.28.16.53.24.74s.17.41.24.55a1.68,1.68,0,0,0,.55.64l1.62,1c-.23-.81-.57-1.9-1-3.27-.52-1.66-.89-2.87-1.1-3.6l-.35-1.69-.18-.15-.24-.22c-.49-.4-1-.78-1.52-1.13.1.43.22,1,.34,1.66.18.95.34,1.67.47,2.14l.05.18L6.47,124.1l-.53.09A25.37,25.37,0,0,1,8.05,126c.85-.33,1.68-.63,2.48-.89s1.8-.56,2.84-.86Z"/><path class="cls-1" d="M16.48,136.49a3.91,3.91,0,0,1-1.24.9,3.16,3.16,0,0,1-1.53.23,8.48,8.48,0,0,1-2.42-.8,3.86,3.86,0,0,1-2.11-1.94,2.2,2.2,0,0,1,.06-2,5.07,5.07,0,0,1,.9-1.3,3.21,3.21,0,0,1,.85-.56,2.07,2.07,0,0,1,1.2-.17,3.74,3.74,0,0,1,1.24.48c.45.25.75.43.89.53a3.53,3.53,0,0,1,.35.26l-.61,0a3.34,3.34,0,0,0-1.08.23,4.71,4.71,0,0,0-1,.68,2.37,2.37,0,0,0-.75,1.75l0,.35a1.33,1.33,0,0,0,.11.54q.38.88,1.53.54a5,5,0,0,0,.87-.47,4.5,4.5,0,0,0,.85-.88,3.25,3.25,0,0,0,.64-1.44,2.77,2.77,0,0,0-.18-1.56l-.08-.2-.09-.19-.23-.27.24-.16.67.42a4.79,4.79,0,0,1,1.65,1.79,2.27,2.27,0,0,1,.16,1.44,4.29,4.29,0,0,1-.35,1A3.76,3.76,0,0,1,16.48,136.49Z"/><path class="cls-1" d="M14,137.82a1.94,1.94,0,0,1-.34,0,8.16,8.16,0,0,1-2.47-.81A4,4,0,0,1,9,135a2.37,2.37,0,0,1,.06-2.14,5.34,5.34,0,0,1,.94-1.35,3.32,3.32,0,0,1,.9-.59,2.38,2.38,0,0,1,1.31-.19,4.26,4.26,0,0,1,1.3.5c.46.26.76.44.91.55l.36.26.11.09,0-.08-.16-.36-.36-.41.53-.34.77.48a5,5,0,0,1,1.73,1.88,2.47,2.47,0,0,1,.16,1.55,4.13,4.13,0,0,1-.37,1.08,4.1,4.1,0,0,1-.55.73,3.9,3.9,0,0,1-1.31.94A3.25,3.25,0,0,1,14,137.82ZM11.89,131a2,2,0,0,0-.83.19,2.77,2.77,0,0,0-.79.52A4.93,4.93,0,0,0,9.41,133a2,2,0,0,0-.05,1.81,3.67,3.67,0,0,0,2,1.84,8.44,8.44,0,0,0,2.35.78,3,3,0,0,0,1.44-.21,3.71,3.71,0,0,0,1.18-.86h0a3.24,3.24,0,0,0,.5-.65,3.53,3.53,0,0,0,.33-1A2.14,2.14,0,0,0,17,133.4a4.74,4.74,0,0,0-1.59-1.71l-.42-.26,0,.09.15.35a2.86,2.86,0,0,1,.19,1.66,3.32,3.32,0,0,1-.67,1.52,4.37,4.37,0,0,1-.89.92,4.82,4.82,0,0,1-.91.49c-1.1.34-1.57-.16-1.77-.64a1.66,1.66,0,0,1-.13-.61l0-.36a2.63,2.63,0,0,1,.82-1.89,5.62,5.62,0,0,1,1-.71,3.73,3.73,0,0,1,1.14-.24h.1l-.82-.48a3.67,3.67,0,0,0-1.17-.45ZM15,132.32l-.89.07a3.26,3.26,0,0,0-1,.21,5.16,5.16,0,0,0-1,.65,2.27,2.27,0,0,0-.68,1.63l0,.34a1.1,1.1,0,0,0,.09.45c.14.32.42.71,1.3.44a5.2,5.2,0,0,0,.82-.45,3.85,3.85,0,0,0,.81-.84,3,3,0,0,0,.6-1.35A2.48,2.48,0,0,0,15,132.32Z"/><path class="cls-1" d="M21.23,151.68l-.86-.21c-.36-.09-.7-.17-1-.23l-1.14-.18-2.81-4.31-.36-.48.75-.46.69-.45.73-.48,1.15-.75c.42-.27.79-.52,1.12-.76l1-.71a11,11,0,0,0,1.08-.77l.54-.53a2.21,2.21,0,0,0,.38-.46.3.3,0,0,0,0-.35,1,1,0,0,0-.34-.27l-.09,0,.17-.29.51.14a11.68,11.68,0,0,1,1.54.52,3.68,3.68,0,0,1,.78.43,1.27,1.27,0,0,1,.31.29c.2.29.13.58-.19.86a16.08,16.08,0,0,1-1.44,1.06q-.95.65-3.42,2.25l-.13.09L18,147.13c.25.38.66,1,1.24,1.77s1,1.44,1.37,2Z"/><path class="cls-1" d="M21.72,152l-1.39-.34-1-.22-1.13-.19h-.08l-2.85-4.38-.49-.64.93-.56L18.27,144c.4-.26.78-.51,1.11-.75l1-.72a12.93,12.93,0,0,0,1.07-.75l.53-.53a1.86,1.86,0,0,0,.35-.41c.05-.09,0-.13,0-.16a.79.79,0,0,0-.27-.2l-.26-.13.34-.59.65.18a10.37,10.37,0,0,1,1.57.53,3.88,3.88,0,0,1,.82.45,1.4,1.4,0,0,1,.35.34.78.78,0,0,1-.23,1.1,15.08,15.08,0,0,1-1.45,1.08l-3.42,2.25-.14.08-2.09,1.44c.26.38.64.92,1.13,1.6s1,1.46,1.37,2Zm-3.39-1.11c.43.06.78.12,1.06.18s.67.14,1,.23l.31.07-.31-.39c-.34-.51-.8-1.17-1.37-2s-1-1.39-1.25-1.78l-.1-.16,2.54-1.73,3.42-2.24c.62-.43,1.1-.78,1.41-1s.26-.47.17-.62a1.16,1.16,0,0,0-.27-.24,3.54,3.54,0,0,0-.74-.41,13.13,13.13,0,0,0-1.52-.51l-.34-.09a.88.88,0,0,1,.3.26.52.52,0,0,1,0,.56,2.69,2.69,0,0,1-.42.49l-.54.54a13.27,13.27,0,0,1-1.11.79c-.34.23-.68.47-1,.71l-1.12.76L15.9,146l-.58.36.24.32Z"/><path class="cls-1" d="M23,155.15a17.5,17.5,0,0,0-2.59-.87l1.11-.88,1-.75,1.71-1.53c.66-.51.84-1,.57-1.3a2,2,0,0,0-.36-.3l-.14-.08.1-.37.94.4,1.18.39.83.27a.76.76,0,0,1,.31.2,2.12,2.12,0,0,1,.13.25.49.49,0,0,1,0,.47,2.48,2.48,0,0,1-.66.69l-1.89,1.61Zm6.75-5-1.7-.47a.91.91,0,0,1-.51-.37,1.44,1.44,0,0,1-.2-.33,1.18,1.18,0,0,1-.1-.42,2,2,0,0,1,.13-.6l.1-.21c.56.12,1.12.26,1.69.44l.57.22,0,.33a3.49,3.49,0,0,0-.09.8A2,2,0,0,0,29.77,150.17Z"/><path class="cls-1" d="M23.06,155.37l-.11-.05a19.23,19.23,0,0,0-2.56-.86l-.38-.1,2.38-1.86,1.7-1.52a1.88,1.88,0,0,0,.58-.64.36.36,0,0,0,0-.4,1.24,1.24,0,0,0-.31-.26l-.26-.15.2-.72,1.14.49,1.16.38.83.28a.84.84,0,0,1,.4.25,2,2,0,0,1,.15.28.71.71,0,0,1,0,.65,2.52,2.52,0,0,1-.72.75l-1.87,1.61Zm-2.21-1.18a19.94,19.94,0,0,1,2.14.74l2.09-1.72L27,151.6a2.11,2.11,0,0,0,.62-.63.31.31,0,0,0,0-.31,1.38,1.38,0,0,0-.11-.22.58.58,0,0,0-.23-.13l-.82-.27-1.18-.39-.75-.33v0h0a1.79,1.79,0,0,1,.42.35.75.75,0,0,1,.09.79,2.34,2.34,0,0,1-.69.78l-1.7,1.52Zm9.25-3.74L28,149.89a1.16,1.16,0,0,1-.61-.44,2,2,0,0,1-.22-.36,1.12,1.12,0,0,1-.11-.51,2.22,2.22,0,0,1,.13-.67l.18-.35.14,0c.57.11,1.14.27,1.71.44l.72.28-.06.47a3.32,3.32,0,0,0-.09.77,1.35,1.35,0,0,0,.14.54ZM27.6,148l0,.07a1.73,1.73,0,0,0-.11.52.77.77,0,0,0,.08.34,1.46,1.46,0,0,0,.18.29.73.73,0,0,0,.4.31l1.37.37a1.25,1.25,0,0,1-.05-.32,3.87,3.87,0,0,1,.09-.85l0-.17-.44-.16A15.23,15.23,0,0,0,27.6,148Z"/><path class="cls-1" d="M34.25,158.84a1.58,1.58,0,0,1,0,.51.44.44,0,0,1-.14.29c-.24.23-1.46.41-3.65.55l-4.67.53-.34-.36q.36-.77.63-1.38c.17-.41.39-1,.65-1.67s.46-1.3.62-1.79a8,8,0,0,0,.29-1.23,2.45,2.45,0,0,0,0-.82,1.2,1.2,0,0,0-.33-.59l.12-.36,2.31.91a.48.48,0,0,1,.22.15,1,1,0,0,1,.17.77,8.87,8.87,0,0,1-.38,1.72l-.21.67c-.17.5-.32.91-.44,1.25s-.24.6-.34.8l0,.05-.3.56,0,.07-.11.23,1.4-.17.89-.18a2.34,2.34,0,0,0,.87-.41c.22-.21.23-.62,0-1.24l-.27-.54-.18-.28,1.11.22.89.15a1.36,1.36,0,0,1,.75.39A2.35,2.35,0,0,1,34.25,158.84Z"/><path class="cls-1" d="M25.75,160.92l-.49-.52,0-.12c.24-.51.45-1,.62-1.38s.39-.94.65-1.65.46-1.29.61-1.79a7.42,7.42,0,0,0,.29-1.19,2.11,2.11,0,0,0,0-.76,1.1,1.1,0,0,0-.27-.51l-.08-.08.22-.65,2.49,1a.84.84,0,0,1,.29.2,1.16,1.16,0,0,1,.22.91,9.33,9.33,0,0,1-.39,1.76l-.21.68c-.17.5-.32.92-.44,1.26s-.25.61-.35.82l-.31.59,1.05-.13.87-.18a2,2,0,0,0,.78-.36c.16-.15.15-.51,0-1l-.26-.51-.41-.65.44.1,1.1.22.89.15a1.47,1.47,0,0,1,.86.45,2.41,2.41,0,0,1,.5,1.29h0a1.9,1.9,0,0,1,0,.56.64.64,0,0,1-.2.41c-.19.18-.79.41-3.77.6Zm0-.6.18.2,4.58-.51c2.92-.2,3.45-.42,3.54-.51a.26.26,0,0,0,.09-.17,2.3,2.3,0,0,0,0-.46h0a2.28,2.28,0,0,0-.4-1.1,1.19,1.19,0,0,0-.65-.33l-.89-.15-.69-.13.23.46c.24.72.21,1.19-.07,1.46a2.64,2.64,0,0,1-.94.45l-.91.19-1.75.21.31-.64.3-.59a6.53,6.53,0,0,0,.33-.78c.13-.33.27-.75.44-1.24l.21-.67a10.06,10.06,0,0,0,.38-1.68.89.89,0,0,0-.12-.63.62.62,0,0,0-.16-.1l-2.12-.83,0,.06a1.52,1.52,0,0,1,.29.6,2.8,2.8,0,0,1,0,.88,10,10,0,0,1-.3,1.27q-.24.75-.63,1.8c-.26.71-.48,1.26-.65,1.67S25.93,159.85,25.71,160.32Z"/><path class="cls-1" d="M36.27,167.9h-.39q-1.27,0-1.68,0a3.41,3.41,0,0,1-.85-.18,2.31,2.31,0,0,1-.81-.45,2.13,2.13,0,0,1-.72-1.12,7.22,7.22,0,0,1-.17-.74c0-.08,0-.42-.09-1a2.75,2.75,0,0,1,.82-1.94,3.41,3.41,0,0,1,1.54-1A5.56,5.56,0,0,1,36,161.1a6.06,6.06,0,0,1,1.76.25,3.16,3.16,0,0,1,1.11.62,2.19,2.19,0,0,1,.81,1.22,1.22,1.22,0,0,1-.25,1.07,1.35,1.35,0,0,1-.42.31,1.46,1.46,0,0,1-.63.15,5.31,5.31,0,0,1-1,0l-.83-.09h-.08l-.75-.13-.84-.13V164l.25,0a4.15,4.15,0,0,0,1.28-.1.87.87,0,0,0,.48-.27.8.8,0,0,0,.1-1.07,4.75,4.75,0,0,0-.47-.62.93.93,0,0,0-.8-.22,1.52,1.52,0,0,0-.87.56,3.26,3.26,0,0,0-.65,1.16,4.67,4.67,0,0,0-.11,1.66,2.6,2.6,0,0,0,1,1.79,3.3,3.3,0,0,0,1.06.6l.22.07Z"/><path class="cls-1" d="M36.43,168.09h-.55c-.86,0-1.42,0-1.69,0a3.37,3.37,0,0,1-.9-.19,2.42,2.42,0,0,1-.87-.49,2.39,2.39,0,0,1-.79-1.21c-.15-.63-.17-.73-.17-.76s0-.13-.09-1.06a2.93,2.93,0,0,1,.87-2.08,3.7,3.7,0,0,1,1.62-1.06,5.91,5.91,0,0,1,2.13-.3,6.05,6.05,0,0,1,1.81.26,3.4,3.4,0,0,1,1.18.66,2.47,2.47,0,0,1,.87,1.32,1.4,1.4,0,0,1-.3,1.23,1.68,1.68,0,0,1-.47.36,1.81,1.81,0,0,1-.71.17,5.62,5.62,0,0,1-1,0l-.91-.1-.76-.13-1-.15,0-.72.46.06a4,4,0,0,0,1.19-.1.72.72,0,0,0,.4-.21.61.61,0,0,0,.08-.84,4.27,4.27,0,0,0-.43-.59.73.73,0,0,0-.65-.17,1.36,1.36,0,0,0-.76.49,3.11,3.11,0,0,0-.61,1.09,4.58,4.58,0,0,0-.1,1.6,2.4,2.4,0,0,0,.9,1.66,3.44,3.44,0,0,0,1,.57l.37.1Zm-.64-6.81a5.58,5.58,0,0,0-1.81.29,3.41,3.41,0,0,0-1.46,1,2.59,2.59,0,0,0-.77,1.81c.06.75.08,1,.08,1s0,.18.17.72a2.17,2.17,0,0,0,1.41,1.43,3.1,3.1,0,0,0,.8.17c.27,0,.82,0,1.67,0h.23l-.07,0a3.54,3.54,0,0,1-1.13-.64,2.77,2.77,0,0,1-1-1.91,4.9,4.9,0,0,1,.11-1.74,3.5,3.5,0,0,1,.68-1.22,1.75,1.75,0,0,1,1-.62,1.1,1.1,0,0,1,1,.26,4,4,0,0,1,.49.66,1,1,0,0,1-.11,1.3,1.09,1.09,0,0,1-.58.32,3.64,3.64,0,0,1-1.1.11l.39.06.82.14.83.09a6.16,6.16,0,0,0,1,0,1.48,1.48,0,0,0,.56-.14,1.06,1.06,0,0,0,.35-.27,1,1,0,0,0,.21-.91,2,2,0,0,0-.74-1.11,3.25,3.25,0,0,0-1-.59,6.89,6.89,0,0,0-1.7-.24Z"/><path class="cls-1" d="M51.24,174.18a4,4,0,0,1-.22.46,1.88,1.88,0,0,1-.78.69,6.59,6.59,0,0,1-1.55.43,3,3,0,0,1-.55.09l-.54,0-.54,0a4.89,4.89,0,0,1-2.8-.4l-.35-.23-.58-.45a12.32,12.32,0,0,1-1.25-1.21l-.21-.22-.14-.18A28.58,28.58,0,0,0,44,170.08a44.32,44.32,0,0,0,2.36-4.18l-1-.53-.9-.43,2.69-.5,1,.38a7,7,0,0,1,.87.44,21.89,21.89,0,0,1,2.28,1.53,4.67,4.67,0,0,1,1.18,1.28,3,3,0,0,1,.44,1.31,1.87,1.87,0,0,1-.26,1.11,2.1,2.1,0,0,1-1.6,1l-.29,0,.2.37.18.36.13.36a3.31,3.31,0,0,1,.12.87A2.07,2.07,0,0,1,51.24,174.18Zm-2.34-.66a2.37,2.37,0,0,0-.19-1,4.07,4.07,0,0,0-.33-.64,5.13,5.13,0,0,0-.45-.53l-.3-.29-.13-.14.17-.25.25.09a2.66,2.66,0,0,0,1.11.1,2,2,0,0,0,.72-.28,1.48,1.48,0,0,0,.45-.45,1.06,1.06,0,0,0,.17-1,7.11,7.11,0,0,0-.37-.63q-.16-.24-.36-.48a3.51,3.51,0,0,0-.48-.46,7.42,7.42,0,0,0-.72-.48l-1.87,3.07-1.86,3a2.45,2.45,0,0,0,.36.43,6.62,6.62,0,0,0,.81.78,5.33,5.33,0,0,0,.67.5l.17.11a3.87,3.87,0,0,1,.4.15,1.07,1.07,0,0,0,.76,0,1.42,1.42,0,0,0,.78-.63A1.67,1.67,0,0,0,48.9,173.52Z"/><path class="cls-1" d="M46.31,176.13a4.2,4.2,0,0,1-2.15-.45l-.36-.25-.59-.45a14,14,0,0,1-1.27-1.23l-.21-.22-.24-.31.09-.12A29.21,29.21,0,0,0,43.8,170c1.15-1.89,1.91-3.24,2.27-4l-.79-.44-1.41-.69,3.31-.6,0,0c.3.11.63.24,1,.38a6.29,6.29,0,0,1,.9.45,23.54,23.54,0,0,1,2.3,1.54A4.86,4.86,0,0,1,52.6,168a3.23,3.23,0,0,1,.47,1.4,2.09,2.09,0,0,1-.29,1.22,2.29,2.29,0,0,1-1.73,1h0l.07.12.19.38.13.37a3.2,3.2,0,0,1,.14.94,2.73,2.73,0,0,1-.13.8h0a2.37,2.37,0,0,1-.23.48,2,2,0,0,1-.85.77,6.61,6.61,0,0,1-1.61.45,4,4,0,0,1-.57.09l-1.07.06ZM42,173.22l.05.06.2.21a12.08,12.08,0,0,0,1.22,1.19l.59.45a3.77,3.77,0,0,0,.33.22,4.69,4.69,0,0,0,2.69.37l1.08-.06a2.72,2.72,0,0,0,.51-.08,6.7,6.7,0,0,0,1.52-.42,1.64,1.64,0,0,0,.7-.62,4.09,4.09,0,0,0,.2-.42,2,2,0,0,0,.11-.68,2.92,2.92,0,0,0-.11-.81l-.13-.34-.17-.35-.33-.59.56-.08a1.92,1.92,0,0,0,1.47-.88,1.67,1.67,0,0,0,.23-1,2.68,2.68,0,0,0-.41-1.22,4.79,4.79,0,0,0-1.13-1.24,24.07,24.07,0,0,0-2.26-1.51A7.46,7.46,0,0,0,48,165l-.9-.35-2.07.38.38.18,1.11.61-.07.16a43.35,43.35,0,0,1-2.37,4.21A29.41,29.41,0,0,1,42,173.22Zm5.41,2.15a.9.9,0,0,1-.34-.06,2.36,2.36,0,0,0-.38-.15l0,0-.17-.11a6.77,6.77,0,0,1-.69-.51,7,7,0,0,1-.83-.81,2,2,0,0,1-.37-.44l-.07-.1,3.89-6.39.16.1c.3.18.54.35.73.49a2.65,2.65,0,0,1,.51.49c.14.17.27.33.38.49s.24.39.38.65a1.23,1.23,0,0,1-.18,1.22,1.86,1.86,0,0,1-.5.51,2.17,2.17,0,0,1-.79.3,2.61,2.61,0,0,1-1.2-.1l-.13,0h0l.32.31a4.67,4.67,0,0,1,.48.57,4.34,4.34,0,0,1,.34.66,2.58,2.58,0,0,1,.21,1.09,1.81,1.81,0,0,1-.27,1,1.57,1.57,0,0,1-.89.72A1.74,1.74,0,0,1,47.38,175.37Zm-.58-.57.39.16a1,1,0,0,0,.63-.05,1.18,1.18,0,0,0,.68-.55,1.5,1.5,0,0,0,.21-.84h0a2.39,2.39,0,0,0-.17-.94,4.36,4.36,0,0,0-.32-.6,3.22,3.22,0,0,0-.43-.51l-.54-.54.34-.49.39.13a2.34,2.34,0,0,0,1,.09,1.82,1.82,0,0,0,.66-.25A1.21,1.21,0,0,0,50,170c.22-.36.27-.64.17-.84s-.26-.46-.36-.61l-.36-.47a3.07,3.07,0,0,0-.45-.43c-.14-.11-.32-.23-.54-.37l-3.56,5.86a1.86,1.86,0,0,0,.25.28,7.48,7.48,0,0,0,.81.79,6,6,0,0,0,.65.48Z"/><path class="cls-1" d="M57.09,185.12l-2.4-.26.81-1.72c.29-.64.68-1.55,1.16-2.73l.8-2-.81.44-1.94,1-.23.1-.51.21a4.91,4.91,0,0,1-.51.15.89.89,0,0,1-.55-.06.7.7,0,0,1-.48-.62,4,4,0,0,1,.08-.88c.06-.32.14-.69.22-1.11l.15-.77.25-1.11,0-.28c.09-.62.15-1,.17-1.2a2.34,2.34,0,0,0,0-.53.52.52,0,0,0-.34-.37.62.62,0,0,0-.56,0V173l.41-.09.38-.06.39-.06,1-.15c.29,0,.51,0,.66,0a1,1,0,0,1,.38.08A.67.67,0,0,1,56,173a.5.5,0,0,1,.07.33l-.79,3.49-.09.6c0,.42,0,.68.26.78a.93.93,0,0,0,.55,0,4.39,4.39,0,0,0,.63-.19c.16-.06.4-.17.71-.32s.7-.4,1.19-.72,1-.71,1.58-1.15l.73-.6.53.23-2.77,6.2Z"/><path class="cls-1" d="M57.21,185.32,54.4,185l.93-2c.29-.63.67-1.54,1.15-2.72q.41-1,.6-1.47l-.34.19-2.18,1.07-.53.21-.53.16a1,1,0,0,1-.66-.08.88.88,0,0,1-.6-.79,5.37,5.37,0,0,1,.09-.92l.21-1.11.15-.77.26-1.12,0-.26c.1-.61.15-1,.17-1.19a1.92,1.92,0,0,0,0-.48s0-.14-.23-.23a.44.44,0,0,0-.4,0l-.29.14,0-.82.54-.13,1.77-.27c.3,0,.54,0,.7,0a1.15,1.15,0,0,1,.45.1.76.76,0,0,1,.39.33.68.68,0,0,1,.1.45l-.79,3.52-.09.58c0,.32,0,.51.15.58a.72.72,0,0,0,.43,0,4.1,4.1,0,0,0,.6-.17l.7-.32a11.88,11.88,0,0,0,1.16-.71c.49-.33,1-.71,1.57-1.14l.82-.66.81.34-2.84,6.37ZM55,184.7l2,.22,1.42-3.38,2.69-6-.25-.1-.65.53c-.56.43-1.09.82-1.59,1.15a10.19,10.19,0,0,1-1.21.74,7.1,7.1,0,0,1-.73.33,4.57,4.57,0,0,1-.64.19,1.1,1.1,0,0,1-.68,0c-.3-.14-.42-.46-.37-1l.1-.6.79-3.52a.32.32,0,0,0-.05-.19.58.58,0,0,0-.22-.18,1.13,1.13,0,0,0-.31-.06,6.13,6.13,0,0,0-.64,0l-1.78.27a.62.62,0,0,1,.23.07.66.66,0,0,1,.44.52,2.08,2.08,0,0,1,0,.56c0,.2-.08.6-.18,1.22l0,.27-.26,1.13-.14.76c-.09.43-.16.8-.22,1.11a3.74,3.74,0,0,0-.08.85c0,.12,0,.3.37.44a.66.66,0,0,0,.43.06l.49-.15c.15,0,.32-.12.5-.2l.22-.1,1.94-1,1.3-.71-.23.52q-.09.18-.81,1.95c-.48,1.18-.87,2.11-1.15,2.74Z"/><path class="cls-1" d="M78.79,176.89l-2,1.17a2.06,2.06,0,0,1-.94.18l-.61-.07c-.24,0-.5-.1-.78-.17l-1-.24-.5,1.82c-.26,1-.49,2-.67,2.88s-.35,1.77-.49,2.71a21.8,21.8,0,0,0-3.15,1.09l.33-.89L71,177.11q-.72-.18-2.1-.66t-2.07-.66a19.25,19.25,0,0,1,2.21-1l.29-.09.28-.11,1.7.56c.73.18,2,.47,3.66.85S78,176.69,78.79,176.89Z"/><path class="cls-1" d="M68.31,186.6l.48-1.3,2-8.05c-.48-.13-1.13-.34-1.93-.63s-1.61-.54-2-.65l-.49-.12.45-.23a21.36,21.36,0,0,1,2.22-1l.3-.09.33-.13,1.77.58c.71.18,1.91.46,3.64.85s3,.67,3.79.88l.46.11-2.46,1.4a2.14,2.14,0,0,1-1,.2,5.65,5.65,0,0,1-.64-.07c-.24,0-.51-.09-.8-.16l-.79-.2-.45,1.64c-.26,1-.48,2-.67,2.86s-.34,1.77-.48,2.7l0,.13-.12,0a22.77,22.77,0,0,0-3.13,1.08Zm-.92-10.87c.43.13,1,.31,1.61.54.91.32,1.61.54,2.08.66l.19,0-2.12,8.43-.18.5a25.08,25.08,0,0,1,2.65-.9c.14-.89.3-1.76.47-2.59s.42-1.85.68-2.89l.54-2,1.15.29c.28.07.54.12.77.16a5.42,5.42,0,0,0,.59.07,2,2,0,0,0,.83-.15l1.64-.94L75,176.2c-1.74-.4-2.94-.67-3.67-.86l-1.65-.53-.21.08-.31.09C68.54,175.21,68,175.46,67.39,175.73Z"/><path class="cls-1" d="M86,187.92l-.54.24-.53.27-.59.28-.58.29c0-.4.08-.76.09-1.09s0-.76,0-1.3,0-1,0-1.3a9,9,0,0,0-.17-1c-.09-.37-.29-.57-.59-.6a1.07,1.07,0,0,0-.71.18c-.25.15-.45.28-.59.38s-.35.25-.62.47-.72.63-1.36,1.25a10.61,10.61,0,0,0-1.73,2.34l-.36-.19.16-.81.15-.89c.11-.91.21-1.78.31-2.6s.2-1.6.29-2.34l0-.41.06-1.49a5.76,5.76,0,0,0,.06-.92,6.34,6.34,0,0,0-.11-.74c-.06-.29-.2-.44-.43-.47a1.38,1.38,0,0,0-.59.09l-.16.07,0-.31s.2-.14.63-.34l1.39-.65.29-.14.32-.14.43-.14a.49.49,0,0,1,.21,0c.46.06.64.44.56,1.15-.06.44-.1.84-.13,1.2s-.06.74-.08,1.12l-.44,3.56-.19,1.59.63-.56c.72-.65,1.2-1.07,1.43-1.26s.54-.42,1-.71a9.31,9.31,0,0,1,1.06-.64,1.4,1.4,0,0,1,.72-.18c.26,0,.44.22.55.57A6.29,6.29,0,0,1,86,183c0,.49.07,1.15.08,2l0,1,0,.68,0,.59Z"/><path class="cls-1" d="M83.53,189.33l0-.35c.05-.39.08-.75.09-1.07s0-.77,0-1.3,0-1,0-1.28a6.75,6.75,0,0,0-.17-1c-.09-.37-.28-.44-.42-.46a1,1,0,0,0-.6.16c-.24.15-.44.27-.58.37l-.6.46c-.26.21-.71.63-1.35,1.25a10.18,10.18,0,0,0-1.7,2.29l-.09.16-.64-.34.18-.95.15-.88.65-5.34.06-1.48a5.67,5.67,0,0,0,.06-.9,4.7,4.7,0,0,0-.11-.72c0-.26-.17-.3-.26-.31a1.15,1.15,0,0,0-.51.08l-.37.17-.08-.56c0-.17.09-.24.74-.54l1.32-.62.68-.31.45-.14a.5.5,0,0,1,.3,0c.39,0,.84.32.71,1.35q-.08.66-.12,1.2c0,.36-.06.73-.09,1.12L80.69,184l.25-.23c.72-.65,1.21-1.07,1.44-1.26a11.78,11.78,0,0,1,1-.72,8.53,8.53,0,0,1,1.08-.66,1.55,1.55,0,0,1,.83-.2.87.87,0,0,1,.71.7,6.82,6.82,0,0,1,.23,1.29c0,.49.07,1.17.08,2l-.06,1.7,0,.61,0,.77-.65.29-.52.27-.6.28ZM83,183.49h.12a.86.86,0,0,1,.75.75A7.22,7.22,0,0,1,84,185.3c0,.32,0,.75,0,1.31s0,1,0,1.31,0,.49-.06.75l.27-.13.6-.28.52-.27.44-.19,0-.54.08-1.29,0-1c0-.84,0-1.51-.07-2a6.89,6.89,0,0,0-.22-1.22c-.13-.4-.33-.42-.39-.43a1.07,1.07,0,0,0-.62.16,7.17,7.17,0,0,0-1,.63,9.51,9.51,0,0,0-.94.7c-.23.19-.71.61-1.43,1.25l-1,.9.69-5.65c0-.38.05-.75.08-1.12s.07-.76.13-1.2c.11-.88-.25-.92-.39-.94a.28.28,0,0,0-.13,0l-.44.14-.64.3-1.34.62-.35.17a1.58,1.58,0,0,1,.46,0,.68.68,0,0,1,.59.62,5.07,5.07,0,0,1,.11.77,4.9,4.9,0,0,1,0,.95l-.06,1.48-.65,5.36-.16.9-.13.68.07,0a10.42,10.42,0,0,1,1.68-2.22c.65-.64,1.1-1.06,1.37-1.27l.63-.48c.15-.1.34-.23.6-.38A1.34,1.34,0,0,1,83,183.49Z"/><path class="cls-1" d="M94.48,187.59l-.3.25c-.66.54-1.09.9-1.31,1a3.52,3.52,0,0,1-.77.41,2.37,2.37,0,0,1-.91.17,2.09,2.09,0,0,1-1.27-.4,7.52,7.52,0,0,1-.61-.46c-.06-.05-.3-.3-.73-.74a2.75,2.75,0,0,1-.62-2,3.59,3.59,0,0,1,.55-1.76,5.59,5.59,0,0,1,1.39-1.54,6.05,6.05,0,0,1,1.51-.93,3.13,3.13,0,0,1,1.26-.24,2.24,2.24,0,0,1,1.4.42,1.19,1.19,0,0,1,.48,1,1.34,1.34,0,0,1-.11.51,1.51,1.51,0,0,1-.39.52,5.94,5.94,0,0,1-.8.62l-.7.46-.07,0-.66.38-.73.44-.2-.27.21-.13a4.19,4.19,0,0,0,.91-.9,1,1,0,0,0,.21-.51.81.81,0,0,0-.62-.89,4.22,4.22,0,0,0-.75-.18.93.93,0,0,0-.76.35,1.53,1.53,0,0,0-.31,1,3.18,3.18,0,0,0,.24,1.31,4.83,4.83,0,0,0,1,1.34,2.56,2.56,0,0,0,1.89.76,3.31,3.31,0,0,0,1.2-.21l.21-.09Z"/><path class="cls-1" d="M91.23,189.66h0a2.41,2.41,0,0,1-1.38-.43c-.47-.35-.58-.44-.62-.48l-.74-.75a2.91,2.91,0,0,1-.66-2.15,3.69,3.69,0,0,1,.56-1.85,5.91,5.91,0,0,1,1.45-1.6,6.24,6.24,0,0,1,1.55-1,3.48,3.48,0,0,1,1.33-.25,2.42,2.42,0,0,1,1.51.46,1.41,1.41,0,0,1,.43,1.72,1.71,1.71,0,0,1-.43.58,5.84,5.84,0,0,1-.83.63l-.76.51-.67.39-.87.52-.44-.56.39-.25a4.11,4.11,0,0,0,.85-.84.79.79,0,0,0,.18-.42.62.62,0,0,0-.48-.7,4.06,4.06,0,0,0-.7-.17.75.75,0,0,0-.61.28,1.26,1.26,0,0,0-.27.87,3,3,0,0,0,.23,1.22,4.33,4.33,0,0,0,.94,1.29,2.36,2.36,0,0,0,1.75.7,3.1,3.1,0,0,0,1.13-.2l.36-.15.35.56-.43.35c-.65.55-1.1.91-1.32,1.07a4.43,4.43,0,0,1-.81.43A2.53,2.53,0,0,1,91.23,189.66Zm1.38-8.09a3.07,3.07,0,0,0-1.13.22,5.86,5.86,0,0,0-1.46.91,5.56,5.56,0,0,0-1.35,1.49,3.3,3.3,0,0,0-.52,1.67,2.6,2.6,0,0,0,.57,1.88c.57.59.69.71.72.73s.15.13.59.45a2,2,0,0,0,1.16.36,2.4,2.4,0,0,0,.84-.15,3.6,3.6,0,0,0,.73-.39c.21-.16.65-.51,1.3-1.05l.17-.14h0l-.07,0a3.49,3.49,0,0,1-1.27.23,2.79,2.79,0,0,1-2-.81,4.74,4.74,0,0,1-1-1.41,3.36,3.36,0,0,1-.26-1.38,1.71,1.71,0,0,1,.36-1.1,1.09,1.09,0,0,1,.9-.42,4.33,4.33,0,0,1,.81.19,1,1,0,0,1,.74,1.07,1,1,0,0,1-.24.62,4.08,4.08,0,0,1-.77.8l.33-.21.72-.42.7-.46a5.93,5.93,0,0,0,.78-.59,1.7,1.7,0,0,0,.35-.46,1.4,1.4,0,0,0,.1-.44A1,1,0,0,0,94,182a2.08,2.08,0,0,0-1.29-.38Z"/><path class="cls-1" d="M109.89,185.6l-.55.68c-.24.28-.45.56-.64.81s-.42.58-.66.95l-5.1.67-.59.12-.09-.88-.11-.81-.11-.87-.18-1.36c-.07-.49-.13-.94-.2-1.33s-.14-.81-.21-1.23a12.66,12.66,0,0,0-.22-1.3c-.09-.24-.17-.48-.25-.72a2.31,2.31,0,0,0-.25-.54.3.3,0,0,0-.32-.16.89.89,0,0,0-.38.19l-.08.06-.18-.28.34-.39a10.8,10.8,0,0,1,1.14-1.17,4.32,4.32,0,0,1,.72-.52,1.76,1.76,0,0,1,.4-.16c.34,0,.57.14.69.56a16,16,0,0,1,.34,1.75q.16,1.13.54,4.05l0,.16.42,2.69c.45-.06,1.17-.17,2.13-.35s1.76-.3,2.36-.38Z"/><path class="cls-1" d="M102.18,189.05l-.11-1.08-.4-3c-.06-.48-.13-.93-.2-1.32s-.14-.81-.21-1.23a12.79,12.79,0,0,0-.21-1.28c-.09-.23-.17-.47-.25-.71a2.48,2.48,0,0,0-.22-.5c-.06-.08-.1-.08-.14-.07a.69.69,0,0,0-.3.15l-.23.18-.38-.56.44-.51a11.17,11.17,0,0,1,1.16-1.19,4.26,4.26,0,0,1,.76-.54,1.5,1.5,0,0,1,.45-.17c.26,0,.71,0,.9.69a14.38,14.38,0,0,1,.34,1.77c.11.75.29,2.07.55,4.06l0,.15.39,2.51c.46-.06,1.11-.17,1.94-.32s1.75-.31,2.37-.39l1.54-.36-.9,1.11c-.25.29-.46.56-.64.81s-.4.55-.66.94l0,.07-5.18.68Zm-1.72-9.61a.51.51,0,0,1,.43.24,2.78,2.78,0,0,1,.27.59c.08.23.16.47.25.71s.14.71.23,1.35c.06.41.13.82.2,1.21s.14.85.2,1.34l.4,3.05.07.67.39-.08,5-.66.61-.88c.19-.25.4-.52.66-.82l.2-.25-.49.11c-.62.09-1.41.21-2.36.39s-1.68.29-2.14.35l-.19,0-.46-3c-.26-2-.44-3.31-.55-4.05a15.44,15.44,0,0,0-.33-1.73c-.12-.41-.31-.44-.49-.42a1.13,1.13,0,0,0-.33.14,4,4,0,0,0-.69.49,12.63,12.63,0,0,0-1.12,1.15l-.22.26a1.07,1.07,0,0,1,.36-.15Z"/><path class="cls-1" d="M113.75,185.54a18.62,18.62,0,0,0-1.93,1.94c-.07-.35-.17-.81-.29-1.38l-.25-1.2-.62-2.2c-.17-.82-.48-1.18-.92-1.09a1.83,1.83,0,0,0-.43.19l-.13.09-.29-.26.78-.66.87-.88.61-.62a.7.7,0,0,1,.31-.2h.29a.53.53,0,0,1,.41.23,2.23,2.23,0,0,1,.33.9l.61,2.4Zm-1.49-8.26-1.17,1.33a.91.91,0,0,1-.56.29,1.38,1.38,0,0,1-.38,0,.94.94,0,0,1-.42-.11,1.76,1.76,0,0,1-.49-.38l-.14-.18c.36-.45.74-.89,1.15-1.32l.45-.41.27.18a3.23,3.23,0,0,0,.68.44A1.79,1.79,0,0,0,112.26,177.28Z"/><path class="cls-1" d="M111.72,187.9l-.63-3-.61-2.19a1.85,1.85,0,0,0-.32-.81.36.36,0,0,0-.38-.14,1.7,1.7,0,0,0-.37.16l-.24.18-.56-.51.94-.8c.28-.28.57-.57.86-.88l.61-.62a.86.86,0,0,1,.4-.24,1.19,1.19,0,0,1,.33,0,.68.68,0,0,1,.56.31,2.36,2.36,0,0,1,.36,1l.62,2.4.67,2.86-.09.08a17.14,17.14,0,0,0-1.9,1.91Zm-1.85-6.49a.77.77,0,0,1,.58.28,2.33,2.33,0,0,1,.4,1l.61,2.19.47,2.22a20.24,20.24,0,0,1,1.61-1.6l-.62-2.63-.61-2.4a2.18,2.18,0,0,0-.29-.83c-.12-.15-.21-.16-.27-.16h-.25a.41.41,0,0,0-.22.14c-.11.11-.31.31-.6.62l-.87.88-.63.54h0a1.77,1.77,0,0,1,.49-.22Zm.31-2.28h0a1.11,1.11,0,0,1-.5-.12,1.92,1.92,0,0,1-.54-.41l-.24-.32.09-.11a16,16,0,0,1,1.15-1.34l.57-.52.4.26a3,3,0,0,0,.64.42,1.66,1.66,0,0,0,.55.12l.39,0-1.42,1.61a1.14,1.14,0,0,1-.67.36A2.13,2.13,0,0,1,110.18,179.13Zm-.84-.86,0,.07a1.66,1.66,0,0,0,.42.32.72.72,0,0,0,.34.09,1.58,1.58,0,0,0,.34,0,.8.8,0,0,0,.46-.23l.93-1.06-.31-.1a3.54,3.54,0,0,1-.71-.46l-.14-.09-.34.31C110,177.47,109.67,177.87,109.34,178.27Z"/><path class="cls-1" d="M123,176.13l-.45,1-.46,1-1,.4.08.27a1.72,1.72,0,0,1,.08.78,2.16,2.16,0,0,1-.33.73l-.27.46,0,.06-.18.3-.14.21-.28-.13,0-.29a2.21,2.21,0,0,0-.07-.4,1.29,1.29,0,0,0-.77-.89,1.63,1.63,0,0,0-.85-.17l-.45.1a2.05,2.05,0,0,0-.48.23,1.15,1.15,0,0,0-.44.57,1.19,1.19,0,0,0,0,.79,1.18,1.18,0,0,0,.27.45l.25.19a2,2,0,0,0,.36.18,1.63,1.63,0,0,0,.53.12,5.22,5.22,0,0,0,.93-.06l3-.43h.25c1.09,0,1.74.38,2,1.06a2.15,2.15,0,0,1-.13,1.41,7.36,7.36,0,0,1-.8,1.49,10,10,0,0,1-1.06,1.27,12.75,12.75,0,0,1-1.2,1,11,11,0,0,1-1.21.8,5,5,0,0,1-1.11.49l-.25.08-.48.06a3.79,3.79,0,0,1-.5.05,2,2,0,0,1-.57-.07.73.73,0,0,1-.47-1c.09-.15.17-.3.27-.45s.28-.44.55-.85l.69-1,.33.1-.1.22a1.34,1.34,0,0,0,0,.42q.23.76.9.66l.77-.13.23-.07a3.36,3.36,0,0,0,1.22-.66l.37-.36a3.27,3.27,0,0,0,.59-.9,1.1,1.1,0,0,0,.07-.72,1.11,1.11,0,0,0-.53-.73,2.68,2.68,0,0,0-1.23-.09l-.74.11-2.2.34-.82.1a5.52,5.52,0,0,1-.84-.13,1.18,1.18,0,0,1-.9-.91,2.53,2.53,0,0,1,.1-1.44,9.16,9.16,0,0,1,1.06-2.05,7.13,7.13,0,0,1,1.3-1.61,3.84,3.84,0,0,1,1.36-.68l.18,0,.49-.11.22-.06.71-.23c.23-.08.7-.26,1.39-.54Z"/><path class="cls-1" d="M117.7,189.5a2.39,2.39,0,0,1-.57-.08.83.83,0,0,1-.64-.6.85.85,0,0,1,.05-.67c.08-.15.17-.3.27-.46s.28-.44.56-.86l.77-1.12.65.21-.16.38a1,1,0,0,0,0,.32c.16.55.46.57.69.54.58-.09.72-.12.75-.13l.22-.07a3.12,3.12,0,0,0,1.16-.63l.36-.35a2.83,2.83,0,0,0,.54-.83,1,1,0,0,0,.07-.59,1,1,0,0,0-.43-.62,2.48,2.48,0,0,0-1.13-.07l-2.93.44a6.5,6.5,0,0,1-.84.1,4.42,4.42,0,0,1-.89-.12,1.36,1.36,0,0,1-1-1,2.64,2.64,0,0,1,.1-1.55,9.3,9.3,0,0,1,1.08-2.09,7.9,7.9,0,0,1,1.34-1.66,4.29,4.29,0,0,1,1.42-.71l.7-.14.2-.06.7-.23,1.38-.54,1.25-.48-1.14,2.47-1,.36,0,.11a2,2,0,0,1,.09.87,2.33,2.33,0,0,1-.36.79l-.5.82-.24.35-.54-.26,0-.4a1.7,1.7,0,0,0-.06-.35,1.1,1.1,0,0,0-.66-.77,1.46,1.46,0,0,0-.75-.16l-.43.1a2.73,2.73,0,0,0-.43.21.93.93,0,0,0-.36.48,1,1,0,0,0,0,.67.88.88,0,0,0,.23.36l.22.17a1.13,1.13,0,0,0,.32.17,1.53,1.53,0,0,0,.47.11,6.31,6.31,0,0,0,.89-.07l3-.43h.28c1.18,0,1.9.43,2.13,1.2a2.31,2.31,0,0,1-.13,1.53,8.31,8.31,0,0,1-.82,1.53,10.46,10.46,0,0,1-1.09,1.29A10.89,10.89,0,0,1,121.4,188a10.51,10.51,0,0,1-1.23.82,5.35,5.35,0,0,1-1.15.5l-.28.09-.47.06a4,4,0,0,1-.52.05Zm.57-3.31-.59.85c-.27.41-.46.69-.55.85l-.26.44a.48.48,0,0,0,0,.38.46.46,0,0,0,.36.34,2.25,2.25,0,0,0,.52.08l.49-.06.46-.06.24-.07a5.64,5.64,0,0,0,1.07-.47,13.58,13.58,0,0,0,1.19-.79,10.15,10.15,0,0,0,1.17-1,9,9,0,0,0,1.05-1.24,6.94,6.94,0,0,0,.77-1.45,1.93,1.93,0,0,0,.13-1.29c-.18-.6-.76-.9-1.77-.92h-.24l-3,.42a5.92,5.92,0,0,1-1,.07,2,2,0,0,1-.58-.13,3,3,0,0,1-.41-.21l-.25-.2a1.27,1.27,0,0,1-.33-.53,1.33,1.33,0,0,1,.05-.92,1.26,1.26,0,0,1,.51-.66,2,2,0,0,1,.53-.25,4.56,4.56,0,0,1,.46-.11,1.91,1.91,0,0,1,1,.18,1.5,1.5,0,0,1,.88,1,2.11,2.11,0,0,1,.08.45v0l0,.17h0l0-.07.5-.82a2.1,2.1,0,0,0,.31-.66,1.64,1.64,0,0,0-.08-.69l-.13-.44L122,178l.68-1.48-.37.15-1.39.54-.72.23-.22.06-.69.15a3.65,3.65,0,0,0-1.28.63,7.44,7.44,0,0,0-1.26,1.58,8.77,8.77,0,0,0-1,2,2.21,2.21,0,0,0-.09,1.32,1,1,0,0,0,.75.79,4.75,4.75,0,0,0,.8.12c.08,0,.28,0,.8-.1l2.94-.44a2.69,2.69,0,0,1,1.33.1,1.31,1.31,0,0,1,.63.85,1.29,1.29,0,0,1-.07.83,3.42,3.42,0,0,1-.63,1l-.38.37a3.37,3.37,0,0,1-1.3.71l-.22.07a6.82,6.82,0,0,1-.8.14.94.94,0,0,1-1.11-.8,1.73,1.73,0,0,1-.06-.47Z"/><path class="cls-1" d="M134.55,178.52l-.34.48-.32.5-.37.54-.35.55c-.16-.37-.32-.7-.47-1l-.65-1.13c-.28-.47-.51-.84-.69-1.1a6.56,6.56,0,0,0-.67-.79.69.69,0,0,0-.81-.23,1.13,1.13,0,0,0-.52.52c-.14.26-.24.47-.32.63s-.17.4-.29.71-.3.91-.54,1.78a10.42,10.42,0,0,0-.31,2.89l-.4,0-.28-.78-.32-.85-1-2.4-.94-2.16-.17-.38-.7-1.32a7.66,7.66,0,0,0-.41-.82,5.2,5.2,0,0,0-.48-.58.49.49,0,0,0-.6-.19,1.43,1.43,0,0,0-.46.37l-.1.15-.2-.24s.1-.23.37-.62.56-.81.87-1.26l.19-.27.2-.28.3-.34a.59.59,0,0,1,.17-.13c.42-.18.78.06,1.06.71.18.41.34.78.5,1.1s.32.67.5,1l1.42,3.29.64,1.47.26-.8c.3-.93.5-1.53.6-1.81a10.33,10.33,0,0,1,.46-1.09,7.53,7.53,0,0,1,.58-1.09,1.46,1.46,0,0,1,.53-.53.69.69,0,0,1,.76.22,5.52,5.52,0,0,1,.83,1c.29.4.65,1,1.08,1.69l.5.89.31.6.27.54Z"/><path class="cls-1" d="M127.36,183.09l-.31-.91-.32-.84-2.15-4.94-.69-1.3a5.61,5.61,0,0,0-.41-.8,6.15,6.15,0,0,0-.45-.57c-.18-.19-.31-.17-.4-.14a1.3,1.3,0,0,0-.39.33l-.23.34-.35-.45c-.12-.12,0-.25.35-.84q.4-.57.87-1.26l.39-.55.32-.35a.55.55,0,0,1,.24-.18.74.74,0,0,1,.6,0,1.39,1.39,0,0,1,.7.83c.18.4.34.77.5,1.09s.32.66.49,1l1.88,4.31.1-.33c.3-1,.5-1.54.6-1.82s.25-.63.46-1.1a9,9,0,0,1,.61-1.12,1.53,1.53,0,0,1,.61-.59.85.85,0,0,1,1,.25,5.87,5.87,0,0,1,.86,1c.28.4.65,1,1.09,1.7l.49.89.59,1.15.41.66-.42.58-.31.49-.38.55-.54.84-.14-.33c-.15-.36-.31-.68-.46-1l-.64-1.13c-.28-.46-.5-.82-.68-1.08a7.19,7.19,0,0,0-.65-.77c-.27-.28-.47-.24-.6-.18a.89.89,0,0,0-.43.43c-.14.26-.24.46-.32.62s-.17.39-.29.7-.3.91-.52,1.75a10.14,10.14,0,0,0-.31,2.84v.18Zm-4.61-9.9a.73.73,0,0,1,.55.29,4.85,4.85,0,0,1,.49.61,5.78,5.78,0,0,1,.44.85l.69,1.3,2.15,5,.33.85.23.65h.08a10.31,10.31,0,0,1,.32-2.76c.23-.86.41-1.46.54-1.79s.22-.56.3-.73.18-.37.32-.63a1.3,1.3,0,0,1,.62-.61.85.85,0,0,1,1,.27,7.9,7.9,0,0,1,.68.81c.19.27.42.64.7,1.11s.5.86.65,1.15.22.43.34.67l.16-.25.37-.55.32-.49.28-.38-.29-.47-.59-1.15L133,176c-.43-.71-.79-1.28-1.07-1.67a6.65,6.65,0,0,0-.8-.93c-.28-.26-.46-.23-.56-.18a1.18,1.18,0,0,0-.45.45,8.24,8.24,0,0,0-.57,1.06c-.21.46-.36.82-.46,1.08s-.29.86-.59,1.81l-.41,1.27-2.27-5.21c-.17-.34-.34-.68-.49-1s-.33-.69-.5-1.1a1.09,1.09,0,0,0-.5-.63.38.38,0,0,0-.31,0,.23.23,0,0,0-.11.08l-.3.34-.37.52c-.32.46-.61.88-.87,1.27l-.22.32a1.26,1.26,0,0,1,.37-.26A.76.76,0,0,1,122.75,173.19Zm-.81.38,0,0S122,173.57,121.94,173.57Z"/><path class="cls-1" d="M138,169.09c-.17.44-.32.86-.45,1.25s-.23.8-.32,1.23l-.6.32.11.2.52,1,.51.94c.1.19.17.32.22.4l0,.09.38.48a1.71,1.71,0,0,0,.5.49.6.6,0,0,0,.43.05l.26-.09a.9.9,0,0,0,.22-.19l.3.19c-.15.32-.26.54-.33.67a4.65,4.65,0,0,1-.3.5l-.06.11-.29.44a2.29,2.29,0,0,1-.64.69c-.31.17-.66.07-1-.29a6,6,0,0,1-.94-1.17c-.25-.41-.67-1.17-1.27-2.27l-.56-1.15-.44.24-.53.33a5.59,5.59,0,0,1-.56.34l.25-1.42.07-.39.05-.39.47-.19-.37-.79L134,170l.38-.68.28-.49.27-.49,1,2,.91-.5a4.38,4.38,0,0,0,.54-.33Z"/><path class="cls-1" d="M138.22,178.09a1.22,1.22,0,0,1-.86-.43,5.68,5.68,0,0,1-1-1.2c-.25-.42-.67-1.16-1.28-2.28l-.47-1-.27.15-.52.32c-.23.15-.42.27-.57.35l-.34.19.38-2.2.06-.5.4-.15-.33-.69,1.52-2.75,1,2.18.74-.4.53-.32.65-.45.51-.35-.23.58c-.17.44-.33.86-.45,1.23s-.23.79-.32,1.22l0,.08-.5.28.53,1c.24.44.41.76.52.94l.26.49.36.45a1.38,1.38,0,0,0,.44.44.42.42,0,0,0,.29,0,.82.82,0,0,0,.22-.08.62.62,0,0,0,.17-.15l.11-.12.57.38-.4.81a5.31,5.31,0,0,1-.32.53l0,.09-.31.46a2.18,2.18,0,0,1-.7.74A.82.82,0,0,1,138.22,178.09Zm-3.41-5.41.64,1.33c.59,1.09,1,1.85,1.26,2.25a5.64,5.64,0,0,0,.91,1.13c.47.46.73.31.82.26A1.79,1.79,0,0,0,139,177l.34-.54a4.05,4.05,0,0,0,.3-.5l.26-.51,0,0a.66.66,0,0,1-.16.11,1.36,1.36,0,0,1-.3.11.79.79,0,0,1-.56-.06,1.9,1.9,0,0,1-.57-.55l-.37-.48-.29-.51-.51-.94-.72-1.32.69-.38c.09-.4.19-.8.31-1.16s.16-.45.24-.69l-.15.1c-.21.13-.39.25-.56.34l-1.08.59-.9-1.88-1.08,1.94.42.88-.56.22-.1.68-.18,1,.2-.13.54-.33Z"/><path class="cls-1" d="M148.34,164.18a3.66,3.66,0,0,1,1.17,1,3,3,0,0,1,.56,1.44,8.24,8.24,0,0,1-.23,2.53,3.8,3.8,0,0,1-1.41,2.49,2.19,2.19,0,0,1-1.93.39,5.16,5.16,0,0,1-1.47-.58,3.31,3.31,0,0,1-.74-.7,2.14,2.14,0,0,1-.44-1.13,3.93,3.93,0,0,1,.19-1.32c.14-.49.25-.82.32-1a3.42,3.42,0,0,1,.17-.4l.18.58a3.46,3.46,0,0,0,.47,1,4.43,4.43,0,0,0,.89.81,2.39,2.39,0,0,0,1.88.34l.34-.06a1.35,1.35,0,0,0,.5-.23c.52-.38.58-.91.18-1.61a6.22,6.22,0,0,0-.65-.74,4.13,4.13,0,0,0-1.06-.63,3.11,3.11,0,0,0-1.54-.3,2.74,2.74,0,0,0-1.48.53l-.17.13-.17.12-.21.29-.21-.2.26-.75a4.78,4.78,0,0,1,1.37-2,2.24,2.24,0,0,1,1.36-.48,4.09,4.09,0,0,1,1.08.11A3.2,3.2,0,0,1,148.34,164.18Z"/><path class="cls-1" d="M147.09,172.31a2.41,2.41,0,0,1-.64-.09,5.15,5.15,0,0,1-1.53-.61,3.24,3.24,0,0,1-.78-.74,2.3,2.3,0,0,1-.47-1.23,4,4,0,0,1,.19-1.38,9.79,9.79,0,0,1,.32-1c.07-.17.13-.31.18-.41l.06-.12-.07,0L144,167l-.32.44-.45-.43.3-.87A5.12,5.12,0,0,1,145,164a2.54,2.54,0,0,1,1.48-.5h0a4.13,4.13,0,0,1,1.14.11,3.5,3.5,0,0,1,.83.38,4.09,4.09,0,0,1,1.22,1,3.37,3.37,0,0,1,.6,1.53,8.54,8.54,0,0,1-.23,2.59,4.12,4.12,0,0,1-1.48,2.61A2.47,2.47,0,0,1,147.09,172.31Zm-2.59-4.85c-.06.18-.16.48-.28.91a3.73,3.73,0,0,0-.18,1.25,2,2,0,0,0,.41,1,2.87,2.87,0,0,0,.69.65,5,5,0,0,0,1.41.56,2,2,0,0,0,1.77-.36,3.73,3.73,0,0,0,1.34-2.38,8.49,8.49,0,0,0,.23-2.47,2.84,2.84,0,0,0-.54-1.35,3.61,3.61,0,0,0-1.1-1h0a3.45,3.45,0,0,0-.75-.34,4.2,4.2,0,0,0-1-.1h0a2.09,2.09,0,0,0-1.25.44,4.62,4.62,0,0,0-1.31,1.93l-.16.47,0,0,.34-.25a3,3,0,0,1,1.58-.57,3.33,3.33,0,0,1,1.63.32,4.25,4.25,0,0,1,1.1.66,5.25,5.25,0,0,1,.68.77c.58,1,.2,1.57-.22,1.88a1.92,1.92,0,0,1-.56.26l-.36.06a2.58,2.58,0,0,1-2-.38,5.09,5.09,0,0,1-.92-.84,3.75,3.75,0,0,1-.5-1.06Zm.12-.87.27.86a3.45,3.45,0,0,0,.44.94,4.66,4.66,0,0,0,.85.77,2.18,2.18,0,0,0,1.74.3l.34-.05a1.25,1.25,0,0,0,.42-.2c.27-.2.59-.56.13-1.36a4.82,4.82,0,0,0-.62-.7,4,4,0,0,0-1-.6,3,3,0,0,0-1.45-.28A2.51,2.51,0,0,0,144.62,166.59Z"/><path class="cls-1" d="M151.29,154.25l-.14.62-.08.65,0,.25-.1.66-.31,0a3.91,3.91,0,0,0-.9,0,1.2,1.2,0,0,0-.61.22.57.57,0,0,0-.11.77,5.34,5.34,0,0,0,.54.87c.2.27.46.59.79,1l.33.39.15.17c.19-.17.39-.36.6-.58s.44-.45.67-.71l.18-.18.19-.22v2.15l-.59.66.89.92.42.49a13.31,13.31,0,0,0,1.05,1.07l.95.85-.1.46-.17.5-.51,1.72-.34-.39-.21-.24-2.94-3.13-.73-.85c-.24.23-.48.46-.74.68l-.44.39a5.32,5.32,0,0,1-.47.36l-.18-.4-.15-.38-.17-.37-.19-.4.36-.25.39-.28.32-.21.29-.26-.44-.52a3.15,3.15,0,0,1-.59-1.2,5.39,5.39,0,0,1,0-1.3c0-.51.07-.87.1-1.07s.09-.46.16-.77a5.32,5.32,0,0,1,.22-.77,1.79,1.79,0,0,1,.31-.52,2.26,2.26,0,0,1,.3-.31,1.67,1.67,0,0,1,.5-.32l.76-.17a3.17,3.17,0,0,1,.66-.1Z"/><path class="cls-1" d="M154.47,167.33l-.77-.89-2.94-3.13-.6-.69-.6.55-.45.38c-.16.14-.32.26-.48.38l-.19.13-.85-1.9,1.2-.84.14-.12-.32-.37a3.33,3.33,0,0,1-.63-1.3,5.18,5.18,0,0,1,0-1.34c0-.53.07-.89.11-1.09s.08-.46.15-.78a5.73,5.73,0,0,1,.23-.8,2,2,0,0,1,.34-.57,3.92,3.92,0,0,1,.32-.34,1.72,1.72,0,0,1,.57-.34l.78-.19a2.8,2.8,0,0,1,.71-.09h0l.32.16-.17.76-.25,1.73-.5,0a3.45,3.45,0,0,0-.84,0,1,1,0,0,0-.52.17c-.12.1-.21.24-.06.55a5.92,5.92,0,0,0,.52.84c.2.26.46.58.78.95l.36.41.45-.44.66-.7.19-.2.51-.58v2.73l-.52.57.76.8.43.49a10.45,10.45,0,0,0,1,1.06c.36.33.67.61.94.84l.09.08-.13.57-.17.52Zm-4.29-5.26.86,1,3.26,3.51.42-1.4.17-.5.07-.34-.87-.77a13.73,13.73,0,0,1-1.06-1.09l-.42-.49-1-1,.65-.73v-.48l0-.27v-.84l0,0-.66.7a8.32,8.32,0,0,1-.62.59l-.14.12-.6-.69c-.33-.38-.6-.7-.8-1a5.9,5.9,0,0,1-.56-.9.78.78,0,0,1,.15-1,1.62,1.62,0,0,1,.71-.26,4.26,4.26,0,0,1,.94,0l.14,0,.2-1.38.1-.49c-.09,0-.26,0-.55.09l-.75.18a1.55,1.55,0,0,0-.43.27c-.06.06-.16.16-.28.3a1.49,1.49,0,0,0-.28.46,6.5,6.5,0,0,0-.21.74c-.07.32-.12.56-.15.76s-.07.54-.11,1.06a5.36,5.36,0,0,0,0,1.24,3.07,3.07,0,0,0,.55,1.14l.56.64-.44.38-1,.67.29.62.24.57.27-.21.44-.39.73-.67Z"/><path class="cls-1" d="M166.32,151.94l0,.65a14.42,14.42,0,0,1-.15,1.54,6.63,6.63,0,0,1-.32,1.14,3.8,3.8,0,0,1-.42.57l-.14.16c-.08.06-.27.25-.58.55a4.27,4.27,0,0,1-1.67.84,4.8,4.8,0,0,1-2.12.23,11,11,0,0,1-1.38-.3,6.62,6.62,0,0,1-.91-.4,4.64,4.64,0,0,1-.89-.62,4.58,4.58,0,0,1-.82-.94,4.63,4.63,0,0,1-.5-1l-.26-.79q0-.25-.09-.54a5.1,5.1,0,0,1-.05-.77,13.27,13.27,0,0,1,.13-1.34,7.1,7.1,0,0,1,.56-1.89,6.22,6.22,0,0,1,1-1.66,4.15,4.15,0,0,1,.84-.79,1.61,1.61,0,0,1,.68-.28.59.59,0,0,1,.45.08.54.54,0,0,1,.16.39c0,.18,0,.43,0,.76s0,.61-.06.85l-.07.54a2.12,2.12,0,0,0-1.2.29,3.46,3.46,0,0,0-1,.8,2.3,2.3,0,0,0-.06,2.89c.27.3.44.48.5.53l.15.13c.17.14.37.29.62.46a13.21,13.21,0,0,0,1.83.79,3.23,3.23,0,0,0,2.9-.28,7.87,7.87,0,0,0,2-1.49,5.39,5.39,0,0,0,.73-1.1Z"/><path class="cls-1" d="M161.42,157.84a3.48,3.48,0,0,1-.57,0,9.45,9.45,0,0,1-1.41-.31,5.53,5.53,0,0,1-.94-.4,5,5,0,0,1-.92-.65,4.24,4.24,0,0,1-.86-1,4.57,4.57,0,0,1-.52-1.07l-.26-.79v0c0-.17-.05-.34-.08-.52a4.47,4.47,0,0,1-.06-.81c0-.33.05-.77.13-1.37a8.26,8.26,0,0,1,.57-1.93,6.72,6.72,0,0,1,1-1.71,4.58,4.58,0,0,1,.87-.83,1.7,1.7,0,0,1,.76-.3.73.73,0,0,1,.6.12.67.67,0,0,1,.22.52c0,.2,0,.45,0,.77s0,.63-.06.86l-.09.73-.19,0a2,2,0,0,0-1.09.27,3.45,3.45,0,0,0-1,.76,2.12,2.12,0,0,0-.06,2.64,6,6,0,0,0,.49.52l.14.12a4.6,4.6,0,0,0,.61.45,13,13,0,0,0,1.79.78,3,3,0,0,0,2.74-.27,7.71,7.71,0,0,0,2-1.45,5.49,5.49,0,0,0,.7-1.07l.06-.12.57.07-.06.83a13.44,13.44,0,0,1-.14,1.57,8.89,8.89,0,0,1-.33,1.17l0,0a4.67,4.67,0,0,1-.44.58l-.16.19a5.81,5.81,0,0,0-.57.54,4.4,4.4,0,0,1-1.75.88A5.65,5.65,0,0,1,161.42,157.84Zm-5.12-4.34c.07.19.15.44.26.77a4.48,4.48,0,0,0,.48,1,4.43,4.43,0,0,0,.78.9,5.39,5.39,0,0,0,.86.6,5.7,5.7,0,0,0,.88.38,10.2,10.2,0,0,0,1.35.29,4.55,4.55,0,0,0,2-.22,4.14,4.14,0,0,0,1.59-.79c.3-.29.49-.48.59-.56l.13-.14a4.8,4.8,0,0,0,.39-.53,5.47,5.47,0,0,0,.3-1.09,14.2,14.2,0,0,0,.15-1.52l0-.38a5.66,5.66,0,0,1-.64.93,8,8,0,0,1-2.06,1.54,3.46,3.46,0,0,1-3.07.29,12.44,12.44,0,0,1-1.86-.82,6.28,6.28,0,0,1-.64-.47l-.15-.12s-.1-.09-.52-.55a2.33,2.33,0,0,1-.53-1.44,2.3,2.3,0,0,1,.58-1.7,3.87,3.87,0,0,1,1.1-.85,2.46,2.46,0,0,1,1.13-.32l.05-.37c0-.22,0-.49.05-.83s0-.58,0-.76a.4.4,0,0,0-.09-.24.53.53,0,0,0-.31,0,1.35,1.35,0,0,0-.6.24,4.12,4.12,0,0,0-.79.76,6.19,6.19,0,0,0-1,1.62,7,7,0,0,0-.54,1.83,13.13,13.13,0,0,0-.13,1.33,3.56,3.56,0,0,0,.05.72C156.26,153.15,156.28,153.33,156.3,153.5Z"/><path class="cls-1" d="M172.76,143.56l0,.59v.59l0,.66v.65a9.34,9.34,0,0,0-.92-.57c-.29-.16-.68-.37-1.16-.61s-.88-.43-1.18-.55a6.82,6.82,0,0,0-1-.31.7.7,0,0,0-.8.25,1.14,1.14,0,0,0-.16.73c0,.29.05.52.07.69s.07.43.14.76.24.93.52,1.78a10,10,0,0,0,1.3,2.6l-.33.24-.65-.51-.73-.53-2.18-1.46-2-1.31-.35-.23-1.3-.73a5.82,5.82,0,0,0-.79-.46,7.55,7.55,0,0,0-.72-.24.52.52,0,0,0-.61.17,1.59,1.59,0,0,0-.18.57v.17l-.29-.1a2.15,2.15,0,0,1,0-.71c0-.47,0-1,0-1.54v-.32l0-.34.07-.45a.5.5,0,0,1,.08-.2c.25-.38.68-.38,1.27,0l1,.66,1,.58,3,2,1.33.9-.21-.82c-.26-.94-.42-1.55-.48-1.84s-.14-.68-.21-1.17a7.38,7.38,0,0,1-.09-1.23,1.36,1.36,0,0,1,.16-.73.67.67,0,0,1,.75-.23,6,6,0,0,1,1.22.36c.46.18,1.07.46,1.83.83l.89.48.59.34.52.3Z"/><path class="cls-1" d="M169.19,151.29l-.76-.59-.72-.53-4.48-3-1.29-.72a4.41,4.41,0,0,0-1.46-.69c-.26-.07-.35,0-.41.1a1.33,1.33,0,0,0-.16.49v.4l-.54-.18c-.17,0-.18-.18-.16-.9,0-.47,0-1,0-1.53l0-.67.07-.47a.82.82,0,0,1,.11-.28c.22-.33.67-.61,1.54,0,.36.25.7.46,1,.65s.63.39,1,.58l3.9,2.61-.08-.33c-.26-.94-.42-1.56-.49-1.85s-.13-.69-.21-1.18a7.83,7.83,0,0,1-.09-1.27,1.64,1.64,0,0,1,.19-.83.88.88,0,0,1,1-.31,6.51,6.51,0,0,1,1.25.37c.46.18,1.08.47,1.84.84l.9.48,1.11.65.71.33,0,.72v.58l0,.66v1l-.29-.2c-.32-.21-.63-.4-.92-.56s-.68-.37-1.15-.6a11.67,11.67,0,0,0-1.16-.54,5.71,5.71,0,0,0-1-.3c-.38-.09-.52.05-.6.17a.87.87,0,0,0-.13.6c0,.29.05.51.07.69s.07.42.14.75.24.92.5,1.75a10.32,10.32,0,0,0,1.28,2.55l.1.16Zm-8.89-5.92a.93.93,0,0,1,.27,0,4.87,4.87,0,0,1,.74.25,5.87,5.87,0,0,1,.83.48l1.29.72,4.49,3,.74.54.54.42.07,0a10,10,0,0,1-1.22-2.49,18.51,18.51,0,0,1-.52-1.8c-.07-.33-.12-.59-.14-.77s0-.42-.07-.71a1.27,1.27,0,0,1,.18-.84.88.88,0,0,1,1-.33,6.31,6.31,0,0,1,1,.32,12.11,12.11,0,0,1,1.19.55l1.17.61c.2.11.42.24.64.39v-.3l0-.67v-.58l0-.47-.49-.24L171,142.8l-.89-.48c-.75-.37-1.36-.65-1.81-.83a6.53,6.53,0,0,0-1.18-.35c-.37-.06-.5.06-.56.15a1.14,1.14,0,0,0-.13.63,7.06,7.06,0,0,0,.09,1.2c.07.49.14.88.2,1.16s.23.9.48,1.83l.34,1.3-4.72-3.16-1-.57-1-.66c-.74-.49-.94-.19-1-.08a.21.21,0,0,0,0,.13l-.07.45,0,.64c0,.55,0,1.07,0,1.54v.38a1.27,1.27,0,0,1,.17-.42A.62.62,0,0,1,160.3,145.37Z"/><path class="cls-1" d="M172.4,133.74l.1.46.09.48.21,1.44a1.56,1.56,0,0,0-.81-.06l-.47.17a.39.39,0,0,0-.18.2.6.6,0,0,0,.13.72,4.43,4.43,0,0,0,.57.54,8.51,8.51,0,0,0,.77.45l.89.47.85.45.47.25,0,.52.07.51.06.73.06.76-.79-.42-.81-.43-.25-.14c-.61-.32-1.24-.61-1.9-.88a7.57,7.57,0,0,0-1.45-.46c-.31,0-.51,0-.61.21a1.49,1.49,0,0,0-.08.38l0,.2H169l-.27-3.17a.49.49,0,0,1,.05-.27.61.61,0,0,1,.26-.24.56.56,0,0,1,.29-.06,2,2,0,0,1,.48.16l.44.18.06,0,.57.3-.52-2.26,0-.16a1.7,1.7,0,0,1,0-.89c.12-.23.55-.32,1.31-.29A2.44,2.44,0,0,1,172.4,133.74Z"/><path class="cls-1" d="M175.46,142.16,173.3,141a19,19,0,0,0-1.88-.87,7,7,0,0,0-1.41-.45c-.33-.05-.39.07-.41.11a.72.72,0,0,0-.06.29l.05.39-.79,0-.29-3.33a.63.63,0,0,1,.08-.37.7.7,0,0,1,.33-.33.89.89,0,0,1,.4-.08,2,2,0,0,1,.53.17l.51.22.21.11-.46-2a1.75,1.75,0,0,1,0-1c.16-.3.63-.42,1.49-.39a2.31,2.31,0,0,1,.82.15l.1,0,.21,1,.27,1.83-.33-.18a1.36,1.36,0,0,0-.67,0l-.44.15a.36.36,0,0,0-.1.11.42.42,0,0,0,.11.51,3.94,3.94,0,0,0,.54.51,7.56,7.56,0,0,0,.74.44l2.31,1.23,0,.62.07.5Zm-5.59-2.86h.19a8,8,0,0,1,1.5.48,18.6,18.6,0,0,1,1.92.89l1.54.82-.09-1.14-.07-.51,0-.42-2.12-1.13a7.73,7.73,0,0,1-.79-.46,4.94,4.94,0,0,1-.6-.57.77.77,0,0,1-.16-.93.64.64,0,0,1,.24-.27l0,0,.53-.18a2.88,2.88,0,0,1,.59,0l-.17-1.17-.16-.81a1.86,1.86,0,0,0-.6-.09c-1,0-1.13.15-1.15.18a1.41,1.41,0,0,0,0,.78l.65,2.81-1-.53-.42-.17a1.71,1.71,0,0,0-.43-.14.46.46,0,0,0-.36.2.25.25,0,0,0,0,.17l.25,3h0v0a1.26,1.26,0,0,1,.1-.46A.63.63,0,0,1,169.87,139.3Z"/><path class="cls-1" d="M170.47,129l.39,1.72a1.05,1.05,0,0,1-.09.63,2.08,2.08,0,0,1-.2.33,1.12,1.12,0,0,1-.33.28,2.08,2.08,0,0,1-.6.17h-.22c-.16-.55-.29-1.12-.4-1.7l-.07-.61.31-.12a3.25,3.25,0,0,0,.75-.29A1.75,1.75,0,0,0,170.47,129Zm7.56,3.64a17.25,17.25,0,0,0,.44,2.7l-1.29-.57-1.12-.5-2.15-.8c-.76-.34-1.23-.3-1.41.11a1.51,1.51,0,0,0-.1.46v.16l-.39.08-.08-1c-.06-.4-.13-.81-.2-1.22s-.12-.71-.15-.86a.71.71,0,0,1,0-.37,2.7,2.7,0,0,1,.16-.23.49.49,0,0,1,.43-.2,2.35,2.35,0,0,1,.92.26l2.3.91Z"/><path class="cls-1" d="M178.74,135.62,176,134.39l-2.13-.79a2,2,0,0,0-.85-.22.38.38,0,0,0-.33.23,1.16,1.16,0,0,0-.08.4v.29l-.74.16-.09-1.24c-.06-.38-.13-.79-.21-1.2s-.12-.71-.14-.86a.78.78,0,0,1,0-.47,1.21,1.21,0,0,1,.17-.27.7.7,0,0,1,.58-.28,2.45,2.45,0,0,1,1,.28l2.29.91,2.72,1.13v.12a17.87,17.87,0,0,0,.43,2.67ZM173.06,133a2.49,2.49,0,0,1,.93.25l2.14.79,2.07.92a19.28,19.28,0,0,1-.35-2.24l-2.5-1-2.3-.91a2.26,2.26,0,0,0-.84-.26c-.21,0-.27.1-.29.13a2,2,0,0,0-.14.2.58.58,0,0,0,0,.26c0,.15.07.44.15.85s.14.83.2,1.23l.07.82h0a1.6,1.6,0,0,1,.12-.54A.71.71,0,0,1,173,133Zm-3.78-.72,0-.14a14.91,14.91,0,0,1-.4-1.72l-.1-.76.45-.17a3.57,3.57,0,0,0,.72-.28,1.44,1.44,0,0,0,.41-.38l.25-.3.47,2.1a1.15,1.15,0,0,1-.1.75,1.84,1.84,0,0,1-.22.36,1.12,1.12,0,0,1-.4.34,2.22,2.22,0,0,1-.65.19Zm-.13-2.38.06.46a14.25,14.25,0,0,0,.35,1.53h.08a1.47,1.47,0,0,0,.51-.15.73.73,0,0,0,.27-.22,1.17,1.17,0,0,0,.17-.3.72.72,0,0,0,.08-.5l-.31-1.38a1.15,1.15,0,0,1-.26.19,3.33,3.33,0,0,1-.79.32Z"/><path class="cls-1" d="M174.89,123.48a2.52,2.52,0,0,1,.49-.25.53.53,0,0,1,.35,0,.51.51,0,0,1,.29.27,3.74,3.74,0,0,1,.25.67l.09.34,0,.25,0,.18.08.39a1.51,1.51,0,0,0-.87.26,1.63,1.63,0,0,0-.56.8,1.59,1.59,0,0,0-.09.2l-.05.13a1.22,1.22,0,0,0-.06.33c0,.13.06.23.24.29a.37.37,0,0,0,.29,0,.94.94,0,0,0,.28-.1,3.9,3.9,0,0,0,.37-.26,3.41,3.41,0,0,0,.38-.35,5.27,5.27,0,0,0,.31-.44l.8-1.26a2.94,2.94,0,0,1,.54-.53,1,1,0,0,1,1-.16,1.74,1.74,0,0,1,.82.75,7,7,0,0,1,.69,1.52,10,10,0,0,1,.4,1.34,2.88,2.88,0,0,1,0,.83,3.4,3.4,0,0,1-.17.83,3,3,0,0,1-.2.41,1.84,1.84,0,0,1-.38.5,1.48,1.48,0,0,1-.67.35,1.09,1.09,0,0,1-.64,0,.8.8,0,0,1-.46-.49,8.48,8.48,0,0,1-.34-1.32l0-.06-.09-.43a1.69,1.69,0,0,0,.71.08,1.2,1.2,0,0,0,.71-.37,2.72,2.72,0,0,0,.58-1c.16-.45.11-.72-.16-.82a1.19,1.19,0,0,0-.45,0,1.37,1.37,0,0,0-.72.34,3.94,3.94,0,0,0-.85,1.11l-.39.7-.08.12-.17.22c-.54.59-1,.8-1.48.64a1.34,1.34,0,0,1-.72-.65,6,6,0,0,1-.36-.78q-.1-.3-.45-1.53a3.44,3.44,0,0,1,0-2.2A1.5,1.5,0,0,1,174.89,123.48Z"/><path class="cls-1" d="M179.23,131a1,1,0,0,1-.31-.05,1,1,0,0,1-.57-.6A6.93,6.93,0,0,1,178,129l-.16-.71-.25.43-.17.23c-.61.66-1.18.89-1.7.71a1.48,1.48,0,0,1-.83-.75,8.15,8.15,0,0,1-.37-.8c-.06-.2-.21-.69-.45-1.54a3.67,3.67,0,0,1,0-2.32,1.78,1.78,0,0,1,.72-.92h0a3,3,0,0,1,.53-.27.75.75,0,0,1,.47,0,.73.73,0,0,1,.4.36,4.11,4.11,0,0,1,.26.7l.09.35.21,1.06h-.23a1.36,1.36,0,0,0-.76.23,1.34,1.34,0,0,0-.49.7.78.78,0,0,0-.09.2l-.05.13a1.45,1.45,0,0,0-.06.29s0,.05.12.09a.23.23,0,0,0,.16,0,1.09,1.09,0,0,0,.26-.1,2.24,2.24,0,0,0,.34-.24,3.06,3.06,0,0,0,.36-.33,3.54,3.54,0,0,0,.28-.41l.81-1.26a2.79,2.79,0,0,1,.58-.57,1.1,1.1,0,0,1,1.17-.19,1.86,1.86,0,0,1,.92.82,6.93,6.93,0,0,1,.71,1.56,11.76,11.76,0,0,1,.41,1.36,3.31,3.31,0,0,1,0,.89,3.22,3.22,0,0,1-.19.87,3.11,3.11,0,0,1-.2.44,2.08,2.08,0,0,1-.42.54,1.71,1.71,0,0,1-.75.41A1.85,1.85,0,0,1,179.23,131Zm-.91-2.28,0,.19a7.13,7.13,0,0,0,.34,1.3.64.64,0,0,0,.34.39,1,1,0,0,0,.54,0,1.35,1.35,0,0,0,.58-.31,2.17,2.17,0,0,0,.35-.44,4,4,0,0,0,.18-.4,3.42,3.42,0,0,0,.17-.77,3,3,0,0,0-.05-.79,11.15,11.15,0,0,0-.39-1.31,6.89,6.89,0,0,0-.67-1.48,1.55,1.55,0,0,0-.72-.67.76.76,0,0,0-.81.13,3.61,3.61,0,0,0-.51.48l-.8,1.26a4,4,0,0,1-.32.46,3,3,0,0,1-.4.37,2.31,2.31,0,0,1-.4.28,1.2,1.2,0,0,1-.33.13.52.52,0,0,1-.39,0c-.36-.13-.39-.37-.37-.5a1.43,1.43,0,0,1,.07-.36l0-.14c0-.06.06-.13.1-.22a1.71,1.71,0,0,1,.63-.86,1.52,1.52,0,0,1,.74-.28l-.12-.61-.09-.33a2.77,2.77,0,0,0-.23-.63.37.37,0,0,0-.18-.19.37.37,0,0,0-.23,0,1.91,1.91,0,0,0-.45.23,1.41,1.41,0,0,0-.58.73,3.46,3.46,0,0,0,0,2.09c.24.84.39,1.33.45,1.52a6.28,6.28,0,0,0,.35.75,1.1,1.1,0,0,0,.62.56c.36.13.79-.07,1.28-.59l.21-.31.4-.69a4,4,0,0,1,.9-1.17,1.51,1.51,0,0,1,.81-.38,1.35,1.35,0,0,1,.53,0,.53.53,0,0,1,.32.28,1.06,1.06,0,0,1,0,.79,2.7,2.7,0,0,1-.62,1.07,1.4,1.4,0,0,1-.82.41A1.55,1.55,0,0,1,178.32,128.72Zm-.44-.52.25.09a1.48,1.48,0,0,0,.63.07,1,1,0,0,0,.6-.31,2.5,2.5,0,0,0,.53-.93.74.74,0,0,0,.06-.5.17.17,0,0,0-.1-.08,1.1,1.1,0,0,0-.38,0,1.18,1.18,0,0,0-.61.3,3.78,3.78,0,0,0-.8,1.06Z"/><path class="cls-1" d="M176.69,116.21c.2.43.39.82.59,1.18a9.59,9.59,0,0,0,.66,1.09l-.18.66.21.06,1.06.28,1,.29.44.12.09,0,.61.06a1.54,1.54,0,0,0,.7,0,.64.64,0,0,0,.33-.27,2.17,2.17,0,0,0,.12-.26.88.88,0,0,0,0-.29l.35-.07c.12.32.2.55.25.69a4.49,4.49,0,0,1,.15.57l0,.11.12.53a2.25,2.25,0,0,1,.06.93c-.1.34-.41.53-.94.55a5.59,5.59,0,0,1-1.49-.13c-.47-.1-1.31-.32-2.52-.65l-1.21-.4-.13.49a5.85,5.85,0,0,0-.13.61c0,.28-.1.49-.14.64l-.85-1.17-.25-.32-.24-.3.19-.47-.82-.28-.24-.74-.23-.74-.16-.54-.17-.54,2.14.7.27-1c.05-.18.09-.39.14-.63S176.64,116.49,176.69,116.21Z"/><path class="cls-1" d="M176.86,123.43l-1.33-1.8-.31-.39.16-.39-.72-.24-.93-3,2.29.75.22-.8c0-.18.09-.38.13-.61s.09-.49.13-.77l.1-.62.26.57c.2.42.39.82.58,1.18a11.5,11.5,0,0,0,.66,1.07l0,.07L178,119l2.66.72.58.06a1.42,1.42,0,0,0,.61,0,.39.39,0,0,0,.23-.18.84.84,0,0,0,.1-.22.62.62,0,0,0,0-.22V119l.67-.14.31.85a5.61,5.61,0,0,1,.16.59l0,.09.12.54a2.38,2.38,0,0,1,.06,1c-.08.29-.34.66-1.11.69a5.93,5.93,0,0,1-1.54-.14c-.47-.1-1.3-.32-2.53-.65l-1-.34-.08.3c0,.12-.08.33-.13.59s-.1.5-.14.66Zm-1.21-2.25.43.54.61.84c0-.08,0-.15,0-.24.05-.27.1-.48.14-.62l.18-.68,1.4.46c1.22.33,2,.54,2.5.65a5.69,5.69,0,0,0,1.45.12c.65,0,.73-.32.75-.41a1.88,1.88,0,0,0-.06-.84l-.15-.62a3,3,0,0,0-.15-.56l-.19-.54h0a1,1,0,0,1,0,.19,1.71,1.71,0,0,1-.14.3.79.79,0,0,1-.42.36,1.83,1.83,0,0,1-.8,0l-.6-.06-1.6-.43-1.45-.4.2-.75c-.23-.35-.44-.7-.62-1s-.22-.42-.33-.65a1.29,1.29,0,0,0,0,.19c0,.24-.09.45-.14.64l-.32,1.18-2-.65.66,2.12.93.31Z"/><polygon class="cls-1" points="84.87 32.04 84.87 82.85 32.52 83.16 32.52 86.31 52.04 86.14 52.5 87.88 22.65 88.02 17.6 90.33 22.88 92.42 51.58 92.22 51.81 94.1 28.39 94.52 28.39 97.32 84.53 97.32 84.41 157.21 88.09 157.32 88.09 125.11 89.69 124.92 90.15 168.75 93.23 174.99 96.36 168.72 96.14 123.99 97.93 124.22 97.96 163.5 101.06 163.36 100.94 97.25 152.83 97.46 152.83 94.31 126.56 94.03 127 92.68 163.62 92.42 169.82 90.12 164.08 87.6 125.85 87.57 125.85 85.68 158.57 85.68 158.57 82.99 101.06 82.85 101.17 37.91 97.61 37.88 97.71 60.03 96.14 58.69 96.12 25.96 93.36 21.56 90.61 25.96 90.38 58.88 88.77 58.46 88.66 31.9 84.87 32.04"/><path class="cls-1" d="M93.23,175.36,90,168.75l-.46-43.64-1.28.15v32.23l-4-.12.11-59.89H28.23V94.36l23.39-.42-.19-1.56-28.58.21-5.67-2.25,5.47-2.48,29.63-.14-.37-1.42-19.55.17V83l52.35-.31V31.88l4.11-.15.12,26.6,1.28.33.23-32.75,2.91-4.66,2.92,4.66V26l0,32.65,1.23,1.06-.09-22,3.89,0-.12,44.93,57.51.15v3H126V87.4l38.09,0,6.15,2.69-6.64,2.46-36.5.26-.34,1,26.21.29v3.47l-51.88-.21.11,66.11-3.43.15,0-39.31-1.46-.18.22,44.58Zm-2.92-6.65,2.92,5.91,3-5.93L96,123.81l2.11.26,0,39.26,2.77-.12-.11-66.13,51.89.21V94.47l-26.34-.28.56-1.67,36.7-.26,5.79-2.15-5.33-2.34-38.36,0V85.51H158.4V83.15L100.89,83,101,38.07l-3.23,0,.09,22.35L96,58.76v-.07L96,26l-2.6-4.14L90.77,26l-.23,33.08-1.93-.5-.12-26.52L85,32.2V83l-52.34.32v2.81L52.16,86,52.71,88l-30,.15L18,90.32l4.89,1.94,28.81-.21L52,94.26l-23.44.42v2.47H84.69l-.11,59.9,3.34.1V125l1.93-.23Z"/><polygon class="cls-1" points="92.78 75.92 95.53 83.66 102.95 80.13 99.42 87.55 107.16 90.3 99.42 93.05 102.95 100.46 95.53 96.94 92.78 104.67 90.03 96.94 82.62 100.46 86.14 93.05 78.41 90.3 86.14 87.55 82.62 80.13 90.03 83.66 92.78 75.92"/><path class="cls-2" d="M92.78,105.67,89.84,97.4l-7.93,3.77,3.77-7.93L77.41,90.3l8.27-3-3.77-7.93,7.93,3.77,2.94-8.27,2.94,8.27,7.93-3.77-3.77,7.93,8.28,3-8.28,2.94,3.77,7.93L95.72,97.4Zm-2.56-9.2,2.56,7.2,2.56-7.2,6.9,3.28L99,92.85l7.19-2.55L99,87.74l3.28-6.9-6.9,3.28-2.56-7.2-2.56,7.2-6.9-3.28,3.28,6.9L79.41,90.3l7.19,2.55-3.28,6.9Z"/><polygon class="cls-1" points="93.12 114.22 95.75 121.62 102.84 118.25 99.47 125.34 106.87 127.98 99.47 130.61 102.84 137.7 95.75 134.33 93.12 141.73 90.48 134.33 83.39 137.7 86.76 130.61 79.36 127.98 86.76 125.34 83.39 118.25 90.48 121.62 93.12 114.22"/><path class="cls-2" d="M93.12,142.73l-2.83-7.94-7.61,3.62,3.62-7.61L78.36,128l7.94-2.83-3.62-7.61,7.61,3.62,2.83-7.94,2.82,7.94,7.61-3.62-3.62,7.61,7.94,2.83-7.94,2.82,3.62,7.61-7.61-3.62Zm-2.44-8.86,2.44,6.86,2.44-6.86,6.58,3.13L99,130.42l6.86-2.44L99,125.54l3.13-6.58-6.58,3.13-2.44-6.87-2.44,6.87L84.1,119l3.13,6.58L80.36,128l6.87,2.44L84.1,137Z"/><polygon class="cls-1" points="49.84 76.09 52.48 83.49 59.57 80.12 56.2 87.22 63.6 89.85 56.2 92.48 59.57 99.57 52.48 96.2 49.84 103.6 47.21 96.2 40.12 99.57 43.49 92.48 36.09 89.85 43.49 87.22 40.12 80.12 47.21 83.49 49.84 76.09"/><path class="cls-2" d="M49.84,104.6,47,96.66l-7.61,3.62L43,92.67l-7.94-2.82L43,87l-3.62-7.61L47,83l2.82-7.94L52.67,83l7.61-3.62L56.66,87l7.94,2.83-7.94,2.82,3.62,7.61-7.61-3.62ZM47.4,95.74l2.44,6.86,2.44-6.86,6.58,3.13-3.12-6.58,6.86-2.44-6.86-2.44,3.12-6.58L52.28,84l-2.44-6.87L47.4,84l-6.58-3.13L44,87.41l-6.86,2.44L44,92.29l-3.13,6.58Z"/><polygon class="cls-1" points="92.39 39.64 95.02 47.04 102.12 43.67 98.74 50.76 106.15 53.39 98.74 56.03 102.12 63.12 95.02 59.75 92.39 67.15 89.76 59.75 82.66 63.12 86.04 56.03 78.64 53.39 86.04 50.76 82.66 43.67 89.76 47.04 92.39 39.64"/><path class="cls-2" d="M92.39,68.15l-2.82-7.94L82,63.83l3.61-7.61-7.94-2.83,7.94-2.82L82,43l7.61,3.62,2.82-7.94,2.82,7.94L102.82,43l-3.61,7.61,7.94,2.82-7.94,2.83,3.61,7.61-7.61-3.62ZM90,59.29l2.44,6.86,2.44-6.86,6.58,3.12-3.13-6.58,6.86-2.44L98.28,51l3.13-6.57L94.83,47.5l-2.44-6.86L90,47.5l-6.58-3.12L86.5,51l-6.86,2.44,6.86,2.44-3.13,6.58Z"/><polygon class="cls-1" points="132.48 75.7 135.11 83.1 142.2 79.73 138.83 86.83 146.23 89.46 138.83 92.09 142.2 99.19 135.11 95.81 132.48 103.21 129.84 95.81 122.75 99.19 126.12 92.09 118.72 89.46 126.12 86.83 122.75 79.73 129.84 83.1 132.48 75.7"/><path class="cls-2" d="M132.48,104.22l-2.83-7.94L122,99.89l3.62-7.61-7.94-2.82,7.94-2.83L122,79l7.61,3.62,2.83-7.94,2.82,7.94L142.91,79l-3.62,7.61,7.94,2.83-7.94,2.82,3.62,7.61-7.61-3.61ZM130,95.35l2.44,6.86,2.44-6.86,6.58,3.13-3.13-6.58,6.86-2.44L138.37,87l3.13-6.58-6.58,3.13-2.44-6.87L130,83.57l-6.58-3.13L126.59,87l-6.87,2.44,6.87,2.44-3.13,6.58Z"/></g></g></svg>