<svg xmlns="http://www.w3.org/2000/svg" viewBox="0 0 18.56 16.61"><defs><style>.cls-1{fill:#74849e;}</style></defs><title>commentAsset 1</title><g id="Layer_2" data-name="Layer 2"><g id="Layer_1-2" data-name="Layer 1"><path class="cls-1" d="M.49,16.61a.49.49,0,0,1-.25-.91,6.12,6.12,0,0,0,2.58-3.1A6.69,6.69,0,0,1,0,7.33a6,6,0,0,1,.75-2.9,7.59,7.59,0,0,1,2-2.32A10.65,10.65,0,0,1,9.28,0,10.63,10.63,0,0,1,15.8,2.11a7.45,7.45,0,0,1,2,2.32,6,6,0,0,1,.75,2.9,5.93,5.93,0,0,1-.75,2.89,7.38,7.38,0,0,1-2,2.33,10.63,10.63,0,0,1-6.52,2.11,11.45,11.45,0,0,1-2.94-.38A19.89,19.89,0,0,1,4.2,15.52,8.67,8.67,0,0,1,.49,16.61ZM9.28,1C4.7,1,1,3.83,1,7.33A5.82,5.82,0,0,0,3.67,12a.5.5,0,0,1,.19.53,6.71,6.71,0,0,1-1.54,2.72A16.59,16.59,0,0,0,6,13.35a.46.46,0,0,1,.41-.07,10.36,10.36,0,0,0,2.9.4c4.58,0,8.31-2.85,8.31-6.35S13.86,1,9.28,1Z"/></g></g></svg>