<svg xmlns="http://www.w3.org/2000/svg" viewBox="0 0 28.55 18.03"><defs><style>.cls-1{fill:#fff;}</style></defs><title>email-iconAsset 2</title><g id="Layer_2" data-name="Layer 2"><g id="Layer_1-2" data-name="Layer 1"><path class="cls-1" d="M26.29,0h-24A2.25,2.25,0,0,0,0,2.25V15.78A2.25,2.25,0,0,0,2.25,18h24a2.26,2.26,0,0,0,2.26-2.25V2.25A2.26,2.26,0,0,0,26.29,0Zm0,1.5h.13L15.11,9.06a1.71,1.71,0,0,1-1.67,0L2.12,1.51H26.29Zm0,15h-24a.76.76,0,0,1-.75-.75V2.91l11.11,7.4a3,3,0,0,0,1.66.47,3.07,3.07,0,0,0,1.67-.47L27,2.91V15.78A.75.75,0,0,1,26.29,16.53Z"/></g></g></svg>