<svg xmlns="http://www.w3.org/2000/svg" viewBox="0 0 28.34 28.34"><defs><style>.cls-1{fill:#74849e;}</style></defs><title>instagramAsset 3</title><g id="Layer_2" data-name="Layer 2"><g id="Layer_1-2" data-name="Layer 1"><circle class="cls-1" cx="21.68" cy="6.72" r="1.66"/><path class="cls-1" d="M14.29,7.19a7,7,0,1,0,7,7A7,7,0,0,0,14.29,7.19Zm0,11.45a4.47,4.47,0,1,1,4.47-4.47A4.47,4.47,0,0,1,14.29,18.64Z"/><path class="cls-1" d="M19.83,28.34H8.51A8.52,8.52,0,0,1,0,19.83V8.51A8.52,8.52,0,0,1,8.51,0H19.83a8.52,8.52,0,0,1,8.51,8.51V19.83A8.52,8.52,0,0,1,19.83,28.34ZM8.51,2.67A5.85,5.85,0,0,0,2.67,8.51V19.83a5.85,5.85,0,0,0,5.84,5.85H19.83a5.86,5.86,0,0,0,5.85-5.85V8.51a5.86,5.86,0,0,0-5.85-5.84Z"/></g></g></svg>