<svg xmlns="http://www.w3.org/2000/svg" viewBox="0 0 91.2 152"><defs><style>.cls-1{fill:#fff;}</style></defs><title>more-arrowAsset 1</title><g id="Layer_2" data-name="Layer 2"><g id="Layer_1-2" data-name="Layer 1"><path class="cls-1" d="M45.59,152a3.79,3.79,0,0,1-3-1.46,248.82,248.82,0,0,1-21.26-33.32A210.05,210.05,0,0,1,6.72,83.66C2.26,70.08,0,57.27,0,45.6a45.6,45.6,0,0,1,91.2,0c0,11.67-2.26,24.47-6.72,38.06a210.05,210.05,0,0,1-14.63,33.56,250,250,0,0,1-21.26,33.32,3.79,3.79,0,0,1-3,1.46Zm0-144.4a38,38,0,0,0-38,38c0,24.73,11.12,50.65,20.45,68a262.65,262.65,0,0,0,17.55,28.19A259.18,259.18,0,0,0,63.21,113.5C72.5,96.16,83.59,70.28,83.59,45.6A38,38,0,0,0,45.59,7.6Z"/><path class="cls-1" d="M45.59,68.4a22.8,22.8,0,1,1,22.8-22.8A22.83,22.83,0,0,1,45.59,68.4Zm0-38a15.2,15.2,0,1,0,15.2,15.2A15.21,15.21,0,0,0,45.59,30.4Z"/></g></g></svg>