<svg xmlns="http://www.w3.org/2000/svg" viewBox="0 0 27 27.21"><defs><style>.cls-1{fill:#556888;}</style></defs><title>more-arrowAsset 1</title><g id="Layer_2" data-name="Layer 2"><g id="Layer_27" data-name="Layer 27"><path class="cls-1" d="M27,12.16l-1-.45H22.06l-.47-.17.08-.17H25V10.9H21.9l.33-.7-1.35.64-.5-1.4-.5,1.4-1.35-.64.32.69H15l.29-.61-.46.22V7.35l.31.15-.31-.64V6l1.06-.38-1.06-.38V4.42l.3-.62-.3.14v-1h-.63V4.23l-.27.13V.78L13.44,0,13,.78l0,3.2-.17.46-.15-.07V1.83l-.67,0V4l-.52-.24.52,1.08v.31l-1.28.46,1.28.45v.31L11.41,7.5l.52-.25v3.26l-.52-.25.29.61-4.43,0,.3-.64-1.35.64-.5-1.4-.5,1.4-1.35-.64.31.66H2.65v.56l1.79,0,.07.14-.46.16-3.15,0L0,12.2l.94.37,3.38,0,.19.06-.13.29-2.47,0v.5H4.12L3.87,14,5,13.44h.28l.46,1.29.46-1.29h.28L7.57,14l-.25-.52h4.41l-.32.68.46-.22v3.28L11.54,17l.32.67v.79l-1.08.39,1.08.38v.81l-.32.66.32-.15v3.48l.65,0V20.27l.31-.14.06,6,.55,1.1L14,26.1l0-6,.31.14v4.93l.55,0V20.51l.46.22-.46-.95v-.47L16,18.88l-1.22-.44V18l.46-.95-.46.21V13.89l.48.23-.33-.69h3.81l-.21.45.94-.45h.47l.44,1.21.43-1.21h.48l.94.44L22,13.45h2V12.9l-2.25,0-.13-.28,4.29,0ZM12.22,6.08,11,5.65l1.22-.44-.55-1.16,1.16.55.44-1.22L13.7,4.6l1.17-.55-.56,1.16,1.22.44-1.22.43.56,1.17L13.7,6.69l-.43,1.22-.44-1.22-1.16.56ZM6.76,12.55l.56,1.16-1.17-.55-.43,1.22-.43-1.22-1.17.55.55-1.16-1.21-.44,1.21-.43-.55-1.17,1.17.56.43-1.22.43,1.22,1.17-.56-.56,1.17L8,12.11ZM15,17.28l-.55,1.16,1.22.44-1.22.43L15,20.48l-1.16-.56-.44,1.22L13,19.92l-1.16.56.55-1.17-1.22-.43,1.22-.44-.55-1.16,1.16.55.43-1.22.44,1.22Zm-.56-4.63L15,13.87l-1.22-.58-.45,1.27-.46-1.27-1.22.58.58-1.22L11,12.19l1.28-.45-.58-1.22,1.22.58.46-1.28.45,1.28L15,10.52l-.58,1.22,1.28.45Zm7-.17L22,13.64l-1.17-.55-.43,1.22-.44-1.22-1.16.55.55-1.16L18.11,12l1.22-.43-.55-1.17,1.16.56.44-1.22L20.81,11,22,10.44l-.56,1.17,1.22.43Z"/></g></g></svg>