<svg xmlns="http://www.w3.org/2000/svg" viewBox="0 0 19.54 18.56"><defs><style>.cls-1{fill:#74849e;}</style></defs><title>thumbAsset 2</title><g id="Layer_2" data-name="Layer 2"><g id="Layer_1-2" data-name="Layer 1"><path class="cls-1" d="M19,8.06A2.32,2.32,0,0,0,17.2,6.88a8.87,8.87,0,0,0-1.63,0,9.16,9.16,0,0,1-1.21,0A.72.72,0,0,1,14,6.4c-.09-.32-.07-.9.55-1.92a3.15,3.15,0,0,0,.34-1.55,3.82,3.82,0,0,0-.43-1.86A2,2,0,0,0,12.7,0a.49.49,0,0,0-.44.27c-.37.77-1.15,2.46-1.91,4.1C9.69,5.81,9.05,7.18,8.84,7.6l-.12.25c-.19.39-.28.58-.5.7a3.7,3.7,0,0,1-1.47.24,1.45,1.45,0,0,0-1.38-1H1.47A1.46,1.46,0,0,0,0,9.28V17.1a1.46,1.46,0,0,0,1.47,1.46h3.9a1.45,1.45,0,0,0,1.38-1,10.52,10.52,0,0,1,2.39.31,15.44,15.44,0,0,0,4.54.66h0a11.46,11.46,0,0,0,2.85-.2,3.2,3.2,0,0,0,1.92-1.48,10,10,0,0,0,1.06-4.67C19.54,10.31,19.54,9.05,19,8.06ZM5.37,17.59H1.47A.49.49,0,0,1,1,17.1V9.28a.49.49,0,0,1,.49-.49h3.9a.49.49,0,0,1,.49.49V17.1A.49.49,0,0,1,5.37,17.59Zm12.3-1.25c-.83,1.24-1.56,1.24-4,1.24h0A14.53,14.53,0,0,1,9.42,17a10.83,10.83,0,0,0-2.58-.35V9.76a4.31,4.31,0,0,0,1.84-.35,2.18,2.18,0,0,0,.93-1.14A2.56,2.56,0,0,1,9.72,8c.22-.43.85-1.8,1.52-3.25S12.58,1.87,13,1a1,1,0,0,1,.65.53,3,3,0,0,1,.3,1.39,2.43,2.43,0,0,1-.19,1,3.43,3.43,0,0,0-.65,2.7,1.59,1.59,0,0,0,.86,1,4.11,4.11,0,0,0,1.63.11,10.22,10.22,0,0,1,1.41,0c.63.14.88.26,1.14.71.42.76.42,1.92.42,3.67a9.28,9.28,0,0,1-.89,4.13Z"/></g></g></svg>