<svg width="106" height="94" viewBox="0 0 106 94" fill="none" xmlns="http://www.w3.org/2000/svg">
<g opacity="0.5">
<path d="M0 91.296V71.424H19.584V24.192H2.304V8.928C7.488 7.872 11.904 6.672 15.552 5.328C19.2 3.984 22.752 2.208 26.208 0H44.352V71.424H60.768V91.296H0Z" fill="#546CA0"/>
<path d="M91.3016 93.024C87.0776 93.024 83.6216 91.584 80.9336 88.704C78.2456 85.824 76.9016 82.272 76.9016 78.048C76.9016 73.824 78.2456 70.272 80.9336 67.392C83.6216 64.512 87.0776 63.072 91.3016 63.072C95.5256 63.072 98.9816 64.512 101.67 67.392C104.358 70.272 105.702 73.824 105.702 78.048C105.702 82.272 104.358 85.824 101.67 88.704C98.9816 91.584 95.5256 93.024 91.3016 93.024Z" fill="#546CA0"/>
</g>
</svg>
