<svg width="112" height="95" viewBox="0 0 112 95" fill="none" xmlns="http://www.w3.org/2000/svg">
<g opacity="0.5">
<path d="M1.152 93.024V78.912C6.528 73.92 11.52 69.216 16.128 64.8C20.832 60.384 24.912 56.256 28.368 52.416C31.824 48.48 34.512 44.784 36.432 41.328C38.448 37.776 39.456 34.464 39.456 31.392C39.456 27.264 38.4 24.24 36.288 22.32C34.272 20.304 31.584 19.296 28.224 19.296C25.152 19.296 22.416 20.208 20.016 22.032C17.712 23.76 15.456 25.728 13.248 27.936L0 14.688C2.4 12.192 4.752 10.032 7.056 8.208C9.36 6.288 11.76 4.752 14.256 3.59999C16.848 2.352 19.536 1.44 22.32 0.863995C25.2 0.287996 28.32 0 31.68 0C36.288 0 40.512 0.719997 44.352 2.16C48.192 3.59999 51.504 5.616 54.288 8.208C57.072 10.8 59.232 13.968 60.768 17.712C62.304 21.36 63.072 25.44 63.072 29.952C63.072 33.6 62.256 37.344 60.624 41.184C59.088 44.928 57.072 48.672 54.576 52.416C52.08 56.16 49.248 59.808 46.08 63.36C43.008 66.912 39.936 70.272 36.864 73.44C39.168 73.152 41.76 72.912 44.64 72.72C47.616 72.432 50.112 72.288 52.128 72.288H67.392V93.024H1.152Z" fill="#546CA0"/>
<path d="M96.7736 94.752C92.5496 94.752 89.0936 93.312 86.4056 90.432C83.7176 87.552 82.3736 84 82.3736 79.776C82.3736 75.552 83.7176 72 86.4056 69.12C89.0936 66.24 92.5496 64.8 96.7736 64.8C100.998 64.8 104.454 66.24 107.142 69.12C109.83 72 111.174 75.552 111.174 79.776C111.174 84 109.83 87.552 107.142 90.432C104.454 93.312 100.998 94.752 96.7736 94.752Z" fill="#546CA0"/>
</g>
</svg>
