<svg width="113" height="95" viewBox="0 0 113 95" fill="none" xmlns="http://www.w3.org/2000/svg">
<g opacity="0.5">
<path d="M32.544 94.752C25.056 94.752 18.624 93.6 13.248 91.296C7.872 88.992 3.456 85.824 0 81.792L11.232 66.24C14.016 68.832 16.992 70.944 20.16 72.576C23.424 74.112 26.688 74.88 29.952 74.88C33.984 74.88 37.2 74.16 39.6 72.72C42 71.28 43.2 69.12 43.2 66.24C43.2 64.512 42.912 62.976 42.336 61.632C41.76 60.288 40.656 59.136 39.024 58.176C37.392 57.216 35.088 56.496 32.112 56.016C29.136 55.536 25.248 55.296 20.448 55.296V38.016C24.288 38.016 27.456 37.776 29.952 37.296C32.544 36.816 34.608 36.144 36.144 35.28C37.68 34.32 38.736 33.216 39.312 31.968C39.984 30.72 40.32 29.28 40.32 27.648C40.32 22.08 37.152 19.296 30.816 19.296C27.744 19.296 25.008 19.92 22.608 21.168C20.208 22.416 17.568 24.288 14.688 26.784L2.304 11.808C6.816 8.064 11.472 5.184 16.272 3.168C21.072 1.056 26.304 0 31.968 0C42.048 0 50.064 2.256 56.016 6.768C62.064 11.184 65.088 17.52 65.088 25.776C65.088 34.608 60.192 41.184 50.4 45.504V46.08C55.584 47.712 59.808 50.352 63.072 54C66.336 57.552 67.968 62.208 67.968 67.968C67.968 72.288 67.008 76.128 65.088 79.488C63.168 82.752 60.576 85.536 57.312 87.84C54.144 90.144 50.4 91.872 46.08 93.024C41.76 94.176 37.248 94.752 32.544 94.752Z" fill="#546CA0"/>
<path d="M97.9256 94.752C93.7016 94.752 90.2456 93.312 87.5576 90.432C84.8696 87.552 83.5256 84 83.5256 79.776C83.5256 75.552 84.8696 72 87.5576 69.12C90.2456 66.24 93.7016 64.8 97.9256 64.8C102.15 64.8 105.606 66.24 108.294 69.12C110.982 72 112.326 75.552 112.326 79.776C112.326 84 110.982 87.552 108.294 90.432C105.606 93.312 102.15 94.752 97.9256 94.752Z" fill="#546CA0"/>
</g>
</svg>
