<svg width="36" height="37" viewBox="0 0 36 37" fill="none" xmlns="http://www.w3.org/2000/svg">
<path d="M16.9946 8.5C16.0988 8.5 15.3123 9.09564 15.0695 9.95789L11.924 21.128L10.972 17.628C10.808 16.923 10.1797 16.424 9.45587 16.424H5.61C4.72082 16.424 4 17.1448 4 18.034C4 18.9232 4.72082 19.644 5.61 19.644H8.256L9.96458 26.0683C10.1954 26.936 10.981 27.54 11.8789 27.54C12.7666 27.54 13.5459 26.9495 13.786 26.0949L17.832 11.692H30.404C31.2854 11.692 32 10.9774 32 10.096C32 9.21455 31.2854 8.5 30.404 8.5H16.9946ZM28.2556 15.5613C27.652 15.0205 26.7219 15.0812 26.1938 15.6958L23.908 18.356L21.6214 15.6949C21.0947 15.0819 20.1661 15.0244 19.5678 15.5676C18.9915 16.0908 18.9372 16.9781 19.4455 17.5676L22.032 20.568L19.4507 23.5417C18.94 24.1299 18.9929 25.0184 19.5696 25.5421C20.1669 26.0844 21.094 26.0269 21.6198 25.415L23.908 22.752L26.1954 25.414C26.7227 26.0277 27.6512 26.0883 28.2537 25.5483C28.8409 25.0222 28.8973 24.1223 28.3805 23.5269L25.812 20.568L28.3858 17.5824C28.9002 16.9857 28.8423 16.0871 28.2556 15.5613Z" fill="white"/>
</svg>
