<svg width="73" height="71" viewBox="0 0 73 71" fill="none" xmlns="http://www.w3.org/2000/svg">
<path opacity="0.4" d="M60.5195 25.4318V39.6601L37.4999 50.0605L14.6191 39.6601V25.5156L37.4999 37.5639L60.5195 25.4318Z" fill="#546CA0"/>
<mask id="path-2-inside-1" fill="white">
<path fill-rule="evenodd" clip-rule="evenodd" d="M57.4003 41.5829V25.5H58.4003V41.5829C58.4003 42.1723 58.0551 42.7071 57.5179 42.9498L35.9126 52.7112C35.2564 53.0077 34.5043 53.0069 33.8488 52.7089L12.3792 42.95C11.8437 42.7066 11.4999 42.1727 11.4999 41.5845V26.5H12.4999V41.5845C12.4999 41.7805 12.6145 41.9585 12.793 42.0396L34.2626 51.7985C34.6559 51.9773 35.1072 51.9778 35.5009 51.7999L57.1062 42.0385C57.2853 41.9576 57.4003 41.7793 57.4003 41.5829Z"/>
</mask>
<path fill-rule="evenodd" clip-rule="evenodd" d="M57.4003 41.5829V25.5H58.4003V41.5829C58.4003 42.1723 58.0551 42.7071 57.5179 42.9498L35.9126 52.7112C35.2564 53.0077 34.5043 53.0069 33.8488 52.7089L12.3792 42.95C11.8437 42.7066 11.4999 42.1727 11.4999 41.5845V26.5H12.4999V41.5845C12.4999 41.7805 12.6145 41.9585 12.793 42.0396L34.2626 51.7985C34.6559 51.9773 35.1072 51.9778 35.5009 51.7999L57.1062 42.0385C57.2853 41.9576 57.4003 41.7793 57.4003 41.5829Z" fill="#393B3F"/>
<path d="M57.4003 25.5V24.5H56.4003V25.5H57.4003ZM58.4003 25.5H59.4003V24.5H58.4003V25.5ZM57.5179 42.9498L57.9297 43.8611L57.9297 43.8611L57.5179 42.9498ZM35.9126 52.7112L36.3244 53.6226L35.9126 52.7112ZM33.8488 52.7089L34.2626 51.7985L33.8488 52.7089ZM12.3792 42.95L12.793 42.0396L12.793 42.0396L12.3792 42.95ZM11.4999 26.5V25.5H10.4999V26.5H11.4999ZM12.4999 26.5H13.4999V25.5H12.4999V26.5ZM12.793 42.0396L13.2068 41.1293L13.2068 41.1293L12.793 42.0396ZM34.2626 51.7985L34.6764 50.8882H34.6764L34.2626 51.7985ZM35.5009 51.7999L35.0892 50.8886L35.0892 50.8886L35.5009 51.7999ZM57.1062 42.0385L57.5179 42.9498L57.5179 42.9498L57.1062 42.0385ZM56.4003 25.5V41.5829H58.4003V25.5H56.4003ZM58.4003 24.5H57.4003V26.5H58.4003V24.5ZM59.4003 41.5829V25.5H57.4003V41.5829H59.4003ZM57.9297 43.8611C58.8249 43.4566 59.4003 42.5653 59.4003 41.5829H57.4003C57.4003 41.7793 57.2853 41.9576 57.1062 42.0385L57.9297 43.8611ZM36.3244 53.6226L57.9297 43.8611L57.1062 42.0385L35.5009 51.7999L36.3244 53.6226ZM33.435 53.6193C34.3527 54.0364 35.4057 54.0376 36.3244 53.6226L35.5009 51.7999C35.1072 51.9778 34.6559 51.9773 34.2626 51.7985L33.435 53.6193ZM11.9654 43.8604L33.435 53.6193L34.2626 51.7985L12.793 42.0396L11.9654 43.8604ZM10.4999 41.5845C10.4999 42.5648 11.0729 43.4547 11.9654 43.8604L12.793 42.0396C12.6145 41.9585 12.4999 41.7805 12.4999 41.5845H10.4999ZM10.4999 26.5V41.5845H12.4999V26.5H10.4999ZM12.4999 25.5H11.4999V27.5H12.4999V25.5ZM13.4999 41.5845V26.5H11.4999V41.5845H13.4999ZM13.2068 41.1293C13.3853 41.2104 13.4999 41.3884 13.4999 41.5845H11.4999C11.4999 42.1727 11.8437 42.7066 12.3792 42.95L13.2068 41.1293ZM34.6764 50.8882L13.2068 41.1293L12.3792 42.95L33.8488 52.7089L34.6764 50.8882ZM35.0892 50.8886C34.9579 50.9479 34.8075 50.9478 34.6764 50.8882L33.8488 52.7089C34.5043 53.0069 35.2564 53.0077 35.9126 52.7112L35.0892 50.8886ZM56.6945 41.1272L35.0892 50.8886L35.9126 52.7112L57.5179 42.9498L56.6945 41.1272ZM56.4003 41.5829C56.4003 41.3864 56.5154 41.2081 56.6945 41.1272L57.5179 42.9498C58.0551 42.7071 58.4003 42.1723 58.4003 41.5829H56.4003Z" fill="#393B3F" mask="url(#path-2-inside-1)"/>
<mask id="path-4-inside-2" fill="white">
<path fill-rule="evenodd" clip-rule="evenodd" d="M57.1702 42.0038C57.3122 41.9128 57.4003 41.7548 57.4003 41.5829V25.5H58.4003V41.5829C58.4003 42.1723 58.0551 42.7071 57.5179 42.9498L35.9126 52.7112C35.8306 52.7483 35.7471 52.7807 35.6624 52.8085C35.0699 53.0029 34.4224 52.9696 33.8488 52.7089L12.3792 42.95C11.8437 42.7066 11.4999 42.1727 11.4999 41.5845V26.5H12.4999V41.5845C12.4999 41.7805 12.6145 41.9585 12.793 42.0396L34.2626 51.7985C34.6559 51.9773 35.1072 51.9778 35.5009 51.7999L57.1062 42.0385C57.1286 42.0284 57.15 42.0168 57.1702 42.0038Z"/>
</mask>
<path fill-rule="evenodd" clip-rule="evenodd" d="M57.1702 42.0038C57.3122 41.9128 57.4003 41.7548 57.4003 41.5829V25.5H58.4003V41.5829C58.4003 42.1723 58.0551 42.7071 57.5179 42.9498L35.9126 52.7112C35.8306 52.7483 35.7471 52.7807 35.6624 52.8085C35.0699 53.0029 34.4224 52.9696 33.8488 52.7089L12.3792 42.95C11.8437 42.7066 11.4999 42.1727 11.4999 41.5845V26.5H12.4999V41.5845C12.4999 41.7805 12.6145 41.9585 12.793 42.0396L34.2626 51.7985C34.6559 51.9773 35.1072 51.9778 35.5009 51.7999L57.1062 42.0385C57.1286 42.0284 57.15 42.0168 57.1702 42.0038Z" fill="#393B3F"/>
<path d="M57.1702 42.0038L57.7099 42.8457L57.7099 42.8457L57.1702 42.0038ZM57.4003 25.5V24.5H56.4003V25.5H57.4003ZM58.4003 25.5H59.4003V24.5H58.4003V25.5ZM57.5179 42.9498L57.9297 43.8611L57.9297 43.8611L57.5179 42.9498ZM35.9126 52.7112L36.3244 53.6226L36.3244 53.6226L35.9126 52.7112ZM35.6624 52.8085L35.3507 51.8583L35.3507 51.8583L35.6624 52.8085ZM33.8488 52.7089L34.2626 51.7985L33.8488 52.7089ZM12.3792 42.95L12.793 42.0396L12.793 42.0396L12.3792 42.95ZM11.4999 26.5V25.5H10.4999V26.5H11.4999ZM12.4999 26.5H13.4999V25.5H12.4999V26.5ZM12.793 42.0396L13.2068 41.1293L13.2068 41.1293L12.793 42.0396ZM34.2626 51.7985L33.8488 52.7089L34.2626 51.7985ZM35.5009 51.7999L35.0892 50.8886H35.0892L35.5009 51.7999ZM57.1062 42.0385L57.5179 42.9498L57.518 42.9498L57.1062 42.0385ZM56.4003 41.5829C56.4003 41.4107 56.4885 41.2529 56.6306 41.1619L57.7099 42.8457C58.1359 42.5726 58.4003 42.0989 58.4003 41.5829H56.4003ZM57.4003 26.5H58.4003V24.5H57.4003V26.5ZM57.9297 43.8611C58.8249 43.4566 59.4003 42.5653 59.4003 41.5829H57.4003C57.4003 41.7793 57.2853 41.9576 57.1062 42.0385L57.9297 43.8611ZM36.3244 53.6226L57.9297 43.8611L57.1062 42.0385L35.5009 51.7999L36.3244 53.6226ZM35.9741 53.7587C36.0927 53.7198 36.2096 53.6744 36.3244 53.6226L35.5009 51.7999C35.4516 51.8222 35.4015 51.8417 35.3507 51.8583L35.9741 53.7587ZM33.435 53.6193C34.238 53.9843 35.1446 54.0308 35.9741 53.7587L35.3507 51.8583C34.9953 51.9749 34.6067 51.9549 34.2626 51.7985L33.435 53.6193ZM11.9654 43.8604L33.435 53.6193L34.2626 51.7985L12.793 42.0396L11.9654 43.8604ZM10.4999 41.5845C10.4999 42.5648 11.0729 43.4547 11.9654 43.8604L12.793 42.0396C12.6145 41.9585 12.4999 41.7805 12.4999 41.5845H10.4999ZM11.4999 27.5H12.4999V25.5H11.4999V27.5ZM13.2068 41.1293C13.3853 41.2104 13.4999 41.3884 13.4999 41.5845H11.4999C11.4999 42.1727 11.8437 42.7066 12.3792 42.95L13.2068 41.1293ZM34.6764 50.8882L13.2068 41.1293L12.3792 42.95L33.8488 52.7089L34.6764 50.8882ZM35.0892 50.8886C34.9579 50.9479 34.8075 50.9478 34.6764 50.8882L33.8488 52.7089C34.5043 53.0069 35.2564 53.0077 35.9126 52.7112L35.0892 50.8886ZM56.6945 41.1272L35.0892 50.8886L35.9126 52.7112L57.5179 42.9498L56.6945 41.1272ZM56.6306 41.1619C56.6509 41.1488 56.6722 41.1372 56.6944 41.1272L57.518 42.9498C57.5849 42.9196 57.649 42.8847 57.7099 42.8457L56.6306 41.1619ZM58.4003 41.5829V25.5H56.4003V41.5829H58.4003ZM57.4003 25.5V41.5829H59.4003V25.5H57.4003ZM12.4999 41.5845V26.5H10.4999V41.5845H12.4999ZM11.4999 26.5V41.5845H13.4999V26.5H11.4999Z" fill="#393B3F" mask="url(#path-4-inside-2)"/>
<path opacity="0.4" d="M60.5195 25.4286V39.6602L37.4999 50.0606V37.564L60.5195 25.4286Z" fill="#546CA0"/>
<path opacity="0.3" fill-rule="evenodd" clip-rule="evenodd" d="M37.4999 37.5801L72.9999 18.8594L37.4999 0L1.99994 18.8594L37.4999 37.5801ZM29.2441 18.624C29.2441 15.1295 32.9048 12.3837 37.5644 12.3837C42.224 12.3837 45.8848 15.1295 45.8848 18.624C45.8848 22.1184 42.224 24.8642 37.5644 24.8642C32.9048 24.8642 29.2441 22.1184 29.2441 18.624Z" fill="#6DABE3"/>
<path opacity="0.3" d="M37.5645 12.3837C32.9049 12.3837 29.2441 15.1295 29.2441 18.6239C29.2441 22.1183 32.9049 24.8641 37.5645 24.8641C42.224 24.8641 45.8848 22.1183 45.8848 18.6239C45.8848 15.1295 42.224 12.3837 37.5645 12.3837Z" fill="#4990D1"/>
<mask id="path-9-inside-3" fill="white">
<path fill-rule="evenodd" clip-rule="evenodd" d="M29.1954 15.6957C27.7712 16.7243 26.9999 18.0732 26.9999 19.5C26.9999 20.9268 27.7712 22.2757 29.1954 23.3043C30.6224 24.335 32.6605 25 34.9999 25C37.3394 25 39.3775 24.335 40.8045 23.3043C42.2287 22.2757 42.9999 20.9268 42.9999 19.5C42.9999 18.0732 42.2287 16.7243 40.8045 15.6957C39.3775 14.665 37.3394 14 34.9999 14C32.6605 14 30.6224 14.665 29.1954 15.6957ZM25.9999 19.5C25.9999 15.8601 29.9597 13 34.9999 13C40.0402 13 43.9999 15.8601 43.9999 19.5C43.9999 23.1399 40.0402 26 34.9999 26C29.9597 26 25.9999 23.1399 25.9999 19.5Z"/>
</mask>
<path fill-rule="evenodd" clip-rule="evenodd" d="M29.1954 15.6957C27.7712 16.7243 26.9999 18.0732 26.9999 19.5C26.9999 20.9268 27.7712 22.2757 29.1954 23.3043C30.6224 24.335 32.6605 25 34.9999 25C37.3394 25 39.3775 24.335 40.8045 23.3043C42.2287 22.2757 42.9999 20.9268 42.9999 19.5C42.9999 18.0732 42.2287 16.7243 40.8045 15.6957C39.3775 14.665 37.3394 14 34.9999 14C32.6605 14 30.6224 14.665 29.1954 15.6957ZM25.9999 19.5C25.9999 15.8601 29.9597 13 34.9999 13C40.0402 13 43.9999 15.8601 43.9999 19.5C43.9999 23.1399 40.0402 26 34.9999 26C29.9597 26 25.9999 23.1399 25.9999 19.5Z" fill="#393B3F"/>
<path d="M29.1954 15.6957L29.7809 16.5064L29.1954 15.6957ZM29.1954 23.3043L29.7809 22.4936L29.1954 23.3043ZM40.8045 23.3043L40.219 22.4936H40.219L40.8045 23.3043ZM40.8045 15.6957L40.219 16.5064L40.219 16.5064L40.8045 15.6957ZM27.9999 19.5C27.9999 18.4651 28.5538 17.3926 29.7809 16.5064L28.6099 14.885C26.9887 16.0559 25.9999 17.6813 25.9999 19.5H27.9999ZM29.7809 22.4936C28.5538 21.6074 27.9999 20.5349 27.9999 19.5H25.9999C25.9999 21.3187 26.9887 22.9441 28.6099 24.115L29.7809 22.4936ZM34.9999 24C32.8413 24 31.0151 23.385 29.7809 22.4936L28.6099 24.115C30.2297 25.2849 32.4797 26 34.9999 26V24ZM40.219 22.4936C38.9848 23.385 37.1586 24 34.9999 24V26C37.5202 26 39.7701 25.2849 41.39 24.115L40.219 22.4936ZM41.9999 19.5C41.9999 20.5349 41.4461 21.6074 40.219 22.4936L41.39 24.115C43.0112 22.9441 43.9999 21.3187 43.9999 19.5H41.9999ZM40.219 16.5064C41.4461 17.3926 41.9999 18.4651 41.9999 19.5H43.9999C43.9999 17.6813 43.0112 16.0559 41.39 14.885L40.219 16.5064ZM34.9999 15C37.1586 15 38.9848 15.615 40.219 16.5064L41.39 14.885C39.7701 13.7151 37.5202 13 34.9999 13V15ZM29.7809 16.5064C31.0151 15.615 32.8413 15 34.9999 15V13C32.4797 13 30.2297 13.7151 28.6099 14.885L29.7809 16.5064ZM34.9999 12C32.2991 12 29.8372 12.765 28.0243 14.0744C26.2085 15.3858 24.9999 17.2869 24.9999 19.5H26.9999C26.9999 18.0732 27.7712 16.7243 29.1954 15.6957C30.6224 14.665 32.6605 14 34.9999 14V12ZM44.9999 19.5C44.9999 17.2869 43.7913 15.3858 41.9755 14.0744C40.1627 12.765 37.7007 12 34.9999 12V14C37.3394 14 39.3775 14.665 40.8045 15.6957C42.2287 16.7243 42.9999 18.0732 42.9999 19.5H44.9999ZM34.9999 27C37.7007 27 40.1627 26.235 41.9755 24.9256C43.7913 23.6142 44.9999 21.7131 44.9999 19.5H42.9999C42.9999 20.9268 42.2287 22.2757 40.8045 23.3043C39.3775 24.335 37.3394 25 34.9999 25V27ZM24.9999 19.5C24.9999 21.7131 26.2085 23.6142 28.0243 24.9256C29.8372 26.235 32.2991 27 34.9999 27V25C32.6605 25 30.6224 24.335 29.1954 23.3043C27.7712 22.2757 26.9999 20.9268 26.9999 19.5H24.9999Z" fill="#393B3F" mask="url(#path-9-inside-3)"/>
<path d="M31.2304 24.8948C30.497 24.6429 29.8273 24.3195 29.2375 23.9384C29.3245 23.9946 29.4131 24.0495 29.5034 24.1031C30.0259 24.4131 30.605 24.6799 31.2304 24.8948ZM27.41 22.2355C26.8206 21.41 26.4999 20.4798 26.4999 19.5C26.4999 20.4797 26.8207 21.41 27.41 22.2355Z" fill="#393B3F" stroke="#393B3F"/>
<path opacity="0.3" fill-rule="evenodd" clip-rule="evenodd" d="M37.4999 37.5801L72.9999 18.8594L37.4999 0V12.3837C42.1595 12.3837 45.8203 15.1295 45.8203 18.624C45.8203 22.1184 42.1595 24.8642 37.4999 24.8642V37.5801Z" fill="#546CA0"/>
<path opacity="0.3" d="M45.8203 18.6239C45.8203 22.1183 42.1595 24.8641 37.4999 24.8641V12.3837C42.1595 12.3837 45.8203 15.1295 45.8203 18.6239Z" fill="#EF3900"/>
<path opacity="0.3" fill-rule="evenodd" clip-rule="evenodd" d="M68.8398 51.2669V20.6395L64.6796 22.7196V51.2669L60.5195 55.427V71H72.9999V55.427L68.8398 51.2669Z" fill="#4990D1"/>
<path opacity="0.3" fill-rule="evenodd" clip-rule="evenodd" d="M68.8398 51.2669V20.6395L66.7597 21.6796V49.1868V53.9208V71H72.9999V55.427L68.8398 51.2669Z" fill="#EF3900"/>
<mask id="path-16-inside-4" fill="white">
<path fill-rule="evenodd" clip-rule="evenodd" d="M67.58 50.8125V20H68.58V50.8125H67.58Z"/>
</mask>
<path fill-rule="evenodd" clip-rule="evenodd" d="M67.58 50.8125V20H68.58V50.8125H67.58Z" fill="#393B3F"/>
<path d="M67.58 20V19H66.58V20H67.58ZM67.58 50.8125H66.58V51.8125H67.58V50.8125ZM68.58 20H69.58V19H68.58V20ZM68.58 50.8125V51.8125H69.58V50.8125H68.58ZM66.58 20V50.8125H68.58V20H66.58ZM68.58 19H67.58V21H68.58V19ZM69.58 50.8125V20H67.58V50.8125H69.58ZM67.58 51.8125H68.58V49.8125H67.58V51.8125Z" fill="#393B3F" mask="url(#path-16-inside-4)"/>
<mask id="path-18-inside-5" fill="white">
<path fill-rule="evenodd" clip-rule="evenodd" d="M67.58 50.8125H68.58V20H67.58V50.8125Z"/>
</mask>
<path fill-rule="evenodd" clip-rule="evenodd" d="M67.58 50.8125H68.58V20H67.58V50.8125Z" fill="#393B3F"/>
<path d="M67.58 50.8125H66.58V51.8125H67.58V50.8125ZM68.58 50.8125V51.8125H69.58V50.8125H68.58ZM68.58 20H69.58V19H68.58V20ZM67.58 20V19H66.58V20H67.58ZM68.58 49.8125H67.58V51.8125H68.58V49.8125ZM67.58 21H68.58V19H67.58V21ZM68.58 50.8125V20H66.58V50.8125H68.58ZM67.58 20V50.8125H69.58V20H67.58Z" fill="#393B3F" mask="url(#path-18-inside-5)"/>
<mask id="path-20-inside-6" fill="white">
<path fill-rule="evenodd" clip-rule="evenodd" d="M71.5957 54.8469L67.6444 50.8516L68.3554 50.1484L72.3067 54.1437C72.5844 54.4245 72.7401 54.8035 72.7401 55.1985V70.3605C72.7401 70.6366 72.5163 70.8605 72.2401 70.8605C71.964 70.8605 71.7401 70.6366 71.7401 70.3605V55.1985C71.7401 55.0668 71.6882 54.9405 71.5957 54.8469Z"/>
</mask>
<path fill-rule="evenodd" clip-rule="evenodd" d="M71.5957 54.8469L67.6444 50.8516L68.3554 50.1484L72.3067 54.1437C72.5844 54.4245 72.7401 54.8035 72.7401 55.1985V70.3605C72.7401 70.6366 72.5163 70.8605 72.2401 70.8605C71.964 70.8605 71.7401 70.6366 71.7401 70.3605V55.1985C71.7401 55.0668 71.6882 54.9405 71.5957 54.8469Z" fill="#393B3F"/>
<path d="M67.6444 50.8516L66.9412 50.1406L66.2302 50.8438L66.9334 51.5548L67.6444 50.8516ZM71.5957 54.8469L72.3067 54.1437L72.3067 54.1437L71.5957 54.8469ZM68.3554 50.1484L69.0664 49.4453L68.3633 48.7342L67.6522 49.4374L68.3554 50.1484ZM72.3067 54.1437L71.5957 54.8469L71.5957 54.8469L72.3067 54.1437ZM66.9334 51.5548L70.8846 55.5501L72.3067 54.1437L68.3554 50.1484L66.9334 51.5548ZM67.6522 49.4374L66.9412 50.1406L68.3476 51.5626L69.0586 50.8595L67.6522 49.4374ZM73.0177 53.4405L69.0664 49.4453L67.6444 50.8516L71.5957 54.8469L73.0177 53.4405ZM73.7401 55.1985C73.7401 54.5402 73.4805 53.9085 73.0177 53.4405L71.5957 54.8469C71.6882 54.9405 71.7401 55.0668 71.7401 55.1985H73.7401ZM73.7401 70.3605V55.1985H71.7401V70.3605H73.7401ZM72.2401 71.8605C73.0686 71.8605 73.7401 71.1889 73.7401 70.3605H71.7401C71.7401 70.0843 71.964 69.8605 72.2401 69.8605V71.8605ZM70.7401 70.3605C70.7401 71.1889 71.4117 71.8605 72.2401 71.8605V69.8605C72.5163 69.8605 72.7401 70.0843 72.7401 70.3605H70.7401ZM70.7401 55.1985V70.3605H72.7401V55.1985H70.7401ZM70.8846 55.5501C70.7921 55.4565 70.7401 55.3301 70.7401 55.1985H72.7401C72.7401 54.8035 72.5844 54.4245 72.3067 54.1437L70.8846 55.5501Z" fill="#393B3F" mask="url(#path-20-inside-6)"/>
<mask id="path-22-inside-7" fill="white">
<path fill-rule="evenodd" clip-rule="evenodd" d="M72.3067 54.1437C72.5844 54.4245 72.7401 54.8035 72.7401 55.1985V70.3605C72.7401 70.6366 72.5163 70.8605 72.2401 70.8605C71.964 70.8605 71.7401 70.6366 71.7401 70.3605V55.1985C71.7401 55.0668 71.6882 54.9405 71.5957 54.8469L67.6444 50.8516L68.3554 50.1484L72.3067 54.1437Z"/>
</mask>
<path fill-rule="evenodd" clip-rule="evenodd" d="M72.3067 54.1437C72.5844 54.4245 72.7401 54.8035 72.7401 55.1985V70.3605C72.7401 70.6366 72.5163 70.8605 72.2401 70.8605C71.964 70.8605 71.7401 70.6366 71.7401 70.3605V55.1985C71.7401 55.0668 71.6882 54.9405 71.5957 54.8469L67.6444 50.8516L68.3554 50.1484L72.3067 54.1437Z" fill="#393B3F"/>
<path d="M72.3067 54.1437L71.5957 54.8469L71.5957 54.8469L72.3067 54.1437ZM71.5957 54.8469L72.3067 54.1437L72.3067 54.1437L71.5957 54.8469ZM67.6444 50.8516L66.9412 50.1406L66.2302 50.8438L66.9334 51.5548L67.6444 50.8516ZM68.3554 50.1484L69.0664 49.4453L68.3633 48.7342L67.6522 49.4374L68.3554 50.1484ZM73.7401 55.1985C73.7401 54.5402 73.4805 53.9085 73.0177 53.4405L71.5957 54.8469C71.6882 54.9405 71.7401 55.0668 71.7401 55.1985H73.7401ZM71.7401 55.1985V70.3605H73.7401V55.1985H71.7401ZM71.7401 70.3605C71.7401 70.0843 71.964 69.8605 72.2401 69.8605V71.8605C73.0686 71.8605 73.7401 71.1889 73.7401 70.3605H71.7401ZM72.2401 69.8605C72.5163 69.8605 72.7401 70.0843 72.7401 70.3605H70.7401C70.7401 71.1889 71.4117 71.8605 72.2401 71.8605V69.8605ZM72.7401 70.3605V55.1985H70.7401V70.3605H72.7401ZM70.8846 55.5501C70.7921 55.4565 70.7401 55.3301 70.7401 55.1985H72.7401C72.7401 54.8035 72.5844 54.4245 72.3067 54.1437L70.8846 55.5501ZM67.6522 49.4374L66.9412 50.1406L68.3476 51.5626L69.0586 50.8595L67.6522 49.4374ZM73.0177 53.4405L69.0664 49.4453L67.6444 50.8516L71.5957 54.8469L73.0177 53.4405ZM66.9334 51.5548L70.8846 55.5501L72.3067 54.1437L68.3554 50.1484L66.9334 51.5548Z" fill="#393B3F" mask="url(#path-22-inside-7)"/>
<path d="M0.902997 19.4145C0.739425 19.5014 0.637293 19.6716 0.637575 19.8568C0.637858 20.042 0.740509 20.2119 0.904346 20.2983C0.549263 20.1111 0.548488 19.6028 0.902997 19.4145Z" fill="#393B3F" stroke="#393B3F" stroke-linecap="round" stroke-linejoin="round"/>
<path d="M68.3623 19.8568C68.3623 19.8683 68.3619 19.8799 68.3611 19.8913C68.3617 19.8829 68.3621 19.8744 68.3622 19.8659C68.3622 19.8658 68.3622 19.8657 68.3622 19.8656L68.3623 19.8576V19.8568ZM68.3623 19.8568C68.3623 19.8451 68.362 19.8337 68.3612 19.8222L68.3612 19.8223C68.3619 19.8336 68.3623 19.8451 68.3623 19.8568ZM0.902997 19.4145C0.739425 19.5014 0.637292 19.6716 0.637575 19.8568C0.637857 20.042 0.740509 20.2119 0.904345 20.2983C0.549262 20.1111 0.548488 19.6028 0.902997 19.4145ZM68.3391 20.7351L68.3288 20.7406L68.8621 19.8751C68.8553 20.2348 68.6556 20.5634 68.3391 20.7351ZM33.8003 37.6458L34.0335 37.2035L33.8003 37.6458C33.8071 37.6494 33.814 37.6529 33.8208 37.6564C33.814 37.6529 33.8071 37.6494 33.8003 37.6458Z" fill="#393B3F" stroke="#393B3F" stroke-linecap="round" stroke-linejoin="round"/>
<path fill-rule="evenodd" clip-rule="evenodd" d="M66.4999 53C66.7761 53 66.9999 53.2239 66.9999 53.5L66.9999 70.5C66.9999 70.7761 66.7761 71 66.4999 71C66.2238 71 65.9999 70.7761 65.9999 70.5L65.9999 53.5C65.9999 53.2239 66.2238 53 66.4999 53Z" fill="black"/>
<path fill-rule="evenodd" clip-rule="evenodd" d="M60.4999 55C60.7761 55 60.9999 55.2239 60.9999 55.5L60.9999 70.5C60.9999 70.7761 60.7761 71 60.4999 71C60.2238 71 59.9999 70.7761 59.9999 70.5L59.9999 55.5C59.9999 55.2239 60.2238 55 60.4999 55Z" fill="black"/>
</svg>
