<svg enable-background="new 0 0 140 140" height="512" viewBox="0 0 140 140" width="512" xmlns="http://www.w3.org/2000/svg"><circle cx="70" cy="69.996" fill="#dc594e" r="64"/><path d="m23.6199951 114.0657501c-.1599731-.1600342-.3099976-.3200073-.4699707-.4900513.0099487-.0799561.0099487-.1499634.0199585-.2299805.4299927-3.4699707 3.2000122-6.3300171 6.6500244-6.8499756 3.4899902-.5400391 6.6300049 1.2099609 8.1900024 3.9699707.4799805-2.6599731 2.789978-4.6900024 5.5800171-4.6900024.2299805 0 .4499512.0300293.6599731.0499878.6300049-2.7399902 2.1699829-5.1299438 4.2700195-6.8499756l-2.5500488-2.5499878c-3.3599854-4.7800293-5.3499756-10.5900269-5.3499756-16.8800049 0-7.539978 2.8400269-14.4199829 7.5100098-19.6199951.1300049-4.4299927.7299805-8.8599854 1.8300171-13.210022 1.0999756-4.3399658 2.6799927-8.5999756 4.75-12.7199707.4499512-.8900146.9199829-1.7600098 1.4099731-2.6300049.0499878-.1000366.1099854-.2000122.1699829-.2999878.4200439-.7300415.8500366-1.460022 1.3099976-2.1900024.1400146-.2399902.3000488-.4700317.460022-.710022.3699951-.5800171.75-1.1599731 1.1400146-1.7299805.1900024-.2800293.3999634-.5599976.5999756-.8400269.3699951-.5200195.7399902-1.039978 1.1300049-1.5499878.2299805-.2999878.4500122-.5900269.6799927-.8900146.3900147-.4899901.7800293-.9799803 1.1900025-1.4699706.2399902-.2900391.4899902-.5900269.7399902-.8800049.4100342-.4800415.8400269-.960022 1.2700195-1.4400024.2600098-.2800293.5100098-.5599976.7700195-.8400269.4699707-.5.9599609-1 1.4599609-1.5.2300415-.2299805.4500122-.4699707.6900024-.7000122.7399904-.7199716 1.4899904-1.4299936 2.2700197-2.1299447.7800293.6999512 1.5300293 1.4099731 2.2700195 2.1299448.2399902.2300415.4599609.4700317.6900024.7000122.5.5.9899902 1 1.4699707 1.5.25.2800293.5.5599976.7600098.8400269.0499878.0599976.0999756.1099854.1500244.1699829l36.6699829 36.6699829c.7799683.7000122 1.5299683 1.4000244 2.2600098 2.1199951.2399902.2300415.4599609.4700317.6900024.7000122.5.5.9899902 1 1.4699707 1.5.25.2800293.5.5599976.7600098.8400269.0599976.0599976.0999756.1199951.1500244.1699829l16.1799927 16.1799927c-3.8099975 31.7000121-30.790039 56.2800292-63.5200195 56.2800292-16.9299927 0-32.3099976-6.5900269-43.7600098-17.3200073-.8999633-.8400269-1.7700195-1.710022-2.6199951-2.6099854z" opacity=".1"/><path d="m70.319809 108.6156387c.3233719-.0150604.6316986-.0526505.9400635-.1053009v.0150528c-.3083649.0451279-.6166917.0751877-.9400635.0902481z" fill="#ececec"/><path d="m68.7404709 108.5103378c.3083725.0526505.6166916.0902405.9325409.1053009-.3158493-.0150604-.6316986-.0451202-.9325409-.0902481 0-.0075226 0-.0075226 0-.0150528z" fill="#ececec"/><path d="m110.1503601 106.4875946c-3.4877319-.5160522-6.6179199 1.2231445-8.1616821 3.9780884-.4738159-2.6622925-2.7901611-4.6853027-5.5877686-4.6853027-.2180786 0-.4361572.022583-.6467285.045105-1.2709351-5.5050049-6.1969604-9.6187134-12.0854492-9.6187134-.0227051 0-.0454102.000061-.0680542.0001831-3.7144165.0201416-6.9666138-2.4568481-7.6832275-6.1015015-.9680176-4.923584-2.0324707-10.3659058-2.0324707-10.3659058h-7.7695923s-1.0644531 5.4411011-2.031189 10.3641968c-.7159424 3.645752-3.9689331 6.1235352-7.6842651 6.1032104-.0227661-.0001221-.0455322-.0001831-.0682983-.0001831-5.8960571 0-10.8144531 4.1137085-12.0854492 9.6187134-.2105713-.022522-.4286499-.045105-.6542969-.045105-2.7900391 0-5.1063843 2.0230103-5.5802002 4.6853027-1.557312-2.763916-4.7017212-4.5054932-8.1922607-3.9729614-3.453064.5267944-6.2181396 3.3826294-6.6501465 6.8488159-.010376.0831299-.0090942.1640625-.0169067.2467041 11.6848755 12.5541992 28.3444214 20.4160156 46.8478394 20.4160156 18.5032349 0 35.1625977-7.8616333 46.8474121-20.4155273-.0083618-.0888672-.0073853-.1759033-.0187378-.2653198-.4398805-3.4701538-3.2182008-6.3238525-6.678528-6.8358154z" fill="#e6e7e8"/><path d="m70.0002289 73.3578491c12.95755 0 23.4950562 10.2413483 24.0313339 23.0671921 3.3621902-4.7782516 5.3532715-10.5905151 5.3532715-16.8770218 0-16.2287407-13.1559677-29.3847122-29.3846054-29.3847122-16.2287483 0-29.384716 13.1559715-29.384716 29.3847122 0 6.2865067 1.9910812 12.0987701 5.3532715 16.8770218.5362739-12.8258438 11.0737838-23.0671921 24.0314445-23.0671921z" fill="#d6b251"/><path d="m70.0002365 86.3016052c5.3789673 0 10.3137131 1.8750229 14.2112427 4.9922485 13.7772217-25.0681992 9.0543213-56.2392921-14.2112427-77.0995331l-.0000763-.0000696-.0000687.0000696c-23.265564 20.8602409-27.9884644 52.0314026-14.211174 77.0996017 3.8975983-3.1172942 8.8323441-4.9923171 14.211319-4.9923171z" fill="#e6e7e8"/><path d="m85.2869797 33.9928932c-3.6144867-7.1762981-8.708046-13.8999805-15.2867432-19.7985725l-.0000763-.0000696-.0000687.0000696c-6.578701 5.8985243-11.6722565 12.6222754-15.286747 19.7985725z" fill="#d6b251"/><circle cx="70" cy="48.467" fill="#dad7dc" r="10.878"/><circle cx="70" cy="48.467" fill="#4388b9" r="8.588"/><path d="m54.9849968 89.7558136c.2644577.5138245.524231 1.0291824.8039207 1.5381088 3.8975983-3.1172943 8.8323441-4.9923172 14.211319-4.9923172 5.3789673 0 10.3137131 1.8750229 14.2112427 4.9922485.2796936-.5089264.5394669-1.0243607.8039246-1.5381775-4.3388977-3.3778381-9.519516-5.171463-15.0153809-5.171463-5.4953766.0000001-10.6760597 1.7936936-15.0150261 5.1716004z" fill="#f37735"/><g fill="#ececec"><path d="m51.7012024 107.8058243c0-4.0230179 3.2613182-7.2843399 7.2843361-7.2843399 1.6737556 0 3.2109451.5704041 4.4409828 1.5194168-1.332016-1.7265244-3.4156609-2.8433762-5.764946-2.8433762-4.0230179 0-7.2843361 3.2613144-7.2843361 7.2843323 0 2.3492889 1.1168518 4.43293 2.8433762 5.764946-.9490128-1.2300339-1.519413-2.7672272-1.519413-4.440979z"/><path d="m88.2987976 107.8058243c0-4.0230179-3.261322-7.2843399-7.2843323-7.2843399-1.6737595 0-3.2109528.5704041-4.4409866 1.5194168 1.332016-1.7265244 3.415657-2.8433762 5.764946-2.8433762 4.0230179 0 7.2843323 3.2613144 7.2843323 7.2843323 0 2.3492889-1.1168518 4.43293-2.8433762 5.764946.9490128-1.2300339 1.5194168-2.7672272 1.5194168-4.440979z"/><path d="m108.7540054 115.3598404c0-2.2414246-1.8170471-4.0584641-4.0584717-4.0584641-.8264847 0-1.5943069.2484436-2.2355728.6727295.7263641-1.0977936 1.9707489-1.8228226 3.3856659-1.8228226 2.2414246 0 4.0584641 1.8170471 4.0584641 4.0584641 0 1.414917-.725029 2.6593475-1.8228455 3.3857117.4243088-.6412583.67276-1.409111.67276-2.2356186z"/><path d="m61.5498466 118.8055344c0 2.7758331-2.2502708 5.0261002-5.026104 5.0261002-1.0235405 0-1.9744339-.3076782-2.768589-.8331299.8995438 1.3595352 2.4406204 2.257431 4.1928864 2.257431 2.7758331 0 5.026104-2.2502747 5.026104-5.0261078 0-1.7522583-.8978958-3.293396-2.2574577-4.1929398.5254783.7941513.8331603 1.7450714.8331603 2.7686463z"/><path d="m78.4501572 118.8055344c0 2.7758331 2.250267 5.0261002 5.0261002 5.0261002 1.0235443 0 1.9744339-.3076782 2.7685928-.8331299-.8995514 1.3595352-2.4406281 2.257431-4.192894 2.257431-2.7758331 0-5.0261002-2.2502747-5.0261002-5.0261078 0-1.7522583.8978958-3.293396 2.2574539-4.1929398-.5254745.7941513-.8331527 1.7450714-.8331527 2.7686463z"/><path d="m31.2459965 115.3598404c0-2.2414246 1.8170452-4.0584641 4.058466-4.0584641.8264885 0 1.5943146.2484436 2.2355766.6727295-.7263641-1.0977936-1.9707489-1.8228226-3.3856621-1.8228226-2.2414265 0-4.0584679 1.8170471-4.0584679 4.0584641 0 1.414917.725029 2.6593475 1.8228455 3.3857117-.4243107-.6412583-.6727581-1.409111-.6727581-2.2356186z"/></g><g fill="#fff" opacity=".2"><path d="m75.935051 42.2590179-12.1400147 12.1400147c-.8699951-.9099731-1.539978-2.0100098-1.9500122-3.2399902l10.8500366-10.8500366c1.2299805.4100341 2.3300171 1.080017 3.2399903 1.9500121z"/><path d="m78.1550217 45.7790375-10.8399659 10.8399658c-.6300049-.1999512-1.2299805-.4799805-1.7800293-.8099976l11.8099976-11.8099976c.3300171.5500489.6100464 1.1500245.8099976 1.7800294z"/></g></svg>