<svg width="1630" height="689" viewBox="0 0 1630 689" fill="none" xmlns="http://www.w3.org/2000/svg">
<path d="M1502 368C1502 368 1425.5 -3.30032 1116.71 21.6538C879.826 23.0107 803 122.58 653.023 133.799C410.283 151.958 223.977 66.7368 104.764 -3.30032C28.9929 -47.8153 -19.674 -86.1963 -38.5 -88C-0.625656 -25.6118 -206.555 170.812 -193.5 242C-79.1224 513.763 581.5 434.5 782 337C862.295 297.954 1029 226.296 1097.8 226.296C1233 226.296 1388 394.5 1388 394.5L1502 368Z" fill="white"/>
<path d="M198.949 151.213L209.46 191.092L234.381 163.918L318.402 164.12L198.949 151.213Z" fill="#99BDF2"/>
<path d="M238.863 175.359L209.908 191.056L215.161 159.731L236.268 170.684L238.863 175.359Z" fill="#79A9D8"/>
<path d="M318.402 164.12L215.16 159.731L248.237 181.757L318.402 164.12Z" fill="#CDEAFC"/>
<path d="M317.485 164.356L178.272 145.03L199.095 151.734L317.485 164.356Z" fill="#CDEAFC"/>
<path d="M1617.8 174.339L1597.2 192.539L1597.4 175.839L1553.3 165.439L1617.8 174.339Z" fill="#99BDF2"/>
<path d="M1596.3 182.239L1597.3 192.639L1608.2 176.339L1595.5 178.739L1596.3 182.239Z" fill="#79A9D8"/>
<path d="M1553.4 165.539L1608.2 176.339L1587.8 182.439L1553.4 165.539Z" fill="#CDEAFC"/>
<path d="M1553.8 165.739L1629.5 174.139L1617.6 174.639L1553.8 165.739Z" fill="#CDEAFC"/>
</svg>
