<svg width="68" height="65" viewBox="0 0 68 65" fill="none" xmlns="http://www.w3.org/2000/svg">
<path opacity="0.4" d="M47.7969 4.95312H5.85938C4.28267 4.95312 3 6.23579 3 7.8125V62.1406C3 63.7173 4.28267 65 5.85938 65H47.7969C49.3736 65 50.6562 63.7173 50.6562 62.1406V7.8125C50.6562 6.23579 49.3736 4.95312 47.7969 4.95312Z" fill="#546CA0"/>
<path opacity="0.4" d="M7.73953 4.95312H5.85938C4.28267 4.95312 3 6.23579 3 7.8125V62.1406C3 63.7173 4.28267 65 5.85938 65H7.73953V4.95312Z" fill="#546CA0"/>
<path d="M8.1875 5C6.61079 5 5.32812 6.28267 5.32812 7.85938V56.1875C5.32812 57.7642 6.61079 59.0469 8.1875 59.0469" stroke="#393B3F" stroke-linecap="round"/>
<path opacity="0.4" d="M43.9844 4H34.4531C33.9268 4 33.5 4.42676 33.5 4.95312V19.2495C33.5 19.593 33.6843 19.9099 33.9831 20.0789C34.2819 20.2483 34.6486 20.2446 34.9437 20.0667L39.2188 17.5016L43.4939 20.0668C43.6447 20.1576 43.815 20.2028 43.9844 20.2028C44.1463 20.2028 44.3083 20.1618 44.4544 20.079C44.7532 19.91 44.9375 19.5931 44.9375 19.2496V4.95312C44.9375 4.42676 44.5107 4 43.9844 4Z" fill="#546CA0"/>
<path opacity="0.4" d="M7.28125 61.1875C6.75441 61.1875 6.32812 60.7607 6.32812 60.2344V9.71875C6.32812 9.19239 6.75441 8.76562 7.28125 8.76562C7.80809 8.76562 8.23438 9.19239 8.23438 9.71875V60.2344C8.23438 60.7607 7.80809 61.1875 7.28125 61.1875Z" fill="#546CA0"/>
<path d="M8.32812 55.2344V8.71875" stroke="#393B3F" stroke-linecap="round"/>
<path fill-rule="evenodd" clip-rule="evenodd" d="M25.2848 43.3114L24.7522 43.4154C24.8259 43.2208 24.8913 43.007 24.9476 42.7729L24.9485 42.7691L28.1108 30.0962C28.5395 28.365 29.1697 27.0092 30.0322 26.0763L30.0354 26.0728C30.9489 25.1046 32.2113 24.6461 33.7564 24.6461C34.5509 24.6461 35.2556 24.8233 35.8455 25.2039C36.4087 25.5672 36.8382 26.0384 37.1199 26.6166C37.4097 27.1629 37.5571 27.7427 37.5571 28.3502C37.5571 28.8233 37.4436 29.256 37.1703 29.6016C36.8479 30.0326 36.259 30.1471 35.6635 30.1471C35.4997 30.1471 35.3282 30.1156 35.1701 30.0277C35.0079 29.9376 34.888 29.8038 34.8093 29.6463C34.6957 29.4191 34.6225 29.1198 34.5718 28.7819L34.5707 28.7743C34.5104 28.3223 34.4105 28.0272 34.3 27.8505C34.2693 27.8014 34.1524 27.6848 33.7082 27.6848C33.311 27.6848 32.9611 27.8296 32.6398 28.1509L32.633 28.1577C32.2815 28.4951 32.078 28.8391 31.9907 29.1882L28.6355 42.6576L28.1257 42.757C28.1258 42.7568 28.1257 42.7572 28.1257 42.757L28.6355 42.6576C28.2055 44.3936 27.5484 45.7536 26.632 46.6876C25.6839 47.6539 24.3663 48.1077 22.7484 48.1077C21.9407 48.1077 21.2233 47.9318 20.6195 47.5552C20.0247 47.1942 19.5737 46.7225 19.2884 46.1372C18.9986 45.5909 18.8512 45.0111 18.8512 44.4036C18.8512 43.9305 18.9647 43.4977 19.2379 43.1521C19.5604 42.7212 20.1492 42.6066 20.7447 42.6066C21.0961 42.6066 21.4133 42.7552 21.6057 43.0759L21.615 43.0913L21.6231 43.1074C21.7329 43.3272 21.8147 43.6273 21.8812 43.9756C21.9716 44.4269 22.0916 44.7268 22.2177 44.9103C22.2646 44.9785 22.406 45.0931 22.8449 45.0931C23.2812 45.0931 23.6785 44.9235 24.0524 44.5363L24.0581 44.5304L24.064 44.5247C24.3365 44.2616 24.5698 43.8972 24.7522 43.4154L25.2848 43.3114C25.2849 43.3113 25.2848 43.3115 25.2848 43.3114ZM24.7522 43.4154C24.7522 43.4155 24.7523 43.4153 24.7522 43.4154V43.4154Z" fill="#FC4648"/>
<path d="M35.7435 49.9846H39.4973V53.7385H35.7435V49.9846Z" fill="white"/>
<path d="M35.7435 55.6154H39.4973V59.3692H35.7435V55.6154Z" fill="white"/>
<path d="M35.7435 61.2462H39.4973V65.0001H35.7435V61.2462Z" fill="white"/>
<path d="M41.3743 49.9846H45.1281V53.7385H41.3743V49.9846Z" fill="white"/>
<path d="M41.3743 55.6154H45.1281V59.3692H41.3743V55.6154Z" fill="white"/>
<path d="M41.3743 61.2462H45.1281V65.0001H41.3743V61.2462Z" fill="white"/>
<path d="M47.005 49.9846H50.7589V53.7385H47.005V49.9846Z" fill="white"/>
<path d="M47.005 55.6154H50.7589V59.3692H47.005V55.6154Z" fill="white"/>
<path d="M47.005 61.2462H50.7589V62.0001C50.7589 63.6569 49.4157 65.0001 47.7589 65.0001H47.005V61.2462Z" fill="white"/>
<path d="M2.85938 2.45312H44.7969C46.0974 2.45312 47.1562 3.51194 47.1562 4.8125V59.1406C47.1562 60.4412 46.0974 61.5 44.7969 61.5H2.85938C1.55881 61.5 0.5 60.4412 0.5 59.1406V4.8125C0.5 3.51194 1.55881 2.45312 2.85938 2.45312Z" stroke="#393B3F"/>
<path d="M30.0816 16.4347L30.0811 16.4344C29.925 16.3462 29.8281 16.1803 29.8281 15.9995V1C29.8281 0.723892 30.052 0.5 30.3281 0.5H40.3281C40.6042 0.5 40.8281 0.723892 40.8281 1V15.9997C40.8281 16.1804 40.7312 16.3463 40.5752 16.4345L40.5747 16.4348C40.4983 16.4781 40.4135 16.4997 40.3281 16.4997C40.2389 16.4997 40.1497 16.4758 40.0713 16.4287L40.0708 16.4283L35.5854 13.7369L35.3281 13.5826L35.0709 13.7369L30.5856 16.4282L30.5848 16.4287C30.4307 16.5215 30.2389 16.5239 30.0816 16.4347Z" stroke="#393B3F"/>
<circle opacity="0.4" cx="58.6" cy="48.8" r="6.8" fill="#546CA0"/>
<circle opacity="0.4" cx="35.9333" cy="48.8" r="6.8" fill="#546CA0"/>
<circle cx="59.1667" cy="50.5" r="8" stroke="#393B3F"/>
<circle cx="36.5" cy="50.5" r="8" stroke="#393B3F"/>
<path d="M51.2333 49.9333C51.2333 48.0556 49.7111 46.5333 47.8333 46.5333C45.9556 46.5333 44.4333 48.0556 44.4333 49.9333" stroke="#393B3F"/>
</svg>
