<?xml version="1.0" standalone="no"?>
<!DOCTYPE svg PUBLIC "-//W3C//DTD SVG 1.1//EN" "http://www.w3.org/Graphics/SVG/1.1/DTD/svg11.dtd" >
<svg xmlns="http://www.w3.org/2000/svg" xmlns:xlink="http://www.w3.org/1999/xlink" version="1.1">
<metadata>
Created by FontForge 20170731 at Thu Jan 24 00:09:56 2013
 By Aleksey,,,
Copyright (c) 2012 by Tim Donaldson. All rights reserved.
</metadata>
<defs>
<font id="OtamaDisplay-Black" horiz-adv-x="550" >
  <font-face 
    font-family="OtamaDisplay-Black"
    font-weight="800"
    font-stretch="normal"
    units-per-em="1000"
    panose-1="2 0 9 3 0 0 0 2 0 3"
    ascent="720"
    descent="-280"
    x-height="448"
    cap-height="665"
    bbox="-448 -292 934 946.071"
    underline-thickness="50"
    underline-position="-150"
    unicode-range="U+0020-FB02"
  />
<missing-glyph horiz-adv-x="226" 
 />
    <glyph glyph-name="fi" unicode="fi" horiz-adv-x="617" 
d="M270 589q0 30 20 50.5t49 20.5q23 0 39 -12q-25 38 -66 38q-38 0 -62.5 -18.5t-34.5 -65.5q-5 -25 -5 -75q0 -52 2 -79h61v-15h-61v-420h61v-13h-259v13h62v420h-82v15h82q0 79 10 120q34 144 190 144q55 0 94 -33.5t39 -84.5q0 -33 -20 -53.5t-50 -20.5q-29 0 -49 20
t-20 49zM406 435h-62v13h198v-435h61v-13h-259v13h62v422z" />
    <glyph glyph-name="fl" unicode="fl" horiz-adv-x="597" 
d="M293 702h275v-13h-47v-676h62v-13h-255v13h57v626q-9 25 -34.5 37.5t-54.5 12.5q-61 0 -79 -76q-5 -24 -5 -70v-95h81v-15h-81v-420h60v-13h-259v13h63v420h-63v15h63q0 88 13 130q40 124 204 124z" />
    <glyph glyph-name=".notdef" horiz-adv-x="226" 
 />
    <glyph glyph-name=".null" horiz-adv-x="0" 
 />
    <glyph glyph-name="nonmarkingreturn" horiz-adv-x="333" 
 />
    <glyph glyph-name="space" unicode=" " horiz-adv-x="226" 
 />
    <glyph glyph-name="exclam" unicode="!" horiz-adv-x="296" 
d="M156 190h-19q-3 40 -34.5 194.5t-31.5 203.5q0 36 21.5 61t55.5 25t55.5 -24.5t21.5 -59.5q0 -50 -32.5 -205.5t-36.5 -194.5zM67 57q0 32 22.5 54.5t54.5 22.5t54.5 -22.5t22.5 -54.5t-22.5 -54.5t-54.5 -22.5t-54.5 22.5t-22.5 54.5z" />
    <glyph glyph-name="quotedbl" unicode="&#x22;" horiz-adv-x="247" 
d="M67 455h-14q-1 6 -20 88.5t-19 113.5q0 19 13 32t34 13t34 -13t13 -32q0 -31 -19.5 -110t-21.5 -92zM193 455h-15q-2 13 -20.5 92t-18.5 110q0 19 13 32t34 13q20 0 33.5 -13t13.5 -32q0 -31 -19 -108.5t-21 -93.5z" />
    <glyph glyph-name="numbersign" unicode="#" horiz-adv-x="515" 
d="M386 448l66 217h15l-65 -217h99l-3 -14h-100l-56 -187h100l-3 -14h-101l-69 -233h-16l69 233h-170l-70 -233h-15l69 233h-122l5 14h121l56 187h-123l4 14h123l66 217h15l-65 -217h170zM212 434l-56 -187h170l56 187h-170z" />
    <glyph glyph-name="dollar" unicode="$" horiz-adv-x="546" 
d="M45 125q0 34 20.5 56.5t51.5 22.5q32 0 55 -23t23 -56q0 -30 -23 -52.5t-55 -22.5q-11 0 -22 3q47 -45 126 -53v293q-95 42 -137 82.5t-42 107.5q0 82 50 131.5t129 62.5v49h14v-47q21 3 42 3l16 -1v45h15v-46q70 -8 121.5 -46t51.5 -101q0 -32 -20.5 -54t-51.5 -22
t-53 22t-22 53q0 33 22 56t53 23q15 0 32 -7q-49 52 -133 61v-250q51 -22 83.5 -40.5t60.5 -45t40.5 -62t12.5 -81.5q0 -50 -18.5 -88.5t-49.5 -60t-62 -32.5t-67 -16v-46h-15v44q-22 -2 -33 -2l-25 1v-43h-14v44q-74 7 -125 47.5t-51 90.5zM251 -1q20 0 42 5v257l-58 26
v-287q5 -1 16 -1zM392 119q0 78 -84 133v-244q40 15 62 47t22 64zM280 667q-25 0 -45 -7v-214l58 -25v245q-7 1 -13 1zM151 555q0 -62 70 -101v201q-34 -14 -52 -42t-18 -58z" />
    <glyph glyph-name="percent" unicode="%" horiz-adv-x="559" 
d="M48 45l462 583l10 -8l-459 -584zM317 521q0 -69 -40.5 -112.5t-113.5 -43.5t-111 41.5t-38 109.5q0 64 42 106.5t110 42.5q67 0 109 -39.5t42 -104.5zM166 651q-50 0 -50 -129q0 -35 2 -58.5t7 -44t15.5 -30.5t26.5 -10q28 0 37.5 36t9.5 107q0 67 -10 98t-38 31z
M545 156q0 -69 -40.5 -112.5t-113.5 -43.5q-72 0 -110.5 42t-38.5 109q0 65 42 107t110 42q67 0 109 -39.5t42 -104.5zM394 286q-50 0 -50 -129q0 -35 2 -58.5t7 -44t15.5 -30.5t26.5 -10q28 0 37.5 36t9.5 107q0 67 -10 98t-38 31z" />
    <glyph glyph-name="ampersand" unicode="&#x26;" horiz-adv-x="623" 
d="M501 263q7 27 7 88q0 41 -24.5 63t-64.5 22v12h172v-12q-38 0 -53.5 -19t-15.5 -56q0 -80 -10 -114q63 -90 63 -151q0 -47 -28 -79.5t-71 -44.5l-5 10q11 9 11 29q0 41 -39 90q-29 -53 -81.5 -81t-110.5 -28q-94 0 -153.5 58.5t-59.5 146.5q0 129 172 222q-32 58 -32 112
q0 65 43.5 105.5t105.5 40.5q38 0 62 -24t24 -63q0 -75 -72 -121q7 -10 67 -83.5t93 -122.5zM217 402q-58 -43 -58 -107q0 -82 52 -146t131 -64q50 0 87 34q-19 25 -67.5 85t-86.5 110.5t-58 87.5zM332 481q67 43 67 109q0 31 -17.5 50.5t-43.5 19.5q-29 0 -45.5 -17.5
t-16.5 -42.5q0 -42 56 -119z" />
    <glyph glyph-name="quotesingle" unicode="'" horiz-adv-x="122" 
d="M67 455h-14q-1 6 -20 88.5t-19 113.5q0 19 13 32t34 13t34 -13t13 -32q0 -31 -19.5 -110t-21.5 -92z" />
    <glyph glyph-name="parenleft" unicode="(" horiz-adv-x="151" 
d="M174 766l11 -7q-67 -104 -100.5 -212.5t-33.5 -241.5q0 -263 130 -471l-11 -7q-82 89 -128.5 214.5t-46.5 263.5q0 263 179 461z" />
    <glyph glyph-name="parenright" unicode=")" horiz-adv-x="151" 
d="M-34 759l12 7q178 -197 178 -461q0 -138 -46 -263.5t-128 -214.5l-12 7q130 206 130 471q0 133 -33.5 241.5t-100.5 212.5z" />
    <glyph glyph-name="asterisk" unicode="*" horiz-adv-x="560" 
d="M286 349h-15q-2 13 -20.5 92t-18.5 110q0 19 13 32t34 13t34.5 -13t13.5 -32q0 -31 -19.5 -108t-21.5 -94zM254 337l-3 -13q-10 2 -92.5 8.5t-113.5 16.5q-18 5 -26.5 21t-1.5 36q6 20 22.5 29t34.5 3q30 -10 100 -53t80 -48zM256 304l13 -8q-5 -10 -37 -86t-51 -101
q-11 -15 -28.5 -17.5t-34.5 9.5t-20.5 30.5t7.5 32.5q18 25 79 77t72 63zM306 337q10 5 80 48t100 53q18 6 34.5 -3t22.5 -29q7 -20 -1.5 -36t-26.5 -21q-31 -10 -113.5 -16.5t-92.5 -8.5zM304 304q11 -11 72 -63t79 -77q11 -14 7.5 -32t-20.5 -31q-17 -12 -34.5 -9.5
t-28.5 17.5q-19 25 -51 101t-37 86z" />
    <glyph glyph-name="plus" unicode="+" horiz-adv-x="453" 
d="M233 238h206v-13h-206v-206h-15v206h-204v13h204v206h15v-206z" />
    <glyph glyph-name="comma" unicode="," horiz-adv-x="186" 
d="M91 148q32 0 56.5 -24.5t24.5 -67.5q0 -47 -34 -81.5t-83 -44.5l-2 14q76 17 92 79q-19 -23 -55 -23q-31 0 -53.5 21.5t-22.5 55.5q0 30 23.5 50.5t53.5 20.5z" />
    <glyph glyph-name="hyphen" unicode="-" horiz-adv-x="250" 
d="M14 226v76h211v-76h-211z" />
    <glyph glyph-name="period" unicode="." horiz-adv-x="204" 
d="M14 72q0 32 22.5 54.5t54.5 22.5t54.5 -22.5t22.5 -54.5t-22.5 -54.5t-54.5 -22.5t-54.5 22.5t-22.5 54.5z" />
    <glyph glyph-name="slash" unicode="/" horiz-adv-x="241" 
d="M14 0l199 669l14 -4l-200 -669z" />
    <glyph glyph-name="zero" unicode="0" horiz-adv-x="594" 
d="M561 333q0 -74 -14 -134t-44 -108.5t-82.5 -75.5t-124.5 -27q-60 0 -107 20t-76 52t-47.5 78t-25.5 93t-7 102q0 94 25.5 169t87 125t152.5 50q71 0 124 -29.5t82 -80.5t43 -109.5t14 -124.5zM297 664q-33 0 -55 -25.5t-31.5 -76.5t-13 -102t-3.5 -127q0 -182 20 -257
t82 -75q34 0 55 19.5t31.5 65.5t14 101t3.5 146q0 76 -3.5 127.5t-13 102t-31.5 76t-55 25.5z" />
    <glyph glyph-name="one" unicode="1" horiz-adv-x="325" 
d="M95 547h-66v13q47 7 112 51.5t91 90.5h13v-689h61v-13h-272v13h61v534z" />
    <glyph glyph-name="two" unicode="2" horiz-adv-x="507" 
d="M125 451q-33 0 -52.5 22.5t-19.5 60.5q0 64 54.5 102t139.5 38q92 0 157 -46t65 -136q0 -59 -35 -104t-88 -73.5t-108 -54t-103 -61t-65 -78.5q22 30 98 30q35 0 104 -19t99 -19q34 0 47.5 16t11.5 32l7 5q27 -22 27 -72q0 -111 -116 -111q-38 0 -104.5 21t-112.5 21
q-56 0 -74 -25h-19q-4 20 -4 44q0 50 20 95t50.5 76.5t66 66t66 64t50.5 70t20 84.5q0 71 -36.5 108t-88.5 37q-33 0 -59 -16.5t-40 -39.5q19 13 42 13q33 0 56 -23t23 -56q0 -30 -23 -51t-56 -21z" />
    <glyph glyph-name="three" unicode="3" horiz-adv-x="486" 
d="M161 12q63 0 95 51t32 135q0 86 -44 133.5t-123 43.5v15q55 5 95.5 38.5t40.5 94.5q0 51 -25 78t-67 27q-36 0 -66 -19.5t-47 -53.5l-13 5q20 45 69.5 80.5t126.5 35.5t126.5 -38t49.5 -97q0 -52 -44.5 -93.5t-133.5 -54.5v-5q215 -21 215 -194q0 -104 -69 -155t-178 -51
q-77 0 -131 36t-54 99q0 33 22 56t53 23q33 0 56 -23t23 -56q0 -30 -23 -52.5t-56 -22.5q-19 0 -36 9q39 -45 106 -45z" />
    <glyph glyph-name="four" unicode="4" horiz-adv-x="464" 
d="M-5 210v14l293 441h72v-442h100v-13h-100v-198h60v-12h-279v13h69v197h-215zM12 223h198v299z" />
    <glyph glyph-name="five" unicode="5" horiz-adv-x="483" 
d="M20 123q0 32 22 55t53 23q32 0 55.5 -23t23.5 -55q0 -31 -23.5 -53.5t-55.5 -22.5q-21 0 -37 9q39 -45 105 -45q61 0 94.5 46t33.5 162q0 107 -27 159t-85 52q-24 0 -50 -11.5t-36.5 -19.5t-16.5 -14l-15 5l21 275q74 -13 178 -13q123 0 136 24h13q3 -137 -186 -137
q-68 0 -135 11l-12 -147q21 19 60 35t84 16q101 0 165.5 -57t64.5 -170q0 -57 -15.5 -100.5t-40 -69.5t-58 -42t-65 -22t-65.5 -6q-78 0 -132 36t-54 100z" />
    <glyph glyph-name="six" unicode="6" horiz-adv-x="566" 
d="M345 554q0 33 22 56t53 23q18 0 33 -6q-33 31 -84 31q-147 0 -156 -289q37 48 128 48q79 0 133 -55t54 -147q0 -109 -63 -167.5t-174 -58.5q-129 0 -186.5 87t-57.5 233q0 161 78.5 263.5t223.5 102.5q59 0 103.5 -30.5t44.5 -80.5q0 -37 -22 -60t-55 -23q-31 0 -53 21
t-22 52zM210 341q-2 -36 -2 -98q0 -126 19 -183.5t62 -57.5q27 0 44.5 16.5t25.5 48.5t11 64.5t3 79.5q0 70 -20.5 122t-66.5 52q-23 0 -46 -13t-30 -31z" />
    <glyph glyph-name="seven" unicode="7" horiz-adv-x="437" 
d="M18 455l-2 210h408v-13l-195 -639h75v-13h-286v13h58l197 639h-39q-93 0 -142 -44t-61 -153h-13z" />
    <glyph glyph-name="eight" unicode="8" horiz-adv-x="531" 
d="M446 551q0 -83 -112 -139q84 -53 124 -108t40 -128q0 -92 -70.5 -141.5t-169.5 -49.5q-103 0 -164 43.5t-61 133.5q0 63 42.5 107.5t96.5 65.5q-111 76 -111 172q0 85 55.5 131t144.5 46q75 0 130 -34.5t55 -98.5zM267 671q-40 0 -66 -24.5t-26 -62.5q0 -37 30.5 -72.5
t108.5 -83.5q16 12 28.5 45t12.5 72q0 57 -21.5 91.5t-66.5 34.5zM148 147q0 -72 29 -110.5t82 -38.5q52 0 79.5 37t27.5 85q0 46 -40 91.5t-129 103.5q-49 -47 -49 -168z" />
    <glyph glyph-name="nine" unicode="9" horiz-adv-x="566" 
d="M221 112q0 -33 -22 -56t-53 -23q-19 0 -34 6q13 -13 37.5 -22t46.5 -9q146 0 157 289q-37 -48 -128 -48q-80 0 -133.5 54.5t-53.5 147.5q0 109 63 167.5t173 58.5q244 0 244 -320q0 -161 -78.5 -264t-223.5 -103q-60 0 -104 31t-44 83q0 36 22 58.5t56 22.5q31 0 53 -21
t22 -52zM356 325q2 36 2 98q0 126 -19.5 183.5t-61.5 57.5q-27 0 -44.5 -16.5t-25.5 -48.5t-11 -64.5t-3 -79.5q0 -70 20.5 -122t66.5 -52q23 0 46 13t30 31z" />
    <glyph glyph-name="colon" unicode=":" horiz-adv-x="182" 
d="M14 72q0 32 22.5 54.5t54.5 22.5t54.5 -22.5t22.5 -54.5t-22.5 -54.5t-54.5 -22.5t-54.5 22.5t-22.5 54.5zM14 375q0 32 22.5 54.5t54.5 22.5t54.5 -22.5t22.5 -54.5t-22.5 -54.5t-54.5 -22.5t-54.5 22.5t-22.5 54.5z" />
    <glyph glyph-name="semicolon" unicode=";" horiz-adv-x="186" 
d="M14 375q0 32 22.5 54.5t54.5 22.5t54.5 -22.5t22.5 -54.5t-22.5 -54.5t-54.5 -22.5t-54.5 22.5t-22.5 54.5zM91 148q32 0 56.5 -24.5t24.5 -67.5q0 -47 -34 -81.5t-83 -44.5l-2 14q76 17 92 79q-19 -23 -55 -23q-31 0 -53.5 21.5t-22.5 55.5q0 30 23.5 50.5t53.5 20.5z
" />
    <glyph glyph-name="less" unicode="&#x3c;" horiz-adv-x="503" 
d="M489 -7v-16l-475 239v15l475 238v-16l-457 -230z" />
    <glyph glyph-name="equal" unicode="=" horiz-adv-x="453" 
d="M439 321v-13h-425v13h425zM439 159v-14h-425v14h425z" />
    <glyph glyph-name="greater" unicode="&#x3e;" horiz-adv-x="503" 
d="M14 -23v16l457 230l-457 230v16l475 -238v-15z" />
    <glyph glyph-name="question" unicode="?" horiz-adv-x="437" 
d="M24 530q0 64 50.5 105t122.5 41q90 0 153.5 -36.5t63.5 -109.5q0 -50 -25.5 -87.5t-62 -62.5t-72.5 -49.5t-62 -62t-26 -86.5h-12q-6 27 -6 51q0 41 18 80t39 66t39 69t18 88q0 48 -28.5 80.5t-77.5 32.5q-34 0 -61.5 -17.5t-41.5 -42.5q19 16 45 16q32 0 55 -23t23 -56
q0 -31 -23 -52.5t-55 -21.5q-30 0 -52 22.5t-22 55.5zM94 62q0 32 22.5 54.5t54.5 22.5q31 0 54 -22.5t23 -54.5t-22.5 -54.5t-54.5 -22.5t-54.5 22.5t-22.5 54.5z" />
    <glyph glyph-name="at" unicode="@" horiz-adv-x="726" 
d="M497 147q-50 0 -76 34t-23 79q-17 -27 -26.5 -40t-28 -32t-41 -27t-51.5 -8q-55 0 -86 39.5t-31 95.5q0 94 72 174t168 80q82 0 82 -75q6 23 21 63h135q-76 -197 -76 -287q0 -61 26 -61q43 0 89.5 69t46.5 154q0 115 -96 190.5t-217 75.5q-148 0 -252.5 -100.5
t-104.5 -244.5q0 -147 103.5 -240t255.5 -93q45 0 94.5 10.5t77.5 28.5q6 -8 7 -11q-64 -41 -180 -41q-100 0 -184 41.5t-136 121.5t-52 182q0 151 108.5 255t260.5 104q129 0 229 -78.5t100 -200.5q0 -99 -59 -178.5t-156 -79.5zM441 467q0 24 -9.5 37t-23.5 13
q-45 0 -95 -93.5t-50 -182.5q0 -63 33 -63q25 0 59 43t60 112.5t26 133.5z" />
    <glyph glyph-name="A" unicode="A" horiz-adv-x="692" 
d="M374 684l267 -671h56v-13h-280v13h62l-95 239h-206l-109 -239h61v-13h-135v13h57l309 671h13zM379 265l-91 228l-105 -228h196z" />
    <glyph glyph-name="B" unicode="B" horiz-adv-x="663" 
d="M33 652v13h152q21 0 65.5 2.5t72.5 2.5q46 0 85.5 -6.5t77 -22t59.5 -47.5t22 -77q0 -129 -215 -147v-6q116 -5 193.5 -49t77.5 -133q0 -187 -292 -187q-34 0 -80 2.5t-66 2.5h-152v13h62v639h-62zM245 354v-342q24 -3 46 -3q175 0 175 172q0 97 -50 135.5t-139 38.5
q-21 0 -32 -1zM245 653v-283q168 -7 168 148q0 136 -144 136q-16 0 -24 -1z" />
    <glyph glyph-name="C" unicode="C" horiz-adv-x="666" 
d="M40 316q0 168 103.5 266.5t263.5 98.5q118 0 224 -46l-3 -196h-14q-14 111 -59 169.5t-140 58.5q-210 0 -210 -354q0 -156 44 -235t143 -79q193 0 216 264h13l3 -232q-101 -46 -235 -46q-157 0 -253 90.5t-96 240.5z" />
    <glyph glyph-name="D" unicode="D" horiz-adv-x="717" 
d="M33 652v13h176q28 0 55.5 1.5t33.5 1.5q104 0 188 -35t137.5 -110t53.5 -179q0 -177 -102 -262.5t-271 -85.5q-15 0 -55 2t-78 2h-138v13h62v639h-62zM245 652v-640q28 -2 41 -2q108 0 164.5 73t56.5 250q0 95 -16.5 160t-49 99t-70.5 47.5t-90 13.5q-24 0 -36 -1z" />
    <glyph glyph-name="E" unicode="E" horiz-adv-x="595" 
d="M560 0h-527v13h62v639h-62v13h518l-3 -219h-12q-11 111 -58 154.5t-141 49.5q-34 2 -78 2h-14v-294q35 0 60 3q48 5 78 38.5t33 86.5h13v-269h-13q-5 54 -36.5 87.5t-73.5 37.5l-61 3v-332h46q40 0 64 2q83 8 131.5 57t58.5 157h12z" />
    <glyph glyph-name="F" unicode="F" 
d="M322 14v-14h-289v13h62v639h-62v13h498l-3 -219h-12q-11 107 -56 152t-126 52q-30 2 -70 2h-19v-294q26 1 49 3q47 5 76.5 38.5t33.5 86.5h12v-269h-12q-6 54 -36.5 87.5t-72.5 37.5l-50 3v-331h77z" />
    <glyph glyph-name="G" unicode="G" horiz-adv-x="710" 
d="M422 257h289v-13h-62v-181q-52 -40 -125 -59t-134 -19q-155 0 -253 91t-98 240q0 168 103.5 266.5t263.5 98.5q116 0 220 -46l-3 -190h-13q-18 222 -197 222q-209 0 -209 -354q0 -314 196 -314q71 0 89 60q12 37 8 185h-75v13z" />
    <glyph glyph-name="H" unicode="H" horiz-adv-x="732" 
d="M33 652v13h272v-13h-59v-310h240v310h-59v13h271v-13h-61v-639h61v-13h-270v13h58v316h-240v-316h59v-13h-272v13h62v639h-62z" />
    <glyph glyph-name="I" unicode="I" horiz-adv-x="341" 
d="M246 652v-639h62v-13h-275v13h62v639h-62v13h275v-13h-62z" />
    <glyph glyph-name="J" unicode="J" horiz-adv-x="452" 
d="M367 652v-376q0 -95 -13 -141q-41 -148 -215 -148q-61 0 -102.5 31t-41.5 82q0 33 22.5 56.5t52.5 23.5q33 0 56 -23t23 -55q0 -31 -23 -53t-56 -22q-19 0 -33 7q29 -27 74 -27q34 0 60.5 20.5t36.5 56.5q9 33 9 117v451h-71v13h277v-13h-56z" />
    <glyph glyph-name="K" unicode="K" horiz-adv-x="736" 
d="M245 652v-639h59v-13h-271v13h62v639h-62v13h272v-13h-60zM247 355l294 297h-69v13h153v-13h-65l-196 -202l297 -437h56v-13h-297v13h59l-232 340v2z" />
    <glyph glyph-name="L" unicode="L" 
d="M246 652v-639h29q51 0 79 5q149 27 162 211h12l3 -229h-498v13h62v639h-62v13h284v-13h-71z" />
    <glyph glyph-name="M" unicode="M" horiz-adv-x="825" 
d="M13 13h62v639h-62v13h233l160 -451l162 451h224v-13h-62v-639h62v-13h-276v13h62v637h-1l-235 -660h-15l-237 660h-1v-637h62v-13h-138v13z" />
    <glyph glyph-name="N" unicode="N" horiz-adv-x="575" 
d="M-2 665h247l247 -401v388h-57v13h132v-13h-62v-664h-14l-416 662h-1v-637h57v-13h-133v13h62v639h-62v13z" />
    <glyph glyph-name="O" unicode="O" horiz-adv-x="792" 
d="M40 319q0 172 103 267t262 95q164 0 255.5 -98.5t91.5 -253.5q0 -84 -30.5 -151.5t-82.5 -108.5t-117 -62.5t-137 -21.5q-156 0 -250.5 91t-94.5 243zM584 316q0 351 -187 351q-43 0 -75.5 -16t-52.5 -46.5t-33 -63.5t-19 -76.5t-8 -76t-2 -72.5q0 -150 46 -233.5
t141 -83.5q49 0 85 20.5t55.5 50.5t31.5 75.5t15 84t3 86.5z" />
    <glyph glyph-name="P" unicode="P" horiz-adv-x="615" 
d="M309 13v-13h-276v13h62v639h-62v13h153q19 0 67.5 2.5t71.5 2.5q102 0 177 -57.5t75 -153.5q0 -110 -74.5 -166.5t-186.5 -57.5q-34 0 -69 3v-225h62zM247 653v-401q94 -7 134.5 51.5t40.5 155.5q0 89 -45.5 146t-129.5 48z" />
    <glyph glyph-name="Q" unicode="Q" horiz-adv-x="792" 
d="M370 -12v2q-149 0 -240 90.5t-91 238.5q0 172 103 267t262 95q164 0 255.5 -98.5t91.5 -253.5q0 -107 -49.5 -187t-136.5 -119q-40 -19 -146.5 -37.5t-160.5 -44.5l1 -1q23 6 42 6q35 0 73 -18t65.5 -40t61 -40t60.5 -18q34 0 55 15t25 30l4 15l13 -3q1 -21 -6 -49
t-22.5 -58.5t-48.5 -51t-76 -20.5q-45 0 -93.5 29t-81.5 63t-67 63t-54 29q-26 0 -47 -17q-4 3 -9 8q32 38 93 67t124 38zM583 316q0 351 -187 351q-43 0 -75.5 -16t-52.5 -46.5t-33 -63.5t-19 -76.5t-8 -76t-2 -72.5q0 -150 46 -233.5t141 -83.5q49 0 85 20.5t55.5 50.5
t31.5 75.5t15 84t3 86.5z" />
    <glyph glyph-name="R" unicode="R" horiz-adv-x="671" 
d="M246 322v-309h62v-13h-275v13h62v639h-62v13h158q22 0 67.5 2.5t74.5 2.5q98 0 169 -41.5t71 -126.5q0 -148 -228 -166v-5q97 -3 150 -39q40 -26 59 -66t25 -99q3 -27 6.5 -43t13 -29.5t24.5 -13.5q22 0 33 28l10 -3q-4 -27 -34 -54.5t-78 -27.5q-38 0 -64.5 16t-41 46
t-22 58.5t-11.5 66.5q-11 98 -39.5 124.5t-129.5 26.5zM246 653v-316q92 2 131.5 41.5t39.5 127.5q0 148 -146 148q-17 0 -25 -1z" />
    <glyph glyph-name="S" unicode="S" horiz-adv-x="535" 
d="M460 635v-191h-13q-7 100 -52 161.5t-125 61.5q-49 0 -82 -28t-33 -73q0 -67 77 -108q18 -10 86 -41t96 -52q79 -61 79 -168q0 -101 -70 -156.5t-172 -55.5q-107 0 -203 46l-6 232h14q3 -51 14.5 -95t32.5 -83.5t57 -62.5t84 -23q54 0 93 35.5t39 87.5q0 65 -61 112
q-31 24 -95.5 53.5t-78.5 37.5q-99 55 -99 158q0 86 63 142t150 56q101 0 205 -46z" />
    <glyph glyph-name="T" unicode="T" horiz-adv-x="609" 
d="M230 13v639q-94 0 -141 -43t-62 -154h-13l-3 210h587l-3 -210h-13q-15 111 -62 154t-140 43v-639h61v-13h-273v13h62z" />
    <glyph glyph-name="U" unicode="U" horiz-adv-x="654" 
d="M23 652v13h276v-13h-61v-181q0 -174 2 -258q2 -91 37 -149.5t114 -58.5q85 0 133.5 64t48.5 201v382h-62v13h138v-13h-62v-375q0 -162 -57 -225.5t-166 -63.5q-120 0 -190 61.5t-81 176.5q-8 88 -8 252v174h-62z" />
    <glyph glyph-name="V" unicode="V" horiz-adv-x="623" 
d="M378 195l180 457h-65v13h135v-13h-55l-258 -664h-16l-247 664h-57v13h279v-13h-62z" />
    <glyph glyph-name="W" unicode="W" horiz-adv-x="911" 
d="M666 195l180 457h-65v13h135v-13h-55l-258 -664h-16l-133 357l-139 -357h-16l-247 664h-57v13h567v-13h-62zM212 652l166 -457l67 172l-105 285h-128z" />
    <glyph glyph-name="X" unicode="X" horiz-adv-x="664" 
d="M0 652v13h294v-13h-62l137 -234l155 234h-62v13h135v-13h-56l-164 -247l231 -392h56v-13h-293v13h62l-159 268l-181 -268h61v-13h-135v13h57l191 281l-210 358h-57z" />
    <glyph glyph-name="Y" unicode="Y" horiz-adv-x="632" 
d="M637 665v-13h-56l-178 -309v-330h62v-13h-275v13h62v297l-200 342h-57v13h293v-13h-63l172 -291l168 291h-62v13h134z" />
    <glyph glyph-name="Z" unicode="Z" horiz-adv-x="606" 
d="M59 455l-3 210h502v-12l-342 -640h77q39 0 67 2q85 9 129.5 60.5t54.5 162.5h14l3 -238h-516v13l341 639h-84q-56 0 -70 -2q-71 -8 -109.5 -53t-50.5 -142h-13z" />
    <glyph glyph-name="bracketleft" unicode="[" horiz-adv-x="109" 
d="M14 -210v943h100v-12h-86v-919h86v-12h-100z" />
    <glyph glyph-name="backslash" unicode="\" horiz-adv-x="241" 
d="M27 669l200 -669l-14 -4l-199 669z" />
    <glyph glyph-name="bracketright" unicode="]" horiz-adv-x="109" 
d="M95 743v-953h-100v12h85v929h-85v12h100z" />
    <glyph glyph-name="asciicircum" unicode="^" horiz-adv-x="386" 
d="M193 685l-168 -349l-11 6l172 359h14l172 -359l-12 -6z" />
    <glyph glyph-name="underscore" unicode="_" horiz-adv-x="490" 
d="M14 -60v16h462v-16h-462z" />
    <glyph glyph-name="grave" unicode="`" horiz-adv-x="209" 
d="M195 511l-10 -9q-11 9 -76 57.5t-85 72.5q-12 14 -10 32t18 32q17 13 35 12t30 -15q21 -25 57 -99.5t41 -82.5z" />
    <glyph glyph-name="a" unicode="a" horiz-adv-x="490" 
d="M57 342q0 49 45.5 83.5t119.5 34.5q75 0 125.5 -35t62.5 -99q6 -30 6 -130v-116q0 -28 5.5 -39t20.5 -11q17 0 23 26l14 -4q-5 -26 -28 -44.5t-66 -18.5q-36 0 -62 16.5t-34 41.5q-31 -58 -113 -58q-65 0 -108 28.5t-43 84.5q0 67 69.5 104.5t185.5 44.5v60q0 49 -6 69
q-16 59 -87 59q-57 0 -92 -41q12 6 29 6q30 0 51 -21t21 -51q0 -28 -21 -46.5t-51 -18.5q-29 0 -48 20.5t-19 54.5zM216 18q23 0 45 19.5t22 37.5q-3 21 -3 60v102q-118 -16 -118 -131q0 -88 54 -88z" />
    <glyph glyph-name="b" unicode="b" horiz-adv-x="589" 
d="M221 338v-225q0 -28 23.5 -55.5t56.5 -27.5q103 0 103 194q0 193 -101 193q-29 0 -55.5 -25.5t-26.5 -53.5zM221 702v-321q13 31 52.5 55t84.5 24q80 0 138 -56.5t58 -177.5q0 -124 -53.5 -180.5t-140.5 -56.5q-53 0 -91.5 23t-47.5 55l-18 -67h-181v13h63v676h-62v13
h198z" />
    <glyph glyph-name="c" unicode="c" horiz-adv-x="466" 
d="M291 330q0 30 20 50.5t49 20.5q21 0 40 -11q-29 43 -83 43q-57 0 -97 -52.5t-40 -136.5q0 -85 35 -138t97 -53q41 0 76 28.5t42 60.5l15 -3q-3 -54 -55.5 -103t-133.5 -49q-95 0 -158 60.5t-63 177.5q0 105 70 172t163 67q72 0 117.5 -38t45.5 -88q0 -36 -20.5 -57
t-50.5 -21q-29 0 -49 20.5t-20 49.5z" />
    <glyph glyph-name="d" unicode="d" horiz-adv-x="590" 
d="M369 113v225q0 28 -27 53.5t-56 25.5q-101 0 -101 -193q0 -194 103 -194q33 0 57 27.5t24 55.5zM369 381v308h-73v13h209v-689h62v-13h-182l-16 67q-10 -32 -48.5 -55t-91.5 -23q-87 0 -140.5 57t-53.5 180q0 121 58 177.5t138 56.5q46 0 85.5 -24t52.5 -55z" />
    <glyph glyph-name="e" unicode="e" horiz-adv-x="477" 
d="M433 146l15 -3q-9 -63 -62 -109.5t-130 -46.5q-106 0 -163.5 66t-57.5 172q0 104 65 172t159 68q72 0 127.5 -33.5t55.5 -93.5q0 -58 -59 -80t-182 -22h-21q-2 -37 9 -77t43 -73t78 -33q43 0 77.5 28t45.5 65zM256 450q-18 0 -35 -17t-30 -65t-12 -118q7 -1 22 -1
q55 0 81 24t26 81q0 96 -52 96z" />
    <glyph glyph-name="f" unicode="f" horiz-adv-x="324" 
d="M270 589q0 30 20 50.5t49 20.5q23 0 39 -12q-25 38 -66 38q-38 0 -62.5 -18.5t-34.5 -65.5q-5 -25 -5 -75q0 -52 2 -79h61v-15h-61v-420h61v-13h-259v13h62v420h-82v15h82q0 79 10 120q34 144 190 144q55 0 94 -33.5t39 -84.5q0 -33 -20 -53.5t-50 -20.5q-29 0 -49 20
t-20 49z" />
    <glyph glyph-name="g" unicode="g" horiz-adv-x="475" 
d="M238 143q-76 0 -124 24q-18 -5 -18 -26q0 -24 29 -35t111 -21q52 -7 86 -15.5t68.5 -26.5t51.5 -50t17 -78q0 -80 -69 -130.5t-165 -50.5q-47 0 -86 9t-70 38t-31 74q0 37 28 65t78 39q-48 9 -81 36.5t-33 73.5q0 73 67 107q-69 42 -69 126q0 75 60.5 119t149.5 44
q83 0 139 -41q17 6 32 25t20 35q-13 -19 -40 -19q-26 0 -44.5 16.5t-18.5 42.5q0 25 16.5 42.5t41.5 17.5t44.5 -18.5t19.5 -54.5q0 -56 -57 -99q50 -44 50 -110q0 -71 -56 -115t-147 -44zM174 -41q-16 0 -23 -24t-7 -50q0 -56 33 -91.5t99 -35.5q47 0 78.5 26t31.5 73
q0 48 -45 70t-167 32zM301 303q0 74 -18 111t-48 37q-66 0 -66 -148q0 -72 18 -109t47 -37t48 36t19 110z" />
    <glyph glyph-name="h" unicode="h" horiz-adv-x="605" 
d="M85 13v676h-62v13h198v-322q13 28 54.5 52t93.5 24q148 0 155 -158q2 -34 2 -116v-169h62v-13h-249v13h51v182q0 61 -1 92q-2 121 -85 121q-29 0 -56 -21t-27 -51v-323h51v-13h-249v13h62z" />
    <glyph glyph-name="i" unicode="i" horiz-adv-x="311" 
d="M90 435h-62v13h198v-435h61v-13h-259v13h62v422zM81 591q0 32 22.5 54.5t54.5 22.5t54.5 -22.5t22.5 -54.5t-22.5 -54.5t-54.5 -22.5t-54.5 22.5t-22.5 54.5z" />
    <glyph glyph-name="j" unicode="j" horiz-adv-x="311" 
d="M-98 -126q0 32 20 51.5t48 19.5q29 0 50 -20.5t21 -50.5q0 -27 -18 -46.5t-45 -22.5q13 -4 31 -4q52 0 73 53q13 36 13 131v450h-62v13h198v-222q0 -220 -38 -309q-58 -130 -185 -130q-41 0 -73.5 23t-32.5 64zM85 591q0 32 22.5 54.5t54.5 22.5t54.5 -22.5t22.5 -54.5
t-22.5 -54.5t-54.5 -22.5t-54.5 22.5t-22.5 54.5z" />
    <glyph glyph-name="k" unicode="k" horiz-adv-x="566" 
d="M221 702v-351q20 45 68 77t102 32q57 0 88 -28t31 -70q0 -49 -42 -82t-93 -34v-7q51 -6 74.5 -35.5t31.5 -80.5q16 -101 47 -101q10 0 19 8t13 19l12 -4q-8 -30 -36.5 -51t-67.5 -21q-110 0 -125 135q-7 69 -28 99.5t-61 33.5v14q48 0 89.5 20.5t41.5 64.5q0 26 -18 46.5
t-48 20.5q-32 0 -65 -36.5t-33 -68.5v-289h51v-13h-249v13h62v676h-62v13h198z" />
    <glyph glyph-name="l" unicode="l" horiz-adv-x="306" 
d="M221 702v-689h61v-13h-259v13h62v676h-62v13h198z" />
    <glyph glyph-name="m" unicode="m" horiz-adv-x="895" 
d="M506 379q21 33 64 55t91 22q144 0 153 -158q2 -34 2 -116v-169h62v-13h-249v13h51v182q0 72 -1 92q-2 121 -83 121q-32 0 -58.5 -19t-22.5 -38q5 -25 7 -53q2 -34 2 -116v-169h51v-13h-238v13h51v182q0 72 -1 92q-5 121 -84 121q-29 0 -55.5 -21t-26.5 -51v-323h51v-13
h-249v13h62v422h-67v13h185l15 -74q14 32 56 57t93 25q98 0 139 -77z" />
    <glyph glyph-name="n" unicode="n" horiz-adv-x="605" 
d="M85 13v422h-67v13h185l15 -73q14 31 57 56t94 25q148 0 155 -158q2 -34 2 -116v-169h62v-13h-249v13h51v182q0 61 -1 92q-2 121 -85 121q-29 0 -56 -21t-27 -51v-323h51v-13h-249v13h62z" />
    <glyph glyph-name="o" unicode="o" 
d="M516 234q0 -112 -62.5 -179.5t-181.5 -67.5q-118 0 -177.5 64.5t-59.5 175.5q0 107 65 172t177 65q111 0 175 -61t64 -169zM276 449q-43 0 -67 -56t-24 -156q0 -236 92 -236q88 0 88 236q0 212 -89 212z" />
    <glyph glyph-name="p" unicode="p" horiz-adv-x="587" 
d="M221 381q13 31 52.5 55t84.5 24q80 0 137 -56.5t57 -177.5q0 -124 -52.5 -180.5t-139.5 -56.5q-48 0 -87.5 19t-51.5 48v-277h61v-14h-259v14h62v656h-62v13h183zM221 338v-241q0 -27 25.5 -48.5t60.5 -21.5q45 0 70.5 48.5t25.5 148.5q0 193 -100 193q-29 0 -55.5 -25.5
t-26.5 -53.5z" />
    <glyph glyph-name="q" unicode="q" horiz-adv-x="588" 
d="M367 381l15 67h182v-13h-61v-656h61v-14h-259v14h62v277q-12 -29 -52 -48t-88 -19q-87 0 -139.5 56.5t-52.5 180.5q0 121 57 177.5t137 56.5q46 0 85.5 -24t52.5 -55zM367 97v241q0 28 -27 53.5t-56 25.5q-100 0 -100 -193q0 -100 25.5 -148.5t70.5 -48.5q35 0 61 21.5
t26 48.5z" />
    <glyph glyph-name="r" unicode="r" horiz-adv-x="429" 
d="M283 351q0 31 21 53t51 22q18 0 36 -8q-26 28 -65 28q-43 0 -74 -39t-31 -86v-308h61v-13h-259v13h62v422h-62v13h179q15 -52 15 -55q19 29 46.5 49.5t57.5 20.5q38 0 73 -27.5t35 -73.5q0 -37 -20 -59.5t-53 -22.5q-30 0 -51.5 20.5t-21.5 50.5z" />
    <glyph glyph-name="s" unicode="s" horiz-adv-x="399" 
d="M346 427l-4 -122l-15 -2q-12 63 -48 102.5t-83 39.5q-77 0 -77 -53q0 -25 16.5 -42t34 -24t58.5 -21q78 -26 113 -61t35 -102q0 -69 -53 -113.5t-127 -44.5q-38 0 -85.5 8t-74.5 19l-4 151l15 1q7 -64 47.5 -114t94.5 -50q36 0 62.5 18.5t26.5 51.5q0 20 -9 35t-28.5 26
t-31.5 16t-35 13q-74 24 -112.5 57.5t-38.5 95.5q0 66 48 107.5t117 41.5q81 0 158 -34z" />
    <glyph glyph-name="t" unicode="t" horiz-adv-x="331" 
d="M303 31l7 -9q-29 -33 -90 -33q-31 0 -53.5 5.5t-46 29.5t-29.5 68q-6 38 -6 129v212h-63v15h63v81q43 0 79.5 24t42.5 59h14v-164h90v-15h-90v-311q0 -49 5 -68q8 -36 41 -36q20 0 36 13z" />
    <glyph glyph-name="u" unicode="u" horiz-adv-x="606" 
d="M521 448v-435h48v-13h-166q-15 73 -15 75q-16 -35 -57.5 -59t-93.5 -24q-147 0 -155 158q-2 34 -2 116v169h-62v13h198v-194q0 -62 1 -93q5 -120 86 -120q28 0 55.5 22t27.5 51v321h-61v13h196z" />
    <glyph glyph-name="v" unicode="v" horiz-adv-x="488" 
d="M-5 448h267v-13h-60l107 -267l113 267h-58v13h129v-13h-56l-189 -447h-12l-185 447h-56v13z" />
    <glyph glyph-name="w" unicode="w" horiz-adv-x="753" 
d="M322 448h209v-13h-58l101 -264l111 264h-57v13h130v-13h-57l-188 -447h-13l-124 311l-131 -311h-13l-178 447h-56v13h264v-13h-57l101 -264l62 148l-46 117v12z" />
    <glyph glyph-name="x" unicode="x" horiz-adv-x="501" 
d="M60 13l134 174l-143 248h-56v13h270v-13h-57l80 -135l97 135h-57v13h130v-13h-56l-106 -148l154 -274h56v-13h-273v13h61l-92 161l-125 -161h59v-13h-139v13h63z" />
    <glyph glyph-name="y" unicode="y" horiz-adv-x="488" 
d="M44 -132q0 33 20.5 53.5t50.5 20.5q31 0 52.5 -21t21.5 -53q0 -18 -10 -36q33 27 69 111q10 22 -1 46l-196 446h-56v13h265v-13h-60l127 -285l95 285h-60v13h131v-13h-56q-127 -385 -157 -456q-16 -38 -24.5 -56.5t-25 -48t-30.5 -44t-35 -26t-44 -11.5q-31 0 -54 21
t-23 54z" />
    <glyph glyph-name="z" unicode="z" horiz-adv-x="433" 
d="M30 9l212 426h-16q-35 0 -44 -1q-58 -5 -87.5 -35t-41.5 -92h-14l-3 141h364v-8l-214 -427h19q37 0 51 2q58 8 91.5 43.5t38.5 90.5h14l3 -149h-373v9z" />
    <glyph glyph-name="braceleft" unicode="{" horiz-adv-x="244" 
d="M152 219v-241q0 -86 59 -86v-13q-52 0 -95 37t-43 113v213q0 54 -50 54v14q29 -1 39.5 15t10.5 46v216q0 151 138 151v-12q-59 0 -59 -88v-251q0 -40 -18 -62t-51 -22v-1q33 0 51 -21.5t18 -61.5z" />
    <glyph glyph-name="bar" unicode="|" horiz-adv-x="42" 
d="M14 -235v960h14v-960h-14z" />
    <glyph glyph-name="braceright" unicode="}" horiz-adv-x="244" 
d="M92 -22v241q0 40 18 61.5t50 21.5v1q-32 0 -50 22t-18 62v251q0 43 -16 65.5t-43 22.5v12q138 0 138 -151v-216q0 -30 10 -46t39 -15v-14q-49 0 -49 -54v-213q0 -76 -43 -113t-95 -37v13q27 0 43 22t16 64z" />
    <glyph glyph-name="asciitilde" unicode="~" horiz-adv-x="512" 
d="M35 148h-13q-8 23 -8 49q0 59 39 96t101 37q50 0 141 -37.5t133 -37.5q23 0 36.5 15t13.5 38l-1 20h13q8 -23 8 -49q0 -57 -40 -95t-101 -38q-51 0 -142 37.5t-132 37.5q-22 0 -35.5 -15t-13.5 -38z" />
    <glyph glyph-name="exclamdown" unicode="&#xa1;" horiz-adv-x="296" 
d="M156 470q4 -39 36.5 -194.5t32.5 -205.5q0 -34 -21.5 -58.5t-55.5 -24.5t-55.5 24.5t-21.5 60.5q0 49 31.5 203.5t34.5 194.5h19zM70 597q0 32 22.5 54.5t54.5 22.5t54.5 -22.5t22.5 -54.5t-22.5 -54.5t-54.5 -22.5t-54.5 22.5t-22.5 54.5z" />
    <glyph glyph-name="cent" unicode="&#xa2;" horiz-adv-x="380" 
d="M253 61q56 0 88 56l11 -5q-14 -41 -53 -75t-105 -34q-47 0 -86 24l-43 -70l-12 8l43 70q-82 56 -82 174q0 99 59.5 154.5t144.5 55.5q59 0 96 -29l40 64l12 -8l-41 -67q17 -20 17 -49q0 -28 -16 -45.5t-43 -17.5q-14 0 -24 5l-93 -151q30 -60 87 -60zM227 324
q0 21 15.5 36.5t39.5 15.5q22 0 29 -5q-23 23 -56 23q-52 0 -83 -43.5t-31 -118.5q0 -52 18 -95l87 143q-19 16 -19 44z" />
    <glyph glyph-name="sterling" unicode="&#xa3;" horiz-adv-x="477" 
d="M23 294v15h78q-39 71 -39 157q0 94 63 152t153 58q92 0 138.5 -42.5t46.5 -90.5q0 -33 -19.5 -57.5t-54.5 -24.5q-33 0 -55.5 21.5t-22.5 52.5q0 33 23 56t56 23q20 0 35 -9q-42 48 -98 48t-85.5 -50.5t-29.5 -124.5q0 -75 2 -169h157v-15h-157q0 -107 -5 -155
q100 -16 168 -16q66 0 66 16v19h14q1 -16 1 -24q0 -64 -29.5 -105t-86.5 -41q-72 0 -161 72q-28 -60 -90 -60q-22 0 -41 16.5t-19 46.5t27 54.5t79 24.5l41 -1q-3 19 -7.5 35.5t-13 34t-13.5 27t-17.5 30t-16.5 26.5h-87zM170 70q-38 35 -77 35q-22 0 -35 -13t-13 -31
t12.5 -33t37.5 -15q47 0 75 57z" />
    <glyph glyph-name="currency" unicode="&#xa4;" horiz-adv-x="510" 
d="M495 591l-69 -69q64 -67 64 -161t-64 -161l70 -70l-11 -10l-69 69q-69 -64 -162 -64q-91 0 -160 64l-70 -69l-10 10l69 70q-63 66 -63 161t63 161l-69 69l11 10l69 -69q69 64 160 64q93 0 161 -63l69 68zM254 581q-90 0 -154.5 -64.5t-64.5 -155.5t64.5 -155.5
t154.5 -64.5q92 0 156 64.5t64 155.5t-64.5 155.5t-155.5 64.5z" />
    <glyph glyph-name="yen" unicode="&#xa5;" horiz-adv-x="632" 
d="M579 402v-14h-150l-26 -45v-32h162v-15h-162v-283h62v-13h-275v13h62v283h-169v15h168l-45 77h-136v14h128l-146 250h-57v13h293v-13h-63l172 -291l168 291h-62v13h134v-13h-56l-144 -250h142z" />
    <glyph glyph-name="brokenbar" unicode="&#xa6;" horiz-adv-x="42" 
d="M14 279v339h14v-339h-14zM14 -162v340h14v-340h-14z" />
    <glyph glyph-name="section" unicode="&#xa7;" horiz-adv-x="357" 
d="M192 198q78 -41 108 -75t30 -78q0 -68 -55 -110.5t-131 -42.5q-61 0 -101.5 30t-40.5 70q0 28 15 45.5t40 17.5t42 -16.5t17 -39.5t-17 -40.5t-42 -17.5q-14 0 -22 5q39 -42 106 -42q36 0 66 20t30 50q0 25 -23.5 47t-56.5 40t-66 39t-56.5 53.5t-23.5 73.5
q0 55 43.5 89.5t106.5 43.5q-77 40 -113.5 77t-36.5 93q0 62 57.5 98t124.5 36q57 0 90 -26.5t33 -63.5q0 -24 -17 -41t-40 -17q-22 0 -39.5 16t-17.5 40q0 30 22 45t50 12q-29 23 -83 23q-38 0 -64.5 -17.5t-26.5 -47.5q0 -24 23.5 -45t57.5 -38.5t68 -37t57.5 -50
t23.5 -67.5q0 -57 -35 -96.5t-103 -54.5zM170 209q67 20 67 66q0 38 -59 75q-38 -5 -58 -22.5t-20 -42.5q0 -37 70 -76z" />
    <glyph glyph-name="dieresis" unicode="&#xa8;" horiz-adv-x="0" 
d="M-448 627q0 28 20.5 48.5t49.5 20.5q28 0 48.5 -20t20.5 -49t-20.5 -49t-48.5 -20q-29 0 -49.5 20.5t-20.5 48.5zM-269 627q0 29 20 49t48 20q29 0 50 -20.5t21 -48.5t-21 -48.5t-50 -20.5q-28 0 -48 20t-20 49z" />
    <glyph glyph-name="copyright" unicode="&#xa9;" horiz-adv-x="666" 
d="M142 324q0 94 60.5 149t150.5 55q65 0 111 -28v-84h-14q-10 98 -93 98q-33 0 -56.5 -18.5t-35 -49t-16.5 -61t-5 -62.5q0 -80 27 -125t74 -45q92 0 102 121h13v-107q-48 -28 -117 -28q-89 0 -145 51t-56 134zM652 331q0 -133 -93 -226.5t-226 -93.5t-226 93.5t-93 226.5
q0 132 93 225.5t226 93.5t226 -93.5t93 -225.5zM333 635q-126 0 -215 -89t-89 -215q0 -127 89 -215.5t215 -88.5t215 88.5t89 215.5q0 126 -89 215t-215 89z" />
    <glyph glyph-name="ordfeminine" unicode="&#xaa;" horiz-adv-x="268" 
d="M74 645h4q12 0 21 -8.5t9 -21.5t-9 -22t-21 -9q-13 0 -22.5 9t-9.5 22q0 20 20.5 39.5t63.5 19.5q45 0 67.5 -22t22.5 -74v-110q0 -28 12 -28q8 0 12 9l10 -4q-11 -29 -52 -29q-36 0 -49 26q-23 -26 -60 -26q-33 0 -56 16.5t-23 48.5q0 66 132 79v52q0 47 -36 47
q-20 0 -36 -14zM118 437q8 0 18 5.5t13 11.5q-3 10 -3 37v56q-57 -12 -57 -66q0 -44 29 -44z" />
    <glyph glyph-name="guillemotleft" unicode="&#xab;" horiz-adv-x="359" 
d="M345 86l-11 -10q-153 123 -163 133q-20 16 0 34l163 133l11 -10l-106 -140zM196 86l-10 -10q-153 123 -163 133q-20 16 0 34l163 133l10 -10l-105 -140z" />
    <glyph glyph-name="logicalnot" unicode="&#xac;" horiz-adv-x="453" 
d="M439 320v-185h-16v170h-409v15h425z" />
    <glyph glyph-name="uni00AD" unicode="&#xad;" horiz-adv-x="40" 
 />
    <glyph glyph-name="registered" unicode="&#xae;" horiz-adv-x="666" 
d="M652 331q0 -133 -93 -226.5t-226 -93.5t-226 93.5t-93 226.5q0 132 93 225.5t226 93.5t226 -93.5t93 -225.5zM333 635q-126 0 -215 -89t-89 -215q0 -127 89 -215.5t215 -88.5t215 88.5t89 215.5q0 126 -89 215t-215 89zM292 328v-168h33v-13h-152v13h33v356h-33v12h88
q12 0 37 1.5t42 1.5q21 0 43 -5t44.5 -15.5t37 -31.5t14.5 -50q0 -41 -36 -65t-89 -27v-3q66 0 92.5 -25t26.5 -71q0 -36 5 -50.5t19 -14.5t19 16l11 -4q-3 -17 -21.5 -31t-50.5 -14q-71 0 -71 81q0 39 -4 60.5t-16.5 32t-27 12.5t-44.5 2zM292 517v-177q54 -1 76.5 21.5
t22.5 74.5q0 46 -20.5 64t-59.5 18q-3 0 -9 -0.5t-10 -0.5z" />
    <glyph glyph-name="degree" unicode="&#xb0;" horiz-adv-x="286" 
d="M272 573q0 -53 -38 -91t-91 -38t-91 38t-38 91t38 91t91 38t91 -38t38 -91zM143 686q-47 0 -80 -33t-33 -80t33 -80t80 -33t80 33t33 80t-33 80t-80 33z" />
    <glyph glyph-name="plusminus" unicode="&#xb1;" horiz-adv-x="453" 
d="M233 256h206v-14h-206v-189h-15v189h-204v14h204v188h15v-188zM439 32v-13h-425v13h425z" />
    <glyph glyph-name="twosuperior" unicode="&#xb2;" horiz-adv-x="358" 
d="M38 584q0 43 35.5 72t99.5 29q62 0 104.5 -28t42.5 -87q0 -39 -22.5 -67t-57 -45t-70.5 -32t-68 -38t-45 -53q16 23 64 23q24 0 67.5 -9t62.5 -9q44 0 40 21l7 2q20 -16 20 -48q0 -69 -78 -69q-26 0 -69.5 11.5t-73.5 11.5q-46 0 -51 -12h-12q-2 22 -2 28q0 41 18.5 75
t45 57.5t53.5 45.5t45.5 50.5t18.5 61.5q0 44 -24.5 66t-59.5 22q-41 0 -65 -34q16 7 30 7q25 0 42.5 -17.5t17.5 -42.5q0 -23 -17 -38t-42 -15q-23 0 -40 17.5t-17 43.5z" />
    <glyph glyph-name="threesuperior" unicode="&#xb3;" horiz-adv-x="331" 
d="M18 331q0 25 17 41.5t41 16.5q25 0 41.5 -17t16.5 -42q0 -23 -17.5 -39t-42.5 -16h-3q18 -8 41 -8q39 0 61 30.5t22 83.5q0 52 -29 81t-81 26v13q36 2 62.5 22t26.5 58q0 32 -16 48.5t-43 16.5q-24 0 -43.5 -14t-29.5 -34l-10 6q12 28 44.5 50t83.5 22t84 -23.5t33 -60.5
q0 -32 -30.5 -57.5t-87.5 -32.5v-4q62 0 103 -33t41 -91q0 -62 -48 -93t-118 -31q-49 0 -84 19t-35 62z" />
    <glyph glyph-name="acute" unicode="&#xb4;" horiz-adv-x="209" 
d="M14 511q7 12 43 85t56 97q12 14 30 15t34 -12q16 -14 18 -32t-10 -32q-20 -24 -85.5 -72.5t-75.5 -57.5z" />
    <glyph glyph-name="paragraph" unicode="&#xb6;" horiz-adv-x="486" 
d="M235 665h237v-13h-57v-639h57v-13h-294v13h56v275q-99 0 -159.5 50t-60.5 138q0 96 61.5 142.5t159.5 46.5zM250 652v-639h39v639h-39z" />
    <glyph glyph-name="periodcentered" unicode="&#xb7;" horiz-adv-x="173" 
d="M159 243q0 -29 -21 -50.5t-51 -21.5t-51.5 21.5t-21.5 50.5q0 31 21.5 52t51.5 21t51 -21t21 -52z" />
    <glyph glyph-name="cedilla" unicode="&#xb8;" horiz-adv-x="0" 
d="M-279 9l-85 -72q26 15 61 15q49 0 83.5 -29t34.5 -76q0 -50 -36 -78t-86 -28q-33 0 -62.5 15.5t-42.5 40.5l15 10q13 -24 49 -24q27 0 43.5 21t16.5 47q0 35 -29 56t-66 13l-11 12l91 77h24z" />
    <glyph glyph-name="onesuperior" unicode="&#xb9;" horiz-adv-x="253" 
d="M71 600h-48v12q37 2 83 29.5t59 60.5h12v-432h49v-13h-203v13h48v330z" />
    <glyph glyph-name="ordmasculine" unicode="&#xba;" horiz-adv-x="292" 
d="M278 549q0 -59 -35 -96.5t-98 -37.5t-97 36t-34 95q0 56 36.5 92t95.5 36t95.5 -34t36.5 -91zM146 662q-54 0 -54 -113q0 -122 56 -122q50 0 50 122q0 113 -52 113z" />
    <glyph glyph-name="guillemotright" unicode="&#xbb;" horiz-adv-x="359" 
d="M173 76l-11 10q78 100 106 140l-106 140l11 10q153 -122 163 -133q18 -18 0 -34zM24 76l-10 10q78 100 105 140l-105 140l10 10q153 -122 164 -133q18 -18 0 -34z" />
    <glyph glyph-name="onequarter" unicode="&#xbc;" horiz-adv-x="640" 
d="M325 131v13l195 280h44v-281h65v-12h-65v-119h48v-12h-199v12h48v119h-136zM339 143h122v175zM203 0l199 669l14 -4l-200 -669zM71 600h-48v12q37 2 83 29.5t59 60.5h12v-432h49v-13h-203v13h48v330z" />
    <glyph glyph-name="onehalf" unicode="&#xbd;" horiz-adv-x="729" 
d="M218 0l199 669l14 -4l-200 -669zM71 600h-48v12q37 2 83 29.5t59 60.5h12v-432h49v-13h-203v13h48v330zM410 330q0 43 35.5 72t99.5 29q62 0 104.5 -28t42.5 -87q0 -39 -22.5 -67t-57 -45t-70.5 -32t-68 -38t-45 -53q16 23 64 23q24 0 67.5 -9t62.5 -9q44 0 40 21l7 2
q20 -16 20 -48q0 -69 -78 -69q-26 0 -69.5 11.5t-73.5 11.5q-46 0 -51 -12h-12q-2 22 -2 28q0 41 18.5 75t45 57.5t53.5 45.5t45.5 50.5t18.5 61.5q0 44 -24.5 66t-59.5 22q-41 0 -65 -34q16 7 30 7q25 0 42.5 -17.5t17.5 -42.5q0 -23 -17 -38t-42 -15q-23 0 -40 17.5
t-17 43.5z" />
    <glyph glyph-name="threequarters" unicode="&#xbe;" horiz-adv-x="668" 
d="M325 131v13l195 280h44v-281h65v-12h-65v-119h48v-12h-199v12h48v119h-136zM339 143h122v175zM236 0l199 669l14 -4l-200 -669zM18 331q0 25 17 41.5t41 16.5q25 0 41.5 -17t16.5 -42q0 -23 -17.5 -39t-42.5 -16h-3q18 -8 41 -8q39 0 61 30.5t22 83.5q0 52 -29 81t-81 26
v13q36 2 62.5 22t26.5 58q0 32 -16 48.5t-43 16.5q-24 0 -43.5 -14t-29.5 -34l-10 6q12 28 44.5 50t83.5 22t84 -23.5t33 -60.5q0 -32 -30.5 -57.5t-87.5 -32.5v-4q62 0 103 -33t41 -91q0 -62 -48 -93t-118 -31q-49 0 -84 19t-35 62z" />
    <glyph glyph-name="questiondown" unicode="&#xbf;" horiz-adv-x="437" 
d="M413 130q0 -63 -51 -104t-123 -41q-89 0 -152.5 37t-63.5 109q0 42 18.5 76t45.5 55t59.5 44t59.5 43.5t45.5 54t18.5 75.5h13q6 -27 6 -50q0 -42 -18 -81t-39 -65.5t-39 -69t-18 -88.5q0 -48 28.5 -80.5t76.5 -32.5q34 0 61.5 17t41.5 42q-19 -15 -44 -15q-33 0 -56 23
t-23 56q0 31 23 52t56 21q29 0 51.5 -23t22.5 -55zM343 599q0 -31 -22.5 -54t-54.5 -23t-54.5 22.5t-22.5 54.5t22.5 54.5t54.5 22.5t54.5 -22.5t22.5 -54.5z" />
    <glyph glyph-name="Agrave" unicode="&#xc0;" horiz-adv-x="692" 
d="M374 684l267 -671h56v-13h-280v13h62l-95 239h-206l-109 -239h61v-13h-135v13h57l309 671h13zM379 265l-91 228l-105 -228h196zM433 715l-10 -9q-11 9 -76 57.5t-85 72.5q-12 14 -10 32t18 32q17 13 35 12t30 -15q21 -25 57 -99.5t41 -82.5z" />
    <glyph glyph-name="Aacute" unicode="&#xc1;" horiz-adv-x="692" 
d="M374 684l267 -671h56v-13h-280v13h62l-95 239h-206l-109 -239h61v-13h-135v13h57l309 671h13zM379 265l-91 228l-105 -228h196zM303 712q7 12 43 85t56 97q12 14 30 15t34 -12q16 -14 18 -32t-10 -32q-20 -24 -85.5 -72.5t-75.5 -57.5z" />
    <glyph glyph-name="Acircumflex" unicode="&#xc2;" horiz-adv-x="692" 
d="M374 684l267 -671h56v-13h-280v13h62l-95 239h-206l-109 -239h61v-13h-135v13h57l309 671h13zM379 265l-91 228l-105 -228h196zM411 868l101 -158l-14 -11l-129 98l-129 -98l-15 11l102 158h84z" />
    <glyph glyph-name="Atilde" unicode="&#xc3;" horiz-adv-x="692" 
d="M374 684l267 -671h56v-13h-280v13h62l-95 239h-206l-109 -239h61v-13h-135v13h57l309 671h13zM379 265l-91 228l-105 -228h196zM257 730h-15q-7 16 -7 39q0 37 21 61.5t57 24.5q29 0 81 -23t76 -23q34 0 30 39h15q7 -18 7 -42q0 -36 -20.5 -59.5t-58.5 -23.5
q-29 0 -81 23t-75 23q-17 0 -24.5 -11t-5.5 -28z" />
    <glyph glyph-name="Adieresis" unicode="&#xc4;" horiz-adv-x="692" 
d="M374 684l267 -671h56v-13h-280v13h62l-95 239h-206l-109 -239h61v-13h-135v13h57l309 671h13zM379 265l-91 228l-105 -228h196zM212 785q0 28 20.5 48.5t49.5 20.5q28 0 48.5 -20t20.5 -49t-20.5 -49t-48.5 -20q-29 0 -49.5 20.5t-20.5 48.5zM391 785q0 29 20 49t48 20
q29 0 50 -20.5t21 -48.5t-21 -48.5t-50 -20.5q-28 0 -48 20t-20 49z" />
    <glyph glyph-name="Aring" unicode="&#xc5;" horiz-adv-x="692" 
d="M374 684l267 -671h56v-13h-280v13h62l-95 239h-206l-109 -239h61v-13h-135v13h57l309 671h13zM379 265l-91 228l-105 -228h196zM468 795q0 -42 -27 -64.5t-72 -22.5q-42 0 -70.5 21.5t-28.5 64.5q0 39 29 60.5t70 21.5q40 0 69.5 -20.5t29.5 -60.5zM369 862
q-30 0 -30 -67q0 -73 30 -73t30 73q0 37 -7 52t-23 15z" />
    <glyph glyph-name="AE" unicode="&#xc6;" horiz-adv-x="930" 
d="M895 0h-528v13h63v332h-175l-207 -332h50v-13h-122v13h55l399 639h-62v13h518l-3 -210h-12q-14 99 -51.5 141.5t-98.5 51.5q-25 4 -92 4h-49v-294q49 0 74 3q89 8 97 123h13v-265h-13q-5 56 -30.5 88t-65.5 35l-75 3v-332h37q48 0 74 2q86 7 134.5 55t53.5 159h13z
M264 358h166v265h-1z" />
    <glyph glyph-name="Ccedilla" unicode="&#xc7;" horiz-adv-x="666" 
d="M386 -15l-69 -59q26 15 61 15q48 0 83 -29t35 -76q0 -50 -36 -78t-86 -28q-33 0 -62.5 15.5t-42.5 40.5l15 10q13 -24 49 -24q27 0 43.5 21t16.5 47q0 30 -22.5 50.5t-53.5 20.5q-7 0 -19 -2l-11 12l76 65q-147 8 -235 97t-88 233q0 168 103.5 266.5t263.5 98.5
q118 0 224 -46l-3 -196h-14q-14 111 -59 169.5t-140 58.5q-210 0 -210 -354q0 -156 44 -235t143 -79q193 0 216 264h13l3 -232q-101 -46 -235 -46h-3z" />
    <glyph glyph-name="Egrave" unicode="&#xc8;" horiz-adv-x="595" 
d="M560 0h-527v13h62v639h-62v13h518l-3 -219h-12q-11 111 -58 154.5t-141 49.5q-34 2 -78 2h-14v-294q35 0 60 3q48 5 78 38.5t33 86.5h13v-269h-13q-5 54 -36.5 87.5t-73.5 37.5l-61 3v-332h46q40 0 64 2q83 8 131.5 57t58.5 157h12zM347 715l-10 -9q-11 9 -76 57.5
t-85 72.5q-12 14 -10 32t18 32q17 13 35 12t30 -15q21 -25 57 -99.5t41 -82.5z" />
    <glyph glyph-name="Eacute" unicode="&#xc9;" horiz-adv-x="595" 
d="M560 0h-527v13h62v639h-62v13h518l-3 -219h-12q-11 111 -58 154.5t-141 49.5q-34 2 -78 2h-14v-294q35 0 60 3q48 5 78 38.5t33 86.5h13v-269h-13q-5 54 -36.5 87.5t-73.5 37.5l-61 3v-332h46q40 0 64 2q83 8 131.5 57t58.5 157h12zM255 712q7 12 43 85t56 97
q12 14 30 15t34 -12q16 -14 18 -32t-10 -32q-20 -24 -85.5 -72.5t-75.5 -57.5z" />
    <glyph glyph-name="Ecircumflex" unicode="&#xca;" horiz-adv-x="595" 
d="M560 0h-527v13h62v639h-62v13h518l-3 -219h-12q-11 111 -58 154.5t-141 49.5q-34 2 -78 2h-14v-294q35 0 60 3q48 5 78 38.5t33 86.5h13v-269h-13q-5 54 -36.5 87.5t-73.5 37.5l-61 3v-332h46q40 0 64 2q83 8 131.5 57t58.5 157h12zM374 868l101 -158l-14 -11l-129 98
l-129 -98l-15 11l102 158h84z" />
    <glyph glyph-name="Edieresis" unicode="&#xcb;" horiz-adv-x="595" 
d="M560 0h-527v13h62v639h-62v13h518l-3 -219h-12q-11 111 -58 154.5t-141 49.5q-34 2 -78 2h-14v-294q35 0 60 3q48 5 78 38.5t33 86.5h13v-269h-13q-5 54 -36.5 87.5t-73.5 37.5l-61 3v-332h46q40 0 64 2q83 8 131.5 57t58.5 157h12zM159 785q0 28 20.5 48.5t49.5 20.5
t49 -20t20 -49t-20 -49t-49 -20t-49.5 20.5t-20.5 48.5zM338 785q0 29 20 49t48 20q29 0 50 -20.5t21 -48.5t-21 -48.5t-50 -20.5q-28 0 -48 20t-20 49z" />
    <glyph glyph-name="Igrave" unicode="&#xcc;" horiz-adv-x="341" 
d="M246 652v-639h62v-13h-275v13h62v639h-62v13h275v-13h-62zM241 715l-10 -9q-11 9 -76 57.5t-85 72.5q-12 14 -10 32t18 32q17 13 35 12t30 -15q21 -25 57 -99.5t41 -82.5z" />
    <glyph glyph-name="Iacute" unicode="&#xcd;" horiz-adv-x="341" 
d="M246 652v-639h62v-13h-275v13h62v639h-62v13h275v-13h-62zM116 712q7 12 43 85t56 97q12 14 30 15t34 -12q16 -14 18 -32t-10 -32q-20 -24 -85.5 -72.5t-75.5 -57.5z" />
    <glyph glyph-name="Icircumflex" unicode="&#xce;" horiz-adv-x="341" 
d="M246 652v-639h62v-13h-275v13h62v639h-62v13h275v-13h-62zM215 868l101 -158l-14 -11l-129 98l-129 -98l-15 11l102 158h84z" />
    <glyph glyph-name="Idieresis" unicode="&#xcf;" horiz-adv-x="341" 
d="M246 652v-639h62v-13h-275v13h62v639h-62v13h275v-13h-62zM14 785q0 28 20.5 48.5t49.5 20.5q28 0 48.5 -20t20.5 -49t-20.5 -49t-48.5 -20q-29 0 -49.5 20.5t-20.5 48.5zM193 785q0 29 20 49t48 20q29 0 50 -20.5t21 -48.5t-21 -48.5t-50 -20.5q-28 0 -48 20t-20 49z
" />
    <glyph glyph-name="Eth" unicode="&#xd0;" horiz-adv-x="717" 
d="M39 321v15h56v316h-62v13h176q28 0 55.5 1.5t33.5 1.5q104 0 188 -35t137.5 -110t53.5 -179q0 -177 -102 -262.5t-271 -85.5q-15 0 -55 2t-78 2h-138v13h62v308h-56zM245 321v-309q28 -2 41 -2q108 0 164.5 73t56.5 250q0 95 -16.5 160t-49 99t-70.5 47.5t-90 13.5
q-24 0 -36 -1v-316h145v-15h-145z" />
    <glyph glyph-name="Ntilde" unicode="&#xd1;" horiz-adv-x="575" 
d="M-2 665h247l247 -401v388h-57v13h132v-13h-62v-664h-14l-416 662h-1v-637h57v-13h-133v13h62v639h-62v13zM194 737h-15q-7 16 -7 39q0 37 21 61.5t57 24.5q29 0 81 -23t76 -23q34 0 30 39h15q7 -17 7 -42q0 -36 -20.5 -59.5t-58.5 -23.5q-30 0 -81 23t-75 23
q-17 0 -24.5 -11t-5.5 -28z" />
    <glyph glyph-name="Ograve" unicode="&#xd2;" horiz-adv-x="792" 
d="M40 319q0 172 103 267t262 95q164 0 255.5 -98.5t91.5 -253.5q0 -84 -30.5 -151.5t-82.5 -108.5t-117 -62.5t-137 -21.5q-156 0 -250.5 91t-94.5 243zM584 316q0 351 -187 351q-43 0 -75.5 -16t-52.5 -46.5t-33 -63.5t-19 -76.5t-8 -76t-2 -72.5q0 -150 46 -233.5
t141 -83.5q49 0 85 20.5t55.5 50.5t31.5 75.5t15 84t3 86.5zM470 715l-10 -9q-11 9 -76 57.5t-85 72.5q-12 14 -10 32t18 32q17 13 35 12t30 -15q21 -25 57 -99.5t41 -82.5z" />
    <glyph glyph-name="Oacute" unicode="&#xd3;" horiz-adv-x="792" 
d="M40 319q0 172 103 267t262 95q164 0 255.5 -98.5t91.5 -253.5q0 -84 -30.5 -151.5t-82.5 -108.5t-117 -62.5t-137 -21.5q-156 0 -250.5 91t-94.5 243zM584 316q0 351 -187 351q-43 0 -75.5 -16t-52.5 -46.5t-33 -63.5t-19 -76.5t-8 -76t-2 -72.5q0 -150 46 -233.5
t141 -83.5q49 0 85 20.5t55.5 50.5t31.5 75.5t15 84t3 86.5zM342 712q7 12 43 85t56 97q12 14 30 15t34 -12q16 -14 18 -32t-10 -32q-20 -24 -85.5 -72.5t-75.5 -57.5z" />
    <glyph glyph-name="Ocircumflex" unicode="&#xd4;" horiz-adv-x="792" 
d="M40 319q0 172 103 267t262 95q164 0 255.5 -98.5t91.5 -253.5q0 -84 -30.5 -151.5t-82.5 -108.5t-117 -62.5t-137 -21.5q-156 0 -250.5 91t-94.5 243zM584 316q0 351 -187 351q-43 0 -75.5 -16t-52.5 -46.5t-33 -63.5t-19 -76.5t-8 -76t-2 -72.5q0 -150 46 -233.5
t141 -83.5q49 0 85 20.5t55.5 50.5t31.5 75.5t15 84t3 86.5zM447 868l101 -158l-14 -11l-129 98l-129 -98l-15 11l102 158h84z" />
    <glyph glyph-name="Otilde" unicode="&#xd5;" horiz-adv-x="792" 
d="M40 319q0 172 103 267t262 95q164 0 255.5 -98.5t91.5 -253.5q0 -84 -30.5 -151.5t-82.5 -108.5t-117 -62.5t-137 -21.5q-156 0 -250.5 91t-94.5 243zM584 316q0 351 -187 351q-43 0 -75.5 -16t-52.5 -46.5t-33 -63.5t-19 -76.5t-8 -76t-2 -72.5q0 -150 46 -233.5
t141 -83.5q49 0 85 20.5t55.5 50.5t31.5 75.5t15 84t3 86.5zM287 739h-15q-7 16 -7 39q0 37 21 61.5t57 24.5q29 0 81 -23t76 -23q34 0 30 39h15q7 -17 7 -42q0 -36 -20.5 -59.5t-58.5 -23.5q-29 0 -81 23t-75 23q-17 0 -24.5 -11t-5.5 -28z" />
    <glyph glyph-name="Odieresis" unicode="&#xd6;" horiz-adv-x="792" 
d="M40 319q0 172 103 267t262 95q164 0 255.5 -98.5t91.5 -253.5q0 -84 -30.5 -151.5t-82.5 -108.5t-117 -62.5t-137 -21.5q-156 0 -250.5 91t-94.5 243zM584 316q0 351 -187 351q-43 0 -75.5 -16t-52.5 -46.5t-33 -63.5t-19 -76.5t-8 -76t-2 -72.5q0 -150 46 -233.5
t141 -83.5q49 0 85 20.5t55.5 50.5t31.5 75.5t15 84t3 86.5zM257 785q0 28 20.5 48.5t49.5 20.5t49 -20t20 -49t-20 -49t-49 -20t-49.5 20.5t-20.5 48.5zM436 785q0 29 20 49t48 20q29 0 50 -20.5t21 -48.5t-21 -48.5t-50 -20.5q-28 0 -48 20t-20 49z" />
    <glyph glyph-name="multiply" unicode="&#xd7;" horiz-adv-x="338" 
d="M178 231l146 -146l-9 -10l-146 146l-146 -146l-9 10l145 146l-145 144l9 10l146 -145l145 145l10 -10z" />
    <glyph glyph-name="Oslash" unicode="&#xd8;" horiz-adv-x="792" 
d="M80 13l-10 10l59 58q-89 91 -89 238q0 172 103 267t262 95q149 0 242 -85l59 59l9 -9l-59 -59q96 -96 96 -258q0 -84 -30.5 -151.5t-82.5 -108.5t-117 -62.5t-137 -21.5q-153 0 -246 87zM584 316q0 109 -18 182l-342 -341q40 -158 170 -158q49 0 85 20.5t55.5 50.5
t31.5 75.5t15 84t3 86.5zM397 667q-43 0 -75.5 -16t-52.5 -46.5t-33 -63.5t-19 -76.5t-8 -76t-2 -72.5q0 -83 13 -144l343 341q-43 154 -166 154z" />
    <glyph glyph-name="Ugrave" unicode="&#xd9;" horiz-adv-x="644" 
d="M13 652v13h276v-13h-61v-181q0 -174 2 -258q2 -91 37 -149.5t114 -58.5q85 0 133.5 64t48.5 201v382h-62v13h138v-13h-62v-375q0 -162 -57 -225.5t-166 -63.5q-120 0 -190 61.5t-81 176.5q-8 88 -8 252v174h-62zM424 715l-10 -9q-11 9 -76 57.5t-85 72.5q-12 14 -10 32
t18 32q17 13 35 12t30 -15q21 -25 57 -99.5t41 -82.5z" />
    <glyph glyph-name="Uacute" unicode="&#xda;" horiz-adv-x="644" 
d="M13 652v13h276v-13h-61v-181q0 -174 2 -258q2 -91 37 -149.5t114 -58.5q85 0 133.5 64t48.5 201v382h-62v13h138v-13h-62v-375q0 -162 -57 -225.5t-166 -63.5q-120 0 -190 61.5t-81 176.5q-8 88 -8 252v174h-62zM331 712q7 12 43 85t56 97q12 14 30 15t34 -12
q16 -14 18 -32t-10 -32q-20 -24 -85.5 -72.5t-75.5 -57.5z" />
    <glyph glyph-name="Ucircumflex" unicode="&#xdb;" horiz-adv-x="644" 
d="M13 652v13h276v-13h-61v-181q0 -174 2 -258q2 -91 37 -149.5t114 -58.5q85 0 133.5 64t48.5 201v382h-62v13h138v-13h-62v-375q0 -162 -57 -225.5t-166 -63.5q-120 0 -190 61.5t-81 176.5q-8 88 -8 252v174h-62zM445 868l101 -158l-14 -11l-129 98l-129 -98l-15 11
l102 158h84z" />
    <glyph glyph-name="Udieresis" unicode="&#xdc;" horiz-adv-x="644" 
d="M13 652v13h276v-13h-61v-181q0 -174 2 -258q2 -91 37 -149.5t114 -58.5q85 0 133.5 64t48.5 201v382h-62v13h138v-13h-62v-375q0 -162 -57 -225.5t-166 -63.5q-120 0 -190 61.5t-81 176.5q-8 88 -8 252v174h-62zM240 785q0 28 20.5 48.5t49.5 20.5q28 0 48.5 -20
t20.5 -49t-20.5 -49t-48.5 -20q-29 0 -49.5 20.5t-20.5 48.5zM419 785q0 29 20 49t48 20q29 0 50 -20.5t21 -48.5t-21 -48.5t-50 -20.5q-28 0 -48 20t-20 49z" />
    <glyph glyph-name="Yacute" unicode="&#xdd;" horiz-adv-x="632" 
d="M637 665v-13h-56l-178 -309v-330h62v-13h-275v13h62v297l-200 342h-57v13h293v-13h-63l172 -291l168 291h-62v13h134zM303 712q7 12 43 85t56 97q12 14 30 15t34 -12q16 -14 18 -32t-10 -32q-20 -24 -85.5 -72.5t-75.5 -57.5z" />
    <glyph glyph-name="Thorn" unicode="&#xde;" horiz-adv-x="576" 
d="M309 13v-13h-276v13h62v639h-62v13h276v-13h-62v-99q36 13 85 13q43 0 83.5 -11t78 -34t60.5 -65t23 -97q0 -113 -69.5 -170.5t-167.5 -58.5q-44 0 -93 13v-130h62zM247 540v-383q19 -5 42 -5q70 0 101.5 56.5t31.5 149.5t-38.5 139t-96.5 47q-21 0 -40 -4z" />
    <glyph glyph-name="germandbls" unicode="&#xdf;" horiz-adv-x="624" 
d="M501 77q0 32 -30 63t-65.5 53.5t-65.5 59t-30 77.5q0 37 14 66.5t34 49.5t39.5 39t33.5 47t14 63q0 44 -27 74t-73 30q-57 0 -88.5 -42.5t-39.5 -107.5q-6 -43 -6 -107v-429h32v-13h-225v13h57v385q0 85 6 120q16 100 77 147.5t187 47.5q57 0 102 -30t45 -84
q0 -23 -11.5 -43.5t-28 -37t-33.5 -31.5t-28.5 -33t-11.5 -36q0 -29 27 -55t77 -56q111 -67 111 -166q0 -74 -56.5 -113t-130.5 -39q-61 0 -101.5 30t-40.5 73q0 33 21 54.5t51 21.5q31 0 52.5 -21t21.5 -52t-21.5 -51.5t-52.5 -20.5q-13 0 -19 2q36 -23 89 -23
q37 0 65.5 21.5t28.5 53.5z" />
    <glyph glyph-name="agrave" unicode="&#xe0;" horiz-adv-x="490" 
d="M321 501l-10 -9q-11 9 -76 57.5t-85 72.5q-12 14 -10 32t18 32q17 13 35 12t30 -15q21 -25 57 -99.5t41 -82.5zM57 342q0 49 45.5 83.5t119.5 34.5q75 0 125.5 -35t62.5 -99q6 -30 6 -130v-116q0 -28 5.5 -39t20.5 -11q17 0 23 26l14 -4q-5 -26 -28 -44.5t-66 -18.5
q-36 0 -62 16.5t-34 41.5q-31 -58 -113 -58q-65 0 -108 28.5t-43 84.5q0 67 69.5 104.5t185.5 44.5v60q0 49 -6 69q-16 59 -87 59q-57 0 -92 -41q12 6 29 6q30 0 51 -21t21 -51q0 -28 -21 -46.5t-51 -18.5q-29 0 -48 20.5t-19 54.5zM216 18q23 0 45 19.5t22 37.5
q-3 21 -3 60v102q-118 -16 -118 -131q0 -88 54 -88z" />
    <glyph glyph-name="aacute" unicode="&#xe1;" horiz-adv-x="490" 
d="M165 501q7 12 43 85t56 97q12 14 30 15t34 -12q16 -14 18 -32t-10 -32q-20 -24 -85.5 -72.5t-75.5 -57.5zM57 342q0 49 45.5 83.5t119.5 34.5q75 0 125.5 -35t62.5 -99q6 -30 6 -130v-116q0 -28 5.5 -39t20.5 -11q17 0 23 26l14 -4q-5 -26 -28 -44.5t-66 -18.5
q-36 0 -62 16.5t-34 41.5q-31 -58 -113 -58q-65 0 -108 28.5t-43 84.5q0 67 69.5 104.5t185.5 44.5v60q0 49 -6 69q-16 59 -87 59q-57 0 -92 -41q12 6 29 6q30 0 51 -21t21 -51q0 -28 -21 -46.5t-51 -18.5q-29 0 -48 20.5t-19 54.5zM216 18q23 0 45 19.5t22 37.5
q-3 21 -3 60v102q-118 -16 -118 -131q0 -88 54 -88z" />
    <glyph glyph-name="acircumflex" unicode="&#xe2;" horiz-adv-x="490" 
d="M268 662l101 -158l-14 -11l-129 98l-129 -98l-15 11l102 158h84zM57 342q0 49 45.5 83.5t119.5 34.5q75 0 125.5 -35t62.5 -99q6 -30 6 -130v-116q0 -28 5.5 -39t20.5 -11q17 0 23 26l14 -4q-5 -26 -28 -44.5t-66 -18.5q-36 0 -62 16.5t-34 41.5q-31 -58 -113 -58
q-65 0 -108 28.5t-43 84.5q0 67 69.5 104.5t185.5 44.5v60q0 49 -6 69q-16 59 -87 59q-57 0 -92 -41q12 6 29 6q30 0 51 -21t21 -51q0 -28 -21 -46.5t-51 -18.5q-29 0 -48 20.5t-19 54.5zM216 18q23 0 45 19.5t22 37.5q-3 21 -3 60v102q-118 -16 -118 -131q0 -88 54 -88z
" />
    <glyph glyph-name="atilde" unicode="&#xe3;" horiz-adv-x="490" 
d="M128 523h-15q-7 16 -7 39q0 37 21 61.5t57 24.5q29 0 81 -23t76 -23q34 0 30 39h15q7 -17 7 -42q0 -36 -20.5 -59.5t-58.5 -23.5q-30 0 -81 23t-75 23q-17 0 -24.5 -11t-5.5 -28zM57 342q0 49 45.5 83.5t119.5 34.5q75 0 125.5 -35t62.5 -99q6 -30 6 -130v-116
q0 -28 5.5 -39t20.5 -11q17 0 23 26l14 -4q-5 -26 -28 -44.5t-66 -18.5q-36 0 -62 16.5t-34 41.5q-31 -58 -113 -58q-65 0 -108 28.5t-43 84.5q0 67 69.5 104.5t185.5 44.5v60q0 49 -6 69q-16 59 -87 59q-57 0 -92 -41q12 6 29 6q30 0 51 -21t21 -51q0 -28 -21 -46.5
t-51 -18.5q-29 0 -48 20.5t-19 54.5zM216 18q23 0 45 19.5t22 37.5q-3 21 -3 60v102q-118 -16 -118 -131q0 -88 54 -88z" />
    <glyph glyph-name="adieresis" unicode="&#xe4;" horiz-adv-x="490" 
d="M75 588q0 28 20.5 48.5t49.5 20.5t49 -20.5t20 -48.5t-20 -48.5t-49 -20.5t-49.5 20.5t-20.5 48.5zM254 588q0 29 20 49t48 20q29 0 50 -20.5t21 -48.5t-21 -48.5t-50 -20.5q-28 0 -48 20t-20 49zM57 342q0 49 45.5 83.5t119.5 34.5q75 0 125.5 -35t62.5 -99
q6 -30 6 -130v-116q0 -28 5.5 -39t20.5 -11q17 0 23 26l14 -4q-5 -26 -28 -44.5t-66 -18.5q-36 0 -62 16.5t-34 41.5q-31 -58 -113 -58q-65 0 -108 28.5t-43 84.5q0 67 69.5 104.5t185.5 44.5v60q0 49 -6 69q-16 59 -87 59q-57 0 -92 -41q12 6 29 6q30 0 51 -21t21 -51
q0 -28 -21 -46.5t-51 -18.5q-29 0 -48 20.5t-19 54.5zM216 18q23 0 45 19.5t22 37.5q-3 21 -3 60v102q-118 -16 -118 -131q0 -88 54 -88z" />
    <glyph glyph-name="aring" unicode="&#xe5;" horiz-adv-x="490" 
d="M331 590q0 -42 -27 -64.5t-72 -22.5q-42 0 -70.5 21.5t-28.5 64.5q0 39 29 60.5t70 21.5q40 0 69.5 -20.5t29.5 -60.5zM232 657q-30 0 -30 -67q0 -73 30 -73t30 73q0 37 -7 52t-23 15zM57 342q0 49 45.5 83.5t119.5 34.5q75 0 125.5 -35t62.5 -99q6 -30 6 -130v-116
q0 -28 5.5 -39t20.5 -11q17 0 23 26l14 -4q-5 -26 -28 -44.5t-66 -18.5q-36 0 -62 16.5t-34 41.5q-31 -58 -113 -58q-65 0 -108 28.5t-43 84.5q0 67 69.5 104.5t185.5 44.5v60q0 49 -6 69q-16 59 -87 59q-57 0 -92 -41q12 6 29 6q30 0 51 -21t21 -51q0 -28 -21 -46.5
t-51 -18.5q-29 0 -48 20.5t-19 54.5zM216 18q23 0 45 19.5t22 37.5q-3 21 -3 60v102q-118 -16 -118 -131q0 -88 54 -88z" />
    <glyph glyph-name="ae" unicode="&#xe6;" horiz-adv-x="700" 
d="M57 337q0 53 45 88t120 35q88 0 125 -51q20 23 59.5 39.5t75.5 16.5q72 0 127.5 -33.5t55.5 -93.5q0 -59 -57.5 -82t-178.5 -23h-21q0 -80 32 -134.5t101 -54.5q42 0 71.5 29.5t39.5 73.5l15 -3q-7 -69 -56.5 -113.5t-128.5 -44.5q-103 0 -163 62q-23 -27 -63 -43
t-81 -16q-64 0 -107 29t-43 84q0 66 63.5 103t175.5 45v61q0 49 -6 69q-8 30 -24 44.5t-47 14.5q-27 0 -53 -12t-40 -29q14 6 30 6q30 0 50.5 -21t20.5 -51q0 -28 -20.5 -47.5t-50.5 -19.5q-29 0 -48 21t-19 51zM232 21q47 0 77 39q-25 31 -35 69.5t-10 104.5
q-50 -11 -76 -44t-26 -82q0 -37 19.5 -62t50.5 -25zM479 450q-13 0 -25.5 -11t-23.5 -33.5t-17.5 -63.5t-5.5 -95q8 -1 23 -1q53 0 77 25t24 83q0 96 -52 96z" />
    <glyph glyph-name="ccedilla" unicode="&#xe7;" horiz-adv-x="466" 
d="M260 -13l-69 -59q26 15 61 15q48 0 83 -29t35 -76q0 -50 -36 -78t-86 -28q-33 0 -62.5 15.5t-42.5 40.5l15 10q13 -24 49 -24q27 0 43.5 21t16.5 47q0 30 -21.5 50.5t-54.5 20.5q-7 0 -19 -2l-11 12l76 65q-88 6 -145 66t-57 171q0 105 70 172t163 67q72 0 117.5 -38
t45.5 -88q0 -36 -20.5 -57t-50.5 -21q-29 0 -49 20.5t-20 49.5q0 30 20 50.5t49 20.5q21 0 40 -11q-29 43 -83 43q-57 0 -97 -52.5t-40 -136.5q0 -85 35 -138t97 -53q41 0 76 28.5t42 60.5l15 -3q-3 -53 -54.5 -101.5t-130.5 -50.5z" />
    <glyph glyph-name="egrave" unicode="&#xe8;" horiz-adv-x="477" 
d="M433 146l15 -3q-9 -63 -62 -109.5t-130 -46.5q-106 0 -163.5 66t-57.5 172q0 104 65 172t159 68q72 0 127.5 -33.5t55.5 -93.5q0 -58 -59 -80t-182 -22h-21q-2 -37 9 -77t43 -73t78 -33q43 0 77.5 28t45.5 65zM256 450q-18 0 -35 -17t-30 -65t-12 -118q7 -1 22 -1
q55 0 81 24t26 81q0 96 -52 96zM343 501l-10 -9q-11 9 -76 57.5t-85 72.5q-12 14 -10 32t18 32q17 13 35 12t30 -15q21 -25 57 -99.5t41 -82.5z" />
    <glyph glyph-name="eacute" unicode="&#xe9;" horiz-adv-x="477" 
d="M433 146l15 -3q-9 -63 -62 -109.5t-130 -46.5q-106 0 -163.5 66t-57.5 172q0 104 65 172t159 68q72 0 127.5 -33.5t55.5 -93.5q0 -58 -59 -80t-182 -22h-21q-2 -37 9 -77t43 -73t78 -33q43 0 77.5 28t45.5 65zM256 450q-18 0 -35 -17t-30 -65t-12 -118q7 -1 22 -1
q55 0 81 24t26 81q0 96 -52 96zM180 501q7 12 43 85t56 97q12 14 30 15t34 -12q16 -14 18 -32t-10 -32q-20 -24 -85.5 -72.5t-75.5 -57.5z" />
    <glyph glyph-name="ecircumflex" unicode="&#xea;" horiz-adv-x="477" 
d="M433 146l15 -3q-9 -63 -62 -109.5t-130 -46.5q-106 0 -163.5 66t-57.5 172q0 104 65 172t159 68q72 0 127.5 -33.5t55.5 -93.5q0 -58 -59 -80t-182 -22h-21q-2 -37 9 -77t43 -73t78 -33q43 0 77.5 28t45.5 65zM256 450q-18 0 -35 -17t-30 -65t-12 -118q7 -1 22 -1
q55 0 81 24t26 81q0 96 -52 96zM310 662l101 -158l-14 -11l-129 98l-129 -98l-15 11l102 158h84z" />
    <glyph glyph-name="edieresis" unicode="&#xeb;" horiz-adv-x="477" 
d="M433 146l15 -3q-9 -63 -62 -109.5t-130 -46.5q-106 0 -163.5 66t-57.5 172q0 104 65 172t159 68q72 0 127.5 -33.5t55.5 -93.5q0 -58 -59 -80t-182 -22h-21q-2 -37 9 -77t43 -73t78 -33q43 0 77.5 28t45.5 65zM256 450q-18 0 -35 -17t-30 -65t-12 -118q7 -1 22 -1
q55 0 81 24t26 81q0 96 -52 96zM99 588q0 28 20.5 48.5t49.5 20.5t49 -20.5t20 -48.5t-20 -48.5t-49 -20.5t-49.5 20.5t-20.5 48.5zM278 588q0 29 20 49t48 20q29 0 50 -20.5t21 -48.5t-21 -48.5t-50 -20.5q-28 0 -48 20t-20 49z" />
    <glyph glyph-name="igrave" unicode="&#xec;" horiz-adv-x="311" 
d="M90 435h-62v13h198v-435h61v-13h-259v13h62v422zM234 501l-10 -9q-11 9 -76 57.5t-85 72.5q-12 14 -10 32t18 32q17 13 35 12t30 -15q21 -25 57 -99.5t41 -82.5z" />
    <glyph glyph-name="iacute" unicode="&#xed;" horiz-adv-x="311" 
d="M90 435h-62v13h198v-435h61v-13h-259v13h62v422zM89 501q7 12 43 85t56 97q12 14 30 15t34 -12q16 -14 18 -32t-10 -32q-20 -24 -85.5 -72.5t-75.5 -57.5z" />
    <glyph glyph-name="icircumflex" unicode="&#xee;" horiz-adv-x="311" 
d="M90 435h-62v13h198v-435h61v-13h-259v13h62v422zM185 662l101 -158l-14 -11l-129 98l-129 -98l-15 11l102 158h84z" />
    <glyph glyph-name="idieresis" unicode="&#xef;" horiz-adv-x="311" 
d="M90 435h-62v13h198v-435h61v-13h-259v13h62v422zM-6 588q0 28 20.5 48.5t49.5 20.5q28 0 48.5 -20.5t20.5 -48.5t-20.5 -48.5t-48.5 -20.5q-29 0 -49.5 20.5t-20.5 48.5zM173 588q0 29 20 49t48 20q29 0 50 -20.5t21 -48.5t-21 -48.5t-50 -20.5q-28 0 -48 20t-20 49z" />
    <glyph glyph-name="eth" unicode="&#xf0;" horiz-adv-x="522" 
d="M422 674l-94 -51q78 -61 122 -154.5t44 -193.5q0 -286 -233 -286q-112 0 -172.5 67t-60.5 166q0 64 21.5 113t54 74t63 37.5t56.5 12.5q56 0 93 -26q-30 82 -74 142l-123 -69l-7 13l121 67q-60 79 -136 103v13q121 0 219 -70l98 55zM176 223q0 -31 2.5 -60.5t10 -70
t26 -65.5t45.5 -25q83 0 83 238q0 106 -20 171q-18 16 -37 16q-48 0 -79 -59.5t-31 -144.5z" />
    <glyph glyph-name="ntilde" unicode="&#xf1;" horiz-adv-x="605" 
d="M85 13v422h-67v13h185l15 -73q14 31 57 56t94 25q148 0 155 -158q2 -34 2 -116v-169h62v-13h-249v13h51v182q0 61 -1 92q-2 121 -85 121q-29 0 -56 -21t-27 -51v-323h51v-13h-249v13h62zM180 523h-15q-7 16 -7 39q0 37 21 61.5t57 24.5q29 0 81 -23t76 -23q34 0 30 39h15
q7 -17 7 -42q0 -36 -20.5 -59.5t-58.5 -23.5q-30 0 -81 23t-75 23q-17 0 -24.5 -11t-5.5 -28z" />
    <glyph glyph-name="ograve" unicode="&#xf2;" 
d="M516 234q0 -112 -62.5 -179.5t-181.5 -67.5q-118 0 -177.5 64.5t-59.5 175.5q0 107 65 172t177 65q111 0 175 -61t64 -169zM276 449q-43 0 -67 -56t-24 -156q0 -236 92 -236q88 0 88 236q0 212 -89 212zM331 501l-10 -9q-11 9 -76 57.5t-85 72.5q-12 14 -10 32t18 32
q17 13 35 12t30 -15q21 -25 57 -99.5t41 -82.5z" />
    <glyph glyph-name="oacute" unicode="&#xf3;" 
d="M516 234q0 -112 -62.5 -179.5t-181.5 -67.5q-118 0 -177.5 64.5t-59.5 175.5q0 107 65 172t177 65q111 0 175 -61t64 -169zM276 449q-43 0 -67 -56t-24 -156q0 -236 92 -236q88 0 88 236q0 212 -89 212zM209 501q7 12 43 85t56 97q12 14 30 15t34 -12q16 -14 18 -32
t-10 -32q-20 -24 -85.5 -72.5t-75.5 -57.5z" />
    <glyph glyph-name="ocircumflex" unicode="&#xf4;" 
d="M516 234q0 -112 -62.5 -179.5t-181.5 -67.5q-118 0 -177.5 64.5t-59.5 175.5q0 107 65 172t177 65q111 0 175 -61t64 -169zM276 449q-43 0 -67 -56t-24 -156q0 -236 92 -236q88 0 88 236q0 212 -89 212zM325 662l101 -158l-14 -11l-129 98l-129 -98l-15 11l102 158h84z
" />
    <glyph glyph-name="otilde" unicode="&#xf5;" 
d="M516 234q0 -112 -62.5 -179.5t-181.5 -67.5q-118 0 -177.5 64.5t-59.5 175.5q0 107 65 172t177 65q111 0 175 -61t64 -169zM276 449q-43 0 -67 -56t-24 -156q0 -236 92 -236q88 0 88 236q0 212 -89 212zM161 533h-15q-7 16 -7 39q0 37 21 61.5t57 24.5q29 0 81 -23
t76 -23q34 0 30 39h15q7 -17 7 -42q0 -36 -20.5 -59.5t-58.5 -23.5q-29 0 -81 23t-75 23q-17 0 -24.5 -11t-5.5 -28z" />
    <glyph glyph-name="odieresis" unicode="&#xf6;" 
d="M516 234q0 -112 -62.5 -179.5t-181.5 -67.5q-118 0 -177.5 64.5t-59.5 175.5q0 107 65 172t177 65q111 0 175 -61t64 -169zM276 449q-43 0 -67 -56t-24 -156q0 -236 92 -236q88 0 88 236q0 212 -89 212zM123 588q0 28 20.5 48.5t49.5 20.5t49 -20.5t20 -48.5t-20 -48.5
t-49 -20.5t-49.5 20.5t-20.5 48.5zM302 588q0 29 20 49t48 20q29 0 50 -20.5t21 -48.5t-21 -48.5t-50 -20.5q-28 0 -48 20t-20 49z" />
    <glyph glyph-name="divide" unicode="&#xf7;" horiz-adv-x="453" 
d="M439 239v-15h-425v15h425zM170 102q0 23 16.5 40t40.5 17q23 0 40 -17t17 -40q0 -24 -17 -40.5t-40 -16.5q-24 0 -40.5 16.5t-16.5 40.5zM170 362q0 23 16.5 40t40.5 17q23 0 40 -17t17 -40t-17 -40t-40 -17q-24 0 -40.5 17t-16.5 40z" />
    <glyph glyph-name="oslash" unicode="&#xf8;" horiz-adv-x="551" 
d="M516 234q0 -112 -62.5 -179.5t-181.5 -67.5q-110 0 -169 56l-51 -51l-9 10l50 50q-58 62 -58 175q0 107 65 172t177 65q107 0 172 -59l51 51l9 -10l-51 -50q58 -61 58 -162zM276 449q-43 0 -67 -56t-24 -156q0 -53 4 -90l172 171q-16 131 -85 131zM277 1q88 0 88 236
q0 34 -3 64l-171 -171q18 -129 86 -129z" />
    <glyph glyph-name="ugrave" unicode="&#xf9;" horiz-adv-x="606" 
d="M521 448v-435h48v-13h-166q-15 73 -15 75q-16 -35 -57.5 -59t-93.5 -24q-147 0 -155 158q-2 34 -2 116v169h-62v13h198v-194q0 -62 1 -93q5 -120 86 -120q28 0 55.5 22t27.5 51v321h-61v13h196zM348 501l-10 -9q-11 9 -76 57.5t-85 72.5q-12 14 -10 32t18 32q17 13 35 12
t30 -15q21 -25 57 -99.5t41 -82.5z" />
    <glyph glyph-name="uacute" unicode="&#xfa;" horiz-adv-x="606" 
d="M521 448v-435h48v-13h-166q-15 73 -15 75q-16 -35 -57.5 -59t-93.5 -24q-147 0 -155 158q-2 34 -2 116v169h-62v13h198v-194q0 -62 1 -93q5 -120 86 -120q28 0 55.5 22t27.5 51v321h-61v13h196zM238 501q7 12 43 85t56 97q12 14 30 15t34 -12q16 -14 18 -32t-10 -32
q-20 -24 -85.5 -72.5t-75.5 -57.5z" />
    <glyph glyph-name="ucircumflex" unicode="&#xfb;" horiz-adv-x="606" 
d="M521 448v-435h48v-13h-166q-15 73 -15 75q-16 -35 -57.5 -59t-93.5 -24q-147 0 -155 158q-2 34 -2 116v169h-62v13h198v-194q0 -62 1 -93q5 -120 86 -120q28 0 55.5 22t27.5 51v321h-61v13h196zM334 662l101 -158l-14 -11l-129 98l-129 -98l-15 11l102 158h84z" />
    <glyph glyph-name="udieresis" unicode="&#xfc;" horiz-adv-x="606" 
d="M521 448v-435h48v-13h-166q-15 73 -15 75q-16 -35 -57.5 -59t-93.5 -24q-147 0 -155 158q-2 34 -2 116v169h-62v13h198v-194q0 -62 1 -93q5 -120 86 -120q28 0 55.5 22t27.5 51v321h-61v13h196zM135 588q0 28 20.5 48.5t49.5 20.5t49 -20.5t20 -48.5t-20 -48.5t-49 -20.5
t-49.5 20.5t-20.5 48.5zM314 588q0 29 20 49t48 20q29 0 50 -20.5t21 -48.5t-21 -48.5t-50 -20.5q-28 0 -48 20t-20 49z" />
    <glyph glyph-name="yacute" unicode="&#xfd;" horiz-adv-x="488" 
d="M250 501q7 12 43 85t56 97q12 14 30 15t34 -12q16 -14 18 -32t-10 -32q-20 -24 -85.5 -72.5t-75.5 -57.5zM44 -132q0 33 20.5 53.5t50.5 20.5q31 0 52.5 -21t21.5 -53q0 -18 -10 -36q33 27 69 111q10 22 -1 46l-196 446h-56v13h265v-13h-60l127 -285l95 285h-60v13h131
v-13h-56q-127 -385 -157 -456q-16 -38 -24.5 -56.5t-25 -48t-30.5 -44t-35 -26t-44 -11.5q-31 0 -54 21t-23 54z" />
    <glyph glyph-name="thorn" unicode="&#xfe;" horiz-adv-x="592" 
d="M226 702v-321q13 31 52.5 55t85.5 24q80 0 136.5 -56.5t56.5 -177.5q0 -124 -52.5 -180.5t-139.5 -56.5q-48 0 -87.5 19t-51.5 48v-277h57v-14h-250v14h57v910h-57v13h193zM226 338v-241q0 -27 26 -48.5t60 -21.5q45 0 70.5 48.5t25.5 148.5q0 193 -100 193
q-29 0 -55.5 -25.5t-26.5 -53.5z" />
    <glyph glyph-name="ydieresis" unicode="&#xff;" horiz-adv-x="488" 
d="M44 -132q0 33 20.5 53.5t50.5 20.5q31 0 52.5 -21t21.5 -53q0 -18 -10 -36q33 27 69 111q10 22 -1 46l-196 446h-56v13h265v-13h-60l127 -285l95 285h-60v13h131v-13h-56q-127 -385 -157 -456q-16 -38 -24.5 -56.5t-25 -48t-30.5 -44t-35 -26t-44 -11.5q-31 0 -54 21
t-23 54zM132 588q0 28 20.5 48.5t49.5 20.5q28 0 48.5 -20.5t20.5 -48.5t-20.5 -48.5t-48.5 -20.5q-29 0 -49.5 20.5t-20.5 48.5zM311 588q0 29 20 49t48 20q29 0 50 -20.5t21 -48.5t-21 -48.5t-50 -20.5q-28 0 -48 20t-20 49z" />
    <glyph glyph-name="Amacron" unicode="&#x100;" horiz-adv-x="692" 
d="M221 713v13h287v-13h-287zM374 684l267 -671h56v-13h-280v13h62l-95 239h-206l-109 -239h61v-13h-135v13h57l309 671h13zM379 265l-91 228l-105 -228h196z" />
    <glyph glyph-name="amacron" unicode="&#x101;" horiz-adv-x="490" 
d="M101 528v13h267v-13h-267zM57 342q0 49 45.5 83.5t119.5 34.5q75 0 125.5 -35t62.5 -99q6 -30 6 -130v-116q0 -28 5.5 -39t20.5 -11q17 0 23 26l14 -4q-5 -26 -28 -44.5t-66 -18.5q-36 0 -62 16.5t-34 41.5q-31 -58 -113 -58q-65 0 -108 28.5t-43 84.5q0 67 69.5 104.5
t185.5 44.5v60q0 49 -6 69q-16 59 -87 59q-57 0 -92 -41q12 6 29 6q30 0 51 -21t21 -51q0 -28 -21 -46.5t-51 -18.5q-29 0 -48 20.5t-19 54.5zM216 18q23 0 45 19.5t22 37.5q-3 21 -3 60v102q-118 -16 -118 -131q0 -88 54 -88z" />
    <glyph glyph-name="Abreve" unicode="&#x102;" horiz-adv-x="692" 
d="M374 684l267 -671h56v-13h-280v13h62l-95 239h-206l-109 -239h61v-13h-135v13h57l309 671h13zM379 265l-91 228l-105 -228h196zM490 864h13q-4 -61 -40 -101.5t-97 -40.5q-60 0 -96.5 41t-40.5 101h14q5 -27 38 -42.5t85 -15.5q110 0 124 58z" />
    <glyph glyph-name="abreve" unicode="&#x103;" horiz-adv-x="490" 
d="M376 645h13q-4 -61 -40 -101.5t-97 -40.5q-60 0 -96.5 41t-40.5 101h14q5 -27 38 -42.5t85 -15.5q110 0 124 58zM57 342q0 49 45.5 83.5t119.5 34.5q75 0 125.5 -35t62.5 -99q6 -30 6 -130v-116q0 -28 5.5 -39t20.5 -11q17 0 23 26l14 -4q-5 -26 -28 -44.5t-66 -18.5
q-36 0 -62 16.5t-34 41.5q-31 -58 -113 -58q-65 0 -108 28.5t-43 84.5q0 67 69.5 104.5t185.5 44.5v60q0 49 -6 69q-16 59 -87 59q-57 0 -92 -41q12 6 29 6q30 0 51 -21t21 -51q0 -28 -21 -46.5t-51 -18.5q-29 0 -48 20.5t-19 54.5zM216 18q23 0 45 19.5t22 37.5
q-3 21 -3 60v102q-118 -16 -118 -131q0 -88 54 -88z" />
    <glyph glyph-name="Aogonek" unicode="&#x104;" horiz-adv-x="692" 
d="M374 684l267 -671h56v-13h-20q-41 0 -55 -4q-31 -10 -53 -39.5t-22 -64.5t15 -53t41 -18q24 0 40 21l14 -9q-13 -24 -40 -40t-62 -16q-46 0 -75.5 25.5t-29.5 68.5q0 51 36.5 83t90.5 46h-160v13h62l-95 239h-206l-109 -239h61v-13h-135v13h57l309 671h13zM379 265
l-91 228l-105 -228h196z" />
    <glyph glyph-name="aogonek" unicode="&#x105;" horiz-adv-x="490" 
d="M57 342q0 49 45.5 83.5t119.5 34.5q75 0 125.5 -35t62.5 -99q6 -30 6 -130v-116q0 -28 5.5 -39t20.5 -11q17 0 23 26l14 -4q-7 -35 -49 -57q-46 -25 -69.5 -53t-23.5 -68q0 -35 15 -53t41 -18q21 0 40 21l13 -9q-13 -24 -39.5 -40t-61.5 -16q-46 0 -76 25.5t-30 68.5
q0 87 145 136q-36 0 -61.5 16.5t-33.5 41.5q-31 -58 -113 -58q-65 0 -108 28.5t-43 84.5q0 67 69.5 104.5t185.5 44.5v60q0 49 -6 69q-16 59 -87 59q-57 0 -92 -41q12 6 29 6q30 0 51 -21t21 -51q0 -28 -21 -46.5t-51 -18.5q-29 0 -48 20.5t-19 54.5zM216 18q23 0 45 19.5
t22 37.5q-3 21 -3 60v102q-118 -16 -118 -131q0 -88 54 -88z" />
    <glyph glyph-name="Cacute" unicode="&#x106;" horiz-adv-x="666" 
d="M40 316q0 168 103.5 266.5t263.5 98.5q118 0 224 -46l-3 -196h-14q-14 111 -59 169.5t-140 58.5q-210 0 -210 -354q0 -156 44 -235t143 -79q193 0 216 264h13l3 -232q-101 -46 -235 -46q-157 0 -253 90.5t-96 240.5zM341 712q7 12 43 85t56 97q12 14 30 15t34 -12
q16 -14 18 -32t-10 -32q-20 -24 -85.5 -72.5t-75.5 -57.5z" />
    <glyph glyph-name="cacute" unicode="&#x107;" horiz-adv-x="466" 
d="M291 330q0 30 20 50.5t49 20.5q21 0 40 -11q-29 43 -83 43q-57 0 -97 -52.5t-40 -136.5q0 -85 35 -138t97 -53q41 0 76 28.5t42 60.5l15 -3q-3 -54 -55.5 -103t-133.5 -49q-95 0 -158 60.5t-63 177.5q0 105 70 172t163 67q72 0 117.5 -38t45.5 -88q0 -36 -20.5 -57
t-50.5 -21q-29 0 -49 20.5t-20 49.5zM182 501q7 12 43 85t56 97q12 14 30 15t34 -12q16 -14 18 -32t-10 -32q-20 -24 -85.5 -72.5t-75.5 -57.5z" />
    <glyph glyph-name="Ccaron" unicode="&#x10c;" horiz-adv-x="666" 
d="M40 316q0 168 103.5 266.5t263.5 98.5q118 0 224 -46l-3 -196h-14q-14 111 -59 169.5t-140 58.5q-210 0 -210 -354q0 -156 44 -235t143 -79q193 0 216 264h13l3 -232q-101 -46 -235 -46q-157 0 -253 90.5t-96 240.5zM545 879l-102 -158h-83l-102 158l14 11l130 -98
l129 98z" />
    <glyph glyph-name="ccaron" unicode="&#x10d;" horiz-adv-x="466" 
d="M291 330q0 30 20 50.5t49 20.5q21 0 40 -11q-29 43 -83 43q-57 0 -97 -52.5t-40 -136.5q0 -85 35 -138t97 -53q41 0 76 28.5t42 60.5l15 -3q-3 -54 -55.5 -103t-133.5 -49q-95 0 -158 60.5t-63 177.5q0 105 70 172t163 67q72 0 117.5 -38t45.5 -88q0 -36 -20.5 -57
t-50.5 -21q-29 0 -49 20.5t-20 49.5zM407 666l-102 -158h-83l-102 158l14 11l130 -98l129 98z" />
    <glyph glyph-name="Dcaron" unicode="&#x10e;" horiz-adv-x="717" 
d="M33 652v13h176q28 0 55.5 1.5t33.5 1.5q104 0 188 -35t137.5 -110t53.5 -179q0 -177 -102 -262.5t-271 -85.5q-15 0 -55 2t-78 2h-138v13h62v639h-62zM245 652v-640q28 -2 41 -2q108 0 164.5 73t56.5 250q0 95 -16.5 160t-49 99t-70.5 47.5t-90 13.5q-24 0 -36 -1z
M453 879l-102 -158h-83l-102 158l14 11l130 -98l129 98z" />
    <glyph glyph-name="dcaron" unicode="&#x10f;" horiz-adv-x="590" 
d="M585 503l-11 7q24 31 24 65q0 18 -24 50t-24 54q0 23 13.5 37.5t37.5 14.5q28 0 43.5 -21t15.5 -54t-24 -78.5t-51 -74.5zM369 113v225q0 28 -27 53.5t-56 25.5q-101 0 -101 -193q0 -194 103 -194q33 0 57 27.5t24 55.5zM369 381v308h-73v13h209v-689h62v-13h-182l-16 67
q-10 -32 -48.5 -55t-91.5 -23q-87 0 -140.5 57t-53.5 180q0 121 58 177.5t138 56.5q46 0 85.5 -24t52.5 -55z" />
    <glyph glyph-name="Dcroat" unicode="&#x110;" horiz-adv-x="717" 
d="M39 321v15h56v316h-62v13h176q28 0 55.5 1.5t33.5 1.5q104 0 188 -35t137.5 -110t53.5 -179q0 -177 -102 -262.5t-271 -85.5q-15 0 -55 2t-78 2h-138v13h62v308h-56zM245 321v-309q28 -2 41 -2q108 0 164.5 73t56.5 250q0 95 -16.5 160t-49 99t-70.5 47.5t-90 13.5
q-24 0 -36 -1v-316h145v-15h-145z" />
    <glyph glyph-name="dcroat" unicode="&#x111;" horiz-adv-x="590" 
d="M219 559v14h150v116h-73v13h209v-129h62v-14h-62v-546h62v-13h-182l-16 67q-10 -32 -48.5 -55t-91.5 -23q-87 0 -140.5 57t-53.5 180q0 121 58 177.5t138 56.5q46 0 85.5 -24t52.5 -55v178h-150zM369 113v225q0 28 -27 53.5t-56 25.5q-101 0 -101 -193q0 -194 103 -194
q33 0 57 27.5t24 55.5z" />
    <glyph glyph-name="Emacron" unicode="&#x112;" horiz-adv-x="595" 
d="M153 725v13h268v-13h-268zM560 0h-527v13h62v639h-62v13h518l-3 -219h-12q-11 111 -58 154.5t-141 49.5q-34 2 -78 2h-14v-294q35 0 60 3q48 5 78 38.5t33 86.5h13v-269h-13q-5 54 -36.5 87.5t-73.5 37.5l-61 3v-332h46q40 0 64 2q83 8 131.5 57t58.5 157h12z" />
    <glyph glyph-name="emacron" unicode="&#x113;" horiz-adv-x="477" 
d="M107 528v13h268v-13h-268zM433 146l15 -3q-9 -63 -62 -109.5t-130 -46.5q-106 0 -163.5 66t-57.5 172q0 104 65 172t159 68q72 0 127.5 -33.5t55.5 -93.5q0 -58 -59 -80t-182 -22h-21q-2 -37 9 -77t43 -73t78 -33q43 0 77.5 28t45.5 65zM256 450q-18 0 -35 -17t-30 -65
t-12 -118q7 -1 22 -1q55 0 81 24t26 81q0 96 -52 96z" />
    <glyph glyph-name="Edotaccent" unicode="&#x116;" horiz-adv-x="595" 
d="M560 0h-527v13h62v639h-62v13h518l-3 -219h-12q-11 111 -58 154.5t-141 49.5q-34 2 -78 2h-14v-294q35 0 60 3q48 5 78 38.5t33 86.5h13v-269h-13q-5 54 -36.5 87.5t-73.5 37.5l-61 3v-332h46q40 0 64 2q83 8 131.5 57t58.5 157h12zM256 784q0 32 22.5 54.5t54.5 22.5
t54.5 -22.5t22.5 -54.5t-22.5 -54.5t-54.5 -22.5t-54.5 22.5t-22.5 54.5z" />
    <glyph glyph-name="edotaccent" unicode="&#x117;" horiz-adv-x="477" 
d="M433 146l15 -3q-9 -63 -62 -109.5t-130 -46.5q-106 0 -163.5 66t-57.5 172q0 104 65 172t159 68q72 0 127.5 -33.5t55.5 -93.5q0 -58 -59 -80t-182 -22h-21q-2 -37 9 -77t43 -73t78 -33q43 0 77.5 28t45.5 65zM256 450q-18 0 -35 -17t-30 -65t-12 -118q7 -1 22 -1
q55 0 81 24t26 81q0 96 -52 96zM172 590q0 32 22.5 54.5t54.5 22.5t54.5 -22.5t22.5 -54.5t-22.5 -54.5t-54.5 -22.5t-54.5 22.5t-22.5 54.5z" />
    <glyph glyph-name="Eogonek" unicode="&#x118;" horiz-adv-x="595" 
d="M380 0h-347v13h62v639h-62v13h518l-3 -219h-12q-11 111 -58 154.5t-141 49.5q-34 2 -78 2h-14v-294q35 0 60 3q48 5 78 38.5t33 86.5h13v-269h-13q-5 54 -36.5 87.5t-73.5 37.5l-61 3v-332h46q40 0 64 2q83 8 131.5 57t58.5 157h12l3 -229h-78q-46 0 -62 -6
q-29 -12 -49 -40.5t-20 -61.5q0 -35 15 -53t41 -18q21 0 40 21l13 -9q-13 -24 -40 -40t-62 -16q-46 0 -75.5 25.5t-29.5 68.5q0 51 36.5 83t90.5 46z" />
    <glyph glyph-name="eogonek" unicode="&#x119;" horiz-adv-x="477" 
d="M433 146l15 -3q-7 -47 -40 -86.5t-84 -60.5q-104 -41 -104 -122q0 -35 15.5 -53t41.5 -18q23 0 39 21l14 -9q-13 -24 -40 -40t-62 -16q-46 0 -75.5 25.5t-29.5 68.5q0 48 38.5 79t101.5 55h-7q-106 0 -163.5 66t-57.5 172q0 104 65 172t159 68q72 0 127.5 -33.5
t55.5 -93.5q0 -58 -59 -80t-182 -22h-21q-2 -37 9 -77t43 -73t78 -33q43 0 77.5 28t45.5 65zM256 450q-18 0 -35 -17t-30 -65t-12 -118q7 -1 22 -1q55 0 81 24t26 81q0 96 -52 96z" />
    <glyph glyph-name="Ecaron" unicode="&#x11a;" horiz-adv-x="595" 
d="M560 0h-527v13h62v639h-62v13h518l-3 -219h-12q-11 111 -58 154.5t-141 49.5q-34 2 -78 2h-14v-294q35 0 60 3q48 5 78 38.5t33 86.5h13v-269h-13q-5 54 -36.5 87.5t-73.5 37.5l-61 3v-332h46q40 0 64 2q83 8 131.5 57t58.5 157h12zM463 879l-102 -158h-83l-102 158
l14 11l130 -98l129 98z" />
    <glyph glyph-name="ecaron" unicode="&#x11b;" horiz-adv-x="477" 
d="M433 146l15 -3q-9 -63 -62 -109.5t-130 -46.5q-106 0 -163.5 66t-57.5 172q0 104 65 172t159 68q72 0 127.5 -33.5t55.5 -93.5q0 -58 -59 -80t-182 -22h-21q-2 -37 9 -77t43 -73t78 -33q43 0 77.5 28t45.5 65zM256 450q-18 0 -35 -17t-30 -65t-12 -118q7 -1 22 -1
q55 0 81 24t26 81q0 96 -52 96zM399 666l-102 -158h-83l-102 158l14 11l130 -98l129 98z" />
    <glyph glyph-name="Gbreve" unicode="&#x11e;" horiz-adv-x="710" 
d="M422 257h289v-13h-62v-181q-52 -40 -125 -59t-134 -19q-155 0 -253 91t-98 240q0 168 103.5 266.5t263.5 98.5q116 0 220 -46l-3 -190h-13q-18 222 -197 222q-209 0 -209 -354q0 -314 196 -314q71 0 89 60q12 37 8 185h-75v13zM515 865h13q-4 -61 -40 -101.5t-97 -40.5
q-60 0 -96.5 41t-40.5 101h14q5 -27 38 -42.5t85 -15.5q110 0 124 58z" />
    <glyph glyph-name="gbreve" unicode="&#x11f;" horiz-adv-x="470" 
d="M238 143q-76 0 -124 24q-18 -5 -18 -26q0 -24 29 -35t111 -21q52 -7 86 -15.5t68.5 -26.5t51.5 -50t17 -78q0 -80 -69 -130.5t-165 -50.5q-47 0 -86 9t-70 38t-31 74q0 37 28 65t78 39q-48 9 -81 36.5t-33 73.5q0 73 67 107q-69 42 -69 126q0 75 60.5 119t149.5 44
q84 0 143.5 -44t59.5 -119q0 -71 -56 -115t-147 -44zM174 -41q-16 0 -23 -24t-7 -50q0 -56 33 -91.5t99 -35.5q47 0 78.5 26t31.5 73q0 48 -45 70t-167 32zM301 303q0 74 -18 111.5t-48 37.5q-66 0 -66 -149q0 -72 18 -109.5t47 -37.5t48 36.5t19 110.5zM358 645h13
q-4 -61 -40 -101.5t-97 -40.5q-60 0 -96.5 41t-40.5 101h14q5 -27 38 -42.5t85 -15.5q110 0 124 58z" />
    <glyph glyph-name="uni0122" unicode="&#x122;" horiz-adv-x="710" 
d="M422 257h289v-13h-62v-181q-52 -40 -125 -59t-134 -19q-155 0 -253 91t-98 240q0 168 103.5 266.5t263.5 98.5q116 0 220 -46l-3 -190h-13q-18 222 -197 222q-209 0 -209 -354q0 -314 196 -314q71 0 89 60q12 37 8 185h-75v13zM384 -59q32 0 56.5 -24.5t24.5 -67.5
q0 -47 -34 -81.5t-83 -44.5l-2 14q76 17 92 79q-19 -23 -55 -23q-31 0 -53.5 21.5t-22.5 55.5q0 30 23.5 50.5t53.5 20.5z" />
    <glyph glyph-name="uni0123" unicode="&#x123;" horiz-adv-x="470" 
d="M238 143q-76 0 -124 24q-18 -5 -18 -26q0 -24 29 -35t111 -21q52 -7 86 -15.5t68.5 -26.5t51.5 -50t17 -78q0 -80 -69 -130.5t-165 -50.5q-47 0 -86 9t-70 38t-31 74q0 37 28 65t78 39q-48 9 -81 36.5t-33 73.5q0 73 67 107q-69 42 -69 126q0 75 60.5 119t149.5 44
q84 0 143.5 -44t59.5 -119q0 -71 -56 -115t-147 -44zM174 -41q-16 0 -23 -24t-7 -50q0 -56 33 -91.5t99 -35.5q47 0 78.5 26t31.5 73q0 48 -45 70t-167 32zM301 303q0 74 -18 111t-48 37q-66 0 -66 -148q0 -72 18 -109t47 -37t48 36t19 110zM223 504q-32 0 -56.5 25
t-24.5 68q0 46 34 81t83 45l2 -14q-77 -19 -92 -79q21 23 55 23q31 0 53.5 -22t22.5 -55q0 -31 -23.5 -51.5t-53.5 -20.5z" />
    <glyph glyph-name="Imacron" unicode="&#x12a;" horiz-adv-x="341" 
d="M20 713v13h303v-13h-303zM246 652v-639h62v-13h-275v13h62v639h-62v13h275v-13h-62z" />
    <glyph glyph-name="imacron" unicode="&#x12b;" horiz-adv-x="306" 
d="M18 528v13h235v-13h-235zM85 435h-62v13h198v-435h61v-13h-259v13h62v422z" />
    <glyph glyph-name="Iogonek" unicode="&#x12e;" horiz-adv-x="341" 
d="M246 652v-639h62v-13h-25q-37 0 -57 -10q-26 -13 -43.5 -40.5t-17.5 -57.5q0 -71 56 -71q21 0 40 21l13 -9q-13 -24 -40 -40t-62 -16q-46 0 -75.5 25.5t-29.5 68.5q0 51 36.5 83t90.5 46h-161v13h62v639h-62v13h275v-13h-62z" />
    <glyph glyph-name="iogonek" unicode="&#x12f;" horiz-adv-x="306" 
d="M85 435h-62v13h198v-435h61v-13h-18q-30 0 -41 -4q-31 -11 -52.5 -40.5t-21.5 -63.5q0 -35 15 -53t41 -18q24 0 40 21l14 -9q-31 -56 -102 -56q-46 0 -76 25.5t-30 68.5q0 51 36.5 83t90.5 46h-155v13h62v422zM76 591q0 32 22.5 54.5t54.5 22.5t54.5 -22.5t22.5 -54.5
t-22.5 -54.5t-54.5 -22.5t-54.5 22.5t-22.5 54.5z" />
    <glyph glyph-name="Idotaccent" unicode="&#x130;" horiz-adv-x="341" 
d="M246 652v-639h62v-13h-275v13h62v639h-62v13h275v-13h-62zM101 785q0 32 22.5 54.5t54.5 22.5t54.5 -22.5t22.5 -54.5t-22.5 -54.5t-54.5 -22.5t-54.5 22.5t-22.5 54.5z" />
    <glyph glyph-name="dotlessi" unicode="&#x131;" horiz-adv-x="306" 
d="M85 435h-62v13h198v-435h61v-13h-259v13h62v422z" />
    <glyph glyph-name="uni0136" unicode="&#x136;" horiz-adv-x="736" 
d="M245 652v-639h59v-13h-271v13h62v639h-62v13h272v-13h-60zM247 355l294 297h-69v13h153v-13h-65l-196 -202l297 -437h56v-13h-297v13h59l-232 340v2zM359 -40q32 0 56.5 -24.5t24.5 -67.5q0 -47 -34 -81.5t-83 -44.5l-2 14q76 17 92 79q-19 -23 -55 -23q-31 0 -53.5 21.5
t-22.5 55.5q0 30 23.5 50.5t53.5 20.5z" />
    <glyph glyph-name="uni0137" unicode="&#x137;" horiz-adv-x="566" 
d="M221 702v-351q20 45 68 77t102 32q57 0 88 -28t31 -70q0 -49 -42 -82t-93 -34v-7q51 -6 74.5 -35.5t31.5 -80.5q16 -101 47 -101q10 0 19 8t13 19l12 -4q-8 -30 -36.5 -51t-67.5 -21q-110 0 -125 135q-7 69 -28 99.5t-61 33.5v14q48 0 89.5 20.5t41.5 64.5q0 26 -18 46.5
t-48 20.5q-32 0 -65 -36.5t-33 -68.5v-289h51v-13h-249v13h62v676h-62v13h198zM308 -40q32 0 56.5 -24.5t24.5 -67.5q0 -47 -34 -81.5t-83 -44.5l-2 14q76 17 92 79q-19 -23 -55 -23q-31 0 -53.5 21.5t-22.5 55.5q0 30 23.5 50.5t53.5 20.5z" />
    <glyph glyph-name="Lacute" unicode="&#x139;" horiz-adv-x="540" 
d="M236 652v-639h29q51 0 79 5q149 27 162 211h12l3 -229h-498v13h62v639h-62v13h284v-13h-71zM140 712q7 12 43 85t56 97q12 14 30 15t34 -12q16 -14 18 -32t-10 -32q-20 -24 -85.5 -72.5t-75.5 -57.5z" />
    <glyph glyph-name="lacute" unicode="&#x13a;" horiz-adv-x="306" 
d="M221 702v-689h61v-13h-259v13h62v676h-62v13h198zM81 749q7 12 43 85t56 97q12 14 30 15t34 -12q16 -14 18 -32t-10 -32q-20 -24 -85.5 -72.5t-75.5 -57.5z" />
    <glyph glyph-name="uni013B" unicode="&#x13b;" 
d="M246 652v-639h29q51 0 79 5q149 27 162 211h12l3 -229h-498v13h62v639h-62v13h284v-13h-71zM293 -40q32 0 56.5 -24.5t24.5 -67.5q0 -47 -34 -81.5t-83 -44.5l-2 14q76 17 92 79q-19 -23 -55 -23q-31 0 -53.5 21.5t-22.5 55.5q0 30 23.5 50.5t53.5 20.5z" />
    <glyph glyph-name="uni013C" unicode="&#x13c;" horiz-adv-x="306" 
d="M221 702v-689h61v-13h-259v13h62v676h-62v13h198zM147 -40q32 0 56.5 -24.5t24.5 -67.5q0 -47 -34 -81.5t-83 -44.5l-2 14q76 17 92 79q-19 -23 -55 -23q-31 0 -53.5 21.5t-22.5 55.5q0 30 23.5 50.5t53.5 20.5z" />
    <glyph glyph-name="Lcaron" unicode="&#x13d;" 
d="M398 503l-11 7q24 31 24 65q0 18 -24 50t-24 54q0 23 13.5 37.5t37.5 14.5q28 0 43.5 -21t15.5 -54t-24 -78.5t-51 -74.5zM246 652v-639h29q51 0 79 5q149 27 162 211h12l3 -229h-498v13h62v639h-62v13h284v-13h-71z" />
    <glyph glyph-name="lcaron" unicode="&#x13e;" horiz-adv-x="306" 
d="M303 503l-11 7q24 31 24 65q0 18 -24 50t-24 54q0 23 13.5 37.5t37.5 14.5q28 0 43.5 -21t15.5 -54t-24 -78.5t-51 -74.5zM221 702v-689h61v-13h-259v13h62v676h-62v13h198z" />
    <glyph glyph-name="Lslash" unicode="&#x141;" 
d="M246 652v-297l150 100l8 -10l-158 -106v-326h29q51 0 79 5q149 27 162 211h12l3 -229h-498v13h62v225l-49 -33l-8 12l57 38v397h-62v13h284v-13h-71z" />
    <glyph glyph-name="lslash" unicode="&#x142;" horiz-adv-x="306" 
d="M221 702v-281l54 36l8 -10l-62 -42v-392h61v-13h-259v13h62v300l-50 -33l-7 11l57 38v360h-62v13h198z" />
    <glyph glyph-name="Nacute" unicode="&#x143;" horiz-adv-x="575" 
d="M-2 665h247l247 -401v388h-57v13h132v-13h-62v-664h-14l-416 662h-1v-637h57v-13h-133v13h62v639h-62v13zM217 712q7 12 43 85t56 97q12 14 30 15t34 -12q16 -14 18 -32t-10 -32q-20 -24 -85.5 -72.5t-75.5 -57.5z" />
    <glyph glyph-name="nacute" unicode="&#x144;" horiz-adv-x="605" 
d="M85 13v422h-67v13h185l15 -73q14 31 57 56t94 25q148 0 155 -158q2 -34 2 -116v-169h62v-13h-249v13h51v182q0 61 -1 92q-2 121 -85 121q-29 0 -56 -21t-27 -51v-323h51v-13h-249v13h62zM240 501q7 12 43 85t56 97q12 14 30 15t34 -12q16 -14 18 -32t-10 -32
q-20 -24 -85.5 -72.5t-75.5 -57.5z" />
    <glyph glyph-name="uni0145" unicode="&#x145;" horiz-adv-x="575" 
d="M-2 665h247l247 -401v388h-57v13h132v-13h-62v-664h-14l-416 662h-1v-637h57v-13h-133v13h62v639h-62v13zM286 -40q32 0 56.5 -24.5t24.5 -67.5q0 -47 -34 -81.5t-83 -44.5l-2 14q76 17 92 79q-19 -23 -55 -23q-31 0 -53.5 21.5t-22.5 55.5q0 30 23.5 50.5t53.5 20.5z
" />
    <glyph glyph-name="uni0146" unicode="&#x146;" horiz-adv-x="605" 
d="M85 13v422h-67v13h185l15 -73q14 31 57 56t94 25q148 0 155 -158q2 -34 2 -116v-169h62v-13h-249v13h51v182q0 61 -1 92q-2 121 -85 121q-29 0 -56 -21t-27 -51v-323h51v-13h-249v13h62zM292 -40q32 0 56.5 -24.5t24.5 -67.5q0 -47 -34 -81.5t-83 -44.5l-2 14
q76 17 92 79q-19 -23 -55 -23q-31 0 -53.5 21.5t-22.5 55.5q0 30 23.5 50.5t53.5 20.5z" />
    <glyph glyph-name="Ncaron" unicode="&#x147;" horiz-adv-x="575" 
d="M-2 665h247l247 -401v388h-57v13h132v-13h-62v-664h-14l-416 662h-1v-637h57v-13h-133v13h62v639h-62v13zM444 879l-102 -158h-83l-102 158l14 11l130 -98l129 98z" />
    <glyph glyph-name="ncaron" unicode="&#x148;" horiz-adv-x="605" 
d="M85 13v422h-67v13h185l15 -73q14 31 57 56t94 25q148 0 155 -158q2 -34 2 -116v-169h62v-13h-249v13h51v182q0 61 -1 92q-2 121 -85 121q-29 0 -56 -21t-27 -51v-323h51v-13h-249v13h62zM452 666l-102 -158h-83l-102 158l14 11l130 -98l129 98z" />
    <glyph glyph-name="Omacron" unicode="&#x14c;" horiz-adv-x="792" 
d="M225 713v13h344v-13h-344zM40 319q0 172 103 267t262 95q164 0 255.5 -98.5t91.5 -253.5q0 -84 -30.5 -151.5t-82.5 -108.5t-117 -62.5t-137 -21.5q-156 0 -250.5 91t-94.5 243zM584 316q0 351 -187 351q-43 0 -75.5 -16t-52.5 -46.5t-33 -63.5t-19 -76.5t-8 -76
t-2 -72.5q0 -150 46 -233.5t141 -83.5q49 0 85 20.5t55.5 50.5t31.5 75.5t15 84t3 86.5z" />
    <glyph glyph-name="omacron" unicode="&#x14d;" 
d="M145 528v13h268v-13h-268zM516 234q0 -112 -62.5 -179.5t-181.5 -67.5q-118 0 -177.5 64.5t-59.5 175.5q0 107 65 172t177 65q111 0 175 -61t64 -169zM276 449q-43 0 -67 -56t-24 -156q0 -236 92 -236q88 0 88 236q0 212 -89 212z" />
    <glyph glyph-name="Ohungarumlaut" unicode="&#x150;" horiz-adv-x="792" 
d="M40 319q0 172 103 267t262 95q164 0 255.5 -98.5t91.5 -253.5q0 -84 -30.5 -151.5t-82.5 -108.5t-117 -62.5t-137 -21.5q-156 0 -250.5 91t-94.5 243zM584 316q0 351 -187 351q-43 0 -75.5 -16t-52.5 -46.5t-33 -63.5t-19 -76.5t-8 -76t-2 -72.5q0 -150 46 -233.5
t141 -83.5q49 0 85 20.5t55.5 50.5t31.5 75.5t15 84t3 86.5zM304 728q2 15 7 56t10 75t13 55q7 19 22 26.5t31 1.5q34 -15 21 -55q-9 -26 -47 -88t-45 -76zM413 726q1 4 24 81t38 104q21 38 58 19q33 -17 11 -59q-14 -26 -63 -83.5t-57 -68.5z" />
    <glyph glyph-name="ohungarumlaut" unicode="&#x151;" 
d="M516 234q0 -112 -62.5 -179.5t-181.5 -67.5q-118 0 -177.5 64.5t-59.5 175.5q0 107 65 172t177 65q111 0 175 -61t64 -169zM276 449q-43 0 -67 -56t-24 -156q0 -236 92 -236q88 0 88 236q0 212 -89 212zM188 501q2 15 7 56t10 75t13 55q7 19 22 26.5t31 1.5
q34 -15 21 -55q-9 -26 -47 -88t-45 -76zM297 499q1 4 24 81t38 104q21 38 58 19q33 -17 11 -59q-14 -26 -63 -83.5t-57 -68.5z" />
    <glyph glyph-name="OE" unicode="&#x152;" horiz-adv-x="968" 
d="M934 0h-391q-37 0 -77.5 -2t-55.5 -2q-169 0 -270.5 85.5t-101.5 262.5q0 155 109 239.5t270 84.5q7 0 34 -1.5t54 -1.5h420l-3 -210h-12q-14 99 -51 141.5t-98 51.5q-27 4 -88 4h-54v-294q49 0 74 3q89 8 97 123h12v-265h-12q-5 56 -30.5 87.5t-65.5 35.5l-75 3v-332h41
q58 0 83 3q80 9 125 57.5t50 155.5h13zM469 12v640q-12 1 -35 1q-52 0 -90 -13.5t-70 -47.5t-49 -99t-17 -160q0 -177 56 -250t164 -73q13 0 41 2z" />
    <glyph glyph-name="oe" unicode="&#x153;" horiz-adv-x="796" 
d="M436 408q57 57 143 57q71 0 126.5 -33.5t55.5 -93.5q0 -58 -57 -80t-179 -22h-21q-3 -62 32 -125.5t102 -63.5q40 0 70 28.5t41 71.5l14 -3q-7 -69 -56.5 -113.5t-127.5 -44.5q-89 0 -149 57q-64 -56 -160 -56q-117 0 -176 64.5t-59 174.5q0 109 65 173.5t177 64.5
q93 0 159 -56zM277 449q-43 0 -67.5 -55t-24.5 -158q0 -235 91 -235q89 0 89 235q0 213 -88 213zM575 450q-18 0 -33.5 -17.5t-27 -64.5t-10.5 -118q7 -1 22 -1q54 0 77.5 23.5t23.5 81.5q0 96 -52 96z" />
    <glyph glyph-name="Racute" unicode="&#x154;" horiz-adv-x="671" 
d="M246 322v-309h62v-13h-275v13h62v639h-62v13h158q22 0 67.5 2.5t74.5 2.5q98 0 169 -41.5t71 -126.5q0 -148 -228 -166v-5q97 -3 150 -39q40 -26 59 -66t25 -99q3 -27 6.5 -43t13 -29.5t24.5 -13.5q22 0 33 28l10 -3q-4 -27 -34 -54.5t-78 -27.5q-38 0 -64.5 16t-41 46
t-22 58.5t-11.5 66.5q-11 98 -39.5 124.5t-129.5 26.5zM246 653v-316q92 2 131.5 41.5t39.5 127.5q0 148 -146 148q-17 0 -25 -1zM194 712q7 12 43 85t56 97q12 14 30 15t34 -12q16 -14 18 -32t-10 -32q-20 -24 -85.5 -72.5t-75.5 -57.5z" />
    <glyph glyph-name="racute" unicode="&#x155;" horiz-adv-x="429" 
d="M283 351q0 31 21 53t51 22q18 0 36 -8q-26 28 -65 28q-43 0 -74 -39t-31 -86v-308h61v-13h-259v13h62v422h-62v13h179q15 -52 15 -55q19 29 46.5 49.5t57.5 20.5q38 0 73 -27.5t35 -73.5q0 -37 -20 -59.5t-53 -22.5q-30 0 -51.5 20.5t-21.5 50.5zM151 511q7 12 43 85
t56 97q12 14 30 15t34 -12q16 -14 18 -32t-10 -32q-20 -24 -85.5 -72.5t-75.5 -57.5z" />
    <glyph glyph-name="uni0156" unicode="&#x156;" horiz-adv-x="671" 
d="M246 322v-309h62v-13h-275v13h62v639h-62v13h158q22 0 67.5 2.5t74.5 2.5q98 0 169 -41.5t71 -126.5q0 -148 -228 -166v-5q97 -3 150 -39q40 -26 59 -66t25 -99q3 -27 6.5 -43t13 -29.5t24.5 -13.5q22 0 33 28l10 -3q-4 -27 -34 -54.5t-78 -27.5q-38 0 -64.5 16t-41 46
t-22 58.5t-11.5 66.5q-11 98 -39.5 124.5t-129.5 26.5zM246 653v-316q92 2 131.5 41.5t39.5 127.5q0 148 -146 148q-17 0 -25 -1zM350 -40q32 0 56.5 -24.5t24.5 -67.5q0 -47 -34 -81.5t-83 -44.5l-2 14q76 17 92 79q-19 -23 -55 -23q-31 0 -53.5 21.5t-22.5 55.5
q0 30 23.5 50.5t53.5 20.5z" />
    <glyph glyph-name="uni0157" unicode="&#x157;" horiz-adv-x="429" 
d="M283 351q0 31 21 53t51 22q18 0 36 -8q-26 28 -65 28q-43 0 -74 -39t-31 -86v-308h61v-13h-259v13h62v422h-62v13h179q15 -52 15 -55q19 29 46.5 49.5t57.5 20.5q38 0 73 -27.5t35 -73.5q0 -37 -20 -59.5t-53 -22.5q-30 0 -51.5 20.5t-21.5 50.5zM145 -40
q32 0 56.5 -24.5t24.5 -67.5q0 -47 -34 -81.5t-83 -44.5l-2 14q76 17 92 79q-19 -23 -55 -23q-31 0 -53.5 21.5t-22.5 55.5q0 30 23.5 50.5t53.5 20.5z" />
    <glyph glyph-name="Rcaron" unicode="&#x158;" horiz-adv-x="671" 
d="M246 322v-309h62v-13h-275v13h62v639h-62v13h158q22 0 67.5 2.5t74.5 2.5q98 0 169 -41.5t71 -126.5q0 -148 -228 -166v-5q97 -3 150 -39q40 -26 59 -66t25 -99q3 -27 6.5 -43t13 -29.5t24.5 -13.5q22 0 33 28l10 -3q-4 -27 -34 -54.5t-78 -27.5q-38 0 -64.5 16t-41 46
t-22 58.5t-11.5 66.5q-11 98 -39.5 124.5t-129.5 26.5zM246 653v-316q92 2 131.5 41.5t39.5 127.5q0 148 -146 148q-17 0 -25 -1zM457 879l-102 -158h-83l-102 158l14 11l130 -98l129 98z" />
    <glyph glyph-name="rcaron" unicode="&#x159;" horiz-adv-x="429" 
d="M283 351q0 31 21 53t51 22q18 0 36 -8q-26 28 -65 28q-43 0 -74 -39t-31 -86v-308h61v-13h-259v13h62v422h-62v13h179q15 -52 15 -55q19 29 46.5 49.5t57.5 20.5q38 0 73 -27.5t35 -73.5q0 -37 -20 -59.5t-53 -22.5q-30 0 -51.5 20.5t-21.5 50.5zM382 666l-102 -158h-83
l-102 158l14 11l130 -98l129 98z" />
    <glyph glyph-name="Sacute" unicode="&#x15a;" horiz-adv-x="535" 
d="M460 635v-191h-13q-7 100 -52 161.5t-125 61.5q-49 0 -82 -28t-33 -73q0 -67 77 -108q18 -10 86 -41t96 -52q79 -61 79 -168q0 -101 -70 -156.5t-172 -55.5q-107 0 -203 46l-6 232h14q3 -51 14.5 -95t32.5 -83.5t57 -62.5t84 -23q54 0 93 35.5t39 87.5q0 65 -61 112
q-31 24 -95.5 53.5t-78.5 37.5q-99 55 -99 158q0 86 63 142t150 56q101 0 205 -46zM173 712q7 12 43 85t56 97q12 14 30 15t34 -12q16 -14 18 -32t-10 -32q-20 -24 -85.5 -72.5t-75.5 -57.5z" />
    <glyph glyph-name="sacute" unicode="&#x15b;" horiz-adv-x="399" 
d="M346 427l-4 -122l-15 -2q-12 63 -48 102.5t-83 39.5q-77 0 -77 -53q0 -25 16.5 -42t34 -24t58.5 -21q78 -26 113 -61t35 -102q0 -69 -53 -113.5t-127 -44.5q-38 0 -85.5 8t-74.5 19l-4 151l15 1q7 -64 47.5 -114t94.5 -50q36 0 62.5 18.5t26.5 51.5q0 20 -9 35t-28.5 26
t-31.5 16t-35 13q-74 24 -112.5 57.5t-38.5 95.5q0 66 48 107.5t117 41.5q81 0 158 -34zM115 501q7 12 43 85t56 97q12 14 30 15t34 -12q16 -14 18 -32t-10 -32q-20 -24 -85.5 -72.5t-75.5 -57.5z" />
    <glyph glyph-name="Scedilla" unicode="&#x15e;" horiz-adv-x="535" 
d="M261 -15l-69 -59q26 15 61 15q49 0 83.5 -29t34.5 -76q0 -50 -36 -78t-86 -28q-33 0 -62.5 15.5t-42.5 40.5l15 10q13 -24 49 -24q27 0 43.5 21t16.5 47q0 31 -20 51t-54 20q-9 0 -21 -2l-11 12l76 64q-108 5 -190 46l-6 232h14q3 -51 14.5 -95t32.5 -83.5t57 -62.5
t84 -23q54 0 93 35.5t39 87.5q0 65 -61 112q-31 24 -95.5 53.5t-78.5 37.5q-99 55 -99 158q0 86 63 142t150 56q101 0 205 -46v-191h-13q-7 100 -52 161.5t-125 61.5q-49 0 -82 -28t-33 -73q0 -67 77 -108q18 -10 86 -41t96 -52q79 -61 79 -168q0 -98 -67 -153.5t-165 -58.5
z" />
    <glyph glyph-name="scedilla" unicode="&#x15f;" horiz-adv-x="399" 
d="M197 -16l-69 -59q26 15 61 15q49 0 83.5 -29t34.5 -76q0 -50 -36 -78t-86 -28q-33 0 -62.5 15.5t-42.5 40.5l15 10q13 -24 49 -24q27 0 43.5 21t16.5 47q0 31 -20 51t-54 20q-9 0 -21 -2l-11 12l76 65q-84 4 -138 26l-4 151l15 1q7 -64 47.5 -114t94.5 -50
q36 0 62.5 18.5t26.5 51.5q0 20 -9 35t-28.5 26t-31.5 16t-35 13q-74 24 -112.5 57.5t-38.5 95.5q0 66 48 107.5t117 41.5q81 0 158 -34l-4 -122l-15 -2q-12 63 -48 102.5t-83 39.5q-77 0 -77 -53q0 -25 16.5 -42t34 -24t58.5 -21q78 -26 113 -61t35 -102q0 -69 -52.5 -113
t-126.5 -45z" />
    <glyph glyph-name="Scaron" unicode="&#x160;" horiz-adv-x="535" 
d="M460 635v-191h-13q-7 100 -52 161.5t-125 61.5q-49 0 -82 -28t-33 -73q0 -67 77 -108q18 -10 86 -41t96 -52q79 -61 79 -168q0 -101 -70 -156.5t-172 -55.5q-107 0 -203 46l-6 232h14q3 -51 14.5 -95t32.5 -83.5t57 -62.5t84 -23q54 0 93 35.5t39 87.5q0 65 -61 112
q-31 24 -95.5 53.5t-78.5 37.5q-99 55 -99 158q0 86 63 142t150 56q101 0 205 -46zM412 879l-102 -158h-83l-102 158l14 11l130 -98l129 98z" />
    <glyph glyph-name="scaron" unicode="&#x161;" horiz-adv-x="399" 
d="M346 427l-4 -122l-15 -2q-12 63 -48 102.5t-83 39.5q-77 0 -77 -53q0 -25 16.5 -42t34 -24t58.5 -21q78 -26 113 -61t35 -102q0 -69 -53 -113.5t-127 -44.5q-38 0 -85.5 8t-74.5 19l-4 151l15 1q7 -64 47.5 -114t94.5 -50q36 0 62.5 18.5t26.5 51.5q0 20 -9 35t-28.5 26
t-31.5 16t-35 13q-74 24 -112.5 57.5t-38.5 95.5q0 66 48 107.5t117 41.5q81 0 158 -34zM344 666l-102 -158h-83l-102 158l14 11l130 -98l129 98z" />
    <glyph glyph-name="uni0162" unicode="&#x162;" horiz-adv-x="609" 
d="M230 13v639q-94 0 -141 -43t-62 -154h-13l-3 210h587l-3 -210h-13q-15 111 -62 154t-140 43v-639h61v-13h-131l-75 -63q28 15 61 15q49 0 84 -29t35 -76q0 -50 -36.5 -78t-86.5 -28q-32 0 -62 15.5t-42 40.5l14 10q15 -24 51 -24q25 0 41.5 21t16.5 47q0 31 -19.5 51
t-53.5 20q-10 0 -22 -2l-10 12l79 68h-117v13h62z" />
    <glyph glyph-name="uni0163" unicode="&#x163;" horiz-adv-x="336" 
d="M176 -6l-67 -57q26 15 61 15q48 0 83 -29t35 -76q0 -50 -36 -78t-86 -28q-33 0 -62.5 15.5t-42.5 40.5l15 10q13 -24 49 -24q27 0 43.5 21t16.5 47q0 31 -20.5 51t-52.5 20q-10 0 -22 -2l-11 12l79 68q-52 21 -62 92q-6 38 -6 129v212h-63v15h63v81q43 0 79.5 24t42.5 59
h14v-164h90v-15h-90v-311q0 -49 5 -68q7 -36 41 -36q20 0 36 13l7 -9q-29 -33 -90 -33q-29 0 -49 5z" />
    <glyph glyph-name="Tcaron" unicode="&#x164;" horiz-adv-x="609" 
d="M230 13v639q-94 0 -141 -43t-62 -154h-13l-3 210h587l-3 -210h-13q-15 111 -62 154t-140 43v-639h61v-13h-273v13h62zM448 879l-102 -158h-83l-102 158l14 11l130 -98l129 98z" />
    <glyph glyph-name="tcaron" unicode="&#x165;" horiz-adv-x="399" 
d="M304 503l-12 7q24 29 24 65q0 18 -23.5 50t-23.5 54q0 23 13.5 37.5t37.5 14.5q28 0 43.5 -21t15.5 -54q0 -32 -24 -78t-51 -75zM308 31l7 -9q-29 -33 -90 -33q-31 0 -53.5 5.5t-46 29.5t-29.5 68q-6 38 -6 129v212h-63v15h63v81q43 0 79.5 24t42.5 59h14v-164h90v-15
h-90v-311q0 -49 5 -68q7 -36 41 -36q20 0 36 13z" />
    <glyph glyph-name="Umacron" unicode="&#x16a;" horiz-adv-x="654" 
d="M194 713v13h344v-13h-344zM23 652v13h276v-13h-61v-181q0 -174 2 -258q2 -91 37 -149.5t114 -58.5q85 0 133.5 64t48.5 201v382h-62v13h138v-13h-62v-375q0 -162 -57 -225.5t-166 -63.5q-120 0 -190 61.5t-81 176.5q-8 88 -8 252v174h-62z" />
    <glyph glyph-name="umacron" unicode="&#x16b;" horiz-adv-x="606" 
d="M137 528v13h268v-13h-268zM521 448v-435h48v-13h-166q-15 73 -15 75q-16 -35 -57.5 -59t-93.5 -24q-147 0 -155 158q-2 34 -2 116v169h-62v13h198v-194q0 -62 1 -93q5 -120 86 -120q28 0 55.5 22t27.5 51v321h-61v13h196z" />
    <glyph glyph-name="Uring" unicode="&#x16e;" horiz-adv-x="654" 
d="M23 652v13h276v-13h-61v-181q0 -174 2 -258q2 -91 37 -149.5t114 -58.5q85 0 133.5 64t48.5 201v382h-62v13h138v-13h-62v-375q0 -162 -57 -225.5t-166 -63.5q-120 0 -190 61.5t-81 176.5q-8 88 -8 252v174h-62zM489 795q0 -42 -27 -64.5t-72 -22.5q-42 0 -70.5 21.5
t-28.5 64.5q0 39 29 60.5t70 21.5q40 0 69.5 -20.5t29.5 -60.5zM390 862q-30 0 -30 -67q0 -73 30 -73t30 73q0 37 -7 52t-23 15z" />
    <glyph glyph-name="uring" unicode="&#x16f;" horiz-adv-x="606" 
d="M521 448v-435h48v-13h-166q-15 73 -15 75q-16 -35 -57.5 -59t-93.5 -24q-147 0 -155 158q-2 34 -2 116v169h-62v13h198v-194q0 -62 1 -93q5 -120 86 -120q28 0 55.5 22t27.5 51v321h-61v13h196zM392 590q0 -42 -27 -64.5t-72 -22.5q-42 0 -70.5 21.5t-28.5 64.5
q0 39 29 60.5t70 21.5q40 0 69.5 -20.5t29.5 -60.5zM293 657q-30 0 -30 -67q0 -73 30 -73t30 73q0 37 -7 52t-23 15z" />
    <glyph glyph-name="Uhungarumlaut" unicode="&#x170;" horiz-adv-x="654" 
d="M23 652v13h276v-13h-61v-181q0 -174 2 -258q2 -91 37 -149.5t114 -58.5q85 0 133.5 64t48.5 201v382h-62v13h138v-13h-62v-375q0 -162 -57 -225.5t-166 -63.5q-120 0 -190 61.5t-81 176.5q-8 88 -8 252v174h-62zM302 709q2 15 7 56t10 75t13 55q7 19 22 26.5t31 1.5
q34 -15 21 -55q-9 -26 -47 -88t-45 -76zM411 707q1 4 24 81t38 104q21 38 58 19q33 -17 11 -59q-14 -26 -63 -83.5t-57 -68.5z" />
    <glyph glyph-name="uhungarumlaut" unicode="&#x171;" horiz-adv-x="606" 
d="M521 448v-435h48v-13h-166q-15 73 -15 75q-16 -35 -57.5 -59t-93.5 -24q-147 0 -155 158q-2 34 -2 116v169h-62v13h198v-194q0 -62 1 -93q5 -120 86 -120q28 0 55.5 22t27.5 51v321h-61v13h196zM214 501q2 15 7 56t10 75t13 55q7 19 22 26.5t31 1.5q34 -15 21 -55
q-9 -26 -47 -88t-45 -76zM323 499q1 4 24 81t38 104q21 38 58 19q33 -17 11 -59q-14 -26 -63 -83.5t-57 -68.5z" />
    <glyph glyph-name="Uogonek" unicode="&#x172;" horiz-adv-x="654" 
d="M23 652v13h276v-13h-61v-181q0 -174 2 -258q2 -91 37 -149.5t114 -58.5q85 0 133.5 64t48.5 201v382h-62v13h138v-13h-62v-375q0 -120 -32 -184.5t-94 -90.5q-101 -42 -101 -115q0 -70 57 -70q24 0 39 21l14 -10q-13 -24 -40 -40t-62 -16q-46 0 -75.5 25.5t-29.5 68.5
q0 44 31.5 73t85.5 50q-11 -1 -16 -1q-120 0 -190 61.5t-81 176.5q-8 88 -8 252v174h-62z" />
    <glyph glyph-name="uogonek" unicode="&#x173;" horiz-adv-x="606" 
d="M521 448v-435h48v-13h-56q-49 0 -58 -3q-31 -9 -53.5 -39.5t-22.5 -65.5t15 -53t41 -18q21 0 40 21l13 -9q-13 -24 -39.5 -40t-61.5 -16q-46 0 -76 25.5t-30 68.5q0 50 35.5 82t86.5 47q-15 73 -15 75q-16 -35 -57.5 -59t-93.5 -24q-147 0 -155 158q-2 34 -2 116v169h-62
v13h198v-194q0 -62 1 -93q5 -120 86 -120q28 0 55.5 22t27.5 51v321h-61v13h196z" />
    <glyph glyph-name="Ydieresis" unicode="&#x178;" horiz-adv-x="632" 
d="M637 665v-13h-56l-178 -309v-330h62v-13h-275v13h62v297l-200 342h-57v13h293v-13h-63l172 -291l168 291h-62v13h134zM205 785q0 28 20.5 48.5t49.5 20.5t49 -20t20 -49t-20 -49t-49 -20t-49.5 20.5t-20.5 48.5zM384 785q0 29 20 49t48 20q29 0 50 -20.5t21 -48.5
t-21 -48.5t-50 -20.5q-28 0 -48 20t-20 49z" />
    <glyph glyph-name="Zacute" unicode="&#x179;" horiz-adv-x="606" 
d="M59 455l-3 210h502v-12l-342 -640h77q39 0 67 2q85 9 129.5 60.5t54.5 162.5h14l3 -238h-516v13l341 639h-84q-56 0 -70 -2q-71 -8 -109.5 -53t-50.5 -142h-13zM258 712q7 12 43 85t56 97q12 14 30 15t34 -12q16 -14 18 -32t-10 -32q-20 -24 -85.5 -72.5t-75.5 -57.5z
" />
    <glyph glyph-name="zacute" unicode="&#x17a;" horiz-adv-x="433" 
d="M30 9l212 426h-16q-35 0 -44 -1q-58 -5 -87.5 -35t-41.5 -92h-14l-3 141h364v-8l-214 -427h19q37 0 51 2q58 8 91.5 43.5t38.5 90.5h14l3 -149h-373v9zM161 501q7 12 43 85t56 97q12 14 30 15t34 -12q16 -14 18 -32t-10 -32q-20 -24 -85.5 -72.5t-75.5 -57.5z" />
    <glyph glyph-name="Zdotaccent" unicode="&#x17b;" horiz-adv-x="606" 
d="M59 455l-3 210h502v-12l-342 -640h77q39 0 67 2q85 9 129.5 60.5t54.5 162.5h14l3 -238h-516v13l341 639h-84q-56 0 -70 -2q-71 -8 -109.5 -53t-50.5 -142h-13zM211 784q0 32 22.5 54.5t54.5 22.5t54.5 -22.5t22.5 -54.5t-22.5 -54.5t-54.5 -22.5t-54.5 22.5t-22.5 54.5z
" />
    <glyph glyph-name="zdotaccent" unicode="&#x17c;" horiz-adv-x="433" 
d="M30 9l212 426h-16q-35 0 -44 -1q-58 -5 -87.5 -35t-41.5 -92h-14l-3 141h364v-8l-214 -427h19q37 0 51 2q58 8 91.5 43.5t38.5 90.5h14l3 -149h-373v9zM164 590q0 32 22.5 54.5t54.5 22.5t54.5 -22.5t22.5 -54.5t-22.5 -54.5t-54.5 -22.5t-54.5 22.5t-22.5 54.5z" />
    <glyph glyph-name="Zcaron" unicode="&#x17d;" horiz-adv-x="606" 
d="M59 455l-3 210h502v-12l-342 -640h77q39 0 67 2q85 9 129.5 60.5t54.5 162.5h14l3 -238h-516v13l341 639h-84q-56 0 -70 -2q-71 -8 -109.5 -53t-50.5 -142h-13zM460 879l-102 -158h-83l-102 158l14 11l130 -98l129 98z" />
    <glyph glyph-name="zcaron" unicode="&#x17e;" horiz-adv-x="433" 
d="M30 9l212 426h-16q-35 0 -44 -1q-58 -5 -87.5 -35t-41.5 -92h-14l-3 141h364v-8l-214 -427h19q37 0 51 2q58 8 91.5 43.5t38.5 90.5h14l3 -149h-373v9zM380 666l-102 -158h-83l-102 158l14 11l130 -98l129 98z" />
    <glyph glyph-name="uni0218" unicode="&#x218;" horiz-adv-x="535" 
d="M460 635v-191h-13q-7 100 -52 161.5t-125 61.5q-49 0 -82 -28t-33 -73q0 -67 77 -108q18 -10 86 -41t96 -52q79 -61 79 -168q0 -101 -70 -156.5t-172 -55.5q-107 0 -203 46l-6 232h14q3 -51 14.5 -95t32.5 -83.5t57 -62.5t84 -23q54 0 93 35.5t39 87.5q0 65 -61 112
q-31 24 -95.5 53.5t-78.5 37.5q-99 55 -99 158q0 86 63 142t150 56q101 0 205 -46zM257 -40q32 0 56.5 -24.5t24.5 -67.5q0 -47 -34 -81.5t-83 -44.5l-2 14q76 17 92 79q-19 -23 -55 -23q-31 0 -53.5 21.5t-22.5 55.5q0 30 23.5 50.5t53.5 20.5z" />
    <glyph glyph-name="uni0219" unicode="&#x219;" horiz-adv-x="399" 
d="M346 427l-4 -122l-15 -2q-12 63 -48 102.5t-83 39.5q-77 0 -77 -53q0 -25 16.5 -42t34 -24t58.5 -21q78 -26 113 -61t35 -102q0 -69 -53 -113.5t-127 -44.5q-38 0 -85.5 8t-74.5 19l-4 151l15 1q7 -64 47.5 -114t94.5 -50q36 0 62.5 18.5t26.5 51.5q0 20 -9 35t-28.5 26
t-31.5 16t-35 13q-74 24 -112.5 57.5t-38.5 95.5q0 66 48 107.5t117 41.5q81 0 158 -34zM185 -40q32 0 56.5 -24.5t24.5 -67.5q0 -47 -34 -81.5t-83 -44.5l-2 14q76 17 92 79q-19 -23 -55 -23q-31 0 -53.5 21.5t-22.5 55.5q0 30 23.5 50.5t53.5 20.5z" />
    <glyph glyph-name="uni021A" unicode="&#x21a;" horiz-adv-x="609" 
d="M230 13v639q-94 0 -141 -43t-62 -154h-13l-3 210h587l-3 -210h-13q-15 111 -62 154t-140 43v-639h61v-13h-273v13h62zM310 -40q32 0 56.5 -24.5t24.5 -67.5q0 -47 -34 -81.5t-83 -44.5l-2 14q76 17 92 79q-19 -23 -55 -23q-31 0 -53.5 21.5t-22.5 55.5q0 30 23.5 50.5
t53.5 20.5z" />
    <glyph glyph-name="uni021B" unicode="&#x21b;" horiz-adv-x="336" 
d="M308 31l7 -9q-29 -33 -90 -33q-31 0 -53.5 5.5t-46 29.5t-29.5 68q-6 38 -6 129v212h-63v15h63v81q43 0 79.5 24t42.5 59h14v-164h90v-15h-90v-311q0 -49 5 -68q7 -36 41 -36q20 0 36 13zM191 -40q32 0 56.5 -24.5t24.5 -67.5q0 -47 -34 -81.5t-83 -44.5l-2 14
q76 17 92 79q-19 -23 -55 -23q-31 0 -53.5 21.5t-22.5 55.5q0 30 23.5 50.5t53.5 20.5z" />
    <glyph glyph-name="circumflex" unicode="&#x2c6;" horiz-adv-x="0" 
d="M-247 691l101 -158l-14 -11l-129 98l-129 -98l-15 11l102 158h84z" />
    <glyph glyph-name="caron" unicode="&#x2c7;" horiz-adv-x="0" 
d="M-140 680l-102 -158h-83l-102 158l14 11l130 -98l129 98z" />
    <glyph glyph-name="breve" unicode="&#x2d8;" horiz-adv-x="0" 
d="M-186 702h13q-4 -61 -40 -101.5t-97 -40.5q-60 0 -96.5 41t-40.5 101h14q5 -27 38 -42.5t85 -15.5q110 0 124 58z" />
    <glyph glyph-name="dotaccent" unicode="&#x2d9;" horiz-adv-x="0" 
d="M-369 625q0 32 22.5 54.5t54.5 22.5t54.5 -22.5t22.5 -54.5t-22.5 -54.5t-54.5 -22.5t-54.5 22.5t-22.5 54.5z" />
    <glyph glyph-name="ring" unicode="&#x2da;" horiz-adv-x="0" 
d="M-191 618q0 -42 -27 -64.5t-72 -22.5q-42 0 -70.5 21.5t-28.5 64.5q0 39 29 60.5t70 21.5q40 0 69.5 -20.5t29.5 -60.5zM-290 685q-30 0 -30 -67q0 -73 30 -73t30 73q0 37 -7 52t-23 15z" />
    <glyph glyph-name="ogonek" unicode="&#x2db;" horiz-adv-x="0" 
d="M-255 9h25q-100 -52 -100 -126q0 -34 15 -52t41 -18q23 0 40 21l13 -10q-13 -24 -40 -40t-61 -16q-45 0 -75.5 27t-30.5 70q0 20 6.5 37.5t23 32t28 23.5t39 21t37 15.5t39.5 14.5z" />
    <glyph glyph-name="tilde" unicode="&#x2dc;" horiz-adv-x="0" 
d="M-411 590h-15q-7 16 -7 39q0 37 21 61.5t57 24.5q29 0 81 -23t76 -23q34 0 30 39h15q7 -18 7 -42q0 -36 -20.5 -59.5t-58.5 -23.5q-29 0 -81 23t-75 23q-17 0 -24.5 -11t-5.5 -28z" />
    <glyph glyph-name="hungarumlaut" unicode="&#x2dd;" horiz-adv-x="0" 
d="M-362 497q2 15 7 56t10 75t13 55q7 19 22 26.5t31 1.5q34 -15 21 -55q-9 -26 -47 -88t-45 -76zM-253 495q1 4 24 81t38 104q21 38 58 19q33 -17 11 -59q-14 -26 -63 -83.5t-57 -68.5z" />
    <glyph glyph-name="endash" unicode="&#x2013;" horiz-adv-x="490" 
d="M14 206v14h462v-14h-462z" />
    <glyph glyph-name="emdash" unicode="&#x2014;" horiz-adv-x="777" 
d="M14 206v14h749v-14h-749z" />
    <glyph glyph-name="quoteleft" unicode="&#x2018;" horiz-adv-x="162" 
d="M70 707q30 0 53.5 -20.5t23.5 -50.5q0 -34 -22.5 -55.5t-53.5 -21.5q-36 0 -55 23q16 -62 92 -79l-2 -14q-49 10 -83 44.5t-34 81.5q0 43 24.5 67.5t56.5 24.5z" />
    <glyph glyph-name="quoteright" unicode="&#x2019;" horiz-adv-x="138" 
d="M66 707q32 0 56.5 -24.5t24.5 -67.5q0 -47 -34 -81.5t-83 -44.5l-2 14q76 17 92 79q-19 -23 -55 -23q-31 0 -53.5 21.5t-22.5 55.5q0 30 23.5 50.5t53.5 20.5z" />
    <glyph glyph-name="quotesinglbase" unicode="&#x201a;" horiz-adv-x="186" 
d="M91 148q32 0 56.5 -24.5t24.5 -67.5q0 -47 -34 -81.5t-83 -44.5l-2 14q76 17 92 79q-19 -23 -55 -23q-31 0 -53.5 21.5t-22.5 55.5q0 30 23.5 50.5t53.5 20.5z" />
    <glyph glyph-name="quotedblleft" unicode="&#x201c;" horiz-adv-x="367" 
d="M70 707q30 0 53.5 -20.5t23.5 -50.5q0 -34 -22.5 -55.5t-53.5 -21.5q-36 0 -55 23q16 -62 92 -79l-2 -14q-49 10 -83 44.5t-34 81.5q0 43 24.5 67.5t56.5 24.5zM264 707q30 0 53.5 -20.5t23.5 -50.5q0 -34 -22.5 -55.5t-53.5 -21.5q-36 0 -55 23q16 -62 92 -79l-2 -14
q-49 10 -83 44.5t-34 81.5q0 43 24.5 67.5t56.5 24.5z" />
    <glyph glyph-name="quotedblright" unicode="&#x201d;" horiz-adv-x="347" 
d="M260 707q32 0 56.5 -24.5t24.5 -67.5q0 -47 -34 -81.5t-83 -44.5l-2 14q76 17 92 79q-19 -23 -55 -23q-31 0 -53.5 21.5t-22.5 55.5q0 30 23.5 50.5t53.5 20.5zM66 707q32 0 56.5 -24.5t24.5 -67.5q0 -47 -34 -81.5t-83 -44.5l-2 14q76 17 92 79q-19 -23 -55 -23
q-31 0 -53.5 21.5t-22.5 55.5q0 30 23.5 50.5t53.5 20.5z" />
    <glyph glyph-name="quotedblbase" unicode="&#x201e;" horiz-adv-x="385" 
d="M285 148q32 0 56.5 -24.5t24.5 -67.5q0 -47 -34 -81.5t-83 -44.5l-2 14q76 17 92 79q-19 -23 -55 -23q-31 0 -53.5 21.5t-22.5 55.5q0 30 23.5 50.5t53.5 20.5zM91 148q32 0 56.5 -24.5t24.5 -67.5q0 -47 -34 -81.5t-83 -44.5l-2 14q76 17 92 79q-19 -23 -55 -23
q-31 0 -53.5 21.5t-22.5 55.5q0 30 23.5 50.5t53.5 20.5z" />
    <glyph glyph-name="dagger" unicode="&#x2020;" horiz-adv-x="413" 
d="M207 671q30 0 53 -21.5t23 -48.5q0 -40 -45 -76q-25 -22 -25 -46q0 -38 19 -38q9 0 17.5 9t15 20t21.5 20t36 9q27 0 52 -20t25 -57t-24.5 -57t-52.5 -20q-49 0 -67 44q-13 38 -26 38q-16 0 -16 -31q0 -93 84 -127q-32 -71 -60 -208.5t-28 -240.5h-5q0 103 -28 240.5
t-60 208.5q84 35 84 127q0 31 -16 31q-12 0 -27 -38q-7 -19 -25 -31.5t-41 -12.5q-28 0 -52.5 20t-24.5 57t25 57t52 20q20 0 35 -9t21.5 -20t15 -20t17.5 -9q20 0 20 38q0 25 -26 46q-44 37 -44 76q0 28 22.5 49t54.5 21z" />
    <glyph glyph-name="daggerdbl" unicode="&#x2021;" horiz-adv-x="413" 
d="M125 266v3q30 16 48.5 45t22.5 48t4 34q0 31 -16 31q-12 0 -27 -38q-7 -19 -25 -32.5t-41 -13.5q-28 0 -52.5 20t-24.5 57t25 57t52 20q25 0 41.5 -14t27 -28t20.5 -14q20 0 20 36q0 27 -26 48q-44 37 -44 76q0 28 23 50.5t54 22.5q30 0 53 -22.5t23 -50.5q0 -40 -45 -76
q-25 -22 -25 -46q0 -38 19 -38q9 0 17.5 8.5t15 19.5t21.5 19.5t36 8.5q27 0 52 -20t25 -57t-24.5 -57t-52.5 -20q-23 0 -41 13t-26 33q-13 38 -26 38q-10 0 -13 -7t-3 -24q0 -82 75 -127v-3q-23 -13 -39.5 -32t-23.5 -38.5t-9.5 -33t-2.5 -23.5q0 -32 16 -32q12 0 26 38
q8 20 26 33.5t41 13.5q28 0 52.5 -20t24.5 -57t-25 -57t-52 -20q-25 0 -41.5 14t-27 28t-21.5 14q-19 0 -19 -38q0 -24 26 -47q44 -35 44 -76q0 -28 -23 -50.5t-54 -22.5q-30 0 -53 22.5t-23 50.5q0 42 45 76q25 23 25 47q0 38 -20 38q-11 0 -20.5 -14t-26 -28t-42.5 -14
q-27 0 -52 20t-25 57t24.5 57t52.5 20q23 0 41 -13.5t25 -33.5q15 -38 27 -38q16 0 16 32q0 87 -75 127z" />
    <glyph glyph-name="bullet" unicode="&#x2022;" horiz-adv-x="267" 
d="M14 329q0 50 35 84.5t85 34.5t84.5 -35t34.5 -84q0 -50 -34.5 -85t-84.5 -35t-85 35t-35 85z" />
    <glyph glyph-name="ellipsis" unicode="&#x2026;" horiz-adv-x="697" 
d="M14 72q0 32 22.5 54.5t54.5 22.5t54.5 -22.5t22.5 -54.5t-22.5 -54.5t-54.5 -22.5t-54.5 22.5t-22.5 54.5zM238 72q0 32 22.5 54.5t54.5 22.5t54.5 -22.5t22.5 -54.5t-22.5 -54.5t-54.5 -22.5t-54.5 22.5t-22.5 54.5zM464 72q0 32 22.5 54.5t54.5 22.5t54.5 -22.5
t22.5 -54.5t-22.5 -54.5t-54.5 -22.5t-54.5 22.5t-22.5 54.5z" />
    <glyph glyph-name="perthousand" unicode="&#x2030;" horiz-adv-x="901" 
d="M887 156q0 -69 -40.5 -112.5t-113.5 -43.5q-72 0 -110.5 42t-38.5 109q0 65 42 107t110 42q67 0 109 -39.5t42 -104.5zM736 286q-50 0 -50 -129q0 -35 2 -58.5t7 -44t15.5 -30.5t26.5 -10q28 0 37.5 36t9.5 107q0 67 -10 98t-38 31zM48 45l462 583l10 -8l-459 -584z
M317 521q0 -69 -40.5 -112.5t-113.5 -43.5t-111 41.5t-38 109.5q0 64 42 106.5t110 42.5q67 0 109 -39.5t42 -104.5zM166 651q-50 0 -50 -129q0 -35 2 -58.5t7 -44t15.5 -30.5t26.5 -10q28 0 37.5 36t9.5 107q0 67 -10 98t-38 31zM545 156q0 -69 -40.5 -112.5t-113.5 -43.5
q-72 0 -110.5 42t-38.5 109q0 65 42 107t110 42q67 0 109 -39.5t42 -104.5zM394 286q-50 0 -50 -129q0 -35 2 -58.5t7 -44t15.5 -30.5t26.5 -10q28 0 37.5 36t9.5 107q0 67 -10 98t-38 31z" />
    <glyph glyph-name="guilsinglleft" unicode="&#x2039;" horiz-adv-x="210" 
d="M196 86l-10 -10q-153 123 -163 133q-20 16 0 34l163 133l10 -10l-105 -140z" />
    <glyph glyph-name="guilsinglright" unicode="&#x203a;" horiz-adv-x="210" 
d="M24 76l-10 10q78 100 105 140l-105 140l10 10q153 -122 164 -133q18 -18 0 -34z" />
    <glyph glyph-name="fraction" unicode="&#x2044;" horiz-adv-x="320" 
d="M14 -4l279 669l13 -5l-279 -669z" />
    <glyph glyph-name="Euro" unicode="&#x20ac;" horiz-adv-x="666" 
d="M-10 297v16h50v3q0 38 6 74h-56v16h59q27 129 124 202t234 73q118 0 224 -46l-3 -196h-14q-14 111 -59 169.5t-140 58.5q-180 0 -206 -261h211v-16h-212q-3 -41 -3 -77h215v-16h-215q2 -148 46 -223t141 -75q193 0 216 264h13l3 -232q-101 -46 -235 -46q-152 0 -247 85
t-102 227h-50z" />
    <glyph glyph-name="trademark" unicode="&#x2122;" horiz-adv-x="733" 
d="M129 365v286q-93 0 -100 -79h-13l-2 93h294l-1 -93h-15q-3 45 -26.5 62t-66.5 17v-286h37v-14h-144v14h37zM329 365h37v285h-37v15h124l75 -205l70 205h121v-15h-36v-285h36v-14h-146v14h36v288h-1l-106 -305h-11l-109 305h-1v-288h36v-14h-88v14z" />
    <glyph glyph-name="minus" unicode="&#x2212;" horiz-adv-x="453" 
d="M439 238v-15h-425v15h425z" />
    <glyph glyph-name="notequal" unicode="&#x2260;" horiz-adv-x="452" 
d="M80 70l68 75h-134v14h146l132 149h-278v13h291l57 64l9 -10l-48 -54h115v-13h-128l-133 -149h261v-14h-272l-75 -83z" />
    <glyph glyph-name="lessequal" unicode="&#x2264;" horiz-adv-x="512" 
d="M35 272l463 -209v-16l-482 217v14l482 217v-16zM14 14h484v-14h-484v14z" />
    <glyph glyph-name="greaterequal" unicode="&#x2265;" horiz-adv-x="512" 
d="M14 63l463 209l-463 207v16l482 -217v-14l-482 -217v16zM14 14h484v-14h-484v14z" />
    <glyph glyph-name="k.salt" horiz-adv-x="586" 
d="M221 702v-689h51v-13h-249v13h62v676h-62v13h198zM222 247l226 188h-78v13h155v-13h-57l-133 -112l235 -310h34v-13h-274v13h69z" />
    </font>
</defs>
</svg>
