<svg xmlns="http://www.w3.org/2000/svg" width="26" height="22.169" viewBox="0 0 26 22.169">
  <g id="list-svgrepo-com" transform="translate(-0.001 -17.136)">
    <path id="Path_86" data-name="Path 86" d="M1.386,93.18a1.131,1.131,0,0,1,.164-.614.512.512,0,0,1,.45-.24.6.6,0,0,1,.48.189.756.756,0,0,1,.16.506,1.166,1.166,0,0,1-.158.524,3.956,3.956,0,0,1-.514.686L.185,96.083v.786h3.8v-.894H1.925l-.011-.044.742-.805a11.551,11.551,0,0,0,.992-1.192,1.614,1.614,0,0,0,.269-.922,1.538,1.538,0,0,0-.507-1.218A2.069,2.069,0,0,0,2,91.349a1.823,1.823,0,0,0-1.367.529,1.7,1.7,0,0,0-.5,1.284l.008.017H1.386Z" transform="translate(-0.119 -65.917)" fill="#fff"/>
    <path id="Path_87" data-name="Path 87" d="M1.812,21.673H.582v1.006h3.8V21.673H3.153V17.136L.582,17.52v.911h1.23Z" transform="translate(-0.516)" fill="#fff"/>
    <path id="Path_88" data-name="Path 88" d="M3.022,167.78a1.552,1.552,0,0,0,.62-.491,1.134,1.134,0,0,0,.232-.687,1.372,1.372,0,0,0-.535-1.158,2.291,2.291,0,0,0-1.427-.409,2.106,2.106,0,0,0-1.307.407,1.247,1.247,0,0,0-.516,1.082l.008.042H1.331a.4.4,0,0,1,.188-.389.71.71,0,0,1,.437-.153.626.626,0,0,1,.482.172.609.609,0,0,1,.166.434.718.718,0,0,1-.184.523.718.718,0,0,1-.527.195H1.3v.894h.6a.872.872,0,0,1,.589.2.751.751,0,0,1,.209.589.633.633,0,0,1-.2.478.777.777,0,0,1-1.034-.014.549.549,0,0,1-.205-.467H.009L0,169.073a1.323,1.323,0,0,0,.559,1.186,2.3,2.3,0,0,0,1.35.411,2.39,2.39,0,0,0,1.473-.428,1.4,1.4,0,0,0,.576-1.183,1.27,1.27,0,0,0-.249-.788,1.473,1.473,0,0,0-.689-.491Z" transform="translate(0 -131.366)" fill="#fff"/>
    <rect id="Rectangle_41" data-name="Rectangle 41" width="20.234" height="3.689" transform="translate(5.767 33.635)" fill="#fff"/>
    <rect id="Rectangle_42" data-name="Rectangle 42" width="20.234" height="3.689" transform="translate(5.767 26.368)" fill="#fff"/>
    <rect id="Rectangle_43" data-name="Rectangle 43" width="20.234" height="3.689" transform="translate(5.767 18.879)" fill="#fff"/>
  </g>
</svg>
