<svg id="no-record-found" xmlns="http://www.w3.org/2000/svg" width="752.42" height="746" viewBox="0 0 752.42 746">
  <g id="empty_item" transform="translate(0.034 -48.8)">
    <path id="Path_509" data-name="Path 509" d="M506.414,129.657v35.414H158.736S135.666,168.6,135.666,142V76.462S132.139,57.8,154.328,57.8h110.8l28.361,47.023H485.106S506.414,108.35,506.414,129.657Z" transform="translate(63.611 4.225)" fill="#ededed"/>
    <g id="Group_133" data-name="Group 133" transform="translate(163.645 83.333)">
      <path id="Path_510" data-name="Path 510" d="M135.522,399.7c-3.821,0-10.433-.735-15.87-5.437s-8.082-11.756-8.082-21.307V94.783c-.294-1.763-1.029-9.4,3.968-15.429,3.821-4.7,9.992-7.053,18.221-7.053h110.8a3.624,3.624,0,0,1,3.086,1.763l27.332,45.26h190.15c8.376,1.469,24.246,9.111,24.246,28.361V396.025a3.576,3.576,0,0,1-3.527,3.527H138.314A12.793,12.793,0,0,1,135.522,399.7ZM133.758,79.5q-9.037,0-12.784,4.408c-3.38,4.115-2.351,9.992-2.351,9.992V372.954c0,7.347,1.91,12.784,5.731,16.017,5.437,4.7,13.225,3.527,13.225,3.527H482.318V147.684c0-17.046-15.723-20.867-18.074-21.307H272.918a3.624,3.624,0,0,1-3.086-1.763L242.5,79.353H133.758Z" transform="translate(-111.352 -72.3)" fill="#00adef"/>
    </g>
    <ellipse id="Ellipse_20" data-name="Ellipse 20" cx="244.08" cy="47.17" rx="244.08" ry="47.17" transform="translate(227.49 563.41)" fill="#f5f5f5"/>
    <g id="Group_134" data-name="Group 134" transform="translate(577.115 502.904)">
      <line id="Line_7" data-name="Line 7" x2="10.727" y2="10.58" transform="translate(3.49 3.49)" fill="#fff"/>
      <path id="Path_511" data-name="Path 511" d="M406.8,375.422a3.442,3.442,0,0,1-2.5-1.029l-10.58-10.58a3.533,3.533,0,0,1,5-5l10.58,10.58a3.642,3.642,0,0,1,0,5A3.027,3.027,0,0,1,406.8,375.422Z" transform="translate(-392.725 -357.825)" fill="#00adef"/>
    </g>
    <g id="Group_135" data-name="Group 135" transform="translate(594.896 488.797)">
      <line id="Line_8" data-name="Line 8" x2="10.58" y2="10.727" transform="translate(3.49 3.343)" fill="#fff"/>
      <path id="Path_512" data-name="Path 512" d="M418.9,365.822a3.442,3.442,0,0,1-2.5-1.029l-10.58-10.58a3.533,3.533,0,0,1,5-5l10.58,10.58a3.642,3.642,0,0,1,0,5A3.223,3.223,0,0,1,418.9,365.822Z" transform="translate(-404.825 -348.225)" fill="#00adef"/>
    </g>
    <circle id="Ellipse_21" data-name="Ellipse 21" cx="159.585" cy="159.585" r="159.585" transform="translate(332.411 219.112)" fill="#ededed"/>
    <g id="Group_136" data-name="Group 136" transform="translate(304.05 215.585)">
      <circle id="Ellipse_22" data-name="Ellipse 22" cx="159.585" cy="159.585" r="159.585" transform="translate(3.527 3.527)" fill="#fff"/>
      <path id="Path_513" data-name="Path 513" d="M370.012,488.523c-89.932,0-163.112-73.18-163.112-163.112S280.08,162.3,370.012,162.3s163.112,73.18,163.112,163.112S459.943,488.523,370.012,488.523Zm0-319.17c-86.111,0-156.058,69.947-156.058,156.058S283.9,481.47,370.012,481.47,526.07,411.523,526.07,325.412,455.976,169.353,370.012,169.353Z" transform="translate(-206.9 -162.3)" fill="#00adef"/>
    </g>
    <g id="Group_137" data-name="Group 137" transform="translate(328.884 240.419)">
      <path id="Path_514" data-name="Path 514" d="M362.077,455.755c-76.266,0-138.277-62.012-138.277-138.278S285.812,179.2,362.077,179.2s138.277,62.012,138.277,138.277S438.343,455.755,362.077,455.755Zm0-269.5c-72.3,0-131.224,58.926-131.224,131.224,0,72.445,58.926,131.224,131.224,131.224,72.445,0,131.224-58.926,131.224-131.224C493.3,245.032,434.376,186.253,362.077,186.253Z" transform="translate(-223.8 -179.2)" fill="#00adef"/>
    </g>
    <g id="Group_138" data-name="Group 138" transform="translate(719.764 315.363)">
      <path id="Path_515" data-name="Path 515" d="M506.111,262.822a16.311,16.311,0,1,1,16.311-16.311A16.369,16.369,0,0,1,506.111,262.822Zm0-28.361a12.05,12.05,0,1,0,12.05,12.05A12.1,12.1,0,0,0,506.111,234.461Z" transform="translate(-489.8 -230.2)" fill="#cfa851"/>
    </g>
    <circle id="Ellipse_23" data-name="Ellipse 23" cx="7.053" cy="7.053" r="7.053" transform="translate(729.022 324.62)" fill="#ededed"/>
    <g id="Group_139" data-name="Group 139" transform="translate(165.616 187.812)">
      <path id="Path_516" data-name="Path 516" d="M485.068,150.453H116.524a3.7,3.7,0,0,1-3.821-3.233,3.554,3.554,0,0,1,3.527-3.821H485.068a3.5,3.5,0,0,1,3.527,2.645A3.581,3.581,0,0,1,485.068,150.453Z" transform="translate(-112.694 -143.4)" fill="#00adef"/>
    </g>
    <g id="Group_142" data-name="Group 142" transform="translate(9.421 77.161)">
      <g id="Group_140" data-name="Group 140" transform="translate(21.454)">
        <path id="Path_517" data-name="Path 517" d="M24.527,117.768A3.576,3.576,0,0,1,21,114.241V71.627a3.527,3.527,0,1,1,7.053,0v42.615A3.576,3.576,0,0,1,24.527,117.768Z" transform="translate(-21 -68.1)" fill="#cfa851"/>
      </g>
      <g id="Group_141" data-name="Group 141" transform="translate(0 21.307)">
        <path id="Path_518" data-name="Path 518" d="M52.541,89.653H9.927a3.527,3.527,0,0,1,0-7.053H52.541a3.576,3.576,0,0,1,3.527,3.527A3.481,3.481,0,0,1,52.541,89.653Z" transform="translate(-6.4 -82.6)" fill="#cfa851"/>
      </g>
    </g>
    <g id="Group_145" data-name="Group 145" transform="translate(391.814 328.184)">
      <g id="Group_143" data-name="Group 143">
        <path id="Path_519" data-name="Path 519" d="M270.115,276.066a3.442,3.442,0,0,1-2.5-1.029,3.642,3.642,0,0,1,0-5l30.124-30.124a3.533,3.533,0,0,1,5,5l-30.124,30.124A3.441,3.441,0,0,1,270.115,276.066Z" transform="translate(-266.625 -238.925)" fill="#cfa851"/>
      </g>
      <g id="Group_144" data-name="Group 144">
        <path id="Path_520" data-name="Path 520" d="M300.239,276.066a3.442,3.442,0,0,1-2.5-1.029l-30.124-30.124a3.533,3.533,0,1,1,5-5l30.124,30.124a3.642,3.642,0,0,1,0,5A3.441,3.441,0,0,1,300.239,276.066Z" transform="translate(-266.625 -238.925)" fill="#cfa851"/>
      </g>
    </g>
    <g id="Group_148" data-name="Group 148" transform="translate(508.931 328.184)">
      <g id="Group_146" data-name="Group 146">
        <path id="Path_521" data-name="Path 521" d="M349.815,276.066a3.442,3.442,0,0,1-2.5-1.029,3.642,3.642,0,0,1,0-5l30.124-30.124a3.533,3.533,0,0,1,5,5l-30.124,30.124A3.442,3.442,0,0,1,349.815,276.066Z" transform="translate(-346.325 -238.925)" fill="#cfa851"/>
      </g>
      <g id="Group_147" data-name="Group 147">
        <path id="Path_522" data-name="Path 522" d="M379.792,276.066a3.442,3.442,0,0,1-2.5-1.029l-29.977-30.124a3.533,3.533,0,0,1,5-5l30.124,30.124a3.642,3.642,0,0,1,0,5A3.541,3.541,0,0,1,379.792,276.066Z" transform="translate(-346.325 -238.925)" fill="#cfa851"/>
      </g>
    </g>
    <g id="Group_151" data-name="Group 151" transform="translate(651.581 48.8)">
      <g id="Group_149" data-name="Group 149" transform="translate(31.888)">
        <path id="Path_523" data-name="Path 523" d="M468.627,119.776a3.576,3.576,0,0,1-3.527-3.527V52.327a3.527,3.527,0,1,1,7.053,0v63.922A3.481,3.481,0,0,1,468.627,119.776Z" transform="translate(-465.1 -48.8)" fill="#cfa851"/>
      </g>
      <g id="Group_150" data-name="Group 150" transform="translate(0 31.888)">
        <path id="Path_524" data-name="Path 524" d="M510.849,77.553H446.927a3.527,3.527,0,0,1,0-7.053h63.922a3.527,3.527,0,1,1,0,7.053Z" transform="translate(-443.4 -70.5)" fill="#cfa851"/>
      </g>
    </g>
    <g id="Group_152" data-name="Group 152" transform="translate(442.328 407.058)">
      <path id="Path_525" data-name="Path 525" d="M301,316.307S304.527,295,329.361,295c0,0,28.361,0,28.361,21.307" transform="translate(-301 -291.473)" fill="none" stroke="#fff" stroke-miterlimit="10" stroke-width="1"/>
      <path id="Path_526" data-name="Path 526" d="M304.763,316.7h-.147a3.386,3.386,0,0,1-3.38-4.261c1.91-7.053,8.376-19.838,29.536-19.838,10.286,0,24.981,3.233,28.361,20.867a3.3,3.3,0,0,1-3.233,3.968h-.147a3.194,3.194,0,0,1-3.233-2.792c-2.057-14.695-20.72-14.842-21.748-14.842-16.9,0-21.6,9.845-22.924,14.548A3.746,3.746,0,0,1,304.763,316.7Z" transform="translate(-300.943 -292.6)" fill="#cfa851"/>
    </g>
    <g id="Group_153" data-name="Group 153" transform="translate(588.687 497.063)">
      <path id="Path_527" data-name="Path 527" d="M513.052,466.252h0a28.825,28.825,0,0,1-40.851,0l-60.689-60.689a28.825,28.825,0,0,1,0-40.851h0a28.825,28.825,0,0,1,40.851,0L513.052,425.4A28.825,28.825,0,0,1,513.052,466.252Z" transform="translate(-399.461 -352.735)" fill="#fff"/>
      <path id="Path_528" data-name="Path 528" d="M493.765,479.27a32.366,32.366,0,0,1-22.924-9.4l-60.689-60.689a32.284,32.284,0,0,1,0-45.848,32.461,32.461,0,0,1,45.848,0l60.689,60.689a32.284,32.284,0,0,1,0,45.848h0A32.118,32.118,0,0,1,493.765,479.27ZM433.075,360.977a25.744,25.744,0,0,0-17.928,7.347,24.987,24.987,0,0,0-7.347,17.928,25.6,25.6,0,0,0,7.347,17.928l60.689,60.689a25.277,25.277,0,0,0,35.708,0h0a24.987,24.987,0,0,0,7.347-17.928,25.6,25.6,0,0,0-7.347-17.928l-60.689-60.689A24.9,24.9,0,0,0,433.075,360.977Zm81.115,106.39Z" transform="translate(-400.6 -353.85)" fill="#00adef"/>
    </g>
    <path id="Path_529" data-name="Path 529" d="M.9,313.98l47.611,90.226a7.774,7.774,0,0,0,10.727,3.38L126.1,371.731a7.925,7.925,0,0,0,3.086-10.874L75.988,264.9,4.13,303.253A7.969,7.969,0,0,0,.9,313.98Z" transform="translate(0 101.453)" fill="#ededed"/>
    <g id="Group_154" data-name="Group 154" transform="translate(20.431 364.724)">
      <path id="Path_530" data-name="Path 530" d="M68.421,397.82a11.189,11.189,0,0,1-3.086-.441,10.266,10.266,0,0,1-6.172-5.143L15.079,307.3h0a10.436,10.436,0,0,1,4.408-14.107l54.371-29.1a2.2,2.2,0,0,1,1.91-.147l26.744,7.494a2.118,2.118,0,0,1,1.616,1.323l40.557,73.915a11,11,0,0,1,.882,8.082,10.07,10.07,0,0,1-5.143,6.319L73.564,396.939A20.965,20.965,0,0,1,68.421,397.82ZM19.634,304.656l44.084,84.936a5.508,5.508,0,0,0,3.086,2.645,4.706,4.706,0,0,0,3.968-.441l66.861-35.855a5.176,5.176,0,0,0,2.5-3.086,4.706,4.706,0,0,0-.441-3.968L99.721,276l-24.687-6.907L21.692,297.6a5.587,5.587,0,0,0-2.057,7.054Z" transform="translate(-13.893 -263.791)" fill="#00adef"/>
    </g>
    <g id="Group_155" data-name="Group 155" transform="translate(78.773 364.534)">
      <path id="Path_531" data-name="Path 531" d="M66.534,288.258a1.1,1.1,0,0,1-.735-.147,2.855,2.855,0,0,1-1.616-1.323L53.9,267.538a2.646,2.646,0,0,1,.294-2.939,2.513,2.513,0,0,1,2.939-.735L85.2,273.416a2.382,2.382,0,0,1,1.763,2.351,2.471,2.471,0,0,1-1.323,2.5l-17.781,9.552A2.37,2.37,0,0,1,66.534,288.258Zm-4.7-17.193,5.878,10.874L77.849,276.5Z" transform="translate(-53.595 -263.662)" fill="#00adef"/>
    </g>
    <g id="Group_156" data-name="Group 156" transform="translate(43.045 398.132)">
      <path id="Path_532" data-name="Path 532" d="M31.953,310A2.618,2.618,0,0,1,29.6,308.53,2.519,2.519,0,0,1,30.778,305l35.708-18.221a2.636,2.636,0,0,1,3.527,1.176,2.519,2.519,0,0,1-1.176,3.527L33.276,309.705A4.292,4.292,0,0,1,31.953,310Z" transform="translate(-29.282 -286.526)" fill="#cfa851"/>
    </g>
    <g id="Group_157" data-name="Group 157" transform="translate(60.826 427.163)">
      <path id="Path_533" data-name="Path 533" d="M44.053,333.934a2.618,2.618,0,0,1-2.351-1.469,2.519,2.519,0,0,1,1.176-3.527L86.668,306.6a2.629,2.629,0,1,1,2.351,4.7l-43.79,22.336A2.768,2.768,0,0,1,44.053,333.934Z" transform="translate(-41.382 -306.282)" fill="#cfa851"/>
    </g>
    <g id="Group_158" data-name="Group 158" transform="translate(69.349 442.07)">
      <path id="Path_534" data-name="Path 534" d="M49.853,345.042a2.618,2.618,0,0,1-2.351-1.469,2.519,2.519,0,0,1,1.176-3.527l45.848-23.365a2.636,2.636,0,0,1,3.527,1.176,2.519,2.519,0,0,1-1.176,3.527L51.029,344.749A3.458,3.458,0,0,1,49.853,345.042Z" transform="translate(-47.182 -316.426)" fill="#cfa851"/>
    </g>
    <g id="Group_159" data-name="Group 159" transform="translate(50.834 410.558)">
      <path id="Path_535" data-name="Path 535" d="M37.253,322.634a2.618,2.618,0,0,1-2.351-1.469,2.519,2.519,0,0,1,1.176-3.527L79.868,295.3a2.629,2.629,0,1,1,2.351,4.7l-43.79,22.336A1.583,1.583,0,0,1,37.253,322.634Z" transform="translate(-34.582 -294.982)" fill="#cfa851"/>
    </g>
  </g>
  <text id="Oops_no_record_found" data-name="Oops no record found" transform="translate(698 730)" fill="#cfa851" font-size="65" font-family="Quadranta"><tspan x="-642.72" y="0">Oops no record found</tspan></text>
</svg>
