<svg xmlns="http://www.w3.org/2000/svg" width="9.617" height="17.946" viewBox="0 0 9.617 17.946">
  <g id="password" transform="translate(-8.24 -1.536)">
    <path id="Path_801" data-name="Path 801" d="M12.475,2.376A4.343,4.343,0,0,0,10.731,10.1a.316.316,0,0,1,.13.254v2.3a.776.776,0,0,0,.794.776.782.782,0,0,1,.757.807v.9a.776.776,0,0,1-.794.776.782.782,0,0,0-.757.831v.143a.714.714,0,0,0,.211.5l1.65,1.65a.875.875,0,0,0,1.241,0l1.65-1.65a.714.714,0,0,0,.211-.5V10.355a.316.316,0,0,1,.13-.254,4.343,4.343,0,0,0-3.481-7.725Zm.869,4.877a1.241,1.241,0,1,1,1.241-1.241A1.241,1.241,0,0,1,13.343,7.253Z" transform="translate(-0.289 -0.285)" fill="#fff"/>
    <path id="Path_802" data-name="Path 802" d="M13.054,19.482a1.334,1.334,0,0,1-.949-.391l-1.65-1.65a1.185,1.185,0,0,1-.347-.831v-.143a1.309,1.309,0,0,1,.391-.937,1.241,1.241,0,0,1,.838-.335.335.335,0,0,0,.223-.087.31.31,0,0,0,.093-.223v-.906a.385.385,0,0,0-.112-.267.217.217,0,0,0-.168-.068A1.241,1.241,0,0,1,10.1,12.4V10.144a4.808,4.808,0,1,1,5.894,0V16.6a1.179,1.179,0,0,1-.347.831L14,19.085A1.334,1.334,0,0,1,13.054,19.482Zm-1.743-3.388a.23.23,0,0,0-.161.068.385.385,0,0,0-.112.267v.143a.248.248,0,0,0,.074.174l1.65,1.65a.422.422,0,0,0,.583,0L15,16.746a.242.242,0,0,0,.074-.174v-6.5a.782.782,0,0,1,.31-.62,3.882,3.882,0,1,0-4.66-.006.782.782,0,0,1,.316.62v2.308a.31.31,0,0,0,.093.223.316.316,0,0,0,.223.087,1.185,1.185,0,0,1,.838.335,1.315,1.315,0,0,1,.391.937v.9a1.24,1.24,0,0,1-1.266,1.241Z" fill="#fff"/>
  </g>
</svg>
