<svg xmlns="http://www.w3.org/2000/svg" width="18.187" height="14.805" viewBox="0 0 18.187 14.805">
  <path id="twitter-icon" d="M20.187,5.623a7.72,7.72,0,0,1-2.146.582,3.756,3.756,0,0,0,1.646-2.064,7.466,7.466,0,0,1-2.373.909,3.728,3.728,0,0,0-6.365,3.4,10.585,10.585,0,0,1-7.684-3.9,3.783,3.783,0,0,0-.5,1.882,3.719,3.719,0,0,0,1.655,3.1,3.683,3.683,0,0,1-1.691-.464v.045a3.728,3.728,0,0,0,3,3.637,3.574,3.574,0,0,1-1,.155,4.456,4.456,0,0,1-.7-.064,3.737,3.737,0,0,0,3.483,2.582,7.475,7.475,0,0,1-4.6,1.6A7.211,7.211,0,0,1,2,16.972a10.521,10.521,0,0,0,5.72,1.682A10.539,10.539,0,0,0,18.368,8.033V7.551A7.666,7.666,0,0,0,20.187,5.623Z" transform="translate(-2 -3.849)" fill="#fff"/>
</svg>
