<svg xmlns="http://www.w3.org/2000/svg" width="19.174" height="13.473" viewBox="0 0 19.174 13.473">
  <path id="youtube-icon" d="M20.161,9.007a7.4,7.4,0,0,0-.793-3.6,2.543,2.543,0,0,0-1.5-.871,68.253,68.253,0,0,0-7.29-.27,68.326,68.326,0,0,0-7.264.261,2.5,2.5,0,0,0-1.272.645,4.494,4.494,0,0,0-.958,3,42.059,42.059,0,0,0,0,5.644,8.318,8.318,0,0,0,.261,1.742,2.735,2.735,0,0,0,.618,1.185,2.491,2.491,0,0,0,1.3.679,39.352,39.352,0,0,0,5.661.287c3.048.044,5.722,0,8.884-.244a2.508,2.508,0,0,0,1.333-.679,2.169,2.169,0,0,0,.531-.871,9.215,9.215,0,0,0,.453-2.961C20.161,12.473,20.161,9.529,20.161,9.007ZM8.611,13.484V8.092L13.768,10.8C12.322,11.6,10.414,12.508,8.611,13.484Z" transform="translate(-0.991 -4.258)" fill="#fff"/>
</svg>
