<svg xmlns="http://www.w3.org/2000/svg" xmlns:xlink="http://www.w3.org/1999/xlink" width="35.327" height="52.399" viewBox="0 0 35.327 52.399">
  <defs>
    <clipPath id="clip-path">
      <rect id="Rectangle_1" data-name="Rectangle 1" width="35.327" height="52.399" transform="translate(14.582 21.629)" fill="none"/>
    </clipPath>
  </defs>
  <g id="location" transform="translate(-14.582 -21.629)" clip-path="url(#clip-path)">
    <g id="Path_1" data-name="Path 1" transform="translate(14.582 21.629)">
      <path id="Path_1-2" data-name="Path 1" d="M206.76,180.17c-1.439-1.963-4.616-6.385-7.794-11.423-5.594-8.868-8.658-15.586-8.86-19.428a19.084,19.084,0,0,1,5.141-13.88,16.156,16.156,0,0,1,5-3.61,14.882,14.882,0,0,1,6.235-1.35l.251,0a17.318,17.318,0,0,1,6.831,1.476,16.026,16.026,0,0,1,5.311,3.826,16.768,16.768,0,0,1,3.534,6.022,19.105,19.105,0,0,1,.916,7.5c-.306,4.307-3.393,11.179-8.929,19.875C211.278,174.071,208.185,178.278,206.76,180.17Z" transform="translate(-189.066 -129.462)" fill="#3b195b"/>
      <path id="Path_2" data-name="Path 2" d="M206.287,177.972c1.6-2.164,4.174-5.755,6.767-9.826a98.147,98.147,0,0,0,5.887-10.434,27.2,27.2,0,0,0,2.885-8.967,18.1,18.1,0,0,0-.866-7.1,15.765,15.765,0,0,0-3.319-5.66,15.038,15.038,0,0,0-4.977-3.585,16.317,16.317,0,0,0-6.432-1.387l-.235,0a13.882,13.882,0,0,0-5.812,1.258,15.143,15.143,0,0,0-4.684,3.385,18.049,18.049,0,0,0-4.863,13.127c.071,1.354.61,3.917,2.775,8.438a106.259,106.259,0,0,0,5.922,10.489c2.661,4.219,5.322,8.005,6.952,10.264m-.022,3.406s-17.141-22.665-17.658-32.489c-.513-9.743,6.755-19.91,17.39-19.91l.268,0c10.781.173,18.365,8.963,17.589,19.908S206.266,181.378,206.266,181.378Z" transform="translate(-188.582 -128.979)" fill="#0d0119"/>
    </g>
    <g id="Ellipse_1" data-name="Ellipse 1" transform="translate(24.255 31.681)" fill="#3b195b">
      <path d="M 8.010116577148438 14.02023792266846 C 4.696126461029053 14.02023792266846 1.999996542930603 11.32410717010498 1.999996542930603 8.010117530822754 C 1.999996542930603 4.696127414703369 4.696126461029053 1.999997496604919 8.010116577148438 1.999997496604919 C 11.32410621643066 1.999997496604919 14.02023696899414 4.696127414703369 14.02023696899414 8.010117530822754 C 14.02023696899414 11.32410717010498 11.32410621643066 14.02023792266846 8.010116577148438 14.02023792266846 Z" stroke="none"/>
      <path d="M 8.010116577148438 3.999997138977051 C 5.79892635345459 3.999997138977051 3.999996185302734 5.798927307128906 3.999996185302734 8.010117530822754 C 3.999996185302734 10.2213077545166 5.79892635345459 12.02023696899414 8.010116577148438 12.02023696899414 C 10.22130680084229 12.02023696899414 12.02023696899414 10.2213077545166 12.02023696899414 8.010117530822754 C 12.02023696899414 5.798927307128906 10.22130680084229 3.999997138977051 8.010116577148438 3.999997138977051 M 8.010116577148438 -1.9073486328125e-06 C 12.4339771270752 -1.9073486328125e-06 16.02023696899414 3.586247444152832 16.02023696899414 8.010117530822754 C 16.02023696899414 12.43398761749268 12.4339771270752 16.02023696899414 8.010116577148438 16.02023696899414 C 3.586256980895996 16.02023696899414 -3.814697265625e-06 12.43398761749268 -3.814697265625e-06 8.010117530822754 C -3.814697265625e-06 3.586247444152832 3.586256980895996 -1.9073486328125e-06 8.010116577148438 -1.9073486328125e-06 Z" stroke="none" fill="#fff"/>
    </g>
  </g>
</svg>
